<svg class="main-svg" xmlns="http://www.w3.org/2000/svg" xmlns:xlink="http://www.w3.org/1999/xlink" width="1500" height="1500" style="" viewBox="0 0 500 500"><rect x="0" y="0" width="500" height="500" style="fill: rgb(255, 255, 255); fill-opacity: 1;"/><defs id="defs-d5a38b"><g class="clips"><clipPath id="clipd5a38bxyplot" class="plotclip"><rect width="377" height="437"/></clipPath><clipPath class="axesclip" id="clipd5a38bx"><rect x="28" y="0" width="377" height="500"/></clipPath><clipPath class="axesclip" id="clipd5a38by"><rect x="0" y="40" width="500" height="437"/></clipPath><clipPath class="axesclip" id="clipd5a38bxy"><rect x="28" y="40" width="377" height="437"/></clipPath><clipPath class="contourclip" id="clip8f02ac"><path d="M0,30L377,30L377,407L0,407Z"/></clipPath></g><g class="gradients"/><g class="patterns"/></defs><g class="bglayer"><rect class="bg" x="28" y="40" width="377" height="437" style="fill: rgb(237, 237, 237); fill-opacity: 1; stroke-width: 0;"/></g><g class="layer-below"><g class="imagelayer"/><g class="shapelayer"/></g><g class="cartesianlayer"><g class="subplot xy"><g class="layer-subplot"><g class="shapelayer"/><g class="imagelayer"/></g><g class="gridlayer"><g class="x"><path class="xgrid crisp" transform="translate(90.83,0)" d="M0,40v437" style="stroke: rgb(255, 255, 255); stroke-opacity: 1; stroke-width: 1px;"/><path class="xgrid crisp" transform="translate(174.61,0)" d="M0,40v437" style="stroke: rgb(255, 255, 255); stroke-opacity: 1; stroke-width: 1px;"/><path class="xgrid crisp" transform="translate(258.39,0)" d="M0,40v437" style="stroke: rgb(255, 255, 255); stroke-opacity: 1; stroke-width: 1px;"/><path class="xgrid crisp" transform="translate(342.17,0)" d="M0,40v437" style="stroke: rgb(255, 255, 255); stroke-opacity: 1; stroke-width: 1px;"/></g><g class="y"><path class="ygrid crisp" transform="translate(0,384.17)" d="M28,0h377" style="stroke: rgb(255, 255, 255); stroke-opacity: 1; stroke-width: 1px;"/><path class="ygrid crisp" transform="translate(0,300.39)" d="M28,0h377" style="stroke: rgb(255, 255, 255); stroke-opacity: 1; stroke-width: 1px;"/><path class="ygrid crisp" transform="translate(0,216.61)" d="M28,0h377" style="stroke: rgb(255, 255, 255); stroke-opacity: 1; stroke-width: 1px;"/><path class="ygrid crisp" transform="translate(0,132.82999999999998)" d="M28,0h377" style="stroke: rgb(255, 255, 255); stroke-opacity: 1; stroke-width: 1px;"/><path class="ygrid crisp" transform="translate(0,49.06)" d="M28,0h377" style="stroke: rgb(255, 255, 255); stroke-opacity: 1; stroke-width: 1px;"/></g></g><g class="zerolinelayer"><path class="yzl zl crisp" transform="translate(0,467.94)" d="M28,0h377" style="stroke: rgb(255, 255, 255); stroke-opacity: 1; stroke-width: 1px;"/></g><path class="xlines-below"/><path class="ylines-below"/><g class="overlines-below"/><g class="xaxislayer-below"/><g class="yaxislayer-below"/><g class="overaxes-below"/><g class="plot" transform="translate(28,40)" clip-path="url(#clipd5a38bxyplot)"><g class="contourlayer mlayer"><g class="contour" clip-path="url(#clip8f02ac)" style="opacity: 1;"><g class="heatmapcoloring"/><g class="contourbg"/><g class="contourfill"/><g class="contourlines"><g class="contourlevel"/><g class="contourlevel"><path class="openline" d="M377,258.31Q376.06,260.98 375.58,262.29C375.11,263.58 374.59,264.96 374.16,266.1C373.81,267.03 373.46,267.94 373.19,268.64C373,269.14 372.9,269.37 372.68,269.91C372.3,270.84 371.66,272.44 371.13,273.72C370.59,275.03 370.01,276.38 369.445,277.66999999999996C368.9,278.92 368.37,280.1 367.81,281.33C367.24,282.59 366.44,284.28 366.04,285.14C365.84,285.58 365.78,285.72 365.58,286.13C365.24,286.83 364.69,287.94 364.19,288.95C363.6,290.13 362.69,291.91 362.26,292.76C362.04,293.19 361.98,293.32 361.77,293.72C361.41,294.42 360.81,295.54 360.25,296.57C359.59,297.79 358.78,299.24 358.04999999999995,300.53499999999997C357.35,301.78 356.63,303.02 355.95,304.18C355.33,305.24 354.56,306.52 354.15,307.2C353.94,307.55 353.89,307.63 353.66,307.99C353.17,308.78 351.9,310.83 351.28,311.8C350.9,312.4 350.69,312.71 350.34,313.25C349.89,313.94 349.36,314.76 348.79,315.61C348.11,316.62 346.97,318.31 346.54,318.92C346.37,319.16 346.36,319.17 346.19,319.41C345.71,320.08 344.1,322.35 343.48,323.22C343.15,323.67 343.04,323.82 342.73,324.25C342.21,324.95 341.31,326.15 340.65,327.03C340.05,327.82 339.45,328.6 338.92,329.28C338.48,329.85 338.18,330.23 337.69,330.84C336.99,331.72 335.64,333.38 335.11,334.03C334.88,334.32 334.85,334.36 334.6,334.65C333.99,335.39 332.44,337.22 331.33500000000004,338.49C330.24,339.76 328.63,341.56 328,342.26C327.76,342.53 327.73,342.56 327.49,342.82C326.9,343.46 325.15,345.35 324.47,346.07C324.13,346.44 324.03,346.53 323.69,346.89C323.03,347.58 321.46,349.18 320.77,349.88C320.39,350.27 320.27,350.39 319.88,350.77C319.18,351.46 317.58,353.03 316.89,353.69C316.53,354.03 316.44,354.13 316.07,354.47C315.35,355.15 313.46,356.9 312.82,357.49C312.56,357.73 312.53,357.76 312.26,358C311.56,358.63 309.76,360.24 308.49,361.33500000000004C307.22,362.44 305.39,363.99 304.65,364.6C304.36,364.85 304.32,364.88 304.03,365.11C303.38,365.64 301.72,366.99 300.84,367.69C300.23,368.18 299.85,368.48 299.28,368.92C298.6,369.45 297.82,370.05 297.03,370.65C296.15,371.31 294.95,372.21 294.25,372.73C293.82,373.04 293.67,373.15 293.22,373.48C292.35,374.1 290.08,375.71 289.41,376.19C289.17,376.36 289.16,376.37 288.92,376.54C288.31,376.97 286.62,378.11 285.61,378.79C284.76,379.36 283.94,379.89 283.25,380.34C282.71,380.69 282.4,380.9 281.8,381.28C280.83,381.9 278.78,383.17 277.99,383.66C277.63,383.89 277.55,383.94 277.2,384.15C276.52,384.56 275.24,385.33 274.18,385.95C273.02,386.63 271.78,387.35 270.53499999999997,388.04999999999995C269.24,388.78 267.79,389.59 266.57,390.25C265.54,390.81 264.42,391.41 263.72,391.77C263.32,391.98 263.19,392.04 262.76,392.26C261.91,392.69 260.13,393.6 258.95,394.19C257.94,394.69 256.83,395.24 256.13,395.58C255.72,395.78 255.58,395.84 255.14,396.04C254.28,396.44 252.59,397.24 251.33,397.81C250.1,398.37 248.92,398.9 247.67000000000002,399.445C246.38,400.01 245.03,400.59 243.72,401.13C242.44,401.66 240.84,402.3 239.91,402.68C239.37,402.9 239.14,403 238.64,403.19C237.94,403.46 237.03,403.81 236.1,404.16C234.96,404.59 233.58,405.11 232.29,405.58Q230.98,406.06 228.31,407" style="stroke-miterlimit: 1; vector-effect: non-scaling-stroke; fill: none; stroke: rgb(47, 38, 33); stroke-opacity: 1; stroke-width: 2px;"/><path class="openline" d="M0,178.69Q0.94,176.02 1.42,174.71C1.89,173.42 2.41,172.04 2.84,170.9C3.19,169.97 3.54,169.06 3.81,168.36C4,167.86 4.1,167.63 4.32,167.09C4.7,166.16 5.34,164.56 5.87,163.28C6.41,161.97 6.99,160.62 7.555,159.32999999999998C8.1,158.08 8.63,156.9 9.19,155.67C9.76,154.41 10.56,152.72 10.96,151.86C11.16,151.42 11.22,151.28 11.42,150.87C11.76,150.17 12.31,149.06 12.81,148.05C13.4,146.87 14.31,145.09 14.74,144.24C14.96,143.81 15.02,143.68 15.23,143.28C15.59,142.58 16.19,141.46 16.75,140.43C17.41,139.21 18.22,137.76 18.95,136.465C19.65,135.22 20.37,133.98 21.05,132.82C21.67,131.76 22.44,130.48 22.85,129.8C23.06,129.45 23.11,129.37 23.34,129.01C23.83,128.22 25.1,126.17 25.72,125.2C26.1,124.6 26.31,124.29 26.66,123.75C27.11,123.06 27.64,122.24 28.21,121.39C28.89,120.38 30.03,118.69 30.46,118.08C30.63,117.84 30.64,117.83 30.81,117.59C31.29,116.92 32.9,114.65 33.52,113.78C33.85,113.33 33.96,113.18 34.27,112.75C34.79,112.05 35.69,110.85 36.35,109.97C36.95,109.18 37.55,108.4 38.08,107.72C38.52,107.15 38.82,106.77 39.31,106.16C40.01,105.28 41.36,103.62 41.89,102.97C42.12,102.68 42.15,102.64 42.4,102.35C43.01,101.61 44.56,99.78 45.665000000000006,98.50999999999999C46.76,97.24 48.37,95.44 49,94.74C49.24,94.47 49.27,94.44 49.51,94.18C50.1,93.54 51.85,91.65 52.53,90.93C52.87,90.56 52.97,90.47 53.31,90.11C53.97,89.42 55.54,87.82 56.23,87.12C56.61,86.73 56.73,86.61 57.12,86.23C57.82,85.54 59.42,83.97 60.11,83.31C60.47,82.97 60.56,82.87 60.93,82.53C61.65,81.85 63.54,80.1 64.18,79.51C64.44,79.27 64.47,79.24 64.74,79C65.44,78.37 67.24,76.76 68.50999999999999,75.66499999999999C69.78,74.56 71.61,73.01 72.35,72.4C72.64,72.15 72.68,72.12 72.97,71.89C73.62,71.36 75.28,70.01 76.16,69.31C76.77,68.82 77.15,68.52 77.72,68.08C78.4,67.55 79.18,66.95 79.97,66.35C80.85,65.69 82.05,64.79 82.75,64.27C83.18,63.96 83.33,63.85 83.78,63.52C84.65,62.9 86.92,61.29 87.59,60.81C87.83,60.64 87.84,60.63 88.08,60.46C88.69,60.03 90.38,58.89 91.39,58.21C92.24,57.64 93.06,57.11 93.75,56.66C94.29,56.31 94.6,56.1 95.2,55.72C96.17,55.1 98.22,53.83 99.01,53.34C99.37,53.11 99.45,53.06 99.8,52.85C100.48,52.44 101.76,51.67 102.82,51.05C103.98,50.37 105.22,49.65 106.465,48.95C107.76,48.22 109.21,47.41 110.43,46.75C111.46,46.19 112.58,45.59 113.28,45.23C113.68,45.02 113.81,44.96 114.24,44.74C115.09,44.31 116.87,43.4 118.05,42.81C119.06,42.31 120.17,41.76 120.87,41.42C121.28,41.22 121.42,41.16 121.86,40.96C122.72,40.56 124.41,39.76 125.67,39.19C126.9,38.63 128.08,38.1 129.32999999999998,37.555C130.62,36.99 131.97,36.41 133.28,35.87C134.56,35.34 136.16,34.7 137.09,34.32C137.63,34.1 137.86,34 138.36,33.81C139.06,33.54 139.97,33.19 140.9,32.84C142.04,32.41 143.42,31.89 144.71,31.42Q146.02,30.94 148.69,30" style="stroke-miterlimit: 1; vector-effect: non-scaling-stroke; fill: none; stroke: rgb(47, 38, 33); stroke-opacity: 1; stroke-width: 2px;"/></g><g class="contourlevel"><path class="openline" d="M0,227.2Q0.76,225.27 1.18,224.21C1.65,223.02 2.23,221.56 2.7,220.4C3.1,219.41 3.51,218.37 3.81,217.67C4,217.23 4.08,217.07 4.28,216.6C4.66,215.72 5.38,214.06 5.94,212.79C6.5,211.52 7.05,210.27 7.63,209.005C8.22,207.73 8.83,206.46 9.44,205.17C10.07,203.86 10.71,202.5 11.35,201.21C11.97,199.97 12.58,198.79 13.21,197.56C13.86,196.29 14.53,194.97 15.205,193.695C15.87,192.43 16.58,191.15 17.24,189.94C17.86,188.81 18.68,187.31 19.04,186.68C19.19,186.42 19.21,186.4 19.36,186.13C19.77,185.43 20.92,183.42 21.56,182.32C22.05,181.48 22.45,180.78 22.85,180.11C23.19,179.53 23.43,179.16 23.82,178.52C24.43,177.52 25.65,175.52 26.15,174.71C26.38,174.33 26.43,174.24 26.66,173.88C27.09,173.19 27.93,171.89 28.56,170.9C29.19,169.91 30.01,168.63 30.46,167.94C30.7,167.57 30.77,167.47 31.03,167.09C31.58,166.28 33.01,164.15 33.59,163.28C33.89,162.83 33.98,162.68 34.27,162.26C34.75,161.56 35.57,160.39 36.21,159.47C36.84,158.57 37.58,157.52 38.08,156.82C38.41,156.36 38.55,156.17 38.91,155.67C39.58,154.75 40.84,153.01 41.79,151.72500000000002C42.72,150.48 43.83,149.01 44.55,148.05C45.02,147.43 45.27,147.09 45.7,146.53C46.23,145.84 46.87,145.03 47.48,144.24C48.13,143.4 48.95,142.36 49.51,141.66C49.89,141.17 50.07,140.95 50.49,140.43C51.21,139.54 52.42,138.05 53.45,136.79500000000002C54.56,135.44 55.81,133.94 56.94,132.605C58,131.36 59.31,129.85 60.03,129.01C60.42,128.56 60.55,128.4 60.93,127.97C61.54,127.27 62.68,125.98 63.38,125.2C63.9,124.62 64.24,124.24 64.74,123.68C65.36,122.99 66.16,122.11 66.82,121.39C67.42,120.73 67.97,120.14 68.55,119.51C69.14,118.87 69.73,118.25 70.35,117.59C71,116.9 71.72,116.14 72.35,115.47C72.92,114.87 73.4,114.38 73.98,113.78C74.65,113.08 75.49,112.21 76.16,111.53C76.72,110.96 77.14,110.54 77.7,109.97C78.38,109.28 79.28,108.38 79.97,107.7C80.54,107.14 80.96,106.72 81.53,106.16C82.21,105.49 83.08,104.65 83.78,103.98C84.38,103.4 84.87,102.92 85.47,102.35C86.14,101.72 86.9,101 87.59,100.35C88.25,99.73 88.87,99.14 89.51,98.55C90.14,97.97 90.73,97.42 91.39,96.82C92.11,96.16 92.99,95.36 93.68,94.74C94.24,94.24 94.62,93.9 95.2,93.38C95.98,92.68 97.27,91.54 97.97,90.93C98.4,90.55 98.56,90.42 99.01,90.03C99.85,89.31 101.36,88 102.60499999999999,86.94C103.94,85.81 105.44,84.56 106.79499999999999,83.45C108.05,82.42 109.54,81.21 110.43,80.49C110.95,80.07 111.17,79.89 111.66,79.51C112.36,78.95 113.4,78.13 114.24,77.48C115.03,76.87 115.84,76.23 116.53,75.7C117.09,75.27 117.43,75.02 118.05,74.55C119.01,73.83 120.48,72.72 121.725,71.78999999999999C123.01,70.84 124.75,69.58 125.67,68.91C126.17,68.55 126.36,68.41 126.82,68.08C127.52,67.58 128.57,66.84 129.47,66.21C130.39,65.57 131.56,64.75 132.26,64.27C132.68,63.98 132.83,63.89 133.28,63.59C134.15,63.01 136.28,61.58 137.09,61.03C137.47,60.77 137.57,60.7 137.94,60.46C138.63,60.01 139.91,59.19 140.9,58.56C141.89,57.93 143.19,57.09 143.88,56.66C144.24,56.43 144.33,56.38 144.71,56.15C145.52,55.65 147.52,54.43 148.52,53.82C149.16,53.43 149.53,53.19 150.11,52.85C150.78,52.45 151.48,52.05 152.32,51.56C153.42,50.92 155.43,49.77 156.13,49.36C156.4,49.21 156.42,49.19 156.68,49.04C157.31,48.68 158.81,47.86 159.94,47.24C161.15,46.58 162.43,45.87 163.695,45.205C164.97,44.53 166.29,43.86 167.56,43.21C168.79,42.58 169.97,41.97 171.21,41.35C172.5,40.71 173.86,40.07 175.17,39.44C176.46,38.83 177.73,38.22 179.005,37.629999999999995C180.27,37.05 181.52,36.5 182.79,35.94C184.06,35.38 185.72,34.66 186.6,34.28C187.07,34.08 187.23,34 187.67,33.81C188.37,33.51 189.41,33.1 190.4,32.7C191.56,32.23 193.02,31.65 194.21,31.18Q195.27,30.76 197.2,30" style="stroke-miterlimit: 1; vector-effect: non-scaling-stroke; fill: none; stroke: rgb(59, 46, 38); stroke-opacity: 1; stroke-width: 2px;"/><path class="openline" d="M377,209.8Q376.24,211.73 375.82,212.79C375.35,213.98 374.77,215.44 374.3,216.6C373.9,217.59 373.49,218.63 373.19,219.33C373,219.77 372.92,219.93 372.72,220.4C372.34,221.28 371.62,222.94 371.06,224.21C370.5,225.48 369.95,226.73 369.37,227.995C368.78,229.27 368.17,230.54 367.56,231.83C366.93,233.14 366.29,234.5 365.65,235.79C365.03,237.03 364.42,238.21 363.79,239.44C363.14,240.71 362.47,242.03 361.79499999999996,243.305C361.13,244.57 360.42,245.85 359.76,247.06C359.14,248.19 358.32,249.69 357.96,250.32C357.81,250.58 357.79,250.6 357.64,250.87C357.23,251.57 356.08,253.58 355.44,254.68C354.95,255.52 354.55,256.22 354.15,256.89C353.81,257.47 353.57,257.84 353.18,258.48C352.57,259.48 351.35,261.48 350.85,262.29C350.62,262.67 350.57,262.76 350.34,263.12C349.91,263.81 349.07,265.11 348.44,266.1C347.81,267.09 346.99,268.37 346.54,269.06C346.3,269.43 346.23,269.53 345.97,269.91C345.42,270.72 343.99,272.85 343.41,273.72C343.11,274.17 343.02,274.32 342.73,274.74C342.25,275.44 341.43,276.61 340.79,277.53C340.16,278.43 339.42,279.48 338.92,280.18C338.59,280.64 338.45,280.83 338.09,281.33C337.42,282.25 336.16,283.99 335.21000000000004,285.275C334.28,286.52 333.17,287.99 332.45,288.95C331.98,289.57 331.73,289.91 331.3,290.47C330.77,291.16 330.13,291.97 329.52,292.76C328.87,293.6 328.05,294.64 327.49,295.34C327.11,295.83 326.93,296.05 326.51,296.57C325.79,297.46 324.58,298.95 323.55,300.20500000000004C322.44,301.56 321.19,303.06 320.06,304.395C319,305.64 317.69,307.15 316.97,307.99C316.58,308.44 316.45,308.6 316.07,309.03C315.46,309.73 314.32,311.02 313.62,311.8C313.1,312.38 312.76,312.76 312.26,313.32C311.64,314.01 310.84,314.89 310.18,315.61C309.58,316.27 309.03,316.86 308.45,317.49C307.86,318.13 307.27,318.75 306.65,319.41C306,320.1 305.28,320.86 304.65,321.53C304.08,322.13 303.6,322.62 303.02,323.22C302.35,323.92 301.51,324.79 300.84,325.47C300.28,326.04 299.86,326.46 299.3,327.03C298.62,327.72 297.72,328.62 297.03,329.3C296.46,329.86 296.04,330.28 295.47,330.84C294.79,331.51 293.92,332.35 293.22,333.02C292.62,333.6 292.13,334.08 291.53,334.65C290.86,335.28 290.1,336 289.41,336.65C288.75,337.27 288.13,337.86 287.49,338.45C286.86,339.03 286.27,339.58 285.61,340.18C284.89,340.84 284.01,341.64 283.32,342.26C282.76,342.76 282.38,343.1 281.8,343.62C281.02,344.32 279.73,345.46 279.03,346.07C278.6,346.45 278.44,346.58 277.99,346.97C277.15,347.69 275.64,349 274.395,350.06C273.06,351.19 271.56,352.44 270.20500000000004,353.55C268.95,354.58 267.46,355.79 266.57,356.51C266.05,356.93 265.83,357.11 265.34,357.49C264.64,358.05 263.6,358.87 262.76,359.52C261.97,360.13 261.16,360.77 260.47,361.3C259.91,361.73 259.57,361.98 258.95,362.45C257.99,363.17 256.52,364.28 255.27499999999998,365.21000000000004C253.99,366.16 252.25,367.42 251.33,368.09C250.83,368.45 250.64,368.59 250.18,368.92C249.48,369.42 248.43,370.16 247.53,370.79C246.61,371.43 245.44,372.25 244.74,372.73C244.32,373.02 244.17,373.11 243.72,373.41C242.85,373.99 240.72,375.42 239.91,375.97C239.53,376.23 239.43,376.3 239.06,376.54C238.37,376.99 237.09,377.81 236.1,378.44C235.11,379.07 233.81,379.91 233.12,380.34C232.76,380.57 232.67,380.62 232.29,380.85C231.48,381.35 229.48,382.57 228.48,383.18C227.84,383.57 227.47,383.81 226.89,384.15C226.22,384.55 225.52,384.95 224.68,385.44C223.58,386.08 221.57,387.23 220.87,387.64C220.6,387.79 220.58,387.81 220.32,387.96C219.69,388.32 218.19,389.14 217.06,389.76C215.85,390.42 214.57,391.13 213.305,391.79499999999996C212.03,392.47 210.71,393.14 209.44,393.79C208.21,394.42 207.03,395.03 205.79,395.65C204.5,396.29 203.14,396.93 201.83,397.56C200.54,398.17 199.27,398.78 197.995,399.37C196.73,399.95 195.48,400.5 194.21,401.06C192.94,401.62 191.28,402.34 190.4,402.72C189.93,402.92 189.77,403 189.33,403.19C188.63,403.49 187.59,403.9 186.6,404.3C185.44,404.77 183.98,405.35 182.79,405.82Q181.73,406.24 179.8,407" style="stroke-miterlimit: 1; vector-effect: non-scaling-stroke; fill: none; stroke: rgb(59, 46, 38); stroke-opacity: 1; stroke-width: 2px;"/></g><g class="contourlevel"><path class="openline" d="M0,258.69Q1.22,256 1.82,254.68C2.4,253.39 3.23,251.58 3.55,250.87C3.67,250.6 3.68,250.57 3.81,250.3C4.11,249.66 4.86,248.18 5.42,247.06C6.02,245.84 6.93,243.99 7.3,243.25C7.45,242.95 7.47,242.9 7.62,242.61C7.96,241.95 8.72,240.55 9.31,239.44C9.96,238.21 10.68,236.84 11.379999999999999,235.56C12.07,234.3 12.83,233.01 13.5,231.83C14.11,230.76 14.83,229.44 15.23,228.77C15.43,228.43 15.48,228.37 15.69,228.02C16.16,227.24 17.35,225.24 17.97,224.21C18.39,223.5 18.66,223.04 19.04,222.43C19.44,221.77 19.82,221.19 20.32,220.4C21.01,219.31 21.96,217.78 22.785,216.495C23.59,215.24 24.51,213.86 25.22,212.79C25.76,211.96 26.21,211.27 26.66,210.6C27.05,210.02 27.32,209.64 27.77,208.98C28.46,207.97 29.53,206.38 30.415,205.105C31.29,203.84 32.36,202.37 33.07,201.36C33.55,200.68 33.84,200.25 34.27,199.65C34.75,198.99 35.25,198.33 35.81,197.56C36.49,196.63 37.58,195.12 38.08,194.45C38.32,194.13 38.37,194.08 38.62,193.75C39.2,192.99 40.96,190.63 41.48,189.94C41.68,189.68 41.69,189.66 41.89,189.4C42.37,188.77 43.72,187.04 44.42,186.13C44.92,185.48 45.24,185.06 45.7,184.47C46.23,183.8 46.81,183.07 47.41,182.32C48.07,181.49 48.95,180.38 49.51,179.68C49.88,179.21 50.05,179.01 50.45,178.52C51.16,177.64 52.41,176.09 53.43,174.85000000000002C54.49,173.55 56.14,171.59 56.71,170.9C56.91,170.66 56.92,170.65 57.12,170.41C57.64,169.8 59.23,167.92 59.93,167.09C60.35,166.6 60.53,166.38 60.93,165.91C61.53,165.21 62.52,164.07 63.2,163.28C63.76,162.63 64.21,162.12 64.74,161.51C65.31,160.85 65.91,160.17 66.53,159.47C67.18,158.73 67.94,157.86 68.55,157.18C69.04,156.62 69.38,156.25 69.9,155.67C70.6,154.89 71.72,153.63 72.35,152.93C72.75,152.49 72.92,152.31 73.33,151.86C74.03,151.1 75.54,149.43 76.16,148.76C76.46,148.44 76.52,148.38 76.82,148.05C77.48,147.34 79.43,145.23 79.97,144.65C80.16,144.45 80.16,144.44 80.35,144.24C80.93,143.62 82.67,141.77 83.86,140.52C85.08,139.24 86.34,137.92 87.59,136.63C88.84,135.34 90.08,134.05 91.33500000000001,132.765C92.59,131.48 93.85,130.2 95.12,128.925C96.38,127.65 97.65,126.38 98.92500000000001,125.12C100.2,123.85 101.48,122.59 102.76499999999999,121.33500000000001C104.05,120.08 105.34,118.84 106.63,117.59C107.92,116.34 109.24,115.08 110.52000000000001,113.86C111.77,112.67 113.62,110.93 114.24,110.35C114.44,110.16 114.45,110.16 114.65,109.97C115.23,109.43 117.34,107.48 118.05,106.82C118.38,106.52 118.44,106.46 118.76,106.16C119.43,105.54 121.1,104.03 121.86,103.33C122.31,102.92 122.49,102.75 122.93,102.35C123.63,101.72 124.89,100.6 125.67,99.9C126.25,99.38 126.62,99.04 127.18,98.55C127.86,97.94 128.73,97.18 129.47,96.53C130.17,95.91 130.85,95.31 131.51,94.74C132.12,94.21 132.63,93.76 133.28,93.2C134.07,92.52 135.21,91.53 135.91,90.93C136.38,90.53 136.6,90.35 137.09,89.93C137.92,89.23 139.8,87.64 140.41,87.12C140.65,86.92 140.66,86.91 140.9,86.71C141.59,86.14 143.55,84.49 144.85000000000002,83.43C146.09,82.41 147.64,81.16 148.52,80.45C149.01,80.05 149.21,79.88 149.68,79.51C150.38,78.95 151.49,78.07 152.32,77.41C153.07,76.81 153.8,76.23 154.47,75.7C155.06,75.24 155.48,74.92 156.13,74.42C157.04,73.72 158.77,72.37 159.4,71.89C159.66,71.69 159.68,71.68 159.94,71.48C160.63,70.96 162.99,69.2 163.75,68.62C164.08,68.37 164.13,68.32 164.45,68.08C165.12,67.58 166.63,66.49 167.56,65.81C168.33,65.25 168.99,64.75 169.65,64.27C170.25,63.84 170.68,63.55 171.36,63.07C172.37,62.36 173.84,61.29 175.105,60.415C176.38,59.53 177.97,58.46 178.98,57.77C179.64,57.32 180.02,57.05 180.6,56.66C181.27,56.21 181.96,55.76 182.79,55.22C183.86,54.51 185.24,53.59 186.495,52.785C187.78,51.96 189.31,51.01 190.4,50.32C191.19,49.82 191.77,49.44 192.43,49.04C193.04,48.66 193.5,48.39 194.21,47.97C195.24,47.35 197.24,46.16 198.02,45.69C198.37,45.48 198.43,45.43 198.77,45.23C199.44,44.83 200.76,44.11 201.83,43.5C203.01,42.83 204.3,42.07 205.56,41.38C206.84,40.68 208.21,39.96 209.44,39.31C210.55,38.72 211.95,37.96 212.61,37.62C212.9,37.47 212.95,37.45 213.25,37.3C213.99,36.93 215.84,36.02 217.06,35.42C218.18,34.86 219.66,34.11 220.3,33.81C220.57,33.68 220.6,33.67 220.87,33.55C221.58,33.23 223.39,32.4 224.68,31.82Q226,31.22 228.69,30" style="stroke-miterlimit: 1; vector-effect: non-scaling-stroke; fill: none; stroke: rgb(72, 54, 43); stroke-opacity: 1; stroke-width: 2px;"/><path class="openline" d="M377,178.31Q375.78,181 375.18,182.32C374.6,183.61 373.77,185.42 373.45,186.13C373.33,186.4 373.32,186.43 373.19,186.7C372.89,187.34 372.14,188.82 371.58,189.94C370.98,191.16 370.07,193.01 369.7,193.75C369.55,194.05 369.53,194.1 369.38,194.39C369.04,195.05 368.28,196.45 367.69,197.56C367.04,198.79 366.32,200.16 365.62,201.44C364.93,202.7 364.17,203.99 363.5,205.17C362.89,206.24 362.17,207.56 361.77,208.23C361.57,208.57 361.52,208.63 361.31,208.98C360.84,209.76 359.65,211.76 359.03,212.79C358.61,213.5 358.34,213.96 357.96,214.57C357.56,215.23 357.18,215.81 356.68,216.6C355.99,217.69 355.04,219.22 354.215,220.505C353.41,221.76 352.49,223.14 351.78,224.21C351.24,225.04 350.79,225.73 350.34,226.4C349.95,226.98 349.68,227.36 349.23,228.02C348.54,229.03 347.47,230.62 346.58500000000004,231.895C345.71,233.16 344.64,234.63 343.93,235.64C343.45,236.32 343.16,236.75 342.73,237.35C342.25,238.01 341.75,238.67 341.19,239.44C340.51,240.37 339.42,241.88 338.92,242.55C338.68,242.87 338.63,242.92 338.38,243.25C337.8,244.01 336.04,246.37 335.52,247.06C335.32,247.32 335.31,247.34 335.11,247.6C334.63,248.23 333.28,249.96 332.58,250.87C332.08,251.52 331.76,251.94 331.3,252.53C330.77,253.2 330.19,253.93 329.59,254.68C328.93,255.51 328.05,256.62 327.49,257.32C327.12,257.79 326.95,257.99 326.55,258.48C325.84,259.36 324.59,260.91 323.57,262.15C322.51,263.45 320.86,265.41 320.29,266.1C320.09,266.34 320.08,266.35 319.88,266.59C319.36,267.2 317.77,269.08 317.07,269.91C316.65,270.4 316.47,270.62 316.07,271.09C315.47,271.79 314.48,272.93 313.8,273.72C313.24,274.37 312.79,274.88 312.26,275.49C311.69,276.15 311.09,276.83 310.47,277.53C309.82,278.27 309.06,279.14 308.45,279.82C307.96,280.38 307.62,280.75 307.1,281.33C306.4,282.11 305.28,283.37 304.65,284.07C304.25,284.51 304.08,284.69 303.67,285.14C302.97,285.9 301.46,287.57 300.84,288.24C300.54,288.56 300.48,288.62 300.18,288.95C299.52,289.66 297.57,291.77 297.03,292.35C296.84,292.55 296.84,292.56 296.65,292.76C296.07,293.38 294.33,295.23 293.14,296.48C291.92,297.76 290.66,299.08 289.41,300.37C288.16,301.66 286.92,302.95 285.665,304.235C284.41,305.52 283.15,306.8 281.88,308.07500000000005C280.62,309.35 279.35,310.62 278.07500000000005,311.88C276.8,313.15 275.52,314.41 274.235,315.665C272.95,316.92 271.66,318.16 270.37,319.41C269.08,320.66 267.76,321.92 266.48,323.14C265.23,324.33 263.38,326.07 262.76,326.65C262.56,326.84 262.55,326.84 262.35,327.03C261.77,327.57 259.66,329.52 258.95,330.18C258.62,330.48 258.56,330.54 258.24,330.84C257.57,331.46 255.9,332.97 255.14,333.67C254.69,334.08 254.51,334.25 254.07,334.65C253.37,335.28 252.11,336.4 251.33,337.1C250.75,337.62 250.38,337.96 249.82,338.45C249.14,339.06 248.27,339.82 247.53,340.47C246.83,341.09 246.15,341.69 245.49,342.26C244.88,342.79 244.37,343.24 243.72,343.8C242.93,344.48 241.79,345.47 241.09,346.07C240.62,346.47 240.4,346.65 239.91,347.07C239.08,347.77 237.2,349.36 236.59,349.88C236.35,350.08 236.34,350.09 236.1,350.29C235.41,350.86 233.45,352.51 232.14999999999998,353.57C230.91,354.59 229.36,355.84 228.48,356.55C227.99,356.95 227.79,357.12 227.32,357.49C226.62,358.05 225.51,358.93 224.68,359.59C223.93,360.19 223.2,360.77 222.53,361.3C221.94,361.76 221.52,362.08 220.87,362.58C219.96,363.28 218.23,364.63 217.6,365.11C217.34,365.31 217.32,365.32 217.06,365.52C216.37,366.04 214.01,367.8 213.25,368.38C212.92,368.63 212.87,368.68 212.55,368.92C211.88,369.42 210.37,370.51 209.44,371.19C208.67,371.75 208.01,372.25 207.35,372.73C206.75,373.16 206.32,373.45 205.64,373.93C204.63,374.64 203.16,375.71 201.895,376.58500000000004C200.62,377.47 199.03,378.54 198.02,379.23C197.36,379.68 196.98,379.95 196.4,380.34C195.73,380.79 195.04,381.24 194.21,381.78C193.14,382.49 191.76,383.41 190.505,384.215C189.22,385.04 187.69,385.99 186.6,386.68C185.81,387.18 185.23,387.56 184.57,387.96C183.96,388.34 183.5,388.61 182.79,389.03C181.76,389.65 179.76,390.84 178.98,391.31C178.63,391.52 178.57,391.57 178.23,391.77C177.56,392.17 176.24,392.89 175.17,393.5C173.99,394.17 172.7,394.93 171.44,395.62C170.16,396.32 168.79,397.04 167.56,397.69C166.45,398.28 165.05,399.04 164.39,399.38C164.1,399.53 164.05,399.55 163.75,399.7C163.01,400.07 161.16,400.98 159.94,401.58C158.82,402.14 157.34,402.89 156.7,403.19C156.43,403.32 156.4,403.33 156.13,403.45C155.42,403.77 153.61,404.6 152.32,405.18Q151,405.78 148.31,407" style="stroke-miterlimit: 1; vector-effect: non-scaling-stroke; fill: none; stroke: rgb(72, 54, 43); stroke-opacity: 1; stroke-width: 2px;"/></g><g class="contourlevel"><path class="openline" d="M0,281.99Q0.19,281.64 0.36,281.33C0.76,280.59 1.76,278.7 2.37,277.53C2.89,276.53 3.42,275.46 3.81,274.76C4.05,274.33 4.16,274.18 4.42,273.72C4.93,272.85 6.02,270.94 6.61,269.91C7.01,269.2 7.26,268.73 7.62,268.12C8.01,267.46 8.39,266.89 8.88,266.1C9.56,265 10.5,263.41 11.315000000000001,262.115C12.1,260.87 13,259.57 13.7,258.48C14.27,257.6 14.77,256.79 15.23,256.1C15.59,255.56 15.82,255.27 16.23,254.68C16.92,253.69 18.04,252.01 18.939999999999998,250.72C19.82,249.47 20.85,248.07 21.57,247.06C22.07,246.36 22.4,245.87 22.85,245.26C23.33,244.61 23.8,243.99 24.36,243.25C25.05,242.33 26.15,240.83 26.66,240.16C26.91,239.83 26.96,239.78 27.22,239.44C27.84,238.65 29.29,236.73 30.305,235.435C31.27,234.2 32.45,232.75 33.18,231.83C33.63,231.26 33.85,230.96 34.27,230.43C34.83,229.73 35.61,228.81 36.26,228.02C36.88,227.26 37.52,226.45 38.08,225.77C38.55,225.2 38.89,224.82 39.4,224.21C40.1,223.37 41.31,221.89 41.89,221.21C42.19,220.85 42.27,220.77 42.59,220.4C43.27,219.61 44.69,217.93 45.77,216.68C46.88,215.4 48.6,213.43 49.15,212.79C49.33,212.58 49.33,212.58 49.51,212.37C50.02,211.78 51.83,209.76 52.51,208.98C52.86,208.58 52.96,208.45 53.31,208.06C53.93,207.36 55.22,205.95 55.92,205.17C56.4,204.64 56.66,204.34 57.12,203.82C57.75,203.12 58.68,202.11 59.36,201.36C59.93,200.73 60.38,200.23 60.93,199.63C61.54,198.97 62.21,198.25 62.85,197.56C63.48,196.87 64.13,196.15 64.74,195.49C65.3,194.88 65.79,194.38 66.37,193.75C67.05,193.02 67.91,192.08 68.55,191.39C69.06,190.85 69.4,190.49 69.92,189.94C70.62,189.2 71.69,188.04 72.35,187.34C72.8,186.86 73.04,186.62 73.5,186.13C74.2,185.39 75.5,184.01 76.16,183.31C76.56,182.89 76.71,182.74 77.11,182.32C77.81,181.59 79.31,180 79.97,179.32C80.31,178.97 80.41,178.88 80.75,178.52C81.43,177.82 83.15,176.02 83.78,175.36C84.07,175.06 84.12,175.01 84.41,174.71C85.06,174.04 86.99,172.04 87.59,171.42C87.83,171.17 87.85,171.15 88.09,170.9C88.71,170.26 90.82,168.08 91.39,167.5C91.59,167.3 91.6,167.3 91.8,167.09C92.4,166.48 94.15,164.67 95.36,163.44C96.6,162.17 97.88,160.87 99.135,159.595C100.39,158.32 101.65,157.04 102.91499999999999,155.765C104.18,154.49 105.44,153.21 106.705,151.94C107.97,150.67 109.23,149.39 110.5,148.12C111.77,146.85 113.04,145.58 114.305,144.305C115.58,143.04 116.85,141.77 118.12,140.5C119.39,139.23 120.67,137.97 121.94,136.70499999999998C123.21,135.44 124.49,134.18 125.765,132.915C127.04,131.65 128.32,130.39 129.595,129.135C130.87,127.88 132.17,126.6 133.44,125.36C134.67,124.15 136.48,122.4 137.09,121.8C137.3,121.6 137.3,121.59 137.5,121.39C138.08,120.82 140.26,118.71 140.9,118.09C141.15,117.85 141.17,117.83 141.42,117.59C142.04,116.99 144.04,115.06 144.71,114.41C145.01,114.12 145.06,114.07 145.36,113.78C146.02,113.15 147.82,111.43 148.52,110.75C148.88,110.41 148.97,110.31 149.32,109.97C150,109.31 151.59,107.81 152.32,107.11C152.74,106.71 152.89,106.56 153.31,106.16C154.01,105.5 155.39,104.2 156.13,103.5C156.62,103.04 156.86,102.8 157.34,102.35C158.04,101.69 159.2,100.62 159.94,99.92C160.49,99.4 160.85,99.06 161.39,98.55C162.08,97.91 163.02,97.05 163.75,96.37C164.38,95.79 164.88,95.3 165.49,94.74C166.15,94.13 166.87,93.48 167.56,92.85C168.25,92.21 168.97,91.54 169.63,90.93C170.23,90.38 170.73,89.93 171.36,89.36C172.11,88.68 173.12,87.75 173.82,87.12C174.34,86.66 174.64,86.4 175.17,85.92C175.95,85.22 177.36,83.93 178.06,83.31C178.45,82.96 178.58,82.86 178.98,82.51C179.76,81.83 181.78,80.02 182.37,79.51C182.58,79.33 182.58,79.33 182.79,79.15C183.43,78.6 185.4,76.88 186.68,75.77000000000001C187.93,74.69 189.61,73.27 190.4,72.59C190.77,72.27 190.85,72.19 191.21,71.89C191.89,71.31 193.37,70.1 194.21,69.4C194.82,68.89 195.2,68.55 195.77,68.08C196.45,67.52 197.26,66.88 198.02,66.26C198.81,65.61 199.73,64.83 200.43,64.27C200.96,63.85 201.26,63.63 201.83,63.18C202.75,62.45 204.2,61.27 205.435,60.305C206.73,59.29 208.65,57.84 209.44,57.22C209.78,56.96 209.83,56.91 210.16,56.66C210.83,56.15 212.33,55.05 213.25,54.36C213.99,53.8 214.61,53.33 215.26,52.85C215.87,52.4 216.36,52.07 217.06,51.57C218.07,50.85 219.47,49.82 220.72,48.94C222.01,48.04 223.69,46.92 224.68,46.23C225.27,45.82 225.56,45.59 226.1,45.23C226.79,44.77 227.6,44.27 228.48,43.7C229.57,43 230.87,42.1 232.115,41.315C233.41,40.5 235,39.56 236.1,38.88C236.89,38.39 237.46,38.01 238.12,37.62C238.73,37.26 239.2,37.01 239.91,36.61C240.94,36.02 242.85,34.93 243.72,34.42C244.18,34.16 244.33,34.05 244.76,33.81C245.46,33.42 246.53,32.89 247.53,32.37C248.7,31.76 250.59,30.76 251.33,30.36Q251.64,30.19 251.99,30" style="stroke-miterlimit: 1; vector-effect: non-scaling-stroke; fill: none; stroke: rgb(85, 62, 47); stroke-opacity: 1; stroke-width: 2px;"/><path class="openline" d="M377,155.01Q376.81,155.36 376.64,155.67C376.24,156.41 375.24,158.3 374.63,159.47C374.11,160.47 373.58,161.54 373.19,162.24C372.95,162.67 372.84,162.82 372.58,163.28C372.07,164.15 370.98,166.06 370.39,167.09C369.99,167.8 369.74,168.27 369.38,168.88C368.99,169.54 368.61,170.11 368.12,170.9C367.44,172 366.5,173.59 365.685,174.885C364.9,176.13 364,177.43 363.3,178.52C362.73,179.4 362.23,180.21 361.77,180.9C361.41,181.44 361.18,181.73 360.77,182.32C360.08,183.31 358.96,184.99 358.06,186.28C357.18,187.53 356.15,188.93 355.43,189.94C354.93,190.64 354.6,191.13 354.15,191.74C353.67,192.39 353.2,193.01 352.64,193.75C351.95,194.67 350.85,196.17 350.34,196.84C350.09,197.17 350.04,197.22 349.78,197.56C349.16,198.35 347.71,200.27 346.69500000000005,201.565C345.73,202.8 344.55,204.25 343.82,205.17C343.37,205.74 343.15,206.04 342.73,206.57C342.17,207.27 341.39,208.19 340.74,208.98C340.12,209.74 339.48,210.55 338.92,211.23C338.45,211.8 338.11,212.18 337.6,212.79C336.9,213.63 335.69,215.11 335.11,215.79C334.81,216.15 334.73,216.23 334.41,216.6C333.73,217.39 332.31,219.07 331.23,220.32C330.12,221.6 328.4,223.57 327.85,224.21C327.67,224.42 327.67,224.42 327.49,224.63C326.98,225.22 325.17,227.24 324.49,228.02C324.14,228.42 324.04,228.55 323.69,228.94C323.07,229.64 321.78,231.05 321.08,231.83C320.6,232.36 320.34,232.66 319.88,233.18C319.25,233.88 318.32,234.89 317.64,235.64C317.07,236.27 316.62,236.77 316.07,237.37C315.46,238.03 314.79,238.75 314.15,239.44C313.52,240.13 312.87,240.85 312.26,241.51C311.7,242.12 311.21,242.62 310.63,243.25C309.95,243.98 309.09,244.92 308.45,245.61C307.94,246.15 307.6,246.51 307.08,247.06C306.38,247.8 305.31,248.96 304.65,249.66C304.2,250.14 303.96,250.38 303.5,250.87C302.8,251.61 301.5,252.99 300.84,253.69C300.44,254.11 300.29,254.26 299.89,254.68C299.19,255.41 297.69,257 297.03,257.68C296.69,258.03 296.59,258.12 296.25,258.48C295.57,259.18 293.85,260.98 293.22,261.64C292.93,261.94 292.88,261.99 292.59,262.29C291.94,262.96 290.01,264.96 289.41,265.58C289.17,265.83 289.15,265.85 288.91,266.1C288.29,266.74 286.18,268.92 285.61,269.5C285.41,269.7 285.4,269.7 285.2,269.91C284.6,270.52 282.85,272.33 281.64,273.56C280.4,274.83 279.12,276.13 277.865,277.405C276.61,278.68 275.35,279.96 274.08500000000004,281.235C272.82,282.51 271.56,283.79 270.295,285.06C269.03,286.33 267.77,287.61 266.5,288.88C265.23,290.15 263.96,291.43 262.695,292.695C261.43,293.96 260.15,295.23 258.88,296.5C257.61,297.77 256.33,299.03 255.06,300.295C253.79,301.56 252.51,302.82 251.235,304.08500000000004C249.96,305.35 248.68,306.61 247.405,307.865C246.13,309.12 244.83,310.4 243.56,311.64C242.33,312.85 240.52,314.6 239.91,315.2C239.7,315.4 239.7,315.41 239.5,315.61C238.92,316.18 236.74,318.29 236.1,318.91C235.85,319.15 235.83,319.17 235.58,319.41C234.96,320.01 232.96,321.94 232.29,322.59C231.99,322.88 231.94,322.93 231.64,323.22C230.98,323.85 229.18,325.57 228.48,326.25C228.12,326.59 228.03,326.69 227.68,327.03C227,327.69 225.41,329.19 224.68,329.89C224.26,330.29 224.11,330.44 223.69,330.84C222.99,331.5 221.61,332.8 220.87,333.5C220.38,333.96 220.14,334.2 219.66,334.65C218.96,335.31 217.8,336.38 217.06,337.08C216.51,337.6 216.15,337.94 215.61,338.45C214.92,339.09 213.98,339.95 213.25,340.63C212.62,341.21 212.12,341.7 211.51,342.26C210.85,342.87 210.13,343.52 209.44,344.15C208.75,344.79 208.03,345.46 207.37,346.07C206.77,346.62 206.27,347.07 205.64,347.64C204.89,348.32 203.88,349.25 203.18,349.88C202.66,350.34 202.36,350.6 201.83,351.08C201.05,351.78 199.64,353.07 198.94,353.69C198.55,354.04 198.42,354.14 198.02,354.49C197.24,355.17 195.22,356.98 194.63,357.49C194.42,357.67 194.42,357.67 194.21,357.85C193.57,358.4 191.6,360.12 190.32,361.23C189.07,362.31 187.39,363.73 186.6,364.41C186.23,364.73 186.15,364.81 185.79,365.11C185.11,365.69 183.63,366.9 182.79,367.6C182.18,368.11 181.8,368.45 181.23,368.92C180.55,369.48 179.74,370.12 178.98,370.74C178.19,371.39 177.27,372.17 176.57,372.73C176.04,373.15 175.74,373.37 175.17,373.82C174.25,374.55 172.8,375.73 171.565,376.69500000000005C170.27,377.71 168.35,379.16 167.56,379.78C167.22,380.04 167.17,380.09 166.84,380.34C166.17,380.85 164.67,381.95 163.75,382.64C163.01,383.2 162.39,383.67 161.74,384.15C161.13,384.6 160.64,384.93 159.94,385.43C158.93,386.15 157.53,387.18 156.28,388.06C154.99,388.96 153.31,390.08 152.32,390.77C151.73,391.18 151.44,391.41 150.9,391.77C150.21,392.23 149.4,392.73 148.52,393.3C147.43,394 146.13,394.9 144.885,395.685C143.59,396.5 142,397.44 140.9,398.12C140.11,398.61 139.54,398.99 138.88,399.38C138.27,399.74 137.8,399.99 137.09,400.39C136.06,400.98 134.15,402.07 133.28,402.58C132.82,402.84 132.67,402.95 132.24,403.19C131.54,403.58 130.47,404.11 129.47,404.63C128.3,405.24 126.41,406.24 125.67,406.64Q125.36,406.81 125.01,407" style="stroke-miterlimit: 1; vector-effect: non-scaling-stroke; fill: none; stroke: rgb(85, 62, 47); stroke-opacity: 1; stroke-width: 2px;"/></g><g class="contourlevel"><path class="openline" d="M0,300.41Q1.72,297.69 2.41,296.57C2.94,295.71 3.37,294.95 3.81,294.27C4.18,293.71 4.44,293.38 4.87,292.76C5.56,291.76 6.62,290.09 7.525,288.81C8.41,287.56 9.49,286.13 10.21,285.14C10.7,284.47 10.98,284.03 11.42,283.44C11.92,282.77 12.5,282.09 13.09,281.33C13.76,280.46 14.67,279.21 15.23,278.52C15.57,278.1 15.71,277.97 16.07,277.53C16.77,276.69 18.06,275.04 19.105,273.79C20.18,272.5 21.84,270.6 22.42,269.91C22.63,269.66 22.64,269.64 22.85,269.39C23.39,268.76 25.09,266.88 25.78,266.1C26.16,265.67 26.29,265.51 26.66,265.09C27.29,264.39 28.54,263.06 29.24,262.29C29.72,261.75 29.98,261.44 30.46,260.92C31.11,260.22 32.1,259.21 32.79,258.48C33.34,257.89 33.73,257.45 34.27,256.88C34.92,256.2 35.76,255.37 36.43,254.68C37.02,254.07 37.49,253.54 38.08,252.94C38.73,252.28 39.49,251.54 40.15,250.87C40.76,250.25 41.28,249.69 41.89,249.08C42.54,248.42 43.29,247.71 43.95,247.06C44.56,246.45 45.09,245.9 45.7,245.29C46.37,244.63 47.15,243.9 47.81,243.25C48.41,242.66 48.9,242.15 49.51,241.56C50.2,240.89 51.05,240.09 51.73,239.44C52.3,238.89 52.73,238.45 53.31,237.89C54.02,237.21 55,236.3 55.69,235.64C56.23,235.12 56.57,234.77 57.12,234.25C57.85,233.55 59,232.49 59.7,231.83C60.19,231.37 60.43,231.12 60.93,230.65C61.68,229.94 63.05,228.68 63.75,228.02C64.17,227.63 64.32,227.47 64.74,227.07C65.48,226.37 67.14,224.84 67.81,224.21C68.14,223.9 68.21,223.83 68.55,223.52C69.26,222.85 71.3,220.96 71.9,220.4C72.12,220.2 72.13,220.19 72.35,219.98C72.99,219.38 74.82,217.69 76.08,216.51999999999998C77.38,215.32 78.74,214.06 80.03999999999999,212.855C81.3,211.68 83.14,209.98 83.78,209.39C84,209.19 84.01,209.18 84.23,208.98C84.83,208.43 86.87,206.52 87.59,205.86C87.93,205.55 88.01,205.48 88.34,205.17C89.01,204.54 90.64,203.02 91.39,202.32C91.83,201.91 92.01,201.76 92.44,201.36C93.14,200.71 94.45,199.48 95.2,198.78C95.72,198.3 96.01,198.03 96.52,197.56C97.22,196.91 98.27,195.9 99.01,195.21C99.59,194.66 100.01,194.28 100.58,193.75C101.26,193.11 102.11,192.3 102.82,191.63C103.45,191.03 104,190.52 104.62,189.94C105.27,189.32 105.96,188.67 106.63,188.03C107.3,187.4 107.99,186.75 108.64,186.13C109.26,185.54 109.8,185.01 110.43,184.41C111.12,183.75 111.95,182.97 112.63,182.32C113.21,181.77 113.65,181.33 114.24,180.77C114.95,180.09 115.89,179.19 116.58,178.52C117.13,177.99 117.5,177.63 118.05,177.09C118.76,176.4 119.81,175.39 120.51,174.71C121.03,174.21 121.34,173.9 121.86,173.39C122.57,172.69 123.7,171.59 124.4,170.9C124.9,170.42 125.17,170.15 125.67,169.66C126.38,168.96 127.57,167.79 128.27,167.09C128.75,166.62 128.99,166.37 129.47,165.89C130.17,165.19 131.39,163.98 132.09,163.28C132.56,162.81 132.81,162.56 133.28,162.09C133.98,161.39 135.19,160.17 135.89,159.47C136.37,158.99 136.62,158.75 137.09,158.27C137.79,157.57 138.96,156.38 139.66,155.67C140.15,155.17 140.42,154.9 140.9,154.4C141.59,153.7 142.69,152.57 143.39,151.86C143.9,151.34 144.21,151.03 144.71,150.51C145.39,149.81 146.4,148.76 147.09,148.05C147.63,147.5 147.99,147.13 148.52,146.58C149.19,145.89 150.09,144.95 150.77,144.24C151.33,143.65 151.77,143.21 152.32,142.63C152.97,141.95 153.75,141.12 154.41,140.43C155.01,139.8 155.54,139.26 156.13,138.64C156.75,137.99 157.4,137.3 158.03,136.63C158.67,135.96 159.32,135.27 159.94,134.62C160.52,134 161.03,133.45 161.63,132.82C162.3,132.11 163.11,131.26 163.75,130.58C164.28,130.01 164.66,129.59 165.21,129.01C165.9,128.27 166.91,127.22 167.56,126.52C168.03,126.01 168.3,125.72 168.78,125.2C169.48,124.45 170.71,123.14 171.36,122.44C171.76,122.01 171.91,121.83 172.32,121.39C173.02,120.64 174.54,119.01 175.17,118.34C175.48,118.01 175.55,117.93 175.86,117.59C176.52,116.87 178.43,114.83 178.98,114.23C179.18,114.01 179.19,114 179.39,113.78C179.98,113.14 181.68,111.3 182.855,110.03999999999999C184.06,108.74 185.32,107.38 186.51999999999998,106.08C187.69,104.82 189.38,102.99 189.98,102.35C190.19,102.13 190.2,102.12 190.4,101.9C190.96,101.3 192.85,99.26 193.52,98.55C193.83,98.21 193.9,98.14 194.21,97.81C194.84,97.14 196.37,95.48 197.07,94.74C197.47,94.32 197.63,94.17 198.02,93.75C198.68,93.05 199.94,91.68 200.65,90.93C201.12,90.43 201.37,90.19 201.83,89.7C202.49,89 203.55,87.85 204.25,87.12C204.77,86.57 205.12,86.23 205.64,85.69C206.3,85 207.21,84.02 207.89,83.31C208.45,82.73 208.89,82.3 209.44,81.73C210.09,81.05 210.89,80.2 211.56,79.51C212.15,78.9 212.66,78.41 213.25,77.81C213.9,77.15 214.63,76.37 215.29,75.7C215.9,75.09 216.45,74.56 217.06,73.95C217.71,73.29 218.42,72.54 219.08,71.89C219.69,71.28 220.25,70.76 220.87,70.15C221.54,69.49 222.28,68.73 222.94,68.08C223.54,67.49 224.07,67.02 224.68,66.43C225.37,65.76 226.2,64.92 226.88,64.27C227.45,63.73 227.89,63.34 228.48,62.79C229.21,62.1 230.22,61.11 230.92,60.46C231.44,59.98 231.75,59.72 232.29,59.24C233.06,58.54 234.39,57.29 235.09,56.66C235.51,56.29 235.67,56.16 236.1,55.78C236.88,55.09 238.76,53.39 239.39,52.85C239.64,52.64 239.66,52.63 239.91,52.42C240.6,51.84 242.5,50.18 243.79000000000002,49.105000000000004C245.04,48.06 246.69,46.77 247.53,46.07C247.97,45.71 248.1,45.57 248.52,45.23C249.21,44.67 250.46,43.76 251.33,43.09C252.09,42.5 252.77,41.92 253.44,41.42C254.03,40.98 254.47,40.7 255.14,40.21C256.13,39.49 257.56,38.41 258.81,37.525C260.09,36.62 261.76,35.56 262.76,34.87C263.38,34.44 263.71,34.18 264.27,33.81C264.95,33.37 265.71,32.94 266.57,32.41Q267.69,31.72 270.41,30" style="stroke-miterlimit: 1; vector-effect: non-scaling-stroke; fill: none; stroke: rgb(98, 69, 51); stroke-opacity: 1; stroke-width: 2px;"/><path class="openline" d="M377,136.59Q375.28,139.31 374.59,140.43C374.06,141.29 373.63,142.05 373.19,142.73C372.82,143.29 372.56,143.62 372.13,144.24C371.44,145.24 370.38,146.91 369.475,148.19C368.59,149.44 367.51,150.87 366.79,151.86C366.3,152.53 366.02,152.97 365.58,153.56C365.08,154.23 364.5,154.91 363.91,155.67C363.24,156.54 362.33,157.79 361.77,158.48C361.43,158.9 361.29,159.03 360.93,159.47C360.23,160.31 358.94,161.96 357.895,163.20999999999998C356.82,164.5 355.16,166.4 354.58,167.09C354.37,167.34 354.36,167.36 354.15,167.61C353.61,168.24 351.91,170.12 351.22,170.9C350.84,171.33 350.71,171.49 350.34,171.91C349.71,172.61 348.46,173.94 347.76,174.71C347.28,175.25 347.02,175.56 346.54,176.08C345.89,176.78 344.9,177.79 344.21,178.52C343.66,179.11 343.27,179.55 342.73,180.12C342.08,180.8 341.24,181.63 340.57,182.32C339.98,182.93 339.51,183.46 338.92,184.06C338.27,184.72 337.51,185.46 336.85,186.13C336.24,186.75 335.72,187.31 335.11,187.92C334.46,188.58 333.71,189.29 333.05,189.94C332.44,190.55 331.91,191.1 331.3,191.71C330.63,192.37 329.85,193.1 329.19,193.75C328.59,194.34 328.1,194.85 327.49,195.44C326.8,196.11 325.95,196.91 325.27,197.56C324.7,198.11 324.27,198.55 323.69,199.11C322.98,199.79 322,200.7 321.31,201.36C320.77,201.88 320.43,202.23 319.88,202.75C319.15,203.45 318,204.51 317.3,205.17C316.81,205.63 316.57,205.88 316.07,206.35C315.32,207.06 313.95,208.32 313.25,208.98C312.83,209.37 312.68,209.53 312.26,209.93C311.52,210.63 309.86,212.16 309.19,212.79C308.86,213.1 308.79,213.17 308.45,213.48C307.74,214.15 305.7,216.04 305.1,216.6C304.88,216.8 304.87,216.81 304.65,217.02C304.01,217.62 302.18,219.31 300.91999999999996,220.48000000000002C299.62,221.68 298.26,222.94 296.96,224.145C295.7,225.32 293.86,227.02 293.22,227.61C293,227.81 292.99,227.82 292.77,228.02C292.17,228.57 290.13,230.48 289.41,231.14C289.07,231.45 288.99,231.52 288.66,231.83C287.99,232.46 286.36,233.98 285.61,234.68C285.17,235.09 284.99,235.24 284.56,235.64C283.86,236.29 282.55,237.52 281.8,238.22C281.28,238.7 280.99,238.97 280.48,239.44C279.78,240.09 278.73,241.1 277.99,241.79C277.41,242.34 276.99,242.72 276.42,243.25C275.74,243.89 274.89,244.7 274.18,245.37C273.55,245.97 273,246.48 272.38,247.06C271.73,247.68 271.04,248.33 270.37,248.97C269.7,249.6 269.01,250.25 268.36,250.87C267.74,251.46 267.2,251.99 266.57,252.59C265.88,253.25 265.05,254.03 264.37,254.68C263.79,255.23 263.35,255.67 262.76,256.23C262.05,256.91 261.11,257.81 260.42,258.48C259.87,259.01 259.5,259.37 258.95,259.91C258.24,260.6 257.19,261.61 256.49,262.29C255.97,262.79 255.66,263.1 255.14,263.61C254.43,264.31 253.3,265.41 252.6,266.1C252.1,266.58 251.83,266.85 251.33,267.34C250.62,268.04 249.43,269.21 248.73,269.91C248.25,270.38 248.01,270.63 247.53,271.11C246.83,271.81 245.61,273.02 244.91,273.72C244.44,274.19 244.19,274.44 243.72,274.91C243.02,275.61 241.81,276.83 241.11,277.53C240.63,278.01 240.38,278.25 239.91,278.73C239.21,279.43 238.04,280.62 237.34,281.33C236.85,281.83 236.58,282.1 236.1,282.6C235.41,283.3 234.31,284.43 233.61,285.14C233.1,285.66 232.79,285.97 232.29,286.49C231.61,287.19 230.6,288.24 229.91,288.95C229.37,289.5 229.01,289.87 228.48,290.42C227.81,291.11 226.91,292.05 226.23,292.76C225.67,293.35 225.23,293.79 224.68,294.37C224.03,295.05 223.25,295.88 222.59,296.57C221.99,297.2 221.46,297.74 220.87,298.36C220.25,299.01 219.6,299.7 218.97,300.37C218.33,301.04 217.68,301.73 217.06,302.38C216.48,303 215.97,303.55 215.37,304.18C214.7,304.89 213.89,305.74 213.25,306.42C212.72,306.99 212.34,307.41 211.79,307.99C211.1,308.73 210.09,309.78 209.44,310.48C208.97,310.99 208.7,311.28 208.22,311.8C207.52,312.55 206.29,313.86 205.64,314.56C205.24,314.99 205.09,315.17 204.68,315.61C203.98,316.36 202.46,317.99 201.83,318.66C201.52,318.99 201.45,319.07 201.14,319.41C200.48,320.13 198.57,322.17 198.02,322.77C197.82,322.99 197.81,323 197.61,323.22C197.02,323.86 195.32,325.7 194.145,326.96C192.94,328.26 191.68,329.62 190.48000000000002,330.91999999999996C189.31,332.18 187.62,334.01 187.02,334.65C186.81,334.87 186.8,334.88 186.6,335.1C186.04,335.7 184.15,337.74 183.48,338.45C183.17,338.79 183.1,338.86 182.79,339.19C182.16,339.86 180.63,341.52 179.93,342.26C179.53,342.68 179.37,342.83 178.98,343.25C178.32,343.95 177.06,345.32 176.35,346.07C175.88,346.57 175.63,346.81 175.17,347.3C174.51,348 173.45,349.15 172.75,349.88C172.23,350.43 171.88,350.77 171.36,351.31C170.7,352 169.79,352.98 169.11,353.69C168.55,354.27 168.11,354.7 167.56,355.27C166.91,355.95 166.11,356.8 165.44,357.49C164.85,358.1 164.34,358.59 163.75,359.19C163.1,359.85 162.37,360.63 161.71,361.3C161.1,361.91 160.55,362.44 159.94,363.05C159.29,363.71 158.58,364.46 157.92,365.11C157.31,365.72 156.75,366.24 156.13,366.85C155.46,367.51 154.72,368.27 154.06,368.92C153.46,369.51 152.93,369.98 152.32,370.57C151.63,371.24 150.8,372.08 150.12,372.73C149.55,373.27 149.11,373.66 148.52,374.21C147.79,374.9 146.78,375.89 146.08,376.54C145.56,377.02 145.25,377.28 144.71,377.76C143.94,378.46 142.61,379.71 141.91,380.34C141.49,380.71 141.33,380.84 140.9,381.22C140.12,381.91 138.24,383.61 137.61,384.15C137.36,384.36 137.34,384.37 137.09,384.58C136.4,385.16 134.5,386.82 133.20999999999998,387.895C131.96,388.94 130.31,390.23 129.47,390.93C129.03,391.29 128.9,391.43 128.48,391.77C127.79,392.33 126.54,393.24 125.67,393.91C124.91,394.5 124.23,395.08 123.56,395.58C122.97,396.02 122.53,396.3 121.86,396.79C120.87,397.51 119.44,398.59 118.19,399.475C116.91,400.38 115.24,401.44 114.24,402.13C113.62,402.56 113.29,402.82 112.73,403.19C112.05,403.63 111.29,404.06 110.43,404.59Q109.31,405.28 106.59,407" style="stroke-miterlimit: 1; vector-effect: non-scaling-stroke; fill: none; stroke: rgb(98, 69, 51); stroke-opacity: 1; stroke-width: 2px;"/></g><g class="contourlevel"><path class="openline" d="M0,315.51Q2.11,312.74 2.81,311.8C3.23,311.23 3.41,310.93 3.81,310.41C4.36,309.71 5.2,308.78 5.85,307.99C6.47,307.24 7.05,306.46 7.62,305.79C8.12,305.2 8.55,304.79 9.09,304.18C9.78,303.41 10.77,302.21 11.42,301.51C11.86,301.04 12.1,300.84 12.55,300.37C13.26,299.64 14.54,298.21 15.23,297.52C15.64,297.11 15.82,296.97 16.23,296.57C16.93,295.88 18.31,294.44 19.04,293.75C19.48,293.33 19.69,293.17 20.13,292.76C20.84,292.1 22.09,290.86 22.85,290.16C23.38,289.67 23.71,289.42 24.23,288.95C24.93,288.32 25.9,287.4 26.66,286.73C27.32,286.15 27.9,285.68 28.53,285.14C29.17,284.58 29.77,284.02 30.46,283.43C31.25,282.76 32.31,281.92 33.01,281.33C33.51,280.91 33.74,280.68 34.27,280.24C35.12,279.53 37.05,278.02 37.64,277.53C37.86,277.35 37.86,277.34 38.08,277.16C38.72,276.64 41.17,274.7 41.89,274.15C42.17,273.94 42.2,273.92 42.47,273.72C43.11,273.23 44.78,271.91 45.7,271.21C46.37,270.7 46.84,270.37 47.45,269.91C48.11,269.41 48.76,268.9 49.51,268.33C50.42,267.65 51.85,266.61 52.53,266.1C52.88,265.84 52.95,265.77 53.31,265.5C54.1,264.91 56.39,263.24 57.12,262.72C57.41,262.51 57.45,262.49 57.73,262.29C58.38,261.83 59.97,260.66 60.93,259.97C61.7,259.42 62.38,258.95 63.04,258.48C63.64,258.05 64.06,257.74 64.74,257.25C65.74,256.53 67.21,255.5 68.465,254.615C69.75,253.71 71.36,252.56 72.35,251.87C72.95,251.45 73.28,251.25 73.82,250.87C74.51,250.39 75.32,249.8 76.16,249.21C77.12,248.54 78.58,247.53 79.25,247.06C79.57,246.83 79.63,246.79 79.97,246.55C80.74,246.01 82.94,244.47 83.78,243.89C84.19,243.6 84.32,243.52 84.71,243.25C85.41,242.77 86.66,241.88 87.59,241.23C88.47,240.61 89.45,239.94 90.15,239.44C90.64,239.09 90.86,238.93 91.39,238.55C92.34,237.88 94.07,236.67 95.37,235.755C96.61,234.88 97.99,233.89 99.01,233.17C99.74,232.65 100.27,232.28 100.9,231.83C101.54,231.37 102.09,230.97 102.82,230.44C103.78,229.74 105.55,228.47 106.16,228.02C106.39,227.85 106.4,227.84 106.63,227.67C107.29,227.18 109.59,225.49 110.43,224.88C110.84,224.58 110.96,224.5 111.35,224.21C112.05,223.7 113.34,222.72 114.24,222.05C115.02,221.46 115.76,220.91 116.43,220.4C117.01,219.96 117.41,219.65 118.05,219.16C118.96,218.46 120.77,217.08 121.38,216.6C121.61,216.42 121.62,216.41 121.86,216.22C122.53,215.69 124.98,213.77 125.67,213.22C125.93,213.01 125.95,212.99 126.21,212.79C126.84,212.29 128.6,210.86 129.47,210.16C130.05,209.69 130.38,209.42 130.92,208.98C131.61,208.41 132.51,207.66 133.28,207.02C134.03,206.4 134.81,205.74 135.49,205.17C136.07,204.68 136.48,204.32 137.09,203.8C137.9,203.1 139.2,201.97 139.9,201.36C140.32,200.99 140.47,200.86 140.9,200.48C141.68,199.79 143.54,198.13 144.17,197.56C144.43,197.33 144.45,197.31 144.71,197.07C145.39,196.44 147.17,194.82 148.41000000000003,193.65C149.7,192.44 151.02,191.18 152.31,189.93C153.6,188.68 154.88,187.42 156.14999999999998,186.14999999999998C157.42,184.88 158.68,183.6 159.93,182.31C161.18,181.02 162.44,179.7 163.65,178.41000000000003C164.82,177.17 166.44,175.39 167.07,174.71C167.31,174.45 167.33,174.43 167.56,174.17C168.13,173.54 169.79,171.68 170.48,170.9C170.86,170.47 170.99,170.32 171.36,169.9C171.97,169.2 173.1,167.9 173.8,167.09C174.32,166.48 174.68,166.07 175.17,165.49C175.74,164.81 176.4,164.03 177.02,163.28C177.66,162.51 178.41,161.61 178.98,160.92C179.42,160.38 179.69,160.05 180.16,159.47C180.86,158.6 182.29,156.84 182.79,156.21C182.99,155.95 183.01,155.93 183.22,155.67C183.77,154.98 185.69,152.53 186.22,151.86C186.41,151.62 186.42,151.61 186.6,151.38C187.08,150.77 188.46,148.96 189.16,148.05C189.65,147.41 189.96,147.01 190.4,146.43C190.91,145.76 191.46,145.02 192.05,144.24C192.72,143.34 193.7,142.05 194.21,141.35C194.5,140.96 194.58,140.84 194.88,140.43C195.49,139.59 197.18,137.29 197.67,136.63C197.84,136.4 197.85,136.39 198.02,136.16C198.47,135.55 199.74,133.78 200.44,132.82C200.97,132.09 201.37,131.54 201.83,130.9C202.28,130.27 202.65,129.74 203.17,129.01C203.89,127.99 204.88,126.61 205.755,125.37C206.67,124.07 207.88,122.34 208.55,121.39C208.93,120.86 209.09,120.64 209.44,120.15C209.94,119.45 210.61,118.47 211.23,117.59C211.88,116.66 212.77,115.41 213.25,114.71C213.52,114.32 213.6,114.19 213.89,113.78C214.47,112.94 216.01,110.74 216.55,109.97C216.79,109.63 216.83,109.57 217.06,109.25C217.53,108.58 218.54,107.12 219.21,106.16C219.8,105.32 220.39,104.51 220.87,103.82C221.25,103.28 221.45,102.95 221.87,102.35C222.56,101.36 223.71,99.75 224.615,98.465C225.5,97.21 226.53,95.74 227.25,94.74C227.74,94.06 228.05,93.64 228.48,93.04C228.95,92.38 229.42,91.7 229.97,90.93C230.66,89.97 231.83,88.38 232.29,87.73C232.49,87.45 232.51,87.41 232.72,87.12C233.24,86.39 234.91,84.1 235.5,83.31C235.77,82.95 235.84,82.88 236.1,82.53C236.61,81.85 237.65,80.42 238.33,79.51C238.9,78.76 239.41,78.11 239.91,77.45C240.37,76.84 240.7,76.37 241.21,75.7C241.91,74.78 243.23,73.11 243.72,72.47C243.92,72.2 243.94,72.17 244.15,71.89C244.7,71.17 246.64,68.72 247.16,68.08C247.34,67.86 247.35,67.86 247.53,67.64C248.02,67.05 249.53,65.12 250.24,64.27C250.68,63.74 250.91,63.51 251.33,63.01C251.92,62.31 252.76,61.25 253.43,60.46C254.02,59.77 254.58,59.17 255.14,58.53C255.68,57.9 256.15,57.32 256.73,56.66C257.4,55.9 258.32,54.93 258.95,54.23C259.42,53.71 259.67,53.38 260.16,52.85C260.86,52.09 262.1,50.84 262.76,50.13C263.17,49.69 263.33,49.48 263.75,49.04C264.44,48.31 265.88,46.93 266.57,46.23C266.97,45.82 267.11,45.64 267.52,45.23C268.21,44.54 269.64,43.26 270.37,42.55C270.84,42.1 271.04,41.86 271.51,41.42C272.21,40.77 273.41,39.78 274.18,39.09C274.79,38.55 275.2,38.12 275.79,37.62C276.46,37.05 277.24,36.47 277.99,35.85C278.78,35.2 279.71,34.36 280.41,33.81C280.93,33.41 281.23,33.23 281.8,32.81Q282.74,32.11 285.51,30" style="stroke-miterlimit: 1; vector-effect: non-scaling-stroke; fill: none; stroke: rgb(112, 77, 54); stroke-opacity: 1; stroke-width: 2px;"/><path class="openline" d="M377,121.49Q374.89,124.26 374.19,125.2C373.77,125.77 373.59,126.07 373.19,126.59C372.64,127.29 371.8,128.22 371.15,129.01C370.53,129.76 369.95,130.54 369.38,131.21C368.88,131.8 368.45,132.21 367.91,132.82C367.22,133.59 366.23,134.79 365.58,135.49C365.14,135.96 364.9,136.16 364.45,136.63C363.74,137.36 362.46,138.79 361.77,139.48C361.36,139.89 361.18,140.03 360.77,140.43C360.07,141.12 358.69,142.56 357.96,143.25C357.52,143.67 357.31,143.83 356.87,144.24C356.16,144.9 354.91,146.14 354.15,146.84C353.62,147.33 353.29,147.58 352.77,148.05C352.07,148.68 351.1,149.6 350.34,150.27C349.68,150.85 349.1,151.32 348.47,151.86C347.83,152.42 347.23,152.98 346.54,153.57C345.75,154.24 344.69,155.08 343.99,155.67C343.49,156.09 343.26,156.32 342.73,156.76C341.88,157.47 339.95,158.98 339.36,159.47C339.14,159.65 339.14,159.66 338.92,159.84C338.28,160.36 335.83,162.3 335.11,162.85C334.83,163.06 334.8,163.08 334.53,163.28C333.89,163.77 332.22,165.09 331.3,165.79C330.63,166.3 330.16,166.63 329.55,167.09C328.89,167.59 328.24,168.1 327.49,168.67C326.58,169.35 325.15,170.39 324.47,170.9C324.12,171.16 324.05,171.23 323.69,171.5C322.9,172.09 320.61,173.76 319.88,174.28C319.59,174.49 319.55,174.51 319.27,174.71C318.62,175.17 317.03,176.34 316.07,177.03C315.3,177.58 314.62,178.05 313.96,178.52C313.36,178.95 312.94,179.26 312.26,179.75C311.26,180.47 309.79,181.5 308.53499999999997,182.385C307.25,183.29 305.64,184.44 304.65,185.13C304.05,185.55 303.72,185.75 303.18,186.13C302.49,186.61 301.68,187.2 300.84,187.79C299.88,188.46 298.42,189.47 297.75,189.94C297.43,190.17 297.37,190.21 297.03,190.45C296.26,190.99 294.06,192.53 293.22,193.11C292.81,193.4 292.68,193.48 292.29,193.75C291.59,194.23 290.34,195.12 289.41,195.77C288.53,196.39 287.55,197.06 286.85,197.56C286.36,197.91 286.14,198.07 285.61,198.45C284.66,199.12 282.93,200.33 281.63,201.245C280.39,202.12 279.01,203.11 277.99,203.83C277.26,204.35 276.73,204.72 276.1,205.17C275.46,205.63 274.91,206.03 274.18,206.56C273.22,207.26 271.45,208.53 270.84,208.98C270.61,209.15 270.6,209.16 270.37,209.33C269.71,209.82 267.41,211.51 266.57,212.12C266.16,212.42 266.04,212.5 265.65,212.79C264.95,213.3 263.66,214.28 262.76,214.95C261.98,215.54 261.24,216.09 260.57,216.6C259.99,217.04 259.59,217.35 258.95,217.84C258.04,218.54 256.23,219.92 255.62,220.4C255.39,220.58 255.38,220.59 255.14,220.78C254.47,221.31 252.02,223.23 251.33,223.78C251.07,223.99 251.05,224.01 250.79,224.21C250.16,224.71 248.4,226.14 247.53,226.84C246.95,227.31 246.62,227.58 246.08,228.02C245.39,228.59 244.49,229.34 243.72,229.98C242.97,230.6 242.19,231.26 241.51,231.83C240.93,232.32 240.52,232.68 239.91,233.2C239.1,233.9 237.8,235.03 237.1,235.64C236.68,236.01 236.53,236.14 236.1,236.52C235.32,237.21 233.46,238.87 232.83,239.44C232.57,239.67 232.55,239.69 232.29,239.93C231.61,240.56 229.83,242.18 228.58999999999997,243.35C227.3,244.56 225.98,245.82 224.69,247.07C223.4,248.32 222.12,249.58 220.85000000000002,250.85000000000002C219.58,252.12 218.32,253.4 217.07,254.69C215.82,255.98 214.56,257.3 213.35,258.59000000000003C212.18,259.83 210.56,261.61 209.93,262.29C209.69,262.55 209.67,262.57 209.44,262.83C208.87,263.46 207.21,265.32 206.52,266.1C206.14,266.53 206.01,266.68 205.64,267.1C205.03,267.8 203.9,269.1 203.2,269.91C202.68,270.52 202.32,270.93 201.83,271.51C201.26,272.19 200.6,272.97 199.98,273.72C199.34,274.49 198.59,275.39 198.02,276.08C197.58,276.62 197.31,276.95 196.84,277.53C196.14,278.4 194.71,280.16 194.21,280.79C194.01,281.05 193.99,281.07 193.78,281.33C193.23,282.02 191.31,284.47 190.78,285.14C190.59,285.38 190.58,285.39 190.4,285.62C189.92,286.23 188.54,288.04 187.84,288.95C187.35,289.59 187.04,289.99 186.6,290.57C186.09,291.24 185.54,291.98 184.95,292.76C184.28,293.66 183.3,294.95 182.79,295.65C182.5,296.04 182.42,296.16 182.12,296.57C181.51,297.41 179.82,299.71 179.33,300.37C179.16,300.6 179.15,300.61 178.98,300.84C178.53,301.45 177.26,303.22 176.56,304.18C176.03,304.91 175.63,305.46 175.17,306.1C174.72,306.73 174.35,307.26 173.83,307.99C173.11,309.01 172.12,310.39 171.245,311.63C170.33,312.93 169.12,314.66 168.45,315.61C168.07,316.14 167.91,316.36 167.56,316.85C167.06,317.55 166.39,318.53 165.77,319.41C165.12,320.34 164.23,321.59 163.75,322.29C163.48,322.68 163.4,322.81 163.11,323.22C162.53,324.06 160.99,326.26 160.45,327.03C160.21,327.37 160.17,327.43 159.94,327.75C159.47,328.42 158.46,329.88 157.79,330.84C157.2,331.68 156.61,332.49 156.13,333.18C155.75,333.72 155.55,334.05 155.13,334.65C154.44,335.64 153.29,337.25 152.385,338.53499999999997C151.5,339.79 150.47,341.26 149.75,342.26C149.26,342.94 148.95,343.36 148.52,343.96C148.05,344.62 147.58,345.3 147.03,346.07C146.34,347.03 145.17,348.62 144.71,349.27C144.51,349.55 144.49,349.59 144.28,349.88C143.76,350.61 142.09,352.9 141.5,353.69C141.23,354.05 141.16,354.12 140.9,354.47C140.39,355.15 139.35,356.58 138.67,357.49C138.1,358.24 137.59,358.89 137.09,359.55C136.63,360.16 136.3,360.63 135.79,361.3C135.09,362.22 133.77,363.89 133.28,364.53C133.08,364.8 133.06,364.83 132.85,365.11C132.3,365.83 130.36,368.28 129.84,368.92C129.66,369.14 129.65,369.14 129.47,369.36C128.98,369.95 127.47,371.88 126.76,372.73C126.32,373.26 126.09,373.49 125.67,373.99C125.08,374.69 124.24,375.75 123.57,376.54C122.98,377.23 122.42,377.83 121.86,378.47C121.32,379.1 120.85,379.68 120.27,380.34C119.6,381.1 118.68,382.07 118.05,382.77C117.58,383.29 117.33,383.62 116.84,384.15C116.14,384.91 114.9,386.16 114.24,386.87C113.83,387.31 113.67,387.52 113.25,387.96C112.56,388.69 111.12,390.07 110.43,390.77C110.03,391.18 109.89,391.36 109.48,391.77C108.79,392.46 107.36,393.74 106.63,394.45C106.16,394.9 105.96,395.14 105.49,395.58C104.79,396.23 103.59,397.22 102.82,397.91C102.21,398.45 101.8,398.88 101.21,399.38C100.54,399.95 99.76,400.53 99.01,401.15C98.22,401.8 97.29,402.64 96.59,403.19C96.07,403.59 95.77,403.77 95.2,404.19Q94.26,404.89 91.49,407" style="stroke-miterlimit: 1; vector-effect: non-scaling-stroke; fill: none; stroke: rgb(112, 77, 54); stroke-opacity: 1; stroke-width: 2px;"/></g><g class="contourlevel"><path class="openline" d="M0,328.23Q0.7,327.52 1.16,327.03C1.87,326.27 3.13,324.79 3.81,324.11C4.2,323.72 4.38,323.6 4.78,323.22C5.48,322.55 6.87,321.11 7.62,320.42C8.09,319.99 8.34,319.82 8.81,319.41C9.52,318.79 10.61,317.74 11.42,317.06C12.08,316.51 12.65,316.11 13.27,315.61C13.92,315.08 14.5,314.53 15.23,313.96C16.1,313.28 17.47,312.33 18.16,311.8C18.54,311.51 18.64,311.4 19.04,311.1C19.86,310.49 22.09,308.94 22.85,308.43C23.17,308.22 23.23,308.19 23.54,307.99C24.21,307.56 25.64,306.56 26.66,305.91C27.62,305.3 28.79,304.62 29.48,304.18C29.89,303.92 30.02,303.81 30.46,303.54C31.31,303.01 33.25,301.88 34.27,301.3C34.95,300.92 35.39,300.7 35.99,300.37C36.65,300 37.28,299.62 38.08,299.18C39.16,298.59 40.96,297.64 41.89,297.17C42.41,296.91 42.64,296.81 43.13,296.57C43.83,296.22 44.76,295.72 45.7,295.25C46.84,294.68 48.52,293.88 49.51,293.43C50.13,293.15 50.47,293.01 51.03,292.76C51.71,292.45 52.45,292.08 53.31,291.69C54.41,291.19 55.95,290.54 57.12,290.05C58.1,289.64 59.14,289.24 59.84,288.95C60.29,288.76 60.45,288.67 60.93,288.48C61.81,288.12 63.47,287.49 64.74,287.01C66.01,286.53 67.59,285.95 68.55,285.61C69.13,285.41 69.42,285.32 69.95,285.14C70.64,284.9 71.46,284.6 72.35,284.3C73.47,283.92 74.89,283.47 76.16,283.08C77.43,282.69 78.86,282.26 79.97,281.95C80.83,281.71 81.58,281.52 82.27,281.33C82.83,281.18 83.16,281.07 83.78,280.91C84.76,280.66 86.32,280.29 87.59,280C88.86,279.72 90.12,279.45 91.39,279.2C92.66,278.96 93.93,278.73 95.2,278.53C96.47,278.33 97.74,278.16 99.01,278.02C100.28,277.88 101.55,277.78 102.82,277.71C104.09,277.64 105.36,277.6 106.63,277.62C107.9,277.64 109.17,277.71 110.43,277.85C111.7,278 112.98,278.19 114.24,278.49C115.52,278.8 116.87,279.21 118.05,279.7C119.16,280.16 120.49,280.93 121.15,281.33C121.48,281.53 121.55,281.56 121.86,281.82C122.58,282.42 124.58,284.42 125.18,285.14C125.44,285.45 125.47,285.52 125.67,285.85C126.07,286.51 126.84,287.84 127.3,288.95C127.79,290.13 128.2,291.48 128.51,292.76C128.81,294.02 129,295.3 129.15,296.57C129.29,297.83 129.36,299.1 129.38,300.37C129.4,301.64 129.36,302.91 129.29,304.18C129.22,305.45 129.12,306.72 128.98,307.99C128.84,309.26 128.67,310.53 128.47,311.8C128.27,313.07 128.04,314.34 127.8,315.61C127.55,316.88 127.28,318.14 127,319.41C126.71,320.68 126.34,322.24 126.09,323.22C125.93,323.84 125.82,324.17 125.67,324.73C125.48,325.42 125.29,326.17 125.05,327.03C124.74,328.14 124.31,329.57 123.92,330.84C123.53,332.11 123.08,333.53 122.7,334.65C122.4,335.54 122.1,336.36 121.86,337.05C121.68,337.58 121.59,337.87 121.39,338.45C121.05,339.41 120.47,340.99 119.99,342.26C119.51,343.53 118.88,345.19 118.52,346.07C118.33,346.55 118.24,346.71 118.05,347.16C117.76,347.86 117.36,348.9 116.95,349.88C116.46,351.05 115.81,352.59 115.31,353.69C114.92,354.55 114.55,355.29 114.24,355.97C113.99,356.53 113.85,356.87 113.57,357.49C113.12,358.48 112.32,360.16 111.75,361.3C111.28,362.24 110.78,363.17 110.43,363.87C110.19,364.36 110.09,364.59 109.83,365.11C109.36,366.04 108.41,367.84 107.82,368.92C107.38,369.72 107,370.35 106.63,371.01C106.3,371.61 106.08,372.05 105.7,372.73C105.12,373.75 103.99,375.69 103.46,376.54C103.19,376.98 103.08,377.11 102.82,377.52C102.38,378.21 101.7,379.38 101.09,380.34C100.44,381.36 99.44,382.79 99.01,383.46C98.81,383.77 98.78,383.83 98.57,384.15C98.06,384.91 96.51,387.14 95.9,387.96C95.6,388.36 95.49,388.46 95.2,388.84C94.67,389.53 93.72,390.9 93.04,391.77C92.47,392.5 91.92,393.08 91.39,393.73C90.89,394.35 90.49,394.92 89.94,395.58C89.26,396.39 88.21,397.48 87.59,398.19C87.18,398.66 87.01,398.91 86.58,399.38C85.89,400.13 84.45,401.52 83.78,402.22C83.4,402.62 83.28,402.8 82.89,403.19C82.21,403.87 80.73,405.13 79.97,405.84Q79.48,406.3 78.77,407" style="stroke-miterlimit: 1; vector-effect: non-scaling-stroke; fill: none; stroke: rgb(125, 85, 56); stroke-opacity: 1; stroke-width: 2px;"/><path class="openline" d="M377,108.77Q376.3,109.48 375.84,109.97C375.13,110.73 373.87,112.21 373.19,112.89C372.8,113.28 372.62,113.4 372.22,113.78C371.52,114.45 370.13,115.89 369.38,116.58C368.91,117.01 368.66,117.18 368.19,117.59C367.48,118.21 366.39,119.26 365.58,119.94C364.92,120.49 364.35,120.89 363.73,121.39C363.08,121.92 362.5,122.47 361.77,123.04C360.9,123.72 359.53,124.67 358.84,125.2C358.46,125.49 358.36,125.6 357.96,125.9C357.14,126.51 354.91,128.06 354.15,128.57C353.83,128.78 353.77,128.81 353.46,129.01C352.79,129.44 351.36,130.44 350.34,131.09C349.38,131.7 348.21,132.38 347.52,132.82C347.11,133.08 346.98,133.19 346.54,133.46C345.69,133.99 343.75,135.12 342.73,135.7C342.05,136.08 341.61,136.3 341.01,136.63C340.35,137 339.72,137.38 338.92,137.82C337.84,138.41 336.04,139.36 335.11,139.83C334.59,140.09 334.36,140.19 333.87,140.43C333.17,140.78 332.24,141.28 331.3,141.75C330.16,142.32 328.48,143.12 327.49,143.57C326.87,143.85 326.53,143.99 325.97,144.24C325.29,144.55 324.55,144.92 323.69,145.31C322.59,145.81 321.05,146.46 319.88,146.95C318.9,147.36 317.86,147.76 317.16,148.05C316.71,148.24 316.55,148.33 316.07,148.52C315.19,148.88 313.53,149.51 312.26,149.99C310.99,150.47 309.41,151.05 308.45,151.39C307.87,151.59 307.58,151.68 307.05,151.86C306.36,152.1 305.54,152.4 304.65,152.7C303.53,153.08 302.11,153.53 300.84,153.92C299.57,154.31 298.14,154.74 297.03,155.05C296.17,155.29 295.42,155.48 294.73,155.67C294.17,155.82 293.84,155.93 293.22,156.09C292.24,156.34 290.68,156.71 289.41,157C288.14,157.28 286.88,157.55 285.61,157.8C284.34,158.04 283.07,158.27 281.8,158.47C280.53,158.67 279.26,158.84 277.99,158.98C276.72,159.12 275.45,159.22 274.18,159.29C272.91,159.36 271.64,159.4 270.37,159.38C269.1,159.36 267.83,159.29 266.57,159.15C265.3,159 264.02,158.81 262.76,158.51C261.48,158.2 260.13,157.79 258.95,157.3C257.84,156.84 256.51,156.07 255.85,155.67C255.52,155.47 255.45,155.44 255.14,155.18C254.42,154.58 252.42,152.58 251.82,151.86C251.56,151.55 251.53,151.48 251.33,151.15C250.93,150.49 250.16,149.16 249.7,148.05C249.21,146.87 248.8,145.52 248.49,144.24C248.19,142.98 248,141.7 247.85,140.43C247.71,139.17 247.64,137.9 247.62,136.63C247.6,135.36 247.64,134.09 247.71,132.82C247.78,131.55 247.88,130.28 248.02,129.01C248.16,127.74 248.33,126.47 248.53,125.2C248.73,123.93 248.96,122.66 249.2,121.39C249.45,120.12 249.72,118.86 250,117.59C250.29,116.32 250.66,114.76 250.91,113.78C251.07,113.16 251.18,112.83 251.33,112.27C251.52,111.58 251.71,110.83 251.95,109.97C252.26,108.86 252.69,107.43 253.08,106.16C253.47,104.89 253.92,103.47 254.3,102.35C254.6,101.46 254.9,100.64 255.14,99.95C255.32,99.42 255.41,99.13 255.61,98.55C255.95,97.59 256.53,96.01 257.01,94.74C257.49,93.47 258.12,91.81 258.48,90.93C258.67,90.45 258.76,90.29 258.95,89.84C259.24,89.14 259.64,88.1 260.05,87.12C260.54,85.95 261.19,84.41 261.69,83.31C262.08,82.45 262.45,81.71 262.76,81.03C263.01,80.47 263.15,80.13 263.43,79.51C263.88,78.52 264.68,76.84 265.25,75.7C265.72,74.76 266.22,73.83 266.57,73.13C266.81,72.64 266.91,72.41 267.17,71.89C267.64,70.96 268.59,69.16 269.18,68.08C269.62,67.28 270,66.65 270.37,65.99C270.7,65.39 270.92,64.95 271.3,64.27C271.88,63.25 273.01,61.31 273.54,60.46C273.81,60.02 273.92,59.89 274.18,59.48C274.62,58.79 275.3,57.62 275.91,56.66C276.56,55.64 277.56,54.21 277.99,53.54C278.19,53.23 278.22,53.17 278.43,52.85C278.94,52.09 280.49,49.86 281.1,49.04C281.4,48.64 281.51,48.54 281.8,48.16C282.33,47.47 283.28,46.1 283.96,45.23C284.53,44.5 285.08,43.92 285.61,43.27C286.11,42.65 286.51,42.08 287.06,41.42C287.74,40.61 288.79,39.52 289.41,38.81C289.82,38.34 289.99,38.09 290.42,37.62C291.11,36.87 292.55,35.48 293.22,34.78C293.6,34.38 293.72,34.2 294.11,33.81C294.79,33.13 296.27,31.87 297.03,31.16Q297.52,30.7 298.23,30" style="stroke-miterlimit: 1; vector-effect: non-scaling-stroke; fill: none; stroke: rgb(125, 85, 56); stroke-opacity: 1; stroke-width: 2px;"/></g><g class="contourlevel"><path class="openline" d="M0,339.16Q0.51,338.76 0.89,338.45C1.59,337.87 2.94,336.61 3.81,335.93C4.47,335.41 5.01,335.1 5.63,334.65C6.28,334.17 6.84,333.67 7.62,333.12C8.65,332.4 10.04,331.52 11.295,330.75C12.58,329.96 14.02,329.1 15.23,328.44C16.24,327.89 17.34,327.39 18.04,327.03C18.46,326.81 18.59,326.71 19.04,326.49C19.9,326.06 21.58,325.28 22.85,324.73C24.1,324.19 25.35,323.69 26.619999999999997,323.20500000000004C27.89,322.72 29.18,322.24 30.46,321.81C31.73,321.38 33,320.99 34.27,320.62C35.54,320.25 37.26,319.8 38.08,319.6C38.47,319.51 38.57,319.49 38.95,319.41C39.64,319.26 40.84,318.96 41.89,318.75C43.08,318.51 44.43,318.27 45.7,318.08C46.97,317.89 48.24,317.73 49.51,317.6C50.78,317.47 52.04,317.38 53.31,317.32C54.58,317.26 55.85,317.25 57.12,317.27C58.39,317.29 59.66,317.35 60.93,317.47C62.2,317.59 63.47,317.75 64.74,317.97C66.02,318.2 67.51,318.54 68.55,318.82C69.28,319.02 69.78,319.2 70.4,319.41C71.04,319.63 71.6,319.81 72.35,320.13C73.42,320.59 75.14,321.45 76.16,322.04C76.88,322.46 77.34,322.78 77.95,323.22C78.61,323.7 79.3,324.22 79.97,324.82C80.71,325.48 81.52,326.29 82.18,327.03C82.78,327.7 83.3,328.39 83.78,329.05C84.22,329.66 84.54,330.12 84.96,330.84C85.55,331.86 86.41,333.58 86.87,334.65C87.19,335.4 87.37,335.96 87.59,336.6C87.8,337.22 87.98,337.72 88.18,338.45C88.46,339.49 88.8,340.98 89.03,342.26C89.25,343.53 89.41,344.8 89.53,346.07C89.65,347.34 89.71,348.61 89.73,349.88C89.75,351.15 89.74,352.42 89.68,353.69C89.62,354.96 89.53,356.22 89.4,357.49C89.27,358.76 89.11,360.03 88.92,361.3C88.73,362.57 88.49,363.92 88.25,365.11C88.04,366.16 87.74,367.36 87.59,368.05C87.51,368.43 87.49,368.53 87.4,368.92C87.2,369.74 86.75,371.46 86.38,372.73C86.01,374 85.62,375.27 85.19,376.54C84.76,377.82 84.28,379.11 83.795,380.38C83.31,381.65 82.81,382.9 82.27,384.15C81.72,385.42 80.94,387.1 80.51,387.96C80.29,388.41 80.19,388.54 79.97,388.96C79.61,389.66 79.11,390.76 78.56,391.77C77.9,392.98 77.04,394.42 76.25,395.705C75.48,396.96 74.6,398.35 73.88,399.38C73.33,400.16 72.83,400.72 72.35,401.37C71.9,401.99 71.59,402.53 71.07,403.19C70.39,404.06 69.13,405.41 68.55,406.11Q68.24,406.49 67.84,407" style="stroke-miterlimit: 1; vector-effect: non-scaling-stroke; fill: none; stroke: rgb(138, 93, 57); stroke-opacity: 1; stroke-width: 2px;"/><path class="openline" d="M377,97.84Q376.49,98.24 376.11,98.55C375.41,99.13 374.06,100.39 373.19,101.07C372.53,101.59 371.99,101.9 371.37,102.35C370.72,102.83 370.16,103.33 369.38,103.88C368.35,104.6 366.96,105.48 365.705,106.25C364.42,107.04 362.98,107.9 361.77,108.56C360.76,109.11 359.66,109.61 358.96,109.97C358.54,110.19 358.41,110.29 357.96,110.51C357.1,110.94 355.42,111.72 354.15,112.27C352.9,112.81 351.65,113.31 350.38,113.795C349.11,114.28 347.82,114.76 346.54,115.19C345.27,115.62 344,116.01 342.73,116.38C341.46,116.75 339.74,117.2 338.92,117.4C338.53,117.49 338.43,117.51 338.05,117.59C337.36,117.74 336.16,118.04 335.11,118.25C333.92,118.49 332.57,118.73 331.3,118.92C330.03,119.11 328.76,119.27 327.49,119.4C326.22,119.53 324.96,119.62 323.69,119.68C322.42,119.74 321.15,119.75 319.88,119.73C318.61,119.71 317.34,119.65 316.07,119.53C314.8,119.41 313.53,119.25 312.26,119.03C310.98,118.8 309.49,118.46 308.45,118.18C307.72,117.98 307.22,117.8 306.6,117.59C305.96,117.37 305.4,117.19 304.65,116.87C303.58,116.41 301.86,115.55 300.84,114.96C300.12,114.54 299.66,114.22 299.05,113.78C298.39,113.3 297.7,112.78 297.03,112.18C296.29,111.52 295.48,110.71 294.82,109.97C294.22,109.3 293.7,108.61 293.22,107.95C292.78,107.34 292.46,106.88 292.04,106.16C291.45,105.14 290.59,103.42 290.13,102.35C289.81,101.6 289.63,101.04 289.41,100.4C289.2,99.78 289.02,99.28 288.82,98.55C288.54,97.51 288.2,96.02 287.97,94.74C287.75,93.47 287.59,92.2 287.47,90.93C287.35,89.66 287.29,88.39 287.27,87.12C287.25,85.85 287.26,84.58 287.32,83.31C287.38,82.04 287.47,80.78 287.6,79.51C287.73,78.24 287.89,76.97 288.08,75.7C288.27,74.43 288.51,73.08 288.75,71.89C288.96,70.84 289.26,69.64 289.41,68.95C289.49,68.57 289.51,68.47 289.6,68.08C289.8,67.26 290.25,65.54 290.62,64.27C290.99,63 291.38,61.73 291.81,60.46C292.24,59.18 292.72,57.89 293.20500000000004,56.62C293.69,55.35 294.19,54.1 294.73,52.85C295.28,51.58 296.06,49.9 296.49,49.04C296.71,48.59 296.81,48.46 297.03,48.04C297.39,47.34 297.89,46.24 298.44,45.23C299.1,44.02 299.96,42.58 300.75,41.295C301.52,40.04 302.4,38.65 303.12,37.62C303.67,36.84 304.17,36.28 304.65,35.63C305.1,35.01 305.41,34.47 305.93,33.81C306.61,32.94 307.87,31.59 308.45,30.89Q308.76,30.51 309.16,30" style="stroke-miterlimit: 1; vector-effect: non-scaling-stroke; fill: none; stroke: rgb(138, 93, 57); stroke-opacity: 1; stroke-width: 2px;"/></g><g class="contourlevel"><path class="openline" d="M0,348.68Q2.73,346.94 4.05,346.185C5.27,345.49 6.4,344.89 7.62,344.31C8.86,343.72 10.48,343.05 11.42,342.69C11.96,342.49 12.22,342.43 12.72,342.26C13.42,342.02 14.3,341.65 15.23,341.35C16.36,340.99 17.76,340.6 19.04,340.29C20.3,339.98 21.58,339.72 22.85,339.5C24.12,339.28 25.39,339.1 26.66,338.96C27.93,338.82 29.19,338.73 30.46,338.68C31.73,338.63 33,338.62 34.27,338.66C35.54,338.7 36.81,338.79 38.08,338.93C39.35,339.07 40.63,339.26 41.89,339.52C43.17,339.78 44.44,340.09 45.7,340.48C46.98,340.88 48.73,341.56 49.51,341.89C49.87,342.04 49.94,342.09 50.28,342.26C50.96,342.6 52.31,343.27 53.31,343.88C54.36,344.53 55.78,345.57 56.44,346.07C56.76,346.31 56.82,346.36 57.12,346.63C57.81,347.26 59.74,349.19 60.37,349.88C60.64,350.18 60.69,350.24 60.93,350.56C61.43,351.22 62.47,352.64 63.12,353.69C63.73,354.69 64.4,356.04 64.74,356.72C64.91,357.06 64.96,357.13 65.11,357.49C65.44,358.27 66.12,360.02 66.52,361.3C66.91,362.56 67.22,363.83 67.48,365.11C67.74,366.37 67.93,367.65 68.07,368.92C68.21,370.19 68.3,371.46 68.34,372.73C68.38,374 68.37,375.27 68.32,376.54C68.27,377.81 68.18,379.07 68.04,380.34C67.9,381.61 67.72,382.88 67.5,384.15C67.28,385.42 67.02,386.7 66.71,387.96C66.4,389.24 66.01,390.64 65.65,391.77C65.35,392.7 64.98,393.58 64.74,394.28C64.57,394.78 64.51,395.04 64.31,395.58C63.95,396.52 63.28,398.14 62.69,399.38C62.11,400.6 61.51,401.73 60.815,402.95Q60.06,404.27 58.32,407" style="stroke-miterlimit: 1; vector-effect: non-scaling-stroke; fill: none; stroke: rgb(150, 102, 58); stroke-opacity: 1; stroke-width: 2px;"/><path class="openline" d="M377,88.32Q374.27,90.06 372.95,90.815C371.73,91.51 370.6,92.11 369.38,92.69C368.14,93.28 366.52,93.95 365.58,94.31C365.04,94.51 364.78,94.57 364.28,94.74C363.58,94.98 362.7,95.35 361.77,95.65C360.64,96.01 359.24,96.4 357.96,96.71C356.7,97.02 355.42,97.28 354.15,97.5C352.88,97.72 351.61,97.9 350.34,98.04C349.07,98.18 347.81,98.27 346.54,98.32C345.27,98.37 344,98.38 342.73,98.34C341.46,98.3 340.19,98.21 338.92,98.07C337.65,97.93 336.37,97.74 335.11,97.48C333.83,97.22 332.56,96.91 331.3,96.52C330.02,96.12 328.27,95.44 327.49,95.11C327.13,94.96 327.06,94.91 326.72,94.74C326.04,94.4 324.69,93.73 323.69,93.12C322.64,92.47 321.22,91.43 320.56,90.93C320.24,90.69 320.18,90.64 319.88,90.37C319.19,89.74 317.26,87.81 316.63,87.12C316.36,86.82 316.31,86.76 316.07,86.44C315.57,85.78 314.53,84.36 313.88,83.31C313.27,82.31 312.6,80.96 312.26,80.28C312.09,79.94 312.04,79.87 311.89,79.51C311.56,78.73 310.88,76.98 310.48,75.7C310.09,74.44 309.78,73.17 309.52,71.89C309.26,70.63 309.07,69.35 308.93,68.08C308.79,66.81 308.7,65.54 308.66,64.27C308.62,63 308.63,61.73 308.68,60.46C308.73,59.19 308.82,57.93 308.96,56.66C309.1,55.39 309.28,54.12 309.5,52.85C309.72,51.58 309.98,50.3 310.29,49.04C310.6,47.76 310.99,46.36 311.35,45.23C311.65,44.3 312.02,43.42 312.26,42.72C312.43,42.22 312.49,41.96 312.69,41.42C313.05,40.48 313.72,38.86 314.31,37.62C314.89,36.4 315.49,35.27 316.185,34.05Q316.94,32.73 318.68,30" style="stroke-miterlimit: 1; vector-effect: non-scaling-stroke; fill: none; stroke: rgb(150, 102, 58); stroke-opacity: 1; stroke-width: 2px;"/></g><g class="contourlevel"><path class="openline" d="M0,357.07Q2.53,355.92 3.81,355.45C5.07,354.99 6.44,354.57 7.62,354.27C8.63,354.01 9.75,353.84 10.45,353.69C10.86,353.6 10.99,353.54 11.42,353.46C12.27,353.31 13.96,353.08 15.23,352.98C16.5,352.88 17.77,352.83 19.04,352.84C20.31,352.85 21.57,352.91 22.85,353.04C24.18,353.17 25.58,353.38 26.875,353.64C28.11,353.88 29.26,354.15 30.46,354.52C31.72,354.9 33.07,355.4 34.27,355.91C35.4,356.39 36.82,357.15 37.47,357.49C37.76,357.64 37.79,357.66 38.08,357.84C38.81,358.3 41.05,359.83 41.89,360.48C42.33,360.82 42.46,360.93 42.86,361.3C43.57,361.95 45.05,363.43 45.7,364.14C46.07,364.54 46.18,364.67 46.52,365.11C47.17,365.95 48.7,368.19 49.16,368.92C49.34,369.21 49.36,369.24 49.51,369.53C49.85,370.18 50.61,371.6 51.09,372.73C51.6,373.93 52.1,375.28 52.48,376.54C52.85,377.74 53.12,378.89 53.36,380.125C53.62,381.42 53.83,382.82 53.96,384.15C54.09,385.43 54.15,386.69 54.16,387.96C54.17,389.23 54.12,390.5 54.02,391.77C53.92,393.04 53.69,394.73 53.54,395.58C53.46,396.01 53.4,396.14 53.31,396.55C53.16,397.25 52.99,398.37 52.73,399.38C52.43,400.56 52.01,401.93 51.55,403.19Q51.08,404.47 49.93,407" style="stroke-miterlimit: 1; vector-effect: non-scaling-stroke; fill: none; stroke: rgb(161, 112, 59); stroke-opacity: 1; stroke-width: 2px;"/><path class="openline" d="M377,79.93Q374.47,81.08 373.19,81.55C371.93,82.01 370.56,82.43 369.38,82.73C368.37,82.99 367.25,83.16 366.55,83.31C366.14,83.4 366.01,83.46 365.58,83.54C364.73,83.69 363.04,83.92 361.77,84.02C360.5,84.12 359.23,84.17 357.96,84.16C356.69,84.15 355.43,84.09 354.15,83.96C352.82,83.83 351.42,83.62 350.125,83.36C348.89,83.12 347.74,82.85 346.54,82.48C345.28,82.1 343.93,81.6 342.73,81.09C341.6,80.61 340.18,79.85 339.53,79.51C339.24,79.36 339.21,79.34 338.92,79.16C338.19,78.7 335.95,77.17 335.11,76.52C334.67,76.18 334.54,76.07 334.14,75.7C333.43,75.05 331.95,73.57 331.3,72.86C330.93,72.46 330.82,72.33 330.48,71.89C329.83,71.05 328.3,68.81 327.84,68.08C327.66,67.79 327.64,67.76 327.49,67.47C327.15,66.82 326.39,65.4 325.91,64.27C325.4,63.07 324.9,61.72 324.52,60.46C324.15,59.26 323.88,58.11 323.64,56.875C323.38,55.58 323.17,54.18 323.04,52.85C322.91,51.57 322.85,50.31 322.84,49.04C322.83,47.77 322.88,46.5 322.98,45.23C323.08,43.96 323.31,42.27 323.46,41.42C323.54,40.99 323.6,40.86 323.69,40.45C323.84,39.75 324.01,38.63 324.27,37.62C324.57,36.44 324.99,35.07 325.45,33.81Q325.92,32.53 327.07,30" style="stroke-miterlimit: 1; vector-effect: non-scaling-stroke; fill: none; stroke: rgb(161, 112, 59); stroke-opacity: 1; stroke-width: 2px;"/></g><g class="contourlevel"><path class="openline" d="M0,364.52Q2.53,363.84 3.81,363.62C5.07,363.4 6.35,363.26 7.62,363.19C8.89,363.12 10.15,363.11 11.42,363.17C12.69,363.23 13.97,363.36 15.23,363.56C16.51,363.76 17.93,364.07 19.04,364.36C19.92,364.59 20.69,364.88 21.38,365.11C21.93,365.29 22.25,365.38 22.85,365.62C23.83,366.02 25.54,366.8 26.66,367.4C27.59,367.9 28.44,368.47 29.13,368.92C29.65,369.26 29.92,369.42 30.46,369.84C31.38,370.55 32.94,371.83 34.05500000000001,372.94500000000005C35.17,374.06 36.45,375.62 37.16,376.54C37.58,377.08 37.74,377.35 38.08,377.87C38.53,378.56 39.1,379.41 39.6,380.34C40.2,381.46 40.98,383.17 41.38,384.15C41.62,384.75 41.71,385.07 41.89,385.62C42.12,386.31 42.41,387.08 42.64,387.96C42.93,389.07 43.24,390.49 43.44,391.77C43.64,393.03 43.77,394.31 43.83,395.58C43.89,396.85 43.88,398.11 43.81,399.38C43.74,400.65 43.6,401.93 43.38,403.19Q43.16,404.47 42.48,407" style="stroke-miterlimit: 1; vector-effect: non-scaling-stroke; fill: none; stroke: rgb(171, 122, 60); stroke-opacity: 1; stroke-width: 2px;"/><path class="openline" d="M377,72.48Q374.47,73.16 373.19,73.38C371.93,73.6 370.65,73.74 369.38,73.81C368.11,73.88 366.85,73.89 365.58,73.83C364.31,73.77 363.03,73.64 361.77,73.44C360.49,73.24 359.07,72.93 357.96,72.64C357.08,72.41 356.31,72.12 355.62,71.89C355.07,71.71 354.75,71.62 354.15,71.38C353.17,70.98 351.46,70.2 350.34,69.6C349.41,69.1 348.56,68.53 347.87,68.08C347.35,67.74 347.08,67.58 346.54,67.16C345.62,66.45 344.06,65.17 342.94500000000005,64.055C341.83,62.94 340.55,61.38 339.84,60.46C339.42,59.92 339.26,59.65 338.92,59.13C338.47,58.44 337.9,57.59 337.4,56.66C336.8,55.54 336.02,53.83 335.62,52.85C335.38,52.25 335.29,51.93 335.11,51.38C334.88,50.69 334.59,49.92 334.36,49.04C334.07,47.93 333.76,46.51 333.56,45.23C333.36,43.97 333.23,42.69 333.17,41.42C333.11,40.15 333.12,38.89 333.19,37.62C333.26,36.35 333.4,35.07 333.62,33.81Q333.84,32.53 334.52,30" style="stroke-miterlimit: 1; vector-effect: non-scaling-stroke; fill: none; stroke: rgb(171, 122, 60); stroke-opacity: 1; stroke-width: 2px;"/></g><g class="contourlevel"><path class="openline" d="M0,371.18Q2.54,370.97 3.81,370.98C5.08,370.99 6.36,371.1 7.62,371.27C8.89,371.45 10.33,371.75 11.42,372.03C12.26,372.25 12.94,372.51 13.61,372.73C14.19,372.92 14.59,373.02 15.23,373.28C16.24,373.69 17.94,374.48 19.04,375.08C19.94,375.57 20.71,376.09 21.4,376.54C21.95,376.9 22.28,377.1 22.85,377.54C23.73,378.22 25.48,379.76 26.11,380.34C26.38,380.59 26.41,380.62 26.66,380.89C27.24,381.52 28.78,383.27 29.46,384.15C29.9,384.72 30.1,385.05 30.46,385.6C30.91,386.29 31.43,387.06 31.92,387.96C32.52,389.06 33.31,390.76 33.72,391.77C33.98,392.41 34.08,392.81 34.27,393.39C34.49,394.06 34.75,394.74 34.97,395.58C35.25,396.67 35.55,398.11 35.73,399.38C35.9,400.64 36.01,401.92 36.02,403.19Q36.03,404.46 35.82,407" style="stroke-miterlimit: 1; vector-effect: non-scaling-stroke; fill: none; stroke: rgb(180, 134, 64); stroke-opacity: 1; stroke-width: 2px;"/><path class="openline" d="M377,65.82Q374.46,66.03 373.19,66.02C371.92,66.01 370.64,65.9 369.38,65.73C368.11,65.55 366.67,65.25 365.58,64.97C364.74,64.75 364.06,64.49 363.39,64.27C362.81,64.08 362.41,63.98 361.77,63.72C360.76,63.31 359.06,62.52 357.96,61.92C357.06,61.43 356.29,60.91 355.6,60.46C355.05,60.1 354.72,59.9 354.15,59.46C353.27,58.78 351.52,57.24 350.89,56.66C350.62,56.41 350.59,56.38 350.34,56.11C349.76,55.48 348.22,53.73 347.54,52.85C347.1,52.28 346.9,51.95 346.54,51.4C346.09,50.71 345.57,49.94 345.08,49.04C344.48,47.94 343.69,46.24 343.28,45.23C343.02,44.59 342.92,44.19 342.73,43.61C342.51,42.94 342.25,42.26 342.03,41.42C341.75,40.33 341.45,38.89 341.27,37.62C341.1,36.36 340.99,35.08 340.98,33.81Q340.97,32.54 341.18,30" style="stroke-miterlimit: 1; vector-effect: non-scaling-stroke; fill: none; stroke: rgb(180, 134, 64); stroke-opacity: 1; stroke-width: 2px;"/></g><g class="contourlevel"><path class="openline" d="M0,377.2Q2.55,377.41 3.81,377.64C5.09,377.88 6.35,378.19 7.62,378.61C8.95,379.05 10.32,379.63 11.6,380.25C12.86,380.86 14.15,381.61 15.23,382.31C16.16,382.91 17.05,383.61 17.74,384.15C18.25,384.55 18.54,384.78 19.04,385.24C19.79,385.93 21.07,387.21 21.76,387.96C22.22,388.46 22.45,388.75 22.85,389.26C23.39,389.95 24.09,390.84 24.69,391.77C25.39,392.85 26.14,394.14 26.75,395.4C27.37,396.68 27.95,398.05 28.39,399.38C28.81,400.65 29.12,401.91 29.36,403.19Q29.59,404.45 29.8,407" style="stroke-miterlimit: 1; vector-effect: non-scaling-stroke; fill: none; stroke: rgb(188, 147, 69); stroke-opacity: 1; stroke-width: 2px;"/><path class="openline" d="M377,59.8Q374.45,59.59 373.19,59.36C371.91,59.12 370.65,58.81 369.38,58.39C368.05,57.95 366.68,57.37 365.4,56.75C364.14,56.14 362.85,55.39 361.77,54.69C360.84,54.09 359.95,53.39 359.26,52.85C358.75,52.45 358.46,52.22 357.96,51.76C357.21,51.07 355.93,49.79 355.24,49.04C354.78,48.54 354.55,48.25 354.15,47.74C353.61,47.05 352.91,46.16 352.31,45.23C351.61,44.15 350.86,42.86 350.25,41.6C349.63,40.32 349.05,38.95 348.61,37.62C348.19,36.35 347.88,35.09 347.64,33.81Q347.41,32.55 347.2,30" style="stroke-miterlimit: 1; vector-effect: non-scaling-stroke; fill: none; stroke: rgb(188, 147, 69); stroke-opacity: 1; stroke-width: 2px;"/></g><g class="contourlevel"><path class="openline" d="M0,382.64Q2.93,383.4 3.81,383.7C4.29,383.87 4.46,383.96 4.91,384.15C5.61,384.45 6.65,384.84 7.62,385.35C8.84,386 10.34,386.91 11.605,387.825C12.88,388.74 14.43,390.11 15.23,390.84C15.65,391.23 15.77,391.35 16.16,391.77C16.89,392.57 18.26,394.12 19.174999999999997,395.395C20.09,396.66 21,398.16 21.65,399.38C22.16,400.35 22.55,401.39 22.85,402.09C23.04,402.54 23.13,402.71 23.3,403.19Q23.6,404.07 24.36,407" style="stroke-miterlimit: 1; vector-effect: non-scaling-stroke; fill: none; stroke: rgb(195, 161, 78); stroke-opacity: 1; stroke-width: 2px;"/><path class="openline" d="M377,54.36Q374.07,53.6 373.19,53.3C372.71,53.13 372.54,53.04 372.09,52.85C371.39,52.55 370.35,52.16 369.38,51.65C368.16,51 366.66,50.09 365.395,49.175C364.12,48.26 362.57,46.89 361.77,46.16C361.35,45.77 361.23,45.65 360.84,45.23C360.11,44.43 358.74,42.88 357.825,41.605000000000004C356.91,40.34 356,38.84 355.35,37.62C354.84,36.65 354.45,35.61 354.15,34.91C353.96,34.46 353.87,34.29 353.7,33.81Q353.4,32.93 352.64,30" style="stroke-miterlimit: 1; vector-effect: non-scaling-stroke; fill: none; stroke: rgb(195, 161, 78); stroke-opacity: 1; stroke-width: 2px;"/></g><g class="contourlevel"><path class="openline" d="M0,387.61Q0.49,387.8 0.86,387.96C1.55,388.25 2.78,388.69 3.81,389.23C5.05,389.88 6.49,390.77 7.745,391.67499999999995C9.02,392.6 10.64,394.03 11.42,394.74C11.81,395.1 11.9,395.19 12.26,395.58C12.97,396.36 14.4,397.98 15.325,399.255C16.23,400.51 17.12,401.95 17.77,403.19C18.31,404.22 18.75,405.45 19.04,406.14Q19.2,406.51 19.39,407" style="stroke-miterlimit: 1; vector-effect: non-scaling-stroke; fill: none; stroke: rgb(202, 174, 89); stroke-opacity: 1; stroke-width: 2px;"/><path class="openline" d="M377,49.39Q376.51,49.2 376.14,49.04C375.45,48.75 374.22,48.31 373.19,47.77C371.95,47.12 370.51,46.23 369.255,45.325C367.98,44.4 366.36,42.97 365.58,42.26C365.19,41.9 365.1,41.81 364.74,41.42C364.03,40.64 362.6,39.02 361.67499999999995,37.745C360.77,36.49 359.88,35.05 359.23,33.81C358.69,32.78 358.25,31.55 357.96,30.86Q357.8,30.49 357.61,30" style="stroke-miterlimit: 1; vector-effect: non-scaling-stroke; fill: none; stroke: rgb(202, 174, 89); stroke-opacity: 1; stroke-width: 2px;"/></g><g class="contourlevel"><path class="openline" d="M0,392.14Q2.81,393.68 3.81,394.33C4.5,394.78 4.91,395.12 5.5,395.58C6.17,396.11 6.93,396.72 7.62,397.35C8.32,397.99 9.01,398.68 9.65,399.38C10.28,400.07 10.89,400.83 11.42,401.5C11.88,402.09 12.22,402.5 12.67,403.19Q13.32,404.19 14.86,407" style="stroke-miterlimit: 1; vector-effect: non-scaling-stroke; fill: none; stroke: rgb(207, 188, 102); stroke-opacity: 1; stroke-width: 2px;"/><path class="openline" d="M377,44.86Q374.19,43.32 373.19,42.67C372.5,42.22 372.09,41.88 371.5,41.42C370.83,40.89 370.07,40.28 369.38,39.65C368.68,39.01 367.99,38.32 367.35,37.62C366.72,36.93 366.11,36.17 365.58,35.5C365.12,34.91 364.78,34.5 364.33,33.81Q363.68,32.81 362.14,30" style="stroke-miterlimit: 1; vector-effect: non-scaling-stroke; fill: none; stroke: rgb(207, 188, 102); stroke-opacity: 1; stroke-width: 2px;"/></g><g class="contourlevel"><path class="openline" d="M0,396.29Q2.72,398.13 3.995,399.22C5.32,400.36 6.64,401.68 7.78,403.005Q8.87,404.28 10.71,407" style="stroke-miterlimit: 1; vector-effect: non-scaling-stroke; fill: none; stroke: rgb(213, 202, 118); stroke-opacity: 1; stroke-width: 2px;"/><path class="openline" d="M377,40.71Q374.28,38.87 373.005,37.78C371.68,36.64 370.36,35.32 369.22,33.995000000000005Q368.13,32.72 366.29,30" style="stroke-miterlimit: 1; vector-effect: non-scaling-stroke; fill: none; stroke: rgb(213, 202, 118); stroke-opacity: 1; stroke-width: 2px;"/></g><g class="contourlevel"><path class="openline" d="M0,400.13Q2.53,402.18 3.675,403.325Q4.82,404.47 6.87,407" style="stroke-miterlimit: 1; vector-effect: non-scaling-stroke; fill: none; stroke: rgb(219, 216, 134); stroke-opacity: 1; stroke-width: 2px;"/><path class="openline" d="M377,36.87Q374.47,34.82 373.325,33.675Q372.18,32.53 370.13,30" style="stroke-miterlimit: 1; vector-effect: non-scaling-stroke; fill: none; stroke: rgb(219, 216, 134); stroke-opacity: 1; stroke-width: 2px;"/></g><g class="contourlevel"><path class="openline" d="M0,403.68L3.32,407" style="stroke-miterlimit: 1; vector-effect: non-scaling-stroke; fill: none; stroke: rgb(225, 231, 152); stroke-opacity: 1; stroke-width: 2px;"/><path class="openline" d="M377,33.32L373.68,30" style="stroke-miterlimit: 1; vector-effect: non-scaling-stroke; fill: none; stroke: rgb(225, 231, 152); stroke-opacity: 1; stroke-width: 2px;"/></g><g class="contourlevel"/></g></g></g></g><g class="overplot"/><path class="xlines-above crisp" d="" style="fill: none; stroke-width: 1px; stroke: rgb(0, 0, 0); stroke-opacity: 0;"/><path class="ylines-above crisp" d="" style="fill: none; stroke-width: 1px; stroke: rgb(0, 0, 0); stroke-opacity: 0;"/><g class="overlines-above"/><g class="xaxislayer-above"><path class="xtick ticks crisp" d="M0,478v5" transform="translate(90.83,0)" style="stroke: rgb(51, 51, 51); stroke-opacity: 1; stroke-width: 1px;"/><path class="xtick ticks crisp" d="M0,478v5" transform="translate(174.61,0)" style="stroke: rgb(51, 51, 51); stroke-opacity: 1; stroke-width: 1px;"/><path class="xtick ticks crisp" d="M0,478v5" transform="translate(258.39,0)" style="stroke: rgb(51, 51, 51); stroke-opacity: 1; stroke-width: 1px;"/><path class="xtick ticks crisp" d="M0,478v5" transform="translate(342.17,0)" style="stroke: rgb(51, 51, 51); stroke-opacity: 1; stroke-width: 1px;"/><g class="xtick"><text text-anchor="middle" x="0" y="497.4" transform="translate(90.83,0)" style="font-family: 'Open Sans', verdana, arial, sans-serif; font-size: 12px; fill: rgb(51, 51, 51); fill-opacity: 1; white-space: pre; opacity: 1;">0.2</text></g><g class="xtick"><text text-anchor="middle" x="0" y="497.4" style="font-family: 'Open Sans', verdana, arial, sans-serif; font-size: 12px; fill: rgb(51, 51, 51); fill-opacity: 1; white-space: pre; opacity: 1;" transform="translate(174.61,0)">0.4</text></g><g class="xtick"><text text-anchor="middle" x="0" y="497.4" style="font-family: 'Open Sans', verdana, arial, sans-serif; font-size: 12px; fill: rgb(51, 51, 51); fill-opacity: 1; white-space: pre; opacity: 1;" transform="translate(258.39,0)">0.6</text></g><g class="xtick"><text text-anchor="middle" x="0" y="497.4" style="font-family: 'Open Sans', verdana, arial, sans-serif; font-size: 12px; fill: rgb(51, 51, 51); fill-opacity: 1; white-space: pre; opacity: 1;" transform="translate(342.17,0)">0.8</text></g></g><g class="yaxislayer-above"><path class="ytick ticks crisp" d="M27,0h-5" transform="translate(0,467.94)" style="stroke: rgb(51, 51, 51); stroke-opacity: 1; stroke-width: 1px;"/><path class="ytick ticks crisp" d="M27,0h-5" transform="translate(0,384.17)" style="stroke: rgb(51, 51, 51); stroke-opacity: 1; stroke-width: 1px;"/><path class="ytick ticks crisp" d="M27,0h-5" transform="translate(0,300.39)" style="stroke: rgb(51, 51, 51); stroke-opacity: 1; stroke-width: 1px;"/><path class="ytick ticks crisp" d="M27,0h-5" transform="translate(0,216.61)" style="stroke: rgb(51, 51, 51); stroke-opacity: 1; stroke-width: 1px;"/><path class="ytick ticks crisp" d="M27,0h-5" transform="translate(0,132.82999999999998)" style="stroke: rgb(51, 51, 51); stroke-opacity: 1; stroke-width: 1px;"/><path class="ytick ticks crisp" d="M27,0h-5" transform="translate(0,49.06)" style="stroke: rgb(51, 51, 51); stroke-opacity: 1; stroke-width: 1px;"/><g class="ytick"><text text-anchor="end" x="19.6" y="4.199999999999999" transform="translate(0,467.94)" style="font-family: 'Open Sans', verdana, arial, sans-serif; font-size: 12px; fill: rgb(51, 51, 51); fill-opacity: 1; white-space: pre; opacity: 1;">0</text></g><g class="ytick"><text text-anchor="end" x="19.6" y="4.199999999999999" style="font-family: 'Open Sans', verdana, arial, sans-serif; font-size: 12px; fill: rgb(51, 51, 51); fill-opacity: 1; white-space: pre; opacity: 1;" transform="translate(0,384.17)">0.2</text></g><g class="ytick"><text text-anchor="end" x="19.6" y="4.199999999999999" style="font-family: 'Open Sans', verdana, arial, sans-serif; font-size: 12px; fill: rgb(51, 51, 51); fill-opacity: 1; white-space: pre; opacity: 1;" transform="translate(0,300.39)">0.4</text></g><g class="ytick"><text text-anchor="end" x="19.6" y="4.199999999999999" style="font-family: 'Open Sans', verdana, arial, sans-serif; font-size: 12px; fill: rgb(51, 51, 51); fill-opacity: 1; white-space: pre; opacity: 1;" transform="translate(0,216.61)">0.6</text></g><g class="ytick"><text text-anchor="end" x="19.6" y="4.199999999999999" style="font-family: 'Open Sans', verdana, arial, sans-serif; font-size: 12px; fill: rgb(51, 51, 51); fill-opacity: 1; white-space: pre; opacity: 1;" transform="translate(0,132.82999999999998)">0.8</text></g><g class="ytick"><text text-anchor="end" x="19.6" y="4.199999999999999" style="font-family: 'Open Sans', verdana, arial, sans-serif; font-size: 12px; fill: rgb(51, 51, 51); fill-opacity: 1; white-space: pre; opacity: 1;" transform="translate(0,49.06)">1</text></g></g><g class="overaxes-above"/></g></g><g class="polarlayer"/><g class="ternarylayer"/><g class="geolayer"/><g class="funnelarealayer"/><g class="pielayer"/><g class="iciclelayer"/><g class="treemaplayer"/><g class="sunburstlayer"/><g class="glimages"/><defs id="topdefs-d5a38b"><g class="clips"/></defs><g class="layer-above"><g class="imagelayer"/><g class="shapelayer"/></g><g class="infolayer"><g class="cb8f02ac colorbar" transform="translate(28,40)"><rect class="cbbg" x="385" y="0" width="87.03125" height="437" style="fill: rgb(0, 0, 0); fill-opacity: 0; stroke: rgb(68, 68, 68); stroke-opacity: 1; stroke-width: 0;"/><g class="cbfills" transform="translate(0,10)"/><g class="cblines" transform="translate(0,10)"><path class="cbline" d="M395,417h30" style="fill: none; stroke: rgb(34, 30, 27); stroke-opacity: 1; stroke-width: 2px;"/><path class="cbline" d="M395,396h30" style="fill: none; stroke: rgb(47, 38, 33); stroke-opacity: 1; stroke-width: 2px;"/><path class="cbline" d="M395,375h30" style="fill: none; stroke: rgb(59, 46, 38); stroke-opacity: 1; stroke-width: 2px;"/><path class="cbline" d="M395,354h30" style="fill: none; stroke: rgb(72, 54, 43); stroke-opacity: 1; stroke-width: 2px;"/><path class="cbline" d="M395,334h30" style="fill: none; stroke: rgb(85, 62, 47); stroke-opacity: 1; stroke-width: 2px;"/><path class="cbline" d="M395,313h30" style="fill: none; stroke: rgb(98, 69, 51); stroke-opacity: 1; stroke-width: 2px;"/><path class="cbline" d="M395,292h30" style="fill: none; stroke: rgb(112, 77, 54); stroke-opacity: 1; stroke-width: 2px;"/><path class="cbline" d="M395,271h30" style="fill: none; stroke: rgb(125, 85, 56); stroke-opacity: 1; stroke-width: 2px;"/><path class="cbline" d="M395,250h30" style="fill: none; stroke: rgb(138, 93, 57); stroke-opacity: 1; stroke-width: 2px;"/><path class="cbline" d="M395,229h30" style="fill: none; stroke: rgb(150, 102, 58); stroke-opacity: 1; stroke-width: 2px;"/><path class="cbline" d="M395,209h30" style="fill: none; stroke: rgb(161, 112, 59); stroke-opacity: 1; stroke-width: 2px;"/><path class="cbline" d="M395,188h30" style="fill: none; stroke: rgb(171, 122, 60); stroke-opacity: 1; stroke-width: 2px;"/><path class="cbline" d="M395,167h30" style="fill: none; stroke: rgb(180, 134, 64); stroke-opacity: 1; stroke-width: 2px;"/><path class="cbline" d="M395,146h30" style="fill: none; stroke: rgb(188, 147, 69); stroke-opacity: 1; stroke-width: 2px;"/><path class="cbline" d="M395,125h30" style="fill: none; stroke: rgb(195, 161, 78); stroke-opacity: 1; stroke-width: 2px;"/><path class="cbline" d="M395,104h30" style="fill: none; stroke: rgb(202, 174, 89); stroke-opacity: 1; stroke-width: 2px;"/><path class="cbline" d="M395,83h30" style="fill: none; stroke: rgb(207, 188, 102); stroke-opacity: 1; stroke-width: 2px;"/><path class="cbline" d="M395,63h30" style="fill: none; stroke: rgb(213, 202, 118); stroke-opacity: 1; stroke-width: 2px;"/><path class="cbline" d="M395,42h30" style="fill: none; stroke: rgb(219, 216, 134); stroke-opacity: 1; stroke-width: 2px;"/><path class="cbline" d="M395,21h30" style="fill: none; stroke: rgb(225, 231, 152); stroke-opacity: 1; stroke-width: 2px;"/><path class="cbline" d="M395,0h30" style="fill: none; stroke: rgb(232, 245, 171); stroke-opacity: 1; stroke-width: 2px;"/></g><g class="cbaxis crisp" transform="translate(0,-40)"><path class="ycb8f02actick ticks crisp" d="M424.5,0h-6" transform="translate(0,362.75)" style="stroke: rgb(237, 237, 237); stroke-opacity: 1; stroke-width: 1px;"/><path class="ycb8f02actick ticks crisp" d="M424.5,0h-6" transform="translate(0,258.5)" style="stroke: rgb(237, 237, 237); stroke-opacity: 1; stroke-width: 1px;"/><path class="ycb8f02actick ticks crisp" d="M424.5,0h-6" transform="translate(0,154.25)" style="stroke: rgb(237, 237, 237); stroke-opacity: 1; stroke-width: 1px;"/><g class="ycb8f02actick"><text text-anchor="start" x="427.9" y="4.199999999999999" transform="translate(0,467)" style="font-family: 'Open Sans', verdana, arial, sans-serif; font-size: 12px; fill: rgb(51, 51, 51); fill-opacity: 1; white-space: pre; opacity: 1;">0</text></g><g class="ycb8f02actick"><text text-anchor="start" x="427.9" y="4.199999999999999" style="font-family: 'Open Sans', verdana, arial, sans-serif; font-size: 12px; fill: rgb(51, 51, 51); fill-opacity: 1; white-space: pre; opacity: 1;" transform="translate(0,362.75)">1.07</text></g><g class="ycb8f02actick"><text text-anchor="start" x="427.9" y="4.199999999999999" style="font-family: 'Open Sans', verdana, arial, sans-serif; font-size: 12px; fill: rgb(51, 51, 51); fill-opacity: 1; white-space: pre; opacity: 1;" transform="translate(0,258.5)">2.13</text></g><g class="ycb8f02actick"><text text-anchor="start" x="427.9" y="4.199999999999999" style="font-family: 'Open Sans', verdana, arial, sans-serif; font-size: 12px; fill: rgb(51, 51, 51); fill-opacity: 1; white-space: pre; opacity: 1;" transform="translate(0,154.25)">3.2</text></g><g class="ycb8f02actick"><text text-anchor="start" x="427.9" y="4.199999999999999" style="font-family: 'Open Sans', verdana, arial, sans-serif; font-size: 12px; fill: rgb(51, 51, 51); fill-opacity: 1; white-space: pre; opacity: 1;" transform="translate(0,50.000000000000014)">4.27</text></g></g><g class="cbtitleunshift" transform="translate(-28,-40)"><g class="cbtitle"/></g><rect class="cboutline" x="395" y="10" width="30" height="417" style="stroke: rgb(68, 68, 68); stroke-opacity: 1; fill: none; stroke-width: 0;"/></g><g class="g-gtitle"><text class="gtitle" x="250" y="20" text-anchor="middle" dy="0em" style="font-family: 'Open Sans', verdana, arial, sans-serif; font-size: 17px; fill: rgb(51, 51, 51); opacity: 1; font-weight: normal; white-space: pre;">Gaussian copula</text></g><g class="g-xtitle"/><g class="g-ytitle"/></g></svg>