<svg class="main-svg" xmlns="http://www.w3.org/2000/svg" xmlns:xlink="http://www.w3.org/1999/xlink" width="1500" height="1500" style="" viewBox="0 0 500 500"><rect x="0" y="0" width="500" height="500" style="fill: rgb(255, 255, 255); fill-opacity: 1;"/><defs id="defs-d6c083"><g class="clips"><clipPath id="clipd6c083xyplot" class="plotclip"><rect width="377" height="437"/></clipPath><clipPath class="axesclip" id="clipd6c083x"><rect x="28" y="0" width="377" height="500"/></clipPath><clipPath class="axesclip" id="clipd6c083y"><rect x="0" y="40" width="500" height="437"/></clipPath><clipPath class="axesclip" id="clipd6c083xy"><rect x="28" y="40" width="377" height="437"/></clipPath><clipPath class="contourclip" id="clipc68e01"><path d="M0,0L377,0L377,437L0,437Z"/></clipPath></g><g class="gradients"/><g class="patterns"/></defs><g class="bglayer"><rect class="bg" x="28" y="40" width="377" height="437" style="fill: rgb(237, 237, 237); fill-opacity: 1; stroke-width: 0;"/></g><g class="layer-below"><g class="imagelayer"/><g class="shapelayer"/></g><g class="cartesianlayer"><g class="subplot xy"><g class="layer-subplot"><g class="shapelayer"/><g class="imagelayer"/></g><g class="gridlayer"><g class="x"><path class="xgrid crisp" transform="translate(90.83,0)" d="M0,40v437" style="stroke: rgb(255, 255, 255); stroke-opacity: 1; stroke-width: 1px;"/><path class="xgrid crisp" transform="translate(174.61,0)" d="M0,40v437" style="stroke: rgb(255, 255, 255); stroke-opacity: 1; stroke-width: 1px;"/><path class="xgrid crisp" transform="translate(258.39,0)" d="M0,40v437" style="stroke: rgb(255, 255, 255); stroke-opacity: 1; stroke-width: 1px;"/><path class="xgrid crisp" transform="translate(342.17,0)" d="M0,40v437" style="stroke: rgb(255, 255, 255); stroke-opacity: 1; stroke-width: 1px;"/></g><g class="y"><path class="ygrid crisp" transform="translate(0,452.72)" d="M28,0h377" style="stroke: rgb(255, 255, 255); stroke-opacity: 1; stroke-width: 1px;"/><path class="ygrid crisp" transform="translate(0,404.17)" d="M28,0h377" style="stroke: rgb(255, 255, 255); stroke-opacity: 1; stroke-width: 1px;"/><path class="ygrid crisp" transform="translate(0,355.61)" d="M28,0h377" style="stroke: rgb(255, 255, 255); stroke-opacity: 1; stroke-width: 1px;"/><path class="ygrid crisp" transform="translate(0,307.06)" d="M28,0h377" style="stroke: rgb(255, 255, 255); stroke-opacity: 1; stroke-width: 1px;"/><path class="ygrid crisp" transform="translate(0,258.5)" d="M28,0h377" style="stroke: rgb(255, 255, 255); stroke-opacity: 1; stroke-width: 1px;"/><path class="ygrid crisp" transform="translate(0,209.94)" d="M28,0h377" style="stroke: rgb(255, 255, 255); stroke-opacity: 1; stroke-width: 1px;"/><path class="ygrid crisp" transform="translate(0,161.39)" d="M28,0h377" style="stroke: rgb(255, 255, 255); stroke-opacity: 1; stroke-width: 1px;"/><path class="ygrid crisp" transform="translate(0,112.83)" d="M28,0h377" style="stroke: rgb(255, 255, 255); stroke-opacity: 1; stroke-width: 1px;"/><path class="ygrid crisp" transform="translate(0,64.28)" d="M28,0h377" style="stroke: rgb(255, 255, 255); stroke-opacity: 1; stroke-width: 1px;"/></g></g><g class="zerolinelayer"/><path class="xlines-below"/><path class="ylines-below"/><g class="overlines-below"/><g class="xaxislayer-below"/><g class="yaxislayer-below"/><g class="overaxes-below"/><g class="plot" transform="translate(28,40)" clip-path="url(#clipd6c083xyplot)"><g class="contourlayer mlayer"><g class="contour" clip-path="url(#clipc68e01)" style="opacity: 1;"><g class="heatmapcoloring"/><g class="contourbg"/><g class="contourfill"/><g class="contourlines"><g class="contourlevel"/><g class="contourlevel"><path class="openline" d="M0,306.06Q0.2,305.21 0.35,304.58C0.6,303.5 1.02,301.63 1.37,300.16C1.71,298.69 2.07,297.22 2.42,295.75C2.78,294.28 3.25,292.36 3.5,291.33C3.64,290.77 3.68,290.56 3.81,290.04C4.01,289.23 4.31,288.05 4.59,286.92C4.93,285.58 5.32,283.98 5.69,282.51C6.06,281.04 6.47,279.43 6.82,278.09C7.11,276.98 7.41,275.84 7.62,275.03C7.76,274.49 7.83,274.26 7.98,273.68C8.26,272.63 8.76,270.73 9.15,269.26C9.54,267.79 9.95,266.3 10.34,264.85C10.72,263.44 11.09,262.09 11.485,260.65999999999997C11.9,259.15 12.35,257.55 12.78,256.02C13.2,254.53 13.61,253.07 14.03,251.61C14.44,250.17 14.84,248.77 15.265,247.315C15.7,245.82 16.15,244.28 16.59,242.78C17.03,241.3 17.48,239.77 17.9,238.36C18.29,237.05 18.81,235.32 19.04,234.59C19.13,234.29 19.14,234.26 19.24,233.95C19.49,233.14 20.14,231.01 20.59,229.54C21.05,228.07 21.56,226.43 21.97,225.12C22.3,224.08 22.6,223.12 22.85,222.31C23.04,221.7 23.15,221.38 23.36,220.71C23.71,219.6 24.3,217.76 24.78,216.29C25.26,214.82 25.88,212.92 26.22,211.88C26.41,211.31 26.48,211.09 26.66,210.55C26.93,209.73 27.32,208.58 27.69,207.46C28.14,206.12 28.69,204.46 29.17,203.05C29.61,201.74 30.2,200 30.46,199.27C30.57,198.97 30.58,198.95 30.69,198.64C30.98,197.83 31.71,195.69 32.22,194.22C32.74,192.75 33.41,190.87 33.78,189.81C33.99,189.22 34.07,188.97 34.27,188.42C34.56,187.6 34.97,186.49 35.37,185.39C35.86,184.06 36.49,182.3 36.98,180.98C37.38,179.89 37.77,178.82 38.08,178.01C38.29,177.44 38.4,177.18 38.63,176.57C39.04,175.5 39.74,173.61 40.3,172.15C40.85,170.72 41.39,169.33 41.95,167.89C42.53,166.39 43.13,164.85 43.74,163.32C44.35,161.78 45,160.19 45.61,158.685C46.19,157.25 46.74,155.9 47.32,154.49C47.92,153.04 48.8,150.96 49.17,150.08C49.33,149.71 49.36,149.64 49.51,149.28C49.84,148.51 50.51,146.93 51.06,145.67C51.67,144.27 52.62,142.11 52.99,141.25C53.14,140.9 53.16,140.85 53.31,140.51C53.64,139.75 54.37,138.13 54.96,136.84C55.61,135.4 56.36,133.77 57.055,132.27999999999997C57.73,130.83 58.4,129.42 59.07,128.01C59.73,126.62 60.37,125.3 61.065,123.88C61.81,122.36 62.73,120.52 63.4,119.18C63.91,118.18 64.33,117.34 64.74,116.55C65.07,115.9 65.28,115.49 65.66,114.77C66.26,113.62 67.49,111.31 68,110.35C68.25,109.89 68.31,109.77 68.55,109.33C68.99,108.53 69.78,107.07 70.41,105.94C71.05,104.79 71.9,103.27 72.35,102.48C72.59,102.06 72.65,101.96 72.9,101.53C73.44,100.6 74.91,98.09 75.49,97.11C75.78,96.62 75.88,96.47 76.16,96C76.65,95.19 77.52,93.76 78.18,92.7C78.79,91.72 79.46,90.67 79.97,89.86C80.35,89.26 80.55,88.93 80.98,88.28C81.69,87.19 82.86,85.42 83.845,83.97C84.86,82.48 86.33,80.36 86.97,79.45C87.25,79.05 87.31,78.97 87.59,78.59C88.16,77.81 89.48,75.99 90.18,75.04C90.66,74.4 90.93,74.04 91.39,73.43C92.01,72.62 92.89,71.49 93.56,70.63C94.14,69.89 94.63,69.27 95.2,68.56C95.81,67.8 96.48,66.98 97.12,66.21C97.75,65.45 98.38,64.72 99.01,63.98C99.64,63.25 100.26,62.52 100.9,61.8C101.53,61.08 102.16,60.39 102.82,59.67C103.5,58.92 104.25,58.09 104.92,57.38C105.52,56.75 106,56.25 106.63,55.6C107.4,54.81 108.51,53.67 109.21,52.97C109.69,52.49 109.91,52.27 110.43,51.77C111.31,50.92 112.79,49.51 114.03,48.365C115.33,47.17 117.25,45.48 118.05,44.77C118.39,44.47 118.44,44.42 118.77,44.14C119.44,43.57 120.91,42.35 121.86,41.57C122.68,40.9 123.45,40.27 124.14,39.73C124.7,39.29 125.04,39.03 125.67,38.55C126.65,37.8 128.78,36.2 129.47,35.69C129.72,35.5 129.74,35.49 129.99,35.31C130.61,34.86 132.19,33.75 133.28,33C134.33,32.28 135.73,31.34 136.4,30.9C136.71,30.69 136.77,30.66 137.09,30.45C137.85,29.96 139.75,28.76 140.9,28.05C141.84,27.47 142.77,26.9 143.47,26.48C143.96,26.19 144.18,26.06 144.71,25.76C145.63,25.23 147.35,24.26 148.52,23.61C149.52,23.05 150.62,22.44 151.32,22.07C151.74,21.85 151.88,21.78 152.32,21.55C153.18,21.11 154.85,20.25 156.13,19.61C157.42,18.97 158.75,18.32 160.035,17.705C161.29,17.11 162.5,16.56 163.75,16C165.01,15.43 166.42,14.81 167.56,14.31C168.48,13.91 169.35,13.53 170.05,13.24C170.55,13.03 170.81,12.93 171.36,12.71C172.3,12.33 173.9,11.69 175.17,11.19C176.44,10.69 177.86,10.15 178.98,9.72C179.87,9.38 180.67,9.08 181.36,8.83C181.9,8.63 182.2,8.53 182.79,8.32C183.75,7.98 185.33,7.43 186.6,6.99C187.87,6.56 189.13,6.13 190.4,5.71C191.69,5.28 193,4.84 194.28,4.4350000000000005C195.54,4.04 196.77,3.67 198.02,3.29C199.28,2.91 200.56,2.53 201.83,2.16C203.1,1.79 204.38,1.42 205.64,1.06Q206.89,0.7 209.38,0" style="stroke-miterlimit: 1; vector-effect: non-scaling-stroke; fill: none; stroke: rgb(47, 38, 33); stroke-opacity: 1; stroke-width: 2px;"/><path class="openline" d="M377,194.3Q376.4,197.19 376.09,198.64C375.78,200.1 375.46,201.58 375.14,203.05C374.82,204.52 374.49,206 374.16,207.46C373.83,208.91 373.51,210.34 373.16999999999996,211.8C372.82,213.29 372.45,214.8 372.08,216.29C371.71,217.77 371.35,219.24 370.97,220.71C370.59,222.18 370.11,224 369.82,225.12C369.64,225.81 369.55,226.16 369.38,226.78C369.16,227.58 368.9,228.51 368.61,229.54C368.24,230.84 367.78,232.48 367.35,233.95C366.92,235.42 366.37,237.27 366.04,238.36C365.85,239 365.76,239.3 365.58,239.89C365.33,240.7 365,241.72 364.65,242.78C364.22,244.1 363.69,245.73 363.2,247.19C362.72,248.64 362.24,250.05 361.73,251.5C361.2,252.99 360.64,254.52 360.08,256.02C359.53,257.5 358.79,259.43 358.41,260.43C358.21,260.94 358.15,261.11 357.96,261.59C357.64,262.4 357.11,263.68 356.63,264.85C356.07,266.21 355.23,268.19 354.77,269.26C354.51,269.87 354.4,270.14 354.15,270.7C353.79,271.52 353.3,272.59 352.8,273.68C352.19,275.01 351.15,277.21 350.73,278.09C350.55,278.46 350.52,278.53 350.34,278.89C349.96,279.66 349.15,281.29 348.53,282.51C347.89,283.77 346.93,285.6 346.54,286.32C346.39,286.61 346.37,286.63 346.21,286.92C345.77,287.71 344.4,290.19 343.75,291.33C343.34,292.05 343.11,292.45 342.73,293.1C342.26,293.9 341.72,294.8 341.14,295.75C340.47,296.85 339.41,298.54 338.92,299.32C338.68,299.7 338.64,299.77 338.38,300.16C337.77,301.09 336.31,303.32 335.28,304.825C334.3,306.26 333.07,307.97 332.34,308.99C331.91,309.59 331.72,309.85 331.3,310.41C330.69,311.23 329.72,312.51 329.03,313.4C328.47,314.13 328.04,314.69 327.49,315.38C326.88,316.15 326.18,317.03 325.53,317.82C324.91,318.58 324.31,319.31 323.69,320.04C323.07,320.78 322.43,321.5 321.8,322.23C321.16,322.96 320.53,323.69 319.88,324.42C319.22,325.16 318.51,325.94 317.85,326.65C317.24,327.31 316.71,327.88 316.07,328.55C315.33,329.33 314.35,330.34 313.65,331.06C313.12,331.6 312.82,331.92 312.26,332.47C311.44,333.29 309.88,334.81 309.2,335.47C308.87,335.79 308.8,335.86 308.45,336.19C307.66,336.94 305.85,338.64 304.565,339.81C303.32,340.95 301.78,342.31 300.84,343.13C300.28,343.62 300,343.86 299.48,344.3C298.78,344.9 297.88,345.67 297.03,346.38C296.12,347.14 294.88,348.15 294.18,348.72C293.78,349.05 293.65,349.15 293.22,349.49C292.37,350.16 290.22,351.86 289.41,352.49C289.04,352.78 288.95,352.85 288.59,353.13C287.91,353.65 286.6,354.65 285.61,355.39C284.63,356.12 283.37,357.05 282.68,357.55C282.3,357.82 282.2,357.9 281.8,358.18C280.98,358.77 278.98,360.19 277.99,360.89C277.36,361.33 277.01,361.57 276.45,361.96C275.77,362.43 275.05,362.92 274.18,363.51C273.03,364.29 271.44,365.35 270.13,366.21000000000004C268.91,367.02 267.77,367.76 266.57,368.53C265.35,369.31 264.13,370.08 262.88,370.865C261.59,371.67 260.19,372.53 258.95,373.29C257.84,373.97 256.44,374.81 255.78,375.2C255.49,375.38 255.44,375.4 255.14,375.58C254.4,376.02 252.54,377.12 251.33,377.82C250.24,378.46 248.87,379.24 248.21,379.62C247.9,379.8 247.85,379.82 247.53,380C246.78,380.42 244.98,381.45 243.72,382.15C242.5,382.83 241.34,383.46 240.10500000000002,384.135C238.81,384.84 237.43,385.59 236.1,386.3C234.78,387 233.45,387.7 232.16,388.375C230.91,389.03 229.72,389.65 228.48,390.29C227.23,390.94 225.6,391.75 224.68,392.22C224.15,392.49 223.92,392.61 223.43,392.86C222.73,393.21 221.81,393.67 220.87,394.13C219.73,394.69 218.21,395.44 217.06,396C216.11,396.47 215.15,396.93 214.45,397.27C213.97,397.5 213.76,397.6 213.25,397.84C212.34,398.27 210.71,399.05 209.44,399.65C208.17,400.25 206.34,401.1 205.64,401.43C205.37,401.56 205.35,401.57 205.09,401.69C204.46,401.98 202.96,402.67 201.83,403.19C200.61,403.75 199.18,404.39 198.02,404.91C197.05,405.34 196.06,405.79 195.36,406.1C194.9,406.3 194.7,406.38 194.21,406.6C193.31,406.99 191.67,407.73 190.4,408.28C189.13,408.83 187.55,409.51 186.6,409.92C186.02,410.17 185.74,410.29 185.21,410.52C184.51,410.82 183.69,411.16 182.79,411.54C181.66,412.01 180.25,412.6 178.98,413.13C177.71,413.66 175.87,414.41 175.17,414.7C174.9,414.81 174.88,414.82 174.62,414.93C173.99,415.19 172.49,415.8 171.36,416.25C170.14,416.74 168.84,417.27 167.56,417.77C166.27,418.28 164.93,418.8 163.64499999999998,419.29999999999995C162.39,419.79 161.18,420.26 159.94,420.74C158.68,421.22 157.42,421.71 156.13,422.19C154.81,422.69 153.43,423.2 152.125,423.685C150.89,424.14 149.74,424.57 148.52,425.02C147.27,425.48 145.98,425.94 144.71,426.4C143.44,426.85 141.81,427.43 140.9,427.75C140.4,427.93 140.2,428 139.73,428.17C139.03,428.42 138.05,428.76 137.09,429.09C135.94,429.49 134.55,429.97 133.28,430.4C132.01,430.83 130.63,431.3 129.47,431.69C128.5,432.02 127.48,432.36 126.78,432.59C126.33,432.74 126.15,432.79 125.67,432.95C124.78,433.24 123.13,433.79 121.86,434.2C120.59,434.61 119.32,435.01 118.05,435.41C116.78,435.81 115.17,436.31 114.24,436.6Q113.7,436.77 112.96,437" style="stroke-miterlimit: 1; vector-effect: non-scaling-stroke; fill: none; stroke: rgb(47, 38, 33); stroke-opacity: 1; stroke-width: 2px;"/></g><g class="contourlevel"><path class="openline" d="M0,346.88Q0.54,345.27 0.87,344.3C1.3,343.03 1.85,341.35 2.34,339.89C2.83,338.43 3.32,336.99 3.83,335.53C4.35,334.05 4.9,332.54 5.43,331.06C5.96,329.58 6.62,327.77 7.02,326.65C7.27,325.96 7.39,325.6 7.62,324.98C7.92,324.18 8.29,323.25 8.68,322.23C9.18,320.93 9.87,319.12 10.37,317.82C10.76,316.79 11.1,315.84 11.42,315.04C11.67,314.42 11.82,314.08 12.1,313.4C12.55,312.29 13.32,310.36 13.87,308.99C14.35,307.79 14.89,306.41 15.23,305.61C15.42,305.17 15.48,305.04 15.68,304.58C16.09,303.62 16.95,301.55 17.54,300.16C18.07,298.91 18.7,297.38 19.04,296.6C19.21,296.22 19.25,296.14 19.43,295.75C19.83,294.85 20.77,292.7 21.37,291.33C21.9,290.13 22.49,288.75 22.85,287.95C23.05,287.51 23.12,287.38 23.33,286.92C23.77,285.96 24.75,283.83 25.35,282.51C25.84,281.44 26.28,280.42 26.66,279.61C26.93,279.02 27.09,278.73 27.39,278.09C27.91,277 28.91,274.89 29.47,273.68C29.86,272.84 30.11,272.25 30.46,271.53C30.82,270.78 31.16,270.14 31.59,269.26C32.19,268.03 33.25,265.84 33.73,264.85C33.97,264.35 34.04,264.19 34.27,263.71C34.67,262.9 35.33,261.6 35.92,260.43C36.6,259.08 37.36,257.52 38.099999999999994,256.06C38.85,254.58 39.7,252.95 40.38,251.61C40.94,250.52 41.47,249.44 41.89,248.63C42.18,248.06 42.33,247.8 42.65,247.19C43.21,246.12 44.4,243.85 44.96,242.78C45.28,242.17 45.4,241.91 45.7,241.35C46.13,240.53 46.72,239.45 47.3,238.36C47.99,237.06 48.81,235.53 49.584999999999994,234.08999999999997C50.39,232.6 51.38,230.81 52.06,229.54C52.55,228.64 52.9,227.96 53.31,227.21C53.7,226.49 54.02,225.95 54.48,225.12C55.17,223.89 56.19,222.03 57.025,220.53C57.83,219.09 58.7,217.55 59.41,216.29C59.97,215.28 60.48,214.37 60.93,213.57C61.29,212.94 61.5,212.58 61.91,211.88C62.58,210.71 63.71,208.7 64.58500000000001,207.19C65.41,205.77 66.27,204.28 66.99,203.05C67.57,202.06 68.08,201.16 68.55,200.36C68.92,199.72 69.15,199.35 69.57,198.64C70.25,197.48 71.38,195.56 72.265,194.07C73.13,192.62 74.11,191.01 74.82,189.81C75.34,188.94 75.71,188.28 76.16,187.54C76.6,186.81 76.97,186.23 77.48,185.39C78.2,184.21 79.18,182.58 80.065,181.135C80.98,179.64 82.2,177.67 82.88,176.57C83.26,175.95 83.42,175.67 83.78,175.1C84.28,174.29 85,173.15 85.63,172.15C86.27,171.12 87.08,169.84 87.59,169.03C87.92,168.51 88.05,168.3 88.41,167.74C89.08,166.69 90.35,164.68 91.305,163.185C92.23,161.74 93.35,160.02 94.07,158.91C94.53,158.2 94.78,157.8 95.2,157.15C95.72,156.35 96.34,155.41 96.95,154.49C97.61,153.49 98.47,152.18 99.01,151.37C99.36,150.85 99.5,150.64 99.87,150.08C100.56,149.05 101.84,147.15 102.83,145.68C103.83,144.2 105.17,142.24 105.85,141.25C106.19,140.75 106.3,140.59 106.63,140.11C107.19,139.3 108.22,137.82 108.9,136.84C109.46,136.03 109.91,135.37 110.43,134.64C110.95,133.9 111.44,133.22 112.01,132.42C112.69,131.47 113.66,130.1 114.24,129.29C114.62,128.77 114.77,128.56 115.17,128.01C115.89,127.02 117.16,125.27 118.22,123.83C119.35,122.29 120.61,120.61 121.77000000000001,119.06C122.88,117.59 124.36,115.64 125.03,114.77C125.32,114.39 125.38,114.32 125.67,113.95C126.27,113.17 127.77,111.24 128.47,110.35C128.89,109.82 129.06,109.6 129.47,109.08C130.12,108.27 131.28,106.81 131.98,105.94C132.48,105.31 132.78,104.94 133.28,104.33C133.94,103.52 134.89,102.36 135.58,101.53C136.13,100.86 136.54,100.38 137.09,99.72C137.75,98.93 138.61,97.91 139.29,97.11C139.87,96.43 140.32,95.9 140.9,95.23C141.57,94.45 142.42,93.47 143.1,92.7C143.68,92.04 144.12,91.54 144.71,90.88C145.41,90.09 146.33,89.04 147.02,88.28C147.57,87.67 147.95,87.27 148.52,86.65C149.26,85.85 150.37,84.62 151.07,83.87C151.56,83.35 151.81,83.08 152.32,82.55C153.1,81.73 154.58,80.17 155.27,79.45C155.64,79.07 155.74,78.96 156.13,78.57C156.92,77.76 158.51,76.13 159.775,74.88C161.11,73.55 162.59,72.1 163.935,70.81C165.18,69.61 166.67,68.22 167.56,67.38C168.08,66.89 168.31,66.66 168.8,66.21C169.5,65.56 170.53,64.64 171.36,63.89C172.15,63.17 173,62.41 173.69,61.8C174.24,61.32 174.56,61.04 175.17,60.51C176.13,59.68 177.63,58.37 178.89,57.305C180.17,56.23 181.83,54.88 182.79,54.08C183.35,53.61 183.61,53.39 184.13,52.97C184.83,52.41 185.73,51.71 186.6,51.02C187.58,50.25 189.08,49.07 189.74,48.56C190.04,48.33 190.09,48.29 190.4,48.05C191.15,47.48 193.25,45.91 194.21,45.19C194.79,44.75 195.08,44.53 195.61,44.14C196.3,43.63 197.12,43.06 198.02,42.42C199.14,41.62 200.55,40.61 201.825,39.724999999999994C203.09,38.85 204.48,37.93 205.64,37.14C206.62,36.48 207.64,35.77 208.34,35.31C208.79,35.02 208.96,34.91 209.44,34.61C210.33,34.04 212.18,32.85 213.25,32.17C214.02,31.68 214.59,31.3 215.24,30.9C215.86,30.52 216.34,30.23 217.06,29.8C218.1,29.17 219.86,28.11 220.87,27.5C221.54,27.09 221.95,26.83 222.54,26.48C223.21,26.09 223.87,25.73 224.68,25.27C225.77,24.65 227.45,23.7 228.48,23.11C229.19,22.7 229.67,22.41 230.29,22.07C230.94,21.71 231.52,21.41 232.29,21C233.36,20.43 234.97,19.56 236.1,18.96C237,18.48 237.82,18.02 238.52,17.66C239.04,17.39 239.33,17.26 239.91,16.97C240.87,16.49 242.46,15.68 243.72,15.05C244.96,14.42 246.16,13.8 247.41500000000002,13.190000000000001C248.7,12.56 250.03,11.95 251.33,11.34C252.61,10.74 254.16,10.01 255.14,9.55C255.76,9.26 256.08,9.09 256.64,8.83C257.32,8.52 258.08,8.2 258.95,7.82C260.06,7.33 261.48,6.7 262.76,6.14C264.04,5.57 265.35,4.98 266.63,4.4399999999999995C267.88,3.91 269.12,3.42 270.37,2.91C271.63,2.39 272.96,1.85 274.18,1.35Q275.32,0.88 277.48,0" style="stroke-miterlimit: 1; vector-effect: non-scaling-stroke; fill: none; stroke: rgb(59, 46, 38); stroke-opacity: 1; stroke-width: 2px;"/><path class="openline" d="M377,115.36Q376.23,117.86 375.83,119.18C375.4,120.6 374.94,122.13 374.49,123.6C374.05,125.05 373.63,126.48 373.16499999999996,127.94C372.7,129.42 372.19,130.93 371.7,132.42C371.22,133.9 370.67,135.55 370.25,136.84C369.92,137.84 369.65,138.73 369.38,139.52C369.16,140.16 369.01,140.54 368.76,141.25C368.36,142.38 367.74,144.19 367.22,145.67C366.69,147.17 366.16,148.72 365.62,150.21C365.09,151.66 364.56,153.05 364.02,154.49C363.47,155.95 362.77,157.8 362.36,158.91C362.11,159.58 362,159.9 361.77,160.51C361.46,161.32 361.06,162.28 360.64,163.32C360.12,164.63 359.37,166.5 358.88,167.74C358.52,168.64 358.27,169.31 357.96,170.06C357.67,170.78 357.42,171.32 357.07,172.15C356.56,173.35 355.73,175.31 355.2,176.57C354.8,177.51 354.49,178.27 354.15,179.04C353.85,179.73 353.62,180.2 353.27,180.98C352.74,182.15 351.83,184.19 351.29,185.39C350.92,186.22 350.67,186.79 350.34,187.51C349.99,188.26 349.67,188.92 349.25,189.81C348.66,191.04 347.63,193.19 347.14,194.22C346.88,194.77 346.79,194.98 346.54,195.5C346.14,196.32 345.53,197.5 344.96,198.64C344.28,199.99 343.49,201.58 342.73,203.05C341.97,204.52 341.09,206.16 340.4,207.46C339.85,208.5 339.36,209.45 338.92,210.25C338.58,210.87 338.39,211.2 338.01,211.88C337.39,212.99 336.02,215.42 335.54,216.29C335.34,216.66 335.31,216.72 335.11,217.07C334.67,217.84 333.65,219.57 332.98,220.71C332.39,221.72 331.78,222.75 331.3,223.56C330.94,224.16 330.75,224.47 330.35,225.12C329.67,226.24 328.49,228.16 327.555,229.64499999999998C326.64,231.1 325.51,232.84 324.8,233.95C324.35,234.65 324.11,235.04 323.69,235.67C323.16,236.47 322.5,237.44 321.88,238.36C321.23,239.33 320.44,240.52 319.88,241.33C319.49,241.9 319.3,242.17 318.87,242.78C318.14,243.82 316.95,245.53 315.91499999999996,246.975C314.8,248.53 313.55,250.25 312.4,251.8C311.32,253.26 309.92,255.1 309.22,256.02C308.88,256.47 308.78,256.59 308.45,257.02C307.83,257.82 306.49,259.53 305.79,260.43C305.33,261.02 305.1,261.31 304.65,261.88C304,262.7 302.95,263.99 302.25,264.85C301.72,265.5 301.37,265.94 300.84,266.58C300.18,267.38 299.28,268.45 298.6,269.26C298.03,269.94 297.6,270.46 297.03,271.13C296.36,271.92 295.52,272.9 294.84,273.68C294.26,274.35 293.81,274.87 293.22,275.54C292.53,276.32 291.65,277.32 290.97,278.09C290.4,278.73 289.99,279.2 289.41,279.84C288.69,280.64 287.69,281.75 286.99,282.51C286.47,283.08 286.15,283.43 285.61,284.01C284.86,284.82 283.6,286.17 282.9,286.92C282.45,287.4 282.26,287.6 281.8,288.09C281.03,288.9 279.37,290.63 278.7,291.33C278.38,291.66 278.32,291.73 277.99,292.07C277.24,292.84 275.56,294.57 274.28499999999997,295.855C272.95,297.2 271.5,298.65 270.175,299.96500000000003C268.94,301.19 267.43,302.66 266.57,303.5C266.09,303.96 265.91,304.14 265.46,304.58C264.76,305.26 263.58,306.38 262.76,307.17C262.07,307.83 261.48,308.39 260.84,308.99C260.21,309.59 259.64,310.12 258.95,310.77C258.1,311.56 256.83,312.75 256.13,313.4C255.72,313.78 255.58,313.91 255.14,314.31C254.28,315.1 252.59,316.65 251.32,317.81C250.06,318.96 248.42,320.43 247.53,321.23C247.05,321.66 246.86,321.83 246.41,322.23C245.71,322.86 244.58,323.86 243.72,324.62C242.92,325.32 242.11,326.05 241.42,326.65C240.87,327.14 240.52,327.43 239.91,327.96C238.95,328.79 237.47,330.08 236.22,331.15999999999997C234.93,332.27 233.2,333.74 232.29,334.52C231.81,334.93 231.63,335.09 231.18,335.47C230.48,336.07 229.37,336.99 228.48,337.74C227.62,338.47 226.64,339.3 225.94,339.89C225.45,340.3 225.22,340.49 224.68,340.93C223.73,341.71 222.03,343.13 220.735,344.19C219.49,345.21 218.08,346.36 217.06,347.19C216.34,347.78 215.84,348.21 215.21,348.72C214.57,349.24 214,349.68 213.25,350.28C212.22,351.11 210.82,352.24 209.575,353.235C208.29,354.26 206.64,355.55 205.64,356.35C205.02,356.84 204.7,357.11 204.15,357.55C203.46,358.09 202.69,358.68 201.83,359.34C200.77,360.17 199.49,361.18 198.255,362.135C196.95,363.15 195.22,364.46 194.21,365.24C193.6,365.71 193.3,365.95 192.75,366.37C192.06,366.9 191.27,367.48 190.4,368.14C189.32,368.96 188,369.97 186.755,370.9C185.46,371.87 183.85,373.04 182.79,373.84C182.07,374.38 181.61,374.74 180.99,375.2C180.34,375.68 179.76,376.08 178.98,376.65C177.89,377.45 176.34,378.59 175.05,379.53C173.8,380.43 172.48,381.37 171.36,382.17C170.43,382.84 169.49,383.53 168.79,384.03C168.31,384.37 168.08,384.52 167.56,384.88C166.64,385.52 164.67,386.91 163.75,387.56C163.22,387.93 163,388.1 162.51,388.44C161.81,388.93 160.88,389.55 159.94,390.19C158.79,390.98 157.38,391.97 156.1,392.83500000000004C154.84,393.69 153.49,394.58 152.32,395.36C151.31,396.04 150.2,396.81 149.5,397.27C149.09,397.54 148.95,397.62 148.52,397.9C147.66,398.45 145.77,399.69 144.71,400.39C143.95,400.89 143.4,401.27 142.75,401.69C142.13,402.09 141.63,402.38 140.9,402.84C139.86,403.49 138.03,404.65 137.09,405.25C136.54,405.6 136.29,405.78 135.78,406.1C135.08,406.54 134.2,407.06 133.28,407.62C132.14,408.31 130.3,409.43 129.47,409.95C129.07,410.2 128.96,410.28 128.58,410.52C127.89,410.94 126.7,411.62 125.67,412.23C124.49,412.93 122.64,414.01 121.86,414.48C121.52,414.69 121.45,414.73 121.12,414.93C120.45,415.32 119.13,416.05 118.05,416.66C116.85,417.34 115.07,418.34 114.24,418.82C113.84,419.05 113.73,419.12 113.35,419.34C112.66,419.73 111.47,420.36 110.43,420.92C109.25,421.56 107.59,422.46 106.63,422.98C106.04,423.3 105.75,423.48 105.22,423.76C104.53,424.13 103.71,424.52 102.82,424.98C101.7,425.56 100.13,426.36 99.01,426.94C98.13,427.4 97.33,427.82 96.64,428.17C96.1,428.44 95.79,428.57 95.2,428.86C94.23,429.33 92.66,430.09 91.39,430.71C90.11,431.33 88.81,431.97 87.535,432.565C86.28,433.15 85.04,433.71 83.78,434.28C82.52,434.85 81.07,435.49 79.97,435.99Q79.13,436.37 77.75,437" style="stroke-miterlimit: 1; vector-effect: non-scaling-stroke; fill: none; stroke: rgb(59, 46, 38); stroke-opacity: 1; stroke-width: 2px;"/></g><g class="contourlevel"><path class="openline" d="M0,366.73Q1.37,363.51 2.03,361.96C2.66,360.49 3.23,359.12 3.87,357.67C4.54,356.17 5.31,354.56 5.97,353.13C6.55,351.86 7.25,350.29 7.62,349.52C7.8,349.15 7.84,349.1 8.03,348.72C8.47,347.84 9.6,345.56 10.22,344.3C10.68,343.36 11.02,342.59 11.42,341.82C11.77,341.13 12.05,340.67 12.47,339.89C13.1,338.72 14.34,336.37 14.8,335.47C15,335.07 15.03,334.99 15.23,334.61C15.65,333.83 16.59,332.22 17.24,331.06C17.86,329.95 18.57,328.58 19.04,327.78C19.32,327.3 19.43,327.15 19.73,326.65C20.32,325.66 21.78,323.16 22.32,322.23C22.57,321.8 22.61,321.7 22.85,321.29C23.32,320.49 24.34,318.91 25.01,317.82C25.6,316.85 26.16,315.87 26.66,315.07C27.05,314.44 27.31,314.09 27.75,313.4C28.46,312.29 29.56,310.51 30.509999999999998,309.06C31.48,307.57 32.83,305.61 33.5,304.58C33.85,304.05 33.94,303.86 34.27,303.36C34.81,302.54 35.82,301.15 36.5,300.16C37.08,299.32 37.55,298.55 38.08,297.8C38.58,297.09 39.02,296.52 39.57,295.75C40.26,294.78 41.31,293.22 41.89,292.42C42.22,291.95 42.34,291.81 42.7,291.33C43.4,290.37 44.73,288.51 45.8,287.05C46.94,285.5 48.19,283.82 49.349999999999994,282.28499999999997C50.44,280.84 51.84,279.02 52.54,278.09C52.89,277.63 52.97,277.49 53.31,277.04C53.92,276.23 55.25,274.59 55.95,273.68C56.42,273.07 56.66,272.72 57.12,272.13C57.75,271.32 58.74,270.13 59.42,269.26C59.98,268.55 60.39,267.99 60.93,267.3C61.54,266.52 62.28,265.66 62.93,264.85C63.55,264.07 64.14,263.29 64.74,262.54C65.32,261.82 65.88,261.17 66.48,260.43C67.14,259.61 67.91,258.62 68.55,257.84C69.09,257.18 69.52,256.7 70.08,256.02C70.77,255.19 71.69,254 72.35,253.2C72.85,252.59 73.19,252.23 73.7,251.61C74.4,250.77 75.48,249.41 76.16,248.6C76.63,248.04 76.89,247.76 77.36,247.19C78.07,246.35 79.29,244.83 79.97,244.02C80.4,243.51 80.6,243.3 81.04,242.78C81.75,241.94 83.1,240.28 83.78,239.47C84.18,239 84.34,238.83 84.74,238.36C85.44,237.53 86.92,235.74 87.59,234.94C87.95,234.51 88.07,234.38 88.44,233.95C89.13,233.14 90.72,231.2 91.39,230.42C91.73,230.03 91.82,229.94 92.16,229.54C92.84,228.74 94.55,226.67 95.2,225.9C95.5,225.54 95.57,225.48 95.87,225.12C96.53,224.34 98.38,222.11 99.01,221.37C99.27,221.06 99.31,221.02 99.58,220.71C100.22,219.96 102.22,217.55 102.82,216.84C103.05,216.57 103.06,216.56 103.29,216.29C103.92,215.55 105.62,213.51 106.805,212.08499999999998C108.03,210.61 109.3,209.09 110.54,207.59C111.79,206.09 113.03,204.59 114.275,203.09C115.52,201.59 116.76,200.08 118,198.575C119.24,197.07 120.5,195.53 121.715,194.04500000000002C122.89,192.61 124.54,190.59 125.17,189.81C125.41,189.51 125.43,189.48 125.67,189.19C126.26,188.46 128.07,186.22 128.74,185.39C129.07,184.98 129.15,184.88 129.47,184.48C130.1,183.69 131.59,181.85 132.29,180.98C132.71,180.46 132.87,180.24 133.28,179.73C133.93,178.92 135.12,177.45 135.82,176.57C136.32,175.94 136.61,175.56 137.09,174.95C137.73,174.14 138.64,173.01 139.32,172.15C139.89,171.43 140.35,170.84 140.9,170.14C141.5,169.37 142.17,168.54 142.8,167.74C143.44,166.93 144.1,166.07 144.71,165.3C145.26,164.61 145.7,164.04 146.27,163.32C146.95,162.45 147.89,161.25 148.52,160.44C148.98,159.85 149.24,159.52 149.71,158.91C150.41,158.01 151.7,156.36 152.32,155.55C152.67,155.1 152.78,154.95 153.14,154.49C153.83,153.61 155.58,151.33 156.13,150.63C156.34,150.36 156.35,150.35 156.56,150.08C157.15,149.32 158.82,147.16 159.95499999999998,145.69C161.09,144.21 162.81,141.98 163.38,141.25C163.56,141.01 163.57,141.01 163.75,140.78C164.28,140.11 166.11,137.71 166.79,136.84C167.13,136.4 167.23,136.29 167.56,135.86C168.18,135.06 169.51,133.33 170.21,132.42C170.67,131.82 170.91,131.52 171.36,130.94C171.99,130.13 172.95,128.89 173.63,128.01C174.19,127.29 174.63,126.73 175.17,126.04C175.77,125.27 176.43,124.41 177.06,123.6C177.7,122.78 178.38,121.92 178.98,121.15C179.52,120.46 179.95,119.9 180.51,119.18C181.19,118.31 182.15,117.11 182.79,116.3C183.25,115.71 183.51,115.38 183.99,114.77C184.69,113.88 185.96,112.3 186.6,111.49C186.98,111.01 187.11,110.84 187.49,110.35C188.18,109.48 189.79,107.47 190.4,106.71C190.68,106.36 190.73,106.3 191.02,105.94C191.67,105.13 193.66,102.67 194.21,102C194.4,101.77 194.4,101.77 194.59,101.53C195.17,100.82 196.92,98.67 198.11,97.225C199.33,95.74 200.59,94.22 201.84500000000003,92.72C203.09,91.22 204.35,89.73 205.61,88.25C206.87,86.77 208.13,85.29 209.4,83.825C210.67,82.35 211.95,80.89 213.23000000000002,79.43C214.51,77.97 215.8,76.53 217.1,75.08500000000001C218.4,73.64 219.72,72.18 221.01,70.785C222.25,69.44 224,67.59 224.68,66.84C224.95,66.54 224.97,66.5 225.24,66.21C225.87,65.53 227.72,63.62 228.48,62.82C228.9,62.38 229.03,62.22 229.44,61.8C230.13,61.08 231.5,59.71 232.29,58.9C232.86,58.31 233.2,57.94 233.75,57.38C234.44,56.69 235.34,55.82 236.1,55.07C236.81,54.36 237.5,53.62 238.17,52.97C238.77,52.38 239.26,51.94 239.91,51.32C240.74,50.52 242.03,49.23 242.73,48.56C243.14,48.17 243.29,48.05 243.72,47.65C244.57,46.86 246.22,45.27 247.485,44.1C248.75,42.93 250.48,41.39 251.33,40.61C251.75,40.22 251.87,40.09 252.28,39.73C252.97,39.11 254.26,38.02 255.14,37.24C255.91,36.56 256.62,35.89 257.3,35.31C257.88,34.81 258.29,34.5 258.95,33.95C259.94,33.12 261.38,31.85 262.64,30.805C263.92,29.74 265.61,28.43 266.57,27.63C267.14,27.16 267.4,26.9 267.92,26.48C268.61,25.92 269.5,25.28 270.37,24.61C271.37,23.83 272.94,22.56 273.59,22.07C273.86,21.87 273.9,21.85 274.18,21.65C274.9,21.13 277.01,19.56 277.99,18.82C278.61,18.35 278.94,18.07 279.5,17.66C280.18,17.16 280.94,16.68 281.8,16.07C282.93,15.28 284.39,14.18 285.68,13.295C286.93,12.44 288.24,11.6 289.41,10.82C290.45,10.12 291.63,9.28 292.33,8.83C292.71,8.59 292.82,8.54 293.22,8.29C294.05,7.78 295.92,6.62 297.03,5.91C297.9,5.36 298.66,4.83 299.35,4.41C299.9,4.08 300.23,3.93 300.84,3.58C301.82,3.02 303.55,2.02 304.65,1.37Q305.51,0.86 306.92,0" style="stroke-miterlimit: 1; vector-effect: non-scaling-stroke; fill: none; stroke: rgb(72, 54, 43); stroke-opacity: 1; stroke-width: 2px;"/><path class="openline" d="M377,81.23Q376.26,82.88 375.82,83.87C375.26,85.15 374.39,87.15 373.91,88.28C373.61,88.99 373.47,89.37 373.19,90.01C372.83,90.81 372.38,91.69 371.9,92.7C371.29,93.99 370.29,96.15 369.85,97.11C369.64,97.58 369.59,97.71 369.38,98.15C368.99,98.96 368.27,100.33 367.67,101.53C366.99,102.88 366.27,104.4 365.53,105.85499999999999C364.77,107.34 363.82,109.04 363.14,110.35C362.62,111.35 362.2,112.23 361.77,113.02C361.42,113.67 361.17,114.05 360.76,114.77C360.12,115.9 358.77,118.35 358.32,119.18C358.14,119.51 358.14,119.55 357.96,119.87C357.54,120.62 356.44,122.44 355.77,123.6C355.19,124.61 354.63,125.63 354.15,126.43C353.79,127.04 353.58,127.35 353.17,128.01C352.48,129.13 351.34,131.07 350.41999999999996,132.56C349.52,134.01 348.42,135.69 347.71,136.84C347.24,137.6 346.97,138.08 346.54,138.76C346.04,139.54 345.46,140.36 344.87,141.25C344.2,142.27 343.27,143.77 342.73,144.57C342.41,145.04 342.3,145.18 341.96,145.67C341.28,146.65 339.97,148.66 338.95500000000004,150.13C337.95,151.6 336.57,153.5 335.89,154.49C335.54,154.99 335.45,155.16 335.11,155.64C334.54,156.46 333.42,157.95 332.73,158.91C332.19,159.66 331.81,160.22 331.3,160.92C330.74,161.69 330.11,162.49 329.5,163.32C328.85,164.2 328.09,165.25 327.49,166.05C327.01,166.68 326.69,167.08 326.19,167.74C325.49,168.66 324.32,170.24 323.69,171.04C323.32,171.51 323.18,171.67 322.8,172.15C322.11,173.03 320.47,175.17 319.88,175.91C319.63,176.22 319.6,176.25 319.34,176.57C318.69,177.37 317.1,179.38 315.935,180.82C314.73,182.31 313.47,183.84 312.225,185.345C310.98,186.85 309.73,188.34 308.47,189.82999999999998C307.22,191.32 305.96,192.8 304.69,194.26999999999998C303.42,195.74 302.15,197.21 300.865,198.67C299.59,200.13 298.3,201.58 297.01,203.03C295.72,204.48 294.41,205.94 293.125,207.36C291.88,208.74 290.02,210.77 289.41,211.44C289.21,211.66 289.21,211.66 289.01,211.88C288.43,212.51 286.31,214.83 285.61,215.58C285.3,215.91 285.24,215.96 284.94,216.29C284.28,217 282.55,218.88 281.8,219.68C281.38,220.12 281.23,220.28 280.82,220.71C280.12,221.45 278.76,222.92 277.99,223.73C277.47,224.28 277.18,224.58 276.67,225.12C275.97,225.86 274.93,226.97 274.18,227.76C273.56,228.41 273.08,228.91 272.48,229.54C271.81,230.24 271.07,231.02 270.37,231.76C269.67,232.49 268.93,233.26 268.27,233.95C267.67,234.58 267.19,235.09 266.57,235.74C265.81,236.53 264.74,237.63 264.04,238.36C263.54,238.88 263.28,239.16 262.76,239.7C261.98,240.52 260.49,242.07 259.8,242.78C259.43,243.16 259.33,243.27 258.95,243.66C258.19,244.44 256.13,246.59 255.55,247.19C255.35,247.4 255.35,247.4 255.14,247.61C254.51,248.26 252.59,250.27 251.315,251.59C250.05,252.9 248.19,254.83 247.53,255.52C247.29,255.77 247.28,255.78 247.05,256.02C246.44,256.66 244.48,258.7 243.72,259.49C243.32,259.9 243.2,260.03 242.81,260.43C242.12,261.15 240.69,262.64 239.91,263.46C239.38,264.01 239.1,264.31 238.59,264.85C237.89,265.58 236.85,266.67 236.1,267.46C235.48,268.12 234.99,268.63 234.39,269.26C233.73,269.96 232.99,270.73 232.29,271.47C231.6,272.21 230.88,272.98 230.22,273.68C229.62,274.32 229.1,274.84 228.48,275.5C227.74,276.29 226.76,277.35 226.07,278.09C225.54,278.65 225.22,278.99 224.68,279.57C223.92,280.38 222.64,281.76 221.94,282.51C221.5,282.98 221.32,283.17 220.87,283.65C220.12,284.46 218.53,286.18 217.85,286.92C217.5,287.3 217.41,287.39 217.06,287.77C216.34,288.55 214.42,290.65 213.79,291.33C213.53,291.61 213.51,291.63 213.25,291.91C212.57,292.65 210.83,294.55 209.595,295.91499999999996C208.31,297.32 206.99,298.78 205.69,300.22C204.39,301.66 203.09,303.1 201.79500000000002,304.53999999999996C200.5,305.98 199.2,307.42 197.91000000000003,308.86C196.62,310.3 195.31,311.78 194.03500000000003,313.2C192.8,314.58 191.04,316.54 190.4,317.27C190.17,317.54 190.16,317.56 189.93,317.82C189.33,318.51 187.25,320.83 186.6,321.57C186.33,321.88 186.29,321.92 186.02,322.23C185.38,322.96 183.46,325.1 182.79,325.87C182.48,326.22 182.43,326.3 182.12,326.65C181.46,327.4 179.67,329.38 178.98,330.17C178.64,330.56 178.56,330.67 178.22,331.06C177.55,331.83 175.87,333.68 175.17,334.48C174.8,334.91 174.69,335.05 174.32,335.47C173.63,336.25 172.07,337.97 171.36,338.78C170.95,339.25 170.82,339.43 170.41,339.89C169.72,340.68 168.28,342.24 167.56,343.06C167.11,343.57 166.92,343.8 166.48,344.3C165.78,345.09 164.47,346.51 163.75,347.33C163.26,347.88 163.02,348.18 162.54,348.72C161.84,349.5 160.67,350.76 159.94,351.57C159.41,352.17 159.09,352.54 158.56,353.13C157.87,353.9 156.85,354.97 156.13,355.77C155.55,356.42 155.13,356.92 154.56,357.55C153.88,358.29 153.02,359.17 152.32,359.94C151.68,360.64 151.13,361.28 150.51,361.96C149.87,362.66 149.19,363.34 148.52,364.06C147.82,364.81 147.07,365.66 146.4,366.37C145.81,367 145.32,367.48 144.71,368.13C143.96,368.92 142.94,370.06 142.24,370.79C141.73,371.32 141.43,371.6 140.9,372.14C140.11,372.95 138.7,374.49 138,375.2C137.62,375.59 137.49,375.69 137.09,376.09C136.28,376.9 134.72,378.54 133.475,379.805C132.15,381.14 130.7,382.59 129.36,383.90999999999997C128.1,385.15 126.49,386.69 125.67,387.5C125.25,387.91 125.13,388.05 124.73,388.44C124.04,389.11 122.7,390.33 121.86,391.13C121.2,391.77 120.71,392.28 120.09,392.86C119.44,393.47 118.78,394.02 118.05,394.69C117.2,395.47 116,396.64 115.29,397.27C114.86,397.65 114.7,397.77 114.24,398.17C113.35,398.95 111.66,400.51 110.37,401.63C109.12,402.72 107.58,404 106.63,404.83C106.04,405.35 105.74,405.64 105.19,406.1C104.5,406.68 103.65,407.33 102.82,408.01C101.88,408.79 100.52,409.97 99.83,410.52C99.48,410.8 99.38,410.85 99.01,411.13C98.2,411.75 96.05,413.45 95.2,414.13C94.77,414.48 94.64,414.61 94.23,414.93C93.54,415.47 92.35,416.29 91.39,417.01C90.39,417.76 89.01,418.85 88.33,419.34C88,419.58 87.93,419.61 87.59,419.85C86.81,420.39 84.79,421.81 83.78,422.54C83.11,423.02 82.72,423.35 82.12,423.76C81.46,424.22 80.79,424.61 79.97,425.15C78.88,425.87 76.92,427.17 76.16,427.69C75.84,427.91 75.79,427.96 75.47,428.17C74.81,428.6 73.45,429.41 72.35,430.09C71.12,430.85 69.73,431.75 68.44,432.52C67.2,433.26 66.01,433.91 64.74,434.64Q63.41,435.41 60.63,437" style="stroke-miterlimit: 1; vector-effect: non-scaling-stroke; fill: none; stroke: rgb(72, 54, 43); stroke-opacity: 1; stroke-width: 2px;"/></g><g class="contourlevel"><path class="openline" d="M0,379.25Q1.45,376.49 2.11,375.2C2.71,374.03 3.37,372.64 3.81,371.84C4.06,371.38 4.17,371.26 4.45,370.79C5.02,369.83 6.38,367.39 6.95,366.37C7.25,365.83 7.33,365.64 7.62,365.14C8.1,364.32 8.99,363.01 9.63,361.96C10.25,360.95 10.89,359.77 11.42,358.97C11.79,358.4 12.01,358.16 12.43,357.55C13.15,356.5 14.3,354.66 15.295,353.21500000000003C16.33,351.72 17.92,349.6 18.53,348.72C18.78,348.36 18.79,348.3 19.04,347.96C19.6,347.19 21.19,345.22 21.88,344.3C22.29,343.75 22.44,343.5 22.85,342.98C23.49,342.16 24.72,340.76 25.42,339.89C25.91,339.28 26.16,338.9 26.66,338.3C27.34,337.48 28.47,336.28 29.16,335.47C29.67,334.87 29.94,334.49 30.46,333.9C31.18,333.08 32.42,331.83 33.12,331.06C33.59,330.54 33.79,330.26 34.27,329.74C35.03,328.92 36.64,327.36 37.31,326.65C37.66,326.28 37.72,326.17 38.08,325.8C38.85,325 40.55,323.36 41.81,322.15C43.09,320.93 44.89,319.23 45.7,318.5C46.06,318.18 46.15,318.13 46.5,317.82C47.19,317.22 48.59,315.89 49.51,315.1C50.26,314.46 50.93,313.96 51.58,313.4C52.19,312.88 52.62,312.46 53.31,311.88C54.31,311.04 55.76,309.89 57.015,308.9C58.3,307.89 59.87,306.66 60.93,305.87C61.64,305.34 62.13,305.03 62.75,304.58C63.4,304.1 63.96,303.64 64.74,303.07C65.84,302.27 67.44,301.17 68.74000000000001,300.28C69.97,299.44 71.14,298.65 72.35,297.86C73.54,297.08 74.7,296.36 75.935,295.595C77.24,294.79 78.7,293.9 79.97,293.15C81.1,292.49 82.55,291.7 83.19,291.33C83.47,291.17 83.5,291.14 83.78,290.98C84.49,290.58 86.31,289.6 87.59,288.93C88.88,288.26 90.21,287.59 91.5,286.96500000000003C92.75,286.36 93.95,285.8 95.2,285.24C96.46,284.68 97.83,284.08 99.01,283.6C100.02,283.19 101.16,282.79 101.86,282.51C102.27,282.35 102.39,282.27 102.82,282.11C103.67,281.79 105.36,281.22 106.63,280.82C107.89,280.42 109.16,280.05 110.43,279.72C111.69,279.39 112.97,279.09 114.24,278.85C115.51,278.61 116.78,278.4 118.05,278.28C119.32,278.16 120.59,278.07 121.86,278.11C123.13,278.15 124.42,278.24 125.67,278.52C126.95,278.81 128.26,279.19 129.47,279.84C130.77,280.54 132.15,281.49 133.16,282.65C134.2,283.84 134.98,285.44 135.58,286.92C136.15,288.34 136.47,289.85 136.72,291.33C136.96,292.79 137.04,294.28 137.07,295.75C137.1,297.22 137.03,298.69 136.92,300.16C136.81,301.63 136.63,303.11 136.43,304.58C136.22,306.05 135.97,307.52 135.69,308.99C135.41,310.46 135.08,311.93 134.74,313.4C134.39,314.88 133.89,316.84 133.62,317.82C133.48,318.32 133.42,318.46 133.28,318.93C133.04,319.74 132.7,321.05 132.34,322.23C131.93,323.6 131.42,325.19 130.93,326.65C130.45,328.09 129.95,329.49 129.43,330.935C128.89,332.43 128.32,333.97 127.74,335.47C127.17,336.96 126.32,339.06 125.97,339.89C125.83,340.22 125.81,340.25 125.67,340.57C125.35,341.31 124.67,342.99 124.1,344.3C123.46,345.78 122.69,347.47 121.99000000000001,348.98C121.33,350.41 120.71,351.75 120.04,353.13C119.36,354.53 118.67,355.89 117.945,357.32500000000005C117.18,358.83 116.23,360.69 115.54,361.96C115.05,362.87 114.65,363.52 114.24,364.27C113.85,364.98 113.59,365.54 113.13,366.37C112.45,367.6 111.39,369.42 110.51,370.90999999999997C109.66,372.36 108.66,374.04 107.94,375.2C107.44,376 107.07,376.51 106.63,377.22C106.15,377.98 105.72,378.75 105.16,379.62C104.48,380.68 103.34,382.3 102.82,383.09C102.55,383.5 102.51,383.6 102.23,384.03C101.6,384.98 100.14,387.05 99.08000000000001,388.53499999999997C98.04,390 96.62,391.96 95.93,392.86C95.61,393.28 95.52,393.36 95.2,393.76C94.58,394.54 93.24,396.38 92.53,397.27C92.08,397.83 91.84,398.07 91.39,398.61C90.72,399.42 89.66,400.85 88.95,401.69C88.44,402.29 88.1,402.61 87.59,403.2C86.89,404.01 85.86,405.31 85.15,406.1C84.64,406.67 84.31,406.96 83.78,407.53C83.03,408.34 81.82,409.77 81.11,410.52C80.66,410.99 80.44,411.16 79.97,411.63C79.17,412.43 77.47,414.28 76.81,414.93C76.52,415.21 76.46,415.24 76.16,415.52C75.41,416.23 73.57,418.06 72.28,419.265C71.04,420.42 69.45,421.77 68.55,422.6C68.03,423.08 67.82,423.33 67.32,423.76C66.63,424.36 65.61,425.12 64.74,425.84C63.84,426.59 62.71,427.61 62,428.17C61.57,428.51 61.39,428.6 60.93,428.94C60.05,429.59 57.95,431.2 57.12,431.85C56.71,432.17 56.61,432.3 56.21,432.59C55.52,433.1 54.32,433.86 53.31,434.55Q52.2,435.32 49.82,437" style="stroke-miterlimit: 1; vector-effect: non-scaling-stroke; fill: none; stroke: rgb(85, 62, 47); stroke-opacity: 1; stroke-width: 2px;"/><path class="openline" d="M377,61.82Q375.11,65 374.41,66.21C373.92,67.06 373.63,67.67 373.19,68.39C372.73,69.14 372.23,69.79 371.68,70.63C370.99,71.69 369.9,73.52 369.38,74.28C369.14,74.63 369.07,74.68 368.81,75.04C368.18,75.92 366.73,78.1 365.65999999999997,79.58C364.6,81.04 363.07,82.97 362.41,83.87C362.11,84.28 362.07,84.38 361.77,84.77C361.16,85.56 359.57,87.41 358.88,88.28C358.48,88.78 358.36,89 357.96,89.49C357.29,90.31 355.83,91.88 355.14,92.7C354.72,93.2 354.58,93.42 354.15,93.91C353.43,94.73 351.85,96.35 351.17,97.11C350.8,97.52 350.72,97.66 350.34,98.07C349.6,98.87 347.56,100.91 346.97,101.53C346.76,101.76 346.76,101.77 346.54,102C345.89,102.67 343.9,104.59 342.605,105.83C341.36,107.01 339.84,108.45 338.92,109.27C338.39,109.74 338.13,109.92 337.64,110.35C336.93,110.97 335.97,111.9 335.11,112.64C334.26,113.37 333.23,114.18 332.53,114.77C332.04,115.18 331.83,115.4 331.3,115.84C330.35,116.63 328.59,118.01 327.28999999999996,119.035C326.06,120 324.79,121 323.69,121.81C322.78,122.48 321.87,123.09 321.17,123.6C320.67,123.97 320.43,124.18 319.88,124.58C318.95,125.25 317,126.6 316.07,127.22C315.54,127.57 315.31,127.69 314.82,128.01C314.12,128.47 313.2,129.13 312.26,129.74C311.12,130.48 309.14,131.71 308.45,132.12C308.2,132.27 308.18,132.27 307.93,132.42C307.31,132.79 305.79,133.73 304.65,134.39C303.43,135.1 301.56,136.15 300.84,136.54C300.56,136.69 300.52,136.7 300.24,136.84C299.59,137.17 298.15,137.98 297.03,138.55C295.82,139.17 294.26,139.94 293.22,140.43C292.5,140.77 292.01,140.97 291.39,141.25C290.74,141.55 290.18,141.84 289.41,142.18C288.35,142.65 286.88,143.26 285.61,143.77C284.34,144.28 282.76,144.88 281.8,145.22C281.22,145.42 280.92,145.5 280.39,145.67C279.7,145.9 278.89,146.2 277.99,146.47C276.87,146.81 275.45,147.2 274.18,147.5C272.91,147.8 271.64,148.07 270.37,148.28C269.11,148.49 267.84,148.66 266.57,148.74C265.3,148.82 264.03,148.87 262.76,148.77C261.49,148.67 260.2,148.52 258.95,148.16C257.66,147.79 256.03,147.06 255.14,146.55C254.61,146.25 254.4,146.08 253.95,145.67C253.21,144.99 251.91,143.48 251.33,142.64C250.96,142.11 250.83,141.86 250.57,141.25C250.13,140.21 249.5,138.33 249.18,136.84C248.87,135.38 248.74,133.9 248.66,132.42C248.58,130.95 248.61,129.48 248.68,128.01C248.75,126.54 248.9,125.07 249.08,123.6C249.26,122.12 249.49,120.65 249.75,119.18C250.01,117.71 250.35,116.07 250.64,114.77C250.87,113.73 251.13,112.8 251.33,111.99C251.48,111.37 251.54,111.03 251.72,110.35C252.01,109.23 252.53,107.41 252.97,105.94C253.41,104.47 253.93,102.76 254.34,101.53C254.63,100.64 254.88,99.99 255.14,99.24C255.39,98.52 255.56,97.95 255.85,97.11C256.27,95.9 256.93,94.1 257.47,92.7C257.97,91.4 258.66,89.73 258.95,88.98C259.07,88.66 259.08,88.61 259.21,88.28C259.54,87.44 260.45,85.28 261.06,83.87C261.63,82.55 262.44,80.8 262.76,80.07C262.89,79.78 262.89,79.75 263.02,79.45C263.38,78.65 264.44,76.36 265.08,75.04C265.61,73.95 266.17,72.88 266.57,72.07C266.84,71.51 266.95,71.24 267.25,70.63C267.78,69.56 268.95,67.29 269.53,66.21C269.87,65.57 270.05,65.29 270.37,64.71C270.81,63.9 271.34,62.85 271.92,61.8C272.62,60.53 273.47,59.04 274.305,57.615C275.18,56.1 276.38,54.07 277.06,52.97C277.44,52.35 277.63,52.11 277.99,51.55C278.5,50.74 279.19,49.55 279.82,48.56C280.46,47.57 281.27,46.44 281.8,45.62C282.17,45.05 282.32,44.75 282.73,44.14C283.43,43.08 284.68,41.32 285.70000000000005,39.875C286.77,38.37 288.44,36.06 289.01,35.31C289.2,35.06 289.22,35.06 289.41,34.81C289.94,34.13 291.69,31.76 292.39,30.9C292.74,30.46 292.87,30.36 293.22,29.94C293.88,29.15 295.27,27.32 295.98,26.48C296.4,25.98 296.6,25.82 297.03,25.33C297.74,24.52 299.09,22.85 299.8,22.07C300.22,21.61 300.41,21.46 300.84,21C301.59,20.2 303.17,18.37 303.86,17.66C304.2,17.31 304.29,17.26 304.65,16.91C305.43,16.14 307.08,14.38 308.345,13.145C309.62,11.9 311.5,10.22 312.26,9.49C312.58,9.19 312.61,9.12 312.92,8.83C313.57,8.23 315.15,6.96 316.07,6.16C316.8,5.52 317.35,4.95 318,4.41C318.62,3.9 319.15,3.57 319.88,3.01Q320.93,2.2 323.67,0" style="stroke-miterlimit: 1; vector-effect: non-scaling-stroke; fill: none; stroke: rgb(85, 62, 47); stroke-opacity: 1; stroke-width: 2px;"/></g><g class="contourlevel"><path class="openline" d="M0,388.21Q1.89,385.19 2.59,384.03C3.08,383.22 3.35,382.64 3.81,381.94C4.31,381.18 4.9,380.46 5.48,379.62C6.16,378.64 7.03,377.2 7.62,376.4C8,375.89 8.2,375.72 8.6,375.2C9.3,374.3 10.82,372.13 11.42,371.41C11.67,371.11 11.73,371.09 11.99,370.79C12.63,370.05 14.61,367.57 15.23,366.88C15.46,366.62 15.49,366.62 15.73,366.37C16.35,365.71 18.29,363.5 19.04,362.74C19.41,362.37 19.53,362.31 19.89,361.96C20.58,361.29 21.99,359.77 22.85,358.97C23.47,358.39 23.94,358.07 24.53,357.55C25.21,356.95 25.87,356.23 26.66,355.55C27.57,354.76 29.04,353.69 29.71,353.13C30.05,352.85 30.11,352.76 30.46,352.47C31.23,351.85 33.28,350.33 34.27,349.66C34.88,349.25 35.24,349.08 35.79,348.72C36.48,348.27 37.21,347.69 38.08,347.14C39.18,346.44 40.95,345.42 41.89,344.92C42.42,344.64 42.67,344.55 43.17,344.3C43.87,343.94 44.76,343.41 45.7,342.96C46.83,342.41 48.22,341.81 49.51,341.3C50.8,340.79 52.13,340.33 53.425,339.91999999999996C54.67,339.53 55.87,339.18 57.12,338.9C58.37,338.62 59.66,338.39 60.93,338.23C62.2,338.07 63.47,337.97 64.74,337.96C66.01,337.95 67.29,338.01 68.55,338.19C69.82,338.37 71.29,338.71 72.35,339.05C73.15,339.3 73.74,339.59 74.39,339.89C75.01,340.18 75.48,340.35 76.16,340.8C77.25,341.53 78.98,342.84 80.11,344.14C81.27,345.47 82.36,347.47 82.99,348.72C83.39,349.52 83.53,350.06 83.78,350.77C84.04,351.52 84.29,352.21 84.51,353.13C84.8,354.37 85.09,356.07 85.24,357.55C85.39,359.02 85.44,360.49 85.44,361.96C85.44,363.43 85.34,364.9 85.21,366.37C85.07,367.85 84.87,369.33 84.63,370.79C84.39,372.23 84.09,373.63 83.755,375.07C83.41,376.57 83,378.12 82.56,379.62C82.12,381.11 81.6,382.72 81.13,384.03C80.74,385.11 80.28,386.15 79.97,386.96C79.75,387.53 79.69,387.82 79.44,388.44C79.01,389.53 78.12,391.58 77.52,392.86C77.04,393.87 76.55,394.72 76.16,395.52C75.85,396.16 75.71,396.56 75.35,397.27C74.77,398.42 73.47,400.79 72.93,401.69C72.68,402.1 72.6,402.17 72.35,402.57C71.86,403.35 70.94,405.04 70.26,406.1C69.68,407.01 69.07,407.79 68.55,408.57C68.1,409.25 67.81,409.79 67.31,410.52C66.62,411.51 65.32,413.14 64.74,413.94C64.43,414.36 64.38,414.5 64.06,414.93C63.41,415.8 61.49,418.04 60.93,418.76C60.72,419.03 60.72,419.07 60.5,419.34C59.92,420.06 57.76,422.36 57.12,423.1C56.86,423.41 56.85,423.47 56.58,423.76C55.96,424.45 54.09,426.22 53.31,427.04C52.86,427.51 52.72,427.73 52.28,428.17C51.59,428.85 50.35,429.87 49.51,430.65C48.78,431.33 48.17,432.01 47.5,432.59C46.9,433.11 46.4,433.43 45.7,433.99Q44.7,434.8 42.09,437" style="stroke-miterlimit: 1; vector-effect: non-scaling-stroke; fill: none; stroke: rgb(98, 69, 51); stroke-opacity: 1; stroke-width: 2px;"/><path class="openline" d="M377,49.02Q374.59,52.08 373.92,52.97C373.59,53.42 373.53,53.56 373.19,53.99C372.54,54.8 370.83,56.59 370.16,57.38C369.81,57.8 369.75,57.94 369.38,58.35C368.63,59.19 367.01,60.8 365.755,61.995C364.47,63.22 362.61,64.94 361.77,65.62C361.41,65.91 361.31,65.94 360.96,66.21C360.27,66.74 358.97,67.93 357.96,68.68C357.01,69.39 355.79,70.13 355.1,70.63C354.69,70.92 354.58,71.05 354.15,71.35C353.31,71.92 351.5,73.05 350.34,73.7C349.4,74.23 348.42,74.66 347.72,75.04C347.25,75.3 347.05,75.46 346.54,75.72C345.64,76.18 344.01,76.92 342.73,77.43C341.47,77.94 340.08,78.44 338.92,78.79C337.98,79.08 337.02,79.26 336.32,79.45C335.84,79.58 335.63,79.68 335.11,79.8C334.2,80.01 332.57,80.3 331.3,80.44C330.03,80.58 328.76,80.65 327.49,80.63C326.22,80.61 324.93,80.51 323.69,80.3C322.47,80.09 321.33,79.83 320.13,79.375C318.79,78.87 317.24,78.09 316.07,77.31C315.05,76.63 314.1,75.72 313.42,75.04C312.93,74.55 312.67,74.26 312.26,73.7C311.67,72.9 310.89,71.8 310.31,70.63C309.62,69.26 308.96,67.46 308.52,65.91999999999999C308.12,64.52 307.9,63.2 307.72,61.8C307.54,60.36 307.46,58.85 307.44,57.38C307.42,55.91 307.49,54.44 307.61,52.97C307.73,51.5 307.97,49.62 308.15,48.56C308.25,47.96 308.34,47.71 308.45,47.15C308.62,46.34 308.78,45.23 309.03,44.14C309.34,42.81 309.76,41.19 310.2,39.73C310.64,38.25 311.28,36.36 311.68,35.31C311.9,34.71 312.04,34.48 312.26,33.93C312.59,33.12 312.96,32 313.42,30.9C313.98,29.56 314.95,27.45 315.45,26.48C315.7,25.99 315.82,25.86 316.07,25.39C316.5,24.59 317.13,23.18 317.75,22.07C318.4,20.91 319.42,19.38 319.88,18.59C320.11,18.18 320.13,18.08 320.39,17.66C320.98,16.7 322.46,14.53 323.52,13.04C324.55,11.59 325.95,9.71 326.67,8.83C327.02,8.41 327.14,8.33 327.49,7.93C328.17,7.15 329.71,5.17 330.42,4.41C330.78,4.02 330.92,3.95 331.3,3.57Q332.07,2.8 334.71,0" style="stroke-miterlimit: 1; vector-effect: non-scaling-stroke; fill: none; stroke: rgb(98, 69, 51); stroke-opacity: 1; stroke-width: 2px;"/></g><g class="contourlevel"><path class="openline" d="M0,395.03Q1.09,393.66 1.67,392.86C2.35,391.93 3.18,390.57 3.81,389.77C4.24,389.22 4.53,388.99 4.99,388.44C5.7,387.59 6.9,385.94 7.62,385.15C8.06,384.66 8.31,384.5 8.76,384.03C9.47,383.29 10.61,381.88 11.42,381.09C12.03,380.49 12.52,380.16 13.11,379.62C13.79,378.99 14.44,378.22 15.23,377.52C16.11,376.74 17.49,375.77 18.17,375.2C18.55,374.88 18.64,374.75 19.04,374.43C19.85,373.79 21.82,372.4 22.85,371.75C23.52,371.33 23.97,371.14 24.56,370.79C25.23,370.39 25.84,369.92 26.66,369.46C27.73,368.86 29.23,368.12 30.46,367.59C31.57,367.11 33.08,366.62 33.71,366.37C33.97,366.27 34,366.23 34.27,366.14C34.97,365.9 36.8,365.37 38.08,365.1C39.34,364.84 40.62,364.63 41.89,364.54C43.16,364.45 44.43,364.42 45.7,364.53C46.97,364.64 48.33,364.86 49.51,365.19C50.6,365.49 51.88,366.08 52.55,366.37C52.89,366.52 52.98,366.53 53.31,366.74C54.11,367.24 56.31,368.98 57.12,369.75C57.55,370.16 57.67,370.3 58.02,370.79C58.7,371.73 60.18,374.28 60.61,375.2C60.8,375.59 60.8,375.69 60.93,376.08C61.18,376.86 61.69,378.36 61.95,379.62C62.24,381 62.43,382.56 62.52,384.03C62.61,385.5 62.59,386.97 62.51,388.44C62.43,389.91 62.26,391.39 62.03,392.86C61.8,394.34 61.34,396.46 61.13,397.27C61.05,397.59 61.02,397.61 60.93,397.92C60.71,398.66 60.3,400.39 59.88,401.69C59.42,403.11 58.78,404.86 58.26,406.1C57.87,407.04 57.46,407.76 57.12,408.53C56.81,409.22 56.66,409.74 56.29,410.52C55.73,411.71 54.54,413.99 53.98,414.93C53.71,415.39 53.58,415.49 53.31,415.93C52.81,416.72 51.99,418.31 51.31,419.34C50.72,420.25 50.05,421.03 49.51,421.81C49.04,422.49 48.76,423.05 48.24,423.76C47.56,424.69 46.34,426.03 45.7,426.85C45.29,427.38 45.16,427.65 44.73,428.17C44.05,428.99 42.62,430.4 41.89,431.22C41.42,431.76 41.23,432.08 40.75,432.59C40.06,433.31 38.88,434.29 38.08,435.07Q37.39,435.74 36.21,437" style="stroke-miterlimit: 1; vector-effect: non-scaling-stroke; fill: none; stroke: rgb(112, 77, 54); stroke-opacity: 1; stroke-width: 2px;"/><path class="openline" d="M377,39.65Q374.04,42.72 373.19,43.46C372.8,43.8 372.66,43.83 372.28,44.14C371.58,44.7 370.38,45.89 369.38,46.64C368.43,47.36 367.12,48.08 366.44,48.56C366.06,48.82 365.98,48.94 365.58,49.2C364.77,49.72 363.08,50.69 361.77,51.31C360.47,51.93 359.07,52.47 357.76,52.92C356.54,53.34 355.38,53.71 354.15,53.98C352.91,54.26 351.61,54.47 350.34,54.56C349.08,54.65 347.8,54.66 346.54,54.54C345.27,54.42 343.8,54.13 342.73,53.82C341.9,53.58 341.26,53.26 340.6,52.97C340,52.7 339.57,52.57 338.92,52.15C337.83,51.44 336.06,50.1 334.915,48.785C333.75,47.44 332.62,45.38 332.01,44.14C331.64,43.37 331.53,42.88 331.3,42.19C331.05,41.42 330.78,40.68 330.57,39.73C330.3,38.48 330.06,36.79 329.95,35.31C329.84,33.84 329.85,32.37 329.93,30.9C330.01,29.43 330.19,27.93 330.43,26.48C330.66,25.06 330.98,23.72 331.345,22.3C331.74,20.79 332.2,19.18 332.74,17.66C333.27,16.16 334.1,14.18 334.55,13.24C334.77,12.78 334.88,12.68 335.11,12.24C335.53,11.45 336.14,9.94 336.77,8.83C337.41,7.69 338.44,6.28 338.92,5.47C339.18,5.02 339.2,4.87 339.5,4.41Q340.13,3.43 342.79,0" style="stroke-miterlimit: 1; vector-effect: non-scaling-stroke; fill: none; stroke: rgb(112, 77, 54); stroke-opacity: 1; stroke-width: 2px;"/></g><g class="contourlevel"><path class="openline" d="M0,400.61Q2.22,398.1 2.91,397.27C3.3,396.79 3.39,396.58 3.81,396.11C4.55,395.28 6.52,393.5 7.13,392.86C7.37,392.61 7.37,392.56 7.62,392.31C8.28,391.67 10.55,389.73 11.42,389.08C11.85,388.76 12.01,388.72 12.42,388.44C13.13,387.95 14.18,387.04 15.23,386.37C16.44,385.6 17.98,384.79 19.305,384.135C20.51,383.54 21.63,383.01 22.85,382.56C24.08,382.11 25.38,381.72 26.66,381.44C27.92,381.17 29.19,380.97 30.46,380.9C31.73,380.83 33.01,380.83 34.27,381.01C35.55,381.19 36.85,381.49 38.08,381.98C39.37,382.49 40.66,383.11 41.835,384.07C43.21,385.19 44.71,386.95 45.665000000000006,388.505C46.52,389.9 47.03,391.38 47.47,392.86C47.9,394.3 48.15,395.79 48.3,397.27C48.45,398.74 48.46,400.22 48.4,401.69C48.34,403.16 48.17,404.64 47.93,406.1C47.69,407.58 47.36,409.08 46.97,410.52C46.59,411.92 46.13,413.22 45.61,414.625C45.05,416.15 44.35,417.93 43.68,419.34C43.1,420.55 42.31,421.79 41.89,422.61C41.65,423.09 41.61,423.26 41.34,423.76C40.78,424.77 39.11,427.4 38.55,428.17C38.34,428.46 38.3,428.46 38.08,428.74C37.53,429.45 35.99,431.73 35.27,432.59C34.87,433.06 34.68,433.17 34.27,433.62Q33.55,434.41 31.39,437" style="stroke-miterlimit: 1; vector-effect: non-scaling-stroke; fill: none; stroke: rgb(125, 85, 56); stroke-opacity: 1; stroke-width: 2px;"/><path class="openline" d="M377,32.47Q374.4,34.43 373.095,35.265C371.86,36.06 370.65,36.8 369.38,37.4C368.14,37.99 366.86,38.47 365.58,38.85C364.32,39.22 362.81,39.54 361.77,39.67C361.07,39.76 360.61,39.71 359.98,39.73C359.26,39.75 358.54,39.84 357.695,39.769999999999996C356.64,39.69 355.33,39.51 354.15,39.14C352.88,38.74 351.44,38.05 350.34,37.36C349.38,36.75 348.54,35.97 347.87,35.31C347.33,34.78 346.99,34.38 346.54,33.76C345.96,32.97 345.29,31.99 344.77,30.9C344.16,29.62 343.59,27.94 343.24,26.48C342.91,25.1 342.77,23.6 342.69500000000005,22.375C342.64,21.4 342.71,20.56 342.73,19.73C342.74,19 342.71,18.48 342.78,17.66C342.89,16.46 343.16,14.7 343.48,13.24C343.81,11.76 344.23,10.28 344.74,8.83C345.26,7.37 345.89,5.96 346.57500000000005,4.525Q347.3,3.02 348.99,0" style="stroke-miterlimit: 1; vector-effect: non-scaling-stroke; fill: none; stroke: rgb(125, 85, 56); stroke-opacity: 1; stroke-width: 2px;"/></g><g class="contourlevel"><path class="openline" d="M0,405.27Q2.44,402.75 3.7199999999999998,401.58500000000004C4.98,400.44 6.55,399.1 7.62,398.34C8.31,397.85 8.8,397.66 9.41,397.27C10.07,396.85 10.62,396.34 11.42,395.87C12.47,395.26 13.95,394.54 15.23,394.03C16.47,393.54 17.72,393.14 18.994999999999997,392.845C20.26,392.55 21.57,392.32 22.85,392.26C24.12,392.2 25.74,392.34 26.66,392.5C27.2,392.59 27.42,392.7 27.91,392.86C28.61,393.09 29.56,393.28 30.46,393.76C31.65,394.4 33.59,396 34.27,396.64C34.56,396.91 34.59,396.95 34.82,397.27C35.38,398.06 36.75,400.33 37.3,401.69C37.73,402.74 37.89,403.83 38.08,404.64C38.22,405.21 38.31,405.48 38.39,406.1C38.53,407.17 38.64,409.05 38.59,410.52C38.54,412.01 38.35,413.51 38.095,414.98C37.84,416.45 37.5,417.89 37.07,419.34C36.63,420.82 36.03,422.54 35.49,423.76C35.09,424.68 34.64,425.33 34.27,426.09C33.93,426.8 33.79,427.36 33.36,428.17C32.71,429.41 31.55,431.22 30.55,432.69Q29.55,434.16 27.37,437" style="stroke-miterlimit: 1; vector-effect: non-scaling-stroke; fill: none; stroke: rgb(138, 93, 57); stroke-opacity: 1; stroke-width: 2px;"/><path class="openline" d="M377,26.51Q374.49,28 373.19,28.54C371.94,29.06 370.66,29.45 369.38,29.71C368.13,29.96 366.85,30.11 365.58,30.08C364.31,30.05 363.01,29.91 361.77,29.55C360.47,29.17 358.94,28.42 357.96,27.81C357.26,27.38 356.87,27.02 356.31,26.48C355.61,25.8 354.73,24.78 354.15,23.98C353.68,23.32 353.38,22.86 353.01,22.07C352.48,20.92 351.84,19.15 351.51,17.66C351.19,16.21 351.07,14.71 351.05,13.24C351.03,11.77 351.15,10.29 351.37,8.83C351.59,7.35 351.93,5.87 352.38,4.41Q352.84,2.92 354.13,0" style="stroke-miterlimit: 1; vector-effect: non-scaling-stroke; fill: none; stroke: rgb(138, 93, 57); stroke-opacity: 1; stroke-width: 2px;"/></g><g class="contourlevel"><path class="openline" d="M0,409.24Q2.51,407.06 3.81,406.1C5.06,405.18 6.32,404.31 7.62,403.6C8.86,402.92 10.55,402.2 11.42,401.91C11.85,401.77 12,401.79 12.41,401.69C13.11,401.51 14.21,401.06 15.23,400.9C16.39,400.71 17.77,400.62 19.04,400.73C20.35,400.85 21.73,401.1 22.98,401.625C24.28,402.17 25.69,403.13 26.66,403.97C27.44,404.64 27.93,405.22 28.5,406.1C29.24,407.24 30.05,408.89 30.515,410.365C30.98,411.83 31.19,413.42 31.29,414.93C31.39,416.41 31.3,417.98 31.14,419.34C31,420.52 30.61,421.81 30.46,422.62C30.37,423.1 30.39,423.26 30.27,423.76C30.02,424.76 29.41,426.72 28.82,428.17C28.21,429.66 27.45,431.13 26.655,432.585Q25.83,434.08 23.95,437" style="stroke-miterlimit: 1; vector-effect: non-scaling-stroke; fill: none; stroke: rgb(150, 102, 58); stroke-opacity: 1; stroke-width: 2px;"/><path class="openline" d="M377,21.58Q375.81,21.88 375.19,22.07C374.54,22.27 373.98,22.6 373.19,22.76C372.13,22.97 370.65,23.11 369.38,23.01C368.08,22.9 366.74,22.63 365.5,22.11C364.19,21.56 362.74,20.54 361.77,19.7C361.02,19.04 360.57,18.51 360.01,17.66C359.27,16.52 358.41,14.82 357.92999999999995,13.33C357.46,11.88 357.24,10.33 357.15,8.83C357.06,7.36 357.17,5.64 357.36,4.41C357.5,3.51 357.79,2.85 357.96,2.1Q358.12,1.39 358.38,0" style="stroke-miterlimit: 1; vector-effect: non-scaling-stroke; fill: none; stroke: rgb(150, 102, 58); stroke-opacity: 1; stroke-width: 2px;"/></g><g class="contourlevel"><path class="openline" d="M0,412.73Q2.34,411.07 3.59,410.34000000000003C4.87,409.6 6.27,408.82 7.62,408.32C8.88,407.85 10.14,407.53 11.42,407.37C12.68,407.21 13.97,407.15 15.23,407.34C16.52,407.53 17.92,407.96 19.04,408.53C20.06,409.05 21.03,409.89 21.71,410.52C22.2,410.98 22.46,411.28 22.85,411.84C23.4,412.63 24.12,413.77 24.56,414.93C25.06,416.24 25.41,417.86 25.58,419.34C25.74,420.8 25.7,422.29 25.56,423.76C25.42,425.24 25.15,426.7 24.74,428.17C24.31,429.72 23.65,431.35 23.005000000000003,432.845Q22.38,434.29 20.94,437" style="stroke-miterlimit: 1; vector-effect: non-scaling-stroke; fill: none; stroke: rgb(161, 112, 59); stroke-opacity: 1; stroke-width: 2px;"/><path class="openline" d="M377,17.27Q374.45,17.72 373.19,17.65C371.91,17.58 370.6,17.38 369.38,16.86C368.05,16.3 366.38,14.98 365.58,14.27C365.15,13.88 365.02,13.73 364.69,13.24C364.06,12.3 362.94,10.34 362.45,8.83C361.99,7.39 361.83,5.89 361.77,4.41Q361.71,2.94 362.1,0" style="stroke-miterlimit: 1; vector-effect: non-scaling-stroke; fill: none; stroke: rgb(161, 112, 59); stroke-opacity: 1; stroke-width: 2px;"/></g><g class="contourlevel"><path class="openline" d="M0,415.88Q1.33,415.28 1.97,414.93C2.6,414.59 3.06,414.14 3.81,413.81C4.83,413.36 6.34,412.87 7.62,412.66C8.87,412.45 10.17,412.37 11.42,412.54C12.7,412.72 14.25,413.24 15.23,413.73C15.93,414.08 16.33,414.42 16.89,414.93C17.6,415.58 18.49,416.61 19.04,417.42C19.49,418.08 19.77,418.54 20.07,419.34C20.5,420.49 20.95,422.28 21.1,423.76C21.25,425.22 21.18,426.71 21,428.17C20.82,429.65 20.41,431.4 20.01,432.59C19.72,433.44 19.34,433.98 19.04,434.71Q18.74,435.45 18.22,437" style="stroke-miterlimit: 1; vector-effect: non-scaling-stroke; fill: none; stroke: rgb(171, 122, 60); stroke-opacity: 1; stroke-width: 2px;"/><path class="openline" d="M377,13.43Q375.81,13.31 375.19,13.24C374.54,13.17 373.93,13.25 373.19,13C372.09,12.63 370.35,11.59 369.38,10.79C368.64,10.18 368.21,9.66 367.69,8.83C366.98,7.69 366.11,5.67 365.79,4.41C365.57,3.54 365.64,2.85 365.58,2.1Q365.52,1.38 365.41,0" style="stroke-miterlimit: 1; vector-effect: non-scaling-stroke; fill: none; stroke: rgb(171, 122, 60); stroke-opacity: 1; stroke-width: 2px;"/></g><g class="contourlevel"><path class="openline" d="M0,418.73Q2.52,417.52 3.81,417.19C5.06,416.87 6.36,416.68 7.62,416.75C8.89,416.82 10.33,417.16 11.42,417.64C12.37,418.06 13.2,418.74 13.87,419.34C14.43,419.84 14.8,420.29 15.23,420.92C15.76,421.7 16.34,422.68 16.7,423.76C17.13,425.04 17.41,426.69 17.47,428.17C17.53,429.64 17.37,431.13 17.09,432.59Q16.81,434.08 15.76,437" style="stroke-miterlimit: 1; vector-effect: non-scaling-stroke; fill: none; stroke: rgb(180, 134, 64); stroke-opacity: 1; stroke-width: 2px;"/><path class="openline" d="M377,9.97Q374.5,9.11 373.85,8.83C373.54,8.7 373.47,8.72 373.19,8.51C372.44,7.93 370.16,5.26 369.66,4.41C369.47,4.08 369.49,4 369.38,3.65Q369.14,2.89 368.4,0" style="stroke-miterlimit: 1; vector-effect: non-scaling-stroke; fill: none; stroke: rgb(180, 134, 64); stroke-opacity: 1; stroke-width: 2px;"/></g><g class="contourlevel"><path class="openline" d="M0,421.3Q2.53,420.47 3.81,420.38C5.07,420.29 6.4,420.32 7.62,420.73C8.94,421.17 10.72,422.47 11.42,423.06C11.74,423.33 11.8,423.4 12.03,423.76C12.56,424.58 13.66,426.66 14.04,428.17C14.4,429.61 14.42,431.12 14.34,432.59Q14.26,434.07 13.55,437" style="stroke-miterlimit: 1; vector-effect: non-scaling-stroke; fill: none; stroke: rgb(188, 147, 69); stroke-opacity: 1; stroke-width: 2px;"/><path class="openline" d="M377,6.67Q374.3,4.95 373.7,4.41C373.43,4.17 373.39,4.12 373.19,3.82Q372.72,3.12 371.24,0" style="stroke-miterlimit: 1; vector-effect: non-scaling-stroke; fill: none; stroke: rgb(188, 147, 69); stroke-opacity: 1; stroke-width: 2px;"/></g><g class="contourlevel"><path class="openline" d="M0,423.79Q2.89,423.33 3.81,423.41C4.34,423.46 4.57,423.6 5.05,423.76C5.76,424 6.8,424.18 7.62,424.76C8.66,425.5 9.93,427 10.56,428.17C11.09,429.14 11.22,430.33 11.42,431.15C11.56,431.71 11.68,431.98 11.72,432.59Q11.79,433.66 11.4,437" style="stroke-miterlimit: 1; vector-effect: non-scaling-stroke; fill: none; stroke: rgb(195, 160, 78); stroke-opacity: 1; stroke-width: 2px;"/><path class="openline" d="M377,3.44L374.03,0" style="stroke-miterlimit: 1; vector-effect: non-scaling-stroke; fill: none; stroke: rgb(195, 160, 78); stroke-opacity: 1; stroke-width: 2px;"/></g><g class="contourlevel"><path class="openline" d="M0,426.03Q2.67,426 3.81,426.39C4.87,426.75 5.98,427.6 6.65,428.17C7.1,428.55 7.3,428.79 7.62,429.29C8.13,430.08 8.85,431.38 9.16,432.59Q9.51,433.92 9.47,437" style="stroke-miterlimit: 1; vector-effect: non-scaling-stroke; fill: none; stroke: rgb(202, 174, 89); stroke-opacity: 1; stroke-width: 2px;"/><path class="openline" d="M377,0.19L376.83,0" style="stroke-miterlimit: 1; vector-effect: non-scaling-stroke; fill: none; stroke: rgb(202, 174, 89); stroke-opacity: 1; stroke-width: 2px;"/></g><g class="contourlevel"><path class="openline" d="M0,428.26Q2.73,428.73 3.81,429.44C4.91,430.16 5.91,431.36 6.53,432.59Q7.18,433.87 7.54,437" style="stroke-miterlimit: 1; vector-effect: non-scaling-stroke; fill: none; stroke: rgb(207, 188, 102); stroke-opacity: 1; stroke-width: 2px;"/></g><g class="contourlevel"><path class="openline" d="M0,430.39Q2.85,431.54 3.795,432.605Q4.78,433.72 5.7,437" style="stroke-miterlimit: 1; vector-effect: non-scaling-stroke; fill: none; stroke: rgb(213, 202, 117); stroke-opacity: 1; stroke-width: 2px;"/></g><g class="contourlevel"><path class="openline" d="M0,432.51L3.87,437" style="stroke-miterlimit: 1; vector-effect: non-scaling-stroke; fill: none; stroke: rgb(219, 216, 134); stroke-opacity: 1; stroke-width: 2px;"/></g><g class="contourlevel"><path class="openline" d="M0,434.75L1.94,437" style="stroke-miterlimit: 1; vector-effect: non-scaling-stroke; fill: none; stroke: rgb(225, 231, 152); stroke-opacity: 1; stroke-width: 2px;"/></g><g class="contourlevel"/></g></g></g></g><g class="overplot"/><path class="xlines-above crisp" d="" style="fill: none; stroke-width: 1px; stroke: rgb(0, 0, 0); stroke-opacity: 0;"/><path class="ylines-above crisp" d="" style="fill: none; stroke-width: 1px; stroke: rgb(0, 0, 0); stroke-opacity: 0;"/><g class="overlines-above"/><g class="xaxislayer-above"><path class="xtick ticks crisp" d="M0,478v5" transform="translate(90.83,0)" style="stroke: rgb(51, 51, 51); stroke-opacity: 1; stroke-width: 1px;"/><path class="xtick ticks crisp" d="M0,478v5" transform="translate(174.61,0)" style="stroke: rgb(51, 51, 51); stroke-opacity: 1; stroke-width: 1px;"/><path class="xtick ticks crisp" d="M0,478v5" transform="translate(258.39,0)" style="stroke: rgb(51, 51, 51); stroke-opacity: 1; stroke-width: 1px;"/><path class="xtick ticks crisp" d="M0,478v5" transform="translate(342.17,0)" style="stroke: rgb(51, 51, 51); stroke-opacity: 1; stroke-width: 1px;"/><g class="xtick"><text text-anchor="middle" x="0" y="497.4" transform="translate(90.83,0)" style="font-family: 'Open Sans', verdana, arial, sans-serif; font-size: 12px; fill: rgb(51, 51, 51); fill-opacity: 1; white-space: pre; opacity: 1;">0.2</text></g><g class="xtick"><text text-anchor="middle" x="0" y="497.4" style="font-family: 'Open Sans', verdana, arial, sans-serif; font-size: 12px; fill: rgb(51, 51, 51); fill-opacity: 1; white-space: pre; opacity: 1;" transform="translate(174.61,0)">0.4</text></g><g class="xtick"><text text-anchor="middle" x="0" y="497.4" style="font-family: 'Open Sans', verdana, arial, sans-serif; font-size: 12px; fill: rgb(51, 51, 51); fill-opacity: 1; white-space: pre; opacity: 1;" transform="translate(258.39,0)">0.6</text></g><g class="xtick"><text text-anchor="middle" x="0" y="497.4" style="font-family: 'Open Sans', verdana, arial, sans-serif; font-size: 12px; fill: rgb(51, 51, 51); fill-opacity: 1; white-space: pre; opacity: 1;" transform="translate(342.17,0)">0.8</text></g></g><g class="yaxislayer-above"><path class="ytick ticks crisp" d="M27,0h-5" transform="translate(0,452.72)" style="stroke: rgb(51, 51, 51); stroke-opacity: 1; stroke-width: 1px;"/><path class="ytick ticks crisp" d="M27,0h-5" transform="translate(0,404.17)" style="stroke: rgb(51, 51, 51); stroke-opacity: 1; stroke-width: 1px;"/><path class="ytick ticks crisp" d="M27,0h-5" transform="translate(0,355.61)" style="stroke: rgb(51, 51, 51); stroke-opacity: 1; stroke-width: 1px;"/><path class="ytick ticks crisp" d="M27,0h-5" transform="translate(0,307.06)" style="stroke: rgb(51, 51, 51); stroke-opacity: 1; stroke-width: 1px;"/><path class="ytick ticks crisp" d="M27,0h-5" transform="translate(0,258.5)" style="stroke: rgb(51, 51, 51); stroke-opacity: 1; stroke-width: 1px;"/><path class="ytick ticks crisp" d="M27,0h-5" transform="translate(0,209.94)" style="stroke: rgb(51, 51, 51); stroke-opacity: 1; stroke-width: 1px;"/><path class="ytick ticks crisp" d="M27,0h-5" transform="translate(0,161.39)" style="stroke: rgb(51, 51, 51); stroke-opacity: 1; stroke-width: 1px;"/><path class="ytick ticks crisp" d="M27,0h-5" transform="translate(0,112.83)" style="stroke: rgb(51, 51, 51); stroke-opacity: 1; stroke-width: 1px;"/><path class="ytick ticks crisp" d="M27,0h-5" transform="translate(0,64.28)" style="stroke: rgb(51, 51, 51); stroke-opacity: 1; stroke-width: 1px;"/><g class="ytick"><text text-anchor="end" x="19.6" y="4.199999999999999" transform="translate(0,452.72)" style="font-family: 'Open Sans', verdana, arial, sans-serif; font-size: 12px; fill: rgb(51, 51, 51); fill-opacity: 1; white-space: pre; opacity: 1;">0.1</text></g><g class="ytick"><text text-anchor="end" x="19.6" y="4.199999999999999" style="font-family: 'Open Sans', verdana, arial, sans-serif; font-size: 12px; fill: rgb(51, 51, 51); fill-opacity: 1; white-space: pre; opacity: 1;" transform="translate(0,404.17)">0.2</text></g><g class="ytick"><text text-anchor="end" x="19.6" y="4.199999999999999" style="font-family: 'Open Sans', verdana, arial, sans-serif; font-size: 12px; fill: rgb(51, 51, 51); fill-opacity: 1; white-space: pre; opacity: 1;" transform="translate(0,355.61)">0.3</text></g><g class="ytick"><text text-anchor="end" x="19.6" y="4.199999999999999" style="font-family: 'Open Sans', verdana, arial, sans-serif; font-size: 12px; fill: rgb(51, 51, 51); fill-opacity: 1; white-space: pre; opacity: 1;" transform="translate(0,307.06)">0.4</text></g><g class="ytick"><text text-anchor="end" x="19.6" y="4.199999999999999" style="font-family: 'Open Sans', verdana, arial, sans-serif; font-size: 12px; fill: rgb(51, 51, 51); fill-opacity: 1; white-space: pre; opacity: 1;" transform="translate(0,258.5)">0.5</text></g><g class="ytick"><text text-anchor="end" x="19.6" y="4.199999999999999" style="font-family: 'Open Sans', verdana, arial, sans-serif; font-size: 12px; fill: rgb(51, 51, 51); fill-opacity: 1; white-space: pre; opacity: 1;" transform="translate(0,209.94)">0.6</text></g><g class="ytick"><text text-anchor="end" x="19.6" y="4.199999999999999" style="font-family: 'Open Sans', verdana, arial, sans-serif; font-size: 12px; fill: rgb(51, 51, 51); fill-opacity: 1; white-space: pre; opacity: 1;" transform="translate(0,161.39)">0.7</text></g><g class="ytick"><text text-anchor="end" x="19.6" y="4.199999999999999" style="font-family: 'Open Sans', verdana, arial, sans-serif; font-size: 12px; fill: rgb(51, 51, 51); fill-opacity: 1; white-space: pre; opacity: 1;" transform="translate(0,112.83)">0.8</text></g><g class="ytick"><text text-anchor="end" x="19.6" y="4.199999999999999" style="font-family: 'Open Sans', verdana, arial, sans-serif; font-size: 12px; fill: rgb(51, 51, 51); fill-opacity: 1; white-space: pre; opacity: 1;" transform="translate(0,64.28)">0.9</text></g></g><g class="overaxes-above"/></g></g><g class="polarlayer"/><g class="ternarylayer"/><g class="geolayer"/><g class="funnelarealayer"/><g class="pielayer"/><g class="iciclelayer"/><g class="treemaplayer"/><g class="sunburstlayer"/><g class="glimages"/><defs id="topdefs-d6c083"><g class="clips"/></defs><g class="layer-above"><g class="imagelayer"/><g class="shapelayer"/></g><g class="infolayer"><g class="cbc68e01 colorbar" transform="translate(28,40)"><rect class="cbbg" x="385" y="0" width="87.03125" height="437" style="fill: rgb(0, 0, 0); fill-opacity: 0; stroke: rgb(68, 68, 68); stroke-opacity: 1; stroke-width: 0;"/><g class="cbfills" transform="translate(0,10)"/><g class="cblines" transform="translate(0,10)"><path class="cbline" d="M395,417h30" style="fill: none; stroke: rgb(34, 30, 27); stroke-opacity: 1; stroke-width: 2px;"/><path class="cbline" d="M395,396h30" style="fill: none; stroke: rgb(47, 38, 33); stroke-opacity: 1; stroke-width: 2px;"/><path class="cbline" d="M395,375h30" style="fill: none; stroke: rgb(59, 46, 38); stroke-opacity: 1; stroke-width: 2px;"/><path class="cbline" d="M395,354h30" style="fill: none; stroke: rgb(72, 54, 43); stroke-opacity: 1; stroke-width: 2px;"/><path class="cbline" d="M395,334h30" style="fill: none; stroke: rgb(85, 62, 47); stroke-opacity: 1; stroke-width: 2px;"/><path class="cbline" d="M395,313h30" style="fill: none; stroke: rgb(98, 69, 51); stroke-opacity: 1; stroke-width: 2px;"/><path class="cbline" d="M395,292h30" style="fill: none; stroke: rgb(112, 77, 54); stroke-opacity: 1; stroke-width: 2px;"/><path class="cbline" d="M395,271h30" style="fill: none; stroke: rgb(125, 85, 56); stroke-opacity: 1; stroke-width: 2px;"/><path class="cbline" d="M395,250h30" style="fill: none; stroke: rgb(138, 93, 57); stroke-opacity: 1; stroke-width: 2px;"/><path class="cbline" d="M395,229h30" style="fill: none; stroke: rgb(150, 102, 58); stroke-opacity: 1; stroke-width: 2px;"/><path class="cbline" d="M395,209h30" style="fill: none; stroke: rgb(161, 112, 59); stroke-opacity: 1; stroke-width: 2px;"/><path class="cbline" d="M395,188h30" style="fill: none; stroke: rgb(171, 122, 60); stroke-opacity: 1; stroke-width: 2px;"/><path class="cbline" d="M395,167h30" style="fill: none; stroke: rgb(180, 134, 64); stroke-opacity: 1; stroke-width: 2px;"/><path class="cbline" d="M395,146h30" style="fill: none; stroke: rgb(188, 147, 69); stroke-opacity: 1; stroke-width: 2px;"/><path class="cbline" d="M395,125h30" style="fill: none; stroke: rgb(195, 161, 78); stroke-opacity: 1; stroke-width: 2px;"/><path class="cbline" d="M395,104h30" style="fill: none; stroke: rgb(202, 174, 89); stroke-opacity: 1; stroke-width: 2px;"/><path class="cbline" d="M395,83h30" style="fill: none; stroke: rgb(207, 188, 102); stroke-opacity: 1; stroke-width: 2px;"/><path class="cbline" d="M395,63h30" style="fill: none; stroke: rgb(213, 202, 118); stroke-opacity: 1; stroke-width: 2px;"/><path class="cbline" d="M395,42h30" style="fill: none; stroke: rgb(219, 216, 134); stroke-opacity: 1; stroke-width: 2px;"/><path class="cbline" d="M395,21h30" style="fill: none; stroke: rgb(225, 231, 152); stroke-opacity: 1; stroke-width: 2px;"/><path class="cbline" d="M395,0h30" style="fill: none; stroke: rgb(232, 245, 171); stroke-opacity: 1; stroke-width: 2px;"/></g><g class="cbaxis crisp" transform="translate(0,-40)"><path class="ycbc68e01tick ticks crisp" d="M424.5,0h-6" transform="translate(0,362.75)" style="stroke: rgb(237, 237, 237); stroke-opacity: 1; stroke-width: 1px;"/><path class="ycbc68e01tick ticks crisp" d="M424.5,0h-6" transform="translate(0,258.5)" style="stroke: rgb(237, 237, 237); stroke-opacity: 1; stroke-width: 1px;"/><path class="ycbc68e01tick ticks crisp" d="M424.5,0h-6" transform="translate(0,154.25)" style="stroke: rgb(237, 237, 237); stroke-opacity: 1; stroke-width: 1px;"/><g class="ycbc68e01tick"><text text-anchor="start" x="427.9" y="4.199999999999999" transform="translate(0,467)" style="font-family: 'Open Sans', verdana, arial, sans-serif; font-size: 12px; fill: rgb(51, 51, 51); fill-opacity: 1; white-space: pre; opacity: 1;">0.01</text></g><g class="ycbc68e01tick"><text text-anchor="start" x="427.9" y="4.199999999999999" style="font-family: 'Open Sans', verdana, arial, sans-serif; font-size: 12px; fill: rgb(51, 51, 51); fill-opacity: 1; white-space: pre; opacity: 1;" transform="translate(0,362.75)">2.05</text></g><g class="ycbc68e01tick"><text text-anchor="start" x="427.9" y="4.199999999999999" style="font-family: 'Open Sans', verdana, arial, sans-serif; font-size: 12px; fill: rgb(51, 51, 51); fill-opacity: 1; white-space: pre; opacity: 1;" transform="translate(0,258.5)">4.09</text></g><g class="ycbc68e01tick"><text text-anchor="start" x="427.9" y="4.199999999999999" style="font-family: 'Open Sans', verdana, arial, sans-serif; font-size: 12px; fill: rgb(51, 51, 51); fill-opacity: 1; white-space: pre; opacity: 1;" transform="translate(0,154.25)">6.13</text></g><g class="ycbc68e01tick"><text text-anchor="start" x="427.9" y="4.199999999999999" style="font-family: 'Open Sans', verdana, arial, sans-serif; font-size: 12px; fill: rgb(51, 51, 51); fill-opacity: 1; white-space: pre; opacity: 1;" transform="translate(0,50.000000000000014)">8.17</text></g></g><g class="cbtitleunshift" transform="translate(-28,-40)"><g class="cbtitle"/></g><rect class="cboutline" x="395" y="10" width="30" height="417" style="stroke: rgb(68, 68, 68); stroke-opacity: 1; fill: none; stroke-width: 0;"/></g><g class="g-gtitle"><text class="gtitle" x="250" y="20" text-anchor="middle" dy="0em" style="font-family: 'Open Sans', verdana, arial, sans-serif; font-size: 17px; fill: rgb(51, 51, 51); opacity: 1; font-weight: normal; white-space: pre;">Best fit: BB7(1.81, 1.54) copula</text></g><g class="g-xtitle"/><g class="g-ytitle"/></g></svg>