<svg class="main-svg" xmlns="http://www.w3.org/2000/svg" xmlns:xlink="http://www.w3.org/1999/xlink" width="1500" height="1500" style="" viewBox="0 0 500 500"><rect x="0" y="0" width="500" height="500" style="fill: rgb(255, 255, 255); fill-opacity: 1;"/><defs id="defs-ececae"><g class="clips"><clipPath id="clipececaexyplot" class="plotclip"><rect width="370" height="437"/></clipPath><clipPath class="axesclip" id="clipececaex"><rect x="28" y="0" width="370" height="500"/></clipPath><clipPath class="axesclip" id="clipececaey"><rect x="0" y="40" width="500" height="437"/></clipPath><clipPath class="axesclip" id="clipececaexy"><rect x="28" y="40" width="370" height="437"/></clipPath><clipPath class="contourclip" id="clip48f4e1"><path d="M0,33.5L370,33.5L370,403.5L0,403.5Z"/></clipPath></g><g class="gradients"/><g class="patterns"/></defs><g class="bglayer"><rect class="bg" x="28" y="40" width="370" height="437" style="fill: rgb(237, 237, 237); fill-opacity: 1; stroke-width: 0;"/></g><g class="layer-below"><g class="imagelayer"/><g class="shapelayer"/></g><g class="cartesianlayer"><g class="subplot xy"><g class="layer-subplot"><g class="shapelayer"/><g class="imagelayer"/></g><g class="gridlayer"><g class="x"><path class="xgrid crisp" transform="translate(89.67,0)" d="M0,40v437" style="stroke: rgb(255, 255, 255); stroke-opacity: 1; stroke-width: 1px;"/><path class="xgrid crisp" transform="translate(171.89,0)" d="M0,40v437" style="stroke: rgb(255, 255, 255); stroke-opacity: 1; stroke-width: 1px;"/><path class="xgrid crisp" transform="translate(254.11,0)" d="M0,40v437" style="stroke: rgb(255, 255, 255); stroke-opacity: 1; stroke-width: 1px;"/><path class="xgrid crisp" transform="translate(336.33,0)" d="M0,40v437" style="stroke: rgb(255, 255, 255); stroke-opacity: 1; stroke-width: 1px;"/></g><g class="y"><path class="ygrid crisp" transform="translate(0,381.83)" d="M28,0h370" style="stroke: rgb(255, 255, 255); stroke-opacity: 1; stroke-width: 1px;"/><path class="ygrid crisp" transform="translate(0,299.61)" d="M28,0h370" style="stroke: rgb(255, 255, 255); stroke-opacity: 1; stroke-width: 1px;"/><path class="ygrid crisp" transform="translate(0,217.39)" d="M28,0h370" style="stroke: rgb(255, 255, 255); stroke-opacity: 1; stroke-width: 1px;"/><path class="ygrid crisp" transform="translate(0,135.17000000000002)" d="M28,0h370" style="stroke: rgb(255, 255, 255); stroke-opacity: 1; stroke-width: 1px;"/><path class="ygrid crisp" transform="translate(0,52.94)" d="M28,0h370" style="stroke: rgb(255, 255, 255); stroke-opacity: 1; stroke-width: 1px;"/></g></g><g class="zerolinelayer"><path class="yzl zl crisp" transform="translate(0,464.06)" d="M28,0h370" style="stroke: rgb(255, 255, 255); stroke-opacity: 1; stroke-width: 1px;"/></g><path class="xlines-below"/><path class="ylines-below"/><g class="overlines-below"/><g class="xaxislayer-below"/><g class="yaxislayer-below"/><g class="overaxes-below"/><g class="plot" transform="translate(28,40)" clip-path="url(#clipececaexyplot)"><g class="contourlayer mlayer"><g class="contour" clip-path="url(#clip48f4e1)" style="opacity: 1;"><g class="heatmapcoloring"/><g class="contourbg"/><g class="contourfill"/><g class="contourlines"><g class="contourlevel"/><g class="contourlevel"><path class="openline" d="M0,328.73Q0.8,326.26 1.22,325.02C1.64,323.77 2.08,322.51 2.52,321.28C2.95,320.08 3.37,318.94 3.805,317.72C4.26,316.45 4.72,315.09 5.19,313.8C5.65,312.54 6.16,311.18 6.57,310.07C6.9,309.18 7.21,308.34 7.47,307.66C7.66,307.15 7.77,306.89 7.98,306.33C8.34,305.4 8.92,303.84 9.4,302.59C9.88,301.34 10.55,299.66 10.87,298.85C11.02,298.46 11.06,298.35 11.21,297.97C11.48,297.29 11.94,296.13 12.34,295.12C12.8,293.96 13.38,292.53 13.84,291.38C14.24,290.4 14.67,289.36 14.95,288.67C15.13,288.24 15.19,288.09 15.38,287.64C15.74,286.78 16.39,285.16 16.92,283.9C17.46,282.6 18.06,281.24 18.6,279.96000000000004C19.11,278.75 19.59,277.62 20.1,276.43C20.63,275.2 21.3,273.68 21.73,272.69C22.01,272.05 22.17,271.66 22.42,271.09C22.71,270.43 23.01,269.76 23.37,268.95C23.85,267.88 24.54,266.34 25.04,265.22C25.45,264.3 25.85,263.41 26.16,262.72C26.38,262.23 26.49,262 26.73,261.48C27.15,260.57 27.89,258.93 28.44,257.74C28.94,256.64 29.61,255.21 29.9,254.58C30.02,254.31 30.04,254.28 30.17,254.01C30.5,253.31 31.33,251.51 31.92,250.27C32.5,249.04 33.08,247.83 33.67,246.59C34.27,245.33 34.87,244.06 35.48,242.79C36.09,241.52 36.72,240.23 37.33,238.975C37.93,237.74 38.5,236.56 39.11,235.32C39.74,234.04 40.4,232.7 41.035,231.425C41.64,230.2 42.21,229.06 42.82,227.84C43.46,226.57 44.14,225.22 44.775000000000006,223.955C45.39,222.74 45.96,221.58 46.58,220.37C47.22,219.11 47.89,217.8 48.540000000000006,216.535C49.17,215.3 49.78,214.11 50.41,212.89C51.04,211.66 51.69,210.42 52.33,209.18C52.98,207.93 53.64,206.66 54.29,205.42C54.92,204.22 55.52,203.07 56.155,201.85500000000002C56.82,200.58 57.57,199.16 58.21,197.94C58.77,196.87 59.45,195.6 59.8,194.94C59.97,194.61 60.01,194.55 60.19,194.21C60.6,193.45 61.58,191.6 62.18,190.47C62.68,189.54 63.17,188.61 63.54,187.92C63.79,187.45 63.91,187.24 64.18,186.73C64.66,185.83 65.61,184.05 66.18,182.99C66.6,182.21 66.92,181.61 67.27,180.96C67.59,180.37 67.83,179.94 68.2,179.26C68.75,178.26 69.7,176.48 70.22,175.52C70.54,174.91 70.72,174.58 71.01,174.04C71.37,173.37 71.78,172.63 72.24,171.78C72.83,170.69 73.83,168.87 74.27,168.05C74.49,167.65 74.54,167.54 74.75,167.16C75.12,166.48 75.75,165.33 76.31,164.31C76.96,163.12 77.73,161.71 78.41499999999999,160.44C79.08,159.22 79.73,158.03 80.38,156.83C81.03,155.64 81.66,154.5 82.325,153.285C83.02,152.01 83.82,150.55 84.47,149.36C85.01,148.37 85.58,147.31 85.96,146.62C86.19,146.2 86.27,146.06 86.51,145.62C86.98,144.77 87.97,142.95 88.55,141.88C88.99,141.08 89.34,140.43 89.7,139.77C90.02,139.19 90.23,138.8 90.59,138.15C91.13,137.16 92.11,135.38 92.63,134.41C92.96,133.8 93.13,133.47 93.43,132.92C93.79,132.25 94.2,131.51 94.66,130.67C95.25,129.58 96.26,127.75 96.7,126.93C96.91,126.54 96.97,126.43 97.17,126.05C97.54,125.37 98.16,124.22 98.72,123.2C99.37,122 100.14,120.58 100.83,119.305C101.49,118.09 102.12,116.92 102.76,115.72C103.41,114.52 104.05,113.32 104.71000000000001,112.095C105.39,110.83 106.13,109.46 106.77,108.25C107.34,107.18 108.02,105.88 108.38,105.22C108.55,104.9 108.59,104.84 108.77,104.51C109.18,103.75 110.15,101.9 110.75,100.77C111.25,99.83 111.75,98.87 112.12,98.18C112.36,97.72 112.47,97.53 112.73,97.04C113.2,96.15 114.12,94.39 114.69,93.3C115.13,92.46 115.51,91.74 115.86,91.07C116.15,90.52 116.33,90.18 116.65,89.56C117.16,88.59 118.06,86.86 118.6,85.82C118.99,85.07 119.27,84.52 119.6,83.89C119.92,83.28 120.16,82.8 120.53,82.09C121.06,81.07 121.94,79.36 122.46,78.35C122.81,77.67 123.03,77.23 123.33,76.63C123.66,75.98 123.97,75.39 124.37,74.61C124.91,73.55 125.77,71.85 126.27,70.87C126.59,70.23 126.78,69.86 127.07,69.29C127.4,68.63 127.74,67.96 128.15,67.14C128.69,66.06 129.54,64.38 130.03,63.4C130.35,62.77 130.53,62.4 130.81,61.84C131.14,61.17 131.48,60.48 131.89,59.66C132.42,58.58 133.25,56.91 133.74,55.92C134.07,55.26 134.27,54.86 134.55,54.28C134.87,53.63 135.18,52.99 135.57,52.19C136.09,51.12 136.89,49.48 137.39,48.45C137.74,47.73 137.98,47.22 138.28,46.6C138.58,45.97 138.84,45.45 139.19,44.71C139.69,43.67 140.46,42.05 140.98,40.97C141.37,40.14 141.7,39.45 142.02,38.78C142.28,38.22 142.45,37.87 142.75,37.24Q143.21,36.27 144.51,33.5" style="stroke-miterlimit: 1; vector-effect: non-scaling-stroke; fill: none; stroke: rgb(47, 38, 33); stroke-opacity: 1; stroke-width: 2px;"/><path class="openline" d="M370,258.99Q367.23,260.29 366.26,260.75C365.63,261.05 365.28,261.22 364.72,261.48C364.05,261.8 363.36,262.13 362.53,262.52C361.45,263.04 359.83,263.81 358.79,264.31C358.05,264.66 357.53,264.92 356.9,265.22C356.28,265.52 355.77,265.76 355.05,266.11C354.02,266.61 352.38,267.41 351.31,267.93C350.51,268.32 349.87,268.63 349.22,268.95C348.64,269.23 348.24,269.43 347.58,269.76C346.59,270.25 344.92,271.08 343.84,271.61C343.02,272.02 342.33,272.36 341.66,272.69C341.1,272.97 340.73,273.15 340.1,273.47C339.12,273.96 337.44,274.81 336.36,275.35C335.54,275.76 334.87,276.1 334.21,276.43C333.64,276.72 333.27,276.91 332.63,277.23C331.65,277.73 329.95,278.59 328.89,279.13C328.11,279.53 327.52,279.84 326.87,280.17C326.27,280.47 325.83,280.69 325.15,281.04C324.14,281.56 322.43,282.44 321.41,282.97C320.7,283.34 320.22,283.58 319.61,283.9C318.98,284.23 318.43,284.51 317.68,284.9C316.64,285.44 314.91,286.34 313.94,286.85C313.32,287.17 312.98,287.35 312.43,287.64C311.76,287.99 311.04,288.37 310.2,288.81C309.11,289.38 307.35,290.3 306.46,290.77C305.97,291.03 305.78,291.14 305.32,291.38C304.63,291.75 303.67,292.25 302.73,292.75C301.6,293.35 299.75,294.32 298.99,294.73C298.66,294.91 298.6,294.95 298.28,295.12C297.62,295.48 296.32,296.16 295.25,296.73C294.04,297.37 292.67,298.11 291.405,298.79C290.18,299.45 288.98,300.09 287.78,300.74C286.58,301.38 285.41,302.01 284.19500000000005,302.66999999999996C282.92,303.36 281.5,304.13 280.3,304.78C279.28,305.34 278.13,305.96 277.45,306.33C277.07,306.53 276.96,306.59 276.57,306.8C275.75,307.24 273.92,308.25 272.83,308.84C271.99,309.3 271.25,309.71 270.58,310.07C270.03,310.37 269.7,310.54 269.09,310.87C268.12,311.39 266.34,312.37 265.35,312.91C264.7,313.27 264.31,313.48 263.73,313.8C263.07,314.16 262.42,314.51 261.62,314.95C260.55,315.53 258.73,316.52 257.88,316.99C257.44,317.23 257.3,317.31 256.88,317.54C256.19,317.92 255.13,318.49 254.14,319.03C252.95,319.68 251.49,320.48 250.215,321.17499999999995C249,321.84 247.86,322.47 246.67,323.12C245.47,323.77 244.28,324.42 243.06,325.085C241.79,325.77 240.38,326.54 239.19,327.19C238.17,327.75 237.02,328.38 236.34,328.75C235.96,328.96 235.85,329.01 235.45,329.23C234.63,329.67 232.81,330.67 231.72,331.26C230.87,331.72 230.13,332.13 229.46,332.49C228.92,332.78 228.59,332.96 227.98,333.28C227.02,333.8 225.24,334.75 224.24,335.3C223.56,335.67 223.13,335.91 222.54,336.23C221.89,336.58 221.29,336.9 220.51,337.32C219.45,337.89 217.67,338.84 216.77,339.32C216.26,339.59 216.05,339.71 215.58,339.96C214.89,340.33 213.96,340.82 213.03,341.32C211.9,341.92 210.05,342.9 209.29,343.31C208.95,343.49 208.89,343.53 208.56,343.7C207.9,344.05 206.63,344.73 205.56,345.29C204.34,345.93 202.92,346.68 201.64499999999998,347.345C200.43,347.98 199.28,348.58 198.08,349.21C196.84,349.86 195.57,350.52 194.32,351.17C193.08,351.81 191.84,352.46 190.61,353.09C189.39,353.72 188.2,354.33 186.965,354.96000000000004C185.7,355.61 184.39,356.28 183.13,356.92C181.92,357.54 180.76,358.11 179.545,358.725C178.28,359.36 176.93,360.04 175.66,360.68C174.44,361.29 173.3,361.86 172.075,362.46500000000003C170.8,363.1 169.46,363.76 168.18,364.39C166.94,365 165.76,365.57 164.525,366.16999999999996C163.27,366.78 161.98,367.41 160.71,368.02C159.44,368.63 158.17,369.23 156.91,369.83000000000004C155.67,370.42 154.46,371 153.23,371.58C151.99,372.17 150.19,373 149.49,373.33C149.22,373.46 149.19,373.48 148.92,373.6C148.29,373.89 146.86,374.56 145.76,375.06C144.57,375.61 142.93,376.35 142.02,376.77C141.5,377.01 141.27,377.12 140.78,377.34C140.09,377.65 139.2,378.05 138.28,378.46C137.16,378.96 135.62,379.65 134.55,380.13C133.74,380.49 133.07,380.79 132.41,381.08C131.84,381.33 131.45,381.49 130.81,381.77C129.82,382.2 128.3,382.87 127.07,383.4C125.88,383.91 124.75,384.39 123.53999999999999,384.9C122.26,385.44 120.9,386.04 119.6,386.58C118.34,387.11 116.72,387.76 115.86,388.12C115.41,388.31 115.26,388.37 114.83,388.55C114.14,388.83 113.1,389.26 112.12,389.66C110.97,390.12 109.54,390.7 108.38,391.16C107.37,391.56 106.21,392.02 105.53,392.29C105.15,392.44 105.04,392.48 104.65,392.63C103.84,392.95 102.16,393.62 100.91,394.1C99.66,394.58 98.1,395.16 97.17,395.52C96.61,395.73 96.35,395.84 95.84,396.03C95.16,396.29 94.32,396.6 93.43,396.93C92.32,397.34 90.96,397.85 89.7,398.31C88.41,398.78 87.05,399.24 85.78,399.695C84.56,400.13 83.42,400.55 82.22,400.98C80.99,401.42 79.73,401.86 78.48,402.28Q77.24,402.7 74.77,403.5" style="stroke-miterlimit: 1; vector-effect: non-scaling-stroke; fill: none; stroke: rgb(47, 38, 33); stroke-opacity: 1; stroke-width: 2px;"/></g><g class="contourlevel"><path class="openline" d="M0,349.93Q0.71,348.35 1.13,347.44C1.64,346.32 2.38,344.74 2.86,343.7C3.2,342.96 3.44,342.42 3.74,341.79C4.03,341.17 4.29,340.68 4.64,339.96C5.14,338.94 5.96,337.29 6.48,336.23C6.86,335.45 7.14,334.84 7.47,334.19C7.77,333.59 8.01,333.17 8.37,332.49C8.9,331.49 9.8,329.76 10.32,328.75C10.68,328.06 10.89,327.61 11.21,327.01C11.55,326.37 11.9,325.79 12.32,325.02C12.9,323.97 13.9,322.15 14.37,321.28C14.62,320.82 14.71,320.64 14.95,320.21C15.34,319.52 15.93,318.51 16.49,317.54C17.15,316.39 17.94,315.02 18.67,313.77C19.4,312.53 20.21,311.2 20.88,310.07C21.44,309.13 22,308.16 22.42,307.47C22.7,307.01 22.84,306.82 23.15,306.33C23.71,305.44 24.94,303.47 25.48,302.59C25.78,302.11 25.88,301.93 26.16,301.48C26.6,300.79 27.29,299.77 27.88,298.85C28.53,297.85 29.48,296.34 29.9,295.71C30.09,295.43 30.12,295.4 30.31,295.12C30.79,294.41 32.2,292.3 32.81,291.38C33.16,290.85 33.31,290.6 33.64,290.11C34.11,289.42 34.77,288.5 35.36,287.64C36.01,286.7 36.89,285.37 37.37,284.7C37.62,284.35 37.69,284.27 37.96,283.9C38.53,283.11 40.08,280.93 40.61,280.17C40.84,279.83 40.88,279.76 41.11,279.44C41.58,278.78 42.65,277.35 43.32,276.43C43.88,275.66 44.36,274.96 44.85,274.3C45.28,273.72 45.59,273.33 46.08,272.69C46.8,271.74 47.82,270.35 48.735,269.135C49.7,267.86 51.13,266.03 51.74,265.22C52.01,264.86 52.06,264.77 52.32,264.43C52.83,263.76 53.97,262.35 54.65,261.48C55.18,260.8 55.57,260.26 56.06,259.65C56.56,259.02 57.05,258.44 57.61,257.74C58.28,256.9 59.25,255.65 59.8,254.97C60.13,254.56 60.25,254.44 60.6,254.01C61.28,253.18 62.57,251.56 63.585,250.325C64.61,249.07 66.1,247.29 66.72,246.53C66.98,246.21 67.02,246.15 67.27,245.84C67.81,245.18 69.16,243.61 69.85,242.79C70.32,242.23 70.57,241.91 71.01,241.38C71.58,240.7 72.37,239.81 73.01,239.06C73.61,238.35 74.19,237.63 74.75,236.98C75.25,236.39 75.66,235.94 76.2,235.32C76.88,234.53 77.88,233.32 78.48,232.63C78.86,232.2 79.03,232.03 79.42,231.58C80.11,230.8 81.68,228.95 82.22,228.34C82.43,228.1 82.45,228.09 82.67,227.84C83.26,227.17 84.85,225.34 85.94999999999999,224.09500000000003C87.05,222.85 88.66,221.05 89.25,220.37C89.47,220.12 89.48,220.09 89.7,219.84C90.24,219.22 91.9,217.4 92.57,216.63C92.94,216.2 93.07,216.04 93.43,215.63C94.04,214.94 95.23,213.66 95.91,212.89C96.4,212.33 96.69,211.97 97.17,211.44C97.77,210.76 98.6,209.89 99.25,209.16C99.84,208.5 100.35,207.89 100.91,207.27C101.47,206.65 102.01,206.07 102.6,205.42C103.25,204.69 104.04,203.78 104.65,203.1C105.13,202.57 105.44,202.23 105.94,201.68C106.63,200.92 107.76,199.62 108.38,198.93C108.75,198.52 108.91,198.37 109.29,197.94C109.98,197.18 111.56,195.37 112.12,194.75C112.35,194.49 112.38,194.47 112.62,194.21C113.24,193.53 114.79,191.77 115.9,190.515C117.06,189.21 118.29,187.82 119.43,186.535C120.51,185.32 121.87,183.78 122.56,182.99C122.91,182.59 123,182.47 123.33,182.09C123.92,181.41 125.14,180.05 125.83,179.26C126.32,178.7 126.61,178.34 127.07,177.8C127.66,177.12 128.43,176.26 129.07,175.52C129.67,174.82 130.25,174.12 130.81,173.47C131.32,172.88 131.74,172.41 132.28,171.78C132.96,170.99 133.96,169.78 134.55,169.09C134.92,168.66 135.07,168.5 135.45,168.05C136.16,167.22 137.41,165.7 138.425,164.48000000000002C139.48,163.21 141.14,161.23 141.67,160.57C141.85,160.35 141.85,160.34 142.02,160.13C142.5,159.54 144.03,157.68 144.72,156.83C145.15,156.3 145.36,156.03 145.76,155.53C146.31,154.85 147.09,153.9 147.72,153.1C148.33,152.34 148.96,151.51 149.49,150.84C149.92,150.29 150.2,149.95 150.67,149.36C151.36,148.48 152.77,146.63 153.23,146.05C153.4,145.84 153.4,145.84 153.57,145.62C154.06,144.99 155.84,142.65 156.42,141.88C156.68,141.54 156.72,141.47 156.97,141.14C157.47,140.48 158.55,139.05 159.22,138.15C159.77,137.41 160.23,136.76 160.71,136.11C161.14,135.52 161.47,135.08 161.96,134.41C162.67,133.43 163.67,132.03 164.54,130.81C165.44,129.54 166.62,127.88 167.28,126.93C167.66,126.38 167.83,126.13 168.18,125.63C168.65,124.95 169.27,124.06 169.86,123.2C170.51,122.24 171.48,120.79 171.92,120.14C172.13,119.83 172.17,119.78 172.38,119.46C172.88,118.72 174.25,116.63 174.85,115.72C175.19,115.2 175.35,114.97 175.66,114.48C176.11,113.79 176.69,112.89 177.27,111.98C177.96,110.9 178.75,109.65 179.51,108.435C180.31,107.16 181.28,105.6 181.94,104.51C182.41,103.74 182.74,103.18 183.13,102.54C183.5,101.93 183.78,101.47 184.2,100.77C184.81,99.76 185.95,97.83 186.41,97.04C186.62,96.68 186.67,96.59 186.87,96.24C187.26,95.57 187.98,94.34 188.57,93.3C189.23,92.14 189.95,90.86 190.64,89.62C191.34,88.36 192.09,87.01 192.74,85.82C193.31,84.77 193.98,83.52 194.34,82.85C194.52,82.51 194.56,82.44 194.75,82.09C195.16,81.32 196.14,79.49 196.73,78.35C197.23,77.4 197.73,76.42 198.08,75.73C198.31,75.28 198.41,75.09 198.65,74.61C199.1,73.73 199.97,72 200.54,70.87C201.01,69.93 201.48,68.98 201.82,68.29C202.05,67.83 202.14,67.63 202.38,67.14C202.81,66.25 203.63,64.57 204.19,63.4C204.68,62.38 205.24,61.19 205.56,60.51C205.73,60.14 205.77,60.04 205.95,59.66C206.32,58.85 207.11,57.16 207.68,55.92C208.24,54.7 208.78,53.51 209.32999999999998,52.275C209.89,51.02 210.46,49.72 211.02,48.45C211.57,47.2 212.3,45.53 212.65,44.71C212.82,44.31 212.87,44.19 213.03,43.81C213.32,43.13 213.8,41.98 214.23,40.97C214.72,39.81 215.33,38.35 215.79,37.24C216.16,36.36 216.49,35.53 216.77,34.85Q216.98,34.34 217.31,33.5" style="stroke-miterlimit: 1; vector-effect: non-scaling-stroke; fill: none; stroke: rgb(59, 46, 38); stroke-opacity: 1; stroke-width: 2px;"/><path class="openline" d="M370,186.19Q369.16,186.52 368.65,186.73C367.97,187.01 367.14,187.34 366.26,187.71C365.15,188.17 363.69,188.78 362.53,189.27C361.52,189.7 360.37,190.18 359.69,190.47C359.31,190.63 359.19,190.68 358.79,190.85C357.97,191.2 356.3,191.93 355.05,192.48C353.78,193.04 352.48,193.61 351.225,194.17000000000002C349.99,194.72 348.8,195.26 347.58,195.82C346.34,196.39 344.65,197.18 343.84,197.55C343.46,197.73 343.36,197.77 342.99,197.94C342.31,198.26 341.12,198.82 340.1,199.31C338.93,199.87 337.25,200.69 336.36,201.12C335.87,201.36 335.67,201.45 335.21,201.68C334.52,202.02 333.57,202.49 332.63,202.96C331.5,203.53 329.77,204.4 328.89,204.85C328.41,205.09 328.22,205.19 327.77,205.42C327.08,205.77 326.1,206.27 325.15,206.77C324.01,207.36 322.18,208.34 321.41,208.75C321.06,208.94 320.99,208.98 320.65,209.16C319.98,209.52 318.73,210.19 317.68,210.76C316.49,211.41 315.14,212.16 313.88,212.86C312.64,213.55 311.36,214.27 310.2,214.93C309.16,215.52 307.93,216.24 307.26,216.63C306.91,216.83 306.82,216.88 306.46,217.09C305.67,217.55 303.74,218.69 302.73,219.3C302.03,219.72 301.57,220 300.96,220.37C300.32,220.76 299.76,221.09 298.99,221.56C297.9,222.22 296.34,223.19 295.065,223.99C293.85,224.75 292.6,225.54 291.52,226.23C290.61,226.81 289.71,227.39 289.02,227.84C288.53,228.15 288.3,228.31 287.78,228.65C286.87,229.25 284.78,230.62 284.04,231.12C283.72,231.33 283.67,231.37 283.36,231.58C282.71,232.02 281.26,232.99 280.3,233.64C279.44,234.23 278.55,234.85 277.87,235.32C277.37,235.67 277.12,235.84 276.57,236.22C275.62,236.88 273.96,238.06 272.69,238.96C271.47,239.83 270.07,240.83 269.09,241.54C268.42,242.03 267.98,242.36 267.39,242.79C266.74,243.27 266.09,243.73 265.35,244.28C264.45,244.95 263.02,246.03 262.36,246.53C262.03,246.78 261.96,246.82 261.62,247.08C260.85,247.66 258.51,249.44 257.88,249.93C257.66,250.1 257.66,250.1 257.45,250.27C256.87,250.73 255.02,252.14 254.14,252.83C253.55,253.3 253.21,253.58 252.66,254.01C251.99,254.54 251.16,255.17 250.4,255.78C249.6,256.41 248.65,257.19 247.97,257.74C247.47,258.14 247.2,258.35 246.67,258.78C245.82,259.47 243.96,261 243.37,261.48C243.16,261.65 243.15,261.65 242.93,261.83C242.27,262.36 240.29,264.02 239.01999999999998,265.07500000000005C237.8,266.09 236.28,267.34 235.45,268.05C235,268.43 234.84,268.58 234.41,268.95C233.72,269.54 232.51,270.54 231.72,271.22C231.09,271.76 230.62,272.18 230.03,272.69C229.38,273.25 228.68,273.83 227.98,274.43C227.24,275.07 226.38,275.84 225.7,276.43C225.16,276.89 224.8,277.18 224.24,277.67C223.45,278.36 222.09,279.58 221.41,280.17C221.03,280.5 220.91,280.59 220.51,280.94C219.72,281.63 218.18,282.99 216.965,284.07C215.68,285.21 214.29,286.44 212.985,287.6C211.73,288.71 209.97,290.26 209.29,290.88C209.03,291.12 209.01,291.15 208.75,291.38C208.13,291.94 206.32,293.52 205.56,294.21C205.13,294.59 204.98,294.75 204.57,295.12C203.88,295.74 202.58,296.87 201.82,297.56C201.27,298.06 200.93,298.37 200.4,298.85C199.72,299.46 198.81,300.25 198.08,300.9C197.43,301.49 196.85,302.03 196.23,302.59C195.61,303.15 195,303.66 194.34,304.25C193.61,304.9 192.74,305.73 192.06,306.33C191.53,306.81 191.17,307.1 190.61,307.59C189.84,308.27 188.56,309.46 187.87,310.07C187.46,310.43 187.3,310.56 186.87,310.93C186.1,311.6 184.28,313.26 183.66,313.8C183.41,314.02 183.38,314.03 183.13,314.25C182.45,314.84 180.65,316.45 179.40499999999997,317.55C178.16,318.65 176.33,320.24 175.66,320.83C175.41,321.05 175.4,321.07 175.16,321.28C174.55,321.82 172.7,323.39 171.92,324.08C171.47,324.47 171.3,324.64 170.87,325.02C170.18,325.62 168.97,326.62 168.18,327.3C167.56,327.84 167.11,328.25 166.52,328.75C165.87,329.31 165.15,329.89 164.44,330.49C163.69,331.13 162.8,331.92 162.12,332.49C161.59,332.93 161.27,333.18 160.71,333.65C159.89,334.34 158.32,335.69 157.66,336.23C157.35,336.48 157.29,336.52 156.97,336.78C156.21,337.4 154.43,338.89 153.175,339.91499999999996C151.94,340.93 150.32,342.22 149.49,342.9C149.06,343.25 148.94,343.37 148.53,343.7C147.85,344.25 146.6,345.22 145.76,345.89C145.06,346.45 144.48,346.94 143.85,347.44C143.24,347.93 142.7,348.32 142.02,348.85C141.15,349.53 139.74,350.67 139.07,351.18C138.73,351.44 138.64,351.49 138.28,351.76C137.47,352.37 135.64,353.8 134.365,354.765C133.15,355.68 131.76,356.7 130.81,357.42C130.17,357.91 129.78,358.22 129.2,358.65C128.54,359.14 127.84,359.62 127.07,360.18C126.15,360.85 124.72,361.92 124.06,362.39C123.74,362.62 123.67,362.66 123.33,362.89C122.57,363.42 120.39,364.97 119.6,365.54C119.23,365.81 119.15,365.88 118.8,366.13C118.13,366.61 116.8,367.49 115.86,368.14C115,368.73 114.08,369.39 113.39,369.86C112.9,370.19 112.65,370.34 112.12,370.69C111.2,371.3 109.09,372.71 108.38,373.19C108.1,373.38 108.07,373.41 107.79,373.6C107.16,374.02 105.65,374.97 104.65,375.62C103.73,376.21 102.71,376.9 102.02,377.34C101.57,377.62 101.39,377.72 100.91,378.02C100.03,378.56 98.06,379.79 97.17,380.35C96.68,380.66 96.49,380.8 96.03,381.08C95.34,381.5 94.37,382.06 93.43,382.62C92.3,383.29 90.97,384.1 89.73,384.83000000000004C88.48,385.56 87.11,386.35 85.96,387.01C84.99,387.57 83.98,388.16 83.29,388.55C82.86,388.79 82.68,388.88 82.22,389.13C81.35,389.6 79.53,390.6 78.48,391.18C77.71,391.6 77.13,391.95 76.49,392.29C75.89,392.61 75.44,392.82 74.75,393.18C73.74,393.7 72.01,394.6 71.01,395.13C70.33,395.49 69.91,395.73 69.31,396.03C68.66,396.36 68.05,396.64 67.27,397.02C66.21,397.54 64.56,398.36 63.54,398.86C62.82,399.21 62.33,399.47 61.71,399.76C61.08,400.06 60.54,400.3 59.8,400.64C58.76,401.12 57.18,401.86 56.06,402.37Q55.15,402.79 53.57,403.5" style="stroke-miterlimit: 1; vector-effect: non-scaling-stroke; fill: none; stroke: rgb(59, 46, 38); stroke-opacity: 1; stroke-width: 2px;"/></g><g class="contourlevel"><path class="openline" d="M0,360.59Q0.68,359.4 1.1,358.65C1.69,357.61 2.72,355.77 3.19,354.91C3.43,354.46 3.5,354.31 3.74,353.89C4.13,353.2 4.8,352.15 5.38,351.18C6.05,350.06 6.8,348.78 7.555,347.565C8.34,346.29 9.36,344.76 10.03,343.7C10.5,342.96 10.8,342.42 11.21,341.8C11.62,341.18 12,340.68 12.5,339.96C13.2,338.95 14.14,337.52 15,336.295C15.89,335.03 17.08,333.44 17.75,332.49C18.15,331.93 18.32,331.65 18.69,331.14C19.2,330.45 19.93,329.56 20.55,328.75C21.18,327.92 21.88,326.91 22.42,326.23C22.8,325.75 23.02,325.53 23.44,325.02C24.16,324.15 25.29,322.66 26.3,321.43499999999995C27.39,320.11 28.61,318.65 29.74,317.34000000000003C30.8,316.11 32.17,314.6 32.86,313.8C33.21,313.4 33.3,313.26 33.64,312.88C34.25,312.19 35.59,310.82 36.27,310.07C36.72,309.57 36.92,309.3 37.37,308.82C38.02,308.12 39.14,307.05 39.82,306.33C40.32,305.8 40.61,305.45 41.11,304.93C41.78,304.24 42.83,303.27 43.51,302.59C44.03,302.07 44.33,301.72 44.85,301.21C45.55,300.52 46.67,299.51 47.36,298.85C47.85,298.38 48.09,298.11 48.59,297.64C49.33,296.95 50.7,295.76 51.38,295.12C51.78,294.75 51.91,294.59 52.32,294.21C53.07,293.52 54.97,291.92 55.57,291.38C55.81,291.17 55.82,291.14 56.06,290.93C56.73,290.34 58.62,288.75 59.879999999999995,287.705C61.11,286.69 62.68,285.4 63.54,284.72C64,284.36 64.18,284.24 64.62,283.9C65.31,283.36 66.42,282.44 67.27,281.79C68.04,281.21 68.83,280.67 69.5,280.17C70.06,279.75 70.39,279.45 71.01,278.99C71.96,278.28 73.43,277.24 74.67,276.37C75.92,275.48 77.47,274.39 78.48,273.72C79.13,273.29 79.53,273.07 80.1,272.69C80.76,272.25 81.41,271.78 82.22,271.25C83.28,270.56 84.67,269.69 85.91499999999999,268.92499999999995C87.17,268.15 88.56,267.29 89.7,266.63C90.62,266.09 91.52,265.62 92.21,265.22C92.69,264.94 92.91,264.79 93.43,264.49C94.33,263.97 96.12,263 97.17,262.45C97.92,262.06 98.49,261.81 99.12,261.48C99.73,261.17 100.2,260.89 100.91,260.53C101.93,260.01 103.56,259.22 104.65,258.72C105.48,258.34 106.2,258.04 106.87,257.74C107.42,257.49 107.76,257.31 108.38,257.04C109.35,256.62 110.86,255.98 112.12,255.48C113.38,254.98 114.68,254.49 115.95,254.035C117.18,253.6 118.37,253.2 119.6,252.81C120.83,252.42 122.08,252.05 123.33,251.72C124.57,251.39 125.88,251.07 127.07,250.82C128.15,250.6 129.51,250.39 130.16,250.27C130.46,250.21 130.5,250.19 130.81,250.14C131.54,250.03 133.3,249.83 134.55,249.77C135.79,249.71 137.03,249.67 138.28,249.75C139.55,249.83 140.87,249.95 142.12,250.245C143.36,250.53 144.58,250.9 145.76,251.49C147.04,252.13 148.44,252.98 149.48000000000002,254.01999999999998C150.52,255.06 151.37,256.46 152.01,257.74C152.6,258.92 152.97,260.14 153.255,261.38C153.55,262.63 153.67,263.95 153.75,265.22C153.83,266.47 153.79,267.71 153.73,268.95C153.67,270.2 153.47,271.96 153.36,272.69C153.31,273 153.29,273.04 153.23,273.34C153.11,273.99 152.9,275.35 152.68,276.43C152.43,277.62 152.11,278.93 151.78,280.17C151.45,281.42 151.08,282.67 150.69,283.9C150.3,285.13 149.9,286.32 149.465,287.54999999999995C149.01,288.82 148.52,290.12 148.02,291.38C147.52,292.64 146.88,294.15 146.46,295.12C146.19,295.74 146.01,296.08 145.76,296.63C145.46,297.3 145.16,298.02 144.78,298.85C144.28,299.94 143.49,301.57 142.97,302.59C142.61,303.3 142.33,303.77 142.02,304.38C141.69,305.01 141.44,305.58 141.05,306.33C140.5,307.38 139.53,309.17 139.01,310.07C138.71,310.59 138.56,310.81 138.28,311.29C137.88,311.98 137.41,312.88 136.87,313.8C136.21,314.94 135.35,316.33 134.575,317.58500000000004C133.81,318.83 132.94,320.22 132.25,321.28C131.72,322.09 131.25,322.74 130.81,323.4C130.43,323.97 130.21,324.37 129.78,325.02C129.11,326.03 128.02,327.58 127.13,328.83000000000004C126.26,330.07 125.22,331.54 124.51,332.49C124.05,333.11 123.75,333.44 123.33,334C122.83,334.67 122.29,335.46 121.71,336.23C121.06,337.08 120.14,338.19 119.6,338.88C119.26,339.32 119.14,339.5 118.78,339.96C118.1,340.82 116.81,342.39 115.795,343.62C114.75,344.88 113.16,346.77 112.57,347.44C112.36,347.68 112.33,347.69 112.12,347.93C111.58,348.53 109.98,350.43 109.29,351.18C108.91,351.59 108.75,351.72 108.38,352.12C107.74,352.8 106.55,354.17 105.86,354.91C105.39,355.41 105.12,355.65 104.65,356.14C103.99,356.83 102.98,357.95 102.29,358.65C101.78,359.17 101.43,359.47 100.91,359.99C100.23,360.67 99.26,361.72 98.57,362.39C98.05,362.89 97.7,363.18 97.17,363.68C96.45,364.36 95.38,365.48 94.68,366.13C94.2,366.58 93.93,366.78 93.43,367.23C92.68,367.91 91.31,369.25 90.62,369.86C90.24,370.2 90.1,370.29 89.7,370.64C88.9,371.33 87.39,372.7 86.16,373.76C84.85,374.89 83.39,376.11 82.065,377.2C80.84,378.21 79.35,379.34 78.48,380.06C77.97,380.48 77.75,380.7 77.27,381.08C76.59,381.62 75.58,382.32 74.75,382.95C73.94,383.57 73.05,384.3 72.36,384.81C71.85,385.18 71.57,385.35 71.01,385.75C70.06,386.42 68.47,387.61 67.205,388.5C65.98,389.36 64.55,390.3 63.54,391C62.82,391.5 62.32,391.88 61.7,392.29C61.08,392.7 60.54,393 59.8,393.47C58.74,394.14 57.21,395.16 55.935,395.945C54.72,396.7 53.44,397.45 52.32,398.12C51.35,398.7 50.3,399.37 49.61,399.76C49.19,400 49.04,400.07 48.59,400.31C47.73,400.78 45.89,401.81 44.85,402.4Q44.1,402.82 42.91,403.5" style="stroke-miterlimit: 1; vector-effect: non-scaling-stroke; fill: none; stroke: rgb(72, 54, 43); stroke-opacity: 1; stroke-width: 2px;"/><path class="openline" d="M370,125.85Q367.51,126.11 366.26,126.24C365.02,126.37 363.76,126.5 362.53,126.62C361.34,126.74 360.21,126.84 359.005,126.95500000000001C357.72,127.07 356.35,127.21 355.05,127.32C353.79,127.43 352.56,127.53 351.31,127.63C350.07,127.73 348.82,127.84 347.58,127.93C346.33,128.02 345.09,128.11 343.84,128.19C342.59,128.27 341.35,128.34 340.1,128.41C338.85,128.48 337.61,128.54 336.36,128.6C335.12,128.65 333.87,128.7 332.63,128.74C331.38,128.78 330.14,128.81 328.89,128.83C327.64,128.85 326.4,128.85 325.15,128.85C323.9,128.85 322.66,128.83 321.41,128.8C320.17,128.77 318.92,128.73 317.68,128.66C316.43,128.59 315.19,128.51 313.94,128.4C312.69,128.29 311.45,128.17 310.2,128.02C308.95,127.87 307.62,127.68 306.46,127.48C305.45,127.31 304.32,127.07 303.64,126.93C303.25,126.85 303.13,126.84 302.73,126.74C301.9,126.54 300.23,126.11 298.99,125.71C297.74,125.31 296.36,124.81 295.25,124.35C294.33,123.97 293.45,123.54 292.77,123.2C292.28,122.95 292.04,122.83 291.52,122.52C290.6,121.96 288.51,120.54 287.78,120C287.47,119.76 287.42,119.72 287.13,119.46C286.47,118.86 284.64,117.03 284.04,116.37C283.78,116.08 283.74,116.03 283.5,115.72C282.96,114.99 281.54,112.9 280.98,111.98C280.67,111.46 280.55,111.22 280.3,110.73C279.96,110.05 279.53,109.17 279.15,108.25C278.69,107.14 278.19,105.76 277.79,104.51C277.39,103.27 276.96,101.6 276.76,100.77C276.66,100.37 276.65,100.25 276.57,99.86C276.43,99.18 276.19,98.05 276.02,97.04C275.82,95.88 275.63,94.55 275.48,93.3C275.33,92.05 275.21,90.81 275.1,89.56C274.99,88.31 274.91,87.07 274.84,85.82C274.77,84.58 274.73,83.33 274.7,82.09C274.67,80.84 274.65,79.6 274.65,78.35C274.65,77.1 274.65,75.86 274.67,74.61C274.69,73.36 274.72,72.12 274.76,70.87C274.8,69.63 274.85,68.38 274.9,67.14C274.96,65.89 275.02,64.65 275.09,63.4C275.16,62.15 275.23,60.91 275.31,59.66C275.39,58.41 275.48,57.17 275.57,55.92C275.66,54.68 275.77,53.43 275.87,52.19C275.97,50.94 276.07,49.71 276.18,48.45C276.29,47.15 276.43,45.78 276.54499999999996,44.495000000000005C276.66,43.29 276.76,42.16 276.88,40.97C277,39.74 277.13,38.48 277.26,37.24Q277.39,35.99 277.65,33.5" style="stroke-miterlimit: 1; vector-effect: non-scaling-stroke; fill: none; stroke: rgb(72, 54, 43); stroke-opacity: 1; stroke-width: 2px;"/></g><g class="contourlevel"><path class="openline" d="M0,367.53Q0.57,366.71 0.96,366.13C1.59,365.19 2.92,363.1 3.37,362.39C3.55,362.11 3.56,362.06 3.74,361.79C4.16,361.15 5.3,359.61 5.97,358.65C6.52,357.85 6.98,357.1 7.47,356.44C7.89,355.87 8.22,355.53 8.7,354.91C9.43,353.98 10.43,352.6 11.39,351.38C12.45,350.04 13.67,348.55 14.79,347.23C15.84,346 17.21,344.5 17.9,343.7C18.25,343.29 18.34,343.15 18.69,342.76C19.31,342.07 20.7,340.7 21.38,339.96C21.81,339.49 21.98,339.25 22.42,338.79C23.09,338.09 24.4,336.92 25.08,336.23C25.53,335.78 25.7,335.54 26.16,335.1C26.88,334.4 28.37,333.12 29.04,332.49C29.42,332.14 29.51,332.01 29.9,331.65C30.68,330.94 32.25,329.61 33.47,328.595C34.73,327.54 36.63,326 37.37,325.44C37.66,325.23 37.7,325.22 37.98,325.02C38.62,324.55 40.17,323.31 41.11,322.64C41.86,322.11 42.51,321.73 43.16,321.28C43.75,320.87 44.16,320.52 44.85,320.06C45.87,319.37 47.46,318.39 48.74,317.62C49.95,316.89 51.12,316.19 52.32,315.53C53.5,314.88 54.65,314.3 55.870000000000005,313.695C57.14,313.07 58.5,312.41 59.8,311.85C61.05,311.31 62.7,310.65 63.54,310.36C63.96,310.21 64.09,310.2 64.49,310.07C65.18,309.85 66.27,309.42 67.27,309.12C68.42,308.78 69.76,308.43 71.01,308.16C72.25,307.89 73.5,307.66 74.75,307.51C75.99,307.36 77.24,307.25 78.48,307.24C79.73,307.23 80.98,307.28 82.22,307.45C83.47,307.63 84.74,307.88 85.96,308.3C87.23,308.74 88.52,309.24 89.7,310.07C91.03,311.01 92.49,312.47 93.43,313.8C94.26,314.98 94.76,316.27 95.2,317.54C95.62,318.76 95.87,320.03 96.05,321.28C96.22,322.52 96.27,323.77 96.26,325.02C96.25,326.26 96.14,327.51 95.99,328.75C95.84,330 95.61,331.25 95.34,332.49C95.07,333.74 94.72,335.08 94.38,336.23C94.08,337.23 93.65,338.32 93.43,339.01C93.3,339.41 93.29,339.54 93.14,339.96C92.85,340.8 92.19,342.45 91.65,343.7C91.09,345 90.43,346.36 89.805,347.63C89.2,348.85 88.62,350 87.97,351.18C87.31,352.38 86.61,353.55 85.88,354.76C85.11,356.04 84.13,357.63 83.44,358.65C82.98,359.34 82.63,359.75 82.22,360.34C81.77,360.99 81.39,361.64 80.86,362.39C80.19,363.33 78.95,364.88 78.48,365.52C78.28,365.8 78.27,365.84 78.06,366.13C77.5,366.87 75.96,368.77 74.905,370.03C73.89,371.25 72.56,372.82 71.85,373.6C71.49,373.99 71.36,374.08 71.01,374.46C70.38,375.13 69.1,376.62 68.4,377.34C67.96,377.8 67.72,377.97 67.27,378.42C66.58,379.1 65.41,380.41 64.71,381.08C64.25,381.52 64.01,381.69 63.54,382.12C62.8,382.8 61.43,384.19 60.74,384.81C60.35,385.16 60.21,385.25 59.8,385.6C59,386.29 57.5,387.66 56.269999999999996,388.71000000000004C54.95,389.83 53.46,391.05 52.120000000000005,392.11C50.9,393.07 49.52,394.07 48.59,394.8C47.97,395.28 47.63,395.61 47.06,396.03C46.4,396.52 45.65,396.98 44.85,397.53C43.89,398.2 42.35,399.34 41.71,399.76C41.44,399.94 41.39,399.95 41.11,400.13C40.4,400.58 38.31,401.91 37.37,402.54Q36.79,402.93 35.97,403.5" style="stroke-miterlimit: 1; vector-effect: non-scaling-stroke; fill: none; stroke: rgb(85, 62, 47); stroke-opacity: 1; stroke-width: 2px;"/><path class="openline" d="M370,70.55Q367.45,69.39 366.26,68.8C365.16,68.25 363.74,67.48 363.11,67.14C362.84,66.99 362.81,66.97 362.53,66.81C361.82,66.4 359.79,65.19 358.79,64.55C358.1,64.11 357.65,63.81 357.06,63.4C356.41,62.95 355.78,62.51 355.05,61.96C354.16,61.29 352.8,60.21 352.13,59.66C351.77,59.37 351.67,59.29 351.31,58.97C350.57,58.32 348.59,56.48 348.01,55.92C347.8,55.71 347.79,55.7 347.58,55.49C347.02,54.91 345.18,52.93 344.53,52.19C344.21,51.83 344.13,51.73 343.84,51.37C343.29,50.7 342.21,49.34 341.54,48.45C340.99,47.72 340.55,47.09 340.1,46.44C339.69,45.85 339.39,45.4 338.95,44.71C338.31,43.71 337.1,41.68 336.69,40.97C336.53,40.69 336.51,40.66 336.36,40.39C336.02,39.76 335.25,38.34 334.7,37.24Q334.11,36.05 332.95,33.5" style="stroke-miterlimit: 1; vector-effect: non-scaling-stroke; fill: none; stroke: rgb(85, 62, 47); stroke-opacity: 1; stroke-width: 2px;"/></g><g class="contourlevel"><path class="openline" d="M0,372.62Q1.44,370.74 2.09,369.86C2.68,369.06 3.21,368.21 3.74,367.54C4.17,367 4.5,366.7 4.97,366.13C5.67,365.29 6.92,363.61 7.47,362.98C7.72,362.7 7.78,362.68 8.05,362.39C8.7,361.7 10.17,359.95 11.3,358.735C12.48,357.47 13.74,356.19 15.004999999999999,354.96000000000004C16.27,353.73 17.63,352.49 18.905,351.345C20.1,350.28 21.53,349.01 22.42,348.32C22.93,347.92 23.18,347.8 23.66,347.44C24.35,346.92 25.3,346.08 26.16,345.45C27.01,344.83 28.09,344.18 28.78,343.7C29.24,343.38 29.41,343.21 29.9,342.88C30.77,342.29 32.72,341.1 33.64,340.59C34.16,340.3 34.4,340.22 34.88,339.96C35.57,339.59 36.45,339.05 37.37,338.58C38.48,338.02 40.07,337.3 41.11,336.88C41.83,336.59 42.36,336.46 42.98,336.23C43.61,336 44.11,335.74 44.85,335.5C45.88,335.16 47.34,334.75 48.59,334.48C49.83,334.21 51.07,333.98 52.32,333.86C53.56,333.74 54.82,333.68 56.06,333.75C57.31,333.82 58.57,333.96 59.8,334.29C61.07,334.63 62.81,335.39 63.54,335.78C63.87,335.95 63.92,335.99 64.21,336.23C64.88,336.78 66.72,338.62 67.27,339.29C67.51,339.58 67.55,339.63 67.72,339.96C68.11,340.69 68.87,342.43 69.21,343.7C69.54,344.93 69.68,346.19 69.75,347.44C69.82,348.68 69.76,349.94 69.64,351.18C69.52,352.43 69.29,353.67 69.02,354.91C68.75,356.16 68.34,357.62 68,358.65C67.76,359.39 67.5,359.89 67.27,360.52C67.04,361.14 66.91,361.67 66.62,362.39C66.2,363.43 65.48,365.02 64.92,366.13C64.45,367.05 63.91,367.93 63.54,368.62C63.28,369.1 63.2,369.34 62.91,369.86C62.4,370.78 61.21,372.73 60.62,373.6C60.29,374.09 60.12,374.26 59.8,374.72C59.32,375.41 58.67,376.49 58.05,377.34C57.42,378.2 56.58,379.15 56.06,379.84C55.7,380.32 55.58,380.57 55.18,381.08C54.49,381.97 53.22,383.4 52.155,384.595C51.01,385.87 49.77,387.23 48.540000000000006,388.495C47.31,389.76 46.03,391.02 44.765,392.20000000000005C43.55,393.33 41.8,394.8 41.11,395.45C40.82,395.72 40.8,395.78 40.52,396.03C39.89,396.58 38.21,397.83 37.37,398.53C36.8,399 36.5,399.33 35.96,399.76C35.29,400.29 34.44,400.82 33.64,401.41Q32.76,402.06 30.88,403.5" style="stroke-miterlimit: 1; vector-effect: non-scaling-stroke; fill: none; stroke: rgb(98, 69, 51); stroke-opacity: 1; stroke-width: 2px;"/></g><g class="contourlevel"><path class="openline" d="M0,376.6Q1.89,374.44 2.57,373.6C3.04,373.02 3.27,372.64 3.74,372.1C4.34,371.41 5.27,370.57 5.93,369.86C6.5,369.25 6.89,368.69 7.47,368.11C8.12,367.45 9,366.76 9.66,366.13C10.23,365.58 10.61,365.1 11.21,364.55C11.96,363.87 13.18,362.98 13.86,362.39C14.31,362 14.46,361.79 14.95,361.39C15.81,360.68 17.42,359.51 18.67,358.635C19.91,357.77 21.3,356.81 22.42,356.15C23.28,355.64 24.09,355.29 24.77,354.91C25.3,354.61 25.57,354.39 26.16,354.08C27.09,353.59 28.65,352.88 29.9,352.38C31.11,351.9 32.29,351.49 33.53,351.135C34.78,350.78 36.09,350.44 37.37,350.25C38.62,350.06 39.86,349.94 41.11,349.97C42.36,350 43.8,350.16 44.85,350.41C45.66,350.6 46.29,350.9 46.94,351.18C47.53,351.44 48,351.59 48.59,352.02C49.47,352.66 50.84,354.03 51.48,354.91C51.91,355.5 52.06,355.97 52.32,356.56C52.6,357.21 52.9,357.84 53.09,358.65C53.34,359.7 53.5,361.14 53.53,362.39C53.56,363.64 53.44,364.88 53.25,366.13C53.06,367.41 52.72,368.72 52.364999999999995,369.97C52.01,371.21 51.6,372.39 51.12,373.6C50.62,374.85 49.91,376.41 49.42,377.34C49.11,377.93 48.89,378.2 48.59,378.73C48.21,379.41 47.86,380.22 47.35,381.08C46.69,382.2 45.73,383.59 44.865,384.83000000000004C43.99,386.08 42.82,387.69 42.11,388.55C41.71,389.04 41.5,389.19 41.11,389.64C40.52,390.32 39.63,391.54 38.95,392.29C38.4,392.89 37.92,393.27 37.37,393.84C36.74,394.5 36.05,395.38 35.39,396.03C34.81,396.61 34.25,397 33.64,397.57C32.93,398.23 32.09,399.16 31.4,399.76C30.86,400.23 30.48,400.46 29.9,400.93Q29.06,401.61 26.9,403.5" style="stroke-miterlimit: 1; vector-effect: non-scaling-stroke; fill: none; stroke: rgb(112, 77, 54); stroke-opacity: 1; stroke-width: 2px;"/></g><g class="contourlevel"><path class="openline" d="M0,379.84Q1.78,378.07 2.46,377.34C2.97,376.79 3.22,376.39 3.74,375.87C4.43,375.17 5.62,374.25 6.3,373.6C6.77,373.15 6.96,372.86 7.47,372.41C8.27,371.7 10.13,370.36 10.73,369.86C10.97,369.66 10.97,369.62 11.21,369.43C11.86,368.92 13.99,367.43 14.95,366.85C15.51,366.51 15.81,366.42 16.33,366.13C17.02,365.74 17.8,365.17 18.69,364.7C19.78,364.13 21.34,363.42 22.42,363.02C23.21,362.73 23.87,362.6 24.52,362.39C25.1,362.2 25.49,361.98 26.16,361.81C27.14,361.56 28.65,361.27 29.9,361.18C31.14,361.09 32.41,361.08 33.64,361.28C34.88,361.49 36.15,361.72 37.305,362.41999999999996C38.66,363.24 40.26,364.84 41.08,366.195C41.78,367.35 42.01,368.62 42.22,369.86C42.42,371.09 42.41,372.36 42.32,373.6C42.23,374.85 41.94,376.36 41.69,377.34C41.52,378.01 41.3,378.4 41.11,378.98C40.9,379.63 40.77,380.29 40.48,381.08C40.08,382.16 39.37,383.72 38.8,384.81C38.33,385.7 37.76,386.48 37.37,387.17C37.08,387.69 36.99,387.99 36.65,388.55C36.07,389.51 34.58,391.64 34.07,392.29C33.88,392.53 33.84,392.53 33.64,392.77C33.14,393.37 31.8,395.23 31.09,396.03C30.64,396.54 30.35,396.73 29.9,397.2C29.25,397.88 28.33,399.07 27.63,399.76C27.11,400.28 26.71,400.53 26.16,401.04Q25.43,401.72 23.66,403.5" style="stroke-miterlimit: 1; vector-effect: non-scaling-stroke; fill: none; stroke: rgb(125, 85, 56); stroke-opacity: 1; stroke-width: 2px;"/></g><g class="contourlevel"><path class="openline" d="M0,382.6Q1.18,381.63 1.77,381.08C2.42,380.47 3.03,379.7 3.74,379.08C4.47,378.45 5.42,377.88 6.09,377.34C6.62,376.91 6.87,376.56 7.47,376.11C8.41,375.4 10.02,374.39 11.295000000000002,373.64C12.51,372.92 13.71,372.24 14.95,371.67C16.17,371.11 17.64,370.55 18.69,370.25C19.42,370.04 19.96,370 20.59,369.86C21.21,369.72 21.7,369.51 22.42,369.42C23.44,369.29 25.13,369.26 26.16,369.38C26.9,369.47 27.42,369.66 28.04,369.86C28.67,370.06 29.25,370.15 29.9,370.57C30.85,371.19 32.31,372.65 32.93,373.6C33.35,374.25 33.44,374.83 33.64,375.46C33.84,376.08 34.03,376.6 34.12,377.34C34.24,378.37 34.21,380.06 34.08,381.08C33.99,381.8 33.78,382.29 33.64,382.91C33.5,383.54 33.46,384.08 33.25,384.81C32.95,385.86 32.39,387.33 31.83,388.55C31.26,389.79 30.58,390.99 29.86,392.20500000000004C29.11,393.48 28.1,395.09 27.39,396.03C26.94,396.63 26.59,396.88 26.16,397.41C25.62,398.08 25.05,399.03 24.42,399.76C23.8,400.47 23.03,401.08 22.42,401.73Q21.87,402.32 20.9,403.5" style="stroke-miterlimit: 1; vector-effect: non-scaling-stroke; fill: none; stroke: rgb(138, 93, 57); stroke-opacity: 1; stroke-width: 2px;"/></g><g class="contourlevel"><path class="openline" d="M0,385.07Q2.76,382.63 3.74,381.94C4.32,381.53 4.66,381.43 5.19,381.08C5.87,380.63 6.59,379.95 7.47,379.41C8.54,378.75 10.52,377.78 11.21,377.5C11.46,377.4 11.5,377.42 11.75,377.34C12.37,377.13 13.83,376.44 14.95,376.15C16.13,375.84 17.44,375.59 18.69,375.57C19.93,375.55 21.32,375.67 22.42,376.01C23.38,376.31 24.29,376.85 24.95,377.34C25.46,377.72 25.78,378.04 26.16,378.55C26.65,379.21 27.19,380.12 27.49,381.08C27.83,382.18 27.95,383.57 27.93,384.81C27.91,386.06 27.66,387.37 27.35,388.55C27.06,389.67 26.37,391.13 26.16,391.75C26.08,392 26.1,392.04 26,392.29C25.72,392.98 24.75,394.96 24.09,396.03C23.55,396.91 22.87,397.63 22.42,398.31C22.07,398.84 21.97,399.18 21.56,399.76Q20.87,400.74 18.43,403.5" style="stroke-miterlimit: 1; vector-effect: non-scaling-stroke; fill: none; stroke: rgb(150, 102, 58); stroke-opacity: 1; stroke-width: 2px;"/></g><g class="contourlevel"><path class="openline" d="M0,387.16Q2.33,385.44 3.5650000000000004,384.65999999999997C4.82,383.86 6.15,383.04 7.47,382.43C8.71,381.86 9.96,381.4 11.225000000000001,381.08C12.45,380.77 13.72,380.5 14.95,380.51C16.17,380.52 17.44,380.52 18.58,381.105C19.96,381.81 21.69,383.54 22.395000000000003,384.91999999999996C22.98,386.06 22.98,387.33 22.99,388.55C23,389.78 22.73,391.05 22.42,392.275C22.1,393.54 21.64,394.79 21.07,396.03C20.46,397.35 19.64,398.68 18.84,399.935Q18.06,401.17 16.34,403.5" style="stroke-miterlimit: 1; vector-effect: non-scaling-stroke; fill: none; stroke: rgb(161, 112, 59); stroke-opacity: 1; stroke-width: 2px;"/></g><g class="contourlevel"><path class="openline" d="M0,389.14Q0.68,388.81 1.13,388.55C1.83,388.14 2.76,387.33 3.74,386.81C4.85,386.22 6.32,385.62 7.47,385.28C8.4,385.01 9.39,384.95 10.08,384.81C10.54,384.72 10.77,384.58 11.21,384.56C11.82,384.53 12.73,384.71 13.4,384.81C13.96,384.89 14.38,384.79 14.95,385.09C15.95,385.61 17.89,387.55 18.41,388.55C18.71,389.12 18.61,389.54 18.69,390.1C18.79,390.77 18.97,391.68 18.94,392.29C18.92,392.73 18.78,392.96 18.69,393.42C18.55,394.11 18.49,395.1 18.22,396.03C17.88,397.18 17.28,398.65 16.69,399.76C16.17,400.74 15.36,401.67 14.95,402.37Q14.69,402.82 14.36,403.5" style="stroke-miterlimit: 1; vector-effect: non-scaling-stroke; fill: none; stroke: rgb(171, 122, 60); stroke-opacity: 1; stroke-width: 2px;"/></g><g class="contourlevel"><path class="openline" d="M0,390.89Q2.67,389.42 3.74,389.03C4.49,388.76 5.09,388.73 5.73,388.55C6.33,388.38 6.77,388.09 7.47,388C8.47,387.87 10.41,387.96 11.21,388.15C11.62,388.25 11.74,388.31 12.09,388.55C12.81,389.05 14.45,390.69 14.95,391.41C15.19,391.76 15.25,391.88 15.35,392.29C15.54,393.09 15.63,395.03 15.5,396.03C15.41,396.73 15.12,397.17 14.95,397.77C14.77,398.41 14.74,399.01 14.47,399.76Q14.08,400.83 12.61,403.5" style="stroke-miterlimit: 1; vector-effect: non-scaling-stroke; fill: none; stroke: rgb(180, 134, 64); stroke-opacity: 1; stroke-width: 2px;"/></g><g class="contourlevel"><path class="openline" d="M0,392.6Q0.58,392.44 0.99,392.29C1.68,392.03 2.73,391.37 3.74,391.11C4.87,390.82 6.25,390.57 7.47,390.76C8.73,390.95 10.31,391.44 11.185,392.315C12.06,393.19 12.55,394.77 12.74,396.03C12.93,397.25 12.68,398.63 12.39,399.76C12.13,400.77 11.47,401.82 11.21,402.51Q11.06,402.92 10.9,403.5" style="stroke-miterlimit: 1; vector-effect: non-scaling-stroke; fill: none; stroke: rgb(188, 147, 69); stroke-opacity: 1; stroke-width: 2px;"/></g><g class="contourlevel"><path class="openline" d="M0,394.14Q2.49,393.24 3.74,393.18C4.98,393.12 6.45,393.23 7.47,393.75C8.42,394.23 9.27,395.08 9.75,396.03C10.27,397.05 10.38,398.52 10.32,399.76Q10.26,401.01 9.36,403.5" style="stroke-miterlimit: 1; vector-effect: non-scaling-stroke; fill: none; stroke: rgb(195, 160, 78); stroke-opacity: 1; stroke-width: 2px;"/></g><g class="contourlevel"><path class="openline" d="M0,395.68Q2.69,395.11 3.74,395.24C4.55,395.34 5.22,395.63 5.84,396.03C6.47,396.43 7.07,397.03 7.47,397.66C7.87,398.28 8.16,398.95 8.26,399.76Q8.39,400.81 7.82,403.5" style="stroke-miterlimit: 1; vector-effect: non-scaling-stroke; fill: none; stroke: rgb(201, 174, 89); stroke-opacity: 1; stroke-width: 2px;"/></g><g class="contourlevel"><path class="openline" d="M0,397.16Q2.72,397.03 3.74,397.51C4.68,397.95 5.55,398.82 5.99,399.76Q6.47,400.78 6.34,403.5" style="stroke-miterlimit: 1; vector-effect: non-scaling-stroke; fill: none; stroke: rgb(207, 188, 102); stroke-opacity: 1; stroke-width: 2px;"/></g><g class="contourlevel"><path class="openline" d="M0,398.62Q2.8,399.08 3.6100000000000003,399.89Q4.42,400.7 4.88,403.5" style="stroke-miterlimit: 1; vector-effect: non-scaling-stroke; fill: none; stroke: rgb(213, 202, 117); stroke-opacity: 1; stroke-width: 2px;"/></g><g class="contourlevel"><path class="openline" d="M0,400.14L3.36,403.5" style="stroke-miterlimit: 1; vector-effect: non-scaling-stroke; fill: none; stroke: rgb(219, 216, 134); stroke-opacity: 1; stroke-width: 2px;"/></g><g class="contourlevel"><path class="openline" d="M0,401.82L1.68,403.5" style="stroke-miterlimit: 1; vector-effect: non-scaling-stroke; fill: none; stroke: rgb(225, 231, 152); stroke-opacity: 1; stroke-width: 2px;"/></g><g class="contourlevel"/></g></g></g></g><g class="overplot"/><path class="xlines-above crisp" d="" style="fill: none; stroke-width: 1px; stroke: rgb(0, 0, 0); stroke-opacity: 0;"/><path class="ylines-above crisp" d="" style="fill: none; stroke-width: 1px; stroke: rgb(0, 0, 0); stroke-opacity: 0;"/><g class="overlines-above"/><g class="xaxislayer-above"><path class="xtick ticks crisp" d="M0,478v5" transform="translate(89.67,0)" style="stroke: rgb(51, 51, 51); stroke-opacity: 1; stroke-width: 1px;"/><path class="xtick ticks crisp" d="M0,478v5" transform="translate(171.89,0)" style="stroke: rgb(51, 51, 51); stroke-opacity: 1; stroke-width: 1px;"/><path class="xtick ticks crisp" d="M0,478v5" transform="translate(254.11,0)" style="stroke: rgb(51, 51, 51); stroke-opacity: 1; stroke-width: 1px;"/><path class="xtick ticks crisp" d="M0,478v5" transform="translate(336.33,0)" style="stroke: rgb(51, 51, 51); stroke-opacity: 1; stroke-width: 1px;"/><g class="xtick"><text text-anchor="middle" x="0" y="497.4" transform="translate(89.67,0)" style="font-family: 'Open Sans', verdana, arial, sans-serif; font-size: 12px; fill: rgb(51, 51, 51); fill-opacity: 1; white-space: pre; opacity: 1;">0.2</text></g><g class="xtick"><text text-anchor="middle" x="0" y="497.4" style="font-family: 'Open Sans', verdana, arial, sans-serif; font-size: 12px; fill: rgb(51, 51, 51); fill-opacity: 1; white-space: pre; opacity: 1;" transform="translate(171.89,0)">0.4</text></g><g class="xtick"><text text-anchor="middle" x="0" y="497.4" style="font-family: 'Open Sans', verdana, arial, sans-serif; font-size: 12px; fill: rgb(51, 51, 51); fill-opacity: 1; white-space: pre; opacity: 1;" transform="translate(254.11,0)">0.6</text></g><g class="xtick"><text text-anchor="middle" x="0" y="497.4" style="font-family: 'Open Sans', verdana, arial, sans-serif; font-size: 12px; fill: rgb(51, 51, 51); fill-opacity: 1; white-space: pre; opacity: 1;" transform="translate(336.33,0)">0.8</text></g></g><g class="yaxislayer-above"><path class="ytick ticks crisp" d="M27,0h-5" transform="translate(0,464.06)" style="stroke: rgb(51, 51, 51); stroke-opacity: 1; stroke-width: 1px;"/><path class="ytick ticks crisp" d="M27,0h-5" transform="translate(0,381.83)" style="stroke: rgb(51, 51, 51); stroke-opacity: 1; stroke-width: 1px;"/><path class="ytick ticks crisp" d="M27,0h-5" transform="translate(0,299.61)" style="stroke: rgb(51, 51, 51); stroke-opacity: 1; stroke-width: 1px;"/><path class="ytick ticks crisp" d="M27,0h-5" transform="translate(0,217.39)" style="stroke: rgb(51, 51, 51); stroke-opacity: 1; stroke-width: 1px;"/><path class="ytick ticks crisp" d="M27,0h-5" transform="translate(0,135.17000000000002)" style="stroke: rgb(51, 51, 51); stroke-opacity: 1; stroke-width: 1px;"/><path class="ytick ticks crisp" d="M27,0h-5" transform="translate(0,52.94)" style="stroke: rgb(51, 51, 51); stroke-opacity: 1; stroke-width: 1px;"/><g class="ytick"><text text-anchor="end" x="19.6" y="4.199999999999999" transform="translate(0,464.06)" style="font-family: 'Open Sans', verdana, arial, sans-serif; font-size: 12px; fill: rgb(51, 51, 51); fill-opacity: 1; white-space: pre; opacity: 1;">0</text></g><g class="ytick"><text text-anchor="end" x="19.6" y="4.199999999999999" style="font-family: 'Open Sans', verdana, arial, sans-serif; font-size: 12px; fill: rgb(51, 51, 51); fill-opacity: 1; white-space: pre; opacity: 1;" transform="translate(0,381.83)">0.2</text></g><g class="ytick"><text text-anchor="end" x="19.6" y="4.199999999999999" style="font-family: 'Open Sans', verdana, arial, sans-serif; font-size: 12px; fill: rgb(51, 51, 51); fill-opacity: 1; white-space: pre; opacity: 1;" transform="translate(0,299.61)">0.4</text></g><g class="ytick"><text text-anchor="end" x="19.6" y="4.199999999999999" style="font-family: 'Open Sans', verdana, arial, sans-serif; font-size: 12px; fill: rgb(51, 51, 51); fill-opacity: 1; white-space: pre; opacity: 1;" transform="translate(0,217.39)">0.6</text></g><g class="ytick"><text text-anchor="end" x="19.6" y="4.199999999999999" style="font-family: 'Open Sans', verdana, arial, sans-serif; font-size: 12px; fill: rgb(51, 51, 51); fill-opacity: 1; white-space: pre; opacity: 1;" transform="translate(0,135.17000000000002)">0.8</text></g><g class="ytick"><text text-anchor="end" x="19.6" y="4.199999999999999" style="font-family: 'Open Sans', verdana, arial, sans-serif; font-size: 12px; fill: rgb(51, 51, 51); fill-opacity: 1; white-space: pre; opacity: 1;" transform="translate(0,52.94)">1</text></g></g><g class="overaxes-above"/></g></g><g class="polarlayer"/><g class="ternarylayer"/><g class="geolayer"/><g class="funnelarealayer"/><g class="pielayer"/><g class="iciclelayer"/><g class="treemaplayer"/><g class="sunburstlayer"/><g class="glimages"/><defs id="topdefs-ececae"><g class="clips"/></defs><g class="layer-above"><g class="imagelayer"/><g class="shapelayer"/></g><g class="infolayer"><g class="cb48f4e1 colorbar" transform="translate(28,40)"><rect class="cbbg" x="377" y="0" width="94.65625" height="437" style="fill: rgb(0, 0, 0); fill-opacity: 0; stroke: rgb(68, 68, 68); stroke-opacity: 1; stroke-width: 0;"/><g class="cbfills" transform="translate(0,10)"/><g class="cblines" transform="translate(0,10)"><path class="cbline" d="M387,417h30" style="fill: none; stroke: rgb(34, 30, 27); stroke-opacity: 1; stroke-width: 2px;"/><path class="cbline" d="M387,396h30" style="fill: none; stroke: rgb(47, 38, 33); stroke-opacity: 1; stroke-width: 2px;"/><path class="cbline" d="M387,375h30" style="fill: none; stroke: rgb(59, 46, 38); stroke-opacity: 1; stroke-width: 2px;"/><path class="cbline" d="M387,354h30" style="fill: none; stroke: rgb(72, 54, 43); stroke-opacity: 1; stroke-width: 2px;"/><path class="cbline" d="M387,334h30" style="fill: none; stroke: rgb(85, 62, 47); stroke-opacity: 1; stroke-width: 2px;"/><path class="cbline" d="M387,313h30" style="fill: none; stroke: rgb(98, 69, 51); stroke-opacity: 1; stroke-width: 2px;"/><path class="cbline" d="M387,292h30" style="fill: none; stroke: rgb(112, 77, 54); stroke-opacity: 1; stroke-width: 2px;"/><path class="cbline" d="M387,271h30" style="fill: none; stroke: rgb(125, 85, 56); stroke-opacity: 1; stroke-width: 2px;"/><path class="cbline" d="M387,250h30" style="fill: none; stroke: rgb(138, 93, 57); stroke-opacity: 1; stroke-width: 2px;"/><path class="cbline" d="M387,229h30" style="fill: none; stroke: rgb(150, 102, 58); stroke-opacity: 1; stroke-width: 2px;"/><path class="cbline" d="M387,209h30" style="fill: none; stroke: rgb(161, 112, 59); stroke-opacity: 1; stroke-width: 2px;"/><path class="cbline" d="M387,188h30" style="fill: none; stroke: rgb(171, 122, 60); stroke-opacity: 1; stroke-width: 2px;"/><path class="cbline" d="M387,167h30" style="fill: none; stroke: rgb(180, 134, 64); stroke-opacity: 1; stroke-width: 2px;"/><path class="cbline" d="M387,146h30" style="fill: none; stroke: rgb(188, 147, 69); stroke-opacity: 1; stroke-width: 2px;"/><path class="cbline" d="M387,125h30" style="fill: none; stroke: rgb(195, 161, 78); stroke-opacity: 1; stroke-width: 2px;"/><path class="cbline" d="M387,104h30" style="fill: none; stroke: rgb(202, 174, 89); stroke-opacity: 1; stroke-width: 2px;"/><path class="cbline" d="M387,83h30" style="fill: none; stroke: rgb(207, 188, 102); stroke-opacity: 1; stroke-width: 2px;"/><path class="cbline" d="M387,63h30" style="fill: none; stroke: rgb(213, 202, 118); stroke-opacity: 1; stroke-width: 2px;"/><path class="cbline" d="M387,42h30" style="fill: none; stroke: rgb(219, 216, 134); stroke-opacity: 1; stroke-width: 2px;"/><path class="cbline" d="M387,21h30" style="fill: none; stroke: rgb(225, 231, 152); stroke-opacity: 1; stroke-width: 2px;"/><path class="cbline" d="M387,0h30" style="fill: none; stroke: rgb(232, 245, 171); stroke-opacity: 1; stroke-width: 2px;"/></g><g class="cbaxis crisp" transform="translate(0,-40)"><path class="ycb48f4e1tick ticks crisp" d="M416.5,0h-6" transform="translate(0,362.75)" style="stroke: rgb(237, 237, 237); stroke-opacity: 1; stroke-width: 1px;"/><path class="ycb48f4e1tick ticks crisp" d="M416.5,0h-6" transform="translate(0,258.5)" style="stroke: rgb(237, 237, 237); stroke-opacity: 1; stroke-width: 1px;"/><path class="ycb48f4e1tick ticks crisp" d="M416.5,0h-6" transform="translate(0,154.25)" style="stroke: rgb(237, 237, 237); stroke-opacity: 1; stroke-width: 1px;"/><g class="ycb48f4e1tick"><text text-anchor="start" x="419.9" y="4.199999999999999" transform="translate(0,467)" style="font-family: 'Open Sans', verdana, arial, sans-serif; font-size: 12px; fill: rgb(51, 51, 51); fill-opacity: 1; white-space: pre; opacity: 1;">0.01</text></g><g class="ycb48f4e1tick"><text text-anchor="start" x="419.9" y="4.199999999999999" style="font-family: 'Open Sans', verdana, arial, sans-serif; font-size: 12px; fill: rgb(51, 51, 51); fill-opacity: 1; white-space: pre; opacity: 1;" transform="translate(0,362.75)">2.67</text></g><g class="ycb48f4e1tick"><text text-anchor="start" x="419.9" y="4.199999999999999" style="font-family: 'Open Sans', verdana, arial, sans-serif; font-size: 12px; fill: rgb(51, 51, 51); fill-opacity: 1; white-space: pre; opacity: 1;" transform="translate(0,258.5)">5.32</text></g><g class="ycb48f4e1tick"><text text-anchor="start" x="419.9" y="4.199999999999999" style="font-family: 'Open Sans', verdana, arial, sans-serif; font-size: 12px; fill: rgb(51, 51, 51); fill-opacity: 1; white-space: pre; opacity: 1;" transform="translate(0,154.25)">7.98</text></g><g class="ycb48f4e1tick"><text text-anchor="start" x="419.9" y="4.199999999999999" style="font-family: 'Open Sans', verdana, arial, sans-serif; font-size: 12px; fill: rgb(51, 51, 51); fill-opacity: 1; white-space: pre; opacity: 1;" transform="translate(0,50.000000000000014)">10.64</text></g></g><g class="cbtitleunshift" transform="translate(-28,-40)"><g class="cbtitle"/></g><rect class="cboutline" x="387" y="10" width="30" height="417" style="stroke: rgb(68, 68, 68); stroke-opacity: 1; fill: none; stroke-width: 0;"/></g><g class="g-gtitle"><text class="gtitle" x="250" y="20" text-anchor="middle" dy="0em" style="font-family: 'Open Sans', verdana, arial, sans-serif; font-size: 17px; fill: rgb(51, 51, 51); opacity: 1; font-weight: normal; white-space: pre;">Clayton copula</text></g><g class="g-xtitle"/><g class="g-ytitle"/></g></svg>