<?xml version="1.0" encoding="utf-8" standalone="no"?>
<!DOCTYPE svg PUBLIC "-//W3C//DTD SVG 1.1//EN"
  "http://www.w3.org/Graphics/SVG/1.1/DTD/svg11.dtd">
<svg xmlns:xlink="http://www.w3.org/1999/xlink" width="1008pt" height="504pt" viewBox="0 0 1008 504" xmlns="http://www.w3.org/2000/svg" version="1.1">
 <metadata>
  <rdf:RDF xmlns:dc="http://purl.org/dc/elements/1.1/" xmlns:cc="http://creativecommons.org/ns#" xmlns:rdf="http://www.w3.org/1999/02/22-rdf-syntax-ns#">
   <cc:Work>
    <dc:type rdf:resource="http://purl.org/dc/dcmitype/StillImage"/>
    <dc:date>2022-04-17T02:56:56.216625</dc:date>
    <dc:format>image/svg+xml</dc:format>
    <dc:creator>
     <cc:Agent>
      <dc:title>Matplotlib v3.5.1, https://matplotlib.org/</dc:title>
     </cc:Agent>
    </dc:creator>
   </cc:Work>
  </rdf:RDF>
 </metadata>
 <defs>
  <style type="text/css">*{stroke-linejoin: round; stroke-linecap: butt}</style>
 </defs>
 <g id="figure_1">
  <g id="patch_1">
   <path d="M 0 504 
L 1008 504 
L 1008 0 
L 0 0 
z
" style="fill: #ffffff"/>
  </g>
  <g id="axes_1">
   <g id="patch_2">
    <path d="M 126 441 
L 481.090909 441 
L 481.090909 60.48 
L 126 60.48 
z
" style="fill: #e5e5e5"/>
   </g>
   <g id="matplotlib.axis_1">
    <g id="xtick_1">
     <g id="line2d_1">
      <path d="M 138.846517 441 
L 138.846517 60.48 
" clip-path="url(#p8f5a2394a4)" style="fill: none; stroke: #ffffff; stroke-width: 1.5; stroke-linecap: round"/>
     </g>
     <g id="text_1">
      <!-- 0.0 -->
      <g style="fill: #555555" transform="translate(127.379017 465.310391)scale(0.165 -0.165)">
       <defs>
        <path id="ArialMT-30" d="M 266 2259 
Q 266 3072 433 3567 
Q 600 4063 929 4331 
Q 1259 4600 1759 4600 
Q 2128 4600 2406 4451 
Q 2684 4303 2865 4023 
Q 3047 3744 3150 3342 
Q 3253 2941 3253 2259 
Q 3253 1453 3087 958 
Q 2922 463 2592 192 
Q 2263 -78 1759 -78 
Q 1097 -78 719 397 
Q 266 969 266 2259 
z
M 844 2259 
Q 844 1131 1108 757 
Q 1372 384 1759 384 
Q 2147 384 2411 759 
Q 2675 1134 2675 2259 
Q 2675 3391 2411 3762 
Q 2147 4134 1753 4134 
Q 1366 4134 1134 3806 
Q 844 3388 844 2259 
z
" transform="scale(0.015625)"/>
        <path id="ArialMT-2e" d="M 581 0 
L 581 641 
L 1222 641 
L 1222 0 
L 581 0 
z
" transform="scale(0.015625)"/>
       </defs>
       <use xlink:href="#ArialMT-30"/>
       <use xlink:href="#ArialMT-2e" x="55.615234"/>
       <use xlink:href="#ArialMT-30" x="83.398438"/>
      </g>
     </g>
    </g>
    <g id="xtick_2">
     <g id="line2d_2">
      <path d="M 204.726092 441 
L 204.726092 60.48 
" clip-path="url(#p8f5a2394a4)" style="fill: none; stroke: #ffffff; stroke-width: 1.5; stroke-linecap: round"/>
     </g>
     <g id="text_2">
      <!-- 0.2 -->
      <g style="fill: #555555" transform="translate(193.258592 465.310391)scale(0.165 -0.165)">
       <defs>
        <path id="ArialMT-32" d="M 3222 541 
L 3222 0 
L 194 0 
Q 188 203 259 391 
Q 375 700 629 1000 
Q 884 1300 1366 1694 
Q 2113 2306 2375 2664 
Q 2638 3022 2638 3341 
Q 2638 3675 2398 3904 
Q 2159 4134 1775 4134 
Q 1369 4134 1125 3890 
Q 881 3647 878 3216 
L 300 3275 
Q 359 3922 746 4261 
Q 1134 4600 1788 4600 
Q 2447 4600 2831 4234 
Q 3216 3869 3216 3328 
Q 3216 3053 3103 2787 
Q 2991 2522 2730 2228 
Q 2469 1934 1863 1422 
Q 1356 997 1212 845 
Q 1069 694 975 541 
L 3222 541 
z
" transform="scale(0.015625)"/>
       </defs>
       <use xlink:href="#ArialMT-30"/>
       <use xlink:href="#ArialMT-2e" x="55.615234"/>
       <use xlink:href="#ArialMT-32" x="83.398438"/>
      </g>
     </g>
    </g>
    <g id="xtick_3">
     <g id="line2d_3">
      <path d="M 270.605667 441 
L 270.605667 60.48 
" clip-path="url(#p8f5a2394a4)" style="fill: none; stroke: #ffffff; stroke-width: 1.5; stroke-linecap: round"/>
     </g>
     <g id="text_3">
      <!-- 0.4 -->
      <g style="fill: #555555" transform="translate(259.138167 465.310391)scale(0.165 -0.165)">
       <defs>
        <path id="ArialMT-34" d="M 2069 0 
L 2069 1097 
L 81 1097 
L 81 1613 
L 2172 4581 
L 2631 4581 
L 2631 1613 
L 3250 1613 
L 3250 1097 
L 2631 1097 
L 2631 0 
L 2069 0 
z
M 2069 1613 
L 2069 3678 
L 634 1613 
L 2069 1613 
z
" transform="scale(0.015625)"/>
       </defs>
       <use xlink:href="#ArialMT-30"/>
       <use xlink:href="#ArialMT-2e" x="55.615234"/>
       <use xlink:href="#ArialMT-34" x="83.398438"/>
      </g>
     </g>
    </g>
    <g id="xtick_4">
     <g id="line2d_4">
      <path d="M 336.485242 441 
L 336.485242 60.48 
" clip-path="url(#p8f5a2394a4)" style="fill: none; stroke: #ffffff; stroke-width: 1.5; stroke-linecap: round"/>
     </g>
     <g id="text_4">
      <!-- 0.6 -->
      <g style="fill: #555555" transform="translate(325.017742 465.310391)scale(0.165 -0.165)">
       <defs>
        <path id="ArialMT-36" d="M 3184 3459 
L 2625 3416 
Q 2550 3747 2413 3897 
Q 2184 4138 1850 4138 
Q 1581 4138 1378 3988 
Q 1113 3794 959 3422 
Q 806 3050 800 2363 
Q 1003 2672 1297 2822 
Q 1591 2972 1913 2972 
Q 2475 2972 2870 2558 
Q 3266 2144 3266 1488 
Q 3266 1056 3080 686 
Q 2894 316 2569 119 
Q 2244 -78 1831 -78 
Q 1128 -78 684 439 
Q 241 956 241 2144 
Q 241 3472 731 4075 
Q 1159 4600 1884 4600 
Q 2425 4600 2770 4297 
Q 3116 3994 3184 3459 
z
M 888 1484 
Q 888 1194 1011 928 
Q 1134 663 1356 523 
Q 1578 384 1822 384 
Q 2178 384 2434 671 
Q 2691 959 2691 1453 
Q 2691 1928 2437 2201 
Q 2184 2475 1800 2475 
Q 1419 2475 1153 2201 
Q 888 1928 888 1484 
z
" transform="scale(0.015625)"/>
       </defs>
       <use xlink:href="#ArialMT-30"/>
       <use xlink:href="#ArialMT-2e" x="55.615234"/>
       <use xlink:href="#ArialMT-36" x="83.398438"/>
      </g>
     </g>
    </g>
    <g id="xtick_5">
     <g id="line2d_5">
      <path d="M 402.364817 441 
L 402.364817 60.48 
" clip-path="url(#p8f5a2394a4)" style="fill: none; stroke: #ffffff; stroke-width: 1.5; stroke-linecap: round"/>
     </g>
     <g id="text_5">
      <!-- 0.8 -->
      <g style="fill: #555555" transform="translate(390.897317 465.310391)scale(0.165 -0.165)">
       <defs>
        <path id="ArialMT-38" d="M 1131 2484 
Q 781 2613 612 2850 
Q 444 3088 444 3419 
Q 444 3919 803 4259 
Q 1163 4600 1759 4600 
Q 2359 4600 2725 4251 
Q 3091 3903 3091 3403 
Q 3091 3084 2923 2848 
Q 2756 2613 2416 2484 
Q 2838 2347 3058 2040 
Q 3278 1734 3278 1309 
Q 3278 722 2862 322 
Q 2447 -78 1769 -78 
Q 1091 -78 675 323 
Q 259 725 259 1325 
Q 259 1772 486 2073 
Q 713 2375 1131 2484 
z
M 1019 3438 
Q 1019 3113 1228 2906 
Q 1438 2700 1772 2700 
Q 2097 2700 2305 2904 
Q 2513 3109 2513 3406 
Q 2513 3716 2298 3927 
Q 2084 4138 1766 4138 
Q 1444 4138 1231 3931 
Q 1019 3725 1019 3438 
z
M 838 1322 
Q 838 1081 952 856 
Q 1066 631 1291 507 
Q 1516 384 1775 384 
Q 2178 384 2440 643 
Q 2703 903 2703 1303 
Q 2703 1709 2433 1975 
Q 2163 2241 1756 2241 
Q 1359 2241 1098 1978 
Q 838 1716 838 1322 
z
" transform="scale(0.015625)"/>
       </defs>
       <use xlink:href="#ArialMT-30"/>
       <use xlink:href="#ArialMT-2e" x="55.615234"/>
       <use xlink:href="#ArialMT-38" x="83.398438"/>
      </g>
     </g>
    </g>
    <g id="xtick_6">
     <g id="line2d_6">
      <path d="M 468.244392 441 
L 468.244392 60.48 
" clip-path="url(#p8f5a2394a4)" style="fill: none; stroke: #ffffff; stroke-width: 1.5; stroke-linecap: round"/>
     </g>
     <g id="text_6">
      <!-- 1.0 -->
      <g style="fill: #555555" transform="translate(456.776892 465.310391)scale(0.165 -0.165)">
       <defs>
        <path id="ArialMT-31" d="M 2384 0 
L 1822 0 
L 1822 3584 
Q 1619 3391 1289 3197 
Q 959 3003 697 2906 
L 697 3450 
Q 1169 3672 1522 3987 
Q 1875 4303 2022 4600 
L 2384 4600 
L 2384 0 
z
" transform="scale(0.015625)"/>
       </defs>
       <use xlink:href="#ArialMT-31"/>
       <use xlink:href="#ArialMT-2e" x="55.615234"/>
       <use xlink:href="#ArialMT-30" x="83.398438"/>
      </g>
     </g>
    </g>
   </g>
   <g id="matplotlib.axis_2">
    <g id="ytick_1">
     <g id="line2d_7">
      <path d="M 126 437.923697 
L 481.090909 437.923697 
" clip-path="url(#p8f5a2394a4)" style="fill: none; stroke: #ffffff; stroke-width: 1.5; stroke-linecap: round"/>
     </g>
     <g id="text_7">
      <!-- −3 -->
      <g style="fill: #555555" transform="translate(94.687422 443.828892)scale(0.165 -0.165)">
       <defs>
        <path id="ArialMT-2212" d="M 3381 1997 
L 356 1997 
L 356 2522 
L 3381 2522 
L 3381 1997 
z
" transform="scale(0.015625)"/>
        <path id="ArialMT-33" d="M 269 1209 
L 831 1284 
Q 928 806 1161 595 
Q 1394 384 1728 384 
Q 2125 384 2398 659 
Q 2672 934 2672 1341 
Q 2672 1728 2419 1979 
Q 2166 2231 1775 2231 
Q 1616 2231 1378 2169 
L 1441 2663 
Q 1497 2656 1531 2656 
Q 1891 2656 2178 2843 
Q 2466 3031 2466 3422 
Q 2466 3731 2256 3934 
Q 2047 4138 1716 4138 
Q 1388 4138 1169 3931 
Q 950 3725 888 3313 
L 325 3413 
Q 428 3978 793 4289 
Q 1159 4600 1703 4600 
Q 2078 4600 2393 4439 
Q 2709 4278 2876 4000 
Q 3044 3722 3044 3409 
Q 3044 3113 2884 2869 
Q 2725 2625 2413 2481 
Q 2819 2388 3044 2092 
Q 3269 1797 3269 1353 
Q 3269 753 2831 336 
Q 2394 -81 1725 -81 
Q 1122 -81 723 278 
Q 325 638 269 1209 
z
" transform="scale(0.015625)"/>
       </defs>
       <use xlink:href="#ArialMT-2212"/>
       <use xlink:href="#ArialMT-33" x="58.398438"/>
      </g>
     </g>
    </g>
    <g id="ytick_2">
     <g id="line2d_8">
      <path d="M 126 366.600897 
L 481.090909 366.600897 
" clip-path="url(#p8f5a2394a4)" style="fill: none; stroke: #ffffff; stroke-width: 1.5; stroke-linecap: round"/>
     </g>
     <g id="text_8">
      <!-- −2 -->
      <g style="fill: #555555" transform="translate(94.687422 372.506093)scale(0.165 -0.165)">
       <use xlink:href="#ArialMT-2212"/>
       <use xlink:href="#ArialMT-32" x="58.398438"/>
      </g>
     </g>
    </g>
    <g id="ytick_3">
     <g id="line2d_9">
      <path d="M 126 295.278098 
L 481.090909 295.278098 
" clip-path="url(#p8f5a2394a4)" style="fill: none; stroke: #ffffff; stroke-width: 1.5; stroke-linecap: round"/>
     </g>
     <g id="text_9">
      <!-- −1 -->
      <g style="fill: #555555" transform="translate(94.687422 301.183293)scale(0.165 -0.165)">
       <use xlink:href="#ArialMT-2212"/>
       <use xlink:href="#ArialMT-31" x="58.398438"/>
      </g>
     </g>
    </g>
    <g id="ytick_4">
     <g id="line2d_10">
      <path d="M 126 223.955299 
L 481.090909 223.955299 
" clip-path="url(#p8f5a2394a4)" style="fill: none; stroke: #ffffff; stroke-width: 1.5; stroke-linecap: round"/>
     </g>
     <g id="text_10">
      <!-- 0 -->
      <g style="fill: #555555" transform="translate(104.324453 229.860494)scale(0.165 -0.165)">
       <use xlink:href="#ArialMT-30"/>
      </g>
     </g>
    </g>
    <g id="ytick_5">
     <g id="line2d_11">
      <path d="M 126 152.632499 
L 481.090909 152.632499 
" clip-path="url(#p8f5a2394a4)" style="fill: none; stroke: #ffffff; stroke-width: 1.5; stroke-linecap: round"/>
     </g>
     <g id="text_11">
      <!-- 1 -->
      <g style="fill: #555555" transform="translate(104.324453 158.537695)scale(0.165 -0.165)">
       <use xlink:href="#ArialMT-31"/>
      </g>
     </g>
    </g>
    <g id="ytick_6">
     <g id="line2d_12">
      <path d="M 126 81.3097 
L 481.090909 81.3097 
" clip-path="url(#p8f5a2394a4)" style="fill: none; stroke: #ffffff; stroke-width: 1.5; stroke-linecap: round"/>
     </g>
     <g id="text_12">
      <!-- 2 -->
      <g style="fill: #555555" transform="translate(104.324453 87.214895)scale(0.165 -0.165)">
       <use xlink:href="#ArialMT-32"/>
      </g>
     </g>
    </g>
   </g>
   <g id="line2d_13">
    <path d="M 142.140496 423.703636 
L 142.463629 419.072511 
L 143.109895 413.715294 
L 143.433028 407.195756 
L 143.756161 403.052745 
L 144.079294 396.404085 
L 144.72556 388.743116 
L 145.048693 382.043002 
L 145.371826 380.295196 
L 146.018092 377.825691 
L 146.664359 372.539365 
L 147.310625 369.883517 
L 147.956891 368.931227 
L 148.603157 366.29862 
L 148.92629 361.106833 
L 149.572556 356.474271 
L 150.218822 355.627679 
L 150.541955 354.335843 
L 150.865088 353.883172 
L 151.188221 352.608378 
L 151.511354 351.989504 
L 152.15762 349.396755 
L 153.12702 348.056117 
L 153.450153 346.94829 
L 153.773286 346.321762 
L 154.096419 345.236291 
L 154.419552 343.06613 
L 154.742685 342.61027 
L 155.065818 341.541962 
L 155.388951 340.981229 
L 156.035217 339.417221 
L 156.35835 339.25171 
L 156.681483 338.734087 
L 157.004616 337.886588 
L 157.327749 337.547834 
L 157.650882 336.186563 
L 158.297148 335.540584 
L 158.943414 334.262572 
L 159.266548 333.953485 
L 159.912814 332.434493 
L 160.235947 331.928688 
L 160.55908 331.77857 
L 161.205346 331.327875 
L 161.528479 330.726075 
L 163.467277 324.88726 
L 165.082942 321.112928 
L 165.406075 320.87231 
L 165.729209 320.310927 
L 166.052342 320.198263 
L 166.375475 319.839283 
L 166.698608 319.097922 
L 167.021741 319.023748 
L 168.314273 316.854163 
L 169.283672 315.82812 
L 169.606805 315.185207 
L 170.253071 314.649362 
L 170.576204 314.333774 
L 170.899337 314.256901 
L 171.22247 313.09428 
L 171.545603 312.752363 
L 172.515003 311.134913 
L 173.161269 310.912468 
L 173.484402 310.640595 
L 174.776934 308.384978 
L 175.100067 308.187901 
L 175.4232 307.76649 
L 175.746333 306.941717 
L 176.069466 306.481671 
L 176.392599 305.818537 
L 176.715732 305.454871 
L 177.038865 305.304492 
L 177.361998 304.671808 
L 177.685131 303.491698 
L 178.008264 303.143285 
L 178.654531 302.293712 
L 178.977664 302.159042 
L 179.300797 300.485736 
L 179.62393 300.145114 
L 179.947063 299.588217 
L 180.270196 299.482087 
L 183.501526 296.049318 
L 184.147792 295.274306 
L 184.470925 295.230801 
L 185.440325 293.738223 
L 185.763458 293.583996 
L 186.409724 293.112445 
L 186.732857 292.951968 
L 187.05599 292.316499 
L 187.379123 291.937905 
L 188.348522 291.552337 
L 188.671655 290.684687 
L 188.994788 290.135414 
L 189.317921 289.841143 
L 190.28732 289.493036 
L 191.579853 287.960145 
L 191.902986 287.737807 
L 192.226119 287.204036 
L 192.872385 286.962941 
L 193.518651 286.698631 
L 193.841784 286.408914 
L 194.48805 286.192905 
L 194.811183 285.598974 
L 195.134316 285.395129 
L 195.780582 284.669118 
L 196.103715 283.980978 
L 197.719381 282.041289 
L 198.042514 281.379316 
L 198.365647 281.137863 
L 198.68878 281.092893 
L 199.335046 280.717271 
L 200.304445 279.918521 
L 200.950711 279.645385 
L 201.273844 279.156959 
L 201.596977 278.978615 
L 202.243243 278.035837 
L 202.566376 277.717571 
L 202.889509 277.615383 
L 203.858908 276.690005 
L 204.182042 276.604327 
L 204.828308 276.163718 
L 205.151441 275.606988 
L 205.797707 275.114452 
L 206.12084 275.029306 
L 206.443973 274.801266 
L 207.413372 274.510952 
L 208.382771 273.822773 
L 208.705904 273.375846 
L 209.35217 272.817439 
L 209.675303 272.483944 
L 211.290969 271.79066 
L 211.614102 271.565564 
L 212.583501 270.526048 
L 213.229767 270.311891 
L 213.5529 270.154744 
L 213.876033 269.645988 
L 214.522299 269.207669 
L 215.491698 268.889337 
L 216.461097 268.14096 
L 217.107364 267.937499 
L 217.75363 267.486952 
L 218.076763 266.839314 
L 219.046162 266.065589 
L 219.369295 265.984951 
L 220.015561 265.363393 
L 220.661827 265.085312 
L 220.98496 265.050325 
L 221.631226 264.768285 
L 222.277492 264.452859 
L 222.600625 264.059043 
L 222.923758 264.014238 
L 223.246892 263.795277 
L 224.216291 263.499212 
L 224.539424 263.226099 
L 225.18569 263.010509 
L 225.508823 262.466172 
L 226.478222 262.002768 
L 226.801355 261.852964 
L 227.447621 261.193918 
L 228.093887 260.928454 
L 229.063286 260.261965 
L 229.709553 260.115705 
L 230.678952 259.709938 
L 231.002085 259.287365 
L 234.233415 257.399014 
L 235.525947 257.134839 
L 236.172214 256.906157 
L 236.495347 256.688498 
L 236.81848 256.672635 
L 238.757278 255.498692 
L 239.403544 255.269584 
L 240.372943 254.693211 
L 241.019209 254.426475 
L 241.665475 253.915648 
L 242.311741 253.605128 
L 243.281141 253.07719 
L 244.573673 252.043092 
L 245.866205 251.436506 
L 246.512471 250.88362 
L 246.835604 250.770781 
L 247.158737 250.538912 
L 247.48187 250.4864 
L 248.128136 250.087171 
L 248.774403 249.292259 
L 250.066935 248.562579 
L 250.390068 248.490054 
L 250.713201 248.041567 
L 251.6826 247.526882 
L 252.975132 247.03431 
L 253.944531 246.591098 
L 254.267664 246.160203 
L 256.529596 244.547568 
L 256.852729 244.537615 
L 257.822128 243.87327 
L 259.11466 243.283409 
L 260.730325 242.575544 
L 261.376591 241.852304 
L 262.022858 241.667521 
L 262.345991 241.519069 
L 262.669124 240.986384 
L 263.31539 240.524494 
L 263.961656 240.282757 
L 265.254188 239.707271 
L 265.900454 238.962711 
L 267.516119 238.466037 
L 268.485519 238.180333 
L 269.131785 237.41283 
L 272.039982 236.609124 
L 272.363115 236.565877 
L 272.686248 236.356576 
L 273.332514 236.231083 
L 276.240712 234.97649 
L 277.856377 234.701342 
L 278.17951 234.315148 
L 278.825776 234.068364 
L 279.472042 233.674254 
L 280.441441 233.279674 
L 281.087708 232.650025 
L 282.38024 232.266057 
L 283.349639 232.170604 
L 284.319038 231.733619 
L 284.965304 231.614464 
L 285.288437 231.371347 
L 285.934703 231.168104 
L 287.550369 230.658517 
L 288.196635 230.170655 
L 290.458566 229.270246 
L 291.104832 228.991035 
L 294.336163 227.693148 
L 295.628695 226.784597 
L 296.274961 226.405745 
L 296.921227 226.283081 
L 297.24436 226.020966 
L 297.890626 225.715795 
L 298.860025 225.4298 
L 299.183158 225.366744 
L 299.829424 225.036768 
L 300.798824 224.647918 
L 302.091356 224.141647 
L 302.737622 223.733805 
L 304.030154 223.434415 
L 305.322686 222.834561 
L 305.968952 222.725284 
L 306.615219 222.373541 
L 307.907751 221.912249 
L 308.554017 221.791609 
L 310.815948 220.855549 
L 311.462214 220.763264 
L 312.10848 220.543786 
L 313.07788 220.281149 
L 314.370412 219.263241 
L 315.016678 218.977022 
L 315.339811 218.811377 
L 315.986077 217.978389 
L 316.30921 217.905509 
L 317.601742 216.961311 
L 318.571141 216.393698 
L 318.894274 216.309747 
L 319.217407 215.965631 
L 319.863674 215.77434 
L 320.50994 215.60552 
L 321.156206 215.45393 
L 322.448738 214.810975 
L 323.095004 214.636962 
L 325.033802 213.670056 
L 325.680068 213.510482 
L 326.649468 213.276668 
L 326.972601 213.009319 
L 330.203931 211.871291 
L 331.496463 211.629451 
L 332.14273 211.213165 
L 333.112129 210.660696 
L 333.758395 209.987071 
L 335.37406 209.379459 
L 335.697193 209.099212 
L 336.343459 208.910714 
L 336.989725 208.7033 
L 337.312858 208.397505 
L 337.959124 208.296928 
L 338.928524 207.807474 
L 339.57479 207.627073 
L 340.544189 207.373825 
L 344.744918 206.20996 
L 345.714318 205.687034 
L 346.360584 205.379078 
L 347.00685 205.156115 
L 349.268781 204.106327 
L 350.23818 203.716137 
L 351.207579 203.362521 
L 351.853846 202.845877 
L 352.176979 202.767137 
L 352.500112 202.380468 
L 353.146378 202.22506 
L 354.43891 201.52204 
L 355.085176 201.351836 
L 355.731442 200.969529 
L 356.377708 200.827792 
L 357.023974 200.443878 
L 358.962773 199.999922 
L 361.547837 198.316702 
L 361.87097 198.208225 
L 362.517236 197.714632 
L 363.809768 197.306471 
L 366.0717 196.249653 
L 366.394833 196.188319 
L 368.010498 195.212729 
L 368.333631 195.178147 
L 369.30303 194.710498 
L 369.626163 194.31235 
L 370.918696 193.902216 
L 371.241829 193.477003 
L 372.534361 193.049962 
L 372.857494 192.720128 
L 373.826893 192.352185 
L 374.150026 192.143414 
L 374.473159 191.764289 
L 375.765691 191.040907 
L 376.411957 190.752851 
L 376.73509 190.373512 
L 377.381357 190.153385 
L 379.320155 188.788912 
L 379.966421 188.599283 
L 380.289554 187.97841 
L 380.612687 187.721131 
L 381.905219 187.163622 
L 382.228352 186.915499 
L 382.874618 186.723354 
L 383.520885 186.119263 
L 384.167151 185.304178 
L 384.813417 185.018755 
L 386.429082 184.495915 
L 387.075348 184.176049 
L 387.398481 184.032092 
L 390.306679 181.543866 
L 390.952945 181.317091 
L 391.276078 180.954858 
L 391.922344 180.567363 
L 392.56861 180.200528 
L 392.891743 180.165305 
L 393.538009 179.879548 
L 394.184275 179.54775 
L 395.476807 178.657409 
L 396.123073 178.520603 
L 396.446207 178.289324 
L 398.385005 177.628582 
L 398.708138 177.437519 
L 399.031271 177.402266 
L 399.677537 176.875527 
L 400.970069 176.484541 
L 401.939468 175.009945 
L 402.262601 174.875756 
L 402.585734 174.608739 
L 402.908868 174.179258 
L 403.232001 173.940351 
L 404.2014 173.64503 
L 404.524533 173.448474 
L 404.847666 173.394056 
L 405.170799 172.95817 
L 405.817065 172.494703 
L 406.463331 172.014864 
L 406.786464 172.00295 
L 407.109597 171.72373 
L 407.43273 171.609378 
L 408.078996 171.09887 
L 409.048396 169.628324 
L 410.017795 168.097672 
L 410.664061 167.642512 
L 410.987194 167.402423 
L 411.310327 166.83268 
L 411.956593 166.402513 
L 412.602859 165.993057 
L 412.925992 165.711397 
L 413.249125 165.648655 
L 413.572258 165.35395 
L 413.895391 164.880853 
L 414.86479 164.345342 
L 415.187923 164.246141 
L 415.511057 163.934338 
L 416.157323 162.770275 
L 416.480456 162.709726 
L 416.803589 162.456935 
L 417.126722 162.381962 
L 417.772988 161.761128 
L 418.742387 161.270056 
L 419.06552 160.89076 
L 420.034919 160.460062 
L 420.681185 160.029015 
L 421.650584 159.557828 
L 422.296851 159.060214 
L 422.619984 158.915928 
L 422.943117 158.17335 
L 423.26625 157.802548 
L 423.589383 157.661291 
L 424.558782 155.745809 
L 425.528181 154.797859 
L 425.851314 154.743507 
L 426.820713 154.109979 
L 427.143846 154.013571 
L 427.790112 153.45733 
L 428.759512 153.023935 
L 430.052044 152.262085 
L 431.667709 150.775366 
L 431.990842 150.515629 
L 432.313975 150.07155 
L 432.960241 149.765755 
L 433.606507 149.084732 
L 434.252773 148.805443 
L 434.575906 148.653425 
L 434.89904 147.761233 
L 435.222173 147.300033 
L 435.545306 147.245543 
L 435.868439 146.74911 
L 436.191572 146.61065 
L 436.837838 145.878881 
L 437.160971 144.912193 
L 437.484104 144.461632 
L 437.807237 144.336935 
L 438.13037 143.891361 
L 438.453503 143.64978 
L 438.776636 143.155942 
L 439.422902 142.722455 
L 439.746035 142.679387 
L 440.392301 141.859501 
L 441.361701 141.274419 
L 441.684834 141.027642 
L 442.3311 139.966837 
L 442.654233 138.794648 
L 442.977366 138.733263 
L 443.623632 138.299954 
L 444.269898 137.030319 
L 444.916164 136.195865 
L 445.239297 135.435173 
L 445.56243 135.330917 
L 446.208696 134.641693 
L 446.854962 133.284456 
L 447.178095 133.037048 
L 447.501229 132.981013 
L 448.147495 132.369547 
L 449.116894 130.894586 
L 449.440027 130.083717 
L 449.76316 128.19159 
L 450.409426 127.195602 
L 450.732559 126.800465 
L 451.055692 126.215543 
L 451.378825 124.795269 
L 451.701958 124.101105 
L 452.348224 123.904551 
L 452.671357 123.372369 
L 453.317623 121.56791 
L 453.640756 121.42906 
L 453.96389 120.005418 
L 454.287023 119.45835 
L 454.933289 117.184613 
L 455.256422 116.606335 
L 455.579555 115.70044 
L 455.902688 113.88553 
L 456.225821 113.365388 
L 456.548954 113.152938 
L 456.872087 111.466399 
L 458.487752 108.304397 
L 458.810885 107.99587 
L 459.134018 106.513163 
L 459.457151 105.862188 
L 459.780284 104.557014 
L 460.103417 104.080827 
L 460.426551 101.858503 
L 461.072817 100.106418 
L 461.39595 97.559709 
L 462.365349 95.386464 
L 462.688482 94.919159 
L 463.334748 90.327302 
L 463.657881 89.571859 
L 463.981014 89.367255 
L 464.304147 86.45537 
L 464.950413 77.776364 
L 464.950413 77.776364 
" clip-path="url(#p8f5a2394a4)" style="fill: none; stroke: #4d3c2f; stroke-width: 2.25; stroke-linecap: round"/>
   </g>
   <g id="patch_3">
    <path d="M 126 441 
L 126 60.48 
" style="fill: none; stroke: #ffffff; stroke-width: 1.875; stroke-linejoin: miter; stroke-linecap: square"/>
   </g>
   <g id="patch_4">
    <path d="M 481.090909 441 
L 481.090909 60.48 
" style="fill: none; stroke: #ffffff; stroke-width: 1.875; stroke-linejoin: miter; stroke-linecap: square"/>
   </g>
   <g id="patch_5">
    <path d="M 126 441 
L 481.090909 441 
" style="fill: none; stroke: #ffffff; stroke-width: 1.875; stroke-linejoin: miter; stroke-linecap: square"/>
   </g>
   <g id="patch_6">
    <path d="M 126 60.48 
L 481.090909 60.48 
" style="fill: none; stroke: #ffffff; stroke-width: 1.875; stroke-linejoin: miter; stroke-linecap: square"/>
   </g>
   <g id="text_13">
    <!-- Inverse CDF -->
    <g style="fill: #262626" transform="translate(253.037173 54.48)scale(0.18 -0.18)">
     <defs>
      <path id="ArialMT-49" d="M 597 0 
L 597 4581 
L 1203 4581 
L 1203 0 
L 597 0 
z
" transform="scale(0.015625)"/>
      <path id="ArialMT-6e" d="M 422 0 
L 422 3319 
L 928 3319 
L 928 2847 
Q 1294 3394 1984 3394 
Q 2284 3394 2536 3286 
Q 2788 3178 2913 3003 
Q 3038 2828 3088 2588 
Q 3119 2431 3119 2041 
L 3119 0 
L 2556 0 
L 2556 2019 
Q 2556 2363 2490 2533 
Q 2425 2703 2258 2804 
Q 2091 2906 1866 2906 
Q 1506 2906 1245 2678 
Q 984 2450 984 1813 
L 984 0 
L 422 0 
z
" transform="scale(0.015625)"/>
      <path id="ArialMT-76" d="M 1344 0 
L 81 3319 
L 675 3319 
L 1388 1331 
Q 1503 1009 1600 663 
Q 1675 925 1809 1294 
L 2547 3319 
L 3125 3319 
L 1869 0 
L 1344 0 
z
" transform="scale(0.015625)"/>
      <path id="ArialMT-65" d="M 2694 1069 
L 3275 997 
Q 3138 488 2766 206 
Q 2394 -75 1816 -75 
Q 1088 -75 661 373 
Q 234 822 234 1631 
Q 234 2469 665 2931 
Q 1097 3394 1784 3394 
Q 2450 3394 2872 2941 
Q 3294 2488 3294 1666 
Q 3294 1616 3291 1516 
L 816 1516 
Q 847 969 1125 678 
Q 1403 388 1819 388 
Q 2128 388 2347 550 
Q 2566 713 2694 1069 
z
M 847 1978 
L 2700 1978 
Q 2663 2397 2488 2606 
Q 2219 2931 1791 2931 
Q 1403 2931 1139 2672 
Q 875 2413 847 1978 
z
" transform="scale(0.015625)"/>
      <path id="ArialMT-72" d="M 416 0 
L 416 3319 
L 922 3319 
L 922 2816 
Q 1116 3169 1280 3281 
Q 1444 3394 1641 3394 
Q 1925 3394 2219 3213 
L 2025 2691 
Q 1819 2813 1613 2813 
Q 1428 2813 1281 2702 
Q 1134 2591 1072 2394 
Q 978 2094 978 1738 
L 978 0 
L 416 0 
z
" transform="scale(0.015625)"/>
      <path id="ArialMT-73" d="M 197 991 
L 753 1078 
Q 800 744 1014 566 
Q 1228 388 1613 388 
Q 2000 388 2187 545 
Q 2375 703 2375 916 
Q 2375 1106 2209 1216 
Q 2094 1291 1634 1406 
Q 1016 1563 777 1677 
Q 538 1791 414 1992 
Q 291 2194 291 2438 
Q 291 2659 392 2848 
Q 494 3038 669 3163 
Q 800 3259 1026 3326 
Q 1253 3394 1513 3394 
Q 1903 3394 2198 3281 
Q 2494 3169 2634 2976 
Q 2775 2784 2828 2463 
L 2278 2388 
Q 2241 2644 2061 2787 
Q 1881 2931 1553 2931 
Q 1166 2931 1000 2803 
Q 834 2675 834 2503 
Q 834 2394 903 2306 
Q 972 2216 1119 2156 
Q 1203 2125 1616 2013 
Q 2213 1853 2448 1751 
Q 2684 1650 2818 1456 
Q 2953 1263 2953 975 
Q 2953 694 2789 445 
Q 2625 197 2315 61 
Q 2006 -75 1616 -75 
Q 969 -75 630 194 
Q 291 463 197 991 
z
" transform="scale(0.015625)"/>
      <path id="ArialMT-20" transform="scale(0.015625)"/>
      <path id="ArialMT-43" d="M 3763 1606 
L 4369 1453 
Q 4178 706 3683 314 
Q 3188 -78 2472 -78 
Q 1731 -78 1267 223 
Q 803 525 561 1097 
Q 319 1669 319 2325 
Q 319 3041 592 3573 
Q 866 4106 1370 4382 
Q 1875 4659 2481 4659 
Q 3169 4659 3637 4309 
Q 4106 3959 4291 3325 
L 3694 3184 
Q 3534 3684 3231 3912 
Q 2928 4141 2469 4141 
Q 1941 4141 1586 3887 
Q 1231 3634 1087 3207 
Q 944 2781 944 2328 
Q 944 1744 1114 1308 
Q 1284 872 1643 656 
Q 2003 441 2422 441 
Q 2931 441 3284 734 
Q 3638 1028 3763 1606 
z
" transform="scale(0.015625)"/>
      <path id="ArialMT-44" d="M 494 0 
L 494 4581 
L 2072 4581 
Q 2606 4581 2888 4516 
Q 3281 4425 3559 4188 
Q 3922 3881 4101 3404 
Q 4281 2928 4281 2316 
Q 4281 1794 4159 1391 
Q 4038 988 3847 723 
Q 3656 459 3429 307 
Q 3203 156 2883 78 
Q 2563 0 2147 0 
L 494 0 
z
M 1100 541 
L 2078 541 
Q 2531 541 2789 625 
Q 3047 709 3200 863 
Q 3416 1078 3536 1442 
Q 3656 1806 3656 2325 
Q 3656 3044 3420 3430 
Q 3184 3816 2847 3947 
Q 2603 4041 2063 4041 
L 1100 4041 
L 1100 541 
z
" transform="scale(0.015625)"/>
      <path id="ArialMT-46" d="M 525 0 
L 525 4581 
L 3616 4581 
L 3616 4041 
L 1131 4041 
L 1131 2622 
L 3281 2622 
L 3281 2081 
L 1131 2081 
L 1131 0 
L 525 0 
z
" transform="scale(0.015625)"/>
     </defs>
     <use xlink:href="#ArialMT-49"/>
     <use xlink:href="#ArialMT-6e" x="27.783203"/>
     <use xlink:href="#ArialMT-76" x="83.398438"/>
     <use xlink:href="#ArialMT-65" x="133.398438"/>
     <use xlink:href="#ArialMT-72" x="189.013672"/>
     <use xlink:href="#ArialMT-73" x="222.314453"/>
     <use xlink:href="#ArialMT-65" x="272.314453"/>
     <use xlink:href="#ArialMT-20" x="327.929688"/>
     <use xlink:href="#ArialMT-43" x="355.712891"/>
     <use xlink:href="#ArialMT-44" x="427.929688"/>
     <use xlink:href="#ArialMT-46" x="500.146484"/>
    </g>
   </g>
  </g>
  <g id="axes_2">
   <g id="patch_7">
    <path d="M 552.109091 441 
L 907.2 441 
L 907.2 60.48 
L 552.109091 60.48 
z
" style="fill: #e5e5e5"/>
   </g>
   <g id="matplotlib.axis_3">
    <g id="xtick_7">
     <g id="line2d_14">
      <path d="M 574.84465 441 
L 574.84465 60.48 
" clip-path="url(#pebaec42aa9)" style="fill: none; stroke: #ffffff; stroke-width: 1.5; stroke-linecap: round"/>
     </g>
     <g id="text_14">
      <!-- −7.5 -->
      <g style="fill: #555555" transform="translate(558.558635 465.310391)scale(0.165 -0.165)">
       <defs>
        <path id="ArialMT-37" d="M 303 3981 
L 303 4522 
L 3269 4522 
L 3269 4084 
Q 2831 3619 2401 2847 
Q 1972 2075 1738 1259 
Q 1569 684 1522 0 
L 944 0 
Q 953 541 1156 1306 
Q 1359 2072 1739 2783 
Q 2119 3494 2547 3981 
L 303 3981 
z
" transform="scale(0.015625)"/>
        <path id="ArialMT-35" d="M 266 1200 
L 856 1250 
Q 922 819 1161 601 
Q 1400 384 1738 384 
Q 2144 384 2425 690 
Q 2706 997 2706 1503 
Q 2706 1984 2436 2262 
Q 2166 2541 1728 2541 
Q 1456 2541 1237 2417 
Q 1019 2294 894 2097 
L 366 2166 
L 809 4519 
L 3088 4519 
L 3088 3981 
L 1259 3981 
L 1013 2750 
Q 1425 3038 1878 3038 
Q 2478 3038 2890 2622 
Q 3303 2206 3303 1553 
Q 3303 931 2941 478 
Q 2500 -78 1738 -78 
Q 1113 -78 717 272 
Q 322 622 266 1200 
z
" transform="scale(0.015625)"/>
       </defs>
       <use xlink:href="#ArialMT-2212"/>
       <use xlink:href="#ArialMT-37" x="58.398438"/>
       <use xlink:href="#ArialMT-2e" x="114.013672"/>
       <use xlink:href="#ArialMT-35" x="141.796875"/>
      </g>
     </g>
    </g>
    <g id="xtick_8">
     <g id="line2d_15">
      <path d="M 631.8851 441 
L 631.8851 60.48 
" clip-path="url(#pebaec42aa9)" style="fill: none; stroke: #ffffff; stroke-width: 1.5; stroke-linecap: round"/>
     </g>
     <g id="text_15">
      <!-- −5.0 -->
      <g style="fill: #555555" transform="translate(615.599085 465.310391)scale(0.165 -0.165)">
       <use xlink:href="#ArialMT-2212"/>
       <use xlink:href="#ArialMT-35" x="58.398438"/>
       <use xlink:href="#ArialMT-2e" x="114.013672"/>
       <use xlink:href="#ArialMT-30" x="141.796875"/>
      </g>
     </g>
    </g>
    <g id="xtick_9">
     <g id="line2d_16">
      <path d="M 688.925551 441 
L 688.925551 60.48 
" clip-path="url(#pebaec42aa9)" style="fill: none; stroke: #ffffff; stroke-width: 1.5; stroke-linecap: round"/>
     </g>
     <g id="text_16">
      <!-- −2.5 -->
      <g style="fill: #555555" transform="translate(672.639535 465.310391)scale(0.165 -0.165)">
       <use xlink:href="#ArialMT-2212"/>
       <use xlink:href="#ArialMT-32" x="58.398438"/>
       <use xlink:href="#ArialMT-2e" x="114.013672"/>
       <use xlink:href="#ArialMT-35" x="141.796875"/>
      </g>
     </g>
    </g>
    <g id="xtick_10">
     <g id="line2d_17">
      <path d="M 745.966001 441 
L 745.966001 60.48 
" clip-path="url(#pebaec42aa9)" style="fill: none; stroke: #ffffff; stroke-width: 1.5; stroke-linecap: round"/>
     </g>
     <g id="text_17">
      <!-- 0.0 -->
      <g style="fill: #555555" transform="translate(734.498501 465.310391)scale(0.165 -0.165)">
       <use xlink:href="#ArialMT-30"/>
       <use xlink:href="#ArialMT-2e" x="55.615234"/>
       <use xlink:href="#ArialMT-30" x="83.398438"/>
      </g>
     </g>
    </g>
    <g id="xtick_11">
     <g id="line2d_18">
      <path d="M 803.006451 441 
L 803.006451 60.48 
" clip-path="url(#pebaec42aa9)" style="fill: none; stroke: #ffffff; stroke-width: 1.5; stroke-linecap: round"/>
     </g>
     <g id="text_18">
      <!-- 2.5 -->
      <g style="fill: #555555" transform="translate(791.538951 465.310391)scale(0.165 -0.165)">
       <use xlink:href="#ArialMT-32"/>
       <use xlink:href="#ArialMT-2e" x="55.615234"/>
       <use xlink:href="#ArialMT-35" x="83.398438"/>
      </g>
     </g>
    </g>
    <g id="xtick_12">
     <g id="line2d_19">
      <path d="M 860.046901 441 
L 860.046901 60.48 
" clip-path="url(#pebaec42aa9)" style="fill: none; stroke: #ffffff; stroke-width: 1.5; stroke-linecap: round"/>
     </g>
     <g id="text_19">
      <!-- 5.0 -->
      <g style="fill: #555555" transform="translate(848.579401 465.310391)scale(0.165 -0.165)">
       <use xlink:href="#ArialMT-35"/>
       <use xlink:href="#ArialMT-2e" x="55.615234"/>
       <use xlink:href="#ArialMT-30" x="83.398438"/>
      </g>
     </g>
    </g>
    <g id="text_20">
     <!-- CrudeOil -->
     <g style="fill: #555555" transform="translate(694.14392 485.473828)scale(0.18 -0.18)">
      <defs>
       <path id="ArialMT-75" d="M 2597 0 
L 2597 488 
Q 2209 -75 1544 -75 
Q 1250 -75 995 37 
Q 741 150 617 320 
Q 494 491 444 738 
Q 409 903 409 1263 
L 409 3319 
L 972 3319 
L 972 1478 
Q 972 1038 1006 884 
Q 1059 663 1231 536 
Q 1403 409 1656 409 
Q 1909 409 2131 539 
Q 2353 669 2445 892 
Q 2538 1116 2538 1541 
L 2538 3319 
L 3100 3319 
L 3100 0 
L 2597 0 
z
" transform="scale(0.015625)"/>
       <path id="ArialMT-64" d="M 2575 0 
L 2575 419 
Q 2259 -75 1647 -75 
Q 1250 -75 917 144 
Q 584 363 401 755 
Q 219 1147 219 1656 
Q 219 2153 384 2558 
Q 550 2963 881 3178 
Q 1213 3394 1622 3394 
Q 1922 3394 2156 3267 
Q 2391 3141 2538 2938 
L 2538 4581 
L 3097 4581 
L 3097 0 
L 2575 0 
z
M 797 1656 
Q 797 1019 1065 703 
Q 1334 388 1700 388 
Q 2069 388 2326 689 
Q 2584 991 2584 1609 
Q 2584 2291 2321 2609 
Q 2059 2928 1675 2928 
Q 1300 2928 1048 2622 
Q 797 2316 797 1656 
z
" transform="scale(0.015625)"/>
       <path id="ArialMT-4f" d="M 309 2231 
Q 309 3372 921 4017 
Q 1534 4663 2503 4663 
Q 3138 4663 3647 4359 
Q 4156 4056 4423 3514 
Q 4691 2972 4691 2284 
Q 4691 1588 4409 1038 
Q 4128 488 3612 205 
Q 3097 -78 2500 -78 
Q 1853 -78 1343 234 
Q 834 547 571 1087 
Q 309 1628 309 2231 
z
M 934 2222 
Q 934 1394 1379 917 
Q 1825 441 2497 441 
Q 3181 441 3623 922 
Q 4066 1403 4066 2288 
Q 4066 2847 3877 3264 
Q 3688 3681 3323 3911 
Q 2959 4141 2506 4141 
Q 1863 4141 1398 3698 
Q 934 3256 934 2222 
z
" transform="scale(0.015625)"/>
       <path id="ArialMT-69" d="M 425 3934 
L 425 4581 
L 988 4581 
L 988 3934 
L 425 3934 
z
M 425 0 
L 425 3319 
L 988 3319 
L 988 0 
L 425 0 
z
" transform="scale(0.015625)"/>
       <path id="ArialMT-6c" d="M 409 0 
L 409 4581 
L 972 4581 
L 972 0 
L 409 0 
z
" transform="scale(0.015625)"/>
      </defs>
      <use xlink:href="#ArialMT-43"/>
      <use xlink:href="#ArialMT-72" x="72.216797"/>
      <use xlink:href="#ArialMT-75" x="105.517578"/>
      <use xlink:href="#ArialMT-64" x="161.132812"/>
      <use xlink:href="#ArialMT-65" x="216.748047"/>
      <use xlink:href="#ArialMT-4f" x="272.363281"/>
      <use xlink:href="#ArialMT-69" x="350.146484"/>
      <use xlink:href="#ArialMT-6c" x="372.363281"/>
     </g>
    </g>
   </g>
   <g id="matplotlib.axis_4">
    <g id="ytick_7">
     <g id="line2d_20">
      <path d="M 552.109091 441 
L 907.2 441 
" clip-path="url(#pebaec42aa9)" style="fill: none; stroke: #ffffff; stroke-width: 1.5; stroke-linecap: round"/>
     </g>
     <g id="text_21">
      <!-- 0.0 -->
      <g style="fill: #555555" transform="translate(516.674091 446.905195)scale(0.165 -0.165)">
       <use xlink:href="#ArialMT-30"/>
       <use xlink:href="#ArialMT-2e" x="55.615234"/>
       <use xlink:href="#ArialMT-30" x="83.398438"/>
      </g>
     </g>
    </g>
    <g id="ytick_8">
     <g id="line2d_21">
      <path d="M 552.109091 373.536946 
L 907.2 373.536946 
" clip-path="url(#pebaec42aa9)" style="fill: none; stroke: #ffffff; stroke-width: 1.5; stroke-linecap: round"/>
     </g>
     <g id="text_22">
      <!-- 0.1 -->
      <g style="fill: #555555" transform="translate(516.674091 379.442141)scale(0.165 -0.165)">
       <use xlink:href="#ArialMT-30"/>
       <use xlink:href="#ArialMT-2e" x="55.615234"/>
       <use xlink:href="#ArialMT-31" x="83.398438"/>
      </g>
     </g>
    </g>
    <g id="ytick_9">
     <g id="line2d_22">
      <path d="M 552.109091 306.073891 
L 907.2 306.073891 
" clip-path="url(#pebaec42aa9)" style="fill: none; stroke: #ffffff; stroke-width: 1.5; stroke-linecap: round"/>
     </g>
     <g id="text_23">
      <!-- 0.2 -->
      <g style="fill: #555555" transform="translate(516.674091 311.979087)scale(0.165 -0.165)">
       <use xlink:href="#ArialMT-30"/>
       <use xlink:href="#ArialMT-2e" x="55.615234"/>
       <use xlink:href="#ArialMT-32" x="83.398438"/>
      </g>
     </g>
    </g>
    <g id="ytick_10">
     <g id="line2d_23">
      <path d="M 552.109091 238.610837 
L 907.2 238.610837 
" clip-path="url(#pebaec42aa9)" style="fill: none; stroke: #ffffff; stroke-width: 1.5; stroke-linecap: round"/>
     </g>
     <g id="text_24">
      <!-- 0.3 -->
      <g style="fill: #555555" transform="translate(516.674091 244.516032)scale(0.165 -0.165)">
       <use xlink:href="#ArialMT-30"/>
       <use xlink:href="#ArialMT-2e" x="55.615234"/>
       <use xlink:href="#ArialMT-33" x="83.398438"/>
      </g>
     </g>
    </g>
    <g id="ytick_11">
     <g id="line2d_24">
      <path d="M 552.109091 171.147783 
L 907.2 171.147783 
" clip-path="url(#pebaec42aa9)" style="fill: none; stroke: #ffffff; stroke-width: 1.5; stroke-linecap: round"/>
     </g>
     <g id="text_25">
      <!-- 0.4 -->
      <g style="fill: #555555" transform="translate(516.674091 177.052978)scale(0.165 -0.165)">
       <use xlink:href="#ArialMT-30"/>
       <use xlink:href="#ArialMT-2e" x="55.615234"/>
       <use xlink:href="#ArialMT-34" x="83.398438"/>
      </g>
     </g>
    </g>
    <g id="ytick_12">
     <g id="line2d_25">
      <path d="M 552.109091 103.684729 
L 907.2 103.684729 
" clip-path="url(#pebaec42aa9)" style="fill: none; stroke: #ffffff; stroke-width: 1.5; stroke-linecap: round"/>
     </g>
     <g id="text_26">
      <!-- 0.5 -->
      <g style="fill: #555555" transform="translate(516.674091 109.589924)scale(0.165 -0.165)">
       <use xlink:href="#ArialMT-30"/>
       <use xlink:href="#ArialMT-2e" x="55.615234"/>
       <use xlink:href="#ArialMT-35" x="83.398438"/>
      </g>
     </g>
    </g>
    <g id="text_27">
     <!-- Density -->
     <g style="fill: #555555" transform="translate(508.885653 280.749375)rotate(-90)scale(0.18 -0.18)">
      <defs>
       <path id="ArialMT-74" d="M 1650 503 
L 1731 6 
Q 1494 -44 1306 -44 
Q 1000 -44 831 53 
Q 663 150 594 308 
Q 525 466 525 972 
L 525 2881 
L 113 2881 
L 113 3319 
L 525 3319 
L 525 4141 
L 1084 4478 
L 1084 3319 
L 1650 3319 
L 1650 2881 
L 1084 2881 
L 1084 941 
Q 1084 700 1114 631 
Q 1144 563 1211 522 
Q 1278 481 1403 481 
Q 1497 481 1650 503 
z
" transform="scale(0.015625)"/>
       <path id="ArialMT-79" d="M 397 -1278 
L 334 -750 
Q 519 -800 656 -800 
Q 844 -800 956 -737 
Q 1069 -675 1141 -563 
Q 1194 -478 1313 -144 
Q 1328 -97 1363 -6 
L 103 3319 
L 709 3319 
L 1400 1397 
Q 1534 1031 1641 628 
Q 1738 1016 1872 1384 
L 2581 3319 
L 3144 3319 
L 1881 -56 
Q 1678 -603 1566 -809 
Q 1416 -1088 1222 -1217 
Q 1028 -1347 759 -1347 
Q 597 -1347 397 -1278 
z
" transform="scale(0.015625)"/>
      </defs>
      <use xlink:href="#ArialMT-44"/>
      <use xlink:href="#ArialMT-65" x="72.216797"/>
      <use xlink:href="#ArialMT-6e" x="127.832031"/>
      <use xlink:href="#ArialMT-73" x="183.447266"/>
      <use xlink:href="#ArialMT-69" x="233.447266"/>
      <use xlink:href="#ArialMT-74" x="255.664062"/>
      <use xlink:href="#ArialMT-79" x="283.447266"/>
     </g>
    </g>
   </g>
   <g id="patch_8">
    <path d="M 606.064867 441 
L 610.115375 441 
L 610.115375 438.975419 
L 606.064867 438.975419 
L 606.064867 441 
z
" clip-path="url(#pebaec42aa9)" style="fill: none; stroke: #eeeeee; stroke-width: 0.597796; stroke-linejoin: miter"/>
   </g>
   <g id="patch_9">
    <path d="M 610.115375 441 
L 614.165883 441 
L 614.165883 438.975419 
L 610.115375 438.975419 
L 610.115375 441 
z
" clip-path="url(#pebaec42aa9)" style="fill: none; stroke: #eeeeee; stroke-width: 0.597796; stroke-linejoin: miter"/>
   </g>
   <g id="patch_10">
    <path d="M 614.165883 441 
L 618.216391 441 
L 618.216391 441 
L 614.165883 441 
L 614.165883 441 
z
" clip-path="url(#pebaec42aa9)" style="fill: none; stroke: #eeeeee; stroke-width: 0.597796; stroke-linejoin: miter"/>
   </g>
   <g id="patch_11">
    <path d="M 618.216391 441 
L 622.266899 441 
L 622.266899 441 
L 618.216391 441 
L 618.216391 441 
z
" clip-path="url(#pebaec42aa9)" style="fill: none; stroke: #eeeeee; stroke-width: 0.597796; stroke-linejoin: miter"/>
   </g>
   <g id="patch_12">
    <path d="M 622.266899 441 
L 626.317407 441 
L 626.317407 441 
L 622.266899 441 
L 622.266899 441 
z
" clip-path="url(#pebaec42aa9)" style="fill: none; stroke: #eeeeee; stroke-width: 0.597796; stroke-linejoin: miter"/>
   </g>
   <g id="patch_13">
    <path d="M 626.317407 441 
L 630.367915 441 
L 630.367915 441 
L 626.317407 441 
L 626.317407 441 
z
" clip-path="url(#pebaec42aa9)" style="fill: none; stroke: #eeeeee; stroke-width: 0.597796; stroke-linejoin: miter"/>
   </g>
   <g id="patch_14">
    <path d="M 630.367915 441 
L 634.418423 441 
L 634.418423 441 
L 630.367915 441 
L 630.367915 441 
z
" clip-path="url(#pebaec42aa9)" style="fill: none; stroke: #eeeeee; stroke-width: 0.597796; stroke-linejoin: miter"/>
   </g>
   <g id="patch_15">
    <path d="M 634.418423 441 
L 638.468931 441 
L 638.468931 441 
L 634.418423 441 
L 634.418423 441 
z
" clip-path="url(#pebaec42aa9)" style="fill: none; stroke: #eeeeee; stroke-width: 0.597796; stroke-linejoin: miter"/>
   </g>
   <g id="patch_16">
    <path d="M 638.468931 441 
L 642.519439 441 
L 642.519439 441 
L 638.468931 441 
L 638.468931 441 
z
" clip-path="url(#pebaec42aa9)" style="fill: none; stroke: #eeeeee; stroke-width: 0.597796; stroke-linejoin: miter"/>
   </g>
   <g id="patch_17">
    <path d="M 642.519439 441 
L 646.569948 441 
L 646.569948 434.926257 
L 642.519439 434.926257 
L 642.519439 441 
z
" clip-path="url(#pebaec42aa9)" style="fill: none; stroke: #eeeeee; stroke-width: 0.597796; stroke-linejoin: miter"/>
   </g>
   <g id="patch_18">
    <path d="M 646.569948 441 
L 650.620456 441 
L 650.620456 441 
L 646.569948 441 
L 646.569948 441 
z
" clip-path="url(#pebaec42aa9)" style="fill: none; stroke: #eeeeee; stroke-width: 0.597796; stroke-linejoin: miter"/>
   </g>
   <g id="patch_19">
    <path d="M 650.620456 441 
L 654.670964 441 
L 654.670964 434.926257 
L 650.620456 434.926257 
L 650.620456 441 
z
" clip-path="url(#pebaec42aa9)" style="fill: none; stroke: #eeeeee; stroke-width: 0.597796; stroke-linejoin: miter"/>
   </g>
   <g id="patch_20">
    <path d="M 654.670964 441 
L 658.721472 441 
L 658.721472 436.950838 
L 654.670964 436.950838 
L 654.670964 441 
z
" clip-path="url(#pebaec42aa9)" style="fill: none; stroke: #eeeeee; stroke-width: 0.597796; stroke-linejoin: miter"/>
   </g>
   <g id="patch_21">
    <path d="M 658.721472 441 
L 662.77198 441 
L 662.77198 428.852514 
L 658.721472 428.852514 
L 658.721472 441 
z
" clip-path="url(#pebaec42aa9)" style="fill: none; stroke: #eeeeee; stroke-width: 0.597796; stroke-linejoin: miter"/>
   </g>
   <g id="patch_22">
    <path d="M 662.77198 441 
L 666.822488 441 
L 666.822488 441 
L 662.77198 441 
L 662.77198 441 
z
" clip-path="url(#pebaec42aa9)" style="fill: none; stroke: #eeeeee; stroke-width: 0.597796; stroke-linejoin: miter"/>
   </g>
   <g id="patch_23">
    <path d="M 666.822488 441 
L 670.872996 441 
L 670.872996 441 
L 666.822488 441 
L 666.822488 441 
z
" clip-path="url(#pebaec42aa9)" style="fill: none; stroke: #eeeeee; stroke-width: 0.597796; stroke-linejoin: miter"/>
   </g>
   <g id="patch_24">
    <path d="M 670.872996 441 
L 674.923504 441 
L 674.923504 430.877095 
L 670.872996 430.877095 
L 670.872996 441 
z
" clip-path="url(#pebaec42aa9)" style="fill: none; stroke: #eeeeee; stroke-width: 0.597796; stroke-linejoin: miter"/>
   </g>
   <g id="patch_25">
    <path d="M 674.923504 441 
L 678.974012 441 
L 678.974012 436.950838 
L 674.923504 436.950838 
L 674.923504 441 
z
" clip-path="url(#pebaec42aa9)" style="fill: none; stroke: #eeeeee; stroke-width: 0.597796; stroke-linejoin: miter"/>
   </g>
   <g id="patch_26">
    <path d="M 678.974012 441 
L 683.02452 441 
L 683.02452 430.877095 
L 678.974012 430.877095 
L 678.974012 441 
z
" clip-path="url(#pebaec42aa9)" style="fill: none; stroke: #eeeeee; stroke-width: 0.597796; stroke-linejoin: miter"/>
   </g>
   <g id="patch_27">
    <path d="M 683.02452 441 
L 687.075029 441 
L 687.075029 432.901676 
L 683.02452 432.901676 
L 683.02452 441 
z
" clip-path="url(#pebaec42aa9)" style="fill: none; stroke: #eeeeee; stroke-width: 0.597796; stroke-linejoin: miter"/>
   </g>
   <g id="patch_28">
    <path d="M 687.075029 441 
L 691.125537 441 
L 691.125537 420.75419 
L 687.075029 420.75419 
L 687.075029 441 
z
" clip-path="url(#pebaec42aa9)" style="fill: none; stroke: #eeeeee; stroke-width: 0.597796; stroke-linejoin: miter"/>
   </g>
   <g id="patch_29">
    <path d="M 691.125537 441 
L 695.176045 441 
L 695.176045 426.827933 
L 691.125537 426.827933 
L 691.125537 441 
z
" clip-path="url(#pebaec42aa9)" style="fill: none; stroke: #eeeeee; stroke-width: 0.597796; stroke-linejoin: miter"/>
   </g>
   <g id="patch_30">
    <path d="M 695.176045 441 
L 699.226553 441 
L 699.226553 412.655866 
L 695.176045 412.655866 
L 695.176045 441 
z
" clip-path="url(#pebaec42aa9)" style="fill: none; stroke: #eeeeee; stroke-width: 0.597796; stroke-linejoin: miter"/>
   </g>
   <g id="patch_31">
    <path d="M 699.226553 441 
L 703.277061 441 
L 703.277061 414.680447 
L 699.226553 414.680447 
L 699.226553 441 
z
" clip-path="url(#pebaec42aa9)" style="fill: none; stroke: #eeeeee; stroke-width: 0.597796; stroke-linejoin: miter"/>
   </g>
   <g id="patch_32">
    <path d="M 703.277061 441 
L 707.327569 441 
L 707.327569 376.213408 
L 703.277061 376.213408 
L 703.277061 441 
z
" clip-path="url(#pebaec42aa9)" style="fill: none; stroke: #eeeeee; stroke-width: 0.597796; stroke-linejoin: miter"/>
   </g>
   <g id="patch_33">
    <path d="M 707.327569 441 
L 711.378077 441 
L 711.378077 380.26257 
L 707.327569 380.26257 
L 707.327569 441 
z
" clip-path="url(#pebaec42aa9)" style="fill: none; stroke: #eeeeee; stroke-width: 0.597796; stroke-linejoin: miter"/>
   </g>
   <g id="patch_34">
    <path d="M 711.378077 441 
L 715.428585 441 
L 715.428585 372.164246 
L 711.378077 372.164246 
L 711.378077 441 
z
" clip-path="url(#pebaec42aa9)" style="fill: none; stroke: #eeeeee; stroke-width: 0.597796; stroke-linejoin: miter"/>
   </g>
   <g id="patch_35">
    <path d="M 715.428585 441 
L 719.479093 441 
L 719.479093 347.869274 
L 715.428585 347.869274 
L 715.428585 441 
z
" clip-path="url(#pebaec42aa9)" style="fill: none; stroke: #eeeeee; stroke-width: 0.597796; stroke-linejoin: miter"/>
   </g>
   <g id="patch_36">
    <path d="M 719.479093 441 
L 723.529601 441 
L 723.529601 329.648045 
L 719.479093 329.648045 
L 719.479093 441 
z
" clip-path="url(#pebaec42aa9)" style="fill: none; stroke: #eeeeee; stroke-width: 0.597796; stroke-linejoin: miter"/>
   </g>
   <g id="patch_37">
    <path d="M 723.529601 441 
L 727.580109 441 
L 727.580109 285.107263 
L 723.529601 285.107263 
L 723.529601 441 
z
" clip-path="url(#pebaec42aa9)" style="fill: none; stroke: #eeeeee; stroke-width: 0.597796; stroke-linejoin: miter"/>
   </g>
   <g id="patch_38">
    <path d="M 727.580109 441 
L 731.630618 441 
L 731.630618 248.664804 
L 727.580109 248.664804 
L 727.580109 441 
z
" clip-path="url(#pebaec42aa9)" style="fill: none; stroke: #eeeeee; stroke-width: 0.597796; stroke-linejoin: miter"/>
   </g>
   <g id="patch_39">
    <path d="M 731.630618 441 
L 735.681126 441 
L 735.681126 153.509497 
L 731.630618 153.509497 
L 731.630618 441 
z
" clip-path="url(#pebaec42aa9)" style="fill: none; stroke: #eeeeee; stroke-width: 0.597796; stroke-linejoin: miter"/>
   </g>
   <g id="patch_40">
    <path d="M 735.681126 441 
L 739.731634 441 
L 739.731634 198.050279 
L 735.681126 198.050279 
L 735.681126 441 
z
" clip-path="url(#pebaec42aa9)" style="fill: none; stroke: #eeeeee; stroke-width: 0.597796; stroke-linejoin: miter"/>
   </g>
   <g id="patch_41">
    <path d="M 739.731634 441 
L 743.782142 441 
L 743.782142 84.673743 
L 739.731634 84.673743 
L 739.731634 441 
z
" clip-path="url(#pebaec42aa9)" style="fill: none; stroke: #eeeeee; stroke-width: 0.597796; stroke-linejoin: miter"/>
   </g>
   <g id="patch_42">
    <path d="M 743.782142 441 
L 747.83265 441 
L 747.83265 110.993296 
L 743.782142 110.993296 
L 743.782142 441 
z
" clip-path="url(#pebaec42aa9)" style="fill: none; stroke: #eeeeee; stroke-width: 0.597796; stroke-linejoin: miter"/>
   </g>
   <g id="patch_43">
    <path d="M 747.83265 441 
L 751.883158 441 
L 751.883158 78.6 
L 747.83265 78.6 
L 747.83265 441 
z
" clip-path="url(#pebaec42aa9)" style="fill: none; stroke: #eeeeee; stroke-width: 0.597796; stroke-linejoin: miter"/>
   </g>
   <g id="patch_44">
    <path d="M 751.883158 441 
L 755.933666 441 
L 755.933666 191.976536 
L 751.883158 191.976536 
L 751.883158 441 
z
" clip-path="url(#pebaec42aa9)" style="fill: none; stroke: #eeeeee; stroke-width: 0.597796; stroke-linejoin: miter"/>
   </g>
   <g id="patch_45">
    <path d="M 755.933666 441 
L 759.984174 441 
L 759.984174 194.001117 
L 755.933666 194.001117 
L 755.933666 441 
z
" clip-path="url(#pebaec42aa9)" style="fill: none; stroke: #eeeeee; stroke-width: 0.597796; stroke-linejoin: miter"/>
   </g>
   <g id="patch_46">
    <path d="M 759.984174 441 
L 764.034682 441 
L 764.034682 244.615642 
L 759.984174 244.615642 
L 759.984174 441 
z
" clip-path="url(#pebaec42aa9)" style="fill: none; stroke: #eeeeee; stroke-width: 0.597796; stroke-linejoin: miter"/>
   </g>
   <g id="patch_47">
    <path d="M 764.034682 441 
L 768.08519 441 
L 768.08519 293.205587 
L 764.034682 293.205587 
L 764.034682 441 
z
" clip-path="url(#pebaec42aa9)" style="fill: none; stroke: #eeeeee; stroke-width: 0.597796; stroke-linejoin: miter"/>
   </g>
   <g id="patch_48">
    <path d="M 768.08519 441 
L 772.135698 441 
L 772.135698 297.254749 
L 768.08519 297.254749 
L 768.08519 441 
z
" clip-path="url(#pebaec42aa9)" style="fill: none; stroke: #eeeeee; stroke-width: 0.597796; stroke-linejoin: miter"/>
   </g>
   <g id="patch_49">
    <path d="M 772.135698 441 
L 776.186207 441 
L 776.186207 327.623464 
L 772.135698 327.623464 
L 772.135698 441 
z
" clip-path="url(#pebaec42aa9)" style="fill: none; stroke: #eeeeee; stroke-width: 0.597796; stroke-linejoin: miter"/>
   </g>
   <g id="patch_50">
    <path d="M 776.186207 441 
L 780.236715 441 
L 780.236715 355.967598 
L 776.186207 355.967598 
L 776.186207 441 
z
" clip-path="url(#pebaec42aa9)" style="fill: none; stroke: #eeeeee; stroke-width: 0.597796; stroke-linejoin: miter"/>
   </g>
   <g id="patch_51">
    <path d="M 780.236715 441 
L 784.287223 441 
L 784.287223 396.459218 
L 780.236715 396.459218 
L 780.236715 441 
z
" clip-path="url(#pebaec42aa9)" style="fill: none; stroke: #eeeeee; stroke-width: 0.597796; stroke-linejoin: miter"/>
   </g>
   <g id="patch_52">
    <path d="M 784.287223 441 
L 788.337731 441 
L 788.337731 402.532961 
L 784.287223 402.532961 
L 784.287223 441 
z
" clip-path="url(#pebaec42aa9)" style="fill: none; stroke: #eeeeee; stroke-width: 0.597796; stroke-linejoin: miter"/>
   </g>
   <g id="patch_53">
    <path d="M 788.337731 441 
L 792.388239 441 
L 792.388239 424.803352 
L 788.337731 424.803352 
L 788.337731 441 
z
" clip-path="url(#pebaec42aa9)" style="fill: none; stroke: #eeeeee; stroke-width: 0.597796; stroke-linejoin: miter"/>
   </g>
   <g id="patch_54">
    <path d="M 792.388239 441 
L 796.438747 441 
L 796.438747 434.926257 
L 792.388239 434.926257 
L 792.388239 441 
z
" clip-path="url(#pebaec42aa9)" style="fill: none; stroke: #eeeeee; stroke-width: 0.597796; stroke-linejoin: miter"/>
   </g>
   <g id="patch_55">
    <path d="M 796.438747 441 
L 800.489255 441 
L 800.489255 430.877095 
L 796.438747 430.877095 
L 796.438747 441 
z
" clip-path="url(#pebaec42aa9)" style="fill: none; stroke: #eeeeee; stroke-width: 0.597796; stroke-linejoin: miter"/>
   </g>
   <g id="patch_56">
    <path d="M 800.489255 441 
L 804.539763 441 
L 804.539763 436.950838 
L 800.489255 436.950838 
L 800.489255 441 
z
" clip-path="url(#pebaec42aa9)" style="fill: none; stroke: #eeeeee; stroke-width: 0.597796; stroke-linejoin: miter"/>
   </g>
   <g id="patch_57">
    <path d="M 804.539763 441 
L 808.590271 441 
L 808.590271 434.926257 
L 804.539763 434.926257 
L 804.539763 441 
z
" clip-path="url(#pebaec42aa9)" style="fill: none; stroke: #eeeeee; stroke-width: 0.597796; stroke-linejoin: miter"/>
   </g>
   <g id="patch_58">
    <path d="M 808.590271 441 
L 812.640779 441 
L 812.640779 432.901676 
L 808.590271 432.901676 
L 808.590271 441 
z
" clip-path="url(#pebaec42aa9)" style="fill: none; stroke: #eeeeee; stroke-width: 0.597796; stroke-linejoin: miter"/>
   </g>
   <g id="patch_59">
    <path d="M 812.640779 441 
L 816.691288 441 
L 816.691288 438.975419 
L 812.640779 438.975419 
L 812.640779 441 
z
" clip-path="url(#pebaec42aa9)" style="fill: none; stroke: #eeeeee; stroke-width: 0.597796; stroke-linejoin: miter"/>
   </g>
   <g id="patch_60">
    <path d="M 816.691288 441 
L 820.741796 441 
L 820.741796 441 
L 816.691288 441 
L 816.691288 441 
z
" clip-path="url(#pebaec42aa9)" style="fill: none; stroke: #eeeeee; stroke-width: 0.597796; stroke-linejoin: miter"/>
   </g>
   <g id="patch_61">
    <path d="M 820.741796 441 
L 824.792304 441 
L 824.792304 438.975419 
L 820.741796 438.975419 
L 820.741796 441 
z
" clip-path="url(#pebaec42aa9)" style="fill: none; stroke: #eeeeee; stroke-width: 0.597796; stroke-linejoin: miter"/>
   </g>
   <g id="patch_62">
    <path d="M 568.249587 441 
L 572.388175 441 
L 572.388175 439.018508 
L 568.249587 439.018508 
L 568.249587 441 
z
" clip-path="url(#pebaec42aa9)" style="fill: none; stroke: #eeeeee; stroke-width: 0.413859; stroke-linejoin: miter"/>
   </g>
   <g id="patch_63">
    <path d="M 572.388175 441 
L 576.526764 441 
L 576.526764 441 
L 572.388175 441 
L 572.388175 441 
z
" clip-path="url(#pebaec42aa9)" style="fill: none; stroke: #eeeeee; stroke-width: 0.413859; stroke-linejoin: miter"/>
   </g>
   <g id="patch_64">
    <path d="M 576.526764 441 
L 580.665353 441 
L 580.665353 441 
L 576.526764 441 
L 576.526764 441 
z
" clip-path="url(#pebaec42aa9)" style="fill: none; stroke: #eeeeee; stroke-width: 0.413859; stroke-linejoin: miter"/>
   </g>
   <g id="patch_65">
    <path d="M 580.665353 441 
L 584.803942 441 
L 584.803942 441 
L 580.665353 441 
L 580.665353 441 
z
" clip-path="url(#pebaec42aa9)" style="fill: none; stroke: #eeeeee; stroke-width: 0.413859; stroke-linejoin: miter"/>
   </g>
   <g id="patch_66">
    <path d="M 584.803942 441 
L 588.94253 441 
L 588.94253 441 
L 584.803942 441 
L 584.803942 441 
z
" clip-path="url(#pebaec42aa9)" style="fill: none; stroke: #eeeeee; stroke-width: 0.413859; stroke-linejoin: miter"/>
   </g>
   <g id="patch_67">
    <path d="M 588.94253 441 
L 593.081119 441 
L 593.081119 441 
L 588.94253 441 
L 588.94253 441 
z
" clip-path="url(#pebaec42aa9)" style="fill: none; stroke: #eeeeee; stroke-width: 0.413859; stroke-linejoin: miter"/>
   </g>
   <g id="patch_68">
    <path d="M 593.081119 441 
L 597.219708 441 
L 597.219708 441 
L 593.081119 441 
L 593.081119 441 
z
" clip-path="url(#pebaec42aa9)" style="fill: none; stroke: #eeeeee; stroke-width: 0.413859; stroke-linejoin: miter"/>
   </g>
   <g id="patch_69">
    <path d="M 597.219708 441 
L 601.358296 441 
L 601.358296 441 
L 597.219708 441 
L 597.219708 441 
z
" clip-path="url(#pebaec42aa9)" style="fill: none; stroke: #eeeeee; stroke-width: 0.413859; stroke-linejoin: miter"/>
   </g>
   <g id="patch_70">
    <path d="M 601.358296 441 
L 605.496885 441 
L 605.496885 439.018508 
L 601.358296 439.018508 
L 601.358296 441 
z
" clip-path="url(#pebaec42aa9)" style="fill: none; stroke: #eeeeee; stroke-width: 0.413859; stroke-linejoin: miter"/>
   </g>
   <g id="patch_71">
    <path d="M 605.496885 441 
L 609.635474 441 
L 609.635474 441 
L 605.496885 441 
L 605.496885 441 
z
" clip-path="url(#pebaec42aa9)" style="fill: none; stroke: #eeeeee; stroke-width: 0.413859; stroke-linejoin: miter"/>
   </g>
   <g id="patch_72">
    <path d="M 609.635474 441 
L 613.774062 441 
L 613.774062 439.018508 
L 609.635474 439.018508 
L 609.635474 441 
z
" clip-path="url(#pebaec42aa9)" style="fill: none; stroke: #eeeeee; stroke-width: 0.413859; stroke-linejoin: miter"/>
   </g>
   <g id="patch_73">
    <path d="M 613.774062 441 
L 617.912651 441 
L 617.912651 441 
L 613.774062 441 
L 613.774062 441 
z
" clip-path="url(#pebaec42aa9)" style="fill: none; stroke: #eeeeee; stroke-width: 0.413859; stroke-linejoin: miter"/>
   </g>
   <g id="patch_74">
    <path d="M 617.912651 441 
L 622.05124 441 
L 622.05124 441 
L 617.912651 441 
L 617.912651 441 
z
" clip-path="url(#pebaec42aa9)" style="fill: none; stroke: #eeeeee; stroke-width: 0.413859; stroke-linejoin: miter"/>
   </g>
   <g id="patch_75">
    <path d="M 622.05124 441 
L 626.189828 441 
L 626.189828 439.018508 
L 622.05124 439.018508 
L 622.05124 441 
z
" clip-path="url(#pebaec42aa9)" style="fill: none; stroke: #eeeeee; stroke-width: 0.413859; stroke-linejoin: miter"/>
   </g>
   <g id="patch_76">
    <path d="M 626.189828 441 
L 630.328417 441 
L 630.328417 441 
L 626.189828 441 
L 626.189828 441 
z
" clip-path="url(#pebaec42aa9)" style="fill: none; stroke: #eeeeee; stroke-width: 0.413859; stroke-linejoin: miter"/>
   </g>
   <g id="patch_77">
    <path d="M 630.328417 441 
L 634.467006 441 
L 634.467006 441 
L 630.328417 441 
L 630.328417 441 
z
" clip-path="url(#pebaec42aa9)" style="fill: none; stroke: #eeeeee; stroke-width: 0.413859; stroke-linejoin: miter"/>
   </g>
   <g id="patch_78">
    <path d="M 634.467006 441 
L 638.605594 441 
L 638.605594 441 
L 634.467006 441 
L 634.467006 441 
z
" clip-path="url(#pebaec42aa9)" style="fill: none; stroke: #eeeeee; stroke-width: 0.413859; stroke-linejoin: miter"/>
   </g>
   <g id="patch_79">
    <path d="M 638.605594 441 
L 642.744183 441 
L 642.744183 441 
L 638.605594 441 
L 638.605594 441 
z
" clip-path="url(#pebaec42aa9)" style="fill: none; stroke: #eeeeee; stroke-width: 0.413859; stroke-linejoin: miter"/>
   </g>
   <g id="patch_80">
    <path d="M 642.744183 441 
L 646.882772 441 
L 646.882772 439.018508 
L 642.744183 439.018508 
L 642.744183 441 
z
" clip-path="url(#pebaec42aa9)" style="fill: none; stroke: #eeeeee; stroke-width: 0.413859; stroke-linejoin: miter"/>
   </g>
   <g id="patch_81">
    <path d="M 646.882772 441 
L 651.02136 441 
L 651.02136 439.018508 
L 646.882772 439.018508 
L 646.882772 441 
z
" clip-path="url(#pebaec42aa9)" style="fill: none; stroke: #eeeeee; stroke-width: 0.413859; stroke-linejoin: miter"/>
   </g>
   <g id="patch_82">
    <path d="M 651.02136 441 
L 655.159949 441 
L 655.159949 437.037015 
L 651.02136 437.037015 
L 651.02136 441 
z
" clip-path="url(#pebaec42aa9)" style="fill: none; stroke: #eeeeee; stroke-width: 0.413859; stroke-linejoin: miter"/>
   </g>
   <g id="patch_83">
    <path d="M 655.159949 441 
L 659.298538 441 
L 659.298538 437.037015 
L 655.159949 437.037015 
L 655.159949 441 
z
" clip-path="url(#pebaec42aa9)" style="fill: none; stroke: #eeeeee; stroke-width: 0.413859; stroke-linejoin: miter"/>
   </g>
   <g id="patch_84">
    <path d="M 659.298538 441 
L 663.437127 441 
L 663.437127 433.074031 
L 659.298538 433.074031 
L 659.298538 441 
z
" clip-path="url(#pebaec42aa9)" style="fill: none; stroke: #eeeeee; stroke-width: 0.413859; stroke-linejoin: miter"/>
   </g>
   <g id="patch_85">
    <path d="M 663.437127 441 
L 667.575715 441 
L 667.575715 441 
L 663.437127 441 
L 663.437127 441 
z
" clip-path="url(#pebaec42aa9)" style="fill: none; stroke: #eeeeee; stroke-width: 0.413859; stroke-linejoin: miter"/>
   </g>
   <g id="patch_86">
    <path d="M 667.575715 441 
L 671.714304 441 
L 671.714304 441 
L 667.575715 441 
L 667.575715 441 
z
" clip-path="url(#pebaec42aa9)" style="fill: none; stroke: #eeeeee; stroke-width: 0.413859; stroke-linejoin: miter"/>
   </g>
   <g id="patch_87">
    <path d="M 671.714304 441 
L 675.852893 441 
L 675.852893 437.037015 
L 671.714304 437.037015 
L 671.714304 441 
z
" clip-path="url(#pebaec42aa9)" style="fill: none; stroke: #eeeeee; stroke-width: 0.413859; stroke-linejoin: miter"/>
   </g>
   <g id="patch_88">
    <path d="M 675.852893 441 
L 679.991481 441 
L 679.991481 437.037015 
L 675.852893 437.037015 
L 675.852893 441 
z
" clip-path="url(#pebaec42aa9)" style="fill: none; stroke: #eeeeee; stroke-width: 0.413859; stroke-linejoin: miter"/>
   </g>
   <g id="patch_89">
    <path d="M 679.991481 441 
L 684.13007 441 
L 684.13007 431.092538 
L 679.991481 431.092538 
L 679.991481 441 
z
" clip-path="url(#pebaec42aa9)" style="fill: none; stroke: #eeeeee; stroke-width: 0.413859; stroke-linejoin: miter"/>
   </g>
   <g id="patch_90">
    <path d="M 684.13007 441 
L 688.268659 441 
L 688.268659 431.092538 
L 684.13007 431.092538 
L 684.13007 441 
z
" clip-path="url(#pebaec42aa9)" style="fill: none; stroke: #eeeeee; stroke-width: 0.413859; stroke-linejoin: miter"/>
   </g>
   <g id="patch_91">
    <path d="M 688.268659 441 
L 692.407247 441 
L 692.407247 431.092538 
L 688.268659 431.092538 
L 688.268659 441 
z
" clip-path="url(#pebaec42aa9)" style="fill: none; stroke: #eeeeee; stroke-width: 0.413859; stroke-linejoin: miter"/>
   </g>
   <g id="patch_92">
    <path d="M 692.407247 441 
L 696.545836 441 
L 696.545836 427.129554 
L 692.407247 427.129554 
L 692.407247 441 
z
" clip-path="url(#pebaec42aa9)" style="fill: none; stroke: #eeeeee; stroke-width: 0.413859; stroke-linejoin: miter"/>
   </g>
   <g id="patch_93">
    <path d="M 696.545836 441 
L 700.684425 441 
L 700.684425 407.31463 
L 696.545836 407.31463 
L 696.545836 441 
z
" clip-path="url(#pebaec42aa9)" style="fill: none; stroke: #eeeeee; stroke-width: 0.413859; stroke-linejoin: miter"/>
   </g>
   <g id="patch_94">
    <path d="M 700.684425 441 
L 704.823013 441 
L 704.823013 413.259107 
L 700.684425 413.259107 
L 700.684425 441 
z
" clip-path="url(#pebaec42aa9)" style="fill: none; stroke: #eeeeee; stroke-width: 0.413859; stroke-linejoin: miter"/>
   </g>
   <g id="patch_95">
    <path d="M 704.823013 441 
L 708.961602 441 
L 708.961602 387.499707 
L 704.823013 387.499707 
L 704.823013 441 
z
" clip-path="url(#pebaec42aa9)" style="fill: none; stroke: #eeeeee; stroke-width: 0.413859; stroke-linejoin: miter"/>
   </g>
   <g id="patch_96">
    <path d="M 708.961602 441 
L 713.100191 441 
L 713.100191 365.703291 
L 708.961602 365.703291 
L 708.961602 441 
z
" clip-path="url(#pebaec42aa9)" style="fill: none; stroke: #eeeeee; stroke-width: 0.413859; stroke-linejoin: miter"/>
   </g>
   <g id="patch_97">
    <path d="M 713.100191 441 
L 717.238779 441 
L 717.238779 345.888368 
L 713.100191 345.888368 
L 713.100191 441 
z
" clip-path="url(#pebaec42aa9)" style="fill: none; stroke: #eeeeee; stroke-width: 0.413859; stroke-linejoin: miter"/>
   </g>
   <g id="patch_98">
    <path d="M 717.238779 441 
L 721.377368 441 
L 721.377368 349.851353 
L 717.238779 349.851353 
L 717.238779 441 
z
" clip-path="url(#pebaec42aa9)" style="fill: none; stroke: #eeeeee; stroke-width: 0.413859; stroke-linejoin: miter"/>
   </g>
   <g id="patch_99">
    <path d="M 721.377368 441 
L 725.515957 441 
L 725.515957 300.314044 
L 721.377368 300.314044 
L 721.377368 441 
z
" clip-path="url(#pebaec42aa9)" style="fill: none; stroke: #eeeeee; stroke-width: 0.413859; stroke-linejoin: miter"/>
   </g>
   <g id="patch_100">
    <path d="M 725.515957 441 
L 729.654545 441 
L 729.654545 276.536136 
L 725.515957 276.536136 
L 725.515957 441 
z
" clip-path="url(#pebaec42aa9)" style="fill: none; stroke: #eeeeee; stroke-width: 0.413859; stroke-linejoin: miter"/>
   </g>
   <g id="patch_101">
    <path d="M 729.654545 441 
L 733.793134 441 
L 733.793134 211.146889 
L 729.654545 211.146889 
L 729.654545 441 
z
" clip-path="url(#pebaec42aa9)" style="fill: none; stroke: #eeeeee; stroke-width: 0.413859; stroke-linejoin: miter"/>
   </g>
   <g id="patch_102">
    <path d="M 733.793134 441 
L 737.931723 441 
L 737.931723 185.387489 
L 733.793134 185.387489 
L 733.793134 441 
z
" clip-path="url(#pebaec42aa9)" style="fill: none; stroke: #eeeeee; stroke-width: 0.413859; stroke-linejoin: miter"/>
   </g>
   <g id="patch_103">
    <path d="M 737.931723 441 
L 742.070312 441 
L 742.070312 167.554058 
L 737.931723 167.554058 
L 737.931723 441 
z
" clip-path="url(#pebaec42aa9)" style="fill: none; stroke: #eeeeee; stroke-width: 0.413859; stroke-linejoin: miter"/>
   </g>
   <g id="patch_104">
    <path d="M 742.070312 441 
L 746.2089 441 
L 746.2089 90.275857 
L 742.070312 90.275857 
L 742.070312 441 
z
" clip-path="url(#pebaec42aa9)" style="fill: none; stroke: #eeeeee; stroke-width: 0.413859; stroke-linejoin: miter"/>
   </g>
   <g id="patch_105">
    <path d="M 746.2089 441 
L 750.347489 441 
L 750.347489 114.053765 
L 746.2089 114.053765 
L 746.2089 441 
z
" clip-path="url(#pebaec42aa9)" style="fill: none; stroke: #eeeeee; stroke-width: 0.413859; stroke-linejoin: miter"/>
   </g>
   <g id="patch_106">
    <path d="M 750.347489 441 
L 754.486078 441 
L 754.486078 98.201826 
L 750.347489 98.201826 
L 750.347489 441 
z
" clip-path="url(#pebaec42aa9)" style="fill: none; stroke: #eeeeee; stroke-width: 0.413859; stroke-linejoin: miter"/>
   </g>
   <g id="patch_107">
    <path d="M 754.486078 441 
L 758.624666 441 
L 758.624666 185.387489 
L 754.486078 185.387489 
L 754.486078 441 
z
" clip-path="url(#pebaec42aa9)" style="fill: none; stroke: #eeeeee; stroke-width: 0.413859; stroke-linejoin: miter"/>
   </g>
   <g id="patch_108">
    <path d="M 758.624666 441 
L 762.763255 441 
L 762.763255 201.239428 
L 758.624666 201.239428 
L 758.624666 441 
z
" clip-path="url(#pebaec42aa9)" style="fill: none; stroke: #eeeeee; stroke-width: 0.413859; stroke-linejoin: miter"/>
   </g>
   <g id="patch_109">
    <path d="M 762.763255 441 
L 766.901844 441 
L 766.901844 270.591659 
L 762.763255 270.591659 
L 762.763255 441 
z
" clip-path="url(#pebaec42aa9)" style="fill: none; stroke: #eeeeee; stroke-width: 0.413859; stroke-linejoin: miter"/>
   </g>
   <g id="patch_110">
    <path d="M 766.901844 441 
L 771.040432 441 
L 771.040432 282.480613 
L 766.901844 282.480613 
L 766.901844 441 
z
" clip-path="url(#pebaec42aa9)" style="fill: none; stroke: #eeeeee; stroke-width: 0.413859; stroke-linejoin: miter"/>
   </g>
   <g id="patch_111">
    <path d="M 771.040432 441 
L 775.179021 441 
L 775.179021 316.165983 
L 771.040432 316.165983 
L 771.040432 441 
z
" clip-path="url(#pebaec42aa9)" style="fill: none; stroke: #eeeeee; stroke-width: 0.413859; stroke-linejoin: miter"/>
   </g>
   <g id="patch_112">
    <path d="M 775.179021 441 
L 779.31761 441 
L 779.31761 373.629261 
L 775.179021 373.629261 
L 775.179021 441 
z
" clip-path="url(#pebaec42aa9)" style="fill: none; stroke: #eeeeee; stroke-width: 0.413859; stroke-linejoin: miter"/>
   </g>
   <g id="patch_113">
    <path d="M 779.31761 441 
L 783.456198 441 
L 783.456198 383.536722 
L 779.31761 383.536722 
L 779.31761 441 
z
" clip-path="url(#pebaec42aa9)" style="fill: none; stroke: #eeeeee; stroke-width: 0.413859; stroke-linejoin: miter"/>
   </g>
   <g id="patch_114">
    <path d="M 783.456198 441 
L 787.594787 441 
L 787.594787 397.407169 
L 783.456198 397.407169 
L 783.456198 441 
z
" clip-path="url(#pebaec42aa9)" style="fill: none; stroke: #eeeeee; stroke-width: 0.413859; stroke-linejoin: miter"/>
   </g>
   <g id="patch_115">
    <path d="M 787.594787 441 
L 791.733376 441 
L 791.733376 419.203584 
L 787.594787 419.203584 
L 787.594787 441 
z
" clip-path="url(#pebaec42aa9)" style="fill: none; stroke: #eeeeee; stroke-width: 0.413859; stroke-linejoin: miter"/>
   </g>
   <g id="patch_116">
    <path d="M 791.733376 441 
L 795.871964 441 
L 795.871964 433.074031 
L 791.733376 433.074031 
L 791.733376 441 
z
" clip-path="url(#pebaec42aa9)" style="fill: none; stroke: #eeeeee; stroke-width: 0.413859; stroke-linejoin: miter"/>
   </g>
   <g id="patch_117">
    <path d="M 795.871964 441 
L 800.010553 441 
L 800.010553 437.037015 
L 795.871964 437.037015 
L 795.871964 441 
z
" clip-path="url(#pebaec42aa9)" style="fill: none; stroke: #eeeeee; stroke-width: 0.413859; stroke-linejoin: miter"/>
   </g>
   <g id="patch_118">
    <path d="M 800.010553 441 
L 804.149142 441 
L 804.149142 435.055523 
L 800.010553 435.055523 
L 800.010553 441 
z
" clip-path="url(#pebaec42aa9)" style="fill: none; stroke: #eeeeee; stroke-width: 0.413859; stroke-linejoin: miter"/>
   </g>
   <g id="patch_119">
    <path d="M 804.149142 441 
L 808.28773 441 
L 808.28773 433.074031 
L 804.149142 433.074031 
L 804.149142 441 
z
" clip-path="url(#pebaec42aa9)" style="fill: none; stroke: #eeeeee; stroke-width: 0.413859; stroke-linejoin: miter"/>
   </g>
   <g id="patch_120">
    <path d="M 808.28773 441 
L 812.426319 441 
L 812.426319 435.055523 
L 808.28773 435.055523 
L 808.28773 441 
z
" clip-path="url(#pebaec42aa9)" style="fill: none; stroke: #eeeeee; stroke-width: 0.413859; stroke-linejoin: miter"/>
   </g>
   <g id="patch_121">
    <path d="M 812.426319 441 
L 816.564908 441 
L 816.564908 441 
L 812.426319 441 
L 812.426319 441 
z
" clip-path="url(#pebaec42aa9)" style="fill: none; stroke: #eeeeee; stroke-width: 0.413859; stroke-linejoin: miter"/>
   </g>
   <g id="patch_122">
    <path d="M 816.564908 441 
L 820.703497 441 
L 820.703497 439.018508 
L 816.564908 439.018508 
L 816.564908 441 
z
" clip-path="url(#pebaec42aa9)" style="fill: none; stroke: #eeeeee; stroke-width: 0.413859; stroke-linejoin: miter"/>
   </g>
   <g id="patch_123">
    <path d="M 820.703497 441 
L 824.842085 441 
L 824.842085 439.018508 
L 820.703497 439.018508 
L 820.703497 441 
z
" clip-path="url(#pebaec42aa9)" style="fill: none; stroke: #eeeeee; stroke-width: 0.413859; stroke-linejoin: miter"/>
   </g>
   <g id="patch_124">
    <path d="M 824.842085 441 
L 828.980674 441 
L 828.980674 439.018508 
L 824.842085 439.018508 
L 824.842085 441 
z
" clip-path="url(#pebaec42aa9)" style="fill: none; stroke: #eeeeee; stroke-width: 0.413859; stroke-linejoin: miter"/>
   </g>
   <g id="patch_125">
    <path d="M 828.980674 441 
L 833.119263 441 
L 833.119263 441 
L 828.980674 441 
L 828.980674 441 
z
" clip-path="url(#pebaec42aa9)" style="fill: none; stroke: #eeeeee; stroke-width: 0.413859; stroke-linejoin: miter"/>
   </g>
   <g id="patch_126">
    <path d="M 833.119263 441 
L 837.257851 441 
L 837.257851 441 
L 833.119263 441 
L 833.119263 441 
z
" clip-path="url(#pebaec42aa9)" style="fill: none; stroke: #eeeeee; stroke-width: 0.413859; stroke-linejoin: miter"/>
   </g>
   <g id="patch_127">
    <path d="M 837.257851 441 
L 841.39644 441 
L 841.39644 441 
L 837.257851 441 
L 837.257851 441 
z
" clip-path="url(#pebaec42aa9)" style="fill: none; stroke: #eeeeee; stroke-width: 0.413859; stroke-linejoin: miter"/>
   </g>
   <g id="patch_128">
    <path d="M 841.39644 441 
L 845.535029 441 
L 845.535029 441 
L 841.39644 441 
L 841.39644 441 
z
" clip-path="url(#pebaec42aa9)" style="fill: none; stroke: #eeeeee; stroke-width: 0.413859; stroke-linejoin: miter"/>
   </g>
   <g id="patch_129">
    <path d="M 845.535029 441 
L 849.673617 441 
L 849.673617 441 
L 845.535029 441 
L 845.535029 441 
z
" clip-path="url(#pebaec42aa9)" style="fill: none; stroke: #eeeeee; stroke-width: 0.413859; stroke-linejoin: miter"/>
   </g>
   <g id="patch_130">
    <path d="M 849.673617 441 
L 853.812206 441 
L 853.812206 441 
L 849.673617 441 
L 849.673617 441 
z
" clip-path="url(#pebaec42aa9)" style="fill: none; stroke: #eeeeee; stroke-width: 0.413859; stroke-linejoin: miter"/>
   </g>
   <g id="patch_131">
    <path d="M 853.812206 441 
L 857.950795 441 
L 857.950795 441 
L 853.812206 441 
L 853.812206 441 
z
" clip-path="url(#pebaec42aa9)" style="fill: none; stroke: #eeeeee; stroke-width: 0.413859; stroke-linejoin: miter"/>
   </g>
   <g id="patch_132">
    <path d="M 857.950795 441 
L 862.089383 441 
L 862.089383 441 
L 857.950795 441 
L 857.950795 441 
z
" clip-path="url(#pebaec42aa9)" style="fill: none; stroke: #eeeeee; stroke-width: 0.413859; stroke-linejoin: miter"/>
   </g>
   <g id="patch_133">
    <path d="M 862.089383 441 
L 866.227972 441 
L 866.227972 441 
L 862.089383 441 
L 862.089383 441 
z
" clip-path="url(#pebaec42aa9)" style="fill: none; stroke: #eeeeee; stroke-width: 0.413859; stroke-linejoin: miter"/>
   </g>
   <g id="patch_134">
    <path d="M 866.227972 441 
L 870.366561 441 
L 870.366561 441 
L 866.227972 441 
L 866.227972 441 
z
" clip-path="url(#pebaec42aa9)" style="fill: none; stroke: #eeeeee; stroke-width: 0.413859; stroke-linejoin: miter"/>
   </g>
   <g id="patch_135">
    <path d="M 870.366561 441 
L 874.505149 441 
L 874.505149 441 
L 870.366561 441 
L 870.366561 441 
z
" clip-path="url(#pebaec42aa9)" style="fill: none; stroke: #eeeeee; stroke-width: 0.413859; stroke-linejoin: miter"/>
   </g>
   <g id="patch_136">
    <path d="M 874.505149 441 
L 878.643738 441 
L 878.643738 441 
L 874.505149 441 
L 874.505149 441 
z
" clip-path="url(#pebaec42aa9)" style="fill: none; stroke: #eeeeee; stroke-width: 0.413859; stroke-linejoin: miter"/>
   </g>
   <g id="patch_137">
    <path d="M 878.643738 441 
L 882.782327 441 
L 882.782327 441 
L 878.643738 441 
L 878.643738 441 
z
" clip-path="url(#pebaec42aa9)" style="fill: none; stroke: #eeeeee; stroke-width: 0.413859; stroke-linejoin: miter"/>
   </g>
   <g id="patch_138">
    <path d="M 882.782327 441 
L 886.920915 441 
L 886.920915 441 
L 882.782327 441 
L 882.782327 441 
z
" clip-path="url(#pebaec42aa9)" style="fill: none; stroke: #eeeeee; stroke-width: 0.413859; stroke-linejoin: miter"/>
   </g>
   <g id="patch_139">
    <path d="M 886.920915 441 
L 891.059504 441 
L 891.059504 439.018508 
L 886.920915 439.018508 
L 886.920915 441 
z
" clip-path="url(#pebaec42aa9)" style="fill: none; stroke: #eeeeee; stroke-width: 0.413859; stroke-linejoin: miter"/>
   </g>
   <g id="line2d_26">
    <path d="M 606.064867 439.878856 
L 608.263132 439.800109 
L 610.461398 439.906152 
L 614.857929 440.441516 
L 618.155328 440.782615 
L 622.551859 440.966386 
L 630.245789 440.970259 
L 633.543188 440.839622 
L 635.741454 440.607684 
L 637.939719 440.199749 
L 641.237118 439.304922 
L 645.633649 438.127398 
L 653.327579 436.356555 
L 656.624978 435.604215 
L 658.823243 435.418114 
L 659.922376 435.485047 
L 662.120642 435.953769 
L 665.41804 437.010849 
L 666.517173 437.246355 
L 667.616306 437.344162 
L 668.715439 437.284061 
L 669.814572 437.069572 
L 672.012838 436.282999 
L 675.310236 434.706797 
L 678.607635 432.975513 
L 680.8059 431.652106 
L 684.103299 429.342491 
L 687.400697 426.683713 
L 689.598963 424.666171 
L 691.797229 422.276689 
L 692.896362 420.855383 
L 693.995495 419.228421 
L 695.094627 417.359551 
L 696.19376 415.224034 
L 698.392026 410.139718 
L 700.590292 404.139818 
L 708.284222 381.831457 
L 710.482487 375.617924 
L 712.680753 368.59031 
L 713.779886 364.482648 
L 714.879019 359.821853 
L 715.978152 354.504823 
L 717.077284 348.454792 
L 718.176417 341.633638 
L 720.374683 325.761678 
L 722.572949 307.454056 
L 724.771214 287.481822 
L 728.068613 255.104389 
L 735.762543 176.26708 
L 737.960809 156.436217 
L 740.159074 138.332487 
L 741.258207 130.316208 
L 742.35734 123.396185 
L 743.456473 117.939617 
L 744.555606 114.286883 
L 745.654739 112.688811 
L 746.753871 113.264003 
L 747.853004 115.984135 
L 748.952137 120.686757 
L 750.05127 127.109051 
L 751.150403 134.933313 
L 753.348668 153.520856 
L 755.546934 174.387704 
L 764.339997 260.763115 
L 766.538263 278.68677 
L 769.835661 302.909674 
L 777.529591 357.577893 
L 779.727857 371.585713 
L 781.926123 384.024169 
L 784.124388 394.896058 
L 786.322654 404.489282 
L 788.52092 413.01682 
L 790.719185 420.340709 
L 791.818318 423.433888 
L 792.917451 426.089042 
L 794.016584 428.286108 
L 795.115717 430.032316 
L 796.21485 431.361764 
L 797.313982 432.329764 
L 798.413115 433.004058 
L 799.512248 433.455437 
L 801.710514 433.944209 
L 807.206178 434.715843 
L 809.404444 435.357666 
L 811.60271 436.282962 
L 817.098374 438.850606 
L 819.296639 439.507713 
L 821.494905 439.88673 
L 824.792304 440.175643 
L 824.792304 440.175643 
" clip-path="url(#pebaec42aa9)" style="fill: none; stroke: #348abd; stroke-width: 2.25; stroke-linecap: round"/>
   </g>
   <g id="line2d_27">
    <path d="M 568.249587 440.35146 
L 571.493908 440.472627 
L 577.982549 440.899174 
L 584.471191 440.996037 
L 594.204153 440.913186 
L 599.070634 440.610008 
L 605.559276 440.153385 
L 610.425757 440.104419 
L 626.647361 440.401421 
L 633.136002 440.772694 
L 636.380323 440.682177 
L 639.624644 440.367792 
L 644.491125 439.676411 
L 647.735446 439.056792 
L 650.979767 438.192354 
L 655.846248 436.758507 
L 657.468408 436.494471 
L 659.090569 436.466593 
L 660.712729 436.706609 
L 662.334889 437.177014 
L 665.57921 438.334253 
L 667.20137 438.730179 
L 668.823531 438.868361 
L 670.445691 438.730312 
L 672.067852 438.353122 
L 673.690012 437.794604 
L 676.934333 436.297592 
L 688.289456 430.032845 
L 689.911616 428.805576 
L 691.533776 427.126167 
L 693.155937 424.908203 
L 694.778097 422.14338 
L 696.400257 418.867429 
L 698.022418 415.10515 
L 699.644578 410.834768 
L 701.266739 406.00175 
L 702.888899 400.576012 
L 706.13322 388.248208 
L 712.621861 361.764266 
L 715.866182 347.686998 
L 717.488343 339.851118 
L 719.110503 331.135548 
L 720.732663 321.277579 
L 722.354824 310.08088 
L 723.976984 297.472793 
L 725.599144 283.539859 
L 728.843465 252.895986 
L 732.087786 221.703227 
L 735.332107 192.729652 
L 740.198588 151.886424 
L 741.820748 139.45667 
L 743.442909 128.897363 
L 745.065069 121.188411 
L 746.68723 117.085803 
L 748.30939 117.022925 
L 749.93155 121.130543 
L 751.553711 129.258806 
L 753.175871 140.952079 
L 754.798031 155.437992 
L 758.042352 188.7258 
L 761.286673 221.61781 
L 762.908833 236.567857 
L 766.153154 263.588965 
L 769.397475 289.597579 
L 777.508277 357.082164 
L 779.130437 368.001933 
L 780.752598 377.464297 
L 782.374758 385.689288 
L 783.996918 393.022214 
L 787.241239 406.174921 
L 788.8634 412.200791 
L 790.48556 417.735116 
L 792.10772 422.582869 
L 793.729881 426.573687 
L 795.352041 429.627658 
L 796.974202 431.779276 
L 798.596362 433.162751 
L 800.218522 433.974826 
L 801.840683 434.432163 
L 806.707164 435.430277 
L 809.951485 436.58118 
L 813.195805 437.912107 
L 814.817966 438.472915 
L 816.440126 438.896887 
L 818.062287 439.172451 
L 821.306607 439.382655 
L 826.173089 439.573803 
L 829.417409 439.977411 
L 834.283891 440.660727 
L 837.528211 440.89677 
L 842.394692 440.991581 
L 874.8379 440.996315 
L 881.326542 440.899174 
L 886.193023 440.592765 
L 889.437344 440.38414 
L 891.059504 440.35146 
L 891.059504 440.35146 
" clip-path="url(#pebaec42aa9)" style="fill: none; stroke: #008000; stroke-width: 2.25; stroke-linecap: round"/>
   </g>
   <g id="patch_140">
    <path d="M 552.109091 441 
L 552.109091 60.48 
" style="fill: none; stroke: #ffffff; stroke-width: 1.875; stroke-linejoin: miter; stroke-linecap: square"/>
   </g>
   <g id="patch_141">
    <path d="M 907.2 441 
L 907.2 60.48 
" style="fill: none; stroke: #ffffff; stroke-width: 1.875; stroke-linejoin: miter; stroke-linecap: square"/>
   </g>
   <g id="patch_142">
    <path d="M 552.109091 441 
L 907.2 441 
" style="fill: none; stroke: #ffffff; stroke-width: 1.875; stroke-linejoin: miter; stroke-linecap: square"/>
   </g>
   <g id="patch_143">
    <path d="M 552.109091 60.48 
L 907.2 60.48 
" style="fill: none; stroke: #ffffff; stroke-width: 1.875; stroke-linejoin: miter; stroke-linecap: square"/>
   </g>
   <g id="text_28">
    <!-- Density comparison -->
    <g style="fill: #262626" transform="translate(650.627514 54.48)scale(0.18 -0.18)">
     <defs>
      <path id="ArialMT-63" d="M 2588 1216 
L 3141 1144 
Q 3050 572 2676 248 
Q 2303 -75 1759 -75 
Q 1078 -75 664 370 
Q 250 816 250 1647 
Q 250 2184 428 2587 
Q 606 2991 970 3192 
Q 1334 3394 1763 3394 
Q 2303 3394 2647 3120 
Q 2991 2847 3088 2344 
L 2541 2259 
Q 2463 2594 2264 2762 
Q 2066 2931 1784 2931 
Q 1359 2931 1093 2626 
Q 828 2322 828 1663 
Q 828 994 1084 691 
Q 1341 388 1753 388 
Q 2084 388 2306 591 
Q 2528 794 2588 1216 
z
" transform="scale(0.015625)"/>
      <path id="ArialMT-6f" d="M 213 1659 
Q 213 2581 725 3025 
Q 1153 3394 1769 3394 
Q 2453 3394 2887 2945 
Q 3322 2497 3322 1706 
Q 3322 1066 3130 698 
Q 2938 331 2570 128 
Q 2203 -75 1769 -75 
Q 1072 -75 642 372 
Q 213 819 213 1659 
z
M 791 1659 
Q 791 1022 1069 705 
Q 1347 388 1769 388 
Q 2188 388 2466 706 
Q 2744 1025 2744 1678 
Q 2744 2294 2464 2611 
Q 2184 2928 1769 2928 
Q 1347 2928 1069 2612 
Q 791 2297 791 1659 
z
" transform="scale(0.015625)"/>
      <path id="ArialMT-6d" d="M 422 0 
L 422 3319 
L 925 3319 
L 925 2853 
Q 1081 3097 1340 3245 
Q 1600 3394 1931 3394 
Q 2300 3394 2536 3241 
Q 2772 3088 2869 2813 
Q 3263 3394 3894 3394 
Q 4388 3394 4653 3120 
Q 4919 2847 4919 2278 
L 4919 0 
L 4359 0 
L 4359 2091 
Q 4359 2428 4304 2576 
Q 4250 2725 4106 2815 
Q 3963 2906 3769 2906 
Q 3419 2906 3187 2673 
Q 2956 2441 2956 1928 
L 2956 0 
L 2394 0 
L 2394 2156 
Q 2394 2531 2256 2718 
Q 2119 2906 1806 2906 
Q 1569 2906 1367 2781 
Q 1166 2656 1075 2415 
Q 984 2175 984 1722 
L 984 0 
L 422 0 
z
" transform="scale(0.015625)"/>
      <path id="ArialMT-70" d="M 422 -1272 
L 422 3319 
L 934 3319 
L 934 2888 
Q 1116 3141 1344 3267 
Q 1572 3394 1897 3394 
Q 2322 3394 2647 3175 
Q 2972 2956 3137 2557 
Q 3303 2159 3303 1684 
Q 3303 1175 3120 767 
Q 2938 359 2589 142 
Q 2241 -75 1856 -75 
Q 1575 -75 1351 44 
Q 1128 163 984 344 
L 984 -1272 
L 422 -1272 
z
M 931 1641 
Q 931 1000 1190 694 
Q 1450 388 1819 388 
Q 2194 388 2461 705 
Q 2728 1022 2728 1688 
Q 2728 2322 2467 2637 
Q 2206 2953 1844 2953 
Q 1484 2953 1207 2617 
Q 931 2281 931 1641 
z
" transform="scale(0.015625)"/>
      <path id="ArialMT-61" d="M 2588 409 
Q 2275 144 1986 34 
Q 1697 -75 1366 -75 
Q 819 -75 525 192 
Q 231 459 231 875 
Q 231 1119 342 1320 
Q 453 1522 633 1644 
Q 813 1766 1038 1828 
Q 1203 1872 1538 1913 
Q 2219 1994 2541 2106 
Q 2544 2222 2544 2253 
Q 2544 2597 2384 2738 
Q 2169 2928 1744 2928 
Q 1347 2928 1158 2789 
Q 969 2650 878 2297 
L 328 2372 
Q 403 2725 575 2942 
Q 747 3159 1072 3276 
Q 1397 3394 1825 3394 
Q 2250 3394 2515 3294 
Q 2781 3194 2906 3042 
Q 3031 2891 3081 2659 
Q 3109 2516 3109 2141 
L 3109 1391 
Q 3109 606 3145 398 
Q 3181 191 3288 0 
L 2700 0 
Q 2613 175 2588 409 
z
M 2541 1666 
Q 2234 1541 1622 1453 
Q 1275 1403 1131 1340 
Q 988 1278 909 1158 
Q 831 1038 831 891 
Q 831 666 1001 516 
Q 1172 366 1500 366 
Q 1825 366 2078 508 
Q 2331 650 2450 897 
Q 2541 1088 2541 1459 
L 2541 1666 
z
" transform="scale(0.015625)"/>
     </defs>
     <use xlink:href="#ArialMT-44"/>
     <use xlink:href="#ArialMT-65" x="72.216797"/>
     <use xlink:href="#ArialMT-6e" x="127.832031"/>
     <use xlink:href="#ArialMT-73" x="183.447266"/>
     <use xlink:href="#ArialMT-69" x="233.447266"/>
     <use xlink:href="#ArialMT-74" x="255.664062"/>
     <use xlink:href="#ArialMT-79" x="283.447266"/>
     <use xlink:href="#ArialMT-20" x="333.447266"/>
     <use xlink:href="#ArialMT-63" x="361.230469"/>
     <use xlink:href="#ArialMT-6f" x="411.230469"/>
     <use xlink:href="#ArialMT-6d" x="466.845703"/>
     <use xlink:href="#ArialMT-70" x="550.146484"/>
     <use xlink:href="#ArialMT-61" x="605.761719"/>
     <use xlink:href="#ArialMT-72" x="661.376953"/>
     <use xlink:href="#ArialMT-69" x="694.677734"/>
     <use xlink:href="#ArialMT-73" x="716.894531"/>
     <use xlink:href="#ArialMT-6f" x="766.894531"/>
     <use xlink:href="#ArialMT-6e" x="822.509766"/>
    </g>
   </g>
  </g>
 </g>
 <defs>
  <clipPath id="p8f5a2394a4">
   <rect x="126" y="60.48" width="355.090909" height="380.52"/>
  </clipPath>
  <clipPath id="pebaec42aa9">
   <rect x="552.109091" y="60.48" width="355.090909" height="380.52"/>
  </clipPath>
 </defs>
</svg>
