<?xml version="1.0" encoding="utf-8" standalone="no"?>
<!DOCTYPE svg PUBLIC "-//W3C//DTD SVG 1.1//EN"
  "http://www.w3.org/Graphics/SVG/1.1/DTD/svg11.dtd">
<svg xmlns:xlink="http://www.w3.org/1999/xlink" width="1008pt" height="504pt" viewBox="0 0 1008 504" xmlns="http://www.w3.org/2000/svg" version="1.1">
 <metadata>
  <rdf:RDF xmlns:dc="http://purl.org/dc/elements/1.1/" xmlns:cc="http://creativecommons.org/ns#" xmlns:rdf="http://www.w3.org/1999/02/22-rdf-syntax-ns#">
   <cc:Work>
    <dc:type rdf:resource="http://purl.org/dc/dcmitype/StillImage"/>
    <dc:date>2022-04-15T23:28:27.762294</dc:date>
    <dc:format>image/svg+xml</dc:format>
    <dc:creator>
     <cc:Agent>
      <dc:title>Matplotlib v3.5.1, https://matplotlib.org/</dc:title>
     </cc:Agent>
    </dc:creator>
   </cc:Work>
  </rdf:RDF>
 </metadata>
 <defs>
  <style type="text/css">*{stroke-linejoin: round; stroke-linecap: butt}</style>
 </defs>
 <g id="figure_1">
  <g id="patch_1">
   <path d="M 0 504 
L 1008 504 
L 1008 0 
L 0 0 
z
" style="fill: #ffffff"/>
  </g>
  <g id="axes_1">
   <g id="patch_2">
    <path d="M 71.92 215.54 
L 485.867996 215.54 
L 485.867996 49.92 
L 71.92 49.92 
z
" style="fill: #e5e5e5"/>
   </g>
   <g id="matplotlib.axis_1">
    <g id="xtick_1">
     <g id="line2d_1">
      <path d="M 124.342882 215.54 
L 124.342882 49.92 
" clip-path="url(#pdd534fe9dd)" style="fill: none; stroke: #ffffff; stroke-width: 2; stroke-linecap: round"/>
     </g>
     <g id="text_1">
      <!-- −5.0 -->
      <g style="fill: #555555" transform="translate(102.628195 246.787187)scale(0.22 -0.22)">
       <defs>
        <path id="ArialMT-2212" d="M 3381 1997 
L 356 1997 
L 356 2522 
L 3381 2522 
L 3381 1997 
z
" transform="scale(0.015625)"/>
        <path id="ArialMT-35" d="M 266 1200 
L 856 1250 
Q 922 819 1161 601 
Q 1400 384 1738 384 
Q 2144 384 2425 690 
Q 2706 997 2706 1503 
Q 2706 1984 2436 2262 
Q 2166 2541 1728 2541 
Q 1456 2541 1237 2417 
Q 1019 2294 894 2097 
L 366 2166 
L 809 4519 
L 3088 4519 
L 3088 3981 
L 1259 3981 
L 1013 2750 
Q 1425 3038 1878 3038 
Q 2478 3038 2890 2622 
Q 3303 2206 3303 1553 
Q 3303 931 2941 478 
Q 2500 -78 1738 -78 
Q 1113 -78 717 272 
Q 322 622 266 1200 
z
" transform="scale(0.015625)"/>
        <path id="ArialMT-2e" d="M 581 0 
L 581 641 
L 1222 641 
L 1222 0 
L 581 0 
z
" transform="scale(0.015625)"/>
        <path id="ArialMT-30" d="M 266 2259 
Q 266 3072 433 3567 
Q 600 4063 929 4331 
Q 1259 4600 1759 4600 
Q 2128 4600 2406 4451 
Q 2684 4303 2865 4023 
Q 3047 3744 3150 3342 
Q 3253 2941 3253 2259 
Q 3253 1453 3087 958 
Q 2922 463 2592 192 
Q 2263 -78 1759 -78 
Q 1097 -78 719 397 
Q 266 969 266 2259 
z
M 844 2259 
Q 844 1131 1108 757 
Q 1372 384 1759 384 
Q 2147 384 2411 759 
Q 2675 1134 2675 2259 
Q 2675 3391 2411 3762 
Q 2147 4134 1753 4134 
Q 1366 4134 1134 3806 
Q 844 3388 844 2259 
z
" transform="scale(0.015625)"/>
       </defs>
       <use xlink:href="#ArialMT-2212"/>
       <use xlink:href="#ArialMT-35" x="58.398438"/>
       <use xlink:href="#ArialMT-2e" x="114.013672"/>
       <use xlink:href="#ArialMT-30" x="141.796875"/>
      </g>
     </g>
    </g>
    <g id="xtick_2">
     <g id="line2d_2">
      <path d="M 204.05112 215.54 
L 204.05112 49.92 
" clip-path="url(#pdd534fe9dd)" style="fill: none; stroke: #ffffff; stroke-width: 2; stroke-linecap: round"/>
     </g>
     <g id="text_2">
      <!-- −2.5 -->
      <g style="fill: #555555" transform="translate(182.336433 246.787187)scale(0.22 -0.22)">
       <defs>
        <path id="ArialMT-32" d="M 3222 541 
L 3222 0 
L 194 0 
Q 188 203 259 391 
Q 375 700 629 1000 
Q 884 1300 1366 1694 
Q 2113 2306 2375 2664 
Q 2638 3022 2638 3341 
Q 2638 3675 2398 3904 
Q 2159 4134 1775 4134 
Q 1369 4134 1125 3890 
Q 881 3647 878 3216 
L 300 3275 
Q 359 3922 746 4261 
Q 1134 4600 1788 4600 
Q 2447 4600 2831 4234 
Q 3216 3869 3216 3328 
Q 3216 3053 3103 2787 
Q 2991 2522 2730 2228 
Q 2469 1934 1863 1422 
Q 1356 997 1212 845 
Q 1069 694 975 541 
L 3222 541 
z
" transform="scale(0.015625)"/>
       </defs>
       <use xlink:href="#ArialMT-2212"/>
       <use xlink:href="#ArialMT-32" x="58.398438"/>
       <use xlink:href="#ArialMT-2e" x="114.013672"/>
       <use xlink:href="#ArialMT-35" x="141.796875"/>
      </g>
     </g>
    </g>
    <g id="xtick_3">
     <g id="line2d_3">
      <path d="M 283.759358 215.54 
L 283.759358 49.92 
" clip-path="url(#pdd534fe9dd)" style="fill: none; stroke: #ffffff; stroke-width: 2; stroke-linecap: round"/>
     </g>
     <g id="text_3">
      <!-- 0.0 -->
      <g style="fill: #555555" transform="translate(268.469358 246.787187)scale(0.22 -0.22)">
       <use xlink:href="#ArialMT-30"/>
       <use xlink:href="#ArialMT-2e" x="55.615234"/>
       <use xlink:href="#ArialMT-30" x="83.398438"/>
      </g>
     </g>
    </g>
    <g id="xtick_4">
     <g id="line2d_4">
      <path d="M 363.467596 215.54 
L 363.467596 49.92 
" clip-path="url(#pdd534fe9dd)" style="fill: none; stroke: #ffffff; stroke-width: 2; stroke-linecap: round"/>
     </g>
     <g id="text_4">
      <!-- 2.5 -->
      <g style="fill: #555555" transform="translate(348.177596 246.787187)scale(0.22 -0.22)">
       <use xlink:href="#ArialMT-32"/>
       <use xlink:href="#ArialMT-2e" x="55.615234"/>
       <use xlink:href="#ArialMT-35" x="83.398438"/>
      </g>
     </g>
    </g>
    <g id="xtick_5">
     <g id="line2d_5">
      <path d="M 443.175834 215.54 
L 443.175834 49.92 
" clip-path="url(#pdd534fe9dd)" style="fill: none; stroke: #ffffff; stroke-width: 2; stroke-linecap: round"/>
     </g>
     <g id="text_5">
      <!-- 5.0 -->
      <g style="fill: #555555" transform="translate(427.885834 246.787187)scale(0.22 -0.22)">
       <use xlink:href="#ArialMT-35"/>
       <use xlink:href="#ArialMT-2e" x="55.615234"/>
       <use xlink:href="#ArialMT-30" x="83.398438"/>
      </g>
     </g>
    </g>
   </g>
   <g id="matplotlib.axis_2">
    <g id="ytick_1">
     <g id="line2d_6">
      <path d="M 71.92 208.092076 
L 485.867996 208.092076 
" clip-path="url(#pdd534fe9dd)" style="fill: none; stroke: #ffffff; stroke-width: 2; stroke-linecap: round"/>
     </g>
     <g id="text_6">
      <!-- 0.0 -->
      <g style="fill: #555555" transform="translate(25.84 215.96567)scale(0.22 -0.22)">
       <use xlink:href="#ArialMT-30"/>
       <use xlink:href="#ArialMT-2e" x="55.615234"/>
       <use xlink:href="#ArialMT-30" x="83.398438"/>
      </g>
     </g>
    </g>
    <g id="ytick_2">
     <g id="line2d_7">
      <path d="M 71.92 132.770129 
L 485.867996 132.770129 
" clip-path="url(#pdd534fe9dd)" style="fill: none; stroke: #ffffff; stroke-width: 2; stroke-linecap: round"/>
     </g>
     <g id="text_7">
      <!-- 0.5 -->
      <g style="fill: #555555" transform="translate(25.84 140.643723)scale(0.22 -0.22)">
       <use xlink:href="#ArialMT-30"/>
       <use xlink:href="#ArialMT-2e" x="55.615234"/>
       <use xlink:href="#ArialMT-35" x="83.398438"/>
      </g>
     </g>
    </g>
    <g id="ytick_3">
     <g id="line2d_8">
      <path d="M 71.92 57.448182 
L 485.867996 57.448182 
" clip-path="url(#pdd534fe9dd)" style="fill: none; stroke: #ffffff; stroke-width: 2; stroke-linecap: round"/>
     </g>
     <g id="text_8">
      <!-- 1.0 -->
      <g style="fill: #555555" transform="translate(25.84 65.321776)scale(0.22 -0.22)">
       <defs>
        <path id="ArialMT-31" d="M 2384 0 
L 1822 0 
L 1822 3584 
Q 1619 3391 1289 3197 
Q 959 3003 697 2906 
L 697 3450 
Q 1169 3672 1522 3987 
Q 1875 4303 2022 4600 
L 2384 4600 
L 2384 0 
z
" transform="scale(0.015625)"/>
       </defs>
       <use xlink:href="#ArialMT-31"/>
       <use xlink:href="#ArialMT-2e" x="55.615234"/>
       <use xlink:href="#ArialMT-30" x="83.398438"/>
      </g>
     </g>
    </g>
   </g>
   <g id="line2d_9">
    <path d="M 90.735818 208.011818 
L 168.858989 207.530271 
L 168.893972 207.450014 
L 171.818021 207.369756 
L 179.326193 207.20924 
L 182.779883 207.048725 
L 193.74284 206.888209 
L 197.988146 206.567178 
L 199.96256 206.406662 
L 205.088738 206.085631 
L 205.16311 206.005373 
L 206.300673 205.7646 
L 215.038663 204.721248 
L 215.397028 204.560733 
L 215.45428 204.480475 
L 217.076941 204.239701 
L 219.307787 203.758155 
L 221.231193 203.597639 
L 221.238558 203.517381 
L 222.081944 203.19635 
L 223.664655 203.035834 
L 223.981418 202.714803 
L 224.920722 202.554288 
L 224.999159 202.47403 
L 226.370243 202.233256 
L 226.700177 202.072741 
L 227.156026 201.912225 
L 230.127514 201.189905 
L 230.172671 201.109647 
L 230.471893 200.949132 
L 230.499624 200.868874 
L 231.798947 200.547843 
L 232.471564 200.226811 
L 233.592313 199.665007 
L 234.563653 199.343976 
L 235.243417 199.022944 
L 235.283268 198.942687 
L 238.069427 198.140109 
L 238.160791 198.059851 
L 239.507856 197.73882 
L 241.300142 196.695468 
L 241.708563 196.454695 
L 241.841209 196.294179 
L 242.163394 196.133664 
L 242.280593 195.973148 
L 243.04435 195.571859 
L 243.342462 195.411343 
L 244.223096 194.929796 
L 244.863423 194.528507 
L 244.993198 194.046961 
L 245.349703 193.725929 
L 245.367499 193.645672 
L 245.608302 193.404898 
L 245.69223 193.164125 
L 245.853462 192.923351 
L 246.070586 192.682578 
L 246.087658 192.60232 
L 246.677129 192.201031 
L 247.159473 191.639227 
L 247.689045 191.237938 
L 247.732703 191.15768 
L 248.841849 190.997164 
L 249.528464 190.43536 
L 249.865158 190.274844 
L 250.023496 190.034071 
L 250.286793 189.713039 
L 250.513406 189.552524 
L 250.757172 189.31175 
L 250.866105 189.070977 
L 251.328178 188.669688 
L 251.524405 188.188141 
L 251.620028 188.027626 
L 252.002312 187.786852 
L 252.117851 187.626336 
L 252.225419 187.305305 
L 252.324472 186.904016 
L 252.97131 186.422469 
L 253.256192 186.101438 
L 253.428272 185.860665 
L 254.58253 184.656798 
L 255.07159 184.416024 
L 255.296117 184.255509 
L 255.427146 184.014735 
L 257.302846 181.446486 
L 257.509513 181.205712 
L 257.806465 180.804423 
L 258.330853 180.242619 
L 258.547351 180.001845 
L 258.711922 179.761072 
L 258.998259 179.440041 
L 259.448223 178.878236 
L 259.612861 178.557205 
L 259.751762 178.316431 
L 260.298992 177.915142 
L 260.483695 177.513853 
L 260.663723 177.032307 
L 260.708336 176.711275 
L 260.924177 176.55076 
L 260.937982 176.470502 
L 261.559247 176.229729 
L 261.776776 175.667924 
L 261.968634 175.507408 
L 262.076235 175.266635 
L 262.423844 175.106119 
L 262.520232 174.785088 
L 262.72076 174.544315 
L 262.850404 174.383799 
L 263.33629 173.98251 
L 263.45763 173.741737 
L 263.558328 173.500963 
L 263.69218 173.179932 
L 263.777826 172.939159 
L 264.368988 172.53787 
L 264.506055 172.216839 
L 264.616398 171.895807 
L 264.743249 171.494518 
L 265.291409 170.531425 
L 265.424659 170.210393 
L 265.617766 169.809104 
L 265.706669 169.488073 
L 266.030626 169.086784 
L 266.22077 168.52498 
L 266.341995 168.203948 
L 266.591027 167.321113 
L 266.775467 167.000081 
L 266.879853 166.67905 
L 267.135538 166.358019 
L 267.199911 166.117246 
L 267.671399 165.475183 
L 268.053912 164.752863 
L 268.473407 163.709512 
L 268.586005 163.548996 
L 268.804285 163.38848 
L 269.019445 162.987191 
L 269.387828 162.826676 
L 269.439626 162.505645 
L 269.51818 162.024098 
L 269.667729 161.863582 
L 269.777079 161.542551 
L 269.974651 161.22152 
L 270.036707 160.980746 
L 270.223179 160.820231 
L 270.4937 159.937395 
L 270.570363 159.616364 
L 270.748809 159.295332 
L 271.263199 158.492754 
L 271.472809 158.171723 
L 271.585216 158.011208 
L 271.68329 157.690176 
L 271.752916 157.369145 
L 272.276591 156.325794 
L 272.450005 155.924505 
L 273.172414 154.881153 
L 273.498292 154.64038 
L 273.671777 154.158833 
L 273.826189 153.677286 
L 274.108856 153.035224 
L 274.708767 152.07213 
L 274.976767 151.751099 
L 275.939986 150.145943 
L 276.195978 149.343365 
L 276.336096 148.942076 
L 276.592486 148.460529 
L 276.908193 148.219756 
L 277.010896 147.818467 
L 277.098679 147.417178 
L 277.176102 147.096147 
L 277.244642 146.935631 
L 277.415292 146.694858 
L 277.543369 146.454084 
L 278.03797 145.571248 
L 278.197425 145.330475 
L 278.388249 144.608155 
L 278.544151 144.206866 
L 278.690047 143.885834 
L 279.196651 142.922741 
L 279.388486 142.60171 
L 280.017721 141.397843 
L 280.359246 140.515007 
L 280.53367 140.354491 
L 280.723968 139.551913 
L 280.851741 139.230882 
L 280.954033 138.909851 
L 281.293996 138.428304 
L 281.513322 138.267788 
L 281.85659 137.224437 
L 282.061964 137.063921 
L 282.124271 136.74289 
L 282.317867 136.502117 
L 282.455911 135.860054 
L 282.770213 135.137734 
L 283.127475 134.896961 
L 283.163962 134.816703 
L 284.037312 134.656187 
L 284.155618 134.335156 
L 284.443857 132.890516 
L 285.818039 129.519688 
L 286.052351 129.278915 
L 286.3084 128.556594 
L 286.431077 128.075047 
L 286.630053 127.352727 
L 286.76547 127.111954 
L 286.916004 126.630407 
L 287.202348 125.747571 
L 288.138808 123.500353 
L 288.232909 122.85829 
L 288.40601 122.457001 
L 288.51447 122.13597 
L 288.670541 121.814939 
L 288.786509 121.654423 
L 288.873589 121.333392 
L 289.101263 121.092619 
L 289.201695 120.69133 
L 289.44944 120.370299 
L 289.45393 120.290041 
L 289.696524 120.049267 
L 289.820467 119.728236 
L 289.954438 119.407205 
L 290.230771 119.005916 
L 290.432226 118.684885 
L 290.878925 117.159986 
L 291.255546 116.919213 
L 291.374818 116.758697 
L 291.375138 116.67844 
L 291.636775 116.517924 
L 291.778185 116.116635 
L 291.944322 115.715346 
L 292.061929 115.474573 
L 292.199558 115.153541 
L 292.296548 114.752252 
L 292.593829 114.270706 
L 292.654675 114.11019 
L 292.787478 113.789159 
L 292.89616 113.548385 
L 293.151105 112.826065 
L 293.343264 112.585292 
L 293.358046 112.505034 
L 293.591955 112.264261 
L 293.746297 111.782714 
L 294.153811 111.301167 
L 294.519662 110.257815 
L 294.679481 109.856526 
L 296.015692 106.886988 
L 296.201489 106.646214 
L 296.283593 106.405441 
L 296.429438 106.164668 
L 296.530363 105.843636 
L 296.712713 105.602863 
L 297.412583 104.398996 
L 297.514525 104.158223 
L 297.616633 103.917449 
L 297.900713 103.114871 
L 298.229169 102.954355 
L 298.542172 102.312293 
L 298.684041 102.151777 
L 298.768674 101.991262 
L 298.956848 101.670231 
L 299.10009 101.349199 
L 299.512845 100.305848 
L 299.69155 100.065075 
L 300.378059 98.941465 
L 301.412966 96.533731 
L 301.512746 96.292958 
L 302.152267 94.527286 
L 302.391707 94.125997 
L 302.730528 93.403677 
L 303.096884 92.360326 
L 303.234427 92.119552 
L 303.299172 91.959037 
L 303.746816 91.397232 
L 304.684034 89.872334 
L 305.011041 89.63156 
L 305.117494 89.471045 
L 305.185497 89.230271 
L 306.16004 87.143569 
L 306.45157 86.902795 
L 306.490562 86.822537 
L 306.935867 86.581764 
L 307.109516 86.340991 
L 307.114205 86.180475 
L 307.428149 85.939701 
L 307.526562 85.61867 
L 307.756569 85.137123 
L 307.802943 84.976608 
L 308.12724 84.735834 
L 308.478271 84.17403 
L 308.670192 83.933256 
L 308.729267 83.692483 
L 308.98891 83.45171 
L 309.414688 83.291194 
L 309.658166 82.970163 
L 309.818805 82.568874 
L 310.20264 82.167585 
L 310.277073 81.846554 
L 310.726662 81.043976 
L 311.009117 80.401913 
L 311.768778 79.599335 
L 312.012795 79.198046 
L 312.093095 78.957273 
L 312.156205 78.716499 
L 312.304269 78.475726 
L 312.393661 78.31521 
L 312.694509 78.154695 
L 312.739584 77.994179 
L 312.979466 77.753406 
L 313.636527 77.59289 
L 313.826954 77.432374 
L 313.874682 77.191601 
L 314.190334 76.950828 
L 314.258007 76.710054 
L 314.415891 76.549539 
L 314.518567 76.389023 
L 314.813449 76.228507 
L 315.148357 76.067992 
L 315.159586 75.987734 
L 315.79272 75.506187 
L 315.907036 75.345672 
L 316.312451 74.864125 
L 316.36773 74.783867 
L 316.872631 74.543094 
L 316.942484 74.382578 
L 317.225596 74.141805 
L 317.507736 73.740516 
L 317.900016 73.339227 
L 317.916319 73.258969 
L 318.284234 73.018195 
L 318.402883 72.777422 
L 319.27742 71.734071 
L 319.823345 71.493297 
L 320.113428 71.332782 
L 320.585658 71.172266 
L 321.243798 70.690719 
L 321.244786 70.610461 
L 321.705851 70.369688 
L 322.080659 70.128915 
L 322.554204 69.888141 
L 322.555109 69.807883 
L 322.709091 69.727626 
L 323.525694 69.486852 
L 323.734487 69.165821 
L 323.89955 69.005305 
L 324.060334 68.764532 
L 324.216747 68.604016 
L 324.703734 68.443501 
L 325.646562 67.961954 
L 325.758362 67.560665 
L 325.776862 67.480407 
L 326.403471 67.239634 
L 326.89577 66.918602 
L 327.06723 66.758087 
L 327.327974 66.597571 
L 327.792553 66.116024 
L 328.031245 65.955509 
L 328.34759 65.55422 
L 328.68669 65.313446 
L 328.799875 64.912157 
L 329.038465 64.671384 
L 329.062448 64.591126 
L 329.612002 64.430611 
L 329.668749 64.270095 
L 330.032337 64.029322 
L 330.361389 63.547775 
L 331.970274 63.226744 
L 332.51712 63.066228 
L 333.688415 62.905712 
L 334.855515 62.664939 
L 337.088816 62.26365 
L 337.183155 62.103134 
L 337.844088 61.862361 
L 337.911684 61.782103 
L 340.070701 61.54133 
L 340.094874 61.461072 
L 341.701027 61.220299 
L 341.772149 61.140041 
L 343.160695 60.738752 
L 345.103075 60.41772 
L 345.438372 60.257205 
L 352.288409 59.534885 
L 352.738572 59.454627 
L 356.487021 59.294111 
L 367.042123 58.571791 
L 370.597383 58.411275 
L 371.278355 58.331018 
L 376.560034 58.170502 
L 377.441525 58.090244 
L 383.88447 57.929729 
L 384.474951 57.849471 
L 445.362255 57.52844 
L 467.052178 57.448182 
L 467.052178 57.448182 
" clip-path="url(#pdd534fe9dd)" style="fill: none; stroke: #4d3c2f; stroke-width: 3; stroke-linecap: round"/>
   </g>
   <g id="patch_3">
    <path d="M 71.92 215.54 
L 71.92 49.92 
" style="fill: none; stroke: #ffffff; stroke-width: 2.5; stroke-linejoin: miter; stroke-linecap: square"/>
   </g>
   <g id="patch_4">
    <path d="M 485.867996 215.54 
L 485.867996 49.92 
" style="fill: none; stroke: #ffffff; stroke-width: 2.5; stroke-linejoin: miter; stroke-linecap: square"/>
   </g>
   <g id="patch_5">
    <path d="M 71.92 215.54 
L 485.867996 215.54 
" style="fill: none; stroke: #ffffff; stroke-width: 2.5; stroke-linejoin: miter; stroke-linecap: square"/>
   </g>
   <g id="patch_6">
    <path d="M 71.92 49.92 
L 485.867996 49.92 
" style="fill: none; stroke: #ffffff; stroke-width: 2.5; stroke-linejoin: miter; stroke-linecap: square"/>
   </g>
   <g id="text_9">
    <!-- HeatingOil -->
    <g style="fill: #262626" transform="translate(222.868998 43.92)scale(0.24 -0.24)">
     <defs>
      <path id="ArialMT-48" d="M 513 0 
L 513 4581 
L 1119 4581 
L 1119 2700 
L 3500 2700 
L 3500 4581 
L 4106 4581 
L 4106 0 
L 3500 0 
L 3500 2159 
L 1119 2159 
L 1119 0 
L 513 0 
z
" transform="scale(0.015625)"/>
      <path id="ArialMT-65" d="M 2694 1069 
L 3275 997 
Q 3138 488 2766 206 
Q 2394 -75 1816 -75 
Q 1088 -75 661 373 
Q 234 822 234 1631 
Q 234 2469 665 2931 
Q 1097 3394 1784 3394 
Q 2450 3394 2872 2941 
Q 3294 2488 3294 1666 
Q 3294 1616 3291 1516 
L 816 1516 
Q 847 969 1125 678 
Q 1403 388 1819 388 
Q 2128 388 2347 550 
Q 2566 713 2694 1069 
z
M 847 1978 
L 2700 1978 
Q 2663 2397 2488 2606 
Q 2219 2931 1791 2931 
Q 1403 2931 1139 2672 
Q 875 2413 847 1978 
z
" transform="scale(0.015625)"/>
      <path id="ArialMT-61" d="M 2588 409 
Q 2275 144 1986 34 
Q 1697 -75 1366 -75 
Q 819 -75 525 192 
Q 231 459 231 875 
Q 231 1119 342 1320 
Q 453 1522 633 1644 
Q 813 1766 1038 1828 
Q 1203 1872 1538 1913 
Q 2219 1994 2541 2106 
Q 2544 2222 2544 2253 
Q 2544 2597 2384 2738 
Q 2169 2928 1744 2928 
Q 1347 2928 1158 2789 
Q 969 2650 878 2297 
L 328 2372 
Q 403 2725 575 2942 
Q 747 3159 1072 3276 
Q 1397 3394 1825 3394 
Q 2250 3394 2515 3294 
Q 2781 3194 2906 3042 
Q 3031 2891 3081 2659 
Q 3109 2516 3109 2141 
L 3109 1391 
Q 3109 606 3145 398 
Q 3181 191 3288 0 
L 2700 0 
Q 2613 175 2588 409 
z
M 2541 1666 
Q 2234 1541 1622 1453 
Q 1275 1403 1131 1340 
Q 988 1278 909 1158 
Q 831 1038 831 891 
Q 831 666 1001 516 
Q 1172 366 1500 366 
Q 1825 366 2078 508 
Q 2331 650 2450 897 
Q 2541 1088 2541 1459 
L 2541 1666 
z
" transform="scale(0.015625)"/>
      <path id="ArialMT-74" d="M 1650 503 
L 1731 6 
Q 1494 -44 1306 -44 
Q 1000 -44 831 53 
Q 663 150 594 308 
Q 525 466 525 972 
L 525 2881 
L 113 2881 
L 113 3319 
L 525 3319 
L 525 4141 
L 1084 4478 
L 1084 3319 
L 1650 3319 
L 1650 2881 
L 1084 2881 
L 1084 941 
Q 1084 700 1114 631 
Q 1144 563 1211 522 
Q 1278 481 1403 481 
Q 1497 481 1650 503 
z
" transform="scale(0.015625)"/>
      <path id="ArialMT-69" d="M 425 3934 
L 425 4581 
L 988 4581 
L 988 3934 
L 425 3934 
z
M 425 0 
L 425 3319 
L 988 3319 
L 988 0 
L 425 0 
z
" transform="scale(0.015625)"/>
      <path id="ArialMT-6e" d="M 422 0 
L 422 3319 
L 928 3319 
L 928 2847 
Q 1294 3394 1984 3394 
Q 2284 3394 2536 3286 
Q 2788 3178 2913 3003 
Q 3038 2828 3088 2588 
Q 3119 2431 3119 2041 
L 3119 0 
L 2556 0 
L 2556 2019 
Q 2556 2363 2490 2533 
Q 2425 2703 2258 2804 
Q 2091 2906 1866 2906 
Q 1506 2906 1245 2678 
Q 984 2450 984 1813 
L 984 0 
L 422 0 
z
" transform="scale(0.015625)"/>
      <path id="ArialMT-67" d="M 319 -275 
L 866 -356 
Q 900 -609 1056 -725 
Q 1266 -881 1628 -881 
Q 2019 -881 2231 -725 
Q 2444 -569 2519 -288 
Q 2563 -116 2559 434 
Q 2191 0 1641 0 
Q 956 0 581 494 
Q 206 988 206 1678 
Q 206 2153 378 2554 
Q 550 2956 876 3175 
Q 1203 3394 1644 3394 
Q 2231 3394 2613 2919 
L 2613 3319 
L 3131 3319 
L 3131 450 
Q 3131 -325 2973 -648 
Q 2816 -972 2473 -1159 
Q 2131 -1347 1631 -1347 
Q 1038 -1347 672 -1080 
Q 306 -813 319 -275 
z
M 784 1719 
Q 784 1066 1043 766 
Q 1303 466 1694 466 
Q 2081 466 2343 764 
Q 2606 1063 2606 1700 
Q 2606 2309 2336 2618 
Q 2066 2928 1684 2928 
Q 1309 2928 1046 2623 
Q 784 2319 784 1719 
z
" transform="scale(0.015625)"/>
      <path id="ArialMT-4f" d="M 309 2231 
Q 309 3372 921 4017 
Q 1534 4663 2503 4663 
Q 3138 4663 3647 4359 
Q 4156 4056 4423 3514 
Q 4691 2972 4691 2284 
Q 4691 1588 4409 1038 
Q 4128 488 3612 205 
Q 3097 -78 2500 -78 
Q 1853 -78 1343 234 
Q 834 547 571 1087 
Q 309 1628 309 2231 
z
M 934 2222 
Q 934 1394 1379 917 
Q 1825 441 2497 441 
Q 3181 441 3623 922 
Q 4066 1403 4066 2288 
Q 4066 2847 3877 3264 
Q 3688 3681 3323 3911 
Q 2959 4141 2506 4141 
Q 1863 4141 1398 3698 
Q 934 3256 934 2222 
z
" transform="scale(0.015625)"/>
      <path id="ArialMT-6c" d="M 409 0 
L 409 4581 
L 972 4581 
L 972 0 
L 409 0 
z
" transform="scale(0.015625)"/>
     </defs>
     <use xlink:href="#ArialMT-48"/>
     <use xlink:href="#ArialMT-65" x="72.216797"/>
     <use xlink:href="#ArialMT-61" x="127.832031"/>
     <use xlink:href="#ArialMT-74" x="183.447266"/>
     <use xlink:href="#ArialMT-69" x="211.230469"/>
     <use xlink:href="#ArialMT-6e" x="233.447266"/>
     <use xlink:href="#ArialMT-67" x="289.0625"/>
     <use xlink:href="#ArialMT-4f" x="344.677734"/>
     <use xlink:href="#ArialMT-69" x="422.460938"/>
     <use xlink:href="#ArialMT-6c" x="444.677734"/>
    </g>
   </g>
  </g>
  <g id="axes_2">
   <g id="patch_7">
    <path d="M 562.96 215.54 
L 976.907996 215.54 
L 976.907996 49.92 
L 562.96 49.92 
z
" style="fill: #e5e5e5"/>
   </g>
   <g id="matplotlib.axis_3">
    <g id="xtick_6">
     <g id="line2d_10">
      <path d="M 655.959056 215.54 
L 655.959056 49.92 
" clip-path="url(#pa0e64fa27f)" style="fill: none; stroke: #ffffff; stroke-width: 2; stroke-linecap: round"/>
     </g>
     <g id="text_10">
      <!-- −5 -->
      <g style="fill: #555555" transform="translate(643.417337 246.787187)scale(0.22 -0.22)">
       <use xlink:href="#ArialMT-2212"/>
       <use xlink:href="#ArialMT-35" x="58.398438"/>
      </g>
     </g>
    </g>
    <g id="xtick_7">
     <g id="line2d_11">
      <path d="M 788.949112 215.54 
L 788.949112 49.92 
" clip-path="url(#pa0e64fa27f)" style="fill: none; stroke: #ffffff; stroke-width: 2; stroke-linecap: round"/>
     </g>
     <g id="text_11">
      <!-- 0 -->
      <g style="fill: #555555" transform="translate(782.832081 246.787187)scale(0.22 -0.22)">
       <use xlink:href="#ArialMT-30"/>
      </g>
     </g>
    </g>
    <g id="xtick_8">
     <g id="line2d_12">
      <path d="M 921.939169 215.54 
L 921.939169 49.92 
" clip-path="url(#pa0e64fa27f)" style="fill: none; stroke: #ffffff; stroke-width: 2; stroke-linecap: round"/>
     </g>
     <g id="text_12">
      <!-- 5 -->
      <g style="fill: #555555" transform="translate(915.822138 246.787187)scale(0.22 -0.22)">
       <use xlink:href="#ArialMT-35"/>
      </g>
     </g>
    </g>
   </g>
   <g id="matplotlib.axis_4">
    <g id="ytick_4">
     <g id="line2d_13">
      <path d="M 562.96 208.092076 
L 976.907996 208.092076 
" clip-path="url(#pa0e64fa27f)" style="fill: none; stroke: #ffffff; stroke-width: 2; stroke-linecap: round"/>
     </g>
     <g id="text_13">
      <!-- 0.0 -->
      <g style="fill: #555555" transform="translate(516.88 215.96567)scale(0.22 -0.22)">
       <use xlink:href="#ArialMT-30"/>
       <use xlink:href="#ArialMT-2e" x="55.615234"/>
       <use xlink:href="#ArialMT-30" x="83.398438"/>
      </g>
     </g>
    </g>
    <g id="ytick_5">
     <g id="line2d_14">
      <path d="M 562.96 132.770129 
L 976.907996 132.770129 
" clip-path="url(#pa0e64fa27f)" style="fill: none; stroke: #ffffff; stroke-width: 2; stroke-linecap: round"/>
     </g>
     <g id="text_14">
      <!-- 0.5 -->
      <g style="fill: #555555" transform="translate(516.88 140.643723)scale(0.22 -0.22)">
       <use xlink:href="#ArialMT-30"/>
       <use xlink:href="#ArialMT-2e" x="55.615234"/>
       <use xlink:href="#ArialMT-35" x="83.398438"/>
      </g>
     </g>
    </g>
    <g id="ytick_6">
     <g id="line2d_15">
      <path d="M 562.96 57.448182 
L 976.907996 57.448182 
" clip-path="url(#pa0e64fa27f)" style="fill: none; stroke: #ffffff; stroke-width: 2; stroke-linecap: round"/>
     </g>
     <g id="text_15">
      <!-- 1.0 -->
      <g style="fill: #555555" transform="translate(516.88 65.321776)scale(0.22 -0.22)">
       <use xlink:href="#ArialMT-31"/>
       <use xlink:href="#ArialMT-2e" x="55.615234"/>
       <use xlink:href="#ArialMT-30" x="83.398438"/>
      </g>
     </g>
    </g>
   </g>
   <g id="line2d_16">
    <path d="M 581.775818 208.011818 
L 633.987885 207.851303 
L 681.723681 207.450014 
L 689.147581 207.20924 
L 690.896133 206.968467 
L 704.77814 206.807951 
L 716.005794 206.406662 
L 717.29804 206.165889 
L 718.616022 206.005373 
L 724.005145 205.684342 
L 731.056779 204.881764 
L 731.598218 204.721248 
L 732.681111 204.560733 
L 734.510413 204.159444 
L 735.119951 203.758155 
L 735.880043 203.517381 
L 738.633017 203.276608 
L 739.528307 203.116092 
L 739.542603 203.035834 
L 741.84769 201.992483 
L 742.292913 201.831967 
L 742.750441 201.430678 
L 743.590234 201.109647 
L 743.743123 201.029389 
L 744.577767 200.868874 
L 744.737703 200.708358 
L 745.261629 200.467585 
L 745.906724 200.146554 
L 746.073092 199.90578 
L 746.631335 199.504491 
L 747.162171 199.343976 
L 747.351249 199.103202 
L 747.656786 198.942687 
L 747.827202 198.782171 
L 747.843839 198.701913 
L 748.492981 198.46114 
L 748.600135 198.300624 
L 748.739964 198.059851 
L 748.903689 197.819077 
L 748.914226 197.73882 
L 751.87917 196.454695 
L 753.042489 195.652117 
L 753.192841 195.411343 
L 753.493169 195.250828 
L 753.49743 195.090312 
L 754.31689 194.528507 
L 755.277004 193.32464 
L 755.787418 193.164125 
L 755.915086 193.003609 
L 756.456612 192.522062 
L 756.601394 192.201031 
L 756.820257 192.040516 
L 757.118829 191.88 
L 757.141648 191.799742 
L 757.510809 191.558969 
L 757.58101 191.318195 
L 757.998985 191.15768 
L 758.015084 191.077422 
L 758.546547 190.756391 
L 758.619561 190.515617 
L 759.416751 190.114328 
L 759.451334 190.034071 
L 759.750808 189.793297 
L 759.806391 189.632782 
L 760.430203 189.472266 
L 760.473581 189.392008 
L 760.743386 189.231493 
L 760.867313 188.990719 
L 761.453167 188.268399 
L 761.797162 187.86711 
L 762.130052 187.546079 
L 762.363742 187.225047 
L 762.369677 187.14479 
L 762.918139 186.743501 
L 763.103207 186.342212 
L 764.094862 185.218602 
L 764.37346 184.977829 
L 764.509604 184.496282 
L 765.043813 184.014735 
L 765.143132 183.773962 
L 765.423729 183.452931 
L 765.511098 183.051642 
L 765.685972 182.810868 
L 765.739939 182.570095 
L 765.976332 182.409579 
L 766.088219 182.168806 
L 766.292287 182.00829 
L 766.352172 181.928033 
L 766.719125 181.687259 
L 767.729419 180.483392 
L 767.962477 180.001845 
L 768.127725 179.761072 
L 768.190167 179.600556 
L 768.426114 179.359783 
L 768.43525 179.279525 
L 768.773764 179.038752 
L 768.900066 178.878236 
L 769.204413 178.396689 
L 769.362522 178.075658 
L 769.499285 177.834885 
L 769.793206 177.594111 
L 769.891073 177.27308 
L 770.003205 177.032307 
L 770.16375 176.55076 
L 770.276309 176.390244 
L 771.190914 174.785088 
L 771.29763 174.624573 
L 771.577677 174.383799 
L 771.704221 173.902252 
L 771.738188 173.821995 
L 771.997886 173.581221 
L 772.103955 173.26019 
L 772.229219 172.939159 
L 772.551311 172.216839 
L 772.679286 171.976065 
L 773.255057 171.334003 
L 773.391011 171.093229 
L 774.173302 169.086784 
L 774.30273 168.846011 
L 774.544087 168.444722 
L 774.7076 168.123691 
L 774.818174 167.802659 
L 775.085401 167.481628 
L 775.209899 167.160597 
L 775.486113 166.438277 
L 775.544606 166.197503 
L 775.868287 165.715957 
L 775.884256 165.555441 
L 776.104984 165.314668 
L 776.256876 164.833121 
L 776.459496 164.51209 
L 776.865132 162.906934 
L 777.090118 162.585902 
L 779.407875 157.850692 
L 779.619361 157.529661 
L 779.72737 157.288887 
L 780.500027 155.442958 
L 780.621716 155.282442 
L 780.757175 155.121927 
L 780.811043 154.881153 
L 781.007019 154.64038 
L 781.562832 153.516771 
L 781.666394 153.195739 
L 781.824353 152.79445 
L 782.145508 152.152388 
L 782.277989 151.991872 
L 782.401673 151.510326 
L 782.702036 151.269552 
L 783.258349 150.065685 
L 783.366509 149.824912 
L 783.539963 149.182849 
L 783.693149 148.701303 
L 783.964717 148.380271 
L 784.089089 147.898725 
L 784.934336 144.527897 
L 784.944867 144.447639 
L 785.093698 144.287123 
L 785.178648 143.966092 
L 785.338128 143.645061 
L 785.874029 142.120163 
L 785.954137 141.799132 
L 786.042732 141.558358 
L 786.263163 140.75578 
L 787.345723 137.46521 
L 787.477868 137.063921 
L 787.716109 136.662632 
L 789.40674 131.686649 
L 789.509549 131.445875 
L 790.225007 128.797368 
L 790.411865 128.235563 
L 790.794605 127.513243 
L 791.006479 127.192212 
L 791.179847 127.031696 
L 791.248809 126.790923 
L 791.522938 126.469891 
L 791.563729 126.229118 
L 791.750995 125.908087 
L 792.099542 124.784478 
L 792.198932 124.463446 
L 792.361641 124.062157 
L 792.515161 123.580611 
L 792.693475 123.259579 
L 792.824251 122.697775 
L 793.172504 121.493908 
L 793.249949 121.253134 
L 793.36816 120.851845 
L 793.445073 120.611072 
L 793.709194 119.647978 
L 794.040557 119.086174 
L 794.24387 118.684885 
L 794.547476 117.802049 
L 794.788586 116.999471 
L 794.959405 116.598182 
L 795.261817 115.153541 
L 795.354953 114.591737 
L 795.520616 114.11019 
L 795.670277 113.628643 
L 795.826136 113.307612 
L 796.25639 112.023487 
L 796.4067 111.702456 
L 797.234472 109.615753 
L 797.321606 109.37498 
L 797.835814 107.689566 
L 797.89423 107.368535 
L 798.193161 106.886988 
L 798.241328 106.726472 
L 798.41704 106.485699 
L 798.545531 106.08441 
L 799.57334 103.51616 
L 799.667303 103.275387 
L 799.781748 102.79384 
L 800.092788 102.232035 
L 800.163015 101.911004 
L 800.325503 101.750488 
L 800.796538 100.466364 
L 800.954547 100.305848 
L 801.508896 99.101981 
L 801.614663 98.861208 
L 801.743516 98.620434 
L 802.782201 96.694247 
L 802.887052 96.373216 
L 803.395435 95.731153 
L 803.538278 95.249607 
L 804.32898 93.724708 
L 804.794894 92.92213 
L 804.938687 92.681357 
L 805.193062 92.280068 
L 805.520017 91.236716 
L 805.781271 90.835427 
L 806.062353 89.872334 
L 806.169619 89.551303 
L 806.651042 88.267178 
L 806.652295 88.18692 
L 806.963621 87.946147 
L 807.333291 87.544858 
L 807.43844 87.384342 
L 807.615752 87.063311 
L 808.050053 86.100217 
L 808.318328 85.698928 
L 808.442161 85.377897 
L 808.49449 85.137123 
L 809.121358 84.655577 
L 809.220766 84.495061 
L 809.750308 84.093772 
L 809.992678 83.692483 
L 810.271844 83.45171 
L 810.463748 83.050421 
L 810.597244 82.809647 
L 810.696883 82.568874 
L 810.704284 82.488616 
L 811.045327 82.247843 
L 811.103171 81.926811 
L 811.356317 81.525522 
L 811.384698 81.445265 
L 811.765169 81.284749 
L 811.889902 80.88346 
L 811.924057 80.722944 
L 812.185522 80.482171 
L 812.270354 80.16114 
L 813.534712 78.074437 
L 814.695199 77.031085 
L 814.873642 76.629796 
L 815.034293 76.228507 
L 815.268377 75.907476 
L 815.396906 75.506187 
L 815.854456 74.703609 
L 816.351224 73.981289 
L 816.514966 73.820773 
L 816.644915 73.499742 
L 816.935197 73.178711 
L 816.987538 72.85768 
L 817.547625 72.536649 
L 817.556431 72.376133 
L 817.757586 72.215617 
L 817.869229 71.974844 
L 818.624013 71.413039 
L 818.778621 71.252524 
L 820.340015 69.246079 
L 820.722153 69.085563 
L 820.831438 68.84479 
L 821.050306 68.604016 
L 821.470588 68.282985 
L 821.966186 67.881696 
L 822.182755 67.560665 
L 822.854407 67.079118 
L 823.030627 66.677829 
L 823.64959 66.196282 
L 823.71384 66.116024 
L 825.000898 65.634478 
L 825.360278 65.313446 
L 826.119045 65.072673 
L 826.230757 64.8319 
L 826.26651 64.671384 
L 828.374201 63.628033 
L 828.976457 63.387259 
L 829.665724 63.146486 
L 830.184375 62.98597 
L 830.31418 62.745197 
L 831.056901 62.584681 
L 831.11971 62.504423 
L 831.598108 62.26365 
L 832.189073 61.782103 
L 832.20418 61.701845 
L 832.842752 61.54133 
L 832.995872 61.461072 
L 833.496277 61.300556 
L 833.685096 61.140041 
L 834.484221 60.979525 
L 836.842563 60.176947 
L 837.244921 59.936174 
L 838.78077 59.6954 
L 838.819337 59.615142 
L 839.110204 59.454627 
L 839.152027 59.374369 
L 839.41711 59.294111 
L 843.341273 58.97308 
L 844.806017 58.812564 
L 856.296428 58.331018 
L 859.610577 58.009986 
L 863.918242 57.849471 
L 864.453961 57.769213 
L 883.800733 57.52844 
L 958.092178 57.448182 
L 958.092178 57.448182 
" clip-path="url(#pa0e64fa27f)" style="fill: none; stroke: #c07156; stroke-width: 3; stroke-linecap: round"/>
   </g>
   <g id="patch_8">
    <path d="M 562.96 215.54 
L 562.96 49.92 
" style="fill: none; stroke: #ffffff; stroke-width: 2.5; stroke-linejoin: miter; stroke-linecap: square"/>
   </g>
   <g id="patch_9">
    <path d="M 976.907996 215.54 
L 976.907996 49.92 
" style="fill: none; stroke: #ffffff; stroke-width: 2.5; stroke-linejoin: miter; stroke-linecap: square"/>
   </g>
   <g id="patch_10">
    <path d="M 562.96 215.54 
L 976.907996 215.54 
" style="fill: none; stroke: #ffffff; stroke-width: 2.5; stroke-linejoin: miter; stroke-linecap: square"/>
   </g>
   <g id="patch_11">
    <path d="M 562.96 49.92 
L 976.907996 49.92 
" style="fill: none; stroke: #ffffff; stroke-width: 2.5; stroke-linejoin: miter; stroke-linecap: square"/>
   </g>
   <g id="text_16">
    <!-- CrudeOil -->
    <g style="fill: #262626" transform="translate(722.586498 43.92)scale(0.24 -0.24)">
     <defs>
      <path id="ArialMT-43" d="M 3763 1606 
L 4369 1453 
Q 4178 706 3683 314 
Q 3188 -78 2472 -78 
Q 1731 -78 1267 223 
Q 803 525 561 1097 
Q 319 1669 319 2325 
Q 319 3041 592 3573 
Q 866 4106 1370 4382 
Q 1875 4659 2481 4659 
Q 3169 4659 3637 4309 
Q 4106 3959 4291 3325 
L 3694 3184 
Q 3534 3684 3231 3912 
Q 2928 4141 2469 4141 
Q 1941 4141 1586 3887 
Q 1231 3634 1087 3207 
Q 944 2781 944 2328 
Q 944 1744 1114 1308 
Q 1284 872 1643 656 
Q 2003 441 2422 441 
Q 2931 441 3284 734 
Q 3638 1028 3763 1606 
z
" transform="scale(0.015625)"/>
      <path id="ArialMT-72" d="M 416 0 
L 416 3319 
L 922 3319 
L 922 2816 
Q 1116 3169 1280 3281 
Q 1444 3394 1641 3394 
Q 1925 3394 2219 3213 
L 2025 2691 
Q 1819 2813 1613 2813 
Q 1428 2813 1281 2702 
Q 1134 2591 1072 2394 
Q 978 2094 978 1738 
L 978 0 
L 416 0 
z
" transform="scale(0.015625)"/>
      <path id="ArialMT-75" d="M 2597 0 
L 2597 488 
Q 2209 -75 1544 -75 
Q 1250 -75 995 37 
Q 741 150 617 320 
Q 494 491 444 738 
Q 409 903 409 1263 
L 409 3319 
L 972 3319 
L 972 1478 
Q 972 1038 1006 884 
Q 1059 663 1231 536 
Q 1403 409 1656 409 
Q 1909 409 2131 539 
Q 2353 669 2445 892 
Q 2538 1116 2538 1541 
L 2538 3319 
L 3100 3319 
L 3100 0 
L 2597 0 
z
" transform="scale(0.015625)"/>
      <path id="ArialMT-64" d="M 2575 0 
L 2575 419 
Q 2259 -75 1647 -75 
Q 1250 -75 917 144 
Q 584 363 401 755 
Q 219 1147 219 1656 
Q 219 2153 384 2558 
Q 550 2963 881 3178 
Q 1213 3394 1622 3394 
Q 1922 3394 2156 3267 
Q 2391 3141 2538 2938 
L 2538 4581 
L 3097 4581 
L 3097 0 
L 2575 0 
z
M 797 1656 
Q 797 1019 1065 703 
Q 1334 388 1700 388 
Q 2069 388 2326 689 
Q 2584 991 2584 1609 
Q 2584 2291 2321 2609 
Q 2059 2928 1675 2928 
Q 1300 2928 1048 2622 
Q 797 2316 797 1656 
z
" transform="scale(0.015625)"/>
     </defs>
     <use xlink:href="#ArialMT-43"/>
     <use xlink:href="#ArialMT-72" x="72.216797"/>
     <use xlink:href="#ArialMT-75" x="105.517578"/>
     <use xlink:href="#ArialMT-64" x="161.132812"/>
     <use xlink:href="#ArialMT-65" x="216.748047"/>
     <use xlink:href="#ArialMT-4f" x="272.363281"/>
     <use xlink:href="#ArialMT-69" x="350.146484"/>
     <use xlink:href="#ArialMT-6c" x="372.363281"/>
    </g>
   </g>
  </g>
  <g id="axes_3">
   <g id="patch_12">
    <path d="M 71.92 442.58 
L 485.867996 442.58 
L 485.867996 276.96 
L 71.92 276.96 
z
" style="fill: #e5e5e5"/>
   </g>
   <g id="matplotlib.axis_5">
    <g id="xtick_9">
     <g id="line2d_17">
      <path d="M 90.535223 442.58 
L 90.535223 276.96 
" clip-path="url(#pe39bf271c4)" style="fill: none; stroke: #ffffff; stroke-width: 2; stroke-linecap: round"/>
     </g>
     <g id="text_17">
      <!-- 0.0 -->
      <g style="fill: #555555" transform="translate(75.245223 473.827187)scale(0.22 -0.22)">
       <use xlink:href="#ArialMT-30"/>
       <use xlink:href="#ArialMT-2e" x="55.615234"/>
       <use xlink:href="#ArialMT-30" x="83.398438"/>
      </g>
     </g>
    </g>
    <g id="xtick_10">
     <g id="line2d_18">
      <path d="M 165.838614 442.58 
L 165.838614 276.96 
" clip-path="url(#pe39bf271c4)" style="fill: none; stroke: #ffffff; stroke-width: 2; stroke-linecap: round"/>
     </g>
     <g id="text_18">
      <!-- 0.2 -->
      <g style="fill: #555555" transform="translate(150.548614 473.827187)scale(0.22 -0.22)">
       <use xlink:href="#ArialMT-30"/>
       <use xlink:href="#ArialMT-2e" x="55.615234"/>
       <use xlink:href="#ArialMT-32" x="83.398438"/>
      </g>
     </g>
    </g>
    <g id="xtick_11">
     <g id="line2d_19">
      <path d="M 241.142005 442.58 
L 241.142005 276.96 
" clip-path="url(#pe39bf271c4)" style="fill: none; stroke: #ffffff; stroke-width: 2; stroke-linecap: round"/>
     </g>
     <g id="text_19">
      <!-- 0.4 -->
      <g style="fill: #555555" transform="translate(225.852005 473.827187)scale(0.22 -0.22)">
       <defs>
        <path id="ArialMT-34" d="M 2069 0 
L 2069 1097 
L 81 1097 
L 81 1613 
L 2172 4581 
L 2631 4581 
L 2631 1613 
L 3250 1613 
L 3250 1097 
L 2631 1097 
L 2631 0 
L 2069 0 
z
M 2069 1613 
L 2069 3678 
L 634 1613 
L 2069 1613 
z
" transform="scale(0.015625)"/>
       </defs>
       <use xlink:href="#ArialMT-30"/>
       <use xlink:href="#ArialMT-2e" x="55.615234"/>
       <use xlink:href="#ArialMT-34" x="83.398438"/>
      </g>
     </g>
    </g>
    <g id="xtick_12">
     <g id="line2d_20">
      <path d="M 316.445396 442.58 
L 316.445396 276.96 
" clip-path="url(#pe39bf271c4)" style="fill: none; stroke: #ffffff; stroke-width: 2; stroke-linecap: round"/>
     </g>
     <g id="text_20">
      <!-- 0.6 -->
      <g style="fill: #555555" transform="translate(301.155396 473.827187)scale(0.22 -0.22)">
       <defs>
        <path id="ArialMT-36" d="M 3184 3459 
L 2625 3416 
Q 2550 3747 2413 3897 
Q 2184 4138 1850 4138 
Q 1581 4138 1378 3988 
Q 1113 3794 959 3422 
Q 806 3050 800 2363 
Q 1003 2672 1297 2822 
Q 1591 2972 1913 2972 
Q 2475 2972 2870 2558 
Q 3266 2144 3266 1488 
Q 3266 1056 3080 686 
Q 2894 316 2569 119 
Q 2244 -78 1831 -78 
Q 1128 -78 684 439 
Q 241 956 241 2144 
Q 241 3472 731 4075 
Q 1159 4600 1884 4600 
Q 2425 4600 2770 4297 
Q 3116 3994 3184 3459 
z
M 888 1484 
Q 888 1194 1011 928 
Q 1134 663 1356 523 
Q 1578 384 1822 384 
Q 2178 384 2434 671 
Q 2691 959 2691 1453 
Q 2691 1928 2437 2201 
Q 2184 2475 1800 2475 
Q 1419 2475 1153 2201 
Q 888 1928 888 1484 
z
" transform="scale(0.015625)"/>
       </defs>
       <use xlink:href="#ArialMT-30"/>
       <use xlink:href="#ArialMT-2e" x="55.615234"/>
       <use xlink:href="#ArialMT-36" x="83.398438"/>
      </g>
     </g>
    </g>
    <g id="xtick_13">
     <g id="line2d_21">
      <path d="M 391.748787 442.58 
L 391.748787 276.96 
" clip-path="url(#pe39bf271c4)" style="fill: none; stroke: #ffffff; stroke-width: 2; stroke-linecap: round"/>
     </g>
     <g id="text_21">
      <!-- 0.8 -->
      <g style="fill: #555555" transform="translate(376.458787 473.827187)scale(0.22 -0.22)">
       <defs>
        <path id="ArialMT-38" d="M 1131 2484 
Q 781 2613 612 2850 
Q 444 3088 444 3419 
Q 444 3919 803 4259 
Q 1163 4600 1759 4600 
Q 2359 4600 2725 4251 
Q 3091 3903 3091 3403 
Q 3091 3084 2923 2848 
Q 2756 2613 2416 2484 
Q 2838 2347 3058 2040 
Q 3278 1734 3278 1309 
Q 3278 722 2862 322 
Q 2447 -78 1769 -78 
Q 1091 -78 675 323 
Q 259 725 259 1325 
Q 259 1772 486 2073 
Q 713 2375 1131 2484 
z
M 1019 3438 
Q 1019 3113 1228 2906 
Q 1438 2700 1772 2700 
Q 2097 2700 2305 2904 
Q 2513 3109 2513 3406 
Q 2513 3716 2298 3927 
Q 2084 4138 1766 4138 
Q 1444 4138 1231 3931 
Q 1019 3725 1019 3438 
z
M 838 1322 
Q 838 1081 952 856 
Q 1066 631 1291 507 
Q 1516 384 1775 384 
Q 2178 384 2440 643 
Q 2703 903 2703 1303 
Q 2703 1709 2433 1975 
Q 2163 2241 1756 2241 
Q 1359 2241 1098 1978 
Q 838 1716 838 1322 
z
" transform="scale(0.015625)"/>
       </defs>
       <use xlink:href="#ArialMT-30"/>
       <use xlink:href="#ArialMT-2e" x="55.615234"/>
       <use xlink:href="#ArialMT-38" x="83.398438"/>
      </g>
     </g>
    </g>
    <g id="xtick_14">
     <g id="line2d_22">
      <path d="M 467.052178 442.58 
L 467.052178 276.96 
" clip-path="url(#pe39bf271c4)" style="fill: none; stroke: #ffffff; stroke-width: 2; stroke-linecap: round"/>
     </g>
     <g id="text_22">
      <!-- 1.0 -->
      <g style="fill: #555555" transform="translate(451.762178 473.827187)scale(0.22 -0.22)">
       <use xlink:href="#ArialMT-31"/>
       <use xlink:href="#ArialMT-2e" x="55.615234"/>
       <use xlink:href="#ArialMT-30" x="83.398438"/>
      </g>
     </g>
    </g>
   </g>
   <g id="matplotlib.axis_6">
    <g id="ytick_7">
     <g id="line2d_23">
      <path d="M 71.92 442.58 
L 485.867996 442.58 
" clip-path="url(#pe39bf271c4)" style="fill: none; stroke: #ffffff; stroke-width: 2; stroke-linecap: round"/>
     </g>
     <g id="text_23">
      <!-- 0.0 -->
      <g style="fill: #555555" transform="translate(25.84 450.453594)scale(0.22 -0.22)">
       <use xlink:href="#ArialMT-30"/>
       <use xlink:href="#ArialMT-2e" x="55.615234"/>
       <use xlink:href="#ArialMT-30" x="83.398438"/>
      </g>
     </g>
    </g>
    <g id="ytick_8">
     <g id="line2d_24">
      <path d="M 71.92 364.297531 
L 485.867996 364.297531 
" clip-path="url(#pe39bf271c4)" style="fill: none; stroke: #ffffff; stroke-width: 2; stroke-linecap: round"/>
     </g>
     <g id="text_24">
      <!-- 0.5 -->
      <g style="fill: #555555" transform="translate(25.84 372.171125)scale(0.22 -0.22)">
       <use xlink:href="#ArialMT-30"/>
       <use xlink:href="#ArialMT-2e" x="55.615234"/>
       <use xlink:href="#ArialMT-35" x="83.398438"/>
      </g>
     </g>
    </g>
    <g id="ytick_9">
     <g id="line2d_25">
      <path d="M 71.92 286.015062 
L 485.867996 286.015062 
" clip-path="url(#pe39bf271c4)" style="fill: none; stroke: #ffffff; stroke-width: 2; stroke-linecap: round"/>
     </g>
     <g id="text_25">
      <!-- 1.0 -->
      <g style="fill: #555555" transform="translate(25.84 293.888655)scale(0.22 -0.22)">
       <use xlink:href="#ArialMT-31"/>
       <use xlink:href="#ArialMT-2e" x="55.615234"/>
       <use xlink:href="#ArialMT-30" x="83.398438"/>
      </g>
     </g>
    </g>
   </g>
   <g id="patch_13">
    <path d="M 90.735818 442.58 
L 103.279697 442.58 
L 103.279697 284.846667 
L 90.735818 284.846667 
z
" clip-path="url(#pe39bf271c4)" style="fill: #4d3c2f; stroke: #eeeeee; stroke-width: 2; stroke-linejoin: miter"/>
   </g>
   <g id="patch_14">
    <path d="M 103.279697 442.58 
L 115.823575 442.58 
L 115.823575 284.846667 
L 103.279697 284.846667 
z
" clip-path="url(#pe39bf271c4)" style="fill: #4d3c2f; stroke: #eeeeee; stroke-width: 2; stroke-linejoin: miter"/>
   </g>
   <g id="patch_15">
    <path d="M 115.823575 442.58 
L 128.367454 442.58 
L 128.367454 287.35037 
L 115.823575 287.35037 
z
" clip-path="url(#pe39bf271c4)" style="fill: #4d3c2f; stroke: #eeeeee; stroke-width: 2; stroke-linejoin: miter"/>
   </g>
   <g id="patch_16">
    <path d="M 128.367454 442.58 
L 140.911333 442.58 
L 140.911333 284.846667 
L 128.367454 284.846667 
z
" clip-path="url(#pe39bf271c4)" style="fill: #4d3c2f; stroke: #eeeeee; stroke-width: 2; stroke-linejoin: miter"/>
   </g>
   <g id="patch_17">
    <path d="M 140.911333 442.58 
L 153.455211 442.58 
L 153.455211 287.35037 
L 140.911333 287.35037 
z
" clip-path="url(#pe39bf271c4)" style="fill: #4d3c2f; stroke: #eeeeee; stroke-width: 2; stroke-linejoin: miter"/>
   </g>
   <g id="patch_18">
    <path d="M 153.455211 442.58 
L 165.99909 442.58 
L 165.99909 284.846667 
L 153.455211 284.846667 
z
" clip-path="url(#pe39bf271c4)" style="fill: #4d3c2f; stroke: #eeeeee; stroke-width: 2; stroke-linejoin: miter"/>
   </g>
   <g id="patch_19">
    <path d="M 165.99909 442.58 
L 178.542969 442.58 
L 178.542969 287.35037 
L 165.99909 287.35037 
z
" clip-path="url(#pe39bf271c4)" style="fill: #4d3c2f; stroke: #eeeeee; stroke-width: 2; stroke-linejoin: miter"/>
   </g>
   <g id="patch_20">
    <path d="M 178.542969 442.58 
L 191.086847 442.58 
L 191.086847 284.846667 
L 178.542969 284.846667 
z
" clip-path="url(#pe39bf271c4)" style="fill: #4d3c2f; stroke: #eeeeee; stroke-width: 2; stroke-linejoin: miter"/>
   </g>
   <g id="patch_21">
    <path d="M 191.086847 442.58 
L 203.630726 442.58 
L 203.630726 287.35037 
L 191.086847 287.35037 
z
" clip-path="url(#pe39bf271c4)" style="fill: #4d3c2f; stroke: #eeeeee; stroke-width: 2; stroke-linejoin: miter"/>
   </g>
   <g id="patch_22">
    <path d="M 203.630726 442.58 
L 216.174605 442.58 
L 216.174605 284.846667 
L 203.630726 284.846667 
z
" clip-path="url(#pe39bf271c4)" style="fill: #4d3c2f; stroke: #eeeeee; stroke-width: 2; stroke-linejoin: miter"/>
   </g>
   <g id="patch_23">
    <path d="M 216.174605 442.58 
L 228.718483 442.58 
L 228.718483 287.35037 
L 216.174605 287.35037 
z
" clip-path="url(#pe39bf271c4)" style="fill: #4d3c2f; stroke: #eeeeee; stroke-width: 2; stroke-linejoin: miter"/>
   </g>
   <g id="patch_24">
    <path d="M 228.718483 442.58 
L 241.262362 442.58 
L 241.262362 284.846667 
L 228.718483 284.846667 
z
" clip-path="url(#pe39bf271c4)" style="fill: #4d3c2f; stroke: #eeeeee; stroke-width: 2; stroke-linejoin: miter"/>
   </g>
   <g id="patch_25">
    <path d="M 241.262362 442.58 
L 253.806241 442.58 
L 253.806241 287.35037 
L 241.262362 287.35037 
z
" clip-path="url(#pe39bf271c4)" style="fill: #4d3c2f; stroke: #eeeeee; stroke-width: 2; stroke-linejoin: miter"/>
   </g>
   <g id="patch_26">
    <path d="M 253.806241 442.58 
L 266.350119 442.58 
L 266.350119 284.846667 
L 253.806241 284.846667 
z
" clip-path="url(#pe39bf271c4)" style="fill: #4d3c2f; stroke: #eeeeee; stroke-width: 2; stroke-linejoin: miter"/>
   </g>
   <g id="patch_27">
    <path d="M 266.350119 442.58 
L 278.893998 442.58 
L 278.893998 284.846667 
L 266.350119 284.846667 
z
" clip-path="url(#pe39bf271c4)" style="fill: #4d3c2f; stroke: #eeeeee; stroke-width: 2; stroke-linejoin: miter"/>
   </g>
   <g id="patch_28">
    <path d="M 278.893998 442.58 
L 291.437877 442.58 
L 291.437877 287.35037 
L 278.893998 287.35037 
z
" clip-path="url(#pe39bf271c4)" style="fill: #4d3c2f; stroke: #eeeeee; stroke-width: 2; stroke-linejoin: miter"/>
   </g>
   <g id="patch_29">
    <path d="M 291.437877 442.58 
L 303.981755 442.58 
L 303.981755 284.846667 
L 291.437877 284.846667 
z
" clip-path="url(#pe39bf271c4)" style="fill: #4d3c2f; stroke: #eeeeee; stroke-width: 2; stroke-linejoin: miter"/>
   </g>
   <g id="patch_30">
    <path d="M 303.981755 442.58 
L 316.525634 442.58 
L 316.525634 287.35037 
L 303.981755 287.35037 
z
" clip-path="url(#pe39bf271c4)" style="fill: #4d3c2f; stroke: #eeeeee; stroke-width: 2; stroke-linejoin: miter"/>
   </g>
   <g id="patch_31">
    <path d="M 316.525634 442.58 
L 329.069513 442.58 
L 329.069513 284.846667 
L 316.525634 284.846667 
z
" clip-path="url(#pe39bf271c4)" style="fill: #4d3c2f; stroke: #eeeeee; stroke-width: 2; stroke-linejoin: miter"/>
   </g>
   <g id="patch_32">
    <path d="M 329.069513 442.58 
L 341.613391 442.58 
L 341.613391 287.35037 
L 329.069513 287.35037 
z
" clip-path="url(#pe39bf271c4)" style="fill: #4d3c2f; stroke: #eeeeee; stroke-width: 2; stroke-linejoin: miter"/>
   </g>
   <g id="patch_33">
    <path d="M 341.613391 442.58 
L 354.15727 442.58 
L 354.15727 284.846667 
L 341.613391 284.846667 
z
" clip-path="url(#pe39bf271c4)" style="fill: #4d3c2f; stroke: #eeeeee; stroke-width: 2; stroke-linejoin: miter"/>
   </g>
   <g id="patch_34">
    <path d="M 354.15727 442.58 
L 366.701149 442.58 
L 366.701149 287.35037 
L 354.15727 287.35037 
z
" clip-path="url(#pe39bf271c4)" style="fill: #4d3c2f; stroke: #eeeeee; stroke-width: 2; stroke-linejoin: miter"/>
   </g>
   <g id="patch_35">
    <path d="M 366.701149 442.58 
L 379.245027 442.58 
L 379.245027 284.846667 
L 366.701149 284.846667 
z
" clip-path="url(#pe39bf271c4)" style="fill: #4d3c2f; stroke: #eeeeee; stroke-width: 2; stroke-linejoin: miter"/>
   </g>
   <g id="patch_36">
    <path d="M 379.245027 442.58 
L 391.788906 442.58 
L 391.788906 287.35037 
L 379.245027 287.35037 
z
" clip-path="url(#pe39bf271c4)" style="fill: #4d3c2f; stroke: #eeeeee; stroke-width: 2; stroke-linejoin: miter"/>
   </g>
   <g id="patch_37">
    <path d="M 391.788906 442.58 
L 404.332785 442.58 
L 404.332785 284.846667 
L 391.788906 284.846667 
z
" clip-path="url(#pe39bf271c4)" style="fill: #4d3c2f; stroke: #eeeeee; stroke-width: 2; stroke-linejoin: miter"/>
   </g>
   <g id="patch_38">
    <path d="M 404.332785 442.58 
L 416.876663 442.58 
L 416.876663 287.35037 
L 404.332785 287.35037 
z
" clip-path="url(#pe39bf271c4)" style="fill: #4d3c2f; stroke: #eeeeee; stroke-width: 2; stroke-linejoin: miter"/>
   </g>
   <g id="patch_39">
    <path d="M 416.876663 442.58 
L 429.420542 442.58 
L 429.420542 284.846667 
L 416.876663 284.846667 
z
" clip-path="url(#pe39bf271c4)" style="fill: #4d3c2f; stroke: #eeeeee; stroke-width: 2; stroke-linejoin: miter"/>
   </g>
   <g id="patch_40">
    <path d="M 429.420542 442.58 
L 441.964421 442.58 
L 441.964421 287.35037 
L 429.420542 287.35037 
z
" clip-path="url(#pe39bf271c4)" style="fill: #4d3c2f; stroke: #eeeeee; stroke-width: 2; stroke-linejoin: miter"/>
   </g>
   <g id="patch_41">
    <path d="M 441.964421 442.58 
L 454.508299 442.58 
L 454.508299 284.846667 
L 441.964421 284.846667 
z
" clip-path="url(#pe39bf271c4)" style="fill: #4d3c2f; stroke: #eeeeee; stroke-width: 2; stroke-linejoin: miter"/>
   </g>
   <g id="patch_42">
    <path d="M 454.508299 442.58 
L 467.052178 442.58 
L 467.052178 284.846667 
L 454.508299 284.846667 
z
" clip-path="url(#pe39bf271c4)" style="fill: #4d3c2f; stroke: #eeeeee; stroke-width: 2; stroke-linejoin: miter"/>
   </g>
   <g id="patch_43">
    <path d="M 71.92 442.58 
L 71.92 276.96 
" style="fill: none; stroke: #ffffff; stroke-width: 2.5; stroke-linejoin: miter; stroke-linecap: square"/>
   </g>
   <g id="patch_44">
    <path d="M 485.867996 442.58 
L 485.867996 276.96 
" style="fill: none; stroke: #ffffff; stroke-width: 2.5; stroke-linejoin: miter; stroke-linecap: square"/>
   </g>
   <g id="patch_45">
    <path d="M 71.92 442.58 
L 485.867996 442.58 
" style="fill: none; stroke: #ffffff; stroke-width: 2.5; stroke-linejoin: miter; stroke-linecap: square"/>
   </g>
   <g id="patch_46">
    <path d="M 71.92 276.96 
L 485.867996 276.96 
" style="fill: none; stroke: #ffffff; stroke-width: 2.5; stroke-linejoin: miter; stroke-linecap: square"/>
   </g>
  </g>
  <g id="axes_4">
   <g id="patch_47">
    <path d="M 562.96 442.58 
L 976.907996 442.58 
L 976.907996 276.96 
L 562.96 276.96 
z
" style="fill: #e5e5e5"/>
   </g>
   <g id="matplotlib.axis_7">
    <g id="xtick_15">
     <g id="line2d_26">
      <path d="M 581.575223 442.58 
L 581.575223 276.96 
" clip-path="url(#p85f3e1609c)" style="fill: none; stroke: #ffffff; stroke-width: 2; stroke-linecap: round"/>
     </g>
     <g id="text_26">
      <!-- 0.0 -->
      <g style="fill: #555555" transform="translate(566.285223 473.827187)scale(0.22 -0.22)">
       <use xlink:href="#ArialMT-30"/>
       <use xlink:href="#ArialMT-2e" x="55.615234"/>
       <use xlink:href="#ArialMT-30" x="83.398438"/>
      </g>
     </g>
    </g>
    <g id="xtick_16">
     <g id="line2d_27">
      <path d="M 656.878614 442.58 
L 656.878614 276.96 
" clip-path="url(#p85f3e1609c)" style="fill: none; stroke: #ffffff; stroke-width: 2; stroke-linecap: round"/>
     </g>
     <g id="text_27">
      <!-- 0.2 -->
      <g style="fill: #555555" transform="translate(641.588614 473.827187)scale(0.22 -0.22)">
       <use xlink:href="#ArialMT-30"/>
       <use xlink:href="#ArialMT-2e" x="55.615234"/>
       <use xlink:href="#ArialMT-32" x="83.398438"/>
      </g>
     </g>
    </g>
    <g id="xtick_17">
     <g id="line2d_28">
      <path d="M 732.182005 442.58 
L 732.182005 276.96 
" clip-path="url(#p85f3e1609c)" style="fill: none; stroke: #ffffff; stroke-width: 2; stroke-linecap: round"/>
     </g>
     <g id="text_28">
      <!-- 0.4 -->
      <g style="fill: #555555" transform="translate(716.892005 473.827187)scale(0.22 -0.22)">
       <use xlink:href="#ArialMT-30"/>
       <use xlink:href="#ArialMT-2e" x="55.615234"/>
       <use xlink:href="#ArialMT-34" x="83.398438"/>
      </g>
     </g>
    </g>
    <g id="xtick_18">
     <g id="line2d_29">
      <path d="M 807.485396 442.58 
L 807.485396 276.96 
" clip-path="url(#p85f3e1609c)" style="fill: none; stroke: #ffffff; stroke-width: 2; stroke-linecap: round"/>
     </g>
     <g id="text_29">
      <!-- 0.6 -->
      <g style="fill: #555555" transform="translate(792.195396 473.827187)scale(0.22 -0.22)">
       <use xlink:href="#ArialMT-30"/>
       <use xlink:href="#ArialMT-2e" x="55.615234"/>
       <use xlink:href="#ArialMT-36" x="83.398438"/>
      </g>
     </g>
    </g>
    <g id="xtick_19">
     <g id="line2d_30">
      <path d="M 882.788787 442.58 
L 882.788787 276.96 
" clip-path="url(#p85f3e1609c)" style="fill: none; stroke: #ffffff; stroke-width: 2; stroke-linecap: round"/>
     </g>
     <g id="text_30">
      <!-- 0.8 -->
      <g style="fill: #555555" transform="translate(867.498787 473.827187)scale(0.22 -0.22)">
       <use xlink:href="#ArialMT-30"/>
       <use xlink:href="#ArialMT-2e" x="55.615234"/>
       <use xlink:href="#ArialMT-38" x="83.398438"/>
      </g>
     </g>
    </g>
    <g id="xtick_20">
     <g id="line2d_31">
      <path d="M 958.092178 442.58 
L 958.092178 276.96 
" clip-path="url(#p85f3e1609c)" style="fill: none; stroke: #ffffff; stroke-width: 2; stroke-linecap: round"/>
     </g>
     <g id="text_31">
      <!-- 1.0 -->
      <g style="fill: #555555" transform="translate(942.802178 473.827187)scale(0.22 -0.22)">
       <use xlink:href="#ArialMT-31"/>
       <use xlink:href="#ArialMT-2e" x="55.615234"/>
       <use xlink:href="#ArialMT-30" x="83.398438"/>
      </g>
     </g>
    </g>
   </g>
   <g id="matplotlib.axis_8">
    <g id="ytick_10">
     <g id="line2d_32">
      <path d="M 562.96 442.58 
L 976.907996 442.58 
" clip-path="url(#p85f3e1609c)" style="fill: none; stroke: #ffffff; stroke-width: 2; stroke-linecap: round"/>
     </g>
     <g id="text_32">
      <!-- 0.0 -->
      <g style="fill: #555555" transform="translate(516.88 450.453594)scale(0.22 -0.22)">
       <use xlink:href="#ArialMT-30"/>
       <use xlink:href="#ArialMT-2e" x="55.615234"/>
       <use xlink:href="#ArialMT-30" x="83.398438"/>
      </g>
     </g>
    </g>
    <g id="ytick_11">
     <g id="line2d_33">
      <path d="M 562.96 364.297531 
L 976.907996 364.297531 
" clip-path="url(#p85f3e1609c)" style="fill: none; stroke: #ffffff; stroke-width: 2; stroke-linecap: round"/>
     </g>
     <g id="text_33">
      <!-- 0.5 -->
      <g style="fill: #555555" transform="translate(516.88 372.171125)scale(0.22 -0.22)">
       <use xlink:href="#ArialMT-30"/>
       <use xlink:href="#ArialMT-2e" x="55.615234"/>
       <use xlink:href="#ArialMT-35" x="83.398438"/>
      </g>
     </g>
    </g>
    <g id="ytick_12">
     <g id="line2d_34">
      <path d="M 562.96 286.015062 
L 976.907996 286.015062 
" clip-path="url(#p85f3e1609c)" style="fill: none; stroke: #ffffff; stroke-width: 2; stroke-linecap: round"/>
     </g>
     <g id="text_34">
      <!-- 1.0 -->
      <g style="fill: #555555" transform="translate(516.88 293.888655)scale(0.22 -0.22)">
       <use xlink:href="#ArialMT-31"/>
       <use xlink:href="#ArialMT-2e" x="55.615234"/>
       <use xlink:href="#ArialMT-30" x="83.398438"/>
      </g>
     </g>
    </g>
   </g>
   <g id="patch_48">
    <path d="M 581.775818 442.58 
L 594.319697 442.58 
L 594.319697 284.846667 
L 581.775818 284.846667 
z
" clip-path="url(#p85f3e1609c)" style="fill: #c07156; stroke: #eeeeee; stroke-width: 2; stroke-linejoin: miter"/>
   </g>
   <g id="patch_49">
    <path d="M 594.319697 442.58 
L 606.863575 442.58 
L 606.863575 284.846667 
L 594.319697 284.846667 
z
" clip-path="url(#p85f3e1609c)" style="fill: #c07156; stroke: #eeeeee; stroke-width: 2; stroke-linejoin: miter"/>
   </g>
   <g id="patch_50">
    <path d="M 606.863575 442.58 
L 619.407454 442.58 
L 619.407454 287.35037 
L 606.863575 287.35037 
z
" clip-path="url(#p85f3e1609c)" style="fill: #c07156; stroke: #eeeeee; stroke-width: 2; stroke-linejoin: miter"/>
   </g>
   <g id="patch_51">
    <path d="M 619.407454 442.58 
L 631.951333 442.58 
L 631.951333 284.846667 
L 619.407454 284.846667 
z
" clip-path="url(#p85f3e1609c)" style="fill: #c07156; stroke: #eeeeee; stroke-width: 2; stroke-linejoin: miter"/>
   </g>
   <g id="patch_52">
    <path d="M 631.951333 442.58 
L 644.495211 442.58 
L 644.495211 287.35037 
L 631.951333 287.35037 
z
" clip-path="url(#p85f3e1609c)" style="fill: #c07156; stroke: #eeeeee; stroke-width: 2; stroke-linejoin: miter"/>
   </g>
   <g id="patch_53">
    <path d="M 644.495211 442.58 
L 657.03909 442.58 
L 657.03909 284.846667 
L 644.495211 284.846667 
z
" clip-path="url(#p85f3e1609c)" style="fill: #c07156; stroke: #eeeeee; stroke-width: 2; stroke-linejoin: miter"/>
   </g>
   <g id="patch_54">
    <path d="M 657.03909 442.58 
L 669.582969 442.58 
L 669.582969 287.35037 
L 657.03909 287.35037 
z
" clip-path="url(#p85f3e1609c)" style="fill: #c07156; stroke: #eeeeee; stroke-width: 2; stroke-linejoin: miter"/>
   </g>
   <g id="patch_55">
    <path d="M 669.582969 442.58 
L 682.126847 442.58 
L 682.126847 284.846667 
L 669.582969 284.846667 
z
" clip-path="url(#p85f3e1609c)" style="fill: #c07156; stroke: #eeeeee; stroke-width: 2; stroke-linejoin: miter"/>
   </g>
   <g id="patch_56">
    <path d="M 682.126847 442.58 
L 694.670726 442.58 
L 694.670726 287.35037 
L 682.126847 287.35037 
z
" clip-path="url(#p85f3e1609c)" style="fill: #c07156; stroke: #eeeeee; stroke-width: 2; stroke-linejoin: miter"/>
   </g>
   <g id="patch_57">
    <path d="M 694.670726 442.58 
L 707.214605 442.58 
L 707.214605 284.846667 
L 694.670726 284.846667 
z
" clip-path="url(#p85f3e1609c)" style="fill: #c07156; stroke: #eeeeee; stroke-width: 2; stroke-linejoin: miter"/>
   </g>
   <g id="patch_58">
    <path d="M 707.214605 442.58 
L 719.758483 442.58 
L 719.758483 287.35037 
L 707.214605 287.35037 
z
" clip-path="url(#p85f3e1609c)" style="fill: #c07156; stroke: #eeeeee; stroke-width: 2; stroke-linejoin: miter"/>
   </g>
   <g id="patch_59">
    <path d="M 719.758483 442.58 
L 732.302362 442.58 
L 732.302362 284.846667 
L 719.758483 284.846667 
z
" clip-path="url(#p85f3e1609c)" style="fill: #c07156; stroke: #eeeeee; stroke-width: 2; stroke-linejoin: miter"/>
   </g>
   <g id="patch_60">
    <path d="M 732.302362 442.58 
L 744.846241 442.58 
L 744.846241 287.35037 
L 732.302362 287.35037 
z
" clip-path="url(#p85f3e1609c)" style="fill: #c07156; stroke: #eeeeee; stroke-width: 2; stroke-linejoin: miter"/>
   </g>
   <g id="patch_61">
    <path d="M 744.846241 442.58 
L 757.390119 442.58 
L 757.390119 284.846667 
L 744.846241 284.846667 
z
" clip-path="url(#p85f3e1609c)" style="fill: #c07156; stroke: #eeeeee; stroke-width: 2; stroke-linejoin: miter"/>
   </g>
   <g id="patch_62">
    <path d="M 757.390119 442.58 
L 769.933998 442.58 
L 769.933998 284.846667 
L 757.390119 284.846667 
z
" clip-path="url(#p85f3e1609c)" style="fill: #c07156; stroke: #eeeeee; stroke-width: 2; stroke-linejoin: miter"/>
   </g>
   <g id="patch_63">
    <path d="M 769.933998 442.58 
L 782.477877 442.58 
L 782.477877 287.35037 
L 769.933998 287.35037 
z
" clip-path="url(#p85f3e1609c)" style="fill: #c07156; stroke: #eeeeee; stroke-width: 2; stroke-linejoin: miter"/>
   </g>
   <g id="patch_64">
    <path d="M 782.477877 442.58 
L 795.021755 442.58 
L 795.021755 284.846667 
L 782.477877 284.846667 
z
" clip-path="url(#p85f3e1609c)" style="fill: #c07156; stroke: #eeeeee; stroke-width: 2; stroke-linejoin: miter"/>
   </g>
   <g id="patch_65">
    <path d="M 795.021755 442.58 
L 807.565634 442.58 
L 807.565634 287.35037 
L 795.021755 287.35037 
z
" clip-path="url(#p85f3e1609c)" style="fill: #c07156; stroke: #eeeeee; stroke-width: 2; stroke-linejoin: miter"/>
   </g>
   <g id="patch_66">
    <path d="M 807.565634 442.58 
L 820.109513 442.58 
L 820.109513 284.846667 
L 807.565634 284.846667 
z
" clip-path="url(#p85f3e1609c)" style="fill: #c07156; stroke: #eeeeee; stroke-width: 2; stroke-linejoin: miter"/>
   </g>
   <g id="patch_67">
    <path d="M 820.109513 442.58 
L 832.653391 442.58 
L 832.653391 287.35037 
L 820.109513 287.35037 
z
" clip-path="url(#p85f3e1609c)" style="fill: #c07156; stroke: #eeeeee; stroke-width: 2; stroke-linejoin: miter"/>
   </g>
   <g id="patch_68">
    <path d="M 832.653391 442.58 
L 845.19727 442.58 
L 845.19727 284.846667 
L 832.653391 284.846667 
z
" clip-path="url(#p85f3e1609c)" style="fill: #c07156; stroke: #eeeeee; stroke-width: 2; stroke-linejoin: miter"/>
   </g>
   <g id="patch_69">
    <path d="M 845.19727 442.58 
L 857.741149 442.58 
L 857.741149 287.35037 
L 845.19727 287.35037 
z
" clip-path="url(#p85f3e1609c)" style="fill: #c07156; stroke: #eeeeee; stroke-width: 2; stroke-linejoin: miter"/>
   </g>
   <g id="patch_70">
    <path d="M 857.741149 442.58 
L 870.285027 442.58 
L 870.285027 284.846667 
L 857.741149 284.846667 
z
" clip-path="url(#p85f3e1609c)" style="fill: #c07156; stroke: #eeeeee; stroke-width: 2; stroke-linejoin: miter"/>
   </g>
   <g id="patch_71">
    <path d="M 870.285027 442.58 
L 882.828906 442.58 
L 882.828906 287.35037 
L 870.285027 287.35037 
z
" clip-path="url(#p85f3e1609c)" style="fill: #c07156; stroke: #eeeeee; stroke-width: 2; stroke-linejoin: miter"/>
   </g>
   <g id="patch_72">
    <path d="M 882.828906 442.58 
L 895.372785 442.58 
L 895.372785 284.846667 
L 882.828906 284.846667 
z
" clip-path="url(#p85f3e1609c)" style="fill: #c07156; stroke: #eeeeee; stroke-width: 2; stroke-linejoin: miter"/>
   </g>
   <g id="patch_73">
    <path d="M 895.372785 442.58 
L 907.916663 442.58 
L 907.916663 287.35037 
L 895.372785 287.35037 
z
" clip-path="url(#p85f3e1609c)" style="fill: #c07156; stroke: #eeeeee; stroke-width: 2; stroke-linejoin: miter"/>
   </g>
   <g id="patch_74">
    <path d="M 907.916663 442.58 
L 920.460542 442.58 
L 920.460542 284.846667 
L 907.916663 284.846667 
z
" clip-path="url(#p85f3e1609c)" style="fill: #c07156; stroke: #eeeeee; stroke-width: 2; stroke-linejoin: miter"/>
   </g>
   <g id="patch_75">
    <path d="M 920.460542 442.58 
L 933.004421 442.58 
L 933.004421 287.35037 
L 920.460542 287.35037 
z
" clip-path="url(#p85f3e1609c)" style="fill: #c07156; stroke: #eeeeee; stroke-width: 2; stroke-linejoin: miter"/>
   </g>
   <g id="patch_76">
    <path d="M 933.004421 442.58 
L 945.548299 442.58 
L 945.548299 284.846667 
L 933.004421 284.846667 
z
" clip-path="url(#p85f3e1609c)" style="fill: #c07156; stroke: #eeeeee; stroke-width: 2; stroke-linejoin: miter"/>
   </g>
   <g id="patch_77">
    <path d="M 945.548299 442.58 
L 958.092178 442.58 
L 958.092178 284.846667 
L 945.548299 284.846667 
z
" clip-path="url(#p85f3e1609c)" style="fill: #c07156; stroke: #eeeeee; stroke-width: 2; stroke-linejoin: miter"/>
   </g>
   <g id="patch_78">
    <path d="M 562.96 442.58 
L 562.96 276.96 
" style="fill: none; stroke: #ffffff; stroke-width: 2.5; stroke-linejoin: miter; stroke-linecap: square"/>
   </g>
   <g id="patch_79">
    <path d="M 976.907996 442.58 
L 976.907996 276.96 
" style="fill: none; stroke: #ffffff; stroke-width: 2.5; stroke-linejoin: miter; stroke-linecap: square"/>
   </g>
   <g id="patch_80">
    <path d="M 562.96 442.58 
L 976.907996 442.58 
" style="fill: none; stroke: #ffffff; stroke-width: 2.5; stroke-linejoin: miter; stroke-linecap: square"/>
   </g>
   <g id="patch_81">
    <path d="M 562.96 276.96 
L 976.907996 276.96 
" style="fill: none; stroke: #ffffff; stroke-width: 2.5; stroke-linejoin: miter; stroke-linecap: square"/>
   </g>
  </g>
 </g>
 <defs>
  <clipPath id="pdd534fe9dd">
   <rect x="71.92" y="49.92" width="413.947996" height="165.62"/>
  </clipPath>
  <clipPath id="pa0e64fa27f">
   <rect x="562.96" y="49.92" width="413.947996" height="165.62"/>
  </clipPath>
  <clipPath id="pe39bf271c4">
   <rect x="71.92" y="276.96" width="413.947996" height="165.62"/>
  </clipPath>
  <clipPath id="p85f3e1609c">
   <rect x="562.96" y="276.96" width="413.947996" height="165.62"/>
  </clipPath>
 </defs>
</svg>
