<?xml version="1.0" encoding="utf-8" standalone="no"?>
<!DOCTYPE svg PUBLIC "-//W3C//DTD SVG 1.1//EN"
  "http://www.w3.org/Graphics/SVG/1.1/DTD/svg11.dtd">
<svg xmlns:xlink="http://www.w3.org/1999/xlink" width="1008pt" height="504pt" viewBox="0 0 1008 504" xmlns="http://www.w3.org/2000/svg" version="1.1">
 <metadata>
  <rdf:RDF xmlns:dc="http://purl.org/dc/elements/1.1/" xmlns:cc="http://creativecommons.org/ns#" xmlns:rdf="http://www.w3.org/1999/02/22-rdf-syntax-ns#">
   <cc:Work>
    <dc:type rdf:resource="http://purl.org/dc/dcmitype/StillImage"/>
    <dc:date>2022-04-17T02:11:49.489165</dc:date>
    <dc:format>image/svg+xml</dc:format>
    <dc:creator>
     <cc:Agent>
      <dc:title>Matplotlib v3.5.1, https://matplotlib.org/</dc:title>
     </cc:Agent>
    </dc:creator>
   </cc:Work>
  </rdf:RDF>
 </metadata>
 <defs>
  <style type="text/css">*{stroke-linejoin: round; stroke-linecap: butt}</style>
 </defs>
 <g id="figure_1">
  <g id="patch_1">
   <path d="M 0 504 
L 1008 504 
L 1008 0 
L 0 0 
z
" style="fill: #ffffff"/>
  </g>
  <g id="axes_1">
   <g id="patch_2">
    <path d="M 63.94 224.78 
L 494.28 224.78 
L 494.28 39.44 
L 63.94 39.44 
z
" style="fill: #e5e5e5"/>
   </g>
   <g id="matplotlib.axis_1">
    <g id="xtick_1">
     <g id="line2d_1">
      <path d="M 85.292938 224.78 
L 85.292938 39.44 
" clip-path="url(#p07ffba3ada)" style="fill: none; stroke: #ffffff; stroke-width: 1.5; stroke-linecap: round"/>
     </g>
     <g id="text_1">
      <!-- −6 -->
      <g style="fill: #555555" transform="translate(75.886649 249.090391)scale(0.165 -0.165)">
       <defs>
        <path id="ArialMT-2212" d="M 3381 1997 
L 356 1997 
L 356 2522 
L 3381 2522 
L 3381 1997 
z
" transform="scale(0.015625)"/>
        <path id="ArialMT-36" d="M 3184 3459 
L 2625 3416 
Q 2550 3747 2413 3897 
Q 2184 4138 1850 4138 
Q 1581 4138 1378 3988 
Q 1113 3794 959 3422 
Q 806 3050 800 2363 
Q 1003 2672 1297 2822 
Q 1591 2972 1913 2972 
Q 2475 2972 2870 2558 
Q 3266 2144 3266 1488 
Q 3266 1056 3080 686 
Q 2894 316 2569 119 
Q 2244 -78 1831 -78 
Q 1128 -78 684 439 
Q 241 956 241 2144 
Q 241 3472 731 4075 
Q 1159 4600 1884 4600 
Q 2425 4600 2770 4297 
Q 3116 3994 3184 3459 
z
M 888 1484 
Q 888 1194 1011 928 
Q 1134 663 1356 523 
Q 1578 384 1822 384 
Q 2178 384 2434 671 
Q 2691 959 2691 1453 
Q 2691 1928 2437 2201 
Q 2184 2475 1800 2475 
Q 1419 2475 1153 2201 
Q 888 1928 888 1484 
z
" transform="scale(0.015625)"/>
       </defs>
       <use xlink:href="#ArialMT-2212"/>
       <use xlink:href="#ArialMT-36" x="58.398438"/>
      </g>
     </g>
    </g>
    <g id="xtick_2">
     <g id="line2d_2">
      <path d="M 151.584634 224.78 
L 151.584634 39.44 
" clip-path="url(#p07ffba3ada)" style="fill: none; stroke: #ffffff; stroke-width: 1.5; stroke-linecap: round"/>
     </g>
     <g id="text_2">
      <!-- −4 -->
      <g style="fill: #555555" transform="translate(142.178345 249.090391)scale(0.165 -0.165)">
       <defs>
        <path id="ArialMT-34" d="M 2069 0 
L 2069 1097 
L 81 1097 
L 81 1613 
L 2172 4581 
L 2631 4581 
L 2631 1613 
L 3250 1613 
L 3250 1097 
L 2631 1097 
L 2631 0 
L 2069 0 
z
M 2069 1613 
L 2069 3678 
L 634 1613 
L 2069 1613 
z
" transform="scale(0.015625)"/>
       </defs>
       <use xlink:href="#ArialMT-2212"/>
       <use xlink:href="#ArialMT-34" x="58.398438"/>
      </g>
     </g>
    </g>
    <g id="xtick_3">
     <g id="line2d_3">
      <path d="M 217.876329 224.78 
L 217.876329 39.44 
" clip-path="url(#p07ffba3ada)" style="fill: none; stroke: #ffffff; stroke-width: 1.5; stroke-linecap: round"/>
     </g>
     <g id="text_3">
      <!-- −2 -->
      <g style="fill: #555555" transform="translate(208.47004 249.090391)scale(0.165 -0.165)">
       <defs>
        <path id="ArialMT-32" d="M 3222 541 
L 3222 0 
L 194 0 
Q 188 203 259 391 
Q 375 700 629 1000 
Q 884 1300 1366 1694 
Q 2113 2306 2375 2664 
Q 2638 3022 2638 3341 
Q 2638 3675 2398 3904 
Q 2159 4134 1775 4134 
Q 1369 4134 1125 3890 
Q 881 3647 878 3216 
L 300 3275 
Q 359 3922 746 4261 
Q 1134 4600 1788 4600 
Q 2447 4600 2831 4234 
Q 3216 3869 3216 3328 
Q 3216 3053 3103 2787 
Q 2991 2522 2730 2228 
Q 2469 1934 1863 1422 
Q 1356 997 1212 845 
Q 1069 694 975 541 
L 3222 541 
z
" transform="scale(0.015625)"/>
       </defs>
       <use xlink:href="#ArialMT-2212"/>
       <use xlink:href="#ArialMT-32" x="58.398438"/>
      </g>
     </g>
    </g>
    <g id="xtick_4">
     <g id="line2d_4">
      <path d="M 284.168025 224.78 
L 284.168025 39.44 
" clip-path="url(#p07ffba3ada)" style="fill: none; stroke: #ffffff; stroke-width: 1.5; stroke-linecap: round"/>
     </g>
     <g id="text_4">
      <!-- 0 -->
      <g style="fill: #555555" transform="translate(279.580251 249.090391)scale(0.165 -0.165)">
       <defs>
        <path id="ArialMT-30" d="M 266 2259 
Q 266 3072 433 3567 
Q 600 4063 929 4331 
Q 1259 4600 1759 4600 
Q 2128 4600 2406 4451 
Q 2684 4303 2865 4023 
Q 3047 3744 3150 3342 
Q 3253 2941 3253 2259 
Q 3253 1453 3087 958 
Q 2922 463 2592 192 
Q 2263 -78 1759 -78 
Q 1097 -78 719 397 
Q 266 969 266 2259 
z
M 844 2259 
Q 844 1131 1108 757 
Q 1372 384 1759 384 
Q 2147 384 2411 759 
Q 2675 1134 2675 2259 
Q 2675 3391 2411 3762 
Q 2147 4134 1753 4134 
Q 1366 4134 1134 3806 
Q 844 3388 844 2259 
z
" transform="scale(0.015625)"/>
       </defs>
       <use xlink:href="#ArialMT-30"/>
      </g>
     </g>
    </g>
    <g id="xtick_5">
     <g id="line2d_5">
      <path d="M 350.45972 224.78 
L 350.45972 39.44 
" clip-path="url(#p07ffba3ada)" style="fill: none; stroke: #ffffff; stroke-width: 1.5; stroke-linecap: round"/>
     </g>
     <g id="text_5">
      <!-- 2 -->
      <g style="fill: #555555" transform="translate(345.871947 249.090391)scale(0.165 -0.165)">
       <use xlink:href="#ArialMT-32"/>
      </g>
     </g>
    </g>
    <g id="xtick_6">
     <g id="line2d_6">
      <path d="M 416.751416 224.78 
L 416.751416 39.44 
" clip-path="url(#p07ffba3ada)" style="fill: none; stroke: #ffffff; stroke-width: 1.5; stroke-linecap: round"/>
     </g>
     <g id="text_6">
      <!-- 4 -->
      <g style="fill: #555555" transform="translate(412.163642 249.090391)scale(0.165 -0.165)">
       <use xlink:href="#ArialMT-34"/>
      </g>
     </g>
    </g>
    <g id="xtick_7">
     <g id="line2d_7">
      <path d="M 483.043111 224.78 
L 483.043111 39.44 
" clip-path="url(#p07ffba3ada)" style="fill: none; stroke: #ffffff; stroke-width: 1.5; stroke-linecap: round"/>
     </g>
     <g id="text_7">
      <!-- 6 -->
      <g style="fill: #555555" transform="translate(478.455338 249.090391)scale(0.165 -0.165)">
       <use xlink:href="#ArialMT-36"/>
      </g>
     </g>
    </g>
   </g>
   <g id="matplotlib.axis_2">
    <g id="ytick_1">
     <g id="line2d_8">
      <path d="M 63.94 216.445268 
L 494.28 216.445268 
" clip-path="url(#p07ffba3ada)" style="fill: none; stroke: #ffffff; stroke-width: 1.5; stroke-linecap: round"/>
     </g>
     <g id="text_8">
      <!-- 0.00 -->
      <g style="fill: #555555" transform="translate(19.329453 222.350464)scale(0.165 -0.165)">
       <defs>
        <path id="ArialMT-2e" d="M 581 0 
L 581 641 
L 1222 641 
L 1222 0 
L 581 0 
z
" transform="scale(0.015625)"/>
       </defs>
       <use xlink:href="#ArialMT-30"/>
       <use xlink:href="#ArialMT-2e" x="55.615234"/>
       <use xlink:href="#ArialMT-30" x="83.398438"/>
       <use xlink:href="#ArialMT-30" x="139.013672"/>
      </g>
     </g>
    </g>
    <g id="ytick_2">
     <g id="line2d_9">
      <path d="M 63.94 174.300088 
L 494.28 174.300088 
" clip-path="url(#p07ffba3ada)" style="fill: none; stroke: #ffffff; stroke-width: 1.5; stroke-linecap: round"/>
     </g>
     <g id="text_9">
      <!-- 0.25 -->
      <g style="fill: #555555" transform="translate(19.329453 180.205283)scale(0.165 -0.165)">
       <defs>
        <path id="ArialMT-35" d="M 266 1200 
L 856 1250 
Q 922 819 1161 601 
Q 1400 384 1738 384 
Q 2144 384 2425 690 
Q 2706 997 2706 1503 
Q 2706 1984 2436 2262 
Q 2166 2541 1728 2541 
Q 1456 2541 1237 2417 
Q 1019 2294 894 2097 
L 366 2166 
L 809 4519 
L 3088 4519 
L 3088 3981 
L 1259 3981 
L 1013 2750 
Q 1425 3038 1878 3038 
Q 2478 3038 2890 2622 
Q 3303 2206 3303 1553 
Q 3303 931 2941 478 
Q 2500 -78 1738 -78 
Q 1113 -78 717 272 
Q 322 622 266 1200 
z
" transform="scale(0.015625)"/>
       </defs>
       <use xlink:href="#ArialMT-30"/>
       <use xlink:href="#ArialMT-2e" x="55.615234"/>
       <use xlink:href="#ArialMT-32" x="83.398438"/>
       <use xlink:href="#ArialMT-35" x="139.013672"/>
      </g>
     </g>
    </g>
    <g id="ytick_3">
     <g id="line2d_10">
      <path d="M 63.94 132.154907 
L 494.28 132.154907 
" clip-path="url(#p07ffba3ada)" style="fill: none; stroke: #ffffff; stroke-width: 1.5; stroke-linecap: round"/>
     </g>
     <g id="text_10">
      <!-- 0.50 -->
      <g style="fill: #555555" transform="translate(19.329453 138.060102)scale(0.165 -0.165)">
       <use xlink:href="#ArialMT-30"/>
       <use xlink:href="#ArialMT-2e" x="55.615234"/>
       <use xlink:href="#ArialMT-35" x="83.398438"/>
       <use xlink:href="#ArialMT-30" x="139.013672"/>
      </g>
     </g>
    </g>
    <g id="ytick_4">
     <g id="line2d_11">
      <path d="M 63.94 90.009726 
L 494.28 90.009726 
" clip-path="url(#p07ffba3ada)" style="fill: none; stroke: #ffffff; stroke-width: 1.5; stroke-linecap: round"/>
     </g>
     <g id="text_11">
      <!-- 0.75 -->
      <g style="fill: #555555" transform="translate(19.329453 95.914922)scale(0.165 -0.165)">
       <defs>
        <path id="ArialMT-37" d="M 303 3981 
L 303 4522 
L 3269 4522 
L 3269 4084 
Q 2831 3619 2401 2847 
Q 1972 2075 1738 1259 
Q 1569 684 1522 0 
L 944 0 
Q 953 541 1156 1306 
Q 1359 2072 1739 2783 
Q 2119 3494 2547 3981 
L 303 3981 
z
" transform="scale(0.015625)"/>
       </defs>
       <use xlink:href="#ArialMT-30"/>
       <use xlink:href="#ArialMT-2e" x="55.615234"/>
       <use xlink:href="#ArialMT-37" x="83.398438"/>
       <use xlink:href="#ArialMT-35" x="139.013672"/>
      </g>
     </g>
    </g>
    <g id="ytick_5">
     <g id="line2d_12">
      <path d="M 63.94 47.864545 
L 494.28 47.864545 
" clip-path="url(#p07ffba3ada)" style="fill: none; stroke: #ffffff; stroke-width: 1.5; stroke-linecap: round"/>
     </g>
     <g id="text_12">
      <!-- 1.00 -->
      <g style="fill: #555555" transform="translate(19.329453 53.769741)scale(0.165 -0.165)">
       <defs>
        <path id="ArialMT-31" d="M 2384 0 
L 1822 0 
L 1822 3584 
Q 1619 3391 1289 3197 
Q 959 3003 697 2906 
L 697 3450 
Q 1169 3672 1522 3987 
Q 1875 4303 2022 4600 
L 2384 4600 
L 2384 0 
z
" transform="scale(0.015625)"/>
       </defs>
       <use xlink:href="#ArialMT-31"/>
       <use xlink:href="#ArialMT-2e" x="55.615234"/>
       <use xlink:href="#ArialMT-30" x="83.398438"/>
       <use xlink:href="#ArialMT-30" x="139.013672"/>
      </g>
     </g>
    </g>
   </g>
   <g id="line2d_13">
    <path d="M 83.500909 216.355455 
L 164.717694 215.816571 
L 164.754063 215.726757 
L 167.793902 215.636943 
L 175.599391 215.457315 
L 179.189844 215.277688 
L 190.586925 215.09806 
L 195.000343 214.738804 
L 197.052941 214.559176 
L 202.382112 214.199921 
L 202.459429 214.110107 
L 203.642038 213.840665 
L 205.043826 213.571223 
L 206.477901 213.391595 
L 210.797312 213.03234 
L 212.726046 212.673084 
L 213.098601 212.493456 
L 213.158121 212.403642 
L 214.845038 212.1342 
L 217.164224 211.595317 
L 219.163795 211.415689 
L 219.171452 211.325875 
L 220.048235 210.966619 
L 221.69362 210.786992 
L 222.022927 210.427736 
L 222.999426 210.248108 
L 223.080969 210.158294 
L 224.139106 209.978666 
L 224.849346 209.709225 
L 225.323246 209.529597 
L 228.412403 208.721272 
L 228.459348 208.631458 
L 228.770419 208.45183 
L 228.799248 208.362016 
L 230.150023 208.00276 
L 230.849275 207.643505 
L 232.014405 207.014807 
L 232.633606 206.745365 
L 233.44203 206.475924 
L 233.451755 206.38611 
L 237.223342 205.128715 
L 238.145008 204.949087 
L 238.300926 204.679645 
L 238.761998 204.410204 
L 239.637065 203.961134 
L 240.027458 203.691692 
L 240.430747 203.512064 
L 240.589951 203.242623 
L 240.924894 203.062995 
L 241.046734 202.883367 
L 241.840735 202.434297 
L 242.150652 202.25467 
L 243.066159 201.715786 
L 243.676019 201.35653 
L 243.771958 200.997275 
L 243.866756 200.727833 
L 244.163152 200.458391 
L 244.592516 199.829694 
L 244.647949 199.560252 
L 244.986808 199.200996 
L 245.004556 199.111182 
L 245.576053 198.751927 
L 245.951399 198.123229 
L 246.310571 197.853788 
L 246.369682 197.763974 
L 246.669356 197.584346 
L 246.714743 197.494532 
L 247.86781 197.314904 
L 248.581614 196.686207 
L 248.931641 196.506579 
L 249.096249 196.237137 
L 249.369973 195.877881 
L 249.60556 195.698254 
L 249.858978 195.428812 
L 249.972225 195.15937 
L 250.452596 194.7103 
L 250.656594 194.171417 
L 250.756003 193.991789 
L 251.153425 193.722347 
L 251.273539 193.54272 
L 251.385367 193.183464 
L 251.488342 192.734394 
L 252.160795 192.195511 
L 252.456958 191.836255 
L 252.635852 191.566813 
L 253.835818 190.219605 
L 254.257196 190.039977 
L 254.951704 189.231651 
L 255.03931 188.872396 
L 255.555968 188.243698 
L 255.572286 188.153884 
L 255.803392 187.884443 
L 255.807704 187.794629 
L 256.142365 187.615001 
L 256.402828 186.986304 
L 256.65596 186.716862 
L 256.774345 186.44742 
L 257.160662 185.99835 
L 257.317131 185.549281 
L 257.912013 185.100211 
L 258.323763 184.471514 
L 258.785457 183.93263 
L 258.977918 183.573375 
L 259.371548 183.034491 
L 259.755695 182.765049 
L 260.037054 182.046538 
L 260.191 181.507655 
L 260.204201 181.328027 
L 260.428588 181.148399 
L 260.44294 181.058585 
L 261.088807 180.789143 
L 261.31495 180.160446 
L 261.514405 179.980818 
L 261.626267 179.711376 
L 261.987641 179.531748 
L 262.087846 179.172493 
L 262.296315 178.903051 
L 262.431093 178.723423 
L 262.936219 178.274354 
L 263.062364 178.004912 
L 263.16705 177.73547 
L 263.306203 177.376214 
L 263.39524 177.106773 
L 264.009812 176.657703 
L 264.152306 176.298447 
L 264.267019 175.939192 
L 264.398893 175.490122 
L 264.96876 174.412355 
L 265.107287 174.053099 
L 265.301923 173.693844 
L 265.400463 173.244774 
L 265.666416 172.885519 
L 265.763653 172.616077 
L 266.620104 170.101287 
L 266.885914 169.742031 
L 266.952837 169.47259 
L 267.427378 168.843892 
L 267.569344 168.394823 
L 267.690979 168.125381 
L 268.160899 167.137428 
L 268.393819 166.598544 
L 268.620742 166.418916 
L 268.844423 165.969847 
L 269.227393 165.790219 
L 269.281243 165.430963 
L 269.362908 164.89208 
L 269.518378 164.712452 
L 269.632059 164.353196 
L 269.837454 163.993941 
L 269.901967 163.724499 
L 270.095824 163.544871 
L 270.377058 162.556918 
L 270.456756 162.197662 
L 270.642269 161.838407 
L 271.097355 161.030081 
L 271.394938 160.581012 
L 271.511797 160.401384 
L 271.613754 160.042128 
L 271.686137 159.682873 
L 272.195291 158.605106 
L 272.549975 157.79678 
L 272.748682 157.617153 
L 272.882295 157.168083 
L 273.595222 156.269944 
L 273.84151 155.551432 
L 274.098327 154.922735 
L 274.466296 154.11441 
L 274.649447 153.934782 
L 274.759037 153.755154 
L 275.03765 153.395898 
L 275.203704 153.126457 
L 275.409639 152.946829 
L 275.567282 152.407945 
L 275.717521 152.228318 
L 276.25441 150.881109 
L 276.313054 150.611667 
L 276.450807 150.252411 
L 276.717351 149.713528 
L 277.045558 149.444086 
L 277.152329 148.995016 
L 277.243588 148.545947 
L 277.324076 148.186691 
L 277.395331 148.007063 
L 277.572739 147.737622 
L 277.705888 147.46818 
L 278.220074 146.480227 
L 278.385844 146.210785 
L 278.561718 145.582088 
L 278.757906 144.863576 
L 279.005212 144.324693 
L 279.195581 144.145065 
L 279.871144 142.528414 
L 280.132102 142.258973 
L 280.633271 140.82195 
L 280.814602 140.642322 
L 281.012436 139.744183 
L 281.145268 139.384927 
L 281.251611 139.025672 
L 281.605036 138.486788 
L 281.833047 138.30716 
L 282.189908 137.139579 
L 282.403415 136.959952 
L 282.468189 136.600696 
L 282.669452 136.331254 
L 282.804588 135.702557 
L 282.973647 135.073859 
L 283.13971 134.804418 
L 283.511119 134.534976 
L 283.549051 134.445162 
L 284.456985 134.265534 
L 284.579976 133.906278 
L 284.879629 132.289628 
L 286.308228 128.517443 
L 286.551818 128.248002 
L 286.818006 127.439676 
L 286.945541 126.900793 
L 287.152396 126.092468 
L 287.293176 125.823026 
L 287.439628 125.373956 
L 287.616991 124.565631 
L 288.055557 123.577678 
L 288.378623 122.769353 
L 288.578587 122.230469 
L 289.273687 119.895307 
L 289.394247 119.715679 
L 289.484775 119.356424 
L 289.721464 119.086982 
L 289.825874 118.637912 
L 290.083429 118.278657 
L 290.088096 118.188843 
L 290.263422 118.009215 
L 290.426849 117.649959 
L 291.304686 115.584239 
L 291.428727 114.955542 
L 291.778121 114.596286 
L 292.08505 114.23703 
L 292.085383 114.147217 
L 292.357381 113.967589 
L 292.504391 113.518519 
L 292.677106 113.06945 
L 292.799371 112.800008 
L 292.942449 112.440752 
L 293.04328 111.991682 
L 293.352333 111.452799 
L 293.415588 111.273171 
L 293.55365 110.913915 
L 293.666637 110.644474 
L 293.931677 109.836148 
L 294.081558 109.656521 
L 295.316984 107.231545 
L 295.520575 106.513034 
L 296.787145 103.369546 
L 297.043087 103.100105 
L 297.689331 101.663082 
L 297.891362 101.483454 
L 298.181624 100.854757 
L 298.377365 100.226059 
L 298.572562 99.956618 
L 298.655287 99.687176 
L 298.817101 99.238106 
L 298.869365 98.968664 
L 299.210828 98.789037 
L 299.536226 98.070525 
L 299.683713 97.890897 
L 299.771697 97.71127 
L 299.967322 97.352014 
L 300.116237 96.992758 
L 300.543365 95.914991 
L 300.637384 95.64555 
L 301.249363 94.927038 
L 301.743894 93.579829 
L 302.153969 92.771504 
L 302.359186 92.412248 
L 302.450559 92.232621 
L 302.704581 90.795598 
L 302.905085 90.346528 
L 303.00719 89.987273 
L 303.890437 88.10118 
L 304.2713 86.9336 
L 304.41429 86.664158 
L 304.481599 86.48453 
L 304.915848 85.945646 
L 305.250868 85.227135 
L 305.440265 84.867879 
L 305.652109 84.508624 
L 305.863588 84.328996 
L 305.9213 84.149368 
L 306.261257 83.879926 
L 306.371925 83.700299 
L 306.442621 83.430857 
L 307.455755 81.095695 
L 307.75883 80.826253 
L 307.799366 80.736439 
L 308.262304 80.466997 
L 308.442829 80.197556 
L 308.447704 80.017928 
L 308.77408 79.748486 
L 308.87639 79.38923 
L 309.115506 78.850347 
L 309.163716 78.670719 
L 309.42261 78.491091 
L 309.657307 78.131836 
L 309.720868 77.952208 
L 309.998348 77.682766 
L 310.126721 77.233696 
L 310.396647 76.964255 
L 310.839285 76.784627 
L 311.065622 76.515185 
L 311.259404 75.976302 
L 311.570802 75.617046 
L 311.660886 75.437418 
L 311.73582 75.167976 
L 312.203211 74.269837 
L 312.496852 73.551326 
L 313.275634 72.743001 
L 313.408995 72.293931 
L 313.618986 72.024489 
L 313.689364 71.665234 
L 313.831721 71.485606 
L 313.936222 71.216164 
L 314.248984 71.036536 
L 314.295844 70.856908 
L 314.545225 70.587467 
L 315.228305 70.407839 
L 315.426273 70.228211 
L 315.47589 69.958769 
L 315.756325 69.779141 
L 316.238811 68.970816 
L 316.811676 68.61156 
L 317.469882 68.072677 
L 317.588725 67.893049 
L 318.010193 67.354166 
L 318.067661 67.264352 
L 318.592556 66.99491 
L 318.665175 66.815282 
L 318.959498 66.54584 
L 319.25281 66.096771 
L 319.660624 65.647701 
L 319.677573 65.557887 
L 320.060058 65.288445 
L 320.183405 65.019004 
L 321.092573 63.851423 
L 321.660116 63.581981 
L 321.961686 63.402353 
L 322.452616 63.222725 
L 323.136818 62.683842 
L 323.137845 62.594028 
L 323.513215 62.4144 
L 324.006818 62.055144 
L 324.499115 61.785703 
L 324.500056 61.695889 
L 324.660136 61.606075 
L 325.509075 61.336633 
L 325.726136 60.977377 
L 325.897735 60.79775 
L 326.064886 60.528308 
L 326.227493 60.34868 
L 326.733764 60.169052 
L 327.713927 59.630169 
L 327.830154 59.181099 
L 327.849388 59.091285 
L 328.50081 58.821843 
L 329.012604 58.462588 
L 329.190853 58.28296 
L 329.461922 58.103332 
L 329.684044 57.744076 
L 330.170022 57.474635 
L 330.350153 57.205193 
L 330.521914 56.935751 
L 330.874442 56.666309 
L 330.992109 56.21724 
L 331.240147 55.947798 
L 331.26508 55.857984 
L 331.836396 55.678356 
L 331.89539 55.498728 
L 332.239316 55.319101 
L 332.370461 54.959845 
L 332.55378 54.780217 
L 332.615458 54.690403 
L 334.288054 54.331148 
L 334.856554 54.15152 
L 336.074231 53.971892 
L 337.287548 53.70245 
L 339.609286 53.253381 
L 339.70736 53.073753 
L 340.136793 52.894125 
L 340.464738 52.714497 
L 342.709251 52.445055 
L 342.734381 52.355241 
L 344.404136 52.0858 
L 344.478075 51.995986 
L 345.921606 51.546916 
L 347.940903 51.18766 
L 348.289477 51.008033 
L 354.95879 50.289521 
L 355.878759 50.109893 
L 359.775644 49.930266 
L 370.748719 49.12194 
L 374.444764 48.942312 
L 375.152703 48.852499 
L 380.643532 48.672871 
L 381.559929 48.583057 
L 388.25801 48.403429 
L 388.871873 48.313615 
L 452.170265 47.954359 
L 474.719091 47.864545 
L 474.719091 47.864545 
" clip-path="url(#p07ffba3ada)" style="fill: none; stroke: #4d3c2f; stroke-width: 2.25; stroke-linecap: round"/>
   </g>
   <g id="patch_3">
    <path d="M 63.94 224.78 
L 63.94 39.44 
" style="fill: none; stroke: #ffffff; stroke-width: 1.875; stroke-linejoin: miter; stroke-linecap: square"/>
   </g>
   <g id="patch_4">
    <path d="M 494.28 224.78 
L 494.28 39.44 
" style="fill: none; stroke: #ffffff; stroke-width: 1.875; stroke-linejoin: miter; stroke-linecap: square"/>
   </g>
   <g id="patch_5">
    <path d="M 63.94 224.78 
L 494.28 224.78 
" style="fill: none; stroke: #ffffff; stroke-width: 1.875; stroke-linejoin: miter; stroke-linecap: square"/>
   </g>
   <g id="patch_6">
    <path d="M 63.94 39.44 
L 494.28 39.44 
" style="fill: none; stroke: #ffffff; stroke-width: 1.875; stroke-linejoin: miter; stroke-linecap: square"/>
   </g>
   <g id="text_13">
    <!-- HeatingOil -->
    <g style="fill: #262626" transform="translate(237.09125 33.44)scale(0.18 -0.18)">
     <defs>
      <path id="ArialMT-48" d="M 513 0 
L 513 4581 
L 1119 4581 
L 1119 2700 
L 3500 2700 
L 3500 4581 
L 4106 4581 
L 4106 0 
L 3500 0 
L 3500 2159 
L 1119 2159 
L 1119 0 
L 513 0 
z
" transform="scale(0.015625)"/>
      <path id="ArialMT-65" d="M 2694 1069 
L 3275 997 
Q 3138 488 2766 206 
Q 2394 -75 1816 -75 
Q 1088 -75 661 373 
Q 234 822 234 1631 
Q 234 2469 665 2931 
Q 1097 3394 1784 3394 
Q 2450 3394 2872 2941 
Q 3294 2488 3294 1666 
Q 3294 1616 3291 1516 
L 816 1516 
Q 847 969 1125 678 
Q 1403 388 1819 388 
Q 2128 388 2347 550 
Q 2566 713 2694 1069 
z
M 847 1978 
L 2700 1978 
Q 2663 2397 2488 2606 
Q 2219 2931 1791 2931 
Q 1403 2931 1139 2672 
Q 875 2413 847 1978 
z
" transform="scale(0.015625)"/>
      <path id="ArialMT-61" d="M 2588 409 
Q 2275 144 1986 34 
Q 1697 -75 1366 -75 
Q 819 -75 525 192 
Q 231 459 231 875 
Q 231 1119 342 1320 
Q 453 1522 633 1644 
Q 813 1766 1038 1828 
Q 1203 1872 1538 1913 
Q 2219 1994 2541 2106 
Q 2544 2222 2544 2253 
Q 2544 2597 2384 2738 
Q 2169 2928 1744 2928 
Q 1347 2928 1158 2789 
Q 969 2650 878 2297 
L 328 2372 
Q 403 2725 575 2942 
Q 747 3159 1072 3276 
Q 1397 3394 1825 3394 
Q 2250 3394 2515 3294 
Q 2781 3194 2906 3042 
Q 3031 2891 3081 2659 
Q 3109 2516 3109 2141 
L 3109 1391 
Q 3109 606 3145 398 
Q 3181 191 3288 0 
L 2700 0 
Q 2613 175 2588 409 
z
M 2541 1666 
Q 2234 1541 1622 1453 
Q 1275 1403 1131 1340 
Q 988 1278 909 1158 
Q 831 1038 831 891 
Q 831 666 1001 516 
Q 1172 366 1500 366 
Q 1825 366 2078 508 
Q 2331 650 2450 897 
Q 2541 1088 2541 1459 
L 2541 1666 
z
" transform="scale(0.015625)"/>
      <path id="ArialMT-74" d="M 1650 503 
L 1731 6 
Q 1494 -44 1306 -44 
Q 1000 -44 831 53 
Q 663 150 594 308 
Q 525 466 525 972 
L 525 2881 
L 113 2881 
L 113 3319 
L 525 3319 
L 525 4141 
L 1084 4478 
L 1084 3319 
L 1650 3319 
L 1650 2881 
L 1084 2881 
L 1084 941 
Q 1084 700 1114 631 
Q 1144 563 1211 522 
Q 1278 481 1403 481 
Q 1497 481 1650 503 
z
" transform="scale(0.015625)"/>
      <path id="ArialMT-69" d="M 425 3934 
L 425 4581 
L 988 4581 
L 988 3934 
L 425 3934 
z
M 425 0 
L 425 3319 
L 988 3319 
L 988 0 
L 425 0 
z
" transform="scale(0.015625)"/>
      <path id="ArialMT-6e" d="M 422 0 
L 422 3319 
L 928 3319 
L 928 2847 
Q 1294 3394 1984 3394 
Q 2284 3394 2536 3286 
Q 2788 3178 2913 3003 
Q 3038 2828 3088 2588 
Q 3119 2431 3119 2041 
L 3119 0 
L 2556 0 
L 2556 2019 
Q 2556 2363 2490 2533 
Q 2425 2703 2258 2804 
Q 2091 2906 1866 2906 
Q 1506 2906 1245 2678 
Q 984 2450 984 1813 
L 984 0 
L 422 0 
z
" transform="scale(0.015625)"/>
      <path id="ArialMT-67" d="M 319 -275 
L 866 -356 
Q 900 -609 1056 -725 
Q 1266 -881 1628 -881 
Q 2019 -881 2231 -725 
Q 2444 -569 2519 -288 
Q 2563 -116 2559 434 
Q 2191 0 1641 0 
Q 956 0 581 494 
Q 206 988 206 1678 
Q 206 2153 378 2554 
Q 550 2956 876 3175 
Q 1203 3394 1644 3394 
Q 2231 3394 2613 2919 
L 2613 3319 
L 3131 3319 
L 3131 450 
Q 3131 -325 2973 -648 
Q 2816 -972 2473 -1159 
Q 2131 -1347 1631 -1347 
Q 1038 -1347 672 -1080 
Q 306 -813 319 -275 
z
M 784 1719 
Q 784 1066 1043 766 
Q 1303 466 1694 466 
Q 2081 466 2343 764 
Q 2606 1063 2606 1700 
Q 2606 2309 2336 2618 
Q 2066 2928 1684 2928 
Q 1309 2928 1046 2623 
Q 784 2319 784 1719 
z
" transform="scale(0.015625)"/>
      <path id="ArialMT-4f" d="M 309 2231 
Q 309 3372 921 4017 
Q 1534 4663 2503 4663 
Q 3138 4663 3647 4359 
Q 4156 4056 4423 3514 
Q 4691 2972 4691 2284 
Q 4691 1588 4409 1038 
Q 4128 488 3612 205 
Q 3097 -78 2500 -78 
Q 1853 -78 1343 234 
Q 834 547 571 1087 
Q 309 1628 309 2231 
z
M 934 2222 
Q 934 1394 1379 917 
Q 1825 441 2497 441 
Q 3181 441 3623 922 
Q 4066 1403 4066 2288 
Q 4066 2847 3877 3264 
Q 3688 3681 3323 3911 
Q 2959 4141 2506 4141 
Q 1863 4141 1398 3698 
Q 934 3256 934 2222 
z
" transform="scale(0.015625)"/>
      <path id="ArialMT-6c" d="M 409 0 
L 409 4581 
L 972 4581 
L 972 0 
L 409 0 
z
" transform="scale(0.015625)"/>
     </defs>
     <use xlink:href="#ArialMT-48"/>
     <use xlink:href="#ArialMT-65" x="72.216797"/>
     <use xlink:href="#ArialMT-61" x="127.832031"/>
     <use xlink:href="#ArialMT-74" x="183.447266"/>
     <use xlink:href="#ArialMT-69" x="211.230469"/>
     <use xlink:href="#ArialMT-6e" x="233.447266"/>
     <use xlink:href="#ArialMT-67" x="289.0625"/>
     <use xlink:href="#ArialMT-4f" x="344.677734"/>
     <use xlink:href="#ArialMT-69" x="422.460938"/>
     <use xlink:href="#ArialMT-6c" x="444.677734"/>
    </g>
   </g>
  </g>
  <g id="axes_2">
   <g id="patch_7">
    <path d="M 558.22 224.78 
L 988.56 224.78 
L 988.56 39.44 
L 558.22 39.44 
z
" style="fill: #e5e5e5"/>
   </g>
   <g id="matplotlib.axis_3">
    <g id="xtick_8">
     <g id="line2d_14">
      <path d="M 571.94793 224.78 
L 571.94793 39.44 
" clip-path="url(#p6c2e0cea58)" style="fill: none; stroke: #ffffff; stroke-width: 1.5; stroke-linecap: round"/>
     </g>
     <g id="text_14">
      <!-- −8 -->
      <g style="fill: #555555" transform="translate(562.541641 249.090391)scale(0.165 -0.165)">
       <defs>
        <path id="ArialMT-38" d="M 1131 2484 
Q 781 2613 612 2850 
Q 444 3088 444 3419 
Q 444 3919 803 4259 
Q 1163 4600 1759 4600 
Q 2359 4600 2725 4251 
Q 3091 3903 3091 3403 
Q 3091 3084 2923 2848 
Q 2756 2613 2416 2484 
Q 2838 2347 3058 2040 
Q 3278 1734 3278 1309 
Q 3278 722 2862 322 
Q 2447 -78 1769 -78 
Q 1091 -78 675 323 
Q 259 725 259 1325 
Q 259 1772 486 2073 
Q 713 2375 1131 2484 
z
M 1019 3438 
Q 1019 3113 1228 2906 
Q 1438 2700 1772 2700 
Q 2097 2700 2305 2904 
Q 2513 3109 2513 3406 
Q 2513 3716 2298 3927 
Q 2084 4138 1766 4138 
Q 1444 4138 1231 3931 
Q 1019 3725 1019 3438 
z
M 838 1322 
Q 838 1081 952 856 
Q 1066 631 1291 507 
Q 1516 384 1775 384 
Q 2178 384 2440 643 
Q 2703 903 2703 1303 
Q 2703 1709 2433 1975 
Q 2163 2241 1756 2241 
Q 1359 2241 1098 1978 
Q 838 1716 838 1322 
z
" transform="scale(0.015625)"/>
       </defs>
       <use xlink:href="#ArialMT-2212"/>
       <use xlink:href="#ArialMT-38" x="58.398438"/>
      </g>
     </g>
    </g>
    <g id="xtick_9">
     <g id="line2d_15">
      <path d="M 627.250472 224.78 
L 627.250472 39.44 
" clip-path="url(#p6c2e0cea58)" style="fill: none; stroke: #ffffff; stroke-width: 1.5; stroke-linecap: round"/>
     </g>
     <g id="text_15">
      <!-- −6 -->
      <g style="fill: #555555" transform="translate(617.844183 249.090391)scale(0.165 -0.165)">
       <use xlink:href="#ArialMT-2212"/>
       <use xlink:href="#ArialMT-36" x="58.398438"/>
      </g>
     </g>
    </g>
    <g id="xtick_10">
     <g id="line2d_16">
      <path d="M 682.553014 224.78 
L 682.553014 39.44 
" clip-path="url(#p6c2e0cea58)" style="fill: none; stroke: #ffffff; stroke-width: 1.5; stroke-linecap: round"/>
     </g>
     <g id="text_16">
      <!-- −4 -->
      <g style="fill: #555555" transform="translate(673.146725 249.090391)scale(0.165 -0.165)">
       <use xlink:href="#ArialMT-2212"/>
       <use xlink:href="#ArialMT-34" x="58.398438"/>
      </g>
     </g>
    </g>
    <g id="xtick_11">
     <g id="line2d_17">
      <path d="M 737.855556 224.78 
L 737.855556 39.44 
" clip-path="url(#p6c2e0cea58)" style="fill: none; stroke: #ffffff; stroke-width: 1.5; stroke-linecap: round"/>
     </g>
     <g id="text_17">
      <!-- −2 -->
      <g style="fill: #555555" transform="translate(728.449266 249.090391)scale(0.165 -0.165)">
       <use xlink:href="#ArialMT-2212"/>
       <use xlink:href="#ArialMT-32" x="58.398438"/>
      </g>
     </g>
    </g>
    <g id="xtick_12">
     <g id="line2d_18">
      <path d="M 793.158097 224.78 
L 793.158097 39.44 
" clip-path="url(#p6c2e0cea58)" style="fill: none; stroke: #ffffff; stroke-width: 1.5; stroke-linecap: round"/>
     </g>
     <g id="text_18">
      <!-- 0 -->
      <g style="fill: #555555" transform="translate(788.570324 249.090391)scale(0.165 -0.165)">
       <use xlink:href="#ArialMT-30"/>
      </g>
     </g>
    </g>
    <g id="xtick_13">
     <g id="line2d_19">
      <path d="M 848.460639 224.78 
L 848.460639 39.44 
" clip-path="url(#p6c2e0cea58)" style="fill: none; stroke: #ffffff; stroke-width: 1.5; stroke-linecap: round"/>
     </g>
     <g id="text_19">
      <!-- 2 -->
      <g style="fill: #555555" transform="translate(843.872866 249.090391)scale(0.165 -0.165)">
       <use xlink:href="#ArialMT-32"/>
      </g>
     </g>
    </g>
    <g id="xtick_14">
     <g id="line2d_20">
      <path d="M 903.763181 224.78 
L 903.763181 39.44 
" clip-path="url(#p6c2e0cea58)" style="fill: none; stroke: #ffffff; stroke-width: 1.5; stroke-linecap: round"/>
     </g>
     <g id="text_20">
      <!-- 4 -->
      <g style="fill: #555555" transform="translate(899.175408 249.090391)scale(0.165 -0.165)">
       <use xlink:href="#ArialMT-34"/>
      </g>
     </g>
    </g>
    <g id="xtick_15">
     <g id="line2d_21">
      <path d="M 959.065723 224.78 
L 959.065723 39.44 
" clip-path="url(#p6c2e0cea58)" style="fill: none; stroke: #ffffff; stroke-width: 1.5; stroke-linecap: round"/>
     </g>
     <g id="text_21">
      <!-- 6 -->
      <g style="fill: #555555" transform="translate(954.47795 249.090391)scale(0.165 -0.165)">
       <use xlink:href="#ArialMT-36"/>
      </g>
     </g>
    </g>
   </g>
   <g id="matplotlib.axis_4">
    <g id="ytick_6">
     <g id="line2d_22">
      <path d="M 558.22 216.445268 
L 988.56 216.445268 
" clip-path="url(#p6c2e0cea58)" style="fill: none; stroke: #ffffff; stroke-width: 1.5; stroke-linecap: round"/>
     </g>
     <g id="text_22">
      <!-- 0.00 -->
      <g style="fill: #555555" transform="translate(513.609453 222.350464)scale(0.165 -0.165)">
       <use xlink:href="#ArialMT-30"/>
       <use xlink:href="#ArialMT-2e" x="55.615234"/>
       <use xlink:href="#ArialMT-30" x="83.398438"/>
       <use xlink:href="#ArialMT-30" x="139.013672"/>
      </g>
     </g>
    </g>
    <g id="ytick_7">
     <g id="line2d_23">
      <path d="M 558.22 174.300088 
L 988.56 174.300088 
" clip-path="url(#p6c2e0cea58)" style="fill: none; stroke: #ffffff; stroke-width: 1.5; stroke-linecap: round"/>
     </g>
     <g id="text_23">
      <!-- 0.25 -->
      <g style="fill: #555555" transform="translate(513.609453 180.205283)scale(0.165 -0.165)">
       <use xlink:href="#ArialMT-30"/>
       <use xlink:href="#ArialMT-2e" x="55.615234"/>
       <use xlink:href="#ArialMT-32" x="83.398438"/>
       <use xlink:href="#ArialMT-35" x="139.013672"/>
      </g>
     </g>
    </g>
    <g id="ytick_8">
     <g id="line2d_24">
      <path d="M 558.22 132.154907 
L 988.56 132.154907 
" clip-path="url(#p6c2e0cea58)" style="fill: none; stroke: #ffffff; stroke-width: 1.5; stroke-linecap: round"/>
     </g>
     <g id="text_24">
      <!-- 0.50 -->
      <g style="fill: #555555" transform="translate(513.609453 138.060102)scale(0.165 -0.165)">
       <use xlink:href="#ArialMT-30"/>
       <use xlink:href="#ArialMT-2e" x="55.615234"/>
       <use xlink:href="#ArialMT-35" x="83.398438"/>
       <use xlink:href="#ArialMT-30" x="139.013672"/>
      </g>
     </g>
    </g>
    <g id="ytick_9">
     <g id="line2d_25">
      <path d="M 558.22 90.009726 
L 988.56 90.009726 
" clip-path="url(#p6c2e0cea58)" style="fill: none; stroke: #ffffff; stroke-width: 1.5; stroke-linecap: round"/>
     </g>
     <g id="text_25">
      <!-- 0.75 -->
      <g style="fill: #555555" transform="translate(513.609453 95.914922)scale(0.165 -0.165)">
       <use xlink:href="#ArialMT-30"/>
       <use xlink:href="#ArialMT-2e" x="55.615234"/>
       <use xlink:href="#ArialMT-37" x="83.398438"/>
       <use xlink:href="#ArialMT-35" x="139.013672"/>
      </g>
     </g>
    </g>
    <g id="ytick_10">
     <g id="line2d_26">
      <path d="M 558.22 47.864545 
L 988.56 47.864545 
" clip-path="url(#p6c2e0cea58)" style="fill: none; stroke: #ffffff; stroke-width: 1.5; stroke-linecap: round"/>
     </g>
     <g id="text_26">
      <!-- 1.00 -->
      <g style="fill: #555555" transform="translate(513.609453 53.769741)scale(0.165 -0.165)">
       <use xlink:href="#ArialMT-31"/>
       <use xlink:href="#ArialMT-2e" x="55.615234"/>
       <use xlink:href="#ArialMT-30" x="83.398438"/>
       <use xlink:href="#ArialMT-30" x="139.013672"/>
      </g>
     </g>
    </g>
   </g>
   <g id="line2d_27">
    <path d="M 577.780909 216.355455 
L 632.060532 216.175827 
L 681.12482 215.816571 
L 681.686626 215.726757 
L 686.483577 215.547129 
L 690.028411 215.367501 
L 690.140664 215.277688 
L 691.2223 215.187874 
L 705.654023 215.008246 
L 716.021953 214.64899 
L 717.636873 214.469362 
L 720.039874 214.110107 
L 725.642402 213.750851 
L 731.592426 213.211967 
L 732.465913 213.03234 
L 733.328924 212.762898 
L 733.536154 212.673084 
L 734.661929 212.493456 
L 736.563669 212.044387 
L 736.963976 211.685131 
L 737.987536 211.325875 
L 740.503972 211.146247 
L 740.849525 211.056433 
L 741.780268 210.876806 
L 741.795131 210.786992 
L 744.191497 209.619411 
L 744.65435 209.439783 
L 745.129997 208.990713 
L 746.003045 208.631458 
L 746.161987 208.541644 
L 747.029683 208.362016 
L 747.195952 208.182388 
L 747.642487 208.00276 
L 747.96334 207.823132 
L 748.463942 207.374063 
L 749.164571 206.835179 
L 749.716427 206.655551 
L 749.912993 206.38611 
L 750.230628 206.206482 
L 750.407793 206.026854 
L 750.425089 205.93704 
L 751.099936 205.667598 
L 751.211334 205.487971 
L 751.3567 205.218529 
L 751.526908 204.949087 
L 751.537862 204.859273 
L 754.531739 203.512064 
L 754.857266 203.242623 
L 755.457235 202.973181 
L 756.883155 201.446344 
L 757.228762 201.176903 
L 757.595069 200.727833 
L 757.923787 200.458391 
L 758.077353 200.188949 
L 758.152601 199.919508 
L 758.683227 199.73988 
L 758.81595 199.560252 
L 759.378921 199.021368 
L 759.529436 198.662113 
L 759.756965 198.482485 
L 760.067361 198.302857 
L 760.091083 198.213043 
L 760.474863 197.943601 
L 760.547844 197.67416 
L 760.98237 197.494532 
L 760.999107 197.404718 
L 761.551615 197.045462 
L 761.627521 196.776021 
L 762.388871 196.416765 
L 762.861348 195.788067 
L 763.509863 195.60844 
L 763.554958 195.518626 
L 763.835447 195.338998 
L 763.880252 195.15937 
L 764.400925 194.440859 
L 765.022945 193.632533 
L 765.460125 193.273278 
L 765.810604 192.734394 
L 766.150231 192.375139 
L 766.950747 191.117744 
L 766.951316 191.02793 
L 767.469984 190.758488 
L 768.217653 189.590907 
L 768.403953 189.321465 
L 768.40942 189.231651 
L 768.678794 188.96221 
L 769.029859 187.884443 
L 769.275614 187.704815 
L 769.391931 187.435373 
L 769.60408 187.255745 
L 769.666336 187.165931 
L 770.04782 186.89649 
L 771.098122 185.549281 
L 771.340409 185.010397 
L 771.489221 184.83077 
L 771.577115 184.561328 
L 771.768871 184.3817 
L 772.098991 184.022444 
L 772.351296 183.663189 
L 772.355649 183.573375 
L 772.619359 183.303933 
L 772.740916 182.944677 
L 773.47069 181.597469 
L 773.504548 181.328027 
L 773.62885 181.148399 
L 773.745866 180.968771 
L 774.696689 179.172493 
L 774.807631 178.992865 
L 775.0641 178.813237 
L 775.880317 176.927145 
L 776.014046 176.747517 
L 776.118303 176.208633 
L 776.706561 175.579936 
L 776.800352 175.400308 
L 777.331284 174.053099 
L 777.442432 173.693844 
L 777.610414 173.424402 
L 777.805818 172.705891 
L 777.965215 172.436449 
L 778.032128 172.167007 
L 778.27124 171.897565 
L 778.404436 171.53831 
L 778.68367 171.08924 
L 778.874822 170.640171 
L 779.161974 169.831845 
L 779.222783 169.562404 
L 779.559282 169.02352 
L 779.575884 168.843892 
L 779.754214 168.664264 
L 779.940411 168.125381 
L 780.0456 167.945753 
L 780.173902 167.676311 
L 780.595601 165.880033 
L 780.829496 165.520777 
L 783.239034 160.221756 
L 783.458896 159.8625 
L 783.571181 159.593059 
L 784.344099 157.617153 
L 784.500943 157.347711 
L 784.641766 157.168083 
L 784.697767 156.898641 
L 784.87662 156.719013 
L 785.056577 156.449572 
L 785.174556 156.18013 
L 785.194577 155.910688 
L 785.42896 155.551432 
L 785.58699 155.012549 
L 785.730686 154.653293 
L 785.958187 153.934782 
L 786.222804 153.66534 
L 786.351385 153.126457 
L 786.663642 152.857015 
L 787.241985 151.509806 
L 787.354427 151.240364 
L 787.534751 150.521853 
L 787.694002 149.98297 
L 787.976324 149.623714 
L 788.09189 149.174644 
L 788.458099 147.378366 
L 788.576079 147.108924 
L 788.731505 146.480227 
L 788.879996 146.120971 
L 788.995288 145.222832 
L 789.150012 145.043204 
L 789.238325 144.683948 
L 789.390283 144.414507 
L 789.494815 143.965437 
L 789.785757 143.606181 
L 790.171699 141.630275 
L 790.282947 141.450647 
L 790.365787 141.091392 
L 790.483684 140.462694 
L 790.567027 140.283066 
L 791.022285 139.115486 
L 791.119375 138.75623 
L 791.312544 138.217346 
L 791.382793 137.768277 
L 791.479951 137.588649 
L 791.628593 136.959952 
L 791.876268 136.510882 
L 793.633846 130.942419 
L 793.740727 130.672977 
L 794.468088 127.798932 
L 794.678774 127.080421 
L 795.07667 126.272095 
L 795.296934 125.91284 
L 795.477167 125.733212 
L 795.548861 125.46377 
L 795.833844 125.104514 
L 795.876251 124.835073 
L 796.070932 124.475817 
L 796.433282 123.218422 
L 796.536607 122.859167 
L 796.70576 122.410097 
L 796.865359 121.871213 
L 797.050734 121.511958 
L 797.186688 120.88326 
L 797.548732 119.536052 
L 797.629244 119.26661 
L 797.705319 118.907354 
L 797.845253 118.458285 
L 798.041691 117.560145 
L 798.310599 117.021262 
L 798.314987 116.931448 
L 798.573439 116.662006 
L 798.662523 116.392564 
L 798.978151 115.404611 
L 799.22881 114.506472 
L 799.392169 114.147217 
L 799.868426 111.722241 
L 799.989828 111.273171 
L 800.145414 110.734288 
L 800.307446 110.375032 
L 800.754737 108.938009 
L 800.910999 108.578754 
L 801.77155 106.243592 
L 801.862135 105.97415 
L 802.396705 104.088058 
L 802.457435 103.728802 
L 802.649121 103.369546 
L 802.784443 103.100105 
L 803.251355 102.112152 
L 803.373697 101.752896 
L 803.47892 101.303826 
L 803.707617 100.675129 
L 804.131074 99.597362 
L 804.296253 99.238106 
L 804.419697 98.609409 
L 804.694432 98.070525 
L 805.033516 97.2622 
L 805.246608 96.723317 
L 805.474672 96.004805 
L 805.638938 95.825177 
L 806.196741 94.567783 
L 806.325193 94.208527 
L 806.459149 93.939085 
L 807.51534 91.873365 
L 807.749141 91.244668 
L 808.01676 90.975226 
L 808.151115 90.795598 
L 808.669414 89.089134 
L 808.898897 88.909506 
L 809.057748 88.55025 
L 809.263666 88.190994 
L 809.626747 87.652111 
L 809.698399 87.382669 
L 809.917089 87.023413 
L 810.557658 85.406763 
L 810.743884 84.957693 
L 810.86013 84.598438 
L 811.562312 82.263276 
L 811.885966 81.993834 
L 812.270274 81.544764 
L 812.379587 81.365137 
L 812.553849 81.095695 
L 812.637706 80.646625 
L 812.737535 80.466997 
L 812.839865 80.197556 
L 813.01542 79.928114 
L 813.294318 79.479044 
L 813.423055 79.119789 
L 813.477456 78.850347 
L 813.635834 78.670719 
L 813.821178 78.491091 
L 814.129148 78.311463 
L 814.232492 78.131836 
L 814.783004 77.682766 
L 815.034971 77.233696 
L 815.241776 77.054069 
L 815.467327 76.694813 
L 815.532435 76.425371 
L 815.748353 76.066116 
L 815.774756 75.886488 
L 816.129304 75.617046 
L 816.189438 75.25779 
L 816.452609 74.808721 
L 816.482114 74.718907 
L 816.877652 74.539279 
L 817.007324 74.090209 
L 817.042831 73.910582 
L 817.31465 73.64114 
L 817.402841 73.281884 
L 818.717267 70.946722 
L 819.923708 69.779141 
L 820.109217 69.330072 
L 820.27623 68.881002 
L 820.519584 68.521746 
L 820.653202 68.072677 
L 821.057061 67.264352 
L 821.815536 66.186585 
L 821.950631 65.827329 
L 822.252408 65.468073 
L 822.306822 65.108818 
L 822.889088 64.749562 
L 822.898243 64.569934 
L 823.107364 64.390306 
L 823.223427 64.120865 
L 823.990617 63.581981 
L 824.034729 63.402353 
L 824.285149 63.132911 
L 824.305366 63.043097 
L 824.580964 62.773656 
L 824.66241 62.504214 
L 824.788015 62.324586 
L 825.027635 62.055144 
L 825.215344 61.606075 
L 825.667898 61.157005 
L 825.792054 61.067191 
L 826.189325 60.887563 
L 826.302938 60.618122 
L 826.530472 60.34868 
L 826.925043 60.079238 
L 827.165132 59.809796 
L 827.52457 59.450541 
L 827.538342 59.360727 
L 828.309518 58.821843 
L 828.429102 58.462588 
L 829.577903 57.474635 
L 830.430442 57.205193 
L 831.011115 56.666309 
L 831.799929 56.396868 
L 831.916065 56.127426 
L 831.953233 55.947798 
L 834.144388 54.780217 
L 834.677979 54.600589 
L 834.965543 54.420961 
L 835.487054 54.241334 
L 836.026243 54.061706 
L 836.161188 53.792264 
L 836.93332 53.612636 
L 836.998617 53.522822 
L 837.495959 53.253381 
L 838.045977 52.804311 
L 838.126031 52.624683 
L 838.789889 52.445055 
L 838.949073 52.355241 
L 839.469294 52.175613 
L 839.66559 51.995986 
L 840.496359 51.816358 
L 842.94809 50.918219 
L 843.366381 50.648777 
L 844.963049 50.379335 
L 845.003142 50.289521 
L 845.305528 50.109893 
L 845.349006 50.020079 
L 845.624587 49.930266 
L 848.339088 49.660824 
L 859.982789 48.942312 
L 863.81245 48.762685 
L 864.915271 48.583057 
L 866.617699 48.493243 
L 871.095944 48.313615 
L 871.652877 48.223801 
L 891.765765 47.954359 
L 968.999091 47.864545 
L 968.999091 47.864545 
" clip-path="url(#p6c2e0cea58)" style="fill: none; stroke: #c07156; stroke-width: 2.25; stroke-linecap: round"/>
   </g>
   <g id="patch_8">
    <path d="M 558.22 224.78 
L 558.22 39.44 
" style="fill: none; stroke: #ffffff; stroke-width: 1.875; stroke-linejoin: miter; stroke-linecap: square"/>
   </g>
   <g id="patch_9">
    <path d="M 988.56 224.78 
L 988.56 39.44 
" style="fill: none; stroke: #ffffff; stroke-width: 1.875; stroke-linejoin: miter; stroke-linecap: square"/>
   </g>
   <g id="patch_10">
    <path d="M 558.22 224.78 
L 988.56 224.78 
" style="fill: none; stroke: #ffffff; stroke-width: 1.875; stroke-linejoin: miter; stroke-linecap: square"/>
   </g>
   <g id="patch_11">
    <path d="M 558.22 39.44 
L 988.56 39.44 
" style="fill: none; stroke: #ffffff; stroke-width: 1.875; stroke-linejoin: miter; stroke-linecap: square"/>
   </g>
   <g id="text_27">
    <!-- CrudeOil -->
    <g style="fill: #262626" transform="translate(737.879375 33.44)scale(0.18 -0.18)">
     <defs>
      <path id="ArialMT-43" d="M 3763 1606 
L 4369 1453 
Q 4178 706 3683 314 
Q 3188 -78 2472 -78 
Q 1731 -78 1267 223 
Q 803 525 561 1097 
Q 319 1669 319 2325 
Q 319 3041 592 3573 
Q 866 4106 1370 4382 
Q 1875 4659 2481 4659 
Q 3169 4659 3637 4309 
Q 4106 3959 4291 3325 
L 3694 3184 
Q 3534 3684 3231 3912 
Q 2928 4141 2469 4141 
Q 1941 4141 1586 3887 
Q 1231 3634 1087 3207 
Q 944 2781 944 2328 
Q 944 1744 1114 1308 
Q 1284 872 1643 656 
Q 2003 441 2422 441 
Q 2931 441 3284 734 
Q 3638 1028 3763 1606 
z
" transform="scale(0.015625)"/>
      <path id="ArialMT-72" d="M 416 0 
L 416 3319 
L 922 3319 
L 922 2816 
Q 1116 3169 1280 3281 
Q 1444 3394 1641 3394 
Q 1925 3394 2219 3213 
L 2025 2691 
Q 1819 2813 1613 2813 
Q 1428 2813 1281 2702 
Q 1134 2591 1072 2394 
Q 978 2094 978 1738 
L 978 0 
L 416 0 
z
" transform="scale(0.015625)"/>
      <path id="ArialMT-75" d="M 2597 0 
L 2597 488 
Q 2209 -75 1544 -75 
Q 1250 -75 995 37 
Q 741 150 617 320 
Q 494 491 444 738 
Q 409 903 409 1263 
L 409 3319 
L 972 3319 
L 972 1478 
Q 972 1038 1006 884 
Q 1059 663 1231 536 
Q 1403 409 1656 409 
Q 1909 409 2131 539 
Q 2353 669 2445 892 
Q 2538 1116 2538 1541 
L 2538 3319 
L 3100 3319 
L 3100 0 
L 2597 0 
z
" transform="scale(0.015625)"/>
      <path id="ArialMT-64" d="M 2575 0 
L 2575 419 
Q 2259 -75 1647 -75 
Q 1250 -75 917 144 
Q 584 363 401 755 
Q 219 1147 219 1656 
Q 219 2153 384 2558 
Q 550 2963 881 3178 
Q 1213 3394 1622 3394 
Q 1922 3394 2156 3267 
Q 2391 3141 2538 2938 
L 2538 4581 
L 3097 4581 
L 3097 0 
L 2575 0 
z
M 797 1656 
Q 797 1019 1065 703 
Q 1334 388 1700 388 
Q 2069 388 2326 689 
Q 2584 991 2584 1609 
Q 2584 2291 2321 2609 
Q 2059 2928 1675 2928 
Q 1300 2928 1048 2622 
Q 797 2316 797 1656 
z
" transform="scale(0.015625)"/>
     </defs>
     <use xlink:href="#ArialMT-43"/>
     <use xlink:href="#ArialMT-72" x="72.216797"/>
     <use xlink:href="#ArialMT-75" x="105.517578"/>
     <use xlink:href="#ArialMT-64" x="161.132812"/>
     <use xlink:href="#ArialMT-65" x="216.748047"/>
     <use xlink:href="#ArialMT-4f" x="272.363281"/>
     <use xlink:href="#ArialMT-69" x="350.146484"/>
     <use xlink:href="#ArialMT-6c" x="372.363281"/>
    </g>
   </g>
  </g>
  <g id="axes_3">
   <g id="patch_12">
    <path d="M 63.94 457.06 
L 494.28 457.06 
L 494.28 271.72 
L 63.94 271.72 
z
" style="fill: #e5e5e5"/>
   </g>
   <g id="matplotlib.axis_5">
    <g id="xtick_16">
     <g id="line2d_28">
      <path d="M 83.292371 457.06 
L 83.292371 271.72 
" clip-path="url(#pb02018a0e4)" style="fill: none; stroke: #ffffff; stroke-width: 1.5; stroke-linecap: round"/>
     </g>
     <g id="text_28">
      <!-- 0.0 -->
      <g style="fill: #555555" transform="translate(71.824871 481.370391)scale(0.165 -0.165)">
       <use xlink:href="#ArialMT-30"/>
       <use xlink:href="#ArialMT-2e" x="55.615234"/>
       <use xlink:href="#ArialMT-30" x="83.398438"/>
      </g>
     </g>
    </g>
    <g id="xtick_17">
     <g id="line2d_29">
      <path d="M 161.577715 457.06 
L 161.577715 271.72 
" clip-path="url(#pb02018a0e4)" style="fill: none; stroke: #ffffff; stroke-width: 1.5; stroke-linecap: round"/>
     </g>
     <g id="text_29">
      <!-- 0.2 -->
      <g style="fill: #555555" transform="translate(150.110215 481.370391)scale(0.165 -0.165)">
       <use xlink:href="#ArialMT-30"/>
       <use xlink:href="#ArialMT-2e" x="55.615234"/>
       <use xlink:href="#ArialMT-32" x="83.398438"/>
      </g>
     </g>
    </g>
    <g id="xtick_18">
     <g id="line2d_30">
      <path d="M 239.863059 457.06 
L 239.863059 271.72 
" clip-path="url(#pb02018a0e4)" style="fill: none; stroke: #ffffff; stroke-width: 1.5; stroke-linecap: round"/>
     </g>
     <g id="text_30">
      <!-- 0.4 -->
      <g style="fill: #555555" transform="translate(228.395559 481.370391)scale(0.165 -0.165)">
       <use xlink:href="#ArialMT-30"/>
       <use xlink:href="#ArialMT-2e" x="55.615234"/>
       <use xlink:href="#ArialMT-34" x="83.398438"/>
      </g>
     </g>
    </g>
    <g id="xtick_19">
     <g id="line2d_31">
      <path d="M 318.148403 457.06 
L 318.148403 271.72 
" clip-path="url(#pb02018a0e4)" style="fill: none; stroke: #ffffff; stroke-width: 1.5; stroke-linecap: round"/>
     </g>
     <g id="text_31">
      <!-- 0.6 -->
      <g style="fill: #555555" transform="translate(306.680903 481.370391)scale(0.165 -0.165)">
       <use xlink:href="#ArialMT-30"/>
       <use xlink:href="#ArialMT-2e" x="55.615234"/>
       <use xlink:href="#ArialMT-36" x="83.398438"/>
      </g>
     </g>
    </g>
    <g id="xtick_20">
     <g id="line2d_32">
      <path d="M 396.433747 457.06 
L 396.433747 271.72 
" clip-path="url(#pb02018a0e4)" style="fill: none; stroke: #ffffff; stroke-width: 1.5; stroke-linecap: round"/>
     </g>
     <g id="text_32">
      <!-- 0.8 -->
      <g style="fill: #555555" transform="translate(384.966247 481.370391)scale(0.165 -0.165)">
       <use xlink:href="#ArialMT-30"/>
       <use xlink:href="#ArialMT-2e" x="55.615234"/>
       <use xlink:href="#ArialMT-38" x="83.398438"/>
      </g>
     </g>
    </g>
    <g id="xtick_21">
     <g id="line2d_33">
      <path d="M 474.719091 457.06 
L 474.719091 271.72 
" clip-path="url(#pb02018a0e4)" style="fill: none; stroke: #ffffff; stroke-width: 1.5; stroke-linecap: round"/>
     </g>
     <g id="text_33">
      <!-- 1.0 -->
      <g style="fill: #555555" transform="translate(463.251591 481.370391)scale(0.165 -0.165)">
       <use xlink:href="#ArialMT-31"/>
       <use xlink:href="#ArialMT-2e" x="55.615234"/>
       <use xlink:href="#ArialMT-30" x="83.398438"/>
      </g>
     </g>
    </g>
   </g>
   <g id="matplotlib.axis_6">
    <g id="ytick_11">
     <g id="line2d_34">
      <path d="M 63.94 457.06 
L 494.28 457.06 
" clip-path="url(#pb02018a0e4)" style="fill: none; stroke: #ffffff; stroke-width: 1.5; stroke-linecap: round"/>
     </g>
     <g id="text_34">
      <!-- 0.00 -->
      <g style="fill: #555555" transform="translate(19.329453 462.965195)scale(0.165 -0.165)">
       <use xlink:href="#ArialMT-30"/>
       <use xlink:href="#ArialMT-2e" x="55.615234"/>
       <use xlink:href="#ArialMT-30" x="83.398438"/>
       <use xlink:href="#ArialMT-30" x="139.013672"/>
      </g>
     </g>
    </g>
    <g id="ytick_12">
     <g id="line2d_35">
      <path d="M 63.94 413.258307 
L 494.28 413.258307 
" clip-path="url(#pb02018a0e4)" style="fill: none; stroke: #ffffff; stroke-width: 1.5; stroke-linecap: round"/>
     </g>
     <g id="text_35">
      <!-- 0.25 -->
      <g style="fill: #555555" transform="translate(19.329453 419.163502)scale(0.165 -0.165)">
       <use xlink:href="#ArialMT-30"/>
       <use xlink:href="#ArialMT-2e" x="55.615234"/>
       <use xlink:href="#ArialMT-32" x="83.398438"/>
       <use xlink:href="#ArialMT-35" x="139.013672"/>
      </g>
     </g>
    </g>
    <g id="ytick_13">
     <g id="line2d_36">
      <path d="M 63.94 369.456614 
L 494.28 369.456614 
" clip-path="url(#pb02018a0e4)" style="fill: none; stroke: #ffffff; stroke-width: 1.5; stroke-linecap: round"/>
     </g>
     <g id="text_36">
      <!-- 0.50 -->
      <g style="fill: #555555" transform="translate(19.329453 375.361809)scale(0.165 -0.165)">
       <use xlink:href="#ArialMT-30"/>
       <use xlink:href="#ArialMT-2e" x="55.615234"/>
       <use xlink:href="#ArialMT-35" x="83.398438"/>
       <use xlink:href="#ArialMT-30" x="139.013672"/>
      </g>
     </g>
    </g>
    <g id="ytick_14">
     <g id="line2d_37">
      <path d="M 63.94 325.654921 
L 494.28 325.654921 
" clip-path="url(#pb02018a0e4)" style="fill: none; stroke: #ffffff; stroke-width: 1.5; stroke-linecap: round"/>
     </g>
     <g id="text_37">
      <!-- 0.75 -->
      <g style="fill: #555555" transform="translate(19.329453 331.560116)scale(0.165 -0.165)">
       <use xlink:href="#ArialMT-30"/>
       <use xlink:href="#ArialMT-2e" x="55.615234"/>
       <use xlink:href="#ArialMT-37" x="83.398438"/>
       <use xlink:href="#ArialMT-35" x="139.013672"/>
      </g>
     </g>
    </g>
    <g id="ytick_15">
     <g id="line2d_38">
      <path d="M 63.94 281.853228 
L 494.28 281.853228 
" clip-path="url(#pb02018a0e4)" style="fill: none; stroke: #ffffff; stroke-width: 1.5; stroke-linecap: round"/>
     </g>
     <g id="text_38">
      <!-- 1.00 -->
      <g style="fill: #555555" transform="translate(19.329453 287.758423)scale(0.165 -0.165)">
       <use xlink:href="#ArialMT-31"/>
       <use xlink:href="#ArialMT-2e" x="55.615234"/>
       <use xlink:href="#ArialMT-30" x="83.398438"/>
       <use xlink:href="#ArialMT-30" x="139.013672"/>
      </g>
     </g>
    </g>
   </g>
   <g id="patch_13">
    <path d="M 83.500909 457.06 
L 96.541515 457.06 
L 96.541515 280.545714 
L 83.500909 280.545714 
z
" clip-path="url(#pb02018a0e4)" style="fill: #4d3c2f; stroke: #eeeeee; stroke-width: 1.5; stroke-linejoin: miter"/>
   </g>
   <g id="patch_14">
    <path d="M 96.541515 457.06 
L 109.582121 457.06 
L 109.582121 280.545714 
L 96.541515 280.545714 
z
" clip-path="url(#pb02018a0e4)" style="fill: #4d3c2f; stroke: #eeeeee; stroke-width: 1.5; stroke-linejoin: miter"/>
   </g>
   <g id="patch_15">
    <path d="M 109.582121 457.06 
L 122.622727 457.06 
L 122.622727 283.347528 
L 109.582121 283.347528 
z
" clip-path="url(#pb02018a0e4)" style="fill: #4d3c2f; stroke: #eeeeee; stroke-width: 1.5; stroke-linejoin: miter"/>
   </g>
   <g id="patch_16">
    <path d="M 122.622727 457.06 
L 135.663333 457.06 
L 135.663333 280.545714 
L 122.622727 280.545714 
z
" clip-path="url(#pb02018a0e4)" style="fill: #4d3c2f; stroke: #eeeeee; stroke-width: 1.5; stroke-linejoin: miter"/>
   </g>
   <g id="patch_17">
    <path d="M 135.663333 457.06 
L 148.703939 457.06 
L 148.703939 283.347528 
L 135.663333 283.347528 
z
" clip-path="url(#pb02018a0e4)" style="fill: #4d3c2f; stroke: #eeeeee; stroke-width: 1.5; stroke-linejoin: miter"/>
   </g>
   <g id="patch_18">
    <path d="M 148.703939 457.06 
L 161.744545 457.06 
L 161.744545 280.545714 
L 148.703939 280.545714 
z
" clip-path="url(#pb02018a0e4)" style="fill: #4d3c2f; stroke: #eeeeee; stroke-width: 1.5; stroke-linejoin: miter"/>
   </g>
   <g id="patch_19">
    <path d="M 161.744545 457.06 
L 174.785152 457.06 
L 174.785152 283.347528 
L 161.744545 283.347528 
z
" clip-path="url(#pb02018a0e4)" style="fill: #4d3c2f; stroke: #eeeeee; stroke-width: 1.5; stroke-linejoin: miter"/>
   </g>
   <g id="patch_20">
    <path d="M 174.785152 457.06 
L 187.825758 457.06 
L 187.825758 280.545714 
L 174.785152 280.545714 
z
" clip-path="url(#pb02018a0e4)" style="fill: #4d3c2f; stroke: #eeeeee; stroke-width: 1.5; stroke-linejoin: miter"/>
   </g>
   <g id="patch_21">
    <path d="M 187.825758 457.06 
L 200.866364 457.06 
L 200.866364 283.347528 
L 187.825758 283.347528 
z
" clip-path="url(#pb02018a0e4)" style="fill: #4d3c2f; stroke: #eeeeee; stroke-width: 1.5; stroke-linejoin: miter"/>
   </g>
   <g id="patch_22">
    <path d="M 200.866364 457.06 
L 213.90697 457.06 
L 213.90697 280.545714 
L 200.866364 280.545714 
z
" clip-path="url(#pb02018a0e4)" style="fill: #4d3c2f; stroke: #eeeeee; stroke-width: 1.5; stroke-linejoin: miter"/>
   </g>
   <g id="patch_23">
    <path d="M 213.90697 457.06 
L 226.947576 457.06 
L 226.947576 283.347528 
L 213.90697 283.347528 
z
" clip-path="url(#pb02018a0e4)" style="fill: #4d3c2f; stroke: #eeeeee; stroke-width: 1.5; stroke-linejoin: miter"/>
   </g>
   <g id="patch_24">
    <path d="M 226.947576 457.06 
L 239.988182 457.06 
L 239.988182 280.545714 
L 226.947576 280.545714 
z
" clip-path="url(#pb02018a0e4)" style="fill: #4d3c2f; stroke: #eeeeee; stroke-width: 1.5; stroke-linejoin: miter"/>
   </g>
   <g id="patch_25">
    <path d="M 239.988182 457.06 
L 253.028788 457.06 
L 253.028788 283.347528 
L 239.988182 283.347528 
z
" clip-path="url(#pb02018a0e4)" style="fill: #4d3c2f; stroke: #eeeeee; stroke-width: 1.5; stroke-linejoin: miter"/>
   </g>
   <g id="patch_26">
    <path d="M 253.028788 457.06 
L 266.069394 457.06 
L 266.069394 280.545714 
L 253.028788 280.545714 
z
" clip-path="url(#pb02018a0e4)" style="fill: #4d3c2f; stroke: #eeeeee; stroke-width: 1.5; stroke-linejoin: miter"/>
   </g>
   <g id="patch_27">
    <path d="M 266.069394 457.06 
L 279.11 457.06 
L 279.11 280.545714 
L 266.069394 280.545714 
z
" clip-path="url(#pb02018a0e4)" style="fill: #4d3c2f; stroke: #eeeeee; stroke-width: 1.5; stroke-linejoin: miter"/>
   </g>
   <g id="patch_28">
    <path d="M 279.11 457.06 
L 292.150606 457.06 
L 292.150606 283.347528 
L 279.11 283.347528 
z
" clip-path="url(#pb02018a0e4)" style="fill: #4d3c2f; stroke: #eeeeee; stroke-width: 1.5; stroke-linejoin: miter"/>
   </g>
   <g id="patch_29">
    <path d="M 292.150606 457.06 
L 305.191212 457.06 
L 305.191212 280.545714 
L 292.150606 280.545714 
z
" clip-path="url(#pb02018a0e4)" style="fill: #4d3c2f; stroke: #eeeeee; stroke-width: 1.5; stroke-linejoin: miter"/>
   </g>
   <g id="patch_30">
    <path d="M 305.191212 457.06 
L 318.231818 457.06 
L 318.231818 283.347528 
L 305.191212 283.347528 
z
" clip-path="url(#pb02018a0e4)" style="fill: #4d3c2f; stroke: #eeeeee; stroke-width: 1.5; stroke-linejoin: miter"/>
   </g>
   <g id="patch_31">
    <path d="M 318.231818 457.06 
L 331.272424 457.06 
L 331.272424 280.545714 
L 318.231818 280.545714 
z
" clip-path="url(#pb02018a0e4)" style="fill: #4d3c2f; stroke: #eeeeee; stroke-width: 1.5; stroke-linejoin: miter"/>
   </g>
   <g id="patch_32">
    <path d="M 331.272424 457.06 
L 344.31303 457.06 
L 344.31303 283.347528 
L 331.272424 283.347528 
z
" clip-path="url(#pb02018a0e4)" style="fill: #4d3c2f; stroke: #eeeeee; stroke-width: 1.5; stroke-linejoin: miter"/>
   </g>
   <g id="patch_33">
    <path d="M 344.31303 457.06 
L 357.353636 457.06 
L 357.353636 280.545714 
L 344.31303 280.545714 
z
" clip-path="url(#pb02018a0e4)" style="fill: #4d3c2f; stroke: #eeeeee; stroke-width: 1.5; stroke-linejoin: miter"/>
   </g>
   <g id="patch_34">
    <path d="M 357.353636 457.06 
L 370.394242 457.06 
L 370.394242 283.347528 
L 357.353636 283.347528 
z
" clip-path="url(#pb02018a0e4)" style="fill: #4d3c2f; stroke: #eeeeee; stroke-width: 1.5; stroke-linejoin: miter"/>
   </g>
   <g id="patch_35">
    <path d="M 370.394242 457.06 
L 383.434848 457.06 
L 383.434848 280.545714 
L 370.394242 280.545714 
z
" clip-path="url(#pb02018a0e4)" style="fill: #4d3c2f; stroke: #eeeeee; stroke-width: 1.5; stroke-linejoin: miter"/>
   </g>
   <g id="patch_36">
    <path d="M 383.434848 457.06 
L 396.475455 457.06 
L 396.475455 283.347528 
L 383.434848 283.347528 
z
" clip-path="url(#pb02018a0e4)" style="fill: #4d3c2f; stroke: #eeeeee; stroke-width: 1.5; stroke-linejoin: miter"/>
   </g>
   <g id="patch_37">
    <path d="M 396.475455 457.06 
L 409.516061 457.06 
L 409.516061 280.545714 
L 396.475455 280.545714 
z
" clip-path="url(#pb02018a0e4)" style="fill: #4d3c2f; stroke: #eeeeee; stroke-width: 1.5; stroke-linejoin: miter"/>
   </g>
   <g id="patch_38">
    <path d="M 409.516061 457.06 
L 422.556667 457.06 
L 422.556667 283.347528 
L 409.516061 283.347528 
z
" clip-path="url(#pb02018a0e4)" style="fill: #4d3c2f; stroke: #eeeeee; stroke-width: 1.5; stroke-linejoin: miter"/>
   </g>
   <g id="patch_39">
    <path d="M 422.556667 457.06 
L 435.597273 457.06 
L 435.597273 280.545714 
L 422.556667 280.545714 
z
" clip-path="url(#pb02018a0e4)" style="fill: #4d3c2f; stroke: #eeeeee; stroke-width: 1.5; stroke-linejoin: miter"/>
   </g>
   <g id="patch_40">
    <path d="M 435.597273 457.06 
L 448.637879 457.06 
L 448.637879 283.347528 
L 435.597273 283.347528 
z
" clip-path="url(#pb02018a0e4)" style="fill: #4d3c2f; stroke: #eeeeee; stroke-width: 1.5; stroke-linejoin: miter"/>
   </g>
   <g id="patch_41">
    <path d="M 448.637879 457.06 
L 461.678485 457.06 
L 461.678485 280.545714 
L 448.637879 280.545714 
z
" clip-path="url(#pb02018a0e4)" style="fill: #4d3c2f; stroke: #eeeeee; stroke-width: 1.5; stroke-linejoin: miter"/>
   </g>
   <g id="patch_42">
    <path d="M 461.678485 457.06 
L 474.719091 457.06 
L 474.719091 280.545714 
L 461.678485 280.545714 
z
" clip-path="url(#pb02018a0e4)" style="fill: #4d3c2f; stroke: #eeeeee; stroke-width: 1.5; stroke-linejoin: miter"/>
   </g>
   <g id="patch_43">
    <path d="M 63.94 457.06 
L 63.94 271.72 
" style="fill: none; stroke: #ffffff; stroke-width: 1.875; stroke-linejoin: miter; stroke-linecap: square"/>
   </g>
   <g id="patch_44">
    <path d="M 494.28 457.06 
L 494.28 271.72 
" style="fill: none; stroke: #ffffff; stroke-width: 1.875; stroke-linejoin: miter; stroke-linecap: square"/>
   </g>
   <g id="patch_45">
    <path d="M 63.94 457.06 
L 494.28 457.06 
" style="fill: none; stroke: #ffffff; stroke-width: 1.875; stroke-linejoin: miter; stroke-linecap: square"/>
   </g>
   <g id="patch_46">
    <path d="M 63.94 271.72 
L 494.28 271.72 
" style="fill: none; stroke: #ffffff; stroke-width: 1.875; stroke-linejoin: miter; stroke-linecap: square"/>
   </g>
  </g>
  <g id="axes_4">
   <g id="patch_47">
    <path d="M 558.22 457.06 
L 988.56 457.06 
L 988.56 271.72 
L 558.22 271.72 
z
" style="fill: #e5e5e5"/>
   </g>
   <g id="matplotlib.axis_7">
    <g id="xtick_22">
     <g id="line2d_39">
      <path d="M 577.572371 457.06 
L 577.572371 271.72 
" clip-path="url(#pa43cc0f330)" style="fill: none; stroke: #ffffff; stroke-width: 1.5; stroke-linecap: round"/>
     </g>
     <g id="text_39">
      <!-- 0.0 -->
      <g style="fill: #555555" transform="translate(566.104871 481.370391)scale(0.165 -0.165)">
       <use xlink:href="#ArialMT-30"/>
       <use xlink:href="#ArialMT-2e" x="55.615234"/>
       <use xlink:href="#ArialMT-30" x="83.398438"/>
      </g>
     </g>
    </g>
    <g id="xtick_23">
     <g id="line2d_40">
      <path d="M 655.857715 457.06 
L 655.857715 271.72 
" clip-path="url(#pa43cc0f330)" style="fill: none; stroke: #ffffff; stroke-width: 1.5; stroke-linecap: round"/>
     </g>
     <g id="text_40">
      <!-- 0.2 -->
      <g style="fill: #555555" transform="translate(644.390215 481.370391)scale(0.165 -0.165)">
       <use xlink:href="#ArialMT-30"/>
       <use xlink:href="#ArialMT-2e" x="55.615234"/>
       <use xlink:href="#ArialMT-32" x="83.398438"/>
      </g>
     </g>
    </g>
    <g id="xtick_24">
     <g id="line2d_41">
      <path d="M 734.143059 457.06 
L 734.143059 271.72 
" clip-path="url(#pa43cc0f330)" style="fill: none; stroke: #ffffff; stroke-width: 1.5; stroke-linecap: round"/>
     </g>
     <g id="text_41">
      <!-- 0.4 -->
      <g style="fill: #555555" transform="translate(722.675559 481.370391)scale(0.165 -0.165)">
       <use xlink:href="#ArialMT-30"/>
       <use xlink:href="#ArialMT-2e" x="55.615234"/>
       <use xlink:href="#ArialMT-34" x="83.398438"/>
      </g>
     </g>
    </g>
    <g id="xtick_25">
     <g id="line2d_42">
      <path d="M 812.428403 457.06 
L 812.428403 271.72 
" clip-path="url(#pa43cc0f330)" style="fill: none; stroke: #ffffff; stroke-width: 1.5; stroke-linecap: round"/>
     </g>
     <g id="text_42">
      <!-- 0.6 -->
      <g style="fill: #555555" transform="translate(800.960903 481.370391)scale(0.165 -0.165)">
       <use xlink:href="#ArialMT-30"/>
       <use xlink:href="#ArialMT-2e" x="55.615234"/>
       <use xlink:href="#ArialMT-36" x="83.398438"/>
      </g>
     </g>
    </g>
    <g id="xtick_26">
     <g id="line2d_43">
      <path d="M 890.713747 457.06 
L 890.713747 271.72 
" clip-path="url(#pa43cc0f330)" style="fill: none; stroke: #ffffff; stroke-width: 1.5; stroke-linecap: round"/>
     </g>
     <g id="text_43">
      <!-- 0.8 -->
      <g style="fill: #555555" transform="translate(879.246247 481.370391)scale(0.165 -0.165)">
       <use xlink:href="#ArialMT-30"/>
       <use xlink:href="#ArialMT-2e" x="55.615234"/>
       <use xlink:href="#ArialMT-38" x="83.398438"/>
      </g>
     </g>
    </g>
    <g id="xtick_27">
     <g id="line2d_44">
      <path d="M 968.999091 457.06 
L 968.999091 271.72 
" clip-path="url(#pa43cc0f330)" style="fill: none; stroke: #ffffff; stroke-width: 1.5; stroke-linecap: round"/>
     </g>
     <g id="text_44">
      <!-- 1.0 -->
      <g style="fill: #555555" transform="translate(957.531591 481.370391)scale(0.165 -0.165)">
       <use xlink:href="#ArialMT-31"/>
       <use xlink:href="#ArialMT-2e" x="55.615234"/>
       <use xlink:href="#ArialMT-30" x="83.398438"/>
      </g>
     </g>
    </g>
   </g>
   <g id="matplotlib.axis_8">
    <g id="ytick_16">
     <g id="line2d_45">
      <path d="M 558.22 457.06 
L 988.56 457.06 
" clip-path="url(#pa43cc0f330)" style="fill: none; stroke: #ffffff; stroke-width: 1.5; stroke-linecap: round"/>
     </g>
     <g id="text_45">
      <!-- 0.00 -->
      <g style="fill: #555555" transform="translate(513.609453 462.965195)scale(0.165 -0.165)">
       <use xlink:href="#ArialMT-30"/>
       <use xlink:href="#ArialMT-2e" x="55.615234"/>
       <use xlink:href="#ArialMT-30" x="83.398438"/>
       <use xlink:href="#ArialMT-30" x="139.013672"/>
      </g>
     </g>
    </g>
    <g id="ytick_17">
     <g id="line2d_46">
      <path d="M 558.22 413.258307 
L 988.56 413.258307 
" clip-path="url(#pa43cc0f330)" style="fill: none; stroke: #ffffff; stroke-width: 1.5; stroke-linecap: round"/>
     </g>
     <g id="text_46">
      <!-- 0.25 -->
      <g style="fill: #555555" transform="translate(513.609453 419.163502)scale(0.165 -0.165)">
       <use xlink:href="#ArialMT-30"/>
       <use xlink:href="#ArialMT-2e" x="55.615234"/>
       <use xlink:href="#ArialMT-32" x="83.398438"/>
       <use xlink:href="#ArialMT-35" x="139.013672"/>
      </g>
     </g>
    </g>
    <g id="ytick_18">
     <g id="line2d_47">
      <path d="M 558.22 369.456614 
L 988.56 369.456614 
" clip-path="url(#pa43cc0f330)" style="fill: none; stroke: #ffffff; stroke-width: 1.5; stroke-linecap: round"/>
     </g>
     <g id="text_47">
      <!-- 0.50 -->
      <g style="fill: #555555" transform="translate(513.609453 375.361809)scale(0.165 -0.165)">
       <use xlink:href="#ArialMT-30"/>
       <use xlink:href="#ArialMT-2e" x="55.615234"/>
       <use xlink:href="#ArialMT-35" x="83.398438"/>
       <use xlink:href="#ArialMT-30" x="139.013672"/>
      </g>
     </g>
    </g>
    <g id="ytick_19">
     <g id="line2d_48">
      <path d="M 558.22 325.654921 
L 988.56 325.654921 
" clip-path="url(#pa43cc0f330)" style="fill: none; stroke: #ffffff; stroke-width: 1.5; stroke-linecap: round"/>
     </g>
     <g id="text_48">
      <!-- 0.75 -->
      <g style="fill: #555555" transform="translate(513.609453 331.560116)scale(0.165 -0.165)">
       <use xlink:href="#ArialMT-30"/>
       <use xlink:href="#ArialMT-2e" x="55.615234"/>
       <use xlink:href="#ArialMT-37" x="83.398438"/>
       <use xlink:href="#ArialMT-35" x="139.013672"/>
      </g>
     </g>
    </g>
    <g id="ytick_20">
     <g id="line2d_49">
      <path d="M 558.22 281.853228 
L 988.56 281.853228 
" clip-path="url(#pa43cc0f330)" style="fill: none; stroke: #ffffff; stroke-width: 1.5; stroke-linecap: round"/>
     </g>
     <g id="text_49">
      <!-- 1.00 -->
      <g style="fill: #555555" transform="translate(513.609453 287.758423)scale(0.165 -0.165)">
       <use xlink:href="#ArialMT-31"/>
       <use xlink:href="#ArialMT-2e" x="55.615234"/>
       <use xlink:href="#ArialMT-30" x="83.398438"/>
       <use xlink:href="#ArialMT-30" x="139.013672"/>
      </g>
     </g>
    </g>
   </g>
   <g id="patch_48">
    <path d="M 577.780909 457.06 
L 590.821515 457.06 
L 590.821515 280.545714 
L 577.780909 280.545714 
z
" clip-path="url(#pa43cc0f330)" style="fill: #c07156; stroke: #eeeeee; stroke-width: 1.5; stroke-linejoin: miter"/>
   </g>
   <g id="patch_49">
    <path d="M 590.821515 457.06 
L 603.862121 457.06 
L 603.862121 280.545714 
L 590.821515 280.545714 
z
" clip-path="url(#pa43cc0f330)" style="fill: #c07156; stroke: #eeeeee; stroke-width: 1.5; stroke-linejoin: miter"/>
   </g>
   <g id="patch_50">
    <path d="M 603.862121 457.06 
L 616.902727 457.06 
L 616.902727 283.347528 
L 603.862121 283.347528 
z
" clip-path="url(#pa43cc0f330)" style="fill: #c07156; stroke: #eeeeee; stroke-width: 1.5; stroke-linejoin: miter"/>
   </g>
   <g id="patch_51">
    <path d="M 616.902727 457.06 
L 629.943333 457.06 
L 629.943333 280.545714 
L 616.902727 280.545714 
z
" clip-path="url(#pa43cc0f330)" style="fill: #c07156; stroke: #eeeeee; stroke-width: 1.5; stroke-linejoin: miter"/>
   </g>
   <g id="patch_52">
    <path d="M 629.943333 457.06 
L 642.983939 457.06 
L 642.983939 283.347528 
L 629.943333 283.347528 
z
" clip-path="url(#pa43cc0f330)" style="fill: #c07156; stroke: #eeeeee; stroke-width: 1.5; stroke-linejoin: miter"/>
   </g>
   <g id="patch_53">
    <path d="M 642.983939 457.06 
L 656.024545 457.06 
L 656.024545 280.545714 
L 642.983939 280.545714 
z
" clip-path="url(#pa43cc0f330)" style="fill: #c07156; stroke: #eeeeee; stroke-width: 1.5; stroke-linejoin: miter"/>
   </g>
   <g id="patch_54">
    <path d="M 656.024545 457.06 
L 669.065152 457.06 
L 669.065152 283.347528 
L 656.024545 283.347528 
z
" clip-path="url(#pa43cc0f330)" style="fill: #c07156; stroke: #eeeeee; stroke-width: 1.5; stroke-linejoin: miter"/>
   </g>
   <g id="patch_55">
    <path d="M 669.065152 457.06 
L 682.105758 457.06 
L 682.105758 280.545714 
L 669.065152 280.545714 
z
" clip-path="url(#pa43cc0f330)" style="fill: #c07156; stroke: #eeeeee; stroke-width: 1.5; stroke-linejoin: miter"/>
   </g>
   <g id="patch_56">
    <path d="M 682.105758 457.06 
L 695.146364 457.06 
L 695.146364 283.347528 
L 682.105758 283.347528 
z
" clip-path="url(#pa43cc0f330)" style="fill: #c07156; stroke: #eeeeee; stroke-width: 1.5; stroke-linejoin: miter"/>
   </g>
   <g id="patch_57">
    <path d="M 695.146364 457.06 
L 708.18697 457.06 
L 708.18697 280.545714 
L 695.146364 280.545714 
z
" clip-path="url(#pa43cc0f330)" style="fill: #c07156; stroke: #eeeeee; stroke-width: 1.5; stroke-linejoin: miter"/>
   </g>
   <g id="patch_58">
    <path d="M 708.18697 457.06 
L 721.227576 457.06 
L 721.227576 283.347528 
L 708.18697 283.347528 
z
" clip-path="url(#pa43cc0f330)" style="fill: #c07156; stroke: #eeeeee; stroke-width: 1.5; stroke-linejoin: miter"/>
   </g>
   <g id="patch_59">
    <path d="M 721.227576 457.06 
L 734.268182 457.06 
L 734.268182 280.545714 
L 721.227576 280.545714 
z
" clip-path="url(#pa43cc0f330)" style="fill: #c07156; stroke: #eeeeee; stroke-width: 1.5; stroke-linejoin: miter"/>
   </g>
   <g id="patch_60">
    <path d="M 734.268182 457.06 
L 747.308788 457.06 
L 747.308788 283.347528 
L 734.268182 283.347528 
z
" clip-path="url(#pa43cc0f330)" style="fill: #c07156; stroke: #eeeeee; stroke-width: 1.5; stroke-linejoin: miter"/>
   </g>
   <g id="patch_61">
    <path d="M 747.308788 457.06 
L 760.349394 457.06 
L 760.349394 280.545714 
L 747.308788 280.545714 
z
" clip-path="url(#pa43cc0f330)" style="fill: #c07156; stroke: #eeeeee; stroke-width: 1.5; stroke-linejoin: miter"/>
   </g>
   <g id="patch_62">
    <path d="M 760.349394 457.06 
L 773.39 457.06 
L 773.39 280.545714 
L 760.349394 280.545714 
z
" clip-path="url(#pa43cc0f330)" style="fill: #c07156; stroke: #eeeeee; stroke-width: 1.5; stroke-linejoin: miter"/>
   </g>
   <g id="patch_63">
    <path d="M 773.39 457.06 
L 786.430606 457.06 
L 786.430606 283.347528 
L 773.39 283.347528 
z
" clip-path="url(#pa43cc0f330)" style="fill: #c07156; stroke: #eeeeee; stroke-width: 1.5; stroke-linejoin: miter"/>
   </g>
   <g id="patch_64">
    <path d="M 786.430606 457.06 
L 799.471212 457.06 
L 799.471212 280.545714 
L 786.430606 280.545714 
z
" clip-path="url(#pa43cc0f330)" style="fill: #c07156; stroke: #eeeeee; stroke-width: 1.5; stroke-linejoin: miter"/>
   </g>
   <g id="patch_65">
    <path d="M 799.471212 457.06 
L 812.511818 457.06 
L 812.511818 283.347528 
L 799.471212 283.347528 
z
" clip-path="url(#pa43cc0f330)" style="fill: #c07156; stroke: #eeeeee; stroke-width: 1.5; stroke-linejoin: miter"/>
   </g>
   <g id="patch_66">
    <path d="M 812.511818 457.06 
L 825.552424 457.06 
L 825.552424 280.545714 
L 812.511818 280.545714 
z
" clip-path="url(#pa43cc0f330)" style="fill: #c07156; stroke: #eeeeee; stroke-width: 1.5; stroke-linejoin: miter"/>
   </g>
   <g id="patch_67">
    <path d="M 825.552424 457.06 
L 838.59303 457.06 
L 838.59303 283.347528 
L 825.552424 283.347528 
z
" clip-path="url(#pa43cc0f330)" style="fill: #c07156; stroke: #eeeeee; stroke-width: 1.5; stroke-linejoin: miter"/>
   </g>
   <g id="patch_68">
    <path d="M 838.59303 457.06 
L 851.633636 457.06 
L 851.633636 280.545714 
L 838.59303 280.545714 
z
" clip-path="url(#pa43cc0f330)" style="fill: #c07156; stroke: #eeeeee; stroke-width: 1.5; stroke-linejoin: miter"/>
   </g>
   <g id="patch_69">
    <path d="M 851.633636 457.06 
L 864.674242 457.06 
L 864.674242 283.347528 
L 851.633636 283.347528 
z
" clip-path="url(#pa43cc0f330)" style="fill: #c07156; stroke: #eeeeee; stroke-width: 1.5; stroke-linejoin: miter"/>
   </g>
   <g id="patch_70">
    <path d="M 864.674242 457.06 
L 877.714848 457.06 
L 877.714848 280.545714 
L 864.674242 280.545714 
z
" clip-path="url(#pa43cc0f330)" style="fill: #c07156; stroke: #eeeeee; stroke-width: 1.5; stroke-linejoin: miter"/>
   </g>
   <g id="patch_71">
    <path d="M 877.714848 457.06 
L 890.755455 457.06 
L 890.755455 283.347528 
L 877.714848 283.347528 
z
" clip-path="url(#pa43cc0f330)" style="fill: #c07156; stroke: #eeeeee; stroke-width: 1.5; stroke-linejoin: miter"/>
   </g>
   <g id="patch_72">
    <path d="M 890.755455 457.06 
L 903.796061 457.06 
L 903.796061 280.545714 
L 890.755455 280.545714 
z
" clip-path="url(#pa43cc0f330)" style="fill: #c07156; stroke: #eeeeee; stroke-width: 1.5; stroke-linejoin: miter"/>
   </g>
   <g id="patch_73">
    <path d="M 903.796061 457.06 
L 916.836667 457.06 
L 916.836667 283.347528 
L 903.796061 283.347528 
z
" clip-path="url(#pa43cc0f330)" style="fill: #c07156; stroke: #eeeeee; stroke-width: 1.5; stroke-linejoin: miter"/>
   </g>
   <g id="patch_74">
    <path d="M 916.836667 457.06 
L 929.877273 457.06 
L 929.877273 280.545714 
L 916.836667 280.545714 
z
" clip-path="url(#pa43cc0f330)" style="fill: #c07156; stroke: #eeeeee; stroke-width: 1.5; stroke-linejoin: miter"/>
   </g>
   <g id="patch_75">
    <path d="M 929.877273 457.06 
L 942.917879 457.06 
L 942.917879 283.347528 
L 929.877273 283.347528 
z
" clip-path="url(#pa43cc0f330)" style="fill: #c07156; stroke: #eeeeee; stroke-width: 1.5; stroke-linejoin: miter"/>
   </g>
   <g id="patch_76">
    <path d="M 942.917879 457.06 
L 955.958485 457.06 
L 955.958485 280.545714 
L 942.917879 280.545714 
z
" clip-path="url(#pa43cc0f330)" style="fill: #c07156; stroke: #eeeeee; stroke-width: 1.5; stroke-linejoin: miter"/>
   </g>
   <g id="patch_77">
    <path d="M 955.958485 457.06 
L 968.999091 457.06 
L 968.999091 280.545714 
L 955.958485 280.545714 
z
" clip-path="url(#pa43cc0f330)" style="fill: #c07156; stroke: #eeeeee; stroke-width: 1.5; stroke-linejoin: miter"/>
   </g>
   <g id="patch_78">
    <path d="M 558.22 457.06 
L 558.22 271.72 
" style="fill: none; stroke: #ffffff; stroke-width: 1.875; stroke-linejoin: miter; stroke-linecap: square"/>
   </g>
   <g id="patch_79">
    <path d="M 988.56 457.06 
L 988.56 271.72 
" style="fill: none; stroke: #ffffff; stroke-width: 1.875; stroke-linejoin: miter; stroke-linecap: square"/>
   </g>
   <g id="patch_80">
    <path d="M 558.22 457.06 
L 988.56 457.06 
" style="fill: none; stroke: #ffffff; stroke-width: 1.875; stroke-linejoin: miter; stroke-linecap: square"/>
   </g>
   <g id="patch_81">
    <path d="M 558.22 271.72 
L 988.56 271.72 
" style="fill: none; stroke: #ffffff; stroke-width: 1.875; stroke-linejoin: miter; stroke-linecap: square"/>
   </g>
  </g>
 </g>
 <defs>
  <clipPath id="p07ffba3ada">
   <rect x="63.94" y="39.44" width="430.34" height="185.34"/>
  </clipPath>
  <clipPath id="p6c2e0cea58">
   <rect x="558.22" y="39.44" width="430.34" height="185.34"/>
  </clipPath>
  <clipPath id="pb02018a0e4">
   <rect x="63.94" y="271.72" width="430.34" height="185.34"/>
  </clipPath>
  <clipPath id="pa43cc0f330">
   <rect x="558.22" y="271.72" width="430.34" height="185.34"/>
  </clipPath>
 </defs>
</svg>
