<?xml version="1.0" encoding="utf-8" standalone="no"?>
<!DOCTYPE svg PUBLIC "-//W3C//DTD SVG 1.1//EN"
  "http://www.w3.org/Graphics/SVG/1.1/DTD/svg11.dtd">
<svg xmlns:xlink="http://www.w3.org/1999/xlink" width="1008pt" height="504pt" viewBox="0 0 1008 504" xmlns="http://www.w3.org/2000/svg" version="1.1">
 <metadata>
  <rdf:RDF xmlns:dc="http://purl.org/dc/elements/1.1/" xmlns:cc="http://creativecommons.org/ns#" xmlns:rdf="http://www.w3.org/1999/02/22-rdf-syntax-ns#">
   <cc:Work>
    <dc:type rdf:resource="http://purl.org/dc/dcmitype/StillImage"/>
    <dc:date>2022-04-15T23:23:31.725243</dc:date>
    <dc:format>image/svg+xml</dc:format>
    <dc:creator>
     <cc:Agent>
      <dc:title>Matplotlib v3.5.1, https://matplotlib.org/</dc:title>
     </cc:Agent>
    </dc:creator>
   </cc:Work>
  </rdf:RDF>
 </metadata>
 <defs>
  <style type="text/css">*{stroke-linejoin: round; stroke-linecap: butt}</style>
 </defs>
 <g id="figure_1">
  <g id="patch_1">
   <path d="M 0 504 
L 1008 504 
L 1008 0 
L 0 0 
z
" style="fill: #ffffff"/>
  </g>
  <g id="axes_1">
   <g id="patch_2">
    <path d="M 126 233.443636 
L 907.2 233.443636 
L 907.2 60.48 
L 126 60.48 
z
" style="fill: #e5e5e5"/>
   </g>
   <g id="matplotlib.axis_1">
    <g id="xtick_1">
     <g id="line2d_1">
      <path d="M 194.6 233.443636 
L 194.6 60.48 
" clip-path="url(#p983da7a95b)" style="fill: none; stroke: #ffffff; stroke-width: 2; stroke-linecap: round"/>
     </g>
    </g>
    <g id="xtick_2">
     <g id="line2d_2">
      <path d="M 296.8 233.443636 
L 296.8 60.48 
" clip-path="url(#p983da7a95b)" style="fill: none; stroke: #ffffff; stroke-width: 2; stroke-linecap: round"/>
     </g>
    </g>
    <g id="xtick_3">
     <g id="line2d_3">
      <path d="M 399.28 233.443636 
L 399.28 60.48 
" clip-path="url(#p983da7a95b)" style="fill: none; stroke: #ffffff; stroke-width: 2; stroke-linecap: round"/>
     </g>
    </g>
    <g id="xtick_4">
     <g id="line2d_4">
      <path d="M 501.48 233.443636 
L 501.48 60.48 
" clip-path="url(#p983da7a95b)" style="fill: none; stroke: #ffffff; stroke-width: 2; stroke-linecap: round"/>
     </g>
    </g>
    <g id="xtick_5">
     <g id="line2d_5">
      <path d="M 603.68 233.443636 
L 603.68 60.48 
" clip-path="url(#p983da7a95b)" style="fill: none; stroke: #ffffff; stroke-width: 2; stroke-linecap: round"/>
     </g>
    </g>
    <g id="xtick_6">
     <g id="line2d_6">
      <path d="M 705.88 233.443636 
L 705.88 60.48 
" clip-path="url(#p983da7a95b)" style="fill: none; stroke: #ffffff; stroke-width: 2; stroke-linecap: round"/>
     </g>
    </g>
    <g id="xtick_7">
     <g id="line2d_7">
      <path d="M 808.36 233.443636 
L 808.36 60.48 
" clip-path="url(#p983da7a95b)" style="fill: none; stroke: #ffffff; stroke-width: 2; stroke-linecap: round"/>
     </g>
    </g>
   </g>
   <g id="matplotlib.axis_2">
    <g id="ytick_1">
     <g id="line2d_8">
      <path d="M 126 211.539309 
L 907.2 211.539309 
" clip-path="url(#p983da7a95b)" style="fill: none; stroke: #ffffff; stroke-width: 2; stroke-linecap: round"/>
     </g>
     <g id="text_1">
      <!-- −5 -->
      <g style="fill: #555555" transform="translate(85.416562 219.412903)scale(0.22 -0.22)">
       <defs>
        <path id="ArialMT-2212" d="M 3381 1997 
L 356 1997 
L 356 2522 
L 3381 2522 
L 3381 1997 
z
" transform="scale(0.015625)"/>
        <path id="ArialMT-35" d="M 266 1200 
L 856 1250 
Q 922 819 1161 601 
Q 1400 384 1738 384 
Q 2144 384 2425 690 
Q 2706 997 2706 1503 
Q 2706 1984 2436 2262 
Q 2166 2541 1728 2541 
Q 1456 2541 1237 2417 
Q 1019 2294 894 2097 
L 366 2166 
L 809 4519 
L 3088 4519 
L 3088 3981 
L 1259 3981 
L 1013 2750 
Q 1425 3038 1878 3038 
Q 2478 3038 2890 2622 
Q 3303 2206 3303 1553 
Q 3303 931 2941 478 
Q 2500 -78 1738 -78 
Q 1113 -78 717 272 
Q 322 622 266 1200 
z
" transform="scale(0.015625)"/>
       </defs>
       <use xlink:href="#ArialMT-2212"/>
       <use xlink:href="#ArialMT-35" x="58.398438"/>
      </g>
     </g>
    </g>
    <g id="ytick_2">
     <g id="line2d_9">
      <path d="M 126 144.928881 
L 907.2 144.928881 
" clip-path="url(#p983da7a95b)" style="fill: none; stroke: #ffffff; stroke-width: 2; stroke-linecap: round"/>
     </g>
     <g id="text_2">
      <!-- 0 -->
      <g style="fill: #555555" transform="translate(98.265938 152.802474)scale(0.22 -0.22)">
       <defs>
        <path id="ArialMT-30" d="M 266 2259 
Q 266 3072 433 3567 
Q 600 4063 929 4331 
Q 1259 4600 1759 4600 
Q 2128 4600 2406 4451 
Q 2684 4303 2865 4023 
Q 3047 3744 3150 3342 
Q 3253 2941 3253 2259 
Q 3253 1453 3087 958 
Q 2922 463 2592 192 
Q 2263 -78 1759 -78 
Q 1097 -78 719 397 
Q 266 969 266 2259 
z
M 844 2259 
Q 844 1131 1108 757 
Q 1372 384 1759 384 
Q 2147 384 2411 759 
Q 2675 1134 2675 2259 
Q 2675 3391 2411 3762 
Q 2147 4134 1753 4134 
Q 1366 4134 1134 3806 
Q 844 3388 844 2259 
z
" transform="scale(0.015625)"/>
       </defs>
       <use xlink:href="#ArialMT-30"/>
      </g>
     </g>
    </g>
    <g id="ytick_3">
     <g id="line2d_10">
      <path d="M 126 78.318452 
L 907.2 78.318452 
" clip-path="url(#p983da7a95b)" style="fill: none; stroke: #ffffff; stroke-width: 2; stroke-linecap: round"/>
     </g>
     <g id="text_3">
      <!-- 5 -->
      <g style="fill: #555555" transform="translate(98.265938 86.192046)scale(0.22 -0.22)">
       <use xlink:href="#ArialMT-35"/>
      </g>
     </g>
    </g>
   </g>
   <g id="line2d_11">
    <path d="M 126 150.66688 
L 127.12 151.767048 
L 127.4 155.13851 
L 127.68 119.23065 
L 127.96 150.485103 
L 128.24 150.059364 
L 129.08 139.04187 
L 129.36 130.453463 
L 129.64 138.450756 
L 129.92 155.340428 
L 130.2 144.364619 
L 131.04 150.812827 
L 131.32 142.025758 
L 131.6 144.812741 
L 131.88 141.954048 
L 132.16 147.216787 
L 133.28 152.128954 
L 133.84 148.74185 
L 134.12 162.783473 
L 134.96 147.146259 
L 135.24 155.783767 
L 135.52 151.887105 
L 135.8 132.038887 
L 136.92 140.247557 
L 137.48 138.375478 
L 137.76 105.784813 
L 138.04 147.510336 
L 138.88 140.391497 
L 139.16 142.043291 
L 139.44 135.172273 
L 139.72 140.92435 
L 140.84 152.365107 
L 141.12 141.796681 
L 141.4 157.360587 
L 141.68 152.589834 
L 141.96 155.081534 
L 142.8 158.71634 
L 143.08 144.442491 
L 143.36 152.430784 
L 143.64 150.511255 
L 144.76 161.065631 
L 145.04 158.113091 
L 145.32 150.383135 
L 145.6 135.916447 
L 145.88 156.193044 
L 146.72 131.544091 
L 147 153.057882 
L 147.56 140.330006 
L 147.84 151.473869 
L 148.68 140.589563 
L 148.96 150.402933 
L 149.24 133.915068 
L 149.52 147.815382 
L 149.8 127.820722 
L 150.64 155.087022 
L 150.92 139.897889 
L 151.2 152.336637 
L 151.48 144.813371 
L 151.76 152.190335 
L 152.6 142.178773 
L 152.88 156.012637 
L 153.16 128.478851 
L 153.44 134.451505 
L 153.72 157.602393 
L 154.56 143.193272 
L 154.84 161.159377 
L 155.12 124.066571 
L 155.4 170.915665 
L 155.68 140.30015 
L 156.52 156.228065 
L 156.8 142.140696 
L 157.08 143.09516 
L 157.36 140.538964 
L 157.64 147.025159 
L 158.48 142.931223 
L 158.76 142.876797 
L 159.04 138.849395 
L 159.32 152.10248 
L 159.6 133.773957 
L 160.72 182.541297 
L 161 127.57009 
L 161.28 147.225118 
L 161.56 151.362516 
L 162.4 150.935294 
L 162.68 151.4716 
L 162.96 156.156834 
L 163.24 150.015712 
L 163.52 147.3195 
L 164.36 149.631806 
L 164.64 134.93575 
L 164.92 150.895028 
L 165.2 154.593496 
L 165.48 140.467179 
L 166.32 154.114062 
L 166.88 141.42774 
L 167.16 144.360372 
L 167.44 140.820438 
L 168.56 166.992018 
L 168.84 136.547093 
L 169.12 151.860894 
L 169.4 155.851202 
L 170.24 139.695766 
L 170.52 157.816503 
L 170.8 155.553903 
L 171.08 171.859264 
L 171.36 128.161901 
L 172.2 151.651058 
L 172.48 169.944683 
L 173.04 142.37058 
L 173.32 133.733609 
L 174.16 153.719629 
L 174.44 133.936563 
L 174.72 176.730733 
L 175 138.096814 
L 175.28 148.568245 
L 176.12 153.988936 
L 176.4 137.448651 
L 176.68 138.692765 
L 176.96 148.976126 
L 177.24 137.95346 
L 178.08 160.709032 
L 178.36 152.055385 
L 178.64 161.372359 
L 178.92 132.763742 
L 179.2 125.565888 
L 180.04 152.108033 
L 180.32 146.165312 
L 180.88 169.51396 
L 181.16 133.69075 
L 182 157.941373 
L 182.28 139.540752 
L 182.84 154.654362 
L 183.12 136.499579 
L 183.96 158.915025 
L 184.24 141.626632 
L 184.52 149.872088 
L 185.08 219.709693 
L 185.92 133.649617 
L 186.2 158.458044 
L 186.76 148.575845 
L 187.04 145.744207 
L 187.88 156.677926 
L 188.16 136.293928 
L 188.44 153.277945 
L 189 154.471973 
L 189.84 157.695279 
L 190.12 149.922201 
L 190.4 134.998015 
L 190.68 160.843822 
L 190.96 138.500895 
L 191.8 157.822583 
L 192.08 77.40488 
L 192.36 179.20656 
L 192.92 146.34958 
L 193.76 157.793329 
L 194.04 142.132346 
L 194.32 141.088275 
L 194.88 147.457021 
L 195.72 146.913735 
L 196 150.737783 
L 196.56 142.560263 
L 196.84 148.904781 
L 197.68 153.759542 
L 197.96 152.511605 
L 198.24 139.030565 
L 198.52 155.238932 
L 198.8 134.118112 
L 199.92 152.315149 
L 200.2 144.76442 
L 200.48 142.109544 
L 200.76 148.449079 
L 201.6 144.416065 
L 201.88 145.408929 
L 202.16 150.082068 
L 202.44 151.087792 
L 202.72 110.163776 
L 203.56 126.904803 
L 203.84 127.740899 
L 204.12 159.431753 
L 204.4 137.617431 
L 204.68 135.430896 
L 205.52 138.518924 
L 205.8 152.927557 
L 206.08 148.454212 
L 206.36 119.29708 
L 206.64 131.953269 
L 207.76 145.538612 
L 208.04 145.82654 
L 208.32 134.6586 
L 208.6 114.540423 
L 209.44 131.423047 
L 209.72 187.122048 
L 210 145.342184 
L 210.28 133.063569 
L 210.56 158.149938 
L 211.4 166.301719 
L 211.68 135.881913 
L 211.96 158.919746 
L 212.24 149.945641 
L 212.52 148.109498 
L 213.36 157.254666 
L 213.64 148.651875 
L 213.92 145.476877 
L 214.2 156.817861 
L 214.48 162.669999 
L 215.32 146.272104 
L 215.6 150.305892 
L 215.88 120.59182 
L 216.16 160.388096 
L 216.44 144.304512 
L 217.28 144.021099 
L 217.56 154.155265 
L 218.12 113.012772 
L 218.4 160.341118 
L 219.24 144.361688 
L 219.52 151.552824 
L 219.8 137.771089 
L 220.08 158.672966 
L 221.2 125.555202 
L 221.48 138.835988 
L 221.76 160.970499 
L 222.04 137.864731 
L 222.32 132.719579 
L 223.16 143.599591 
L 223.44 140.300806 
L 223.72 126.530092 
L 224.28 149.179098 
L 225.12 148.125187 
L 225.4 151.56636 
L 225.68 139.426648 
L 225.96 133.542867 
L 226.24 143.62796 
L 227.08 148.089156 
L 227.36 140.351937 
L 227.64 146.72001 
L 227.92 133.879845 
L 228.2 141.363413 
L 229.04 147.217395 
L 229.32 130.503039 
L 229.6 152.617263 
L 229.88 161.181121 
L 230.16 146.20554 
L 231 148.961237 
L 231.28 126.116736 
L 231.56 142.891184 
L 231.84 140.511785 
L 232.12 143.934136 
L 232.96 151.351894 
L 233.24 169.936099 
L 233.8 126.951532 
L 234.08 154.31008 
L 235.2 165.816387 
L 235.48 161.048599 
L 236.04 116.294768 
L 236.88 151.461246 
L 237.16 137.500572 
L 237.44 166.034101 
L 237.72 160.869882 
L 238 138.604739 
L 238.84 146.414444 
L 239.12 126.156487 
L 239.4 135.812579 
L 239.68 152.913035 
L 239.96 158.397903 
L 240.8 151.638507 
L 241.08 136.199634 
L 241.36 137.551783 
L 241.64 141.434719 
L 241.92 165.200735 
L 242.76 142.898543 
L 243.04 127.389781 
L 243.32 158.080814 
L 243.88 145.479133 
L 244.72 152.266313 
L 245 129.266418 
L 245.28 161.755601 
L 245.56 148.987529 
L 246.68 192.924124 
L 246.96 144.171055 
L 247.24 147.526163 
L 247.52 135.11128 
L 247.8 144.094164 
L 248.64 155.008184 
L 248.92 143.66996 
L 249.2 169.481187 
L 249.48 146.787707 
L 249.76 142.549466 
L 250.6 149.994998 
L 250.88 134.520162 
L 251.16 149.432071 
L 251.44 150.062681 
L 251.72 154.661329 
L 252.56 166.358924 
L 252.84 140.432805 
L 253.12 146.854962 
L 253.4 145.564588 
L 254.52 171.05559 
L 254.8 135.610497 
L 255.08 151.530225 
L 255.36 139.881412 
L 255.64 153.003177 
L 256.48 125.564273 
L 256.76 153.549732 
L 257.04 134.093321 
L 257.32 153.311702 
L 257.6 154.611149 
L 258.44 139.516463 
L 258.72 147.224831 
L 259 163.981743 
L 259.28 157.4102 
L 259.56 159.231885 
L 260.4 179.942455 
L 260.68 153.210272 
L 260.96 143.215283 
L 261.24 93.235592 
L 261.52 121.399803 
L 262.36 126.15472 
L 262.64 165.890631 
L 262.92 135.97757 
L 263.48 150.909471 
L 264.6 145.27098 
L 264.88 157.748288 
L 265.16 137.53425 
L 265.44 152.23007 
L 266.28 157.66545 
L 266.84 130.559174 
L 267.12 148.05331 
L 267.4 152.072753 
L 268.24 142.392467 
L 268.52 136.791139 
L 268.8 152.496981 
L 269.08 134.495478 
L 269.36 145.799801 
L 270.2 160.298776 
L 270.48 135.833038 
L 270.76 139.632916 
L 271.04 145.883643 
L 272.16 133.805936 
L 272.44 120.108683 
L 272.72 156.666901 
L 273 137.741372 
L 273.28 153.02668 
L 274.12 174.418273 
L 274.4 154.587565 
L 274.96 139.730073 
L 276.08 162.310563 
L 276.36 143.890648 
L 276.64 143.842837 
L 276.92 130.656769 
L 277.2 153.843692 
L 278.04 154.192577 
L 278.32 148.668615 
L 278.6 114.026701 
L 278.88 149.541494 
L 279.16 136.546359 
L 280 148.24264 
L 280.28 121.900206 
L 280.56 166.197428 
L 280.84 152.13601 
L 281.12 106.404045 
L 281.96 175.575297 
L 282.24 145.959005 
L 282.8 156.821934 
L 283.08 151.692932 
L 283.92 143.863792 
L 284.2 150.567159 
L 284.48 141.822123 
L 284.76 149.088635 
L 285.04 147.533949 
L 285.88 153.345733 
L 286.16 139.22403 
L 286.44 145.462783 
L 287 164.410336 
L 287.84 139.29649 
L 288.12 142.094551 
L 288.4 172.31556 
L 288.68 130.306998 
L 288.96 158.821209 
L 289.8 169.906438 
L 290.36 140.344445 
L 290.92 173.64307 
L 291.76 162.287106 
L 292.04 136.589849 
L 292.32 159.362363 
L 292.6 142.224872 
L 292.88 144.614776 
L 293.72 144.598966 
L 294 147.362231 
L 294.28 126.883191 
L 294.56 146.397265 
L 295.68 144.104187 
L 295.96 108.682608 
L 296.24 173.116637 
L 297.64 128.654161 
L 298.2 158.441052 
L 298.48 137.580706 
L 298.76 158.436398 
L 299.6 158.198215 
L 300.44 143.062458 
L 300.72 164.434555 
L 301.84 158.820338 
L 302.12 158.420902 
L 302.68 97.459925 
L 303.52 169.15019 
L 303.8 130.192406 
L 304.08 141.237494 
L 304.36 137.783135 
L 304.64 142.791955 
L 305.48 151.744673 
L 305.76 151.363299 
L 306.04 125.04312 
L 306.32 146.539431 
L 306.6 153.832418 
L 307.44 148.19612 
L 307.72 166.303227 
L 308 146.84892 
L 308.28 138.570499 
L 308.56 126.699888 
L 309.68 144.406721 
L 309.96 129.968702 
L 310.52 159.110668 
L 311.36 137.927221 
L 311.64 154.740763 
L 311.92 134.386989 
L 312.2 142.61941 
L 312.48 146.101055 
L 313.32 135.675054 
L 313.6 141.633875 
L 313.88 141.504737 
L 314.16 140.156816 
L 314.44 126.430358 
L 315.28 123.888136 
L 315.56 153.36966 
L 315.84 134.684146 
L 316.12 143.602736 
L 316.4 141.669065 
L 317.24 153.340069 
L 317.52 204.849907 
L 317.8 103.838543 
L 318.08 141.522683 
L 318.36 144.624948 
L 319.2 146.702605 
L 319.48 145.192906 
L 319.76 155.186554 
L 320.04 132.206106 
L 321.16 160.597484 
L 321.44 150.933867 
L 322 142.122623 
L 322.28 155.730714 
L 323.12 160.812916 
L 323.4 148.59859 
L 323.68 127.150588 
L 323.96 146.597888 
L 324.24 124.142281 
L 325.08 139.660282 
L 325.36 129.115135 
L 325.64 148.762657 
L 325.92 147.748652 
L 326.2 149.249736 
L 327.04 143.0654 
L 327.32 139.226146 
L 327.6 126.634936 
L 327.88 149.690175 
L 328.16 144.445536 
L 329 147.773449 
L 329.28 134.882532 
L 329.56 132.132011 
L 329.84 137.037579 
L 330.12 149.464877 
L 330.96 155.119437 
L 331.24 152.025414 
L 331.52 147.239826 
L 331.8 144.673174 
L 332.08 144.660713 
L 332.92 173.666537 
L 333.2 120.207666 
L 333.48 128.225711 
L 333.76 150.203727 
L 334.04 138.387706 
L 334.88 130.924261 
L 335.44 142.828341 
L 335.72 145.38287 
L 336 139.856963 
L 336.84 150.480503 
L 337.12 139.808531 
L 337.4 136.963567 
L 337.68 151.423847 
L 337.96 147.15038 
L 339.08 146.825358 
L 339.36 136.973157 
L 339.64 151.114151 
L 339.92 151.378428 
L 340.76 137.652953 
L 341.04 127.041056 
L 341.32 128.718879 
L 341.6 156.42873 
L 341.88 160.909271 
L 342.72 147.851619 
L 343 150.881272 
L 343.28 165.375624 
L 343.56 163.086328 
L 343.84 130.216186 
L 344.68 129.906635 
L 344.96 133.504096 
L 345.24 151.981797 
L 345.52 134.901909 
L 345.8 172.931321 
L 346.64 156.440819 
L 346.92 131.587845 
L 347.2 122.609813 
L 347.48 165.702419 
L 347.76 128.100567 
L 348.88 166.544151 
L 349.16 137.885493 
L 349.44 165.312927 
L 349.72 154.565476 
L 350.56 138.195834 
L 350.84 137.728174 
L 351.4 165.64176 
L 351.68 144.373888 
L 352.52 151.4006 
L 352.8 148.754618 
L 353.08 136.57734 
L 353.36 154.181053 
L 353.64 156.658899 
L 354.48 153.14891 
L 355.04 152.171107 
L 355.32 152.973663 
L 355.6 146.041031 
L 356.72 152.531115 
L 357 126.125119 
L 357.28 138.028338 
L 357.56 144.574212 
L 358.4 134.900072 
L 358.68 152.169341 
L 358.96 140.620746 
L 359.24 117.2186 
L 359.52 128.916745 
L 360.36 106.153134 
L 360.64 141.168953 
L 361.2 133.231012 
L 361.48 149.114992 
L 362.32 155.451625 
L 362.6 141.401816 
L 362.88 147.748758 
L 363.16 136.715675 
L 363.44 149.974733 
L 364.28 152.367668 
L 364.56 149.992009 
L 364.84 176.978024 
L 365.12 152.331036 
L 365.4 141.313329 
L 366.52 143.776581 
L 366.8 138.309463 
L 367.08 122.746267 
L 367.36 167.319491 
L 368.2 142.3244 
L 368.48 149.178335 
L 368.76 161.203558 
L 369.04 133.585434 
L 369.32 145.501664 
L 370.16 142.413314 
L 370.44 144.162722 
L 370.72 128.814705 
L 371 140.05467 
L 371.28 163.363933 
L 372.12 134.046709 
L 372.4 159.082496 
L 372.68 111.530406 
L 372.96 132.365465 
L 374.08 130.94538 
L 374.36 151.1608 
L 374.92 127.38742 
L 375.2 154.186781 
L 376.32 145.415621 
L 376.6 152.073585 
L 376.88 142.023637 
L 377.16 148.277824 
L 378 150.545331 
L 378.28 138.578776 
L 378.56 140.206301 
L 378.84 155.316289 
L 379.12 138.053064 
L 379.96 143.67281 
L 380.24 157.266363 
L 380.8 137.20948 
L 381.08 155.968001 
L 381.92 176.983646 
L 382.2 133.074369 
L 382.76 172.589149 
L 383.04 153.803417 
L 383.88 139.718988 
L 384.16 151.136027 
L 384.44 139.807706 
L 384.72 155.625988 
L 385 159.025041 
L 385.84 149.748507 
L 386.12 114.629317 
L 386.4 154.204954 
L 386.68 135.329543 
L 386.96 136.629962 
L 387.8 112.832205 
L 388.08 146.126447 
L 388.36 150.678789 
L 389.76 148.206588 
L 390.04 160.032906 
L 390.32 116.476429 
L 390.6 118.782393 
L 390.88 141.389109 
L 391.72 153.030934 
L 392 149.994494 
L 392.28 150.918106 
L 392.56 142.686038 
L 392.84 142.943522 
L 393.68 130.456071 
L 393.96 138.346459 
L 394.24 155.738692 
L 394.8 134.543725 
L 395.64 152.199621 
L 395.92 139.389326 
L 396.2 161.279495 
L 396.48 138.85306 
L 396.76 130.691956 
L 397.88 131.183144 
L 398.44 150.912464 
L 398.72 142.100302 
L 399.84 154.565803 
L 400.12 142.824448 
L 400.4 141.317203 
L 400.68 144.64287 
L 401.52 180.800178 
L 402.08 123.944831 
L 402.64 152.610074 
L 403.76 147.14654 
L 404.04 160.28903 
L 404.6 133.961879 
L 405.44 150.482957 
L 405.72 141.402236 
L 406 154.325403 
L 406.28 133.331329 
L 406.56 156.456736 
L 407.4 151.62762 
L 407.68 141.011176 
L 407.96 116.876404 
L 408.24 142.027103 
L 408.52 146.492283 
L 409.36 165.484767 
L 409.64 143.740853 
L 409.92 138.478143 
L 410.2 142.696824 
L 410.48 133.607986 
L 411.32 164.849499 
L 411.6 137.494575 
L 411.88 149.51858 
L 412.16 146.655897 
L 413.56 124.789351 
L 413.84 157.249839 
L 414.12 133.992811 
L 414.4 138.38511 
L 415.24 142.179436 
L 415.52 142.084033 
L 416.08 168.429444 
L 416.36 141.18016 
L 417.2 137.510822 
L 417.48 142.037427 
L 417.76 171.264622 
L 418.04 158.774688 
L 418.32 160.34877 
L 419.16 144.629663 
L 419.72 138.079227 
L 420 153.411736 
L 420.28 142.480317 
L 421.12 143.490265 
L 421.4 150.879401 
L 421.68 148.710571 
L 421.96 148.854257 
L 422.24 135.039055 
L 423.08 147.711973 
L 423.36 133.421949 
L 423.64 131.692416 
L 423.92 136.422987 
L 424.2 135.763189 
L 425.04 191.702342 
L 425.32 130.781511 
L 425.6 144.661802 
L 425.88 108.644563 
L 426.16 143.381037 
L 427 137.013853 
L 427.56 149.598444 
L 427.84 146.271193 
L 428.96 150.471427 
L 429.24 149.418491 
L 429.52 163.32258 
L 429.8 147.742611 
L 430.08 158.566563 
L 430.92 150.232007 
L 431.2 138.369478 
L 431.76 167.194464 
L 432.04 149.78446 
L 433.16 153.750088 
L 433.44 143.038218 
L 433.72 177.769462 
L 434 126.546029 
L 434.84 140.005132 
L 435.12 149.0453 
L 435.4 132.364614 
L 435.96 143.27313 
L 436.8 137.99596 
L 437.08 142.689086 
L 437.36 134.600354 
L 437.64 144.118483 
L 437.92 125.485813 
L 438.76 137.001985 
L 439.04 137.38416 
L 439.6 174.143936 
L 439.88 138.870668 
L 441 152.013632 
L 441.28 166.384801 
L 441.56 153.313731 
L 441.84 150.297489 
L 442.68 182.969752 
L 442.96 125.999481 
L 443.24 162.059572 
L 443.52 145.783311 
L 443.8 141.634207 
L 444.64 148.254432 
L 444.92 134.731043 
L 445.2 161.140893 
L 445.76 138.847453 
L 446.6 152.833645 
L 446.88 150.912224 
L 447.16 161.177752 
L 447.44 141.366047 
L 447.72 141.235757 
L 448.56 147.103333 
L 448.84 133.662661 
L 449.12 130.716281 
L 449.4 141.102364 
L 449.68 122.645751 
L 451.08 147.401833 
L 451.36 138.860332 
L 451.64 160.599953 
L 452.48 149.057883 
L 452.76 132.345523 
L 453.04 147.133417 
L 453.32 139.858026 
L 453.6 127.426771 
L 454.44 155.347384 
L 455 122.444322 
L 455.28 148.438544 
L 455.56 161.173227 
L 456.4 142.65486 
L 456.68 120.492557 
L 457.24 142.060491 
L 457.52 129.477716 
L 458.36 136.107089 
L 458.64 153.415056 
L 458.92 141.070747 
L 459.2 152.130481 
L 459.48 141.750351 
L 460.6 150.365196 
L 460.88 130.663581 
L 461.16 160.423284 
L 461.44 141.004642 
L 462.28 160.767444 
L 462.56 148.308504 
L 462.84 160.120912 
L 463.4 120.688871 
L 464.24 171.052512 
L 464.52 136.685489 
L 464.8 130.827491 
L 465.36 147.722682 
L 466.2 132.445033 
L 466.48 155.026924 
L 466.76 146.493971 
L 467.04 81.994634 
L 467.32 133.18283 
L 468.44 147.256847 
L 468.72 148.429883 
L 469 138.523576 
L 469.28 150.406483 
L 470.12 152.486166 
L 470.4 144.75387 
L 470.68 159.51878 
L 470.96 116.917565 
L 471.24 144.24236 
L 472.08 144.490819 
L 472.36 152.511885 
L 472.64 135.853706 
L 473.2 148.325334 
L 474.04 128.297676 
L 474.32 144.11503 
L 474.6 150.816914 
L 474.88 120.980474 
L 475.16 150.584825 
L 476 187.849775 
L 476.28 141.334192 
L 476.56 139.924163 
L 476.84 141.083618 
L 477.12 158.733974 
L 477.96 158.479894 
L 478.24 136.185734 
L 478.8 148.111656 
L 479.08 137.122772 
L 479.92 136.049098 
L 480.2 143.440356 
L 480.48 146.793988 
L 480.76 143.297047 
L 481.04 138.023904 
L 481.88 154.715087 
L 482.16 128.383485 
L 482.44 147.333781 
L 483 132.371755 
L 483.84 143.146823 
L 484.12 144.711138 
L 484.4 154.579139 
L 484.96 135.170314 
L 485.8 127.110505 
L 486.08 146.835358 
L 486.36 153.608161 
L 486.64 133.824958 
L 486.92 144.24332 
L 487.76 147.500271 
L 488.04 163.365836 
L 488.32 139.992233 
L 488.6 142.268196 
L 488.88 131.332165 
L 490 144.196498 
L 490.28 144.170345 
L 490.84 137.45045 
L 491.68 147.274303 
L 491.96 143.571329 
L 492.24 158.082813 
L 492.52 162.507908 
L 492.8 119.849044 
L 493.64 167.525518 
L 493.92 134.040226 
L 494.2 170.700113 
L 494.48 133.181009 
L 494.76 132.213631 
L 495.6 137.285379 
L 496.16 156.335138 
L 496.44 143.0984 
L 496.72 148.930112 
L 497.56 136.409853 
L 498.12 141.985666 
L 498.4 143.755205 
L 498.68 135.052174 
L 499.8 110.13009 
L 500.08 147.693107 
L 500.36 136.728289 
L 500.64 137.409835 
L 501.76 149.079347 
L 502.04 126.109194 
L 502.32 150.825109 
L 502.6 146.709591 
L 503.44 149.661326 
L 503.72 139.217817 
L 504 140.823246 
L 504.28 145.612084 
L 504.56 140.09415 
L 505.68 155.656155 
L 505.96 148.060168 
L 506.24 147.17314 
L 506.52 146.734535 
L 507.36 144.677081 
L 507.64 127.408045 
L 508.2 148.828231 
L 508.48 130.426794 
L 509.32 163.178617 
L 510.16 139.106113 
L 510.44 173.493332 
L 511.56 154.560498 
L 511.84 172.444411 
L 512.12 160.677403 
L 512.4 156.471024 
L 513.24 150.47179 
L 513.8 129.488728 
L 514.08 141.460404 
L 514.36 137.158572 
L 515.48 150.277035 
L 515.76 146.473694 
L 516.04 132.758692 
L 516.32 129.859939 
L 517.16 137.356983 
L 517.44 150.890897 
L 517.72 178.150932 
L 518 147.791565 
L 518.28 145.517967 
L 519.12 150.570902 
L 519.4 142.965684 
L 519.96 151.92255 
L 520.24 140.040756 
L 521.08 153.311673 
L 521.36 123.353928 
L 521.64 140.317722 
L 521.92 141.089116 
L 522.2 137.738881 
L 523.04 143.272664 
L 523.32 132.076482 
L 523.6 102.845973 
L 523.88 152.70998 
L 524.16 136.949838 
L 525 149.974682 
L 525.28 146.20078 
L 525.84 143.236544 
L 526.96 156.601882 
L 527.24 141.54784 
L 527.52 150.103493 
L 527.8 146.861414 
L 528.08 153.665458 
L 529.2 116.106672 
L 529.76 148.902006 
L 530.04 139.047906 
L 530.88 155.481781 
L 531.16 150.785623 
L 531.44 127.380057 
L 531.72 139.306468 
L 532 144.759015 
L 532.84 147.091158 
L 533.12 137.881553 
L 533.4 143.098976 
L 533.68 135.839652 
L 533.96 154.175333 
L 534.8 135.196157 
L 535.08 168.061624 
L 535.36 139.533865 
L 535.64 143.097577 
L 535.92 130.369628 
L 536.76 138.626061 
L 537.04 144.329212 
L 537.32 126.347105 
L 537.6 143.560852 
L 537.88 143.926128 
L 538.72 134.107347 
L 539 150.273095 
L 539.28 135.178407 
L 539.56 136.514887 
L 539.84 151.324717 
L 540.68 140.712378 
L 540.96 148.417732 
L 541.24 138.134358 
L 541.8 175.068691 
L 542.92 152.917665 
L 543.2 125.746144 
L 543.48 154.027722 
L 543.76 158.240697 
L 544.88 152.471999 
L 545.16 143.9084 
L 545.44 128.049158 
L 545.72 152.503762 
L 546.84 147.675561 
L 547.12 131.80864 
L 547.68 178.743943 
L 548.52 128.254935 
L 548.8 148.138424 
L 549.08 152.874554 
L 549.36 152.415795 
L 549.64 129.147106 
L 550.48 150.506713 
L 550.76 136.622996 
L 551.04 132.838645 
L 551.32 144.765926 
L 551.6 132.185354 
L 552.44 164.51972 
L 552.72 139.020071 
L 553.28 136.326276 
L 553.56 151.110948 
L 554.4 133.660888 
L 554.68 137.558444 
L 554.96 188.757205 
L 555.24 143.356625 
L 555.52 142.088831 
L 556.36 167.699199 
L 556.64 143.609911 
L 556.92 137.122029 
L 557.2 145.723931 
L 557.48 141.184651 
L 558.32 140.045947 
L 558.6 140.944402 
L 558.88 137.243605 
L 559.16 136.056714 
L 559.44 149.9248 
L 560.28 140.951025 
L 560.56 156.636387 
L 560.84 161.241274 
L 561.12 135.009033 
L 561.4 143.188426 
L 562.24 142.316069 
L 562.52 135.569001 
L 562.8 166.819075 
L 563.08 143.571314 
L 563.36 132.997045 
L 564.48 149.760166 
L 564.76 162.177454 
L 565.04 143.4745 
L 565.32 142.988622 
L 566.16 140.234323 
L 566.44 138.752044 
L 566.72 122.971161 
L 567 143.078859 
L 567.28 135.730155 
L 568.12 139.151737 
L 568.4 145.620024 
L 568.68 129.395968 
L 568.96 146.47911 
L 569.24 145.63655 
L 570.36 145.659937 
L 570.92 154.575527 
L 571.2 141.746844 
L 572.04 145.727037 
L 572.32 126.111512 
L 572.88 161.558638 
L 573.16 153.805966 
L 574 146.172428 
L 574.28 130.859377 
L 574.56 140.427999 
L 574.84 155.01823 
L 575.12 146.197185 
L 575.96 112.27475 
L 576.24 139.624355 
L 576.52 140.719175 
L 576.8 141.027028 
L 577.08 131.627139 
L 577.92 121.069803 
L 578.2 151.315948 
L 578.48 131.092862 
L 578.76 156.422172 
L 579.04 149.187431 
L 579.88 144.405805 
L 580.16 133.848744 
L 580.44 157.674295 
L 580.72 168.015128 
L 581 145.867362 
L 581.84 146.279923 
L 582.12 139.729814 
L 582.4 152.765109 
L 582.68 151.732257 
L 582.96 141.40679 
L 583.8 137.456069 
L 584.08 181.503478 
L 584.36 147.92348 
L 584.64 131.458305 
L 584.92 134.970531 
L 585.76 155.421375 
L 586.04 149.83004 
L 586.32 148.892708 
L 586.6 165.977389 
L 586.88 155.859967 
L 588 137.690508 
L 588.28 126.367211 
L 588.56 169.055897 
L 588.84 149.352519 
L 589.68 151.600276 
L 589.96 172.791398 
L 590.24 134.778477 
L 590.52 151.426788 
L 590.8 143.794376 
L 591.64 142.722924 
L 591.92 181.924274 
L 592.2 147.68273 
L 593.6 170.175911 
L 593.88 146.476798 
L 594.16 160.676721 
L 594.44 144.476241 
L 594.72 147.575766 
L 595.56 125.765643 
L 596.4 152.691504 
L 596.68 138.882829 
L 597.52 158.698407 
L 597.8 142.371756 
L 598.08 144.390932 
L 598.36 133.001702 
L 598.64 159.475803 
L 599.76 161.007768 
L 600.04 132.11825 
L 600.32 158.407911 
L 600.6 157.492154 
L 602 138.501773 
L 602.28 163.040355 
L 602.56 160.43989 
L 603.96 128.9963 
L 604.24 134.967815 
L 604.52 132.206896 
L 605.36 144.742731 
L 605.64 132.259766 
L 605.92 125.653928 
L 606.48 150.732723 
L 607.32 155.897091 
L 607.6 135.93604 
L 607.88 138.347251 
L 608.16 149.868527 
L 608.44 133.018802 
L 609.56 147.747579 
L 609.84 153.411504 
L 610.12 145.531192 
L 610.4 144.711409 
L 611.24 165.184084 
L 611.52 123.578911 
L 611.8 144.735532 
L 612.08 154.633232 
L 612.36 128.312953 
L 613.2 148.181425 
L 613.48 149.128308 
L 613.76 139.325199 
L 614.04 148.985256 
L 614.32 141.603719 
L 615.16 153.434203 
L 615.44 137.20331 
L 615.72 130.088047 
L 616 129.354146 
L 616.28 125.833508 
L 617.4 154.787679 
L 617.68 137.398021 
L 617.96 139.355239 
L 619.08 168.872242 
L 619.36 133.435501 
L 619.92 143.102949 
L 620.2 157.939414 
L 621.04 139.634827 
L 621.32 143.413181 
L 621.6 141.111168 
L 621.88 147.492202 
L 622.16 149.515002 
L 623 143.696861 
L 623.28 151.874204 
L 623.56 138.400198 
L 623.84 154.803507 
L 624.12 152.207146 
L 625.52 133.685454 
L 625.8 154.464543 
L 626.08 159.006616 
L 626.92 133.367399 
L 627.2 140.434847 
L 627.48 152.270027 
L 628.88 133.610301 
L 629.16 134.974182 
L 629.44 146.355612 
L 629.72 144.649962 
L 630 126.332782 
L 630.84 139.754094 
L 631.12 148.00661 
L 631.4 128.806246 
L 631.68 148.986457 
L 631.96 146.88044 
L 632.8 145.798416 
L 633.08 136.558713 
L 633.36 151.622261 
L 633.64 144.068683 
L 634.76 125.594223 
L 635.32 156.915751 
L 635.6 144.676838 
L 635.88 177.294144 
L 636.72 137.699912 
L 637 136.20893 
L 637.28 139.494354 
L 637.56 158.357948 
L 637.84 139.898084 
L 638.68 141.265956 
L 638.96 168.11685 
L 639.24 133.21336 
L 639.52 152.941733 
L 639.8 139.592656 
L 640.64 158.606795 
L 640.92 131.536374 
L 641.2 130.130477 
L 641.48 128.145456 
L 641.76 160.221742 
L 642.6 150.917621 
L 642.88 144.732556 
L 643.44 177.643545 
L 643.72 138.688578 
L 644.84 142.554997 
L 645.12 152.774976 
L 645.4 168.714255 
L 645.68 173.469409 
L 646.52 155.939036 
L 646.8 139.738327 
L 647.08 162.260329 
L 647.36 133.229857 
L 647.64 139.041077 
L 648.48 150.307707 
L 648.76 140.764871 
L 649.04 162.936474 
L 649.32 137.062077 
L 649.6 134.747028 
L 650.44 155.983444 
L 650.72 133.006352 
L 651 144.730144 
L 651.28 122.330169 
L 651.56 135.796167 
L 652.4 149.65437 
L 652.68 136.764384 
L 652.96 130.854901 
L 653.24 152.651388 
L 653.52 151.815805 
L 654.36 137.84126 
L 654.64 166.18182 
L 656.32 145.856109 
L 656.6 135.447188 
L 656.88 120.542454 
L 657.16 144.763308 
L 657.44 145.462707 
L 658.28 159.663782 
L 658.84 153.841112 
L 659.12 148.630508 
L 659.4 137.038476 
L 660.24 142.253993 
L 660.52 137.078447 
L 660.8 152.509146 
L 661.36 146.038283 
L 662.2 141.459742 
L 662.48 128.156741 
L 662.76 143.807781 
L 663.04 188.565135 
L 663.32 142.668671 
L 664.16 160.827356 
L 664.44 145.819174 
L 664.72 161.908528 
L 665 144.726681 
L 665.28 136.971505 
L 666.12 142.746546 
L 666.4 122.893234 
L 666.68 157.271043 
L 666.96 156.362921 
L 667.24 143.963598 
L 668.08 135.644822 
L 668.36 137.576844 
L 668.64 142.692897 
L 668.92 152.741618 
L 669.2 157.408222 
L 670.6 131.841596 
L 670.88 140.791474 
L 671.16 158.718483 
L 672.28 157.372781 
L 672.56 103.092699 
L 672.84 145.396246 
L 673.12 141.156222 
L 673.96 133.621213 
L 674.52 152.176134 
L 674.8 155.053369 
L 675.08 148.126869 
L 675.92 68.341983 
L 676.2 159.367706 
L 676.48 147.177922 
L 677.04 143.326236 
L 677.88 146.421945 
L 678.16 152.209183 
L 678.44 146.143471 
L 678.72 145.743195 
L 679 147.009664 
L 679.84 156.767185 
L 680.12 144.529279 
L 680.4 154.89516 
L 680.68 140.181177 
L 680.96 141.21207 
L 681.8 140.769611 
L 682.08 147.650984 
L 682.36 139.084794 
L 682.64 142.010636 
L 682.92 136.941668 
L 683.76 161.956685 
L 684.32 125.237731 
L 684.6 140.681503 
L 684.88 147.580393 
L 685.72 146.223568 
L 686 143.970779 
L 686.28 137.557384 
L 686.56 137.046065 
L 686.84 150.508556 
L 687.68 152.004933 
L 687.96 148.24386 
L 688.24 165.056486 
L 688.52 156.993557 
L 688.8 126.410705 
L 689.64 140.252412 
L 689.92 139.288882 
L 690.2 158.125611 
L 690.76 143.366391 
L 691.88 157.277949 
L 692.16 134.501662 
L 692.44 146.551012 
L 692.72 131.326927 
L 693.56 168.770435 
L 693.84 163.797038 
L 694.12 128.718501 
L 694.4 128.024204 
L 694.68 145.485697 
L 695.52 142.423243 
L 695.8 137.554574 
L 696.08 154.960192 
L 697.48 170.948566 
L 698.04 130.169703 
L 698.32 143.659898 
L 698.6 136.848907 
L 699.44 149.726829 
L 699.72 136.408739 
L 700 158.104992 
L 700.28 135.468307 
L 700.56 135.850318 
L 701.4 135.005098 
L 701.68 133.412659 
L 701.96 149.171451 
L 702.24 143.059657 
L 702.52 149.497912 
L 703.64 139.181435 
L 704.2 139.072807 
L 704.48 146.143205 
L 705.6 151.848064 
L 706.16 146.247146 
L 706.44 125.481522 
L 707.28 162.563413 
L 707.56 142.804783 
L 707.84 173.512373 
L 708.12 152.888339 
L 708.4 153.123661 
L 709.24 161.164998 
L 709.52 142.478999 
L 709.8 159.091201 
L 710.36 147.991234 
L 711.48 163.479357 
L 711.76 158.967422 
L 712.04 148.932369 
L 712.32 170.038794 
L 713.16 176.154345 
L 713.44 127.229143 
L 713.72 152.686426 
L 714 157.57337 
L 714.28 160.161401 
L 715.12 166.54202 
L 715.4 138.146795 
L 715.68 121.936667 
L 716.24 152.950484 
L 717.08 156.181111 
L 717.64 127.010254 
L 717.92 143.687863 
L 718.2 138.572809 
L 719.32 154.470311 
L 719.6 136.297837 
L 719.88 148.997455 
L 720.16 147.95997 
L 721 177.800538 
L 721.28 162.009156 
L 721.56 168.290936 
L 722.12 141.508883 
L 722.96 119.394847 
L 723.24 146.938398 
L 723.52 142.425583 
L 724.08 180.422633 
L 724.92 215.464796 
L 725.2 130.145397 
L 725.76 161.496314 
L 726.04 139.965922 
L 726.88 172.161533 
L 727.16 144.789329 
L 727.44 155.463442 
L 727.72 133.878862 
L 728 150.449665 
L 728.84 140.144984 
L 729.12 135.171849 
L 729.68 150.68867 
L 729.96 145.24758 
L 730.8 156.329285 
L 731.08 151.786893 
L 731.36 160.894728 
L 731.64 127.688806 
L 731.92 117.51595 
L 732.76 156.095515 
L 733.04 153.384928 
L 733.32 144.49161 
L 733.6 153.33737 
L 734.72 140.525291 
L 735 158.390418 
L 735.28 156.179714 
L 735.56 136.455197 
L 735.84 140.536028 
L 736.96 225.581653 
L 737.24 144.360937 
L 737.52 149.506028 
L 737.8 158.622898 
L 738.64 170.000377 
L 738.92 139.593798 
L 739.2 127.831094 
L 739.48 130.201681 
L 739.76 137.964908 
L 740.6 140.366027 
L 740.88 130.927071 
L 741.16 167.211971 
L 741.44 142.18936 
L 741.72 133.406249 
L 742.84 156.043866 
L 743.4 126.667183 
L 743.68 140.491536 
L 744.52 125.607913 
L 744.8 154.033759 
L 745.08 140.918174 
L 745.36 145.177661 
L 745.64 147.107998 
L 746.76 140.523836 
L 747.04 151.31985 
L 747.32 155.394678 
L 747.6 126.650002 
L 748.44 136.004618 
L 748.72 132.119384 
L 749 160.977934 
L 749.28 140.851485 
L 749.56 129.738731 
L 750.4 150.348705 
L 750.68 137.552756 
L 750.96 142.396313 
L 751.24 163.4266 
L 751.52 131.393225 
L 752.36 138.580872 
L 752.64 132.362997 
L 752.92 143.829309 
L 753.2 140.131059 
L 753.48 143.996186 
L 754.32 140.534176 
L 754.6 149.143866 
L 754.88 161.68453 
L 755.16 142.059222 
L 755.44 156.327552 
L 756.28 131.063675 
L 756.56 142.551342 
L 756.84 137.984939 
L 757.12 135.934387 
L 758.24 140.443225 
L 758.52 147.768757 
L 758.8 139.322812 
L 759.08 149.876241 
L 759.36 138.469376 
L 760.2 160.451173 
L 760.76 133.877905 
L 761.04 151.491229 
L 762.16 138.035354 
L 762.44 126.43961 
L 762.72 146.729515 
L 763 152.561652 
L 763.28 144.158898 
L 764.12 144.123326 
L 764.4 152.645511 
L 764.68 137.317265 
L 764.96 167.745762 
L 765.24 146.084431 
L 766.08 133.123492 
L 766.36 136.858326 
L 766.92 150.597206 
L 767.2 162.467351 
L 768.04 137.830243 
L 768.6 139.969748 
L 768.88 150.439758 
L 769.16 145.73383 
L 770 145.769061 
L 770.28 137.143558 
L 771.12 174.556843 
L 771.96 119.15698 
L 772.52 154.731538 
L 772.8 161.766946 
L 773.08 139.13877 
L 773.92 158.063604 
L 774.2 131.085616 
L 774.48 168.579963 
L 775.04 150.884547 
L 776.16 180.767442 
L 776.44 139.128942 
L 776.72 157.452836 
L 777 133.093695 
L 777.84 144.581965 
L 778.12 141.082121 
L 778.4 135.825685 
L 778.68 122.606332 
L 778.96 147.366263 
L 779.8 163.277598 
L 780.64 137.792212 
L 780.92 139.238854 
L 781.76 136.379074 
L 782.04 158.518173 
L 782.32 121.389703 
L 782.6 156.950737 
L 782.88 161.941201 
L 783.72 118.145453 
L 784 129.038214 
L 784.28 152.206535 
L 784.56 133.176256 
L 784.84 146.276699 
L 785.68 158.10945 
L 786.24 130.992026 
L 786.52 146.843347 
L 787.64 164.019918 
L 787.92 136.949404 
L 788.2 159.403227 
L 788.48 137.211889 
L 788.76 150.119476 
L 789.6 155.720878 
L 789.88 127.404059 
L 790.16 167.33836 
L 790.44 161.816638 
L 790.72 147.003935 
L 791.56 131.454454 
L 791.84 135.735139 
L 792.12 131.30383 
L 792.68 159.982224 
L 793.52 112.755055 
L 794.08 147.748407 
L 794.64 157.120099 
L 795.48 134.209082 
L 795.76 140.28976 
L 796.04 127.372327 
L 796.32 139.230967 
L 796.6 142.061054 
L 797.44 135.749311 
L 797.72 119.564782 
L 798 134.096802 
L 799.4 153.470726 
L 799.68 147.047037 
L 799.96 136.798825 
L 800.24 143.387705 
L 800.52 141.126538 
L 801.36 144.173868 
L 801.64 140.812077 
L 801.92 150.552564 
L 802.2 126.298176 
L 802.48 146.051499 
L 803.32 135.694721 
L 803.6 144.607951 
L 803.88 135.244831 
L 804.16 134.715599 
L 804.44 137.323018 
L 805.28 166.639969 
L 805.84 127.524269 
L 807.24 154.993186 
L 807.52 143.09715 
L 807.8 143.0244 
L 808.08 146.219978 
L 809.2 164.711165 
L 809.48 108.360026 
L 809.76 143.870161 
L 810.04 143.401615 
L 810.32 126.009502 
L 811.16 149.970565 
L 811.44 134.147428 
L 811.72 145.516646 
L 812 130.246589 
L 812.28 161.448675 
L 813.4 142.986464 
L 813.68 146.42188 
L 813.96 143.729392 
L 814.24 155.747658 
L 815.08 136.818795 
L 815.36 148.109546 
L 815.64 143.576739 
L 815.92 148.378124 
L 816.2 143.465733 
L 817.04 117.6838 
L 817.32 135.925178 
L 817.6 136.360229 
L 817.88 138.247502 
L 818.16 143.127354 
L 819 126.055872 
L 819.28 143.209985 
L 819.56 139.66291 
L 819.84 150.801668 
L 820.12 129.388479 
L 821.24 124.669647 
L 821.52 132.819811 
L 821.8 154.679372 
L 822.08 148.385719 
L 822.92 122.301925 
L 823.2 128.230255 
L 823.48 130.358378 
L 823.76 167.182877 
L 824.04 164.080698 
L 824.88 152.641271 
L 825.16 150.700564 
L 825.72 120.718589 
L 826 134.424295 
L 826.84 160.000466 
L 827.68 129.073354 
L 827.96 147.495492 
L 828.8 152.326025 
L 829.08 155.275035 
L 829.36 156.741033 
L 829.64 200.284729 
L 829.92 125.456732 
L 830.76 143.129324 
L 831.04 168.908294 
L 831.32 126.833161 
L 831.6 161.126896 
L 831.88 133.589654 
L 833 148.030609 
L 833.28 148.944388 
L 833.56 131.627799 
L 834.68 157.664669 
L 834.96 138.657402 
L 835.24 142.942009 
L 835.52 144.223918 
L 835.8 146.498215 
L 836.92 143.163939 
L 837.2 124.555984 
L 837.48 139.996046 
L 837.76 146.927421 
L 838.6 143.778936 
L 838.88 152.257188 
L 839.16 156.530873 
L 839.44 140.02341 
L 839.72 141.361709 
L 840.56 143.552807 
L 840.84 133.084515 
L 841.12 136.791437 
L 841.4 137.493873 
L 841.68 164.63397 
L 842.8 124.784477 
L 843.08 147.579679 
L 843.64 141.637388 
L 844.48 141.521483 
L 844.76 135.6502 
L 845.04 134.796631 
L 845.32 176.476162 
L 845.6 130.304358 
L 846.44 136.922202 
L 847 162.77202 
L 847.28 162.826907 
L 847.56 132.23281 
L 848.4 131.496326 
L 848.68 150.458943 
L 848.96 135.039136 
L 849.24 141.263093 
L 849.52 152.021208 
L 850.64 130.94592 
L 850.92 145.473512 
L 851.2 146.260505 
L 851.48 141.15658 
L 852.32 144.721712 
L 852.6 134.518938 
L 852.88 151.551388 
L 853.16 140.755948 
L 853.44 156.095244 
L 854.28 147.456613 
L 854.56 140.403645 
L 854.84 155.50529 
L 855.12 156.658797 
L 855.4 134.226894 
L 856.24 127.495815 
L 856.52 131.813331 
L 856.8 122.433733 
L 857.36 162.309299 
L 858.2 156.143212 
L 858.48 139.38772 
L 858.76 147.679622 
L 859.04 135.976203 
L 859.32 131.155909 
L 860.44 170.732321 
L 860.72 158.004943 
L 861 129.266005 
L 861.28 136.231678 
L 862.12 138.393015 
L 862.4 134.095092 
L 862.68 162.44392 
L 862.96 158.283032 
L 863.24 145.495138 
L 864.08 192.938742 
L 864.36 136.934796 
L 864.64 126.22565 
L 865.2 143.500302 
L 866.04 138.836082 
L 866.32 149.281101 
L 866.6 143.613947 
L 866.88 133.546677 
L 867.16 137.552514 
L 868 160.398923 
L 868.28 159.484124 
L 868.56 162.499345 
L 868.84 135.28497 
L 869.12 154.126142 
L 869.96 155.773013 
L 870.24 134.603313 
L 870.52 136.904589 
L 871.08 157.465619 
L 871.92 149.749203 
L 872.2 149.966565 
L 872.48 160.835196 
L 872.76 156.799641 
L 873.04 174.072374 
L 873.88 111.509573 
L 874.16 126.736564 
L 874.44 126.724212 
L 874.72 152.814145 
L 875 139.139363 
L 875.84 137.300976 
L 876.4 148.178371 
L 876.68 134.547074 
L 876.96 145.614134 
L 878.08 155.138596 
L 878.36 141.553905 
L 878.64 152.163976 
L 878.92 135.907313 
L 879.76 138.703546 
L 880.04 144.443698 
L 880.32 130.498607 
L 880.6 142.792812 
L 880.88 147.182186 
L 881.72 158.191751 
L 882 132.86986 
L 882.28 135.885404 
L 882.56 129.825592 
L 882.84 137.582457 
L 883.68 129.541415 
L 883.96 149.815647 
L 884.24 133.711035 
L 884.52 134.164878 
L 884.8 133.225451 
L 885.64 125.769856 
L 885.92 133.091855 
L 886.2 165.316835 
L 886.48 136.049028 
L 886.76 142.448101 
L 887.6 128.089559 
L 887.88 148.015144 
L 888.44 130.578896 
L 888.72 148.445517 
L 889.56 154.627678 
L 889.84 140.302866 
L 890.12 134.90756 
L 890.4 156.490365 
L 890.68 146.151867 
L 891.8 137.478608 
L 892.08 169.628031 
L 892.36 146.755202 
L 892.64 152.281211 
L 893.76 130.729046 
L 894.04 172.64762 
L 894.32 160.834813 
L 894.6 133.089939 
L 895.44 138.271789 
L 895.72 135.7244 
L 896 164.054476 
L 896.28 148.085976 
L 896.56 155.130724 
L 897.4 143.842846 
L 897.68 136.537005 
L 897.96 166.89969 
L 898.24 140.381129 
L 898.52 177.470224 
L 899.64 126.059764 
L 899.92 149.741 
L 901.32 210.728414 
L 901.6 159.083973 
L 901.88 143.813116 
L 902.16 136.992356 
L 902.44 147.766054 
L 903.28 129.544505 
L 903.56 135.505441 
L 903.84 138.004678 
L 904.12 151.939779 
L 904.4 140.570573 
L 905.24 149.709853 
L 905.52 151.2689 
L 905.8 139.031644 
L 906.08 142.987328 
L 906.36 154.037709 
L 907.2 143.812532 
L 907.2 143.812532 
" clip-path="url(#p983da7a95b)" style="fill: none; stroke: #4d3c2f; stroke-width: 3; stroke-linecap: round"/>
   </g>
   <g id="patch_3">
    <path d="M 126 233.443636 
L 126 60.48 
" style="fill: none; stroke: #ffffff; stroke-width: 2.5; stroke-linejoin: miter; stroke-linecap: square"/>
   </g>
   <g id="patch_4">
    <path d="M 907.2 233.443636 
L 907.2 60.48 
" style="fill: none; stroke: #ffffff; stroke-width: 2.5; stroke-linejoin: miter; stroke-linecap: square"/>
   </g>
   <g id="patch_5">
    <path d="M 126 233.443636 
L 907.2 233.443636 
" style="fill: none; stroke: #ffffff; stroke-width: 2.5; stroke-linejoin: miter; stroke-linecap: square"/>
   </g>
   <g id="patch_6">
    <path d="M 126 60.48 
L 907.2 60.48 
" style="fill: none; stroke: #ffffff; stroke-width: 2.5; stroke-linejoin: miter; stroke-linecap: square"/>
   </g>
   <g id="text_4">
    <!-- Standardized Residuals -->
    <g style="fill: #262626" transform="translate(389.863125 54.48)scale(0.24 -0.24)">
     <defs>
      <path id="ArialMT-53" d="M 288 1472 
L 859 1522 
Q 900 1178 1048 958 
Q 1197 738 1509 602 
Q 1822 466 2213 466 
Q 2559 466 2825 569 
Q 3091 672 3220 851 
Q 3350 1031 3350 1244 
Q 3350 1459 3225 1620 
Q 3100 1781 2813 1891 
Q 2628 1963 1997 2114 
Q 1366 2266 1113 2400 
Q 784 2572 623 2826 
Q 463 3081 463 3397 
Q 463 3744 659 4045 
Q 856 4347 1234 4503 
Q 1613 4659 2075 4659 
Q 2584 4659 2973 4495 
Q 3363 4331 3572 4012 
Q 3781 3694 3797 3291 
L 3216 3247 
Q 3169 3681 2898 3903 
Q 2628 4125 2100 4125 
Q 1550 4125 1298 3923 
Q 1047 3722 1047 3438 
Q 1047 3191 1225 3031 
Q 1400 2872 2139 2705 
Q 2878 2538 3153 2413 
Q 3553 2228 3743 1945 
Q 3934 1663 3934 1294 
Q 3934 928 3725 604 
Q 3516 281 3123 101 
Q 2731 -78 2241 -78 
Q 1619 -78 1198 103 
Q 778 284 539 648 
Q 300 1013 288 1472 
z
" transform="scale(0.015625)"/>
      <path id="ArialMT-74" d="M 1650 503 
L 1731 6 
Q 1494 -44 1306 -44 
Q 1000 -44 831 53 
Q 663 150 594 308 
Q 525 466 525 972 
L 525 2881 
L 113 2881 
L 113 3319 
L 525 3319 
L 525 4141 
L 1084 4478 
L 1084 3319 
L 1650 3319 
L 1650 2881 
L 1084 2881 
L 1084 941 
Q 1084 700 1114 631 
Q 1144 563 1211 522 
Q 1278 481 1403 481 
Q 1497 481 1650 503 
z
" transform="scale(0.015625)"/>
      <path id="ArialMT-61" d="M 2588 409 
Q 2275 144 1986 34 
Q 1697 -75 1366 -75 
Q 819 -75 525 192 
Q 231 459 231 875 
Q 231 1119 342 1320 
Q 453 1522 633 1644 
Q 813 1766 1038 1828 
Q 1203 1872 1538 1913 
Q 2219 1994 2541 2106 
Q 2544 2222 2544 2253 
Q 2544 2597 2384 2738 
Q 2169 2928 1744 2928 
Q 1347 2928 1158 2789 
Q 969 2650 878 2297 
L 328 2372 
Q 403 2725 575 2942 
Q 747 3159 1072 3276 
Q 1397 3394 1825 3394 
Q 2250 3394 2515 3294 
Q 2781 3194 2906 3042 
Q 3031 2891 3081 2659 
Q 3109 2516 3109 2141 
L 3109 1391 
Q 3109 606 3145 398 
Q 3181 191 3288 0 
L 2700 0 
Q 2613 175 2588 409 
z
M 2541 1666 
Q 2234 1541 1622 1453 
Q 1275 1403 1131 1340 
Q 988 1278 909 1158 
Q 831 1038 831 891 
Q 831 666 1001 516 
Q 1172 366 1500 366 
Q 1825 366 2078 508 
Q 2331 650 2450 897 
Q 2541 1088 2541 1459 
L 2541 1666 
z
" transform="scale(0.015625)"/>
      <path id="ArialMT-6e" d="M 422 0 
L 422 3319 
L 928 3319 
L 928 2847 
Q 1294 3394 1984 3394 
Q 2284 3394 2536 3286 
Q 2788 3178 2913 3003 
Q 3038 2828 3088 2588 
Q 3119 2431 3119 2041 
L 3119 0 
L 2556 0 
L 2556 2019 
Q 2556 2363 2490 2533 
Q 2425 2703 2258 2804 
Q 2091 2906 1866 2906 
Q 1506 2906 1245 2678 
Q 984 2450 984 1813 
L 984 0 
L 422 0 
z
" transform="scale(0.015625)"/>
      <path id="ArialMT-64" d="M 2575 0 
L 2575 419 
Q 2259 -75 1647 -75 
Q 1250 -75 917 144 
Q 584 363 401 755 
Q 219 1147 219 1656 
Q 219 2153 384 2558 
Q 550 2963 881 3178 
Q 1213 3394 1622 3394 
Q 1922 3394 2156 3267 
Q 2391 3141 2538 2938 
L 2538 4581 
L 3097 4581 
L 3097 0 
L 2575 0 
z
M 797 1656 
Q 797 1019 1065 703 
Q 1334 388 1700 388 
Q 2069 388 2326 689 
Q 2584 991 2584 1609 
Q 2584 2291 2321 2609 
Q 2059 2928 1675 2928 
Q 1300 2928 1048 2622 
Q 797 2316 797 1656 
z
" transform="scale(0.015625)"/>
      <path id="ArialMT-72" d="M 416 0 
L 416 3319 
L 922 3319 
L 922 2816 
Q 1116 3169 1280 3281 
Q 1444 3394 1641 3394 
Q 1925 3394 2219 3213 
L 2025 2691 
Q 1819 2813 1613 2813 
Q 1428 2813 1281 2702 
Q 1134 2591 1072 2394 
Q 978 2094 978 1738 
L 978 0 
L 416 0 
z
" transform="scale(0.015625)"/>
      <path id="ArialMT-69" d="M 425 3934 
L 425 4581 
L 988 4581 
L 988 3934 
L 425 3934 
z
M 425 0 
L 425 3319 
L 988 3319 
L 988 0 
L 425 0 
z
" transform="scale(0.015625)"/>
      <path id="ArialMT-7a" d="M 125 0 
L 125 456 
L 2238 2881 
Q 1878 2863 1603 2863 
L 250 2863 
L 250 3319 
L 2963 3319 
L 2963 2947 
L 1166 841 
L 819 456 
Q 1197 484 1528 484 
L 3063 484 
L 3063 0 
L 125 0 
z
" transform="scale(0.015625)"/>
      <path id="ArialMT-65" d="M 2694 1069 
L 3275 997 
Q 3138 488 2766 206 
Q 2394 -75 1816 -75 
Q 1088 -75 661 373 
Q 234 822 234 1631 
Q 234 2469 665 2931 
Q 1097 3394 1784 3394 
Q 2450 3394 2872 2941 
Q 3294 2488 3294 1666 
Q 3294 1616 3291 1516 
L 816 1516 
Q 847 969 1125 678 
Q 1403 388 1819 388 
Q 2128 388 2347 550 
Q 2566 713 2694 1069 
z
M 847 1978 
L 2700 1978 
Q 2663 2397 2488 2606 
Q 2219 2931 1791 2931 
Q 1403 2931 1139 2672 
Q 875 2413 847 1978 
z
" transform="scale(0.015625)"/>
      <path id="ArialMT-20" transform="scale(0.015625)"/>
      <path id="ArialMT-52" d="M 503 0 
L 503 4581 
L 2534 4581 
Q 3147 4581 3465 4457 
Q 3784 4334 3975 4021 
Q 4166 3709 4166 3331 
Q 4166 2844 3850 2509 
Q 3534 2175 2875 2084 
Q 3116 1969 3241 1856 
Q 3506 1613 3744 1247 
L 4541 0 
L 3778 0 
L 3172 953 
Q 2906 1366 2734 1584 
Q 2563 1803 2427 1890 
Q 2291 1978 2150 2013 
Q 2047 2034 1813 2034 
L 1109 2034 
L 1109 0 
L 503 0 
z
M 1109 2559 
L 2413 2559 
Q 2828 2559 3062 2645 
Q 3297 2731 3419 2920 
Q 3541 3109 3541 3331 
Q 3541 3656 3305 3865 
Q 3069 4075 2559 4075 
L 1109 4075 
L 1109 2559 
z
" transform="scale(0.015625)"/>
      <path id="ArialMT-73" d="M 197 991 
L 753 1078 
Q 800 744 1014 566 
Q 1228 388 1613 388 
Q 2000 388 2187 545 
Q 2375 703 2375 916 
Q 2375 1106 2209 1216 
Q 2094 1291 1634 1406 
Q 1016 1563 777 1677 
Q 538 1791 414 1992 
Q 291 2194 291 2438 
Q 291 2659 392 2848 
Q 494 3038 669 3163 
Q 800 3259 1026 3326 
Q 1253 3394 1513 3394 
Q 1903 3394 2198 3281 
Q 2494 3169 2634 2976 
Q 2775 2784 2828 2463 
L 2278 2388 
Q 2241 2644 2061 2787 
Q 1881 2931 1553 2931 
Q 1166 2931 1000 2803 
Q 834 2675 834 2503 
Q 834 2394 903 2306 
Q 972 2216 1119 2156 
Q 1203 2125 1616 2013 
Q 2213 1853 2448 1751 
Q 2684 1650 2818 1456 
Q 2953 1263 2953 975 
Q 2953 694 2789 445 
Q 2625 197 2315 61 
Q 2006 -75 1616 -75 
Q 969 -75 630 194 
Q 291 463 197 991 
z
" transform="scale(0.015625)"/>
      <path id="ArialMT-75" d="M 2597 0 
L 2597 488 
Q 2209 -75 1544 -75 
Q 1250 -75 995 37 
Q 741 150 617 320 
Q 494 491 444 738 
Q 409 903 409 1263 
L 409 3319 
L 972 3319 
L 972 1478 
Q 972 1038 1006 884 
Q 1059 663 1231 536 
Q 1403 409 1656 409 
Q 1909 409 2131 539 
Q 2353 669 2445 892 
Q 2538 1116 2538 1541 
L 2538 3319 
L 3100 3319 
L 3100 0 
L 2597 0 
z
" transform="scale(0.015625)"/>
      <path id="ArialMT-6c" d="M 409 0 
L 409 4581 
L 972 4581 
L 972 0 
L 409 0 
z
" transform="scale(0.015625)"/>
     </defs>
     <use xlink:href="#ArialMT-53"/>
     <use xlink:href="#ArialMT-74" x="66.699219"/>
     <use xlink:href="#ArialMT-61" x="94.482422"/>
     <use xlink:href="#ArialMT-6e" x="150.097656"/>
     <use xlink:href="#ArialMT-64" x="205.712891"/>
     <use xlink:href="#ArialMT-61" x="261.328125"/>
     <use xlink:href="#ArialMT-72" x="316.943359"/>
     <use xlink:href="#ArialMT-64" x="350.244141"/>
     <use xlink:href="#ArialMT-69" x="405.859375"/>
     <use xlink:href="#ArialMT-7a" x="428.076172"/>
     <use xlink:href="#ArialMT-65" x="478.076172"/>
     <use xlink:href="#ArialMT-64" x="533.691406"/>
     <use xlink:href="#ArialMT-20" x="589.306641"/>
     <use xlink:href="#ArialMT-52" x="617.089844"/>
     <use xlink:href="#ArialMT-65" x="689.306641"/>
     <use xlink:href="#ArialMT-73" x="744.921875"/>
     <use xlink:href="#ArialMT-69" x="794.921875"/>
     <use xlink:href="#ArialMT-64" x="817.138672"/>
     <use xlink:href="#ArialMT-75" x="872.753906"/>
     <use xlink:href="#ArialMT-61" x="928.369141"/>
     <use xlink:href="#ArialMT-6c" x="983.984375"/>
     <use xlink:href="#ArialMT-73" x="1006.201172"/>
    </g>
   </g>
  </g>
  <g id="axes_2">
   <g id="patch_7">
    <path d="M 126 441 
L 907.2 441 
L 907.2 268.036364 
L 126 268.036364 
z
" style="fill: #e5e5e5"/>
   </g>
   <g id="matplotlib.axis_3">
    <g id="xtick_8">
     <g id="line2d_12">
      <path d="M 194.6 441 
L 194.6 268.036364 
" clip-path="url(#pc315531234)" style="fill: none; stroke: #ffffff; stroke-width: 2; stroke-linecap: round"/>
     </g>
     <g id="text_5">
      <!-- 2015 -->
      <g style="fill: #555555" transform="translate(170.131875 472.247187)scale(0.22 -0.22)">
       <defs>
        <path id="ArialMT-32" d="M 3222 541 
L 3222 0 
L 194 0 
Q 188 203 259 391 
Q 375 700 629 1000 
Q 884 1300 1366 1694 
Q 2113 2306 2375 2664 
Q 2638 3022 2638 3341 
Q 2638 3675 2398 3904 
Q 2159 4134 1775 4134 
Q 1369 4134 1125 3890 
Q 881 3647 878 3216 
L 300 3275 
Q 359 3922 746 4261 
Q 1134 4600 1788 4600 
Q 2447 4600 2831 4234 
Q 3216 3869 3216 3328 
Q 3216 3053 3103 2787 
Q 2991 2522 2730 2228 
Q 2469 1934 1863 1422 
Q 1356 997 1212 845 
Q 1069 694 975 541 
L 3222 541 
z
" transform="scale(0.015625)"/>
        <path id="ArialMT-31" d="M 2384 0 
L 1822 0 
L 1822 3584 
Q 1619 3391 1289 3197 
Q 959 3003 697 2906 
L 697 3450 
Q 1169 3672 1522 3987 
Q 1875 4303 2022 4600 
L 2384 4600 
L 2384 0 
z
" transform="scale(0.015625)"/>
       </defs>
       <use xlink:href="#ArialMT-32"/>
       <use xlink:href="#ArialMT-30" x="55.615234"/>
       <use xlink:href="#ArialMT-31" x="111.230469"/>
       <use xlink:href="#ArialMT-35" x="166.845703"/>
      </g>
     </g>
    </g>
    <g id="xtick_9">
     <g id="line2d_13">
      <path d="M 296.8 441 
L 296.8 268.036364 
" clip-path="url(#pc315531234)" style="fill: none; stroke: #ffffff; stroke-width: 2; stroke-linecap: round"/>
     </g>
     <g id="text_6">
      <!-- 2016 -->
      <g style="fill: #555555" transform="translate(272.331875 472.247187)scale(0.22 -0.22)">
       <defs>
        <path id="ArialMT-36" d="M 3184 3459 
L 2625 3416 
Q 2550 3747 2413 3897 
Q 2184 4138 1850 4138 
Q 1581 4138 1378 3988 
Q 1113 3794 959 3422 
Q 806 3050 800 2363 
Q 1003 2672 1297 2822 
Q 1591 2972 1913 2972 
Q 2475 2972 2870 2558 
Q 3266 2144 3266 1488 
Q 3266 1056 3080 686 
Q 2894 316 2569 119 
Q 2244 -78 1831 -78 
Q 1128 -78 684 439 
Q 241 956 241 2144 
Q 241 3472 731 4075 
Q 1159 4600 1884 4600 
Q 2425 4600 2770 4297 
Q 3116 3994 3184 3459 
z
M 888 1484 
Q 888 1194 1011 928 
Q 1134 663 1356 523 
Q 1578 384 1822 384 
Q 2178 384 2434 671 
Q 2691 959 2691 1453 
Q 2691 1928 2437 2201 
Q 2184 2475 1800 2475 
Q 1419 2475 1153 2201 
Q 888 1928 888 1484 
z
" transform="scale(0.015625)"/>
       </defs>
       <use xlink:href="#ArialMT-32"/>
       <use xlink:href="#ArialMT-30" x="55.615234"/>
       <use xlink:href="#ArialMT-31" x="111.230469"/>
       <use xlink:href="#ArialMT-36" x="166.845703"/>
      </g>
     </g>
    </g>
    <g id="xtick_10">
     <g id="line2d_14">
      <path d="M 399.28 441 
L 399.28 268.036364 
" clip-path="url(#pc315531234)" style="fill: none; stroke: #ffffff; stroke-width: 2; stroke-linecap: round"/>
     </g>
     <g id="text_7">
      <!-- 2017 -->
      <g style="fill: #555555" transform="translate(374.811875 472.247187)scale(0.22 -0.22)">
       <defs>
        <path id="ArialMT-37" d="M 303 3981 
L 303 4522 
L 3269 4522 
L 3269 4084 
Q 2831 3619 2401 2847 
Q 1972 2075 1738 1259 
Q 1569 684 1522 0 
L 944 0 
Q 953 541 1156 1306 
Q 1359 2072 1739 2783 
Q 2119 3494 2547 3981 
L 303 3981 
z
" transform="scale(0.015625)"/>
       </defs>
       <use xlink:href="#ArialMT-32"/>
       <use xlink:href="#ArialMT-30" x="55.615234"/>
       <use xlink:href="#ArialMT-31" x="111.230469"/>
       <use xlink:href="#ArialMT-37" x="166.845703"/>
      </g>
     </g>
    </g>
    <g id="xtick_11">
     <g id="line2d_15">
      <path d="M 501.48 441 
L 501.48 268.036364 
" clip-path="url(#pc315531234)" style="fill: none; stroke: #ffffff; stroke-width: 2; stroke-linecap: round"/>
     </g>
     <g id="text_8">
      <!-- 2018 -->
      <g style="fill: #555555" transform="translate(477.011875 472.247187)scale(0.22 -0.22)">
       <defs>
        <path id="ArialMT-38" d="M 1131 2484 
Q 781 2613 612 2850 
Q 444 3088 444 3419 
Q 444 3919 803 4259 
Q 1163 4600 1759 4600 
Q 2359 4600 2725 4251 
Q 3091 3903 3091 3403 
Q 3091 3084 2923 2848 
Q 2756 2613 2416 2484 
Q 2838 2347 3058 2040 
Q 3278 1734 3278 1309 
Q 3278 722 2862 322 
Q 2447 -78 1769 -78 
Q 1091 -78 675 323 
Q 259 725 259 1325 
Q 259 1772 486 2073 
Q 713 2375 1131 2484 
z
M 1019 3438 
Q 1019 3113 1228 2906 
Q 1438 2700 1772 2700 
Q 2097 2700 2305 2904 
Q 2513 3109 2513 3406 
Q 2513 3716 2298 3927 
Q 2084 4138 1766 4138 
Q 1444 4138 1231 3931 
Q 1019 3725 1019 3438 
z
M 838 1322 
Q 838 1081 952 856 
Q 1066 631 1291 507 
Q 1516 384 1775 384 
Q 2178 384 2440 643 
Q 2703 903 2703 1303 
Q 2703 1709 2433 1975 
Q 2163 2241 1756 2241 
Q 1359 2241 1098 1978 
Q 838 1716 838 1322 
z
" transform="scale(0.015625)"/>
       </defs>
       <use xlink:href="#ArialMT-32"/>
       <use xlink:href="#ArialMT-30" x="55.615234"/>
       <use xlink:href="#ArialMT-31" x="111.230469"/>
       <use xlink:href="#ArialMT-38" x="166.845703"/>
      </g>
     </g>
    </g>
    <g id="xtick_12">
     <g id="line2d_16">
      <path d="M 603.68 441 
L 603.68 268.036364 
" clip-path="url(#pc315531234)" style="fill: none; stroke: #ffffff; stroke-width: 2; stroke-linecap: round"/>
     </g>
     <g id="text_9">
      <!-- 2019 -->
      <g style="fill: #555555" transform="translate(579.211875 472.247187)scale(0.22 -0.22)">
       <defs>
        <path id="ArialMT-39" d="M 350 1059 
L 891 1109 
Q 959 728 1153 556 
Q 1347 384 1650 384 
Q 1909 384 2104 503 
Q 2300 622 2425 820 
Q 2550 1019 2634 1356 
Q 2719 1694 2719 2044 
Q 2719 2081 2716 2156 
Q 2547 1888 2255 1720 
Q 1963 1553 1622 1553 
Q 1053 1553 659 1965 
Q 266 2378 266 3053 
Q 266 3750 677 4175 
Q 1088 4600 1706 4600 
Q 2153 4600 2523 4359 
Q 2894 4119 3086 3673 
Q 3278 3228 3278 2384 
Q 3278 1506 3087 986 
Q 2897 466 2520 194 
Q 2144 -78 1638 -78 
Q 1100 -78 759 220 
Q 419 519 350 1059 
z
M 2653 3081 
Q 2653 3566 2395 3850 
Q 2138 4134 1775 4134 
Q 1400 4134 1122 3828 
Q 844 3522 844 3034 
Q 844 2597 1108 2323 
Q 1372 2050 1759 2050 
Q 2150 2050 2401 2323 
Q 2653 2597 2653 3081 
z
" transform="scale(0.015625)"/>
       </defs>
       <use xlink:href="#ArialMT-32"/>
       <use xlink:href="#ArialMT-30" x="55.615234"/>
       <use xlink:href="#ArialMT-31" x="111.230469"/>
       <use xlink:href="#ArialMT-39" x="166.845703"/>
      </g>
     </g>
    </g>
    <g id="xtick_13">
     <g id="line2d_17">
      <path d="M 705.88 441 
L 705.88 268.036364 
" clip-path="url(#pc315531234)" style="fill: none; stroke: #ffffff; stroke-width: 2; stroke-linecap: round"/>
     </g>
     <g id="text_10">
      <!-- 2020 -->
      <g style="fill: #555555" transform="translate(681.411875 472.247187)scale(0.22 -0.22)">
       <use xlink:href="#ArialMT-32"/>
       <use xlink:href="#ArialMT-30" x="55.615234"/>
       <use xlink:href="#ArialMT-32" x="111.230469"/>
       <use xlink:href="#ArialMT-30" x="166.845703"/>
      </g>
     </g>
    </g>
    <g id="xtick_14">
     <g id="line2d_18">
      <path d="M 808.36 441 
L 808.36 268.036364 
" clip-path="url(#pc315531234)" style="fill: none; stroke: #ffffff; stroke-width: 2; stroke-linecap: round"/>
     </g>
     <g id="text_11">
      <!-- 2021 -->
      <g style="fill: #555555" transform="translate(783.891875 472.247187)scale(0.22 -0.22)">
       <use xlink:href="#ArialMT-32"/>
       <use xlink:href="#ArialMT-30" x="55.615234"/>
       <use xlink:href="#ArialMT-32" x="111.230469"/>
       <use xlink:href="#ArialMT-31" x="166.845703"/>
      </g>
     </g>
    </g>
   </g>
   <g id="matplotlib.axis_4">
    <g id="ytick_4">
     <g id="line2d_19">
      <path d="M 126 400.828504 
L 907.2 400.828504 
" clip-path="url(#pc315531234)" style="fill: none; stroke: #ffffff; stroke-width: 2; stroke-linecap: round"/>
     </g>
     <g id="text_12">
      <!-- 2.5 -->
      <g style="fill: #555555" transform="translate(79.92 408.702097)scale(0.22 -0.22)">
       <defs>
        <path id="ArialMT-2e" d="M 581 0 
L 581 641 
L 1222 641 
L 1222 0 
L 581 0 
z
" transform="scale(0.015625)"/>
       </defs>
       <use xlink:href="#ArialMT-32"/>
       <use xlink:href="#ArialMT-2e" x="55.615234"/>
       <use xlink:href="#ArialMT-35" x="83.398438"/>
      </g>
     </g>
    </g>
    <g id="ytick_5">
     <g id="line2d_20">
      <path d="M 126 353.472254 
L 907.2 353.472254 
" clip-path="url(#pc315531234)" style="fill: none; stroke: #ffffff; stroke-width: 2; stroke-linecap: round"/>
     </g>
     <g id="text_13">
      <!-- 5.0 -->
      <g style="fill: #555555" transform="translate(79.92 361.345848)scale(0.22 -0.22)">
       <use xlink:href="#ArialMT-35"/>
       <use xlink:href="#ArialMT-2e" x="55.615234"/>
       <use xlink:href="#ArialMT-30" x="83.398438"/>
      </g>
     </g>
    </g>
    <g id="ytick_6">
     <g id="line2d_21">
      <path d="M 126 306.116004 
L 907.2 306.116004 
" clip-path="url(#pc315531234)" style="fill: none; stroke: #ffffff; stroke-width: 2; stroke-linecap: round"/>
     </g>
     <g id="text_14">
      <!-- 7.5 -->
      <g style="fill: #555555" transform="translate(79.92 313.989598)scale(0.22 -0.22)">
       <use xlink:href="#ArialMT-37"/>
       <use xlink:href="#ArialMT-2e" x="55.615234"/>
       <use xlink:href="#ArialMT-35" x="83.398438"/>
      </g>
     </g>
    </g>
   </g>
   <g id="line2d_22">
    <path d="M 126 433.138017 
L 127.12 432.917522 
L 127.4 432.66101 
L 127.68 432.187348 
L 127.96 429.512061 
L 128.24 429.620413 
L 129.36 429.813834 
L 129.64 429.010112 
L 129.92 429.099259 
L 130.2 428.83373 
L 131.32 429.27732 
L 132.16 429.988942 
L 134.12 430.343839 
L 134.96 429.016986 
L 135.24 429.303375 
L 135.52 428.978037 
L 135.8 429.035295 
L 136.92 428.474795 
L 137.76 428.81968 
L 138.04 422.122758 
L 138.88 422.929292 
L 139.44 424.270189 
L 139.72 424.329866 
L 140 424.914467 
L 141.12 425.800895 
L 141.4 426.31824 
L 141.68 425.921711 
L 141.96 426.124934 
L 142.8 426.0449 
L 143.08 425.445531 
L 143.36 426.051274 
L 143.64 426.261344 
L 144.76 426.611953 
L 145.04 425.595537 
L 145.32 425.105801 
L 145.6 425.545607 
L 145.88 425.630222 
L 146.72 425.427049 
L 147 424.909248 
L 147.28 425.125877 
L 147.84 426.163588 
L 148.68 426.449144 
L 149.24 427.176648 
L 149.52 426.938886 
L 149.8 427.377269 
L 150.64 426.179771 
L 150.92 426.096362 
L 151.2 426.494846 
L 151.48 426.68536 
L 151.76 427.19414 
L 152.6 427.351725 
L 152.88 427.761775 
L 153.16 427.487764 
L 153.44 426.409862 
L 154.56 425.844658 
L 154.84 426.40159 
L 155.12 425.368942 
L 155.4 423.327039 
L 155.68 419.716502 
L 156.52 420.568278 
L 156.8 420.545589 
L 157.64 423.030073 
L 158.48 423.788574 
L 159.04 425.146814 
L 159.6 425.809589 
L 160.72 425.613956 
L 161 418.51251 
L 161.28 417.164987 
L 161.56 418.316652 
L 162.4 419.085924 
L 162.96 420.527419 
L 163.24 420.518308 
L 163.52 421.284467 
L 164.36 422.156586 
L 164.64 422.846554 
L 164.92 422.93966 
L 165.2 423.481713 
L 165.48 423.590695 
L 166.6 424.335231 
L 167.44 426.15003 
L 168.56 426.596881 
L 168.84 424.328189 
L 169.4 424.906203 
L 170.24 424.780737 
L 170.52 425.258248 
L 170.8 424.825707 
L 171.08 424.744697 
L 171.36 421.007074 
L 172.2 419.84457 
L 172.48 420.497566 
L 172.76 416.907014 
L 173.04 417.55422 
L 173.32 418.669374 
L 174.16 418.72637 
L 174.44 419.175303 
L 174.72 419.252276 
L 175 412.91574 
L 175.28 413.919545 
L 176.4 415.75869 
L 176.96 417.422363 
L 177.24 418.459605 
L 178.08 419.159893 
L 178.36 418.226372 
L 178.64 418.92108 
L 178.92 417.820249 
L 179.2 417.714107 
L 180.04 415.765889 
L 180.32 416.580487 
L 180.6 417.803907 
L 180.88 417.490415 
L 181.16 413.756035 
L 182 413.949005 
L 182.28 413.730621 
L 183.12 415.322652 
L 183.96 415.978547 
L 184.24 415.496523 
L 184.52 416.702687 
L 185.08 417.711947 
L 185.92 387.168605 
L 186.2 387.951723 
L 186.48 387.787523 
L 186.76 389.655563 
L 187.04 392.281887 
L 187.88 394.973411 
L 188.16 395.437202 
L 188.44 396.832446 
L 189 398.247969 
L 189.84 399.308539 
L 190.12 399.355313 
L 190.4 401.298968 
L 190.68 402.16188 
L 190.96 401.041727 
L 191.8 402.677707 
L 192.08 402.642522 
L 192.36 363.908279 
L 192.92 343.294426 
L 193.76 348.629478 
L 194.04 349.064714 
L 194.32 353.924688 
L 194.88 358.343431 
L 195.72 362.758742 
L 196.56 374.187282 
L 196.84 377.781745 
L 197.68 380.975653 
L 198.24 384.966584 
L 198.52 387.447746 
L 198.8 388.581369 
L 199.92 389.508849 
L 200.2 391.448316 
L 200.76 396.666256 
L 201.6 398.932485 
L 202.44 405.141336 
L 202.72 406.625042 
L 203.84 393.763463 
L 204.12 391.916145 
L 204.4 391.313076 
L 204.68 393.196536 
L 205.52 394.428681 
L 206.36 400.088764 
L 206.64 393.964439 
L 207.76 393.990663 
L 208.32 399.032576 
L 208.6 399.869049 
L 209.44 390.655751 
L 209.72 390.489272 
L 210 368.930248 
L 210.28 372.930343 
L 210.56 373.701833 
L 211.4 373.759456 
L 211.68 368.234375 
L 211.96 370.399246 
L 212.24 370.026011 
L 212.52 373.400837 
L 213.36 376.939773 
L 213.64 377.430484 
L 214.2 384.031233 
L 214.48 384.623384 
L 215.32 382.210265 
L 215.88 388.010701 
L 216.16 381.416581 
L 216.44 380.258468 
L 217.28 383.629423 
L 217.56 386.804609 
L 218.12 389.869109 
L 218.4 377.558576 
L 219.24 376.382673 
L 219.8 382.501474 
L 220.08 384.786321 
L 221.2 384.533236 
L 221.48 381.100459 
L 221.76 383.713667 
L 222.04 382.262347 
L 222.32 384.582077 
L 223.16 385.029155 
L 223.72 390.676106 
L 224 388.091797 
L 224.28 390.19389 
L 225.12 392.712098 
L 225.68 397.088406 
L 225.96 399.068927 
L 226.24 399.572613 
L 227.08 401.830735 
L 227.92 407.494093 
L 228.2 407.896616 
L 229.04 409.535229 
L 229.32 411.162556 
L 229.6 410.593155 
L 229.88 411.578552 
L 230.16 410.455007 
L 231 412.066008 
L 231.28 413.425312 
L 231.56 411.498617 
L 232.12 414.289302 
L 232.96 415.66621 
L 233.24 416.580572 
L 233.52 412.595017 
L 233.8 414.079573 
L 234.08 412.450385 
L 235.2 413.060508 
L 235.48 410.372258 
L 235.76 409.277319 
L 236.04 410.865416 
L 236.88 404.533743 
L 237.44 407.222964 
L 237.72 404.097337 
L 238 402.990929 
L 238.84 404.552416 
L 239.12 406.512505 
L 239.4 404.347411 
L 239.96 406.468507 
L 240.8 406.213176 
L 241.36 408.482799 
L 241.92 411.160074 
L 242.76 408.603626 
L 243.04 410.299494 
L 243.32 408.721639 
L 243.6 408.537287 
L 243.88 409.76998 
L 244.72 411.437779 
L 245 412.439911 
L 245.56 410.196458 
L 246.68 411.661299 
L 246.96 394.170202 
L 247.52 399.100777 
L 247.8 400.060717 
L 248.92 403.098404 
L 249.2 405.152219 
L 249.48 400.192615 
L 249.76 402.390337 
L 250.6 404.431835 
L 250.88 406.103744 
L 251.16 406.70297 
L 251.72 409.777853 
L 252.56 410.414301 
L 252.84 407.351373 
L 253.68 412.228352 
L 254.52 413.250225 
L 254.8 408.429937 
L 255.08 409.200379 
L 255.64 411.774597 
L 256.48 412.643897 
L 256.76 410.494109 
L 257.04 411.321994 
L 257.32 411.671242 
L 257.6 412.49273 
L 258.44 413.043837 
L 259 415.554939 
L 259.28 413.624304 
L 259.56 413.539416 
L 260.4 412.994199 
L 260.68 403.750524 
L 260.96 404.914549 
L 261.24 406.844099 
L 261.52 384.324306 
L 262.36 377.96588 
L 262.64 374.638346 
L 262.92 369.503901 
L 263.2 371.667487 
L 263.48 375.439436 
L 264.6 378.333949 
L 264.88 381.817111 
L 265.16 382.020107 
L 265.44 384.259551 
L 266.28 386.434353 
L 266.56 386.631241 
L 266.84 389.619178 
L 267.12 389.071135 
L 267.4 391.788693 
L 268.24 393.691433 
L 268.52 396.211744 
L 269.08 399.262937 
L 270.2 402.290306 
L 270.48 401.382884 
L 270.76 402.452605 
L 271.04 404.196054 
L 272.44 406.610019 
L 272.72 401.664193 
L 273 402.007132 
L 273.28 403.46171 
L 274.12 404.675267 
L 274.4 396.876223 
L 274.68 397.948152 
L 274.96 400.24642 
L 276.08 402.115651 
L 276.36 400.393085 
L 276.92 404.69985 
L 277.2 404.194364 
L 278.04 405.205327 
L 278.32 406.102262 
L 278.6 407.827558 
L 278.88 399.757879 
L 279.16 401.731837 
L 280 402.953079 
L 280.28 404.892824 
L 280.84 397.067453 
L 281.12 398.73228 
L 281.96 383.206626 
L 282.24 370.713959 
L 282.8 377.426164 
L 283.08 378.117227 
L 283.92 380.690763 
L 284.76 389.454603 
L 285.04 392.02369 
L 285.88 394.63037 
L 287 400.4687 
L 287.84 397.730955 
L 288.4 401.823181 
L 288.68 394.857911 
L 288.96 394.211621 
L 289.8 393.870051 
L 290.08 387.453805 
L 290.64 391.814902 
L 290.92 392.055468 
L 292.04 380.4803 
L 292.32 382.49461 
L 292.6 381.897151 
L 292.88 385.044055 
L 293.72 388.15363 
L 294.28 393.760527 
L 294.56 391.476191 
L 295.68 394.188946 
L 295.96 396.771581 
L 296.24 382.510212 
L 297.92 370.314396 
L 298.2 374.231078 
L 298.48 374.127168 
L 298.76 376.693846 
L 299.88 376.60052 
L 300.44 378.59926 
L 300.72 381.999761 
L 301.84 378.356539 
L 302.12 378.038907 
L 302.4 377.932432 
L 302.68 378.358305 
L 303.8 335.059308 
L 304.08 333.979354 
L 304.64 343.428633 
L 305.48 348.679009 
L 306.04 356.207759 
L 306.32 350.908958 
L 306.6 355.820903 
L 307.44 358.437417 
L 307.72 362.736383 
L 308 356.436298 
L 308.56 364.442277 
L 309.68 360.982226 
L 309.96 365.413713 
L 310.24 364.401903 
L 310.52 368.540602 
L 311.36 368.048756 
L 311.92 372.732853 
L 312.2 374.133277 
L 312.48 377.736569 
L 313.32 381.227135 
L 313.6 382.909346 
L 314.44 391.295012 
L 315.28 388.678654 
L 315.56 384.40363 
L 316.4 390.380735 
L 317.24 393.013402 
L 317.52 394.555008 
L 318.08 324.868974 
L 318.36 330.840361 
L 319.2 336.903707 
L 319.76 347.977659 
L 320.04 350.104549 
L 321.16 350.627968 
L 321.44 348.910992 
L 322 352.969495 
L 322.28 357.625505 
L 323.12 359.229141 
L 323.4 357.47586 
L 323.68 361.750785 
L 323.96 358.561142 
L 324.24 363.058792 
L 325.08 357.324753 
L 325.36 361.232331 
L 325.64 359.564455 
L 326.2 367.797592 
L 327.04 371.429049 
L 327.6 378.190973 
L 327.88 375.201735 
L 328.16 378.381967 
L 329 381.860104 
L 329.28 384.994022 
L 329.56 386.28601 
L 329.84 386.458018 
L 330.12 388.385675 
L 331.24 392.035249 
L 331.8 396.462176 
L 332.08 398.923699 
L 332.92 401.24244 
L 333.48 387.048031 
L 333.76 385.294959 
L 334.04 387.886888 
L 334.88 390.095157 
L 335.16 389.712623 
L 335.44 391.495618 
L 336 396.761372 
L 336.84 398.825094 
L 337.68 403.846061 
L 337.96 405.338991 
L 339.08 407.218758 
L 339.36 409.003602 
L 339.92 411.251009 
L 340.76 412.390302 
L 341.04 413.356619 
L 341.6 410.62923 
L 341.88 410.843347 
L 342.72 409.798508 
L 343.28 412.57124 
L 343.84 408.214531 
L 344.68 407.561716 
L 344.96 406.80718 
L 345.24 407.129998 
L 345.52 408.377642 
L 345.8 408.996823 
L 346.64 402.70895 
L 346.92 403.097931 
L 347.2 402.912273 
L 347.76 395.432895 
L 348.88 393.80031 
L 349.16 389.51512 
L 349.44 391.537171 
L 349.72 387.845214 
L 350.56 389.196766 
L 350.84 391.304329 
L 351.4 393.214227 
L 351.68 389.426763 
L 352.52 392.285994 
L 353.36 398.093116 
L 353.64 399.235838 
L 354.48 399.627685 
L 355.04 400.966662 
L 355.6 403.72138 
L 356.44 405.742943 
L 357 408.335066 
L 357.28 406.226039 
L 357.56 407.540662 
L 358.68 409.934447 
L 359.24 412.417145 
L 359.52 406.76462 
L 360.36 405.664216 
L 360.64 392.082062 
L 361.2 396.258728 
L 361.48 396.716688 
L 362.6 399.671598 
L 363.16 403.819673 
L 363.44 404.995089 
L 364.28 406.640068 
L 364.84 409.336314 
L 365.12 400.90811 
L 365.4 402.368733 
L 366.52 404.313589 
L 367.08 407.655503 
L 367.36 404.075125 
L 368.2 400.124449 
L 368.76 404.163799 
L 369.04 402.931087 
L 369.32 403.363859 
L 370.16 405.418316 
L 370.72 409.093184 
L 371 407.98515 
L 371.28 409.49128 
L 372.12 407.564652 
L 372.4 408.006786 
L 372.68 407.530192 
L 372.96 397.927635 
L 374.08 398.06185 
L 374.36 397.6746 
L 374.92 400.983826 
L 375.2 399.162068 
L 376.32 400.267569 
L 376.88 403.946159 
L 377.16 405.862468 
L 378 407.634956 
L 378.84 411.725667 
L 379.12 412.159954 
L 379.96 413.195106 
L 380.24 414.635766 
L 380.52 414.564184 
L 380.8 415.918765 
L 381.08 416.652299 
L 381.92 416.801502 
L 382.2 409.873155 
L 382.48 410.017422 
L 382.76 411.421684 
L 383.04 405.653205 
L 383.88 406.618994 
L 384.72 410.883252 
L 385 411.275997 
L 385.84 410.8006 
L 386.12 412.158477 
L 386.4 405.200209 
L 386.96 406.885151 
L 387.8 407.920026 
L 388.08 399.176287 
L 388.36 401.461 
L 389.76 403.187704 
L 390.04 405.117368 
L 390.32 404.325162 
L 390.88 390.277383 
L 391.72 392.883755 
L 392.28 396.687714 
L 392.84 400.871442 
L 393.68 403.023404 
L 393.96 402.449632 
L 394.24 403.993332 
L 394.52 404.547917 
L 394.8 406.532581 
L 395.64 407.125039 
L 396.2 409.744604 
L 396.48 408.56523 
L 396.76 409.89092 
L 397.88 409.381539 
L 398.16 409.019609 
L 398.72 411.694362 
L 400.12 413.69721 
L 400.68 416.289595 
L 401.52 417.545302 
L 401.8 409.012624 
L 402.08 409.349038 
L 402.36 406.405183 
L 402.64 407.603324 
L 403.76 408.722396 
L 404.04 410.402084 
L 404.32 409.55035 
L 404.6 411.150853 
L 405.44 411.475459 
L 406 414.076097 
L 406.28 414.621514 
L 406.56 414.714189 
L 407.4 414.819397 
L 407.96 416.89386 
L 408.24 411.723791 
L 408.52 413.18499 
L 409.36 414.617567 
L 409.64 412.13581 
L 410.2 414.661759 
L 410.48 415.976335 
L 411.32 416.089976 
L 411.6 413.897336 
L 412.16 415.922467 
L 413.56 417.175407 
L 413.84 414.960973 
L 414.12 414.886334 
L 414.4 415.109674 
L 415.24 416.038846 
L 415.8 418.363754 
L 416.08 418.29344 
L 416.36 415.022101 
L 417.2 416.227695 
L 417.48 416.987483 
L 417.76 418.123088 
L 418.04 413.797871 
L 418.32 413.371561 
L 419.16 412.51485 
L 420.28 415.623485 
L 421.12 416.867573 
L 421.68 418.9014 
L 422.24 420.754391 
L 423.08 420.952121 
L 423.36 421.831428 
L 423.64 421.73177 
L 423.92 421.32619 
L 424.2 421.690303 
L 425.04 421.950023 
L 425.32 409.793776 
L 425.6 409.311354 
L 425.88 411.009993 
L 426.16 400.546641 
L 427 402.738566 
L 427.28 404.018982 
L 427.84 407.669063 
L 428.96 409.447977 
L 429.52 412.18839 
L 429.8 410.364535 
L 430.08 411.912678 
L 430.92 411.559209 
L 431.2 412.823616 
L 431.76 413.868676 
L 432.04 410.707545 
L 432.88 412.066852 
L 433.72 415.01834 
L 434 407.352979 
L 434.84 405.374712 
L 435.4 408.65356 
L 435.68 408.634328 
L 435.96 409.74956 
L 436.8 411.391609 
L 437.92 415.664242 
L 438.76 413.610633 
L 439.6 415.878281 
L 439.88 410.057112 
L 441 411.309347 
L 441.28 412.355617 
L 441.56 409.406643 
L 441.84 410.322258 
L 442.68 411.646055 
L 442.96 400.337095 
L 443.52 396.140674 
L 443.8 398.610729 
L 444.64 400.793239 
L 444.92 402.852357 
L 445.2 403.599439 
L 445.76 402.382544 
L 446.6 404.012374 
L 447.16 406.747247 
L 447.44 405.561711 
L 447.72 407.333167 
L 448.56 408.993089 
L 448.84 410.658697 
L 449.12 410.927497 
L 449.4 410.420673 
L 449.68 411.892515 
L 451.08 408.58076 
L 451.64 411.495992 
L 452.48 410.55401 
L 452.76 411.992169 
L 453.04 411.912188 
L 453.6 414.586338 
L 454.44 413.119914 
L 454.72 413.503346 
L 455 414.691804 
L 455.28 411.507047 
L 455.56 412.940257 
L 456.4 411.835004 
L 456.68 413.323435 
L 456.96 409.240563 
L 457.24 409.33538 
L 457.52 410.941285 
L 458.36 410.063959 
L 458.92 411.708366 
L 459.48 414.045703 
L 460.32 415.348869 
L 460.88 417.541115 
L 461.16 416.977723 
L 461.44 416.111304 
L 462.28 417.237997 
L 462.56 416.282675 
L 462.84 417.435166 
L 463.12 416.646183 
L 463.4 417.794571 
L 464.24 414.215813 
L 464.52 409.511891 
L 464.8 410.448867 
L 465.36 409.976601 
L 466.2 411.549111 
L 466.48 411.501966 
L 466.76 412.004042 
L 467.04 413.510423 
L 467.32 387.10284 
L 468.44 387.704157 
L 469.28 395.168191 
L 470.12 397.246644 
L 470.4 398.828802 
L 470.68 401.153657 
L 470.96 400.535449 
L 471.24 392.996012 
L 472.08 395.650012 
L 472.64 399.69536 
L 472.92 400.828786 
L 473.2 402.916684 
L 474.04 404.851232 
L 474.32 403.492665 
L 474.88 407.039351 
L 475.16 402.571921 
L 476 404.257768 
L 476.28 387.210882 
L 477.12 394.842887 
L 478.24 394.330539 
L 478.52 395.736812 
L 479.08 400.416939 
L 479.92 401.815122 
L 480.2 402.920573 
L 481.04 408.710935 
L 481.88 409.908256 
L 482.16 410.52896 
L 482.44 409.29575 
L 483 412.315551 
L 483.84 412.23641 
L 484.4 415.143352 
L 484.68 415.602585 
L 484.96 416.899814 
L 485.8 417.273028 
L 486.08 415.771593 
L 486.36 417.028211 
L 486.64 417.56996 
L 486.92 417.678387 
L 487.76 418.838545 
L 488.04 419.868947 
L 488.32 418.257627 
L 488.88 420.178945 
L 490 419.730867 
L 490.28 420.75121 
L 490.84 421.700327 
L 491.68 422.16752 
L 492.24 423.759964 
L 492.52 423.323294 
L 493.64 418.534112 
L 493.92 415.591291 
L 494.2 415.802573 
L 494.48 411.430056 
L 494.76 411.566013 
L 495.6 411.459808 
L 495.88 412.413202 
L 496.16 413.901187 
L 496.44 414.053987 
L 496.72 415.422785 
L 497.56 416.585665 
L 497.84 417.171457 
L 498.68 420.213915 
L 499.8 420.436052 
L 500.08 413.098801 
L 500.36 414.484411 
L 500.64 415.21333 
L 501.76 416.009036 
L 502.04 417.125183 
L 502.32 415.322047 
L 502.6 416.315266 
L 503.44 417.541038 
L 504.56 421.246484 
L 505.68 421.986001 
L 505.96 422.006222 
L 506.52 423.568138 
L 507.36 424.295486 
L 507.64 424.990649 
L 507.92 423.696977 
L 508.48 424.872388 
L 509.32 424.173419 
L 509.6 422.707462 
L 509.88 422.649104 
L 510.44 423.966871 
L 511.28 419.618143 
L 511.56 418.8194 
L 511.84 419.137017 
L 512.12 414.490335 
L 512.4 413.544837 
L 513.24 413.67713 
L 513.8 414.799373 
L 514.08 413.941898 
L 514.36 415.232496 
L 515.48 415.991523 
L 516.04 418.192166 
L 516.32 418.075878 
L 517.16 417.316262 
L 517.72 418.838135 
L 518 411.813249 
L 518.28 413.271407 
L 519.12 414.719605 
L 519.4 415.773678 
L 520.24 417.801741 
L 521.08 418.750373 
L 521.36 419.256016 
L 521.64 416.694333 
L 522.2 418.764767 
L 523.04 419.423459 
L 523.32 420.446782 
L 523.6 420.142827 
L 523.88 409.461472 
L 524.16 410.481716 
L 525 411.42353 
L 525.28 412.723293 
L 525.84 414.193274 
L 526.96 415.558017 
L 527.24 415.61047 
L 528.08 418.911444 
L 528.92 419.359734 
L 529.2 417.643356 
L 529.48 412.265102 
L 529.76 412.515481 
L 530.04 413.853421 
L 531.16 415.22639 
L 531.44 416.229203 
L 531.72 414.783793 
L 532 415.836416 
L 532.84 417.12234 
L 533.4 418.983337 
L 533.68 420.031392 
L 533.96 420.378173 
L 534.8 420.686822 
L 535.08 420.910928 
L 535.36 417.970959 
L 535.92 419.920617 
L 536.76 419.269525 
L 537.32 421.00238 
L 537.6 419.382402 
L 537.88 420.41569 
L 538.72 421.384848 
L 539 421.412874 
L 539.28 422.102396 
L 539.56 422.262488 
L 539.84 422.590625 
L 540.68 423.116215 
L 541.24 424.42383 
L 541.52 424.800298 
L 541.8 424.400188 
L 542.92 419.603679 
L 543.2 420.120161 
L 543.48 418.310783 
L 543.76 418.732423 
L 544.6 418.368359 
L 545.16 419.422991 
L 545.44 420.460343 
L 545.72 419.264777 
L 546.84 419.850608 
L 547.12 420.805968 
L 547.4 420.44208 
L 547.68 420.498509 
L 548.52 413.586042 
L 548.8 412.357385 
L 549.08 413.760926 
L 549.64 415.393793 
L 550.48 414.444191 
L 551.04 416.186484 
L 551.32 416.135061 
L 551.6 417.401431 
L 552.44 417.183755 
L 552.72 415.144099 
L 553.56 416.738246 
L 554.4 417.62219 
L 554.68 417.697961 
L 554.96 418.389908 
L 555.24 406.197763 
L 555.52 408.056929 
L 556.36 409.73999 
L 556.64 406.056505 
L 556.92 407.932988 
L 557.2 409.015432 
L 557.48 410.725931 
L 558.32 412.186802 
L 559.16 415.536908 
L 559.44 416.112991 
L 560.28 417.152085 
L 560.56 418.210968 
L 560.84 418.185312 
L 561.12 417.112187 
L 562.24 418.602558 
L 562.52 419.646729 
L 562.8 419.971069 
L 563.08 417.354495 
L 563.36 418.524122 
L 564.2 418.446412 
L 564.76 420.38875 
L 565.04 419.100042 
L 565.32 420.150498 
L 566.16 421.115965 
L 566.72 422.46325 
L 567 419.981246 
L 567.28 420.961035 
L 568.12 421.250021 
L 568.68 422.780566 
L 568.96 421.901022 
L 569.24 422.754972 
L 570.36 423.561455 
L 570.92 424.861068 
L 571.2 424.905968 
L 572.04 425.488241 
L 572.32 426.08808 
L 572.6 424.534828 
L 572.88 425.194338 
L 573.16 424.086085 
L 574 424.263983 
L 574.28 424.951455 
L 574.56 424.328197 
L 574.84 424.884464 
L 575.12 424.872032 
L 575.96 425.513038 
L 576.24 420.089581 
L 577.08 422.445529 
L 577.92 422.012531 
L 578.2 418.934866 
L 578.48 419.674615 
L 578.76 419.183876 
L 579.04 419.170381 
L 579.88 420.08342 
L 580.16 421.081508 
L 580.44 421.078342 
L 580.72 420.780362 
L 581 417.845063 
L 581.84 418.990494 
L 582.4 420.836759 
L 582.96 421.870471 
L 583.8 422.651687 
L 584.08 423.066438 
L 584.36 415.66611 
L 584.64 416.879793 
L 584.92 416.509399 
L 585.76 416.862811 
L 586.04 417.1078 
L 586.6 419.097773 
L 586.88 416.69234 
L 588 416.861025 
L 588.28 417.612502 
L 588.56 415.902154 
L 588.84 412.190092 
L 589.68 413.508067 
L 589.96 414.503615 
L 590.24 409.075652 
L 590.52 409.645064 
L 590.8 410.857727 
L 591.64 412.447551 
L 591.92 413.901456 
L 592.2 403.825704 
L 593.6 405.759845 
L 593.88 400.501156 
L 594.16 402.695712 
L 594.44 401.646992 
L 594.72 403.804493 
L 595.56 405.747243 
L 596.12 403.388429 
L 596.4 405.431445 
L 596.68 406.62927 
L 597.52 408.05619 
L 597.8 407.696854 
L 598.36 411.1084 
L 598.64 411.208143 
L 599.48 410.603387 
L 600.04 408.542956 
L 600.32 408.457246 
L 600.6 408.181124 
L 602 408.169688 
L 602.28 409.46519 
L 602.56 407.658143 
L 603.96 406.740514 
L 604.24 405.668123 
L 604.52 406.388567 
L 605.36 406.358658 
L 605.64 408.237653 
L 605.92 408.195924 
L 606.2 405.89418 
L 606.48 407.274091 
L 607.6 409.093181 
L 607.88 409.905201 
L 608.44 412.422269 
L 609.56 412.497332 
L 609.84 413.916595 
L 610.12 414.625443 
L 610.4 415.986834 
L 611.24 417.262736 
L 611.8 412.272072 
L 612.08 413.786692 
L 612.36 414.286591 
L 613.2 413.085513 
L 614.04 416.654834 
L 614.32 417.738691 
L 615.44 419.288683 
L 615.72 419.854532 
L 616.28 418.2573 
L 617.4 416.409395 
L 617.68 416.784006 
L 618.24 418.405163 
L 619.08 419.5014 
L 619.36 416.180903 
L 619.64 416.253875 
L 619.92 417.068656 
L 620.2 418.243859 
L 621.04 417.952772 
L 622.16 421.71383 
L 623 422.440859 
L 623.28 423.262713 
L 623.84 424.14148 
L 624.12 424.191886 
L 625.24 424.537009 
L 625.52 424.85244 
L 625.8 424.683718 
L 626.08 424.751189 
L 627.2 423.942147 
L 627.48 424.525621 
L 627.76 424.844584 
L 628.04 425.412539 
L 628.88 426.017626 
L 629.16 425.790871 
L 629.44 425.75167 
L 630 426.85963 
L 630.84 425.367314 
L 631.4 426.32713 
L 631.68 425.314904 
L 631.96 425.825885 
L 632.8 426.379246 
L 633.08 426.908079 
L 633.36 426.982299 
L 633.64 427.200693 
L 634.76 427.663175 
L 635.04 426.036317 
L 635.32 426.393897 
L 635.6 426.058912 
L 635.88 426.617541 
L 636.72 421.502587 
L 637.56 422.936568 
L 637.84 422.469572 
L 638.68 423.115703 
L 638.96 423.803799 
L 639.24 421.064419 
L 639.52 420.953759 
L 639.8 421.398436 
L 640.64 422.08951 
L 641.48 420.446087 
L 641.76 419.274146 
L 642.6 418.458068 
L 643.16 420.322399 
L 643.44 418.708736 
L 643.72 411.876084 
L 644.84 413.011225 
L 645.12 414.422462 
L 645.4 415.208335 
L 645.68 411.565536 
L 646.52 405.387658 
L 646.8 405.8536 
L 647.08 407.435447 
L 647.36 405.864296 
L 647.64 406.13409 
L 648.48 407.608317 
L 649.04 410.593624 
L 649.32 408.857572 
L 649.6 409.88938 
L 650.44 410.426021 
L 650.72 410.750351 
L 651 410.858912 
L 651.28 412.462078 
L 651.56 409.064381 
L 652.4 409.849576 
L 652.96 412.145928 
L 653.24 411.671404 
L 653.52 412.602592 
L 654.36 413.614366 
L 654.64 414.548355 
L 656.32 411.812117 
L 656.6 413.34707 
L 656.88 413.904706 
L 657.16 409.899386 
L 657.44 411.562236 
L 658.28 413.118867 
L 658.56 412.456661 
L 658.84 412.57006 
L 659.12 413.26149 
L 659.4 414.57641 
L 660.24 415.348509 
L 660.52 416.599116 
L 660.8 417.281581 
L 662.2 419.101589 
L 662.48 420.069529 
L 662.76 418.896533 
L 663.04 419.967953 
L 663.32 408.480891 
L 664.16 410.172847 
L 664.44 409.147856 
L 664.72 410.848434 
L 665 409.475195 
L 665.28 411.164083 
L 666.12 412.079649 
L 666.4 413.557306 
L 666.68 410.462892 
L 666.96 410.471488 
L 667.24 410.70519 
L 668.36 412.942011 
L 668.64 413.870814 
L 668.92 415.234921 
L 669.2 415.987685 
L 670.32 415.856285 
L 670.6 416.658262 
L 670.88 416.378586 
L 671.16 417.473301 
L 672.56 416.876003 
L 672.84 405.153792 
L 673.12 407.10298 
L 673.96 408.768942 
L 674.24 409.075081 
L 674.8 411.820545 
L 675.92 413.713959 
L 676.2 377.928884 
L 676.48 377.313116 
L 677.04 380.751259 
L 677.88 384.052237 
L 678.44 389.239033 
L 679 394.791444 
L 679.84 397.283235 
L 680.12 397.675394 
L 680.4 400.065369 
L 680.68 400.956022 
L 680.96 402.850067 
L 681.8 404.758589 
L 682.92 411.251994 
L 683.76 412.158719 
L 684.04 410.794184 
L 684.32 412.398737 
L 684.6 410.120326 
L 684.88 411.572407 
L 685.72 413.057349 
L 686.28 415.869435 
L 686.84 417.328587 
L 687.68 418.242 
L 688.24 419.928946 
L 688.52 417.842398 
L 688.8 417.756018 
L 689.64 416.062754 
L 690.2 418.051748 
L 690.48 417.724117 
L 690.76 418.588759 
L 691.88 419.670962 
L 692.16 419.482814 
L 692.44 419.645652 
L 692.72 420.654767 
L 693.56 420.197703 
L 693.84 416.97165 
L 694.12 415.148615 
L 694.68 412.784606 
L 695.52 414.264051 
L 696.08 416.388258 
L 697.48 416.733235 
L 698.04 412.367787 
L 698.32 411.699763 
L 698.6 413.233858 
L 699.44 414.037723 
L 699.72 415.215163 
L 700 415.861539 
L 700.28 415.574433 
L 700.56 416.05034 
L 701.4 416.571224 
L 701.68 416.928396 
L 701.96 416.976033 
L 702.52 419.137123 
L 703.36 420.029602 
L 703.64 420.943393 
L 704.2 421.627726 
L 704.48 422.260701 
L 705.32 423.095846 
L 705.6 423.647282 
L 706.16 424.059801 
L 706.44 424.76127 
L 707.28 423.033061 
L 707.56 421.689479 
L 707.84 422.542514 
L 708.12 417.983176 
L 708.4 418.583686 
L 709.24 419.123132 
L 709.52 418.076386 
L 709.8 419.162178 
L 710.08 418.606645 
L 710.36 419.097943 
L 711.48 420.088171 
L 711.76 418.451869 
L 712.04 417.931956 
L 712.32 418.94056 
L 713.16 415.159573 
L 713.44 408.296855 
L 713.72 406.609522 
L 714 407.757923 
L 714.28 407.730339 
L 715.12 406.906731 
L 715.4 403.532582 
L 715.68 404.99176 
L 715.96 400.814467 
L 716.24 402.792466 
L 717.36 404.481812 
L 717.64 406.018124 
L 717.92 404.18195 
L 718.2 406.172389 
L 719.32 407.57592 
L 719.88 409.24156 
L 720.16 410.759865 
L 721 412.270686 
L 721.28 404.004226 
L 721.56 402.451761 
L 721.84 397.863101 
L 722.12 399.051862 
L 722.96 401.198162 
L 723.24 395.261509 
L 723.8 400.028978 
L 724.08 397.97941 
L 724.92 384.631435 
L 725.2 326.805035 
L 725.48 325.616202 
L 725.76 331.315443 
L 726.04 328.391324 
L 726.88 333.734412 
L 727.16 317.2717 
L 727.44 324.064357 
L 728 328.609827 
L 728.84 333.741106 
L 729.12 338.892937 
L 729.4 341.544552 
L 729.96 351.211293 
L 731.08 357.468584 
L 731.36 360.867153 
L 731.64 359.079368 
L 731.92 356.247652 
L 732.76 342.761746 
L 733.04 344.435849 
L 733.32 347.637436 
L 733.6 352.794011 
L 734.72 355.737863 
L 735 359.941987 
L 735.28 359.913104 
L 735.56 361.223817 
L 735.84 363.854441 
L 736.96 367.664852 
L 737.24 277.588729 
L 737.8 293.934068 
L 738.64 293.787036 
L 738.92 275.898347 
L 739.2 283.475969 
L 739.48 278.640632 
L 739.76 277.128692 
L 740.6 283.665612 
L 740.88 291.25749 
L 741.16 290.742676 
L 741.44 277.719073 
L 741.72 286.248696 
L 742.56 288.563973 
L 742.84 296.075877 
L 743.12 298.633693 
L 743.4 306.28537 
L 743.68 300.540983 
L 744.52 307.384521 
L 744.8 300.205222 
L 745.08 304.385548 
L 745.64 318.311639 
L 746.76 324.870182 
L 747.32 335.256071 
L 747.6 337.547322 
L 748.44 333.006154 
L 748.72 336.320886 
L 749 336.88408 
L 749.28 334.596102 
L 749.56 339.9132 
L 750.4 338.468926 
L 751.24 351.958556 
L 751.52 347.772685 
L 752.36 347.722301 
L 752.64 351.71031 
L 752.92 352.326962 
L 753.48 361.239359 
L 754.32 365.641773 
L 754.88 372.938816 
L 755.16 370.831571 
L 755.44 374.546469 
L 756.28 375.51691 
L 756.56 375.215568 
L 757.12 381.251721 
L 758.24 383.022826 
L 759.36 393.513383 
L 760.2 395.488638 
L 760.76 394.456081 
L 761.04 395.167549 
L 761.32 397.047694 
L 762.16 399.336314 
L 762.44 400.965136 
L 762.72 398.716577 
L 763.28 402.412089 
L 764.12 404.519349 
L 764.4 406.501039 
L 764.96 408.79034 
L 765.24 405.00977 
L 766.08 406.953655 
L 766.36 407.171918 
L 766.64 408.238525 
L 767.2 411.286935 
L 768.04 409.733156 
L 768.6 410.852158 
L 769.16 413.39934 
L 770 414.83639 
L 770.28 416.180883 
L 770.56 416.892557 
L 771.12 417.944606 
L 771.96 412.27998 
L 772.24 407.504195 
L 772.52 408.635921 
L 772.8 409.2961 
L 773.08 407.942522 
L 773.92 409.338511 
L 774.2 409.151611 
L 774.48 408.762743 
L 774.76 404.59715 
L 775.04 404.451393 
L 776.16 405.999527 
L 776.44 394.48762 
L 776.72 396.543217 
L 777.84 397.112627 
L 778.4 401.612003 
L 778.68 402.67196 
L 778.96 398.647506 
L 779.8 400.898261 
L 780.08 398.711743 
L 780.36 399.689836 
L 780.92 403.299761 
L 781.76 404.944291 
L 782.04 406.005547 
L 782.32 405.716558 
L 782.6 401.329222 
L 782.88 401.590934 
L 783.72 400.012479 
L 784 393.172521 
L 784.28 391.943283 
L 784.56 393.808552 
L 784.84 394.291818 
L 785.68 396.850841 
L 785.96 396.773791 
L 786.24 399.178796 
L 786.52 398.806128 
L 786.8 401.080397 
L 787.64 402.744571 
L 787.92 400.291105 
L 788.2 401.657217 
L 788.48 401.082343 
L 788.76 402.471754 
L 789.88 404.781907 
L 790.16 403.069275 
L 790.44 399.030964 
L 790.72 397.449875 
L 791.56 399.792058 
L 791.84 399.585613 
L 792.12 400.693122 
L 792.4 400.427355 
L 792.68 402.62445 
L 793.52 401.838393 
L 793.8 391.796231 
L 794.08 391.761984 
L 794.64 395.983435 
L 795.48 396.275589 
L 795.76 397.050857 
L 796.04 399.161786 
L 796.32 397.282751 
L 796.6 399.221747 
L 797.44 401.407766 
L 797.72 402.456424 
L 798 396.762412 
L 799.4 397.490837 
L 799.68 398.834765 
L 799.96 401.095681 
L 800.24 402.397044 
L 800.52 404.481607 
L 801.36 406.291582 
L 801.92 409.742523 
L 802.2 411.066526 
L 802.48 409.12134 
L 803.6 411.517827 
L 803.88 413.079159 
L 804.44 414.017183 
L 805.28 414.857664 
L 805.56 411.973166 
L 805.84 413.223886 
L 807.24 411.758742 
L 807.52 412.259221 
L 808.08 415.126198 
L 809.2 416.442845 
L 809.48 414.311011 
L 809.76 404.575707 
L 810.32 408.388036 
L 811.16 406.235564 
L 811.44 407.815704 
L 811.72 408.275686 
L 812 410.03468 
L 812.28 409.391235 
L 813.4 408.149295 
L 814.24 413.063715 
L 815.08 413.365813 
L 815.36 414.158995 
L 816.2 417.868014 
L 817.04 419.000965 
L 817.32 414.439011 
L 817.88 415.685171 
L 818.16 416.567321 
L 819 417.776037 
L 819.28 415.978146 
L 819.84 418.176902 
L 820.12 419.012602 
L 821.24 418.137291 
L 821.52 415.929734 
L 821.8 415.880285 
L 822.92 417.440842 
L 823.2 414.407613 
L 823.48 413.183423 
L 823.76 412.56677 
L 824.04 409.316002 
L 824.88 407.109361 
L 825.72 410.158351 
L 826 405.865956 
L 826.84 406.448344 
L 827.12 405.673214 
L 827.68 408.643243 
L 827.96 407.617589 
L 828.8 409.343655 
L 829.08 410.433246 
L 829.36 410.916909 
L 829.64 411.048913 
L 829.92 388.23534 
L 830.76 384.919216 
L 831.04 387.978204 
L 831.32 381.639787 
L 831.6 378.906995 
L 831.88 377.281467 
L 832.72 378.229204 
L 833.56 387.641939 
L 834.68 387.58106 
L 834.96 387.766768 
L 835.8 395.467915 
L 836.64 397.950144 
L 837.2 402.505223 
L 837.48 399.440819 
L 837.76 401.388511 
L 838.6 403.509967 
L 839.16 406.815366 
L 839.44 407.091108 
L 839.72 408.641805 
L 840.56 410.23751 
L 840.84 411.85902 
L 841.12 411.962244 
L 841.68 413.735508 
L 842.52 411.511503 
L 842.8 411.593488 
L 843.08 409.107929 
L 843.64 412.351323 
L 844.48 413.749751 
L 844.76 415.056117 
L 845.32 415.939583 
L 845.6 409.075117 
L 846.44 408.449983 
L 847 410.917958 
L 847.56 407.514485 
L 848.4 407.475916 
L 848.68 407.222668 
L 848.96 408.689878 
L 849.24 409.329261 
L 849.52 410.87734 
L 850.64 411.943119 
L 850.92 411.495091 
L 851.48 414.503276 
L 852.32 415.738559 
L 852.6 417.03075 
L 852.88 417.284905 
L 853.44 419.07617 
L 854.28 419.125424 
L 854.84 420.971391 
L 855.12 421.054059 
L 855.4 420.941204 
L 856.24 421.004891 
L 856.52 419.679106 
L 856.8 419.338743 
L 857.08 416.487116 
L 857.36 417.669663 
L 858.2 416.301121 
L 858.48 416.426659 
L 859.32 418.946715 
L 860.44 418.479698 
L 860.72 414.396109 
L 861 414.155387 
L 861.28 413.232428 
L 862.12 413.934353 
L 862.4 414.925593 
L 862.68 415.168314 
L 862.96 413.710487 
L 863.24 413.410779 
L 864.08 414.850376 
L 864.36 398.834131 
L 864.64 400.255155 
L 864.92 397.880264 
L 865.2 398.511414 
L 866.04 400.825847 
L 866.88 406.363501 
L 867.16 406.707775 
L 868 407.919859 
L 868.56 406.415813 
L 868.84 404.727971 
L 869.12 405.553736 
L 869.96 406.453136 
L 870.52 407.529224 
L 870.8 408.589457 
L 871.08 410.192303 
L 871.92 410.155152 
L 872.48 412.842378 
L 872.76 411.838868 
L 873.04 411.936253 
L 873.88 405.51839 
L 874.16 395.452207 
L 874.72 390.761675 
L 875 392.525288 
L 875.84 394.675873 
L 876.12 396.3473 
L 876.68 400.929369 
L 876.96 401.682037 
L 878.36 404.549142 
L 878.92 407.644488 
L 879.76 408.505229 
L 880.32 411.479013 
L 880.6 410.907313 
L 880.88 412.458914 
L 881.72 413.90995 
L 882 413.63044 
L 882.28 413.644079 
L 882.56 414.269172 
L 882.84 413.503928 
L 883.68 414.406648 
L 883.96 413.562657 
L 884.24 414.758785 
L 884.8 415.184653 
L 885.64 415.240236 
L 885.92 413.263363 
L 886.2 413.336194 
L 886.48 410.848147 
L 886.76 411.613975 
L 887.6 413.105607 
L 887.88 411.818072 
L 888.44 414.525324 
L 888.72 413.962168 
L 889.84 415.69485 
L 890.12 416.791246 
L 890.4 417.123142 
L 890.68 417.156358 
L 891.8 418.342165 
L 892.08 418.991045 
L 892.36 415.361402 
L 892.64 416.647156 
L 893.48 417.394692 
L 893.76 418.092039 
L 894.04 417.53896 
L 894.32 412.595924 
L 894.6 411.590467 
L 895.44 411.701001 
L 895.72 412.789359 
L 896 413.419315 
L 896.28 411.384555 
L 896.56 412.849824 
L 897.4 413.285965 
L 897.68 414.724881 
L 897.96 415.413083 
L 898.24 412.470484 
L 898.52 413.760995 
L 899.36 405.979768 
L 899.64 406.917087 
L 899.92 404.72791 
L 901.32 406.415612 
L 901.6 372.307918 
L 901.88 371.839459 
L 902.44 377.976208 
L 903.28 381.317752 
L 903.56 380.200336 
L 903.84 381.853465 
L 904.4 386.47923 
L 905.24 389.17109 
L 906.36 398.259404 
L 907.2 399.433672 
L 907.2 399.433672 
" clip-path="url(#pc315531234)" style="fill: none; stroke: #4d3c2f; stroke-width: 3; stroke-linecap: round"/>
   </g>
   <g id="patch_8">
    <path d="M 126 441 
L 126 268.036364 
" style="fill: none; stroke: #ffffff; stroke-width: 2.5; stroke-linejoin: miter; stroke-linecap: square"/>
   </g>
   <g id="patch_9">
    <path d="M 907.2 441 
L 907.2 268.036364 
" style="fill: none; stroke: #ffffff; stroke-width: 2.5; stroke-linejoin: miter; stroke-linecap: square"/>
   </g>
   <g id="patch_10">
    <path d="M 126 441 
L 907.2 441 
" style="fill: none; stroke: #ffffff; stroke-width: 2.5; stroke-linejoin: miter; stroke-linecap: square"/>
   </g>
   <g id="patch_11">
    <path d="M 126 268.036364 
L 907.2 268.036364 
" style="fill: none; stroke: #ffffff; stroke-width: 2.5; stroke-linejoin: miter; stroke-linecap: square"/>
   </g>
   <g id="text_15">
    <!-- Conditional Volatility -->
    <g style="fill: #262626" transform="translate(409.205625 262.036364)scale(0.24 -0.24)">
     <defs>
      <path id="ArialMT-43" d="M 3763 1606 
L 4369 1453 
Q 4178 706 3683 314 
Q 3188 -78 2472 -78 
Q 1731 -78 1267 223 
Q 803 525 561 1097 
Q 319 1669 319 2325 
Q 319 3041 592 3573 
Q 866 4106 1370 4382 
Q 1875 4659 2481 4659 
Q 3169 4659 3637 4309 
Q 4106 3959 4291 3325 
L 3694 3184 
Q 3534 3684 3231 3912 
Q 2928 4141 2469 4141 
Q 1941 4141 1586 3887 
Q 1231 3634 1087 3207 
Q 944 2781 944 2328 
Q 944 1744 1114 1308 
Q 1284 872 1643 656 
Q 2003 441 2422 441 
Q 2931 441 3284 734 
Q 3638 1028 3763 1606 
z
" transform="scale(0.015625)"/>
      <path id="ArialMT-6f" d="M 213 1659 
Q 213 2581 725 3025 
Q 1153 3394 1769 3394 
Q 2453 3394 2887 2945 
Q 3322 2497 3322 1706 
Q 3322 1066 3130 698 
Q 2938 331 2570 128 
Q 2203 -75 1769 -75 
Q 1072 -75 642 372 
Q 213 819 213 1659 
z
M 791 1659 
Q 791 1022 1069 705 
Q 1347 388 1769 388 
Q 2188 388 2466 706 
Q 2744 1025 2744 1678 
Q 2744 2294 2464 2611 
Q 2184 2928 1769 2928 
Q 1347 2928 1069 2612 
Q 791 2297 791 1659 
z
" transform="scale(0.015625)"/>
      <path id="ArialMT-56" d="M 1803 0 
L 28 4581 
L 684 4581 
L 1875 1253 
Q 2019 853 2116 503 
Q 2222 878 2363 1253 
L 3600 4581 
L 4219 4581 
L 2425 0 
L 1803 0 
z
" transform="scale(0.015625)"/>
      <path id="ArialMT-79" d="M 397 -1278 
L 334 -750 
Q 519 -800 656 -800 
Q 844 -800 956 -737 
Q 1069 -675 1141 -563 
Q 1194 -478 1313 -144 
Q 1328 -97 1363 -6 
L 103 3319 
L 709 3319 
L 1400 1397 
Q 1534 1031 1641 628 
Q 1738 1016 1872 1384 
L 2581 3319 
L 3144 3319 
L 1881 -56 
Q 1678 -603 1566 -809 
Q 1416 -1088 1222 -1217 
Q 1028 -1347 759 -1347 
Q 597 -1347 397 -1278 
z
" transform="scale(0.015625)"/>
     </defs>
     <use xlink:href="#ArialMT-43"/>
     <use xlink:href="#ArialMT-6f" x="72.216797"/>
     <use xlink:href="#ArialMT-6e" x="127.832031"/>
     <use xlink:href="#ArialMT-64" x="183.447266"/>
     <use xlink:href="#ArialMT-69" x="239.0625"/>
     <use xlink:href="#ArialMT-74" x="261.279297"/>
     <use xlink:href="#ArialMT-69" x="289.0625"/>
     <use xlink:href="#ArialMT-6f" x="311.279297"/>
     <use xlink:href="#ArialMT-6e" x="366.894531"/>
     <use xlink:href="#ArialMT-61" x="422.509766"/>
     <use xlink:href="#ArialMT-6c" x="478.125"/>
     <use xlink:href="#ArialMT-20" x="500.341797"/>
     <use xlink:href="#ArialMT-56" x="528.125"/>
     <use xlink:href="#ArialMT-6f" x="589.324219"/>
     <use xlink:href="#ArialMT-6c" x="644.939453"/>
     <use xlink:href="#ArialMT-61" x="667.15625"/>
     <use xlink:href="#ArialMT-74" x="722.771484"/>
     <use xlink:href="#ArialMT-69" x="750.554688"/>
     <use xlink:href="#ArialMT-6c" x="772.771484"/>
     <use xlink:href="#ArialMT-69" x="794.988281"/>
     <use xlink:href="#ArialMT-74" x="817.205078"/>
     <use xlink:href="#ArialMT-79" x="844.988281"/>
    </g>
   </g>
  </g>
 </g>
 <defs>
  <clipPath id="p983da7a95b">
   <rect x="126" y="60.48" width="781.2" height="172.963636"/>
  </clipPath>
  <clipPath id="pc315531234">
   <rect x="126" y="268.036364" width="781.2" height="172.963636"/>
  </clipPath>
 </defs>
</svg>
