<svg class="main-svg" xmlns="http://www.w3.org/2000/svg" xmlns:xlink="http://www.w3.org/1999/xlink" width="1500" height="1500" style="" viewBox="0 0 500 500"><rect x="0" y="0" width="500" height="500" style="fill: rgb(255, 255, 255); fill-opacity: 1;"/><defs id="defs-860507"><g class="clips"><clipPath id="clip860507xyplot" class="plotclip"><rect width="377" height="437"/></clipPath><clipPath class="axesclip" id="clip860507x"><rect x="28" y="0" width="377" height="500"/></clipPath><clipPath class="axesclip" id="clip860507y"><rect x="0" y="40" width="500" height="437"/></clipPath><clipPath class="axesclip" id="clip860507xy"><rect x="28" y="40" width="377" height="437"/></clipPath><clipPath class="contourclip" id="clip96c2c0"><path d="M0,30L377,30L377,407L0,407Z"/></clipPath></g><g class="gradients"/><g class="patterns"/></defs><g class="bglayer"><rect class="bg" x="28" y="40" width="377" height="437" style="fill: rgb(237, 237, 237); fill-opacity: 1; stroke-width: 0;"/></g><g class="layer-below"><g class="imagelayer"/><g class="shapelayer"/></g><g class="cartesianlayer"><g class="subplot xy"><g class="layer-subplot"><g class="shapelayer"/><g class="imagelayer"/></g><g class="gridlayer"><g class="x"><path class="xgrid crisp" transform="translate(90.83,0)" d="M0,40v437" style="stroke: rgb(255, 255, 255); stroke-opacity: 1; stroke-width: 1px;"/><path class="xgrid crisp" transform="translate(174.61,0)" d="M0,40v437" style="stroke: rgb(255, 255, 255); stroke-opacity: 1; stroke-width: 1px;"/><path class="xgrid crisp" transform="translate(258.39,0)" d="M0,40v437" style="stroke: rgb(255, 255, 255); stroke-opacity: 1; stroke-width: 1px;"/><path class="xgrid crisp" transform="translate(342.17,0)" d="M0,40v437" style="stroke: rgb(255, 255, 255); stroke-opacity: 1; stroke-width: 1px;"/></g><g class="y"><path class="ygrid crisp" transform="translate(0,384.17)" d="M28,0h377" style="stroke: rgb(255, 255, 255); stroke-opacity: 1; stroke-width: 1px;"/><path class="ygrid crisp" transform="translate(0,300.39)" d="M28,0h377" style="stroke: rgb(255, 255, 255); stroke-opacity: 1; stroke-width: 1px;"/><path class="ygrid crisp" transform="translate(0,216.61)" d="M28,0h377" style="stroke: rgb(255, 255, 255); stroke-opacity: 1; stroke-width: 1px;"/><path class="ygrid crisp" transform="translate(0,132.82999999999998)" d="M28,0h377" style="stroke: rgb(255, 255, 255); stroke-opacity: 1; stroke-width: 1px;"/><path class="ygrid crisp" transform="translate(0,49.06)" d="M28,0h377" style="stroke: rgb(255, 255, 255); stroke-opacity: 1; stroke-width: 1px;"/></g></g><g class="zerolinelayer"><path class="yzl zl crisp" transform="translate(0,467.94)" d="M28,0h377" style="stroke: rgb(255, 255, 255); stroke-opacity: 1; stroke-width: 1px;"/></g><path class="xlines-below"/><path class="ylines-below"/><g class="overlines-below"/><g class="xaxislayer-below"/><g class="yaxislayer-below"/><g class="overaxes-below"/><g class="plot" transform="translate(28,40)" clip-path="url(#clip860507xyplot)"><g class="contourlayer mlayer"><g class="contour" clip-path="url(#clip96c2c0)" style="opacity: 1;"><g class="heatmapcoloring"/><g class="contourbg"/><g class="contourfill"/><g class="contourlines"><g class="contourlevel"/><g class="contourlevel"><path class="openline" d="M0,189.88Q1.58,187.25 2.26,186.13C2.82,185.21 3.37,184.31 3.81,183.61C4.13,183.11 4.3,182.86 4.66,182.32C5.28,181.39 6.74,179.24 7.22,178.52C7.41,178.24 7.43,178.2 7.62,177.93C8.07,177.28 9.24,175.66 9.93,174.71C10.48,173.95 10.93,173.32 11.42,172.67C11.88,172.06 12.27,171.57 12.79,170.9C13.49,170.01 14.7,168.46 15.23,167.79C15.48,167.47 15.53,167.42 15.8,167.09C16.43,166.32 17.92,164.51 19.005,163.24C20.09,161.97 21.65,160.2 22.29,159.47C22.55,159.17 22.59,159.13 22.85,158.84C23.44,158.19 25.07,156.42 25.76,155.67C26.14,155.25 26.28,155.11 26.66,154.7C27.32,154 28.69,152.59 29.39,151.86C29.83,151.4 30.02,151.2 30.46,150.75C31.15,150.04 32.47,148.75 33.17,148.05C33.62,147.61 33.82,147.4 34.27,146.96C34.99,146.25 36.41,144.91 37.11,144.24C37.52,143.85 37.66,143.71 38.08,143.32C38.82,142.62 40.55,141.04 41.21,140.43C41.52,140.15 41.57,140.1 41.89,139.81C42.63,139.15 44.31,137.64 45.58,136.52499999999998C46.91,135.36 48.36,134.11 49.69,132.975C50.93,131.92 52.45,130.65 53.31,129.93C53.79,129.53 53.98,129.38 54.43,129.01C55.13,128.44 56.28,127.49 57.12,126.82C57.85,126.24 58.5,125.72 59.16,125.2C59.77,124.72 60.26,124.34 60.93,123.81C61.82,123.11 63.38,121.9 64.05,121.39C64.36,121.15 64.42,121.11 64.74,120.87C65.5,120.3 67.85,118.52 68.55,118C68.82,117.8 68.85,117.78 69.11,117.59C69.74,117.12 71.4,115.89 72.35,115.2C73.09,114.66 73.67,114.24 74.32,113.78C74.94,113.33 75.44,112.97 76.16,112.46C77.17,111.74 78.59,110.75 79.84,109.88C81.13,108.98 82.78,107.85 83.78,107.17C84.39,106.75 84.72,106.53 85.27,106.16C85.96,105.7 86.73,105.18 87.59,104.61C88.66,103.9 89.96,103.03 91.2,102.225C92.5,101.38 94.14,100.32 95.2,99.64C95.89,99.2 96.31,98.93 96.91,98.55C97.57,98.13 98.2,97.73 99.01,97.22C100.11,96.53 101.63,95.59 102.91999999999999,94.8C104.17,94.03 105.49,93.23 106.63,92.54C107.59,91.96 108.61,91.35 109.31,90.93C109.76,90.66 109.94,90.55 110.43,90.26C111.32,89.73 113.25,88.61 114.24,88.03C114.87,87.66 115.23,87.45 115.8,87.12C116.48,86.73 117.2,86.31 118.05,85.83C119.15,85.2 121.12,84.1 121.86,83.68C122.16,83.51 122.2,83.48 122.5,83.31C123.15,82.94 124.57,82.16 125.67,81.55C126.87,80.89 128.19,80.18 129.45,79.495C130.72,78.81 132.05,78.08 133.28,77.43C134.42,76.82 135.95,76.03 136.57,75.7C136.82,75.57 136.84,75.56 137.09,75.43C137.78,75.07 139.7,74.07 140.9,73.45C141.97,72.9 143.28,72.23 143.96,71.89C144.29,71.72 144.36,71.69 144.71,71.52C145.49,71.13 147.31,70.21 148.52,69.61C149.61,69.07 150.95,68.41 151.62,68.08C151.94,67.93 151.99,67.9 152.32,67.74C153.08,67.37 154.87,66.5 156.13,65.9C157.35,65.32 158.52,64.77 159.755,64.185C161.05,63.57 162.42,62.93 163.75,62.32C165.07,61.71 166.4,61.11 167.69,60.525000000000006C168.93,59.96 170.12,59.42 171.36,58.87C172.62,58.31 174.25,57.6 175.17,57.2C175.69,56.97 175.91,56.87 176.4,56.66C177.1,56.35 178.04,55.95 178.98,55.55C180.13,55.06 181.64,54.41 182.79,53.93C183.73,53.53 184.66,53.14 185.36,52.85C185.85,52.65 186.07,52.56 186.6,52.34C187.52,51.96 189.13,51.29 190.4,50.78C191.67,50.27 193.52,49.54 194.21,49.26C194.47,49.15 194.49,49.14 194.75,49.04C195.38,48.79 196.89,48.2 198.02,47.76C199.24,47.29 200.66,46.74 201.83,46.29C202.83,45.91 203.9,45.49 204.6,45.23C205.03,45.07 205.19,45.02 205.64,44.85C206.51,44.53 208.17,43.91 209.44,43.44C210.71,42.98 212.22,42.43 213.25,42.06C213.95,41.81 214.4,41.64 215.01,41.42C215.67,41.19 216.27,40.98 217.06,40.71C218.13,40.34 219.6,39.82 220.87,39.38C222.14,38.94 223.72,38.41 224.68,38.09C225.26,37.89 225.54,37.8 226.07,37.62C226.76,37.39 227.58,37.11 228.48,36.82C229.6,36.45 231.02,35.99 232.29,35.58C233.56,35.17 235.07,34.71 236.1,34.38C236.81,34.16 237.28,34 237.9,33.81C238.55,33.61 239.13,33.44 239.91,33.2C240.98,32.88 242.45,32.42 243.72,32.04C244.99,31.66 246.32,31.27 247.53,30.92Q248.64,30.6 250.71,30" style="stroke-miterlimit: 1; vector-effect: non-scaling-stroke; fill: none; stroke: rgb(47, 38, 33); stroke-opacity: 1; stroke-width: 2px;"/><path class="openline" d="M377,156.29Q376.4,158.36 376.08,159.47C375.73,160.68 375.34,162.01 374.96,163.28C374.58,164.55 374.12,166.02 373.8,167.09C373.56,167.87 373.39,168.45 373.19,169.1C373,169.72 372.84,170.19 372.62,170.9C372.29,171.93 371.83,173.44 371.42,174.71C371.01,175.98 370.55,177.4 370.18,178.52C369.89,179.42 369.61,180.24 369.38,180.93C369.2,181.46 369.11,181.74 368.91,182.32C368.59,183.28 368.06,184.86 367.62,186.13C367.18,187.4 366.66,188.87 366.29,189.94C366.02,190.73 365.81,191.33 365.58,191.99C365.36,192.6 365.19,193.05 364.94,193.75C364.57,194.78 364.02,196.29 363.56,197.56C363.09,198.83 362.47,200.49 362.15,201.36C361.98,201.81 361.93,201.97 361.77,202.4C361.51,203.1 361.09,204.17 360.71,205.17C360.26,206.34 359.71,207.76 359.24,208.98C358.8,210.11 358.21,211.62 357.96,212.25C357.86,212.51 357.85,212.53 357.74,212.79C357.46,213.48 356.73,215.33 356.22,216.6C355.71,217.87 355.04,219.48 354.66,220.4C354.44,220.93 354.35,221.15 354.15,221.64C353.86,222.34 353.47,223.27 353.07,224.21C352.59,225.36 351.94,226.87 351.45,228.02C351.05,228.96 350.65,229.9 350.34,230.6C350.13,231.09 350.03,231.31 349.8,231.83C349.4,232.75 348.69,234.38 348.13,235.64C347.58,236.88 347.04,238.07 346.475,239.31C345.89,240.6 345.29,241.93 344.68,243.25C344.07,244.58 343.43,245.95 342.815,247.245C342.23,248.48 341.68,249.65 341.1,250.87C340.5,252.13 339.63,253.92 339.26,254.68C339.1,255.01 339.07,255.06 338.92,255.38C338.59,256.05 337.93,257.39 337.39,258.48C336.79,259.69 335.87,261.51 335.48,262.29C335.31,262.64 335.28,262.71 335.11,263.04C334.77,263.72 334.1,265.03 333.55,266.1C332.93,267.3 331.93,269.22 331.57,269.91C331.44,270.16 331.43,270.18 331.3,270.43C330.97,271.05 330.18,272.58 329.57,273.72C328.92,274.95 328.19,276.28 327.505,277.54999999999995C326.82,278.81 326.11,280.13 325.45,281.33C324.84,282.43 324.06,283.85 323.69,284.5C323.52,284.8 323.49,284.84 323.32,285.14C322.9,285.88 321.8,287.85 321.17,288.95C320.69,289.8 320.27,290.52 319.88,291.2C319.55,291.77 319.34,292.13 318.97,292.76C318.39,293.75 317.27,295.68 316.74,296.57C316.45,297.06 316.34,297.24 316.07,297.69C315.65,298.39 315.04,299.41 314.46,300.37C313.77,301.51 312.97,302.83 312.2,304.08000000000004C311.41,305.37 310.47,306.89 309.78,307.99C309.27,308.8 308.87,309.43 308.45,310.09C308.07,310.69 307.8,311.11 307.36,311.8C306.68,312.86 305.62,314.5 304.775,315.8C303.97,317.04 303.1,318.34 302.39,319.41C301.82,320.27 301.3,321.04 300.84,321.73C300.47,322.28 300.25,322.61 299.83,323.22C299.15,324.22 298.02,325.87 297.12,327.15999999999997C296.25,328.41 295.26,329.83 294.54,330.84C294.03,331.56 293.67,332.06 293.22,332.68C292.76,333.33 292.34,333.91 291.8,334.65C291.11,335.6 289.88,337.26 289.41,337.89C289.22,338.15 289.2,338.18 289,338.45C288.48,339.15 286.7,341.5 286.13,342.26C285.89,342.58 285.85,342.64 285.61,342.95C285.1,343.62 283.89,345.18 283.19,346.07C282.66,346.74 282.28,347.23 281.8,347.84C281.28,348.5 280.76,349.15 280.18,349.88C279.51,350.72 278.56,351.87 277.99,352.57C277.62,353.02 277.47,353.21 277.07,353.69C276.35,354.55 275.08,356.07 274.025,357.31C272.89,358.64 271.64,360.09 270.475,361.42C269.36,362.69 267.85,364.37 267.19,365.11C266.9,365.43 266.85,365.48 266.57,365.79C265.96,366.45 264.38,368.18 263.68,368.92C263.29,369.34 263.15,369.48 262.76,369.89C262.09,370.59 260.75,372.01 260.04,372.73C259.6,373.18 259.39,373.38 258.95,373.83C258.25,374.53 256.96,375.85 256.25,376.54C255.8,376.98 255.6,377.17 255.14,377.61C254.41,378.31 253,379.68 252.3,380.34C251.89,380.72 251.75,380.86 251.33,381.24C250.58,381.93 248.81,383.56 248.16,384.15C247.87,384.41 247.83,384.45 247.53,384.71C246.8,385.35 245.03,386.91 243.76,387.995C242.49,389.08 240.68,390.57 239.91,391.2C239.58,391.47 239.53,391.52 239.21,391.77C238.54,392.3 236.99,393.51 236.1,394.21C235.43,394.73 234.94,395.12 234.33,395.58C233.68,396.07 233.05,396.52 232.29,397.07C231.34,397.76 229.72,398.93 229.07,399.38C228.8,399.57 228.76,399.59 228.48,399.78C227.76,400.26 225.61,401.72 224.68,402.34C224.14,402.7 223.89,402.87 223.39,403.19C222.69,403.63 221.79,404.18 220.87,404.74Q219.75,405.42 217.12,407" style="stroke-miterlimit: 1; vector-effect: non-scaling-stroke; fill: none; stroke: rgb(47, 38, 33); stroke-opacity: 1; stroke-width: 2px;"/></g><g class="contourlevel"><path class="openline" d="M0,257.6Q1.32,255.64 1.96,254.68C2.59,253.74 3.33,252.61 3.81,251.91C4.11,251.48 4.23,251.33 4.56,250.87C5.21,249.97 6.5,248.15 7.465,246.85C8.38,245.61 9.48,244.21 10.21,243.25C10.69,242.62 10.97,242.24 11.42,241.67C11.96,240.99 12.61,240.2 13.23,239.44C13.88,238.64 14.65,237.65 15.23,236.96C15.66,236.45 15.9,236.18 16.36,235.64C17.06,234.81 18.47,233.12 19.04,232.47C19.3,232.17 19.34,232.13 19.61,231.83C20.26,231.1 21.77,229.35 22.905,228.085C24.08,226.77 25.34,225.39 26.545,224.085C27.7,222.83 29.37,221.07 29.99,220.4C30.22,220.15 30.23,220.13 30.46,219.89C31.05,219.27 32.99,217.28 33.64,216.6C33.93,216.29 33.98,216.23 34.27,215.93C34.91,215.27 36.7,213.47 37.37,212.79C37.69,212.47 37.76,212.39 38.08,212.07C38.75,211.4 40.52,209.64 41.19,208.98C41.51,208.66 41.57,208.6 41.89,208.28C42.57,207.61 44.43,205.8 45.08,205.17C45.37,204.89 45.41,204.85 45.7,204.57C46.37,203.92 48.43,201.94 49.04,201.36C49.27,201.14 49.28,201.13 49.51,200.91C50.15,200.3 51.94,198.61 53.185,197.44C54.48,196.23 55.81,194.98 57.135,193.76C58.46,192.54 59.81,191.29 61.11,190.10500000000002C62.35,188.97 63.99,187.48 64.74,186.8C65.08,186.49 65.15,186.43 65.48,186.13C66.15,185.52 67.77,184.08 68.55,183.38C69.04,182.94 69.26,182.74 69.73,182.32C70.43,181.69 71.57,180.68 72.35,179.99C72.97,179.44 73.43,179.04 74.02,178.52C74.69,177.93 75.44,177.26 76.16,176.63C76.89,175.99 77.68,175.3 78.36,174.71C78.94,174.2 79.36,173.83 79.97,173.3C80.77,172.6 82.04,171.51 82.74,170.9C83.17,170.53 83.33,170.39 83.78,170C84.58,169.31 86.57,167.59 87.16,167.09C87.37,166.91 87.38,166.91 87.59,166.73C88.24,166.18 90.22,164.48 91.505,163.38C92.75,162.32 94.38,160.95 95.2,160.25C95.61,159.9 95.72,159.8 96.11,159.47C96.8,158.88 98.18,157.74 99.01,157.04C99.63,156.52 100.06,156.16 100.64,155.67C101.31,155.11 102.08,154.47 102.82,153.85C103.6,153.2 104.52,152.43 105.21,151.86C105.74,151.42 106.06,151.16 106.63,150.69C107.48,149.99 109.17,148.59 109.82,148.05C110.1,147.81 110.14,147.78 110.43,147.54C111.17,146.93 113.06,145.38 114.35,144.32999999999998C115.6,143.31 117.18,142.02 118.05,141.31C118.52,140.93 118.69,140.79 119.13,140.43C119.83,139.86 121.02,138.91 121.86,138.23C122.57,137.65 123.19,137.15 123.84,136.63C124.46,136.13 124.99,135.71 125.67,135.16C126.53,134.47 127.9,133.37 128.59,132.82C128.97,132.52 129.07,132.44 129.47,132.12C130.3,131.46 132.05,130.06 133.32999999999998,129.05C134.59,128.05 136.21,126.78 137.09,126.08C137.57,125.7 137.75,125.55 138.2,125.2C138.9,124.65 140.05,123.77 140.9,123.1C141.66,122.5 142.4,121.91 143.07,121.39C143.65,120.94 144.07,120.62 144.71,120.13C145.62,119.43 147.36,118.07 147.99,117.59C148.24,117.4 148.26,117.39 148.52,117.19C149.21,116.66 151.59,114.84 152.32,114.27C152.62,114.04 152.66,114 152.95,113.78C153.6,113.28 155.22,112.07 156.13,111.37C156.82,110.84 157.34,110.44 157.96,109.97C158.61,109.48 159.21,109.04 159.94,108.49C160.86,107.8 162.37,106.66 163.04,106.16C163.36,105.92 163.42,105.88 163.75,105.64C164.52,105.08 166.84,103.37 167.56,102.82C167.85,102.6 167.89,102.56 168.17,102.35C168.82,101.87 170.42,100.71 171.36,100.02C172.1,99.47 172.71,99.02 173.36,98.55C173.98,98.1 174.46,97.76 175.17,97.25C176.17,96.53 177.57,95.51 178.81,94.62C180.11,93.69 181.86,92.45 182.79,91.78C183.3,91.41 183.5,91.26 183.97,90.93C184.67,90.43 185.71,89.72 186.6,89.1C187.52,88.45 188.7,87.61 189.4,87.12C189.82,86.83 189.96,86.74 190.4,86.44C191.26,85.85 193.44,84.34 194.21,83.81C194.54,83.58 194.61,83.53 194.93,83.31C195.6,82.85 197.04,81.88 198.02,81.22C198.91,80.62 199.85,79.98 200.55,79.51C201.05,79.18 201.29,79.02 201.83,78.66C202.76,78.04 204.9,76.64 205.64,76.14C205.95,75.93 205.99,75.9 206.29,75.7C206.94,75.27 208.43,74.31 209.44,73.65C210.37,73.04 211.44,72.34 212.14,71.89C212.59,71.6 212.77,71.49 213.25,71.19C214.14,70.63 216.18,69.34 217.06,68.78C217.53,68.48 217.7,68.36 218.14,68.08C218.84,67.64 219.9,67 220.87,66.4C221.99,65.71 223.26,64.92 224.495,64.16499999999999C225.79,63.37 227.36,62.44 228.48,61.76C229.31,61.26 229.96,60.86 230.63,60.46C231.22,60.11 231.62,59.89 232.29,59.5C233.3,58.91 235.22,57.79 236.1,57.28C236.56,57.01 236.72,56.91 237.16,56.66C237.86,56.26 238.91,55.67 239.91,55.11C241.1,54.44 242.54,53.63 243.82999999999998,52.915C245.08,52.23 246.3,51.57 247.53,50.9C248.74,50.24 249.91,49.6 251.145,48.945C252.44,48.26 253.89,47.51 255.14,46.86C256.25,46.28 257.62,45.57 258.28,45.23C258.58,45.08 258.64,45.06 258.95,44.9C259.7,44.53 261.55,43.61 262.76,43.01C263.87,42.46 265.31,41.73 265.96,41.42C266.24,41.29 266.28,41.28 266.57,41.15C267.3,40.82 269.1,39.94 270.37,39.35C271.63,38.76 272.87,38.18 274.14,37.599999999999994C275.41,37.02 276.71,36.45 277.99,35.88C279.26,35.32 280.97,34.59 281.8,34.22C282.21,34.04 282.32,33.98 282.71,33.81C283.4,33.51 284.58,33.03 285.61,32.61C286.79,32.12 288.26,31.53 289.41,31.06Q290.36,30.67 292,30" style="stroke-miterlimit: 1; vector-effect: non-scaling-stroke; fill: none; stroke: rgb(59, 46, 38); stroke-opacity: 1; stroke-width: 2px;"/><path class="openline" d="M377,115Q376.33,116.64 375.94,117.59C375.47,118.74 374.88,120.21 374.39,121.39C373.97,122.42 373.49,123.6 373.19,124.29C373.02,124.68 372.96,124.79 372.78,125.2C372.41,126.03 371.68,127.74 371.12,129.01C370.55,130.29 369.98,131.59 369.4,132.86C368.82,134.13 368.24,135.37 367.65,136.63C367.06,137.9 366.18,139.7 365.85,140.43C365.72,140.72 365.71,140.76 365.58,141.04C365.27,141.69 364.54,143.13 363.99,144.24C363.39,145.45 362.47,147.3 362.1,148.05C361.94,148.36 361.92,148.42 361.77,148.72C361.43,149.38 360.72,150.75 360.14,151.86C359.49,153.11 358.74,154.56 358.05499999999995,155.855C357.4,157.09 356.76,158.26 356.1,159.47C355.43,160.7 354.77,161.92 354.085,163.17000000000002C353.37,164.46 352.56,165.9 351.89,167.09C351.33,168.09 350.74,169.14 350.34,169.84C350.09,170.28 349.99,170.44 349.72,170.9C349.21,171.78 348.09,173.7 347.5,174.71C347.11,175.38 346.89,175.78 346.54,176.37C346.14,177.04 345.74,177.69 345.24,178.52C344.56,179.64 343.63,181.21 342.83500000000004,182.505C342.08,183.74 341.29,185.01 340.6,186.13C340,187.1 339.36,188.16 338.92,188.86C338.64,189.3 338.52,189.47 338.22,189.94C337.66,190.82 336.37,192.86 335.81,193.75C335.51,194.23 335.4,194.41 335.11,194.86C334.66,195.56 333.96,196.63 333.35,197.56C332.69,198.57 331.73,200.06 331.3,200.71C331.1,201.01 331.07,201.05 330.86,201.36C330.36,202.1 328.96,204.24 328.34,205.17C327.98,205.71 327.82,205.95 327.49,206.45C327.02,207.15 326.38,208.09 325.78,208.98C325.12,209.96 324.15,211.4 323.69,212.07C323.47,212.39 323.42,212.46 323.19,212.79C322.66,213.56 321.15,215.74 320.56,216.6C320.26,217.04 320.17,217.18 319.88,217.6C319.39,218.3 318.55,219.48 317.9,220.4C317.28,221.29 316.57,222.33 316.07,223.03C315.74,223.5 315.59,223.7 315.22,224.21C314.55,225.14 313.31,226.89 312.38,228.19C311.49,229.43 310.47,230.83 309.75,231.83C309.24,232.54 308.9,233.02 308.45,233.64C307.98,234.29 307.53,234.9 306.98,235.64C306.29,236.58 305.13,238.18 304.65,238.83C304.44,239.11 304.4,239.15 304.18,239.44C303.63,240.16 301.92,242.48 301.36,243.25C301.12,243.58 301.08,243.64 300.84,243.96C300.34,244.63 299.2,246.14 298.51,247.06C297.96,247.79 297.52,248.39 297.03,249.04C296.56,249.66 296.16,250.18 295.63,250.87C294.93,251.78 293.72,253.4 293.22,254.05C293,254.34 292.96,254.38 292.73,254.68C292.16,255.41 290.34,257.79 289.81,258.48C289.61,258.74 289.6,258.76 289.41,259.01C288.93,259.64 287.57,261.38 286.87,262.29C286.38,262.93 286.06,263.35 285.61,263.93C285.09,264.6 284.5,265.34 283.9,266.1C283.23,266.95 282.35,268.1 281.8,268.8C281.45,269.25 281.3,269.43 280.92,269.91C280.22,270.79 278.95,272.41 277.95000000000005,273.67C276.94,274.95 275.54,276.7 274.88,277.53C274.56,277.93 274.48,278.03 274.18,278.41C273.63,279.1 272.53,280.47 271.84,281.33C271.29,282.01 270.87,282.54 270.37,283.16C269.85,283.81 269.35,284.43 268.77,285.14C268.09,285.98 267.14,287.17 266.57,287.87C266.21,288.31 266.07,288.48 265.69,288.95C264.98,289.82 263.69,291.4 262.66999999999996,292.65C261.62,293.94 260.07,295.83 259.46,296.57C259.22,296.86 259.19,296.9 258.95,297.18C258.41,297.83 257.01,299.52 256.31,300.37C255.84,300.94 255.58,301.26 255.14,301.79C254.57,302.48 253.8,303.4 253.15,304.18C252.53,304.92 251.89,305.69 251.33,306.36C250.84,306.94 250.48,307.37 249.96,307.99C249.26,308.82 248.12,310.2 247.53,310.89C247.2,311.28 247.1,311.39 246.75,311.8C246.05,312.62 244.68,314.25 243.62,315.495C242.52,316.78 240.82,318.76 240.27,319.41C240.09,319.62 240.09,319.63 239.91,319.84C239.41,320.43 237.69,322.42 237,323.22C236.61,323.67 236.47,323.83 236.1,324.26C235.49,324.96 234.4,326.23 233.7,327.03C233.17,327.64 232.8,328.06 232.29,328.64C231.7,329.32 231.01,330.11 230.37,330.84C229.74,331.56 229.07,332.31 228.48,332.98C227.96,333.57 227.56,334.03 227.01,334.65C226.32,335.43 225.31,336.57 224.68,337.27C224.26,337.74 224.06,337.96 223.62,338.45C222.92,339.23 221.48,340.85 220.87,341.52C220.57,341.85 220.51,341.92 220.2,342.26C219.52,343.01 218.03,344.65 216.89499999999998,345.89C215.71,347.19 214.46,348.54 213.24,349.865C212.02,351.19 210.77,352.52 209.56,353.815C208.39,355.06 206.7,356.85 206.09,357.49C205.87,357.72 205.86,357.73 205.64,357.96C205.06,358.57 203.08,360.63 202.43,361.3C202.15,361.59 202.11,361.63 201.83,361.92C201.2,362.57 199.39,364.43 198.72,365.11C198.4,365.43 198.34,365.49 198.02,365.81C197.36,366.48 195.6,368.25 194.93,368.92C194.61,369.24 194.53,369.31 194.21,369.63C193.53,370.3 191.73,372.09 191.07,372.73C190.77,373.02 190.71,373.07 190.4,373.36C189.72,374.01 187.73,375.95 187.11,376.54C186.87,376.77 186.85,376.78 186.6,377.01C185.93,377.63 184.17,379.3 182.915,380.455C181.61,381.66 180.23,382.92 178.915,384.095C177.65,385.23 175.9,386.74 175.17,387.39C174.87,387.66 174.83,387.7 174.53,387.96C173.88,388.53 172.19,389.94 171.36,390.64C170.82,391.1 170.55,391.34 170.04,391.77C169.35,392.35 168.36,393.12 167.56,393.77C166.8,394.39 166.01,395.04 165.33,395.58C164.76,396.03 164.38,396.31 163.75,396.79C162.79,397.52 161.39,398.62 160.15,399.53499999999997C158.85,400.5 157.03,401.79 156.13,402.44C155.67,402.77 155.52,402.89 155.09,403.19C154.39,403.67 153.26,404.41 152.32,405.04Q151.36,405.68 149.4,407" style="stroke-miterlimit: 1; vector-effect: non-scaling-stroke; fill: none; stroke: rgb(59, 46, 38); stroke-opacity: 1; stroke-width: 2px;"/></g><g class="contourlevel"><path class="openline" d="M0,299.28Q1.66,297.38 2.35,296.57C2.9,295.93 3.28,295.42 3.81,294.82C4.4,294.15 5.1,293.45 5.73,292.76C6.37,292.07 7,291.33 7.62,290.67C8.19,290.06 8.73,289.56 9.32,288.95C9.99,288.26 10.75,287.42 11.42,286.75C12,286.17 12.49,285.72 13.08,285.14C13.75,284.48 14.54,283.66 15.23,283C15.85,282.4 16.41,281.91 17.02,281.33C17.68,280.71 18.36,280.02 19.04,279.39C19.72,278.76 20.44,278.13 21.1,277.53C21.71,276.97 22.21,276.48 22.85,275.9C23.6,275.22 24.61,274.35 25.31,273.72C25.83,273.25 26.12,272.97 26.66,272.49C27.45,271.78 28.94,270.51 29.62,269.91C29.99,269.59 30.08,269.49 30.46,269.16C31.25,268.47 32.9,267.06 34.150000000000006,265.995C35.44,264.9 37.42,263.21 38.08,262.66C38.3,262.47 38.31,262.47 38.53,262.29C39.13,261.79 41.05,260.17 41.89,259.47C42.39,259.05 42.61,258.87 43.09,258.48C43.79,257.9 44.89,256.98 45.7,256.31C46.41,255.73 47.05,255.21 47.7,254.68C48.32,254.17 48.84,253.72 49.51,253.17C50.34,252.48 51.63,251.44 52.33,250.87C52.74,250.53 52.88,250.41 53.31,250.05C54.15,249.35 55.79,248.03 57.05,247C58.33,245.95 60.15,244.46 60.93,243.83C61.26,243.56 61.33,243.51 61.65,243.25C62.32,242.71 63.88,241.43 64.74,240.73C65.35,240.23 65.75,239.91 66.32,239.44C67,238.89 67.79,238.24 68.55,237.62C69.34,236.97 70.29,236.21 70.98,235.64C71.5,235.21 71.79,234.96 72.35,234.5C73.2,233.8 74.98,232.35 75.61,231.83C75.87,231.61 75.89,231.59 76.16,231.37C76.87,230.78 78.81,229.19 80.1,228.125C81.35,227.09 82.93,225.79 83.78,225.08C84.23,224.7 84.39,224.57 84.82,224.21C85.52,223.62 86.77,222.59 87.59,221.9C88.25,221.35 88.77,220.92 89.38,220.4C90.03,219.85 90.68,219.3 91.39,218.7C92.18,218.04 93.19,217.19 93.89,216.6C94.4,216.17 94.67,215.93 95.2,215.48C96.02,214.78 97.7,213.35 98.36,212.79C98.66,212.53 98.7,212.49 99.01,212.23C99.75,211.59 101.54,210.06 102.805,208.97C104.08,207.87 105.93,206.27 106.63,205.66C106.9,205.43 106.92,205.4 107.18,205.17C107.81,204.61 109.64,203.02 110.43,202.32C110.89,201.92 111.08,201.75 111.52,201.36C112.22,200.74 113.46,199.65 114.24,198.96C114.84,198.43 115.25,198.07 115.82,197.56C116.5,196.96 117.33,196.22 118.05,195.57C118.74,194.95 119.42,194.34 120.07,193.75C120.68,193.2 121.22,192.72 121.86,192.14C122.61,191.46 123.58,190.57 124.28,189.94C124.81,189.46 125.13,189.17 125.67,188.68C126.44,187.98 127.74,186.77 128.44,186.13C128.87,185.74 129.03,185.58 129.47,185.18C130.22,184.48 131.89,182.94 132.56,182.32C132.88,182.02 132.95,181.96 133.28,181.66C133.99,181 136.04,179.08 136.64,178.52C136.86,178.31 136.87,178.31 137.09,178.1C137.73,177.5 139.54,175.79 140.79500000000002,174.61C142.08,173.39 143.4,172.14 144.70499999999998,170.89499999999998C146.01,169.66 147.3,168.41 148.60000000000002,167.17000000000002C149.89,165.93 151.2,164.66 152.475,163.43C153.71,162.23 155.51,160.5 156.13,159.89C156.34,159.68 156.34,159.68 156.55,159.47C157.14,158.89 159.31,156.8 159.94,156.18C160.19,155.94 160.21,155.91 160.45,155.67C161.07,155.06 163.1,153.08 163.75,152.44C164.02,152.17 164.06,152.13 164.33,151.86C164.97,151.23 166.9,149.35 167.56,148.69C167.86,148.4 167.91,148.34 168.2,148.05C168.85,147.4 170.69,145.6 171.36,144.93C171.67,144.62 171.74,144.55 172.05,144.24C172.71,143.58 174.5,141.83 175.17,141.16C175.5,140.83 175.56,140.76 175.89,140.43C176.56,139.76 178.3,138.05 178.98,137.38C179.32,137.05 179.39,136.96 179.73,136.63C180.4,135.96 182.11,134.29 182.79,133.61C183.14,133.26 183.22,133.17 183.57,132.82C184.25,132.14 185.91,130.52 186.6,129.83C186.96,129.47 187.05,129.37 187.41,129.01C188.09,128.33 189.71,126.75 190.4,126.06C190.77,125.69 190.88,125.57 191.25,125.2C191.94,124.52 193.51,123 194.21,122.3C194.6,121.91 194.72,121.78 195.11,121.39C195.8,120.7 197.31,119.25 198.02,118.55C198.43,118.15 198.58,117.99 198.99,117.59C199.69,116.91 201.12,115.53 201.83,114.83C202.27,114.4 202.44,114.21 202.88,113.78C203.58,113.09 204.92,111.83 205.64,111.12C206.11,110.66 206.33,110.42 206.8,109.97C207.5,109.29 208.71,108.15 209.44,107.45C209.95,106.95 210.24,106.65 210.75,106.16C211.45,105.49 212.53,104.49 213.25,103.8C213.81,103.26 214.19,102.88 214.74,102.35C215.42,101.7 216.35,100.86 217.06,100.19C217.68,99.61 218.17,99.12 218.77,98.55C219.43,97.93 220.18,97.26 220.87,96.62C221.54,95.99 222.2,95.34 222.85,94.74C223.47,94.17 224.04,93.68 224.68,93.09C225.41,92.42 226.3,91.56 226.99,90.93C227.54,90.43 227.91,90.11 228.48,89.6C229.25,88.9 230.48,87.75 231.19,87.12C231.64,86.72 231.83,86.57 232.29,86.16C233.08,85.46 234.81,83.88 235.47,83.31C235.76,83.06 235.8,83.03 236.1,82.78C236.83,82.15 238.6,80.57 239.87,79.475C241.14,78.37 243.02,76.79 243.72,76.18C243.99,75.95 244.01,75.92 244.27,75.7C244.9,75.16 246.7,73.7 247.53,72.99C248.05,72.55 248.3,72.31 248.8,71.89C249.5,71.31 250.53,70.51 251.33,69.85C252.07,69.24 252.79,68.62 253.46,68.08C254.05,67.61 254.5,67.28 255.14,66.77C256.02,66.07 257.59,64.78 258.26,64.27C258.57,64.03 258.63,64 258.95,63.76C259.71,63.19 262.11,61.33 262.76,60.82C262.98,60.64 262.99,60.63 263.21,60.46C263.81,60 265.64,58.67 266.57,57.97C267.24,57.47 267.69,57.1 268.29,56.66C268.95,56.18 269.6,55.74 270.37,55.19C271.33,54.5 272.97,53.3 273.61,52.85C273.88,52.66 273.91,52.65 274.18,52.46C274.89,51.97 277.1,50.46 277.99,49.84C278.48,49.5 278.65,49.35 279.11,49.04C279.81,48.56 280.87,47.9 281.8,47.29C282.8,46.63 284.23,45.66 284.9,45.23C285.22,45.03 285.28,45 285.61,44.8C286.38,44.33 288.42,43.05 289.41,42.42C290.04,42.02 290.39,41.77 290.96,41.42C291.64,41.01 292.36,40.61 293.22,40.11C294.37,39.44 295.92,38.49 297.225,37.739999999999995C298.46,37.03 299.63,36.4 300.84,35.73C302.05,35.06 303.24,34.39 304.48,33.725C305.77,33.04 307.19,32.33 308.45,31.68Q309.6,31.09 311.74,30" style="stroke-miterlimit: 1; vector-effect: non-scaling-stroke; fill: none; stroke: rgb(72, 54, 43); stroke-opacity: 1; stroke-width: 2px;"/><path class="openline" d="M377,95.26Q375.91,97.4 375.32,98.55C374.67,99.81 373.96,101.23 373.275,102.52C372.61,103.76 371.94,104.95 371.27,106.16C370.6,107.37 369.97,108.54 369.26,109.775C368.51,111.08 367.56,112.63 366.89,113.78C366.39,114.64 365.99,115.36 365.58,116.04C365.23,116.61 364.98,116.96 364.58,117.59C363.95,118.58 362.67,120.62 362.2,121.39C362,121.72 361.97,121.78 361.77,122.1C361.34,122.77 360.37,124.2 359.71,125.2C359.1,126.13 358.44,127.19 357.96,127.89C357.65,128.35 357.5,128.52 357.16,129.01C356.54,129.9 355.03,132.11 354.54,132.82C354.35,133.09 354.34,133.12 354.15,133.39C353.7,134.03 352.5,135.67 351.81,136.63C351.26,137.4 350.82,138.05 350.34,138.71C349.9,139.31 349.53,139.76 349.03,140.43C348.33,141.36 347,143.19 346.54,143.79C346.37,144.01 346.36,144.02 346.18,144.24C345.67,144.89 343.81,147.29 343.24,148.05C343,148.37 342.97,148.43 342.73,148.74C342.22,149.41 340.93,150.98 340.23,151.86C339.72,152.5 339.39,152.95 338.92,153.54C338.38,154.21 337.76,154.93 337.15,155.67C336.49,156.47 335.69,157.5 335.11,158.2C334.69,158.7 334.45,158.95 334.01,159.47C333.3,160.3 331.84,162.1 331.3,162.73C331.08,162.99 331.05,163.01 330.82,163.28C330.21,163.98 328.63,165.86 327.525,167.13C326.43,168.4 324.85,170.17 324.22,170.9C323.97,171.2 323.94,171.24 323.69,171.53C323.12,172.19 321.54,173.92 320.84,174.71C320.43,175.17 320.28,175.36 319.88,175.81C319.25,176.52 318.1,177.75 317.4,178.52C316.89,179.09 316.57,179.46 316.07,180.01C315.44,180.7 314.58,181.59 313.91,182.32C313.32,182.96 312.83,183.53 312.26,184.15C311.66,184.8 311.01,185.46 310.38,186.13C309.74,186.82 309.07,187.57 308.45,188.23C307.88,188.83 307.39,189.32 306.81,189.94C306.14,190.65 305.3,191.58 304.65,192.26C304.12,192.81 303.74,193.19 303.2,193.75C302.51,194.47 301.51,195.55 300.84,196.25C300.35,196.76 300.05,197.05 299.55,197.56C298.85,198.29 297.71,199.5 297.03,200.2C296.58,200.67 296.34,200.89 295.88,201.36C295.17,202.08 293.91,203.42 293.22,204.12C292.79,204.56 292.6,204.73 292.17,205.17C291.47,205.88 290.09,207.31 289.41,208.01C289.01,208.42 288.85,208.57 288.45,208.98C287.75,209.69 286.3,211.2 285.61,211.89C285.22,212.28 285.09,212.4 284.7,212.79C284,213.49 282.48,215.06 281.8,215.75C281.43,216.12 281.31,216.23 280.94,216.6C280.25,217.29 278.67,218.91 277.99,219.59C277.63,219.95 277.53,220.04 277.17,220.4C276.48,221.09 274.86,222.75 274.18,223.43C273.83,223.78 273.74,223.86 273.39,224.21C272.71,224.89 271.04,226.6 270.37,227.27C270.04,227.61 269.95,227.68 269.62,228.02C268.95,228.7 267.24,230.44 266.57,231.11C266.24,231.44 266.17,231.5 265.84,231.83C265.17,232.5 263.42,234.29 262.76,234.95C262.45,235.26 262.38,235.33 262.07,235.64C261.4,236.31 259.6,238.15 258.95,238.8C258.66,239.09 258.6,239.14 258.31,239.44C257.65,240.1 255.77,242.03 255.14,242.67C254.87,242.94 254.83,242.98 254.56,243.25C253.92,243.9 251.94,245.93 251.33,246.55C251.09,246.79 251.06,246.81 250.82,247.06C250.2,247.69 248.11,249.86 247.53,250.45C247.32,250.66 247.32,250.66 247.11,250.87C246.5,251.49 244.77,253.29 243.57,254.525C242.34,255.8 241.07,257.11 239.82999999999998,258.4C238.59,259.7 237.34,260.99 236.10500000000002,262.295C234.86,263.6 233.61,264.92 232.39,266.20500000000004C231.21,267.46 229.5,269.27 228.9,269.91C228.69,270.13 228.69,270.14 228.48,270.36C227.92,270.96 226,273.01 225.34,273.72C225.04,274.05 224.98,274.12 224.68,274.44C224.06,275.11 222.52,276.78 221.82,277.53C221.42,277.97 221.26,278.13 220.87,278.56C220.23,279.26 219.02,280.56 218.32,281.33C217.83,281.87 217.54,282.19 217.06,282.72C216.43,283.42 215.54,284.39 214.86,285.14C214.28,285.78 213.8,286.32 213.25,286.93C212.66,287.58 212.05,288.26 211.43,288.95C210.78,289.67 210.04,290.5 209.44,291.18C208.93,291.75 208.57,292.16 208.04,292.76C207.35,293.54 206.26,294.78 205.64,295.48C205.25,295.92 205.08,296.11 204.68,296.57C203.98,297.36 202.39,299.19 201.83,299.82C201.6,300.08 201.57,300.1 201.34,300.37C200.73,301.07 199.13,302.92 198.03,304.195C196.94,305.46 195.41,307.25 194.77,307.99C194.51,308.3 194.47,308.34 194.21,308.64C193.65,309.3 192.22,310.98 191.52,311.8C191.07,312.33 190.83,312.6 190.4,313.11C189.81,313.81 188.96,314.82 188.3,315.61C187.7,316.32 187.15,316.97 186.6,317.62C186.08,318.23 185.65,318.75 185.1,319.41C184.41,320.23 183.38,321.48 182.79,322.18C182.43,322.61 182.3,322.77 181.92,323.22C181.21,324.07 179.91,325.65 178.875,326.9C177.81,328.19 176.22,330.13 175.63,330.84C175.41,331.11 175.39,331.13 175.17,331.39C174.65,332.02 173.2,333.8 172.5,334.65C172.04,335.21 171.79,335.5 171.36,336.02C170.79,336.71 170.03,337.66 169.38,338.45C168.76,339.21 168.11,340 167.56,340.68C167.09,341.25 166.77,341.65 166.27,342.26C165.57,343.12 164.29,344.68 163.75,345.35C163.49,345.67 163.44,345.74 163.17,346.07C162.54,346.85 161.05,348.67 160,349.95C158.97,351.21 157.65,352.85 156.95,353.69C156.59,354.12 156.47,354.26 156.13,354.67C155.56,355.37 154.52,356.66 153.83,357.49C153.28,358.16 152.83,358.68 152.32,359.3C151.79,359.95 151.27,360.59 150.69,361.3C150.02,362.11 149.1,363.21 148.52,363.91C148.13,364.39 147.95,364.61 147.53,365.11C146.83,365.95 145.21,367.87 144.71,368.47C144.53,368.69 144.53,368.7 144.34,368.92C143.79,369.58 142.1,371.56 141.005,372.85C139.94,374.1 138.53,375.75 137.84,376.54C137.51,376.92 137.41,377.01 137.09,377.38C136.49,378.06 135.22,379.55 134.51,380.34C134.03,380.88 133.75,381.17 133.28,381.69C132.65,382.39 131.78,383.4 131.1,384.15C130.52,384.79 130.03,385.29 129.47,385.9C128.87,386.56 128.24,387.28 127.61,387.96C126.98,388.64 126.29,389.32 125.67,389.98C125.09,390.59 124.6,391.15 124,391.77C123.34,392.46 122.52,393.25 121.86,393.92C121.28,394.51 120.83,395 120.25,395.58C119.58,396.25 118.74,397.01 118.05,397.68C117.44,398.27 116.94,398.81 116.33,399.38C115.67,400 114.93,400.63 114.24,401.27C113.55,401.9 112.85,402.6 112.18,403.19C111.58,403.72 111.07,404.1 110.43,404.65Q109.62,405.34 107.72,407" style="stroke-miterlimit: 1; vector-effect: non-scaling-stroke; fill: none; stroke: rgb(72, 54, 43); stroke-opacity: 1; stroke-width: 2px;"/></g><g class="contourlevel"><path class="openline" d="M0,328.59Q1.35,327.55 2,327.03C2.62,326.53 3.11,326.07 3.81,325.53C4.71,324.83 6.33,323.71 6.98,323.22C7.28,323 7.31,322.95 7.62,322.73C8.35,322.2 10.53,320.69 11.42,320.1C11.9,319.79 12.08,319.7 12.53,319.41C13.24,318.96 14.26,318.24 15.23,317.63C16.33,316.93 17.57,316.19 18.799999999999997,315.45000000000005C20.1,314.66 21.69,313.71 22.85,313.05C23.71,312.56 24.45,312.19 25.13,311.8C25.69,311.48 26.03,311.26 26.66,310.91C27.64,310.36 29.45,309.37 30.46,308.84C31.13,308.49 31.55,308.3 32.14,307.99C32.81,307.64 33.46,307.28 34.27,306.85C35.35,306.28 37.09,305.4 38.08,304.91C38.7,304.6 39.04,304.45 39.6,304.18C40.29,303.84 41.03,303.45 41.89,303.03C43,302.49 44.66,301.69 45.7,301.2C46.41,300.87 46.89,300.66 47.51,300.37C48.16,300.07 48.74,299.78 49.51,299.42C50.57,298.92 52.17,298.19 53.31,297.68C54.24,297.26 55.14,296.88 55.84,296.57C56.34,296.35 56.58,296.22 57.12,295.98C58.05,295.56 59.66,294.87 60.93,294.32C62.18,293.78 63.41,293.25 64.66999999999999,292.725C65.95,292.19 67.26,291.65 68.55,291.12C69.82,290.6 71.35,289.97 72.35,289.57C73,289.31 73.38,289.18 73.96,288.95C74.64,288.68 75.33,288.4 76.16,288.07C77.26,287.64 78.7,287.09 79.97,286.6C81.25,286.11 82.54,285.62 83.82,285.155C85.08,284.69 86.33,284.25 87.59,283.81C88.85,283.37 90.13,282.93 91.39,282.5C92.62,282.08 93.8,281.68 95.045,281.28C96.34,280.87 97.7,280.46 99.01,280.07C100.29,279.69 101.55,279.33 102.82,278.98C104.09,278.63 105.53,278.25 106.63,277.99C107.45,277.8 108.14,277.68 108.81,277.53C109.39,277.4 109.77,277.29 110.43,277.16C111.43,276.97 112.97,276.71 114.24,276.56C115.51,276.41 116.78,276.28 118.05,276.25C119.32,276.22 120.59,276.21 121.86,276.4C123.17,276.6 124.58,276.76 125.78999999999999,277.46C127.17,278.26 128.74,279.83 129.54000000000002,281.21C130.24,282.42 130.4,283.83 130.6,285.14C130.79,286.41 130.78,287.68 130.75,288.95C130.72,290.22 130.59,291.49 130.44,292.76C130.29,294.03 130.03,295.57 129.84,296.57C129.71,297.23 129.6,297.61 129.47,298.19C129.32,298.86 129.2,299.55 129.01,300.37C128.75,301.47 128.37,302.91 128.02,304.18C127.67,305.45 127.31,306.71 126.93,307.99C126.54,309.3 126.13,310.66 125.72,311.95500000000004C125.32,313.2 124.92,314.38 124.5,315.61C124.07,316.87 123.63,318.15 123.19,319.41C122.75,320.67 122.31,321.92 121.845,323.18C121.38,324.46 120.89,325.75 120.4,327.03C119.91,328.3 119.36,329.74 118.93,330.84C118.6,331.67 118.32,332.36 118.05,333.04C117.82,333.62 117.69,334 117.43,334.65C117.03,335.65 116.4,337.18 115.88,338.45C115.35,339.74 114.81,341.05 114.275,342.33C113.75,343.59 113.22,344.82 112.68,346.07C112.13,347.34 111.44,348.95 111.02,349.88C110.78,350.42 110.65,350.66 110.43,351.16C110.12,351.86 109.74,352.76 109.32,353.69C108.81,354.83 108.08,356.43 107.58,357.49C107.22,358.26 106.93,358.84 106.63,359.49C106.34,360.11 106.13,360.59 105.8,361.3C105.31,362.34 104.51,364 103.97,365.11C103.55,365.97 103.16,366.71 102.82,367.4C102.55,367.96 102.4,368.3 102.09,368.92C101.6,369.91 100.72,371.65 100.15,372.73C99.72,373.54 99.36,374.19 99.01,374.86C98.7,375.45 98.51,375.87 98.16,376.54C97.63,377.55 96.64,379.36 96.09,380.34C95.74,380.97 95.52,381.31 95.2,381.87C94.81,382.55 94.44,383.29 93.95,384.15C93.29,385.31 92.34,386.9 91.55,388.2C90.81,389.43 90.07,390.67 89.37,391.77C88.76,392.74 88.04,393.76 87.59,394.47C87.3,394.92 87.21,395.1 86.9,395.58C86.31,396.47 84.8,398.65 84.27,399.38C84.05,399.69 84,399.72 83.78,400.02C83.29,400.67 82.17,402.29 81.47,403.19C80.93,403.89 80.47,404.38 79.97,405Q79.45,405.65 78.41,407" style="stroke-miterlimit: 1; vector-effect: non-scaling-stroke; fill: none; stroke: rgb(85, 62, 47); stroke-opacity: 1; stroke-width: 2px;"/><path class="openline" d="M377,83.03Q375.18,85.97 374.48,87.12C373.98,87.95 373.62,88.61 373.19,89.27C372.81,89.87 372.5,90.26 372.04,90.93C371.34,91.95 370.33,93.55 369.44,94.83C368.56,96.09 367.47,97.55 366.76,98.55C366.28,99.22 366.02,99.66 365.58,100.25C365.08,100.92 364.5,101.59 363.91,102.35C363.24,103.22 362.33,104.5 361.77,105.19C361.44,105.6 361.3,105.73 360.94,106.16C360.24,107 358.94,108.65 357.895,109.9C356.81,111.19 355.12,113.11 354.55,113.78C354.35,114.02 354.35,114.03 354.15,114.26C353.61,114.87 351.79,116.83 351.11,117.59C350.77,117.98 350.68,118.1 350.34,118.47C349.7,119.17 348.22,120.65 347.53,121.39C347.11,121.84 346.96,122.04 346.54,122.48C345.86,123.19 344.5,124.49 343.8,125.2C343.36,125.65 343.18,125.87 342.73,126.32C342.02,127.03 340.61,128.33 339.91,129.01C339.49,129.42 339.35,129.6 338.92,130.01C338.19,130.72 336.54,132.18 335.87,132.82C335.53,133.14 335.46,133.23 335.11,133.56C334.36,134.26 332.73,135.7 331.485,136.8C330.17,137.96 328.73,139.21 327.395,140.35500000000002C326.13,141.44 324.53,142.8 323.69,143.48C323.27,143.82 323.13,143.91 322.72,144.24C322.02,144.8 320.74,145.91 319.88,146.59C319.19,147.14 318.61,147.55 317.98,148.05C317.34,148.55 316.78,149.03 316.07,149.59C315.19,150.28 313.76,151.33 313.08,151.86C312.72,152.14 312.64,152.22 312.26,152.51C311.46,153.13 309.11,154.86 308.45,155.34C308.22,155.51 308.21,155.51 307.99,155.67C307.39,156.11 305.62,157.42 304.65,158.11C303.91,158.64 303.31,159.01 302.66,159.47C302.04,159.91 301.56,160.29 300.84,160.8C299.82,161.52 298.38,162.49 297.12,163.345C295.84,164.21 294.27,165.27 293.22,165.96C292.52,166.42 292.06,166.69 291.45,167.09C290.79,167.52 290.2,167.94 289.41,168.45C288.34,169.15 286.86,170.08 285.58500000000004,170.885C284.32,171.68 282.93,172.55 281.8,173.24C280.89,173.79 280.03,174.29 279.33,174.71C278.81,175.02 278.55,175.2 277.99,175.54C277.05,176.11 275.12,177.25 274.18,177.79C273.64,178.1 273.38,178.23 272.88,178.52C272.18,178.92 271.31,179.45 270.37,179.98C269.19,180.65 267.67,181.5 266.365,182.215C265.13,182.89 263.97,183.53 262.76,184.18C261.53,184.84 260.28,185.51 259.015,186.17000000000002C257.74,186.84 256.42,187.5 255.14,188.15C253.89,188.78 252.69,189.38 251.44,189.995C250.16,190.62 248.84,191.25 247.53,191.86C246.22,192.48 244.87,193.11 243.575,193.69C242.33,194.25 241.15,194.75 239.91,195.28C238.65,195.81 237.14,196.46 236.1,196.87C235.39,197.15 234.9,197.32 234.28,197.56C233.63,197.81 233.06,198.05 232.29,198.34C231.23,198.73 229.75,199.25 228.48,199.67C227.22,200.09 225.73,200.58 224.68,200.88C223.94,201.09 223.41,201.19 222.77,201.36C222.14,201.52 221.62,201.7 220.87,201.87C219.82,202.1 218.33,202.39 217.06,202.54C215.79,202.69 214.52,202.82 213.25,202.77C211.98,202.72 210.45,202.53 209.44,202.22C208.72,202 208.25,201.77 207.67,201.36C206.97,200.86 206.14,200.03 205.64,199.33C205.23,198.75 205,198.28 204.78,197.56C204.47,196.55 204.28,195.02 204.23,193.75C204.18,192.48 204.31,191.21 204.46,189.94C204.61,188.67 204.9,187.18 205.13,186.13C205.3,185.38 205.48,184.86 205.64,184.23C205.81,183.59 205.91,183.06 206.12,182.32C206.42,181.27 206.91,179.78 207.33,178.52C207.75,177.25 208.27,175.77 208.66,174.71C208.95,173.94 209.19,173.37 209.44,172.72C209.68,172.1 209.85,171.61 210.13,170.9C210.54,169.86 211.19,168.35 211.72,167.09C212.25,165.85 212.75,164.67 213.31,163.425C213.89,162.13 214.52,160.78 215.14,159.47C215.75,158.16 216.38,156.84 217.005,155.56C217.62,154.31 218.22,153.11 218.85,151.86C219.5,150.58 220.16,149.26 220.82999999999998,147.985C221.49,146.72 222.16,145.47 222.82,144.24C223.47,143.03 224.11,141.87 224.785,140.635C225.5,139.33 226.35,137.81 227.02,136.63C227.55,135.69 228.08,134.82 228.48,134.12C228.77,133.62 228.9,133.36 229.21,132.82C229.75,131.88 230.89,129.95 231.46,129.01C231.8,128.45 231.98,128.19 232.29,127.67C232.71,126.97 233.21,126.11 233.76,125.2C234.45,124.07 235.32,122.68 236.115,121.41499999999999C236.92,120.14 237.85,118.66 238.55,117.59C239.06,116.8 239.48,116.21 239.91,115.55C240.31,114.94 240.58,114.48 241.04,113.78C241.73,112.73 242.79,111.16 243.655,109.88C244.51,108.62 245.48,107.18 246.2,106.16C246.71,105.44 247.09,104.96 247.53,104.34C247.99,103.69 248.36,103.09 248.89,102.35C249.58,101.38 250.89,99.61 251.33,99.01C251.49,98.79 251.49,98.78 251.66,98.55C252.14,97.89 253.87,95.54 254.49,94.74C254.78,94.36 254.86,94.28 255.14,93.92C255.67,93.24 256.72,91.81 257.41,90.93C257.97,90.22 258.45,89.66 258.95,89.02C259.45,88.39 259.86,87.81 260.41,87.12C261.09,86.26 262.2,84.98 262.76,84.28C263.09,83.87 263.18,83.73 263.52,83.31C264.2,82.47 265.56,80.87 266.645,79.605C267.79,78.27 269.04,76.83 270.2,75.515C271.3,74.27 272.74,72.64 273.44,71.89C273.77,71.54 273.86,71.47 274.18,71.13C274.82,70.46 276.28,68.81 276.99,68.08C277.4,67.65 277.58,67.51 277.99,67.09C278.67,66.39 279.97,64.98 280.68,64.27C281.13,63.82 281.35,63.64 281.8,63.2C282.51,62.5 283.81,61.14 284.52,60.46C284.96,60.04 285.16,59.89 285.61,59.47C286.35,58.78 287.83,57.3 288.53,56.66C288.9,56.32 289.02,56.23 289.41,55.89C290.17,55.21 292.13,53.39 292.74,52.85C292.97,52.65 292.98,52.65 293.22,52.45C293.89,51.88 295.81,50.19 297.1,49.105000000000004C298.35,48.06 300,46.76 300.84,46.06C301.27,45.7 301.4,45.56 301.81,45.23C302.5,44.67 303.78,43.76 304.65,43.09C305.41,42.5 306.08,41.92 306.75,41.42C307.34,40.98 307.78,40.72 308.45,40.24C309.45,39.53 310.91,38.44 312.16999999999996,37.56C313.45,36.67 315.05,35.66 316.07,34.96C316.74,34.5 317.13,34.19 317.73,33.81C318.39,33.38 319.05,33.02 319.88,32.52Q321.03,31.82 323.97,30" style="stroke-miterlimit: 1; vector-effect: non-scaling-stroke; fill: none; stroke: rgb(85, 62, 47); stroke-opacity: 1; stroke-width: 2px;"/></g><g class="contourlevel"><path class="openline" d="M0,350.74Q1.41,350.17 2.07,349.88C2.68,349.62 3.11,349.38 3.81,349.09C4.83,348.67 6.34,348.12 7.62,347.69C8.88,347.27 10.36,346.83 11.42,346.54C12.17,346.34 12.71,346.23 13.35,346.07C13.98,345.91 14.49,345.75 15.23,345.58C16.28,345.34 17.77,345.03 19.04,344.81C20.31,344.59 21.58,344.39 22.85,344.24C24.12,344.09 25.39,343.97 26.66,343.89C27.93,343.81 29.19,343.76 30.46,343.75C31.73,343.74 33,343.78 34.27,343.86C35.54,343.94 36.81,344.06 38.08,344.25C39.35,344.44 40.64,344.68 41.89,344.99C43.14,345.3 44.34,345.64 45.575,346.11C46.88,346.61 48.31,347.26 49.51,347.92C50.6,348.52 51.85,349.4 52.52,349.88C52.88,350.13 52.97,350.2 53.31,350.5C54.03,351.14 55.86,352.97 56.5,353.69C56.8,354.03 56.87,354.12 57.12,354.48C57.6,355.15 58.48,356.4 59.08,357.49C59.74,358.69 60.39,360.12 60.89,361.425C61.36,362.66 61.7,363.86 62.01,365.11C62.32,366.36 62.56,367.65 62.75,368.92C62.94,370.19 63.06,371.46 63.14,372.73C63.22,374 63.26,375.27 63.25,376.54C63.24,377.81 63.19,379.07 63.11,380.34C63.03,381.61 62.91,382.88 62.76,384.15C62.61,385.42 62.41,386.69 62.19,387.96C61.97,389.23 61.66,390.72 61.42,391.77C61.25,392.51 61.09,393.02 60.93,393.65C60.77,394.29 60.66,394.83 60.46,395.58C60.17,396.64 59.73,398.12 59.31,399.38C58.88,400.66 58.33,402.17 57.91,403.19C57.62,403.89 57.38,404.32 57.12,404.93Q56.83,405.59 56.26,407" style="stroke-miterlimit: 1; vector-effect: non-scaling-stroke; fill: none; stroke: rgb(98, 69, 51); stroke-opacity: 1; stroke-width: 2px;"/><path class="openline" d="M377,74.47Q376.46,75.17 376.07,75.7C375.38,76.63 374.22,78.34 373.26,79.61C372.3,80.87 371.01,82.4 370.31,83.31C369.91,83.83 369.77,84.07 369.38,84.55C368.8,85.26 367.78,86.33 367.1,87.12C366.54,87.78 366.13,88.34 365.58,88.95C364.99,89.61 364.29,90.26 363.66,90.93C363.02,91.61 362.41,92.37 361.77,93.02C361.17,93.63 360.57,94.14 359.96,94.74C359.3,95.39 358.64,96.14 357.96,96.79C357.31,97.41 356.63,97.96 355.99,98.55C355.36,99.13 354.82,99.71 354.15,100.31C353.4,100.98 352.4,101.75 351.71,102.35C351.18,102.81 350.9,103.11 350.34,103.59C349.5,104.3 347.74,105.64 347.11,106.16C346.84,106.38 346.82,106.42 346.54,106.65C345.84,107.22 343.49,109 342.73,109.53C342.42,109.75 342.36,109.76 342.06,109.97C341.4,110.43 339.91,111.56 338.92,112.23C338.07,112.81 337.19,113.32 336.5,113.78C335.97,114.13 335.69,114.36 335.11,114.74C334.16,115.36 332.15,116.58 331.3,117.07C330.88,117.31 330.74,117.36 330.34,117.59C329.64,117.98 328.53,118.67 327.49,119.24C326.28,119.9 324.8,120.66 323.5,121.31C322.27,121.93 321.11,122.49 319.88,123.05C318.63,123.62 317.04,124.3 316.07,124.68C315.48,124.91 315.18,125 314.64,125.2C313.95,125.46 313.15,125.81 312.26,126.13C311.14,126.53 309.72,126.99 308.45,127.36C307.19,127.73 305.9,128.07 304.65,128.36C303.44,128.64 302.3,128.87 301.065,129.055C299.76,129.25 298.36,129.43 297.03,129.51C295.74,129.59 294.49,129.61 293.22,129.53C291.94,129.45 290.64,129.32 289.385,129.01999999999998C288.11,128.71 286.82,128.3 285.61,127.68C284.32,127.02 282.95,126.14 281.905,125.095C280.86,124.05 279.98,122.68 279.32,121.39C278.7,120.18 278.29,118.89 277.98,117.61500000000001C277.68,116.36 277.55,115.06 277.47,113.78C277.39,112.51 277.41,111.26 277.49,109.97C277.57,108.64 277.75,107.24 277.945,105.935C278.13,104.7 278.36,103.56 278.64,102.35C278.93,101.1 279.27,99.81 279.64,98.55C280.01,97.28 280.47,95.86 280.87,94.74C281.19,93.85 281.54,93.05 281.8,92.36C282,91.82 282.09,91.52 282.32,90.93C282.7,89.96 283.38,88.37 283.95,87.12C284.51,85.89 285.07,84.73 285.69,83.5C286.34,82.2 287.1,80.72 287.76,79.51C288.33,78.47 289.02,77.36 289.41,76.66C289.64,76.26 289.69,76.12 289.93,75.7C290.42,74.85 291.64,72.84 292.26,71.89C292.64,71.31 292.87,71.03 293.22,70.5C293.68,69.81 294.19,68.93 294.77,68.08C295.44,67.09 296.57,65.6 297.03,64.94C297.24,64.64 297.25,64.58 297.47,64.27C298,63.51 299.78,61.16 300.35,60.46C300.58,60.18 300.62,60.16 300.84,59.89C301.36,59.26 302.7,57.5 303.41,56.66C303.89,56.1 304.19,55.82 304.65,55.29C305.25,54.6 306.02,53.6 306.69,52.85C307.29,52.18 307.87,51.64 308.45,51.01C309.04,50.37 309.59,49.69 310.21,49.04C310.86,48.36 311.61,47.7 312.26,47.04C312.86,46.43 313.37,45.83 313.98,45.23C314.63,44.59 315.39,43.98 316.07,43.34C316.74,42.71 317.39,42.01 318.05,41.42C318.66,40.87 319.22,40.46 319.88,39.9C320.67,39.22 321.74,38.2 322.45,37.62C322.93,37.23 323.17,37.09 323.69,36.69C324.6,35.99 326.13,34.7 327.39,33.74C328.66,32.78 330.37,31.62 331.3,30.93Q331.83,30.54 332.53,30" style="stroke-miterlimit: 1; vector-effect: non-scaling-stroke; fill: none; stroke: rgb(98, 69, 51); stroke-opacity: 1; stroke-width: 2px;"/></g><g class="contourlevel"><path class="openline" d="M0,368.2Q2.54,367.97 3.81,367.94C5.08,367.91 6.35,367.95 7.62,368.04C8.89,368.13 10.34,368.31 11.42,368.48C12.23,368.61 12.87,368.78 13.54,368.92C14.14,369.05 14.56,369.12 15.23,369.3C16.25,369.58 17.78,370.04 19.04,370.54C20.33,371.05 22.1,371.92 22.85,372.32C23.18,372.49 23.23,372.54 23.54,372.73C24.21,373.15 25.74,374.11 26.66,374.8C27.44,375.38 28.07,375.95 28.72,376.54C29.34,377.11 29.89,377.66 30.46,378.28C31.05,378.93 31.62,379.56 32.2,380.34C32.89,381.26 33.85,382.79 34.27,383.46C34.46,383.77 34.51,383.82 34.68,384.15C35.08,384.9 35.95,386.67 36.46,387.96C36.96,389.22 37.42,390.75 37.7,391.77C37.88,392.44 37.95,392.86 38.08,393.46C38.22,394.13 38.39,394.77 38.52,395.58C38.69,396.66 38.87,398.11 38.96,399.38C39.05,400.65 39.09,401.92 39.06,403.19Q39.03,404.46 38.8,407" style="stroke-miterlimit: 1; vector-effect: non-scaling-stroke; fill: none; stroke: rgb(112, 77, 54); stroke-opacity: 1; stroke-width: 2px;"/><path class="openline" d="M377,67.91Q374.25,71.15 373.65,71.89C373.42,72.17 373.42,72.21 373.19,72.48C372.63,73.13 370.81,74.96 370.14,75.7C369.8,76.07 369.73,76.2 369.38,76.56C368.7,77.26 366.93,78.86 366.27,79.51C365.95,79.82 365.91,79.91 365.58,80.22C364.84,80.91 363.14,82.37 361.88,83.41499999999999C360.6,84.48 358.81,85.92 357.96,86.54C357.57,86.82 357.45,86.86 357.08,87.12C356.38,87.6 355.12,88.62 354.15,89.27C353.25,89.88 352.17,90.48 351.47,90.93C351.01,91.23 350.84,91.39 350.34,91.7C349.45,92.26 347.58,93.34 346.54,93.89C345.84,94.26 345.36,94.43 344.75,94.74C344.09,95.07 343.52,95.43 342.73,95.81C341.67,96.32 340.13,96.98 338.92,97.46C337.85,97.88 336.53,98.3 335.86,98.55C335.52,98.67 335.46,98.72 335.11,98.84C334.33,99.1 332.58,99.62 331.3,99.92C330.04,100.22 328.76,100.48 327.49,100.66C326.23,100.84 324.96,100.98 323.69,101.01C322.42,101.04 321.14,101.03 319.88,100.87C318.6,100.71 317.3,100.47 316.07,100.06C314.84,99.65 313.65,99.2 312.5,98.4C311.14,97.45 309.55,95.86 308.6,94.5C307.8,93.35 307.35,92.16 306.94,90.93C306.53,89.7 306.29,88.4 306.13,87.12C305.97,85.86 305.96,84.58 305.99,83.31C306.02,82.04 306.16,80.77 306.34,79.51C306.52,78.24 306.78,76.96 307.08,75.7C307.38,74.42 307.9,72.67 308.16,71.89C308.28,71.54 308.33,71.48 308.45,71.14C308.7,70.47 309.12,69.15 309.54,68.08C310.02,66.87 310.68,65.33 311.19,64.27C311.57,63.48 311.93,62.91 312.26,62.25C312.57,61.64 312.74,61.16 313.11,60.46C313.66,59.42 314.74,57.55 315.3,56.66C315.61,56.16 315.77,55.99 316.07,55.53C316.52,54.83 317.12,53.75 317.73,52.85C318.38,51.88 319.4,50.62 319.88,49.92C320.14,49.55 320.18,49.43 320.46,49.04C321.08,48.19 322.52,46.4 323.58500000000004,45.12C324.63,43.86 326.09,42.16 326.78,41.42C327.09,41.09 327.18,41.05 327.49,40.73C328.14,40.07 329.74,38.3 330.44,37.62C330.8,37.27 330.93,37.2 331.3,36.86C332.04,36.19 333.87,34.37 334.52,33.81C334.79,33.58 334.83,33.58 335.11,33.35Q335.85,32.75 339.09,30" style="stroke-miterlimit: 1; vector-effect: non-scaling-stroke; fill: none; stroke: rgb(112, 77, 54); stroke-opacity: 1; stroke-width: 2px;"/></g><g class="contourlevel"><path class="openline" d="M0,382.36Q2.82,383.15 3.81,383.5C4.46,383.73 4.83,383.91 5.4,384.15C6.08,384.44 6.8,384.71 7.62,385.14C8.73,385.72 10.65,386.91 11.42,387.42C11.77,387.65 11.84,387.71 12.17,387.96C12.85,388.49 14.44,389.79 15.23,390.51C15.76,390.99 16.01,391.24 16.49,391.77C17.21,392.56 18.51,394.15 19.04,394.83C19.29,395.16 19.35,395.23 19.58,395.58C20.09,396.35 21.28,398.27 21.86,399.38C22.29,400.2 22.56,400.92 22.85,401.6C23.09,402.17 23.27,402.54 23.5,403.19Q23.85,404.18 24.64,407" style="stroke-miterlimit: 1; vector-effect: non-scaling-stroke; fill: none; stroke: rgb(125, 85, 56); stroke-opacity: 1; stroke-width: 2px;"/><path class="openline" d="M377,62.77Q376,63.7 375.44,64.27C374.75,64.97 373.9,66.01 373.19,66.69C372.62,67.24 372.13,67.56 371.55,68.08C370.87,68.69 370.13,69.49 369.38,70.13C368.63,70.76 367.73,71.34 367.05,71.89C366.5,72.33 366.2,72.67 365.58,73.14C364.63,73.87 363.08,74.9 361.79999999999995,75.725C360.54,76.54 359.17,77.4 357.96,78.06C356.93,78.63 355.71,79.15 355.02,79.51C354.64,79.71 354.55,79.8 354.15,79.99C353.34,80.38 351.62,81.12 350.34,81.59C349.08,82.05 347.68,82.5 346.54,82.8C345.64,83.04 344.77,83.15 344.07,83.31C343.55,83.42 343.29,83.54 342.73,83.63C341.79,83.79 340.19,83.97 338.92,83.99C337.65,84.01 336.17,83.93 335.11,83.78C334.34,83.67 333.79,83.48 333.15,83.31C332.52,83.14 332,83.08 331.3,82.76C330.23,82.28 328.29,81.02 327.49,80.38C327.07,80.05 326.95,79.93 326.62,79.51C325.98,78.71 324.72,76.77 324.24,75.7C323.92,75 323.86,74.48 323.69,73.85C323.52,73.21 323.33,72.66 323.22,71.89C323.07,70.83 322.99,69.35 323.01,68.08C323.03,66.81 323.21,65.21 323.37,64.27C323.46,63.71 323.58,63.45 323.69,62.93C323.85,62.23 323.96,61.36 324.2,60.46C324.5,59.32 324.95,57.92 325.41,56.66C325.88,55.38 326.62,53.66 327.01,52.85C327.2,52.45 327.29,52.36 327.49,51.98C327.85,51.29 328.37,50.07 328.94,49.04C329.6,47.83 330.46,46.46 331.275,45.2C332.1,43.92 333.13,42.37 333.86,41.42C334.33,40.8 334.67,40.5 335.11,39.95C335.66,39.27 336.24,38.37 336.87,37.62C337.51,36.87 338.31,36.13 338.92,35.45C339.44,34.87 339.76,34.38 340.31,33.81C340.99,33.1 342.03,32.25 342.73,31.56Q343.3,31 344.23,30" style="stroke-miterlimit: 1; vector-effect: non-scaling-stroke; fill: none; stroke: rgb(125, 85, 56); stroke-opacity: 1; stroke-width: 2px;"/></g><g class="contourlevel"><path class="openline" d="M0,394.08Q1.67,395.12 2.36,395.58C2.91,395.94 3.24,396.15 3.81,396.59C4.69,397.27 6.41,398.79 7.04,399.38C7.32,399.64 7.36,399.68 7.62,399.96C8.21,400.59 9.73,402.31 10.41,403.19C10.85,403.76 11.06,404.09 11.42,404.64Q11.88,405.33 12.92,407" style="stroke-miterlimit: 1; vector-effect: non-scaling-stroke; fill: none; stroke: rgb(138, 93, 57); stroke-opacity: 1; stroke-width: 2px;"/><path class="openline" d="M377,58.48Q375.32,59.85 374.64,60.46C374.09,60.95 373.79,61.34 373.19,61.85C372.33,62.57 370.51,63.79 369.89,64.27C369.64,64.46 369.64,64.5 369.38,64.69C368.71,65.18 366.66,66.53 365.58,67.13C364.83,67.55 364.25,67.75 363.61,68.08C362.98,68.41 362.51,68.75 361.77,69.11C360.74,69.61 359.24,70.23 357.96,70.67C356.7,71.11 354.98,71.58 354.15,71.76C353.76,71.84 353.66,71.83 353.28,71.89C352.59,72 351.39,72.29 350.34,72.38C349.16,72.48 347.67,72.49 346.54,72.38C345.61,72.29 344.71,72.05 344.01,71.89C343.51,71.78 343.25,71.78 342.73,71.57C341.78,71.19 339.83,70.07 338.92,69.38C338.33,68.93 338.07,68.67 337.62,68.08C336.93,67.17 335.81,65.22 335.43,64.27C335.22,63.75 335.22,63.49 335.11,62.99C334.95,62.29 334.71,61.39 334.62,60.46C334.51,59.33 334.52,57.84 334.62,56.66C334.71,55.61 335,54.41 335.11,53.72C335.17,53.34 335.16,53.24 335.24,52.85C335.42,52.02 335.89,50.3 336.33,49.04C336.77,47.76 337.39,46.26 337.89,45.23C338.25,44.49 338.59,44.02 338.92,43.39C339.25,42.75 339.45,42.17 339.87,41.42C340.47,40.34 341.82,38.29 342.31,37.62C342.5,37.36 342.54,37.36 342.73,37.11C343.21,36.49 344.43,34.67 345.15,33.81C345.66,33.21 346.05,32.91 346.54,32.36Q347.15,31.68 348.52,30" style="stroke-miterlimit: 1; vector-effect: non-scaling-stroke; fill: none; stroke: rgb(138, 93, 57); stroke-opacity: 1; stroke-width: 2px;"/></g><g class="contourlevel"><path class="openline" d="M0,403.92L3.08,407" style="stroke-miterlimit: 1; vector-effect: non-scaling-stroke; fill: none; stroke: rgb(150, 102, 58); stroke-opacity: 1; stroke-width: 2px;"/><path class="openline" d="M377,54.83Q375.12,56.12 374.43,56.66C373.93,57.04 373.74,57.31 373.19,57.7C372.28,58.35 370.27,59.57 369.38,60.02C368.93,60.25 368.76,60.26 368.33,60.46C367.62,60.79 366.59,61.44 365.58,61.87C364.43,62.36 363.05,62.83 361.77,63.17C360.51,63.51 359.24,63.78 357.96,63.92C356.7,64.06 355.41,64.13 354.15,64.02C352.87,63.9 351.57,63.7 350.34,63.22C349.03,62.7 347.19,61.43 346.54,60.93C346.29,60.73 346.27,60.71 346.07,60.46C345.57,59.81 344.3,57.97 343.78,56.66C343.3,55.43 343.1,54.13 342.98,52.85C342.87,51.59 342.94,50.3 343.08,49.04C343.22,47.76 343.49,46.49 343.83,45.23C344.17,43.95 344.64,42.57 345.13,41.42C345.56,40.41 346.21,39.38 346.54,38.67C346.74,38.24 346.75,38.07 346.98,37.62C347.43,36.73 348.65,34.72 349.3,33.81C349.69,33.26 349.96,33.07 350.34,32.57Q350.88,31.88 352.17,30" style="stroke-miterlimit: 1; vector-effect: non-scaling-stroke; fill: none; stroke: rgb(150, 102, 58); stroke-opacity: 1; stroke-width: 2px;"/></g><g class="contourlevel"><path class="openline" d="M377,51.64Q375.56,52.43 374.91,52.85C374.3,53.24 373.9,53.64 373.19,54.05C372.19,54.63 370.55,55.41 369.38,55.86C368.43,56.23 367.43,56.43 366.73,56.66C366.27,56.81 366.08,56.95 365.58,57.08C364.69,57.31 363.04,57.6 361.77,57.65C360.5,57.7 359.05,57.62 357.96,57.41C357.1,57.24 356.38,56.93 355.7,56.66C355.13,56.43 354.72,56.33 354.15,55.93C353.25,55.3 351.7,53.75 351.07,52.85C350.67,52.28 350.57,51.87 350.34,51.3C350.07,50.62 349.76,49.9 349.59,49.04C349.38,47.95 349.3,46.5 349.35,45.23C349.4,43.96 349.69,42.31 349.92,41.42C350.05,40.92 350.19,40.73 350.34,40.27C350.57,39.57 350.77,38.57 351.14,37.62C351.59,36.45 352.37,34.81 352.95,33.81C353.36,33.1 353.76,32.7 354.15,32.09Q354.57,31.44 355.36,30" style="stroke-miterlimit: 1; vector-effect: non-scaling-stroke; fill: none; stroke: rgb(161, 112, 59); stroke-opacity: 1; stroke-width: 2px;"/></g><g class="contourlevel"><path class="openline" d="M377,48.78Q374.48,50.24 373.19,50.79C371.94,51.32 370.66,51.76 369.38,52.06C368.13,52.36 366.85,52.58 365.58,52.61C364.31,52.64 363.01,52.6 361.77,52.25C360.47,51.88 358.87,51.03 357.96,50.38C357.35,49.95 357.05,49.65 356.62,49.04C355.97,48.13 355.12,46.53 354.75,45.23C354.4,43.99 354.36,42.69 354.39,41.42C354.42,40.15 354.64,38.87 354.94,37.62C355.24,36.34 355.68,35.06 356.21,33.81Q356.76,32.52 358.22,30" style="stroke-miterlimit: 1; vector-effect: non-scaling-stroke; fill: none; stroke: rgb(171, 122, 60); stroke-opacity: 1; stroke-width: 2px;"/></g><g class="contourlevel"><path class="openline" d="M377,46.28Q374.48,47.42 373.19,47.79C371.94,48.15 370.65,48.41 369.38,48.49C368.12,48.56 366.82,48.57 365.58,48.25C364.28,47.91 362.65,47.05 361.77,46.43C361.21,46.04 360.96,45.79 360.57,45.23C359.95,44.35 359.09,42.72 358.75,41.42C358.43,40.18 358.44,38.88 358.51,37.62C358.59,36.35 358.85,35.06 359.21,33.81Q359.58,32.52 360.72,30" style="stroke-miterlimit: 1; vector-effect: non-scaling-stroke; fill: none; stroke: rgb(180, 134, 64); stroke-opacity: 1; stroke-width: 2px;"/></g><g class="contourlevel"><path class="openline" d="M377,43.96Q374.47,44.79 373.19,44.97C371.93,45.15 370.63,45.27 369.38,45.06C368.09,44.84 366.62,44.32 365.58,43.65C364.66,43.06 363.94,42.34 363.35,41.42C362.68,40.38 362.16,38.91 361.94,37.62C361.73,36.37 361.85,35.07 362.03,33.81Q362.21,32.53 363.04,30" style="stroke-miterlimit: 1; vector-effect: non-scaling-stroke; fill: none; stroke: rgb(188, 147, 69); stroke-opacity: 1; stroke-width: 2px;"/></g><g class="contourlevel"><path class="openline" d="M377,41.76Q374.47,42.36 373.19,42.32C371.88,42.28 370.43,42.16 369.22,41.510000000000005C367.83,40.77 366.23,39.17 365.49,37.78C364.84,36.57 364.72,35.12 364.68,33.81Q364.64,32.53 365.24,30" style="stroke-miterlimit: 1; vector-effect: non-scaling-stroke; fill: none; stroke: rgb(195, 161, 78); stroke-opacity: 1; stroke-width: 2px;"/></g><g class="contourlevel"><path class="openline" d="M377,39.76Q374.43,40.01 373.19,39.7C371.86,39.37 370.27,38.7 369.28499999999997,37.715C368.3,36.73 367.63,35.14 367.3,33.81Q366.99,32.57 367.24,30" style="stroke-miterlimit: 1; vector-effect: non-scaling-stroke; fill: none; stroke: rgb(202, 174, 89); stroke-opacity: 1; stroke-width: 2px;"/></g><g class="contourlevel"><path class="openline" d="M377,37.79Q376.31,37.7 375.85,37.62C375.14,37.49 374.05,37.52 373.19,37.05C372.07,36.44 370.56,34.93 369.95,33.81C369.48,32.95 369.51,31.86 369.38,31.15Q369.3,30.69 369.21,30" style="stroke-miterlimit: 1; vector-effect: non-scaling-stroke; fill: none; stroke: rgb(207, 188, 102); stroke-opacity: 1; stroke-width: 2px;"/></g><g class="contourlevel"><path class="openline" d="M377,35.9Q373.97,35 372.985,34.015Q372,33.03 371.1,30" style="stroke-miterlimit: 1; vector-effect: non-scaling-stroke; fill: none; stroke: rgb(213, 202, 117); stroke-opacity: 1; stroke-width: 2px;"/></g><g class="contourlevel"><path class="openline" d="M377,34.02Q376.76,33.95 376.56,33.81C375.94,33.37 373.63,31.06 373.19,30.44Q373.05,30.24 372.98,30" style="stroke-miterlimit: 1; vector-effect: non-scaling-stroke; fill: none; stroke: rgb(219, 216, 134); stroke-opacity: 1; stroke-width: 2px;"/></g><g class="contourlevel"><path class="openline" d="M377,32.02L374.98,30" style="stroke-miterlimit: 1; vector-effect: non-scaling-stroke; fill: none; stroke: rgb(225, 231, 152); stroke-opacity: 1; stroke-width: 2px;"/></g><g class="contourlevel"/></g></g></g></g><g class="overplot"/><path class="xlines-above crisp" d="" style="fill: none; stroke-width: 1px; stroke: rgb(0, 0, 0); stroke-opacity: 0;"/><path class="ylines-above crisp" d="" style="fill: none; stroke-width: 1px; stroke: rgb(0, 0, 0); stroke-opacity: 0;"/><g class="overlines-above"/><g class="xaxislayer-above"><path class="xtick ticks crisp" d="M0,478v5" transform="translate(90.83,0)" style="stroke: rgb(51, 51, 51); stroke-opacity: 1; stroke-width: 1px;"/><path class="xtick ticks crisp" d="M0,478v5" transform="translate(174.61,0)" style="stroke: rgb(51, 51, 51); stroke-opacity: 1; stroke-width: 1px;"/><path class="xtick ticks crisp" d="M0,478v5" transform="translate(258.39,0)" style="stroke: rgb(51, 51, 51); stroke-opacity: 1; stroke-width: 1px;"/><path class="xtick ticks crisp" d="M0,478v5" transform="translate(342.17,0)" style="stroke: rgb(51, 51, 51); stroke-opacity: 1; stroke-width: 1px;"/><g class="xtick"><text text-anchor="middle" x="0" y="497.4" transform="translate(90.83,0)" style="font-family: 'Open Sans', verdana, arial, sans-serif; font-size: 12px; fill: rgb(51, 51, 51); fill-opacity: 1; white-space: pre; opacity: 1;">0.2</text></g><g class="xtick"><text text-anchor="middle" x="0" y="497.4" style="font-family: 'Open Sans', verdana, arial, sans-serif; font-size: 12px; fill: rgb(51, 51, 51); fill-opacity: 1; white-space: pre; opacity: 1;" transform="translate(174.61,0)">0.4</text></g><g class="xtick"><text text-anchor="middle" x="0" y="497.4" style="font-family: 'Open Sans', verdana, arial, sans-serif; font-size: 12px; fill: rgb(51, 51, 51); fill-opacity: 1; white-space: pre; opacity: 1;" transform="translate(258.39,0)">0.6</text></g><g class="xtick"><text text-anchor="middle" x="0" y="497.4" style="font-family: 'Open Sans', verdana, arial, sans-serif; font-size: 12px; fill: rgb(51, 51, 51); fill-opacity: 1; white-space: pre; opacity: 1;" transform="translate(342.17,0)">0.8</text></g></g><g class="yaxislayer-above"><path class="ytick ticks crisp" d="M27,0h-5" transform="translate(0,467.94)" style="stroke: rgb(51, 51, 51); stroke-opacity: 1; stroke-width: 1px;"/><path class="ytick ticks crisp" d="M27,0h-5" transform="translate(0,384.17)" style="stroke: rgb(51, 51, 51); stroke-opacity: 1; stroke-width: 1px;"/><path class="ytick ticks crisp" d="M27,0h-5" transform="translate(0,300.39)" style="stroke: rgb(51, 51, 51); stroke-opacity: 1; stroke-width: 1px;"/><path class="ytick ticks crisp" d="M27,0h-5" transform="translate(0,216.61)" style="stroke: rgb(51, 51, 51); stroke-opacity: 1; stroke-width: 1px;"/><path class="ytick ticks crisp" d="M27,0h-5" transform="translate(0,132.82999999999998)" style="stroke: rgb(51, 51, 51); stroke-opacity: 1; stroke-width: 1px;"/><path class="ytick ticks crisp" d="M27,0h-5" transform="translate(0,49.06)" style="stroke: rgb(51, 51, 51); stroke-opacity: 1; stroke-width: 1px;"/><g class="ytick"><text text-anchor="end" x="19.6" y="4.199999999999999" transform="translate(0,467.94)" style="font-family: 'Open Sans', verdana, arial, sans-serif; font-size: 12px; fill: rgb(51, 51, 51); fill-opacity: 1; white-space: pre; opacity: 1;">0</text></g><g class="ytick"><text text-anchor="end" x="19.6" y="4.199999999999999" style="font-family: 'Open Sans', verdana, arial, sans-serif; font-size: 12px; fill: rgb(51, 51, 51); fill-opacity: 1; white-space: pre; opacity: 1;" transform="translate(0,384.17)">0.2</text></g><g class="ytick"><text text-anchor="end" x="19.6" y="4.199999999999999" style="font-family: 'Open Sans', verdana, arial, sans-serif; font-size: 12px; fill: rgb(51, 51, 51); fill-opacity: 1; white-space: pre; opacity: 1;" transform="translate(0,300.39)">0.4</text></g><g class="ytick"><text text-anchor="end" x="19.6" y="4.199999999999999" style="font-family: 'Open Sans', verdana, arial, sans-serif; font-size: 12px; fill: rgb(51, 51, 51); fill-opacity: 1; white-space: pre; opacity: 1;" transform="translate(0,216.61)">0.6</text></g><g class="ytick"><text text-anchor="end" x="19.6" y="4.199999999999999" style="font-family: 'Open Sans', verdana, arial, sans-serif; font-size: 12px; fill: rgb(51, 51, 51); fill-opacity: 1; white-space: pre; opacity: 1;" transform="translate(0,132.82999999999998)">0.8</text></g><g class="ytick"><text text-anchor="end" x="19.6" y="4.199999999999999" style="font-family: 'Open Sans', verdana, arial, sans-serif; font-size: 12px; fill: rgb(51, 51, 51); fill-opacity: 1; white-space: pre; opacity: 1;" transform="translate(0,49.06)">1</text></g></g><g class="overaxes-above"/></g></g><g class="polarlayer"/><g class="ternarylayer"/><g class="geolayer"/><g class="funnelarealayer"/><g class="pielayer"/><g class="iciclelayer"/><g class="treemaplayer"/><g class="sunburstlayer"/><g class="glimages"/><defs id="topdefs-860507"><g class="clips"/></defs><g class="layer-above"><g class="imagelayer"/><g class="shapelayer"/></g><g class="infolayer"><g class="cb96c2c0 colorbar" transform="translate(28,40)"><rect class="cbbg" x="385" y="0" width="87.03125" height="437" style="fill: rgb(0, 0, 0); fill-opacity: 0; stroke: rgb(68, 68, 68); stroke-opacity: 1; stroke-width: 0;"/><g class="cbfills" transform="translate(0,10)"/><g class="cblines" transform="translate(0,10)"><path class="cbline" d="M395,417h30" style="fill: none; stroke: rgb(34, 30, 27); stroke-opacity: 1; stroke-width: 2px;"/><path class="cbline" d="M395,396h30" style="fill: none; stroke: rgb(47, 38, 33); stroke-opacity: 1; stroke-width: 2px;"/><path class="cbline" d="M395,375h30" style="fill: none; stroke: rgb(59, 46, 38); stroke-opacity: 1; stroke-width: 2px;"/><path class="cbline" d="M395,354h30" style="fill: none; stroke: rgb(72, 54, 43); stroke-opacity: 1; stroke-width: 2px;"/><path class="cbline" d="M395,334h30" style="fill: none; stroke: rgb(85, 62, 47); stroke-opacity: 1; stroke-width: 2px;"/><path class="cbline" d="M395,313h30" style="fill: none; stroke: rgb(98, 69, 51); stroke-opacity: 1; stroke-width: 2px;"/><path class="cbline" d="M395,292h30" style="fill: none; stroke: rgb(111, 77, 54); stroke-opacity: 1; stroke-width: 2px;"/><path class="cbline" d="M395,271h30" style="fill: none; stroke: rgb(125, 85, 56); stroke-opacity: 1; stroke-width: 2px;"/><path class="cbline" d="M395,250h30" style="fill: none; stroke: rgb(138, 93, 57); stroke-opacity: 1; stroke-width: 2px;"/><path class="cbline" d="M395,229h30" style="fill: none; stroke: rgb(150, 102, 58); stroke-opacity: 1; stroke-width: 2px;"/><path class="cbline" d="M395,209h30" style="fill: none; stroke: rgb(161, 112, 59); stroke-opacity: 1; stroke-width: 2px;"/><path class="cbline" d="M395,188h30" style="fill: none; stroke: rgb(171, 122, 60); stroke-opacity: 1; stroke-width: 2px;"/><path class="cbline" d="M395,167h30" style="fill: none; stroke: rgb(180, 134, 64); stroke-opacity: 1; stroke-width: 2px;"/><path class="cbline" d="M395,146h30" style="fill: none; stroke: rgb(188, 147, 69); stroke-opacity: 1; stroke-width: 2px;"/><path class="cbline" d="M395,125h30" style="fill: none; stroke: rgb(195, 161, 78); stroke-opacity: 1; stroke-width: 2px;"/><path class="cbline" d="M395,104h30" style="fill: none; stroke: rgb(202, 174, 89); stroke-opacity: 1; stroke-width: 2px;"/><path class="cbline" d="M395,83h30" style="fill: none; stroke: rgb(207, 188, 102); stroke-opacity: 1; stroke-width: 2px;"/><path class="cbline" d="M395,63h30" style="fill: none; stroke: rgb(213, 202, 118); stroke-opacity: 1; stroke-width: 2px;"/><path class="cbline" d="M395,42h30" style="fill: none; stroke: rgb(219, 216, 134); stroke-opacity: 1; stroke-width: 2px;"/><path class="cbline" d="M395,21h30" style="fill: none; stroke: rgb(225, 231, 152); stroke-opacity: 1; stroke-width: 2px;"/><path class="cbline" d="M395,0h30" style="fill: none; stroke: rgb(232, 245, 171); stroke-opacity: 1; stroke-width: 2px;"/></g><g class="cbaxis crisp" transform="translate(0,-40)"><path class="ycb96c2c0tick ticks crisp" d="M424.5,0h-6" transform="translate(0,362.75)" style="stroke: rgb(237, 237, 237); stroke-opacity: 1; stroke-width: 1px;"/><path class="ycb96c2c0tick ticks crisp" d="M424.5,0h-6" transform="translate(0,258.5)" style="stroke: rgb(237, 237, 237); stroke-opacity: 1; stroke-width: 1px;"/><path class="ycb96c2c0tick ticks crisp" d="M424.5,0h-6" transform="translate(0,154.25)" style="stroke: rgb(237, 237, 237); stroke-opacity: 1; stroke-width: 1px;"/><g class="ycb96c2c0tick"><text text-anchor="start" x="427.9" y="4.199999999999999" transform="translate(0,467)" style="font-family: 'Open Sans', verdana, arial, sans-serif; font-size: 12px; fill: rgb(51, 51, 51); fill-opacity: 1; white-space: pre; opacity: 1;">0.02</text></g><g class="ycb96c2c0tick"><text text-anchor="start" x="427.9" y="4.199999999999999" style="font-family: 'Open Sans', verdana, arial, sans-serif; font-size: 12px; fill: rgb(51, 51, 51); fill-opacity: 1; white-space: pre; opacity: 1;" transform="translate(0,362.75)">1.92</text></g><g class="ycb96c2c0tick"><text text-anchor="start" x="427.9" y="4.199999999999999" style="font-family: 'Open Sans', verdana, arial, sans-serif; font-size: 12px; fill: rgb(51, 51, 51); fill-opacity: 1; white-space: pre; opacity: 1;" transform="translate(0,258.5)">3.82</text></g><g class="ycb96c2c0tick"><text text-anchor="start" x="427.9" y="4.199999999999999" style="font-family: 'Open Sans', verdana, arial, sans-serif; font-size: 12px; fill: rgb(51, 51, 51); fill-opacity: 1; white-space: pre; opacity: 1;" transform="translate(0,154.25)">5.72</text></g><g class="ycb96c2c0tick"><text text-anchor="start" x="427.9" y="4.199999999999999" style="font-family: 'Open Sans', verdana, arial, sans-serif; font-size: 12px; fill: rgb(51, 51, 51); fill-opacity: 1; white-space: pre; opacity: 1;" transform="translate(0,50.000000000000014)">7.62</text></g></g><g class="cbtitleunshift" transform="translate(-28,-40)"><g class="cbtitle"/></g><rect class="cboutline" x="395" y="10" width="30" height="417" style="stroke: rgb(68, 68, 68); stroke-opacity: 1; fill: none; stroke-width: 0;"/></g><g class="g-gtitle"><text class="gtitle" x="250" y="20" text-anchor="middle" dy="0em" style="font-family: 'Open Sans', verdana, arial, sans-serif; font-size: 17px; fill: rgb(51, 51, 51); opacity: 1; font-weight: normal; white-space: pre;">Gumbel copula</text></g><g class="g-xtitle"/><g class="g-ytitle"/></g></svg>