<?xml version="1.0" encoding="utf-8" standalone="no"?>
<!DOCTYPE svg PUBLIC "-//W3C//DTD SVG 1.1//EN"
  "http://www.w3.org/Graphics/SVG/1.1/DTD/svg11.dtd">
<svg xmlns:xlink="http://www.w3.org/1999/xlink" width="1008pt" height="504pt" viewBox="0 0 1008 504" xmlns="http://www.w3.org/2000/svg" version="1.1">
 <metadata>
  <rdf:RDF xmlns:dc="http://purl.org/dc/elements/1.1/" xmlns:cc="http://creativecommons.org/ns#" xmlns:rdf="http://www.w3.org/1999/02/22-rdf-syntax-ns#">
   <cc:Work>
    <dc:type rdf:resource="http://purl.org/dc/dcmitype/StillImage"/>
    <dc:date>2022-04-17T02:11:36.636227</dc:date>
    <dc:format>image/svg+xml</dc:format>
    <dc:creator>
     <cc:Agent>
      <dc:title>Matplotlib v3.5.1, https://matplotlib.org/</dc:title>
     </cc:Agent>
    </dc:creator>
   </cc:Work>
  </rdf:RDF>
 </metadata>
 <defs>
  <style type="text/css">*{stroke-linejoin: round; stroke-linecap: butt}</style>
 </defs>
 <g id="figure_1">
  <g id="patch_1">
   <path d="M 0 504 
L 1008 504 
L 1008 0 
L 0 0 
z
" style="fill: #ffffff"/>
  </g>
  <g id="axes_1">
   <g id="patch_2">
    <path d="M 126 403.2 
L 907.2 403.2 
L 907.2 60.48 
L 126 60.48 
z
" style="fill: #e5e5e5"/>
   </g>
   <g id="matplotlib.axis_1">
    <g id="xtick_1">
     <g id="line2d_1">
      <path d="M 155.421818 403.2 
L 155.421818 60.48 
" clip-path="url(#p1b0b722f2a)" style="fill: none; stroke: #ffffff; stroke-width: 2; stroke-linecap: round"/>
     </g>
     <g id="text_1">
      <!-- 2021-01 -->
      <g style="fill: #555555" transform="translate(83.321608 472.702308)rotate(-30)scale(0.22 -0.22)">
       <defs>
        <path id="ArialMT-32" d="M 3222 541 
L 3222 0 
L 194 0 
Q 188 203 259 391 
Q 375 700 629 1000 
Q 884 1300 1366 1694 
Q 2113 2306 2375 2664 
Q 2638 3022 2638 3341 
Q 2638 3675 2398 3904 
Q 2159 4134 1775 4134 
Q 1369 4134 1125 3890 
Q 881 3647 878 3216 
L 300 3275 
Q 359 3922 746 4261 
Q 1134 4600 1788 4600 
Q 2447 4600 2831 4234 
Q 3216 3869 3216 3328 
Q 3216 3053 3103 2787 
Q 2991 2522 2730 2228 
Q 2469 1934 1863 1422 
Q 1356 997 1212 845 
Q 1069 694 975 541 
L 3222 541 
z
" transform="scale(0.015625)"/>
        <path id="ArialMT-30" d="M 266 2259 
Q 266 3072 433 3567 
Q 600 4063 929 4331 
Q 1259 4600 1759 4600 
Q 2128 4600 2406 4451 
Q 2684 4303 2865 4023 
Q 3047 3744 3150 3342 
Q 3253 2941 3253 2259 
Q 3253 1453 3087 958 
Q 2922 463 2592 192 
Q 2263 -78 1759 -78 
Q 1097 -78 719 397 
Q 266 969 266 2259 
z
M 844 2259 
Q 844 1131 1108 757 
Q 1372 384 1759 384 
Q 2147 384 2411 759 
Q 2675 1134 2675 2259 
Q 2675 3391 2411 3762 
Q 2147 4134 1753 4134 
Q 1366 4134 1134 3806 
Q 844 3388 844 2259 
z
" transform="scale(0.015625)"/>
        <path id="ArialMT-31" d="M 2384 0 
L 1822 0 
L 1822 3584 
Q 1619 3391 1289 3197 
Q 959 3003 697 2906 
L 697 3450 
Q 1169 3672 1522 3987 
Q 1875 4303 2022 4600 
L 2384 4600 
L 2384 0 
z
" transform="scale(0.015625)"/>
        <path id="ArialMT-2d" d="M 203 1375 
L 203 1941 
L 1931 1941 
L 1931 1375 
L 203 1375 
z
" transform="scale(0.015625)"/>
       </defs>
       <use xlink:href="#ArialMT-32"/>
       <use xlink:href="#ArialMT-30" x="55.615234"/>
       <use xlink:href="#ArialMT-32" x="111.230469"/>
       <use xlink:href="#ArialMT-31" x="166.845703"/>
       <use xlink:href="#ArialMT-2d" x="222.460938"/>
       <use xlink:href="#ArialMT-30" x="255.761719"/>
       <use xlink:href="#ArialMT-31" x="311.376953"/>
      </g>
     </g>
    </g>
    <g id="xtick_2">
     <g id="line2d_2">
      <path d="M 275.138182 403.2 
L 275.138182 60.48 
" clip-path="url(#p1b0b722f2a)" style="fill: none; stroke: #ffffff; stroke-width: 2; stroke-linecap: round"/>
     </g>
     <g id="text_2">
      <!-- 2021-03 -->
      <g style="fill: #555555" transform="translate(203.037972 472.702308)rotate(-30)scale(0.22 -0.22)">
       <defs>
        <path id="ArialMT-33" d="M 269 1209 
L 831 1284 
Q 928 806 1161 595 
Q 1394 384 1728 384 
Q 2125 384 2398 659 
Q 2672 934 2672 1341 
Q 2672 1728 2419 1979 
Q 2166 2231 1775 2231 
Q 1616 2231 1378 2169 
L 1441 2663 
Q 1497 2656 1531 2656 
Q 1891 2656 2178 2843 
Q 2466 3031 2466 3422 
Q 2466 3731 2256 3934 
Q 2047 4138 1716 4138 
Q 1388 4138 1169 3931 
Q 950 3725 888 3313 
L 325 3413 
Q 428 3978 793 4289 
Q 1159 4600 1703 4600 
Q 2078 4600 2393 4439 
Q 2709 4278 2876 4000 
Q 3044 3722 3044 3409 
Q 3044 3113 2884 2869 
Q 2725 2625 2413 2481 
Q 2819 2388 3044 2092 
Q 3269 1797 3269 1353 
Q 3269 753 2831 336 
Q 2394 -81 1725 -81 
Q 1122 -81 723 278 
Q 325 638 269 1209 
z
" transform="scale(0.015625)"/>
       </defs>
       <use xlink:href="#ArialMT-32"/>
       <use xlink:href="#ArialMT-30" x="55.615234"/>
       <use xlink:href="#ArialMT-32" x="111.230469"/>
       <use xlink:href="#ArialMT-31" x="166.845703"/>
       <use xlink:href="#ArialMT-2d" x="222.460938"/>
       <use xlink:href="#ArialMT-30" x="255.761719"/>
       <use xlink:href="#ArialMT-33" x="311.376953"/>
      </g>
     </g>
    </g>
    <g id="xtick_3">
     <g id="line2d_3">
      <path d="M 398.912727 403.2 
L 398.912727 60.48 
" clip-path="url(#p1b0b722f2a)" style="fill: none; stroke: #ffffff; stroke-width: 2; stroke-linecap: round"/>
     </g>
     <g id="text_3">
      <!-- 2021-05 -->
      <g style="fill: #555555" transform="translate(326.812517 472.702308)rotate(-30)scale(0.22 -0.22)">
       <defs>
        <path id="ArialMT-35" d="M 266 1200 
L 856 1250 
Q 922 819 1161 601 
Q 1400 384 1738 384 
Q 2144 384 2425 690 
Q 2706 997 2706 1503 
Q 2706 1984 2436 2262 
Q 2166 2541 1728 2541 
Q 1456 2541 1237 2417 
Q 1019 2294 894 2097 
L 366 2166 
L 809 4519 
L 3088 4519 
L 3088 3981 
L 1259 3981 
L 1013 2750 
Q 1425 3038 1878 3038 
Q 2478 3038 2890 2622 
Q 3303 2206 3303 1553 
Q 3303 931 2941 478 
Q 2500 -78 1738 -78 
Q 1113 -78 717 272 
Q 322 622 266 1200 
z
" transform="scale(0.015625)"/>
       </defs>
       <use xlink:href="#ArialMT-32"/>
       <use xlink:href="#ArialMT-30" x="55.615234"/>
       <use xlink:href="#ArialMT-32" x="111.230469"/>
       <use xlink:href="#ArialMT-31" x="166.845703"/>
       <use xlink:href="#ArialMT-2d" x="222.460938"/>
       <use xlink:href="#ArialMT-30" x="255.761719"/>
       <use xlink:href="#ArialMT-35" x="311.376953"/>
      </g>
     </g>
    </g>
    <g id="xtick_4">
     <g id="line2d_4">
      <path d="M 522.687273 403.2 
L 522.687273 60.48 
" clip-path="url(#p1b0b722f2a)" style="fill: none; stroke: #ffffff; stroke-width: 2; stroke-linecap: round"/>
     </g>
     <g id="text_4">
      <!-- 2021-07 -->
      <g style="fill: #555555" transform="translate(450.587063 472.702308)rotate(-30)scale(0.22 -0.22)">
       <defs>
        <path id="ArialMT-37" d="M 303 3981 
L 303 4522 
L 3269 4522 
L 3269 4084 
Q 2831 3619 2401 2847 
Q 1972 2075 1738 1259 
Q 1569 684 1522 0 
L 944 0 
Q 953 541 1156 1306 
Q 1359 2072 1739 2783 
Q 2119 3494 2547 3981 
L 303 3981 
z
" transform="scale(0.015625)"/>
       </defs>
       <use xlink:href="#ArialMT-32"/>
       <use xlink:href="#ArialMT-30" x="55.615234"/>
       <use xlink:href="#ArialMT-32" x="111.230469"/>
       <use xlink:href="#ArialMT-31" x="166.845703"/>
       <use xlink:href="#ArialMT-2d" x="222.460938"/>
       <use xlink:href="#ArialMT-30" x="255.761719"/>
       <use xlink:href="#ArialMT-37" x="311.376953"/>
      </g>
     </g>
    </g>
    <g id="xtick_5">
     <g id="line2d_5">
      <path d="M 648.490909 403.2 
L 648.490909 60.48 
" clip-path="url(#p1b0b722f2a)" style="fill: none; stroke: #ffffff; stroke-width: 2; stroke-linecap: round"/>
     </g>
     <g id="text_5">
      <!-- 2021-09 -->
      <g style="fill: #555555" transform="translate(576.390699 472.702308)rotate(-30)scale(0.22 -0.22)">
       <defs>
        <path id="ArialMT-39" d="M 350 1059 
L 891 1109 
Q 959 728 1153 556 
Q 1347 384 1650 384 
Q 1909 384 2104 503 
Q 2300 622 2425 820 
Q 2550 1019 2634 1356 
Q 2719 1694 2719 2044 
Q 2719 2081 2716 2156 
Q 2547 1888 2255 1720 
Q 1963 1553 1622 1553 
Q 1053 1553 659 1965 
Q 266 2378 266 3053 
Q 266 3750 677 4175 
Q 1088 4600 1706 4600 
Q 2153 4600 2523 4359 
Q 2894 4119 3086 3673 
Q 3278 3228 3278 2384 
Q 3278 1506 3087 986 
Q 2897 466 2520 194 
Q 2144 -78 1638 -78 
Q 1100 -78 759 220 
Q 419 519 350 1059 
z
M 2653 3081 
Q 2653 3566 2395 3850 
Q 2138 4134 1775 4134 
Q 1400 4134 1122 3828 
Q 844 3522 844 3034 
Q 844 2597 1108 2323 
Q 1372 2050 1759 2050 
Q 2150 2050 2401 2323 
Q 2653 2597 2653 3081 
z
" transform="scale(0.015625)"/>
       </defs>
       <use xlink:href="#ArialMT-32"/>
       <use xlink:href="#ArialMT-30" x="55.615234"/>
       <use xlink:href="#ArialMT-32" x="111.230469"/>
       <use xlink:href="#ArialMT-31" x="166.845703"/>
       <use xlink:href="#ArialMT-2d" x="222.460938"/>
       <use xlink:href="#ArialMT-30" x="255.761719"/>
       <use xlink:href="#ArialMT-39" x="311.376953"/>
      </g>
     </g>
    </g>
    <g id="xtick_6">
     <g id="line2d_6">
      <path d="M 772.265455 403.2 
L 772.265455 60.48 
" clip-path="url(#p1b0b722f2a)" style="fill: none; stroke: #ffffff; stroke-width: 2; stroke-linecap: round"/>
     </g>
     <g id="text_6">
      <!-- 2021-11 -->
      <g style="fill: #555555" transform="translate(701.570371 471.891058)rotate(-30)scale(0.22 -0.22)">
       <use xlink:href="#ArialMT-32"/>
       <use xlink:href="#ArialMT-30" x="55.615234"/>
       <use xlink:href="#ArialMT-32" x="111.230469"/>
       <use xlink:href="#ArialMT-31" x="166.845703"/>
       <use xlink:href="#ArialMT-2d" x="222.460938"/>
       <use xlink:href="#ArialMT-31" x="255.761719"/>
       <use xlink:href="#ArialMT-31" x="304.001953"/>
      </g>
     </g>
    </g>
    <g id="xtick_7">
     <g id="line2d_7">
      <path d="M 896.04 403.2 
L 896.04 60.48 
" clip-path="url(#p1b0b722f2a)" style="fill: none; stroke: #ffffff; stroke-width: 2; stroke-linecap: round"/>
     </g>
     <g id="text_7">
      <!-- 2022-01 -->
      <g style="fill: #555555" transform="translate(823.93979 472.702308)rotate(-30)scale(0.22 -0.22)">
       <use xlink:href="#ArialMT-32"/>
       <use xlink:href="#ArialMT-30" x="55.615234"/>
       <use xlink:href="#ArialMT-32" x="111.230469"/>
       <use xlink:href="#ArialMT-32" x="166.845703"/>
       <use xlink:href="#ArialMT-2d" x="222.460938"/>
       <use xlink:href="#ArialMT-30" x="255.761719"/>
       <use xlink:href="#ArialMT-31" x="311.376953"/>
      </g>
     </g>
    </g>
    <g id="text_8">
     <!-- date -->
     <g style="fill: #555555" transform="translate(493.246875 497.667754)scale(0.24 -0.24)">
      <defs>
       <path id="ArialMT-64" d="M 2575 0 
L 2575 419 
Q 2259 -75 1647 -75 
Q 1250 -75 917 144 
Q 584 363 401 755 
Q 219 1147 219 1656 
Q 219 2153 384 2558 
Q 550 2963 881 3178 
Q 1213 3394 1622 3394 
Q 1922 3394 2156 3267 
Q 2391 3141 2538 2938 
L 2538 4581 
L 3097 4581 
L 3097 0 
L 2575 0 
z
M 797 1656 
Q 797 1019 1065 703 
Q 1334 388 1700 388 
Q 2069 388 2326 689 
Q 2584 991 2584 1609 
Q 2584 2291 2321 2609 
Q 2059 2928 1675 2928 
Q 1300 2928 1048 2622 
Q 797 2316 797 1656 
z
" transform="scale(0.015625)"/>
       <path id="ArialMT-61" d="M 2588 409 
Q 2275 144 1986 34 
Q 1697 -75 1366 -75 
Q 819 -75 525 192 
Q 231 459 231 875 
Q 231 1119 342 1320 
Q 453 1522 633 1644 
Q 813 1766 1038 1828 
Q 1203 1872 1538 1913 
Q 2219 1994 2541 2106 
Q 2544 2222 2544 2253 
Q 2544 2597 2384 2738 
Q 2169 2928 1744 2928 
Q 1347 2928 1158 2789 
Q 969 2650 878 2297 
L 328 2372 
Q 403 2725 575 2942 
Q 747 3159 1072 3276 
Q 1397 3394 1825 3394 
Q 2250 3394 2515 3294 
Q 2781 3194 2906 3042 
Q 3031 2891 3081 2659 
Q 3109 2516 3109 2141 
L 3109 1391 
Q 3109 606 3145 398 
Q 3181 191 3288 0 
L 2700 0 
Q 2613 175 2588 409 
z
M 2541 1666 
Q 2234 1541 1622 1453 
Q 1275 1403 1131 1340 
Q 988 1278 909 1158 
Q 831 1038 831 891 
Q 831 666 1001 516 
Q 1172 366 1500 366 
Q 1825 366 2078 508 
Q 2331 650 2450 897 
Q 2541 1088 2541 1459 
L 2541 1666 
z
" transform="scale(0.015625)"/>
       <path id="ArialMT-74" d="M 1650 503 
L 1731 6 
Q 1494 -44 1306 -44 
Q 1000 -44 831 53 
Q 663 150 594 308 
Q 525 466 525 972 
L 525 2881 
L 113 2881 
L 113 3319 
L 525 3319 
L 525 4141 
L 1084 4478 
L 1084 3319 
L 1650 3319 
L 1650 2881 
L 1084 2881 
L 1084 941 
Q 1084 700 1114 631 
Q 1144 563 1211 522 
Q 1278 481 1403 481 
Q 1497 481 1650 503 
z
" transform="scale(0.015625)"/>
       <path id="ArialMT-65" d="M 2694 1069 
L 3275 997 
Q 3138 488 2766 206 
Q 2394 -75 1816 -75 
Q 1088 -75 661 373 
Q 234 822 234 1631 
Q 234 2469 665 2931 
Q 1097 3394 1784 3394 
Q 2450 3394 2872 2941 
Q 3294 2488 3294 1666 
Q 3294 1616 3291 1516 
L 816 1516 
Q 847 969 1125 678 
Q 1403 388 1819 388 
Q 2128 388 2347 550 
Q 2566 713 2694 1069 
z
M 847 1978 
L 2700 1978 
Q 2663 2397 2488 2606 
Q 2219 2931 1791 2931 
Q 1403 2931 1139 2672 
Q 875 2413 847 1978 
z
" transform="scale(0.015625)"/>
      </defs>
      <use xlink:href="#ArialMT-64"/>
      <use xlink:href="#ArialMT-61" x="55.615234"/>
      <use xlink:href="#ArialMT-74" x="111.230469"/>
      <use xlink:href="#ArialMT-65" x="139.013672"/>
     </g>
    </g>
   </g>
   <g id="matplotlib.axis_2">
    <g id="ytick_1">
     <g id="line2d_8">
      <path d="M 126 344.170225 
L 907.2 344.170225 
" clip-path="url(#p1b0b722f2a)" style="fill: none; stroke: #ffffff; stroke-width: 2; stroke-linecap: round"/>
     </g>
     <g id="text_9">
      <!-- 20 -->
      <g style="fill: #555555" transform="translate(86.031875 352.043818)scale(0.22 -0.22)">
       <use xlink:href="#ArialMT-32"/>
       <use xlink:href="#ArialMT-30" x="55.615234"/>
      </g>
     </g>
    </g>
    <g id="ytick_2">
     <g id="line2d_9">
      <path d="M 126 279.519736 
L 907.2 279.519736 
" clip-path="url(#p1b0b722f2a)" style="fill: none; stroke: #ffffff; stroke-width: 2; stroke-linecap: round"/>
     </g>
     <g id="text_10">
      <!-- 40 -->
      <g style="fill: #555555" transform="translate(86.031875 287.393329)scale(0.22 -0.22)">
       <defs>
        <path id="ArialMT-34" d="M 2069 0 
L 2069 1097 
L 81 1097 
L 81 1613 
L 2172 4581 
L 2631 4581 
L 2631 1613 
L 3250 1613 
L 3250 1097 
L 2631 1097 
L 2631 0 
L 2069 0 
z
M 2069 1613 
L 2069 3678 
L 634 1613 
L 2069 1613 
z
" transform="scale(0.015625)"/>
       </defs>
       <use xlink:href="#ArialMT-34"/>
       <use xlink:href="#ArialMT-30" x="55.615234"/>
      </g>
     </g>
    </g>
    <g id="ytick_3">
     <g id="line2d_10">
      <path d="M 126 214.869247 
L 907.2 214.869247 
" clip-path="url(#p1b0b722f2a)" style="fill: none; stroke: #ffffff; stroke-width: 2; stroke-linecap: round"/>
     </g>
     <g id="text_11">
      <!-- 60 -->
      <g style="fill: #555555" transform="translate(86.031875 222.74284)scale(0.22 -0.22)">
       <defs>
        <path id="ArialMT-36" d="M 3184 3459 
L 2625 3416 
Q 2550 3747 2413 3897 
Q 2184 4138 1850 4138 
Q 1581 4138 1378 3988 
Q 1113 3794 959 3422 
Q 806 3050 800 2363 
Q 1003 2672 1297 2822 
Q 1591 2972 1913 2972 
Q 2475 2972 2870 2558 
Q 3266 2144 3266 1488 
Q 3266 1056 3080 686 
Q 2894 316 2569 119 
Q 2244 -78 1831 -78 
Q 1128 -78 684 439 
Q 241 956 241 2144 
Q 241 3472 731 4075 
Q 1159 4600 1884 4600 
Q 2425 4600 2770 4297 
Q 3116 3994 3184 3459 
z
M 888 1484 
Q 888 1194 1011 928 
Q 1134 663 1356 523 
Q 1578 384 1822 384 
Q 2178 384 2434 671 
Q 2691 959 2691 1453 
Q 2691 1928 2437 2201 
Q 2184 2475 1800 2475 
Q 1419 2475 1153 2201 
Q 888 1928 888 1484 
z
" transform="scale(0.015625)"/>
       </defs>
       <use xlink:href="#ArialMT-36"/>
       <use xlink:href="#ArialMT-30" x="55.615234"/>
      </g>
     </g>
    </g>
    <g id="ytick_4">
     <g id="line2d_11">
      <path d="M 126 150.218758 
L 907.2 150.218758 
" clip-path="url(#p1b0b722f2a)" style="fill: none; stroke: #ffffff; stroke-width: 2; stroke-linecap: round"/>
     </g>
     <g id="text_12">
      <!-- 80 -->
      <g style="fill: #555555" transform="translate(86.031875 158.092351)scale(0.22 -0.22)">
       <defs>
        <path id="ArialMT-38" d="M 1131 2484 
Q 781 2613 612 2850 
Q 444 3088 444 3419 
Q 444 3919 803 4259 
Q 1163 4600 1759 4600 
Q 2359 4600 2725 4251 
Q 3091 3903 3091 3403 
Q 3091 3084 2923 2848 
Q 2756 2613 2416 2484 
Q 2838 2347 3058 2040 
Q 3278 1734 3278 1309 
Q 3278 722 2862 322 
Q 2447 -78 1769 -78 
Q 1091 -78 675 323 
Q 259 725 259 1325 
Q 259 1772 486 2073 
Q 713 2375 1131 2484 
z
M 1019 3438 
Q 1019 3113 1228 2906 
Q 1438 2700 1772 2700 
Q 2097 2700 2305 2904 
Q 2513 3109 2513 3406 
Q 2513 3716 2298 3927 
Q 2084 4138 1766 4138 
Q 1444 4138 1231 3931 
Q 1019 3725 1019 3438 
z
M 838 1322 
Q 838 1081 952 856 
Q 1066 631 1291 507 
Q 1516 384 1775 384 
Q 2178 384 2440 643 
Q 2703 903 2703 1303 
Q 2703 1709 2433 1975 
Q 2163 2241 1756 2241 
Q 1359 2241 1098 1978 
Q 838 1716 838 1322 
z
" transform="scale(0.015625)"/>
       </defs>
       <use xlink:href="#ArialMT-38"/>
       <use xlink:href="#ArialMT-30" x="55.615234"/>
      </g>
     </g>
    </g>
    <g id="ytick_5">
     <g id="line2d_12">
      <path d="M 126 85.568269 
L 907.2 85.568269 
" clip-path="url(#p1b0b722f2a)" style="fill: none; stroke: #ffffff; stroke-width: 2; stroke-linecap: round"/>
     </g>
     <g id="text_13">
      <!-- 100 -->
      <g style="fill: #555555" transform="translate(73.797812 93.441862)scale(0.22 -0.22)">
       <use xlink:href="#ArialMT-31"/>
       <use xlink:href="#ArialMT-30" x="55.615234"/>
       <use xlink:href="#ArialMT-30" x="111.230469"/>
      </g>
     </g>
    </g>
   </g>
   <g id="line2d_13">
    <path d="M 161.509091 223.635853 
L 163.538182 214.267997 
L 165.567273 213.860699 
L 167.596364 213.317635 
L 169.625455 207.34393 
L 175.712727 208.973122 
L 177.741818 205.443205 
L 179.770909 205.578971 
L 181.8 200.962926 
L 183.829091 206.122035 
L 191.945455 205.443205 
L 193.974545 205.850503 
L 196.003636 205.443205 
L 198.032727 208.430058 
L 204.12 206.122035 
L 206.149091 206.936632 
L 208.178182 206.529334 
L 210.207273 207.34393 
L 212.236364 206.936632 
L 218.323636 200.419862 
L 222.381818 195.396519 
L 224.410909 193.495795 
L 226.44 192.952731 
L 232.527273 187.929388 
L 234.556364 187.386324 
L 236.585455 185.892898 
L 238.614545 187.386324 
L 240.643636 183.313343 
L 248.76 177.746936 
L 250.789091 174.081253 
L 252.818182 176.93234 
L 254.847273 177.882702 
L 260.934545 171.365933 
L 262.963636 165.935292 
L 264.992727 160.911949 
L 267.021818 168.514846 
L 269.050909 175.438913 
L 275.138182 178.29 
L 277.167273 180.32649 
L 279.196364 176.660808 
L 281.225455 167.971782 
L 283.254545 163.627269 
L 289.341818 169.600974 
L 291.370909 171.230167 
L 293.4 168.514846 
L 295.429091 162.405375 
L 297.458182 163.355737 
L 303.545455 166.071058 
L 305.574545 169.73674 
L 307.603636 173.809721 
L 309.632727 192.138135 
L 311.661818 181.819917 
L 317.749091 180.733788 
L 319.778182 193.360029 
L 321.807273 182.770279 
L 323.836364 192.545433 
L 325.865455 185.485599 
L 331.952727 184.806769 
L 333.981818 186.571728 
L 336.010909 188.743984 
L 338.04 181.548385 
L 346.156364 188.336686 
L 348.185455 184.942535 
L 350.214545 183.856407 
L 352.243636 183.449109 
L 354.272727 184.127939 
L 360.36 183.584875 
L 362.389091 182.770279 
L 364.418182 174.217019 
L 366.447273 171.908997 
L 368.476364 172.723593 
L 374.563636 172.180529 
L 376.592727 175.031615 
L 378.621818 179.376128 
L 380.650909 177.475404 
L 382.68 176.117744 
L 388.767273 175.574679 
L 390.796364 171.501699 
L 392.825455 168.650612 
L 394.854545 166.071058 
L 396.883636 172.452061 
L 402.970909 168.243314 
L 405 161.047715 
L 407.029091 161.998077 
L 409.058182 161.862311 
L 411.087273 160.640417 
L 417.174545 159.418522 
L 419.203636 156.295904 
L 421.232727 152.901753 
L 423.261818 162.948439 
L 425.290909 157.246266 
L 431.378182 153.987881 
L 433.407273 155.75284 
L 437.465455 168.922144 
L 439.494545 163.898801 
L 445.581818 158.46816 
L 447.610909 160.640417 
L 449.64 156.703202 
L 451.669091 155.209775 
L 453.698182 157.78933 
L 461.814545 152.630221 
L 463.843636 152.765987 
L 465.872727 153.173285 
L 467.901818 151.815625 
L 473.989091 151.679859 
L 476.018182 148.285708 
L 478.047273 150.322198 
L 480.076364 148.964538 
L 482.105455 152.222923 
L 488.192727 152.901753 
L 490.221818 151.544093 
L 492.250909 154.395179 
L 494.28 157.517798 
L 496.309091 154.530945 
L 502.396364 149.643368 
L 504.425455 145.706154 
L 506.454545 138.782086 
L 508.483636 137.831724 
L 510.512727 143.398131 
L 516.6 147.063814 
L 518.629091 145.163089 
L 520.658182 145.977686 
L 522.687273 143.126599 
L 524.716364 138.782086 
L 532.832727 146.792282 
L 534.861818 151.272561 
L 536.890909 145.706154 
L 538.92 142.447769 
L 545.007273 140.00398 
L 547.036364 136.066766 
L 549.065455 142.176237 
L 551.094545 146.928048 
L 553.123636 147.063814 
L 559.210909 163.084205 
L 561.24 159.14699 
L 563.269091 150.050666 
L 565.298182 144.212727 
L 567.327273 143.398131 
L 573.414545 140.275512 
L 575.443636 142.312003 
L 577.472727 141.633173 
L 579.501818 136.474064 
L 581.530909 133.079913 
L 587.618182 139.732448 
L 589.647273 145.977686 
L 591.676364 153.444817 
L 593.705455 149.100304 
L 595.734545 153.037519 
L 601.821818 157.517798 
L 603.850909 153.173285 
L 605.88 149.779134 
L 607.909091 151.136795 
L 609.938182 155.888606 
L 616.025455 157.653564 
L 618.054545 159.418522 
L 620.083636 164.849163 
L 622.112727 168.922144 
L 624.141818 178.697298 
L 630.229091 165.256461 
L 632.258182 155.75284 
L 634.287273 145.434622 
L 636.316364 150.050666 
L 638.345455 146.656516 
L 644.432727 142.312003 
L 646.461818 141.090109 
L 648.490909 142.719301 
L 650.52 137.424426 
L 652.549091 137.695958 
L 660.665455 142.447769 
L 662.694545 140.818577 
L 664.723636 143.941195 
L 666.752727 140.00398 
L 672.84 137.28866 
L 674.869091 137.017128 
L 676.898182 131.179189 
L 678.927273 130.228827 
L 680.956364 131.043423 
L 687.043636 135.931 
L 689.072727 131.314955 
L 691.101818 127.785038 
L 693.130909 121.947099 
L 695.16 118.960246 
L 701.247273 112.850775 
L 703.276364 114.751499 
L 709.363636 101.174897 
L 715.450909 93.300467 
L 717.48 88.005592 
L 719.509091 96.830384 
L 721.538182 92.621637 
L 723.567273 91.399743 
L 729.654545 83.796845 
L 731.683636 85.154506 
L 733.712727 83.118015 
L 735.741818 76.737012 
L 737.770909 78.230438 
L 743.858182 82.303419 
L 745.887273 80.266929 
L 747.916364 76.058182 
L 749.945455 80.674227 
L 751.974545 81.081525 
L 760.090909 78.094672 
L 762.12 87.326762 
L 764.149091 88.005592 
L 766.178182 90.856679 
L 772.265455 87.869826 
L 774.294545 82.303419 
L 776.323636 93.028935 
L 778.352727 99.953003 
L 780.381818 94.522361 
L 786.469091 91.399743 
L 788.498182 87.190996 
L 790.527273 95.472724 
L 792.556364 96.830384 
L 794.585455 101.174897 
L 800.672727 100.631833 
L 802.701818 97.101916 
L 804.730909 105.790942 
L 806.76 103.754451 
L 808.789091 116.923756 
L 814.876364 112.443477 
L 816.905455 103.075621 
L 818.934545 105.51941 
L 829.08 136.745596 
L 831.109091 148.014176 
L 833.138182 147.063814 
L 835.167273 140.954343 
L 837.196364 142.990833 
L 843.283636 131.858019 
L 845.312727 124.662419 
L 847.341818 119.367544 
L 849.370909 124.390887 
L 851.4 121.268269 
L 857.487273 124.390887 
L 859.516364 128.328102 
L 861.545455 124.662419 
L 863.574545 123.440525 
L 865.603636 128.463868 
L 871.690909 127.785038 
L 871.690909 127.785038 
" clip-path="url(#p1b0b722f2a)" style="fill: none; stroke: #4d3c2f; stroke-width: 3; stroke-linecap: round"/>
   </g>
   <g id="line2d_14">
    <path d="M 161.509091 254.887899 
L 163.538182 247.420768 
L 165.567273 245.158001 
L 167.596364 244.511496 
L 169.625455 239.953636 
L 175.712727 239.921311 
L 177.741818 236.818088 
L 179.770909 237.787845 
L 181.8 235.622054 
L 183.829091 239.488153 
L 191.945455 237.561568 
L 193.974545 236.540091 
L 196.003636 237.07669 
L 198.032727 239.856661 
L 204.12 238.240398 
L 206.149091 238.757602 
L 208.178182 237.981796 
L 210.207273 239.630384 
L 212.236364 240.082937 
L 218.323636 235.719029 
L 220.352727 231.807675 
L 222.381818 228.801427 
L 224.410909 227.055864 
L 226.44 225.051699 
L 236.585455 219.136179 
L 238.614545 220.55849 
L 240.643636 216.582485 
L 248.76 214.70762 
L 250.789091 211.171239 
L 252.818182 213.175404 
L 254.847273 217.287175 
L 260.934545 209.509721 
L 262.963636 209.470931 
L 264.992727 204.460518 
L 267.021818 203.458435 
L 269.050909 210.02046 
L 275.138182 212.800431 
L 277.167273 215.677378 
L 279.196364 210.731615 
L 281.225455 202.488678 
L 283.254545 195.183173 
L 289.341818 198.544998 
L 291.370909 201.906824 
L 293.4 200.516838 
L 295.429091 195.409449 
L 297.458182 196.734784 
L 303.545455 197.44594 
L 305.574545 199.353129 
L 307.603636 199.980239 
L 309.632727 214.791666 
L 311.661818 210.240272 
L 317.749091 209.832974 
L 319.778182 222.110101 
L 321.807273 211.054868 
L 323.836364 219.524082 
L 325.865455 211.733698 
L 331.952727 209.826509 
L 333.981818 213.091358 
L 336.010909 217.584567 
L 338.04 210.182086 
L 346.156364 219.233155 
L 348.185455 217.035038 
L 350.214545 215.612727 
L 352.243636 216.162256 
L 354.272727 217.067363 
L 360.36 215.839004 
L 362.389091 214.287392 
L 364.418182 204.686795 
L 366.447273 203.652387 
L 368.476364 204.673865 
L 374.563636 203.846338 
L 376.592727 206.387102 
L 378.621818 210.505339 
L 380.650909 210.246737 
L 382.68 207.951644 
L 388.767273 208.695125 
L 390.796364 205.365625 
L 392.825455 202.391702 
L 394.854545 198.674299 
L 396.883636 203.296809 
L 402.970909 200.355212 
L 405 196.476183 
L 407.029091 196.670134 
L 409.058182 199.644057 
L 411.087273 199.029877 
L 417.174545 198.965226 
L 419.203636 197.801518 
L 421.232727 195.215498 
L 423.261818 202.521003 
L 425.290909 197.51059 
L 431.378182 194.594853 
L 433.407273 197.109757 
L 435.436364 204.02736 
L 437.465455 208.527034 
L 439.494545 203.296809 
L 445.581818 195.312474 
L 447.610909 195.247823 
L 449.64 194.79527 
L 451.669091 192.726454 
L 453.698182 194.439692 
L 461.814545 189.914158 
L 463.843636 186.326056 
L 465.872727 186.390706 
L 467.901818 183.772361 
L 473.989091 185.033046 
L 476.018182 182.382376 
L 478.047273 182.673303 
L 480.076364 181.60657 
L 482.105455 179.602405 
L 488.192727 179.699381 
L 490.221818 175.69105 
L 492.250909 175.594075 
L 494.28 179.350268 
L 496.309091 177.695216 
L 502.396364 171.760301 
L 504.425455 173.195541 
L 508.483636 171.876671 
L 510.512727 169.452278 
L 516.6 173.137356 
L 518.629091 172.911079 
L 520.658182 171.327142 
L 522.687273 165.637899 
L 524.716364 165.864176 
L 532.832727 171.650395 
L 534.861818 175.432448 
L 536.890909 173.04038 
L 538.92 167.803691 
L 545.007273 169.290652 
L 547.036364 165.573249 
L 549.065455 172.426201 
L 551.094545 177.384893 
L 553.123636 177.016385 
L 559.210909 194.252206 
L 561.24 191.45284 
L 563.269091 181.574245 
L 565.298182 176.36988 
L 567.327273 175.852677 
L 573.414545 176.36988 
L 575.443636 177.210337 
L 577.472727 174.818269 
L 579.501818 170.842264 
L 581.530909 169.775531 
L 587.618182 178.471021 
L 589.647273 180.733788 
L 591.676364 188.524172 
L 593.705455 185.485599 
L 595.734545 188.103944 
L 601.821818 193.922488 
L 603.850909 188.071619 
L 605.88 184.968396 
L 607.909091 185.485599 
L 609.938182 187.58674 
L 616.025455 191.304143 
L 618.054545 193.728537 
L 620.083636 197.542916 
L 622.112727 203.309739 
L 624.141818 207.835273 
L 630.229091 196.637809 
L 632.258182 190.496012 
L 634.287273 187.845342 
L 636.316364 190.883915 
L 638.345455 186.616983 
L 644.432727 185.097696 
L 646.461818 187.392789 
L 648.490909 187.101862 
L 650.52 182.576327 
L 652.549091 184.839095 
L 660.665455 187.877668 
L 662.694545 184.806769 
L 664.723636 188.556498 
L 666.752727 183.449109 
L 672.84 181.089366 
L 674.869091 181.057041 
L 676.898182 174.107113 
L 678.927273 174.262275 
L 680.956364 176.36988 
L 687.043636 181.897497 
L 689.072727 180.91481 
L 691.101818 175.335473 
L 693.130909 171.876671 
L 695.16 169.678555 
L 701.247273 164.926744 
L 703.276364 165.443948 
L 705.305455 166.930909 
L 707.334545 166.284404 
L 709.363636 163.536758 
L 715.450909 157.912166 
L 717.48 153.677559 
L 719.509091 158.526346 
L 721.538182 155.714049 
L 723.567273 152.319899 
L 729.654545 148.537845 
L 731.683636 148.149942 
L 733.712727 148.796447 
L 737.770909 143.20418 
L 743.858182 143.301155 
L 745.887273 141.659033 
L 747.916364 138.872597 
L 749.945455 142.137447 
L 751.974545 138.064466 
L 760.090909 135.187519 
L 762.12 141.620243 
L 764.149091 141.135364 
L 766.178182 138.678645 
L 772.265455 137.127034 
L 774.294545 137.579587 
L 776.323636 147.438787 
L 778.352727 154.065462 
L 780.381818 146.113452 
L 786.469091 143.979986 
L 788.498182 136.803781 
L 790.527273 145.887175 
L 792.556364 145.079044 
L 794.585455 147.665063 
L 800.672727 147.374136 
L 802.701818 148.421474 
L 804.730909 156.567436 
L 806.76 154.582666 
L 808.789091 163.239366 
L 814.876364 160.724462 
L 816.905455 155.067544 
L 818.934545 155.423122 
L 829.08 182.705628 
L 831.109091 194.892246 
L 833.138182 196.864085 
L 835.167273 193.857838 
L 837.196364 194.633644 
L 843.283636 184.19259 
L 845.312727 175.917327 
L 847.341818 174.915244 
L 849.370909 179.505429 
L 851.4 177.145686 
L 857.487273 178.374046 
L 859.516364 180.184259 
L 861.545455 179.867472 
L 863.574545 175.147986 
L 865.603636 180.035563 
L 871.690909 187.282883 
L 871.690909 187.282883 
" clip-path="url(#p1b0b722f2a)" style="fill: none; stroke: #c07156; stroke-width: 3; stroke-linecap: round"/>
   </g>
   <g id="line2d_15">
    <path d="M 161.509091 377.568667 
L 163.538182 375.667943 
L 165.567273 377.523412 
L 167.596364 377.626853 
L 169.625455 376.211007 
L 175.712727 377.872524 
L 177.741818 377.445831 
L 179.770909 376.61184 
L 181.8 374.161586 
L 183.829091 375.454596 
L 191.945455 376.702351 
L 193.974545 378.131126 
L 196.003636 377.187229 
L 198.032727 377.394111 
L 204.12 376.702351 
L 208.178182 377.368251 
L 212.236364 375.674408 
L 218.323636 373.521547 
L 220.352727 374.853347 
L 222.381818 375.415806 
L 224.410909 375.260645 
L 226.44 376.721746 
L 232.527273 375.31883 
L 234.556364 376.036451 
L 236.585455 375.577432 
L 238.614545 375.648548 
L 240.643636 375.551572 
L 248.76 371.860029 
L 250.789091 371.730728 
L 252.818182 372.577649 
L 254.847273 369.41624 
L 260.934545 370.676925 
L 262.963636 365.285074 
L 264.992727 365.272144 
L 267.021818 373.877124 
L 269.050909 374.239167 
L 275.138182 374.310283 
L 277.167273 373.469826 
L 279.196364 374.749906 
L 281.225455 374.303817 
L 283.254545 377.26481 
L 289.341818 379.87669 
L 291.370909 378.144057 
L 293.4 376.818721 
L 295.429091 375.816639 
L 297.458182 375.441666 
L 303.545455 377.445831 
L 305.574545 379.204325 
L 309.632727 386.167182 
L 311.661818 380.400359 
L 317.749091 379.721528 
L 319.778182 380.070641 
L 321.807273 380.536125 
L 323.836364 381.842064 
L 325.865455 382.572615 
L 331.952727 383.800974 
L 333.981818 382.301083 
L 336.010909 379.98013 
L 338.04 380.187012 
L 346.156364 377.924245 
L 348.185455 376.728211 
L 350.214545 377.064393 
L 352.243636 376.107566 
L 354.272727 375.881289 
L 360.36 376.566585 
L 362.389091 377.3036 
L 364.418182 378.350938 
L 366.447273 377.077323 
L 368.476364 376.870442 
L 374.563636 377.154904 
L 378.621818 377.691503 
L 380.650909 376.049381 
L 382.68 376.986813 
L 388.767273 375.700268 
L 390.796364 374.956787 
L 392.825455 375.079623 
L 394.854545 376.217472 
L 396.883636 377.975965 
L 402.970909 376.708816 
L 405 373.392246 
L 407.029091 374.148656 
L 409.058182 371.038968 
L 411.087273 370.431253 
L 417.174545 369.274009 
L 419.203636 367.3151 
L 421.232727 366.506968 
L 423.261818 369.248149 
L 425.290909 368.556389 
L 431.378182 368.213741 
L 433.407273 367.463796 
L 435.436364 367.062963 
L 437.465455 369.215824 
L 439.494545 369.422706 
L 445.581818 371.9764 
L 447.610909 374.213307 
L 449.64 370.728645 
L 451.669091 371.304035 
L 453.698182 372.170351 
L 461.814545 371.536777 
L 463.843636 375.260645 
L 465.872727 375.603292 
L 467.901818 376.863977 
L 473.989091 375.467526 
L 476.018182 374.724046 
L 478.047273 376.469609 
L 480.076364 376.178682 
L 482.105455 381.441231 
L 488.192727 382.023086 
L 490.221818 384.673756 
L 492.250909 387.621818 
L 494.28 386.988243 
L 496.309091 385.656443 
L 502.396364 386.703781 
L 504.425455 381.331326 
L 506.454545 375.014973 
L 508.483636 374.775766 
L 510.512727 382.766566 
L 516.6 382.747171 
L 518.629091 381.072724 
L 520.658182 383.471257 
L 522.687273 386.309413 
L 524.716364 381.738624 
L 532.832727 383.962601 
L 534.861818 384.660826 
L 536.890909 381.486487 
L 538.92 383.464792 
L 545.007273 379.534042 
L 547.036364 379.31423 
L 549.065455 378.57075 
L 551.094545 378.363868 
L 553.123636 378.868142 
L 559.210909 377.652713 
L 561.24 376.514864 
L 563.269091 377.297135 
L 565.298182 376.66356 
L 567.327273 376.366168 
L 573.414545 372.726346 
L 575.443636 373.92238 
L 577.472727 375.635618 
L 579.501818 374.452514 
L 581.530909 372.125096 
L 587.618182 370.082141 
L 589.647273 374.064611 
L 591.676364 373.741358 
L 593.705455 372.435418 
L 595.734545 373.754288 
L 601.821818 372.416023 
L 603.850909 373.92238 
L 605.88 373.631452 
L 607.909091 374.471909 
L 609.938182 377.122579 
L 618.054545 374.510699 
L 620.083636 376.126961 
L 622.112727 374.433118 
L 624.141818 379.682738 
L 630.229091 377.439366 
L 632.258182 374.077541 
L 634.287273 366.409993 
L 636.316364 367.987465 
L 638.345455 368.860246 
L 644.432727 366.03502 
L 646.461818 362.518033 
L 648.490909 364.438153 
L 650.52 363.668812 
L 652.549091 361.677577 
L 660.665455 363.390815 
L 662.694545 364.832521 
L 664.723636 364.205411 
L 666.752727 365.375585 
L 672.84 365.020007 
L 674.869091 364.7808 
L 676.898182 365.892789 
L 678.927273 364.787265 
L 680.956364 363.494256 
L 687.043636 362.854216 
L 689.072727 359.220858 
L 691.101818 361.270279 
L 693.130909 358.891141 
L 695.16 358.102405 
L 701.247273 356.744745 
L 703.276364 358.128265 
L 705.305455 352.161025 
L 707.334545 348.463017 
L 709.363636 346.458852 
L 715.450909 344.209015 
L 717.48 343.148747 
L 719.509091 347.124752 
L 721.538182 345.728301 
L 723.567273 347.900558 
L 729.654545 344.079714 
L 731.683636 345.825277 
L 733.712727 343.142282 
L 735.741818 339.573575 
L 737.770909 343.846972 
L 743.858182 347.822977 
L 745.887273 347.428609 
L 747.916364 346.006298 
L 749.945455 347.357494 
L 751.974545 351.837773 
L 760.090909 351.727867 
L 762.12 354.527233 
L 764.149091 355.690942 
L 766.178182 360.998747 
L 772.265455 359.563506 
L 774.294545 353.544545 
L 776.323636 354.410862 
L 778.352727 354.708254 
L 780.381818 357.229623 
L 786.469091 356.240471 
L 788.498182 359.207928 
L 790.527273 358.406262 
L 792.556364 360.572054 
L 794.585455 362.330547 
L 800.672727 362.07841 
L 802.701818 357.501155 
L 804.730909 358.044219 
L 806.76 357.992499 
L 808.789091 362.505103 
L 814.876364 360.539728 
L 816.905455 356.82879 
L 818.934545 358.917001 
L 829.08 362.860681 
L 831.109091 361.942644 
L 835.167273 355.917218 
L 837.196364 357.177903 
L 843.283636 356.486143 
L 845.312727 357.565806 
L 847.341818 353.273013 
L 849.370909 353.706172 
L 851.4 352.943296 
L 857.487273 354.837555 
L 859.516364 356.964556 
L 861.545455 353.615661 
L 863.574545 357.113252 
L 865.603636 357.249018 
L 871.690909 349.322869 
L 871.690909 349.322869 
" clip-path="url(#p1b0b722f2a)" style="fill: none; stroke: #e8c767; stroke-width: 3; stroke-linecap: round"/>
   </g>
   <g id="patch_3">
    <path d="M 126 403.2 
L 126 60.48 
" style="fill: none; stroke: #ffffff; stroke-width: 2.5; stroke-linejoin: miter; stroke-linecap: square"/>
   </g>
   <g id="patch_4">
    <path d="M 907.2 403.2 
L 907.2 60.48 
" style="fill: none; stroke: #ffffff; stroke-width: 2.5; stroke-linejoin: miter; stroke-linecap: square"/>
   </g>
   <g id="patch_5">
    <path d="M 126 403.2 
L 907.2 403.2 
" style="fill: none; stroke: #ffffff; stroke-width: 2.5; stroke-linejoin: miter; stroke-linecap: square"/>
   </g>
   <g id="patch_6">
    <path d="M 126 60.48 
L 907.2 60.48 
" style="fill: none; stroke: #ffffff; stroke-width: 2.5; stroke-linejoin: miter; stroke-linecap: square"/>
   </g>
   <g id="legend_1">
    <g id="patch_7">
     <path d="M 718.6875 282.223437 
L 891.8 282.223437 
Q 896.2 282.223437 896.2 277.823437 
L 896.2 185.856562 
Q 896.2 181.456563 891.8 181.456563 
L 718.6875 181.456563 
Q 714.2875 181.456563 714.2875 185.856562 
L 714.2875 277.823437 
Q 714.2875 282.223437 718.6875 282.223437 
z
" style="fill: #e5e5e5; opacity: 0.8; stroke: #cccccc; stroke-width: 2; stroke-linejoin: miter"/>
    </g>
    <g id="line2d_16">
     <path d="M 723.0875 198.585625 
L 745.0875 198.585625 
L 767.0875 198.585625 
" style="fill: none; stroke: #4d3c2f; stroke-width: 3; stroke-linecap: round"/>
    </g>
    <g id="text_14">
     <!-- HeatingOil -->
     <g style="fill: #262626" transform="translate(784.6875 206.285625)scale(0.22 -0.22)">
      <defs>
       <path id="ArialMT-48" d="M 513 0 
L 513 4581 
L 1119 4581 
L 1119 2700 
L 3500 2700 
L 3500 4581 
L 4106 4581 
L 4106 0 
L 3500 0 
L 3500 2159 
L 1119 2159 
L 1119 0 
L 513 0 
z
" transform="scale(0.015625)"/>
       <path id="ArialMT-69" d="M 425 3934 
L 425 4581 
L 988 4581 
L 988 3934 
L 425 3934 
z
M 425 0 
L 425 3319 
L 988 3319 
L 988 0 
L 425 0 
z
" transform="scale(0.015625)"/>
       <path id="ArialMT-6e" d="M 422 0 
L 422 3319 
L 928 3319 
L 928 2847 
Q 1294 3394 1984 3394 
Q 2284 3394 2536 3286 
Q 2788 3178 2913 3003 
Q 3038 2828 3088 2588 
Q 3119 2431 3119 2041 
L 3119 0 
L 2556 0 
L 2556 2019 
Q 2556 2363 2490 2533 
Q 2425 2703 2258 2804 
Q 2091 2906 1866 2906 
Q 1506 2906 1245 2678 
Q 984 2450 984 1813 
L 984 0 
L 422 0 
z
" transform="scale(0.015625)"/>
       <path id="ArialMT-67" d="M 319 -275 
L 866 -356 
Q 900 -609 1056 -725 
Q 1266 -881 1628 -881 
Q 2019 -881 2231 -725 
Q 2444 -569 2519 -288 
Q 2563 -116 2559 434 
Q 2191 0 1641 0 
Q 956 0 581 494 
Q 206 988 206 1678 
Q 206 2153 378 2554 
Q 550 2956 876 3175 
Q 1203 3394 1644 3394 
Q 2231 3394 2613 2919 
L 2613 3319 
L 3131 3319 
L 3131 450 
Q 3131 -325 2973 -648 
Q 2816 -972 2473 -1159 
Q 2131 -1347 1631 -1347 
Q 1038 -1347 672 -1080 
Q 306 -813 319 -275 
z
M 784 1719 
Q 784 1066 1043 766 
Q 1303 466 1694 466 
Q 2081 466 2343 764 
Q 2606 1063 2606 1700 
Q 2606 2309 2336 2618 
Q 2066 2928 1684 2928 
Q 1309 2928 1046 2623 
Q 784 2319 784 1719 
z
" transform="scale(0.015625)"/>
       <path id="ArialMT-4f" d="M 309 2231 
Q 309 3372 921 4017 
Q 1534 4663 2503 4663 
Q 3138 4663 3647 4359 
Q 4156 4056 4423 3514 
Q 4691 2972 4691 2284 
Q 4691 1588 4409 1038 
Q 4128 488 3612 205 
Q 3097 -78 2500 -78 
Q 1853 -78 1343 234 
Q 834 547 571 1087 
Q 309 1628 309 2231 
z
M 934 2222 
Q 934 1394 1379 917 
Q 1825 441 2497 441 
Q 3181 441 3623 922 
Q 4066 1403 4066 2288 
Q 4066 2847 3877 3264 
Q 3688 3681 3323 3911 
Q 2959 4141 2506 4141 
Q 1863 4141 1398 3698 
Q 934 3256 934 2222 
z
" transform="scale(0.015625)"/>
       <path id="ArialMT-6c" d="M 409 0 
L 409 4581 
L 972 4581 
L 972 0 
L 409 0 
z
" transform="scale(0.015625)"/>
      </defs>
      <use xlink:href="#ArialMT-48"/>
      <use xlink:href="#ArialMT-65" x="72.216797"/>
      <use xlink:href="#ArialMT-61" x="127.832031"/>
      <use xlink:href="#ArialMT-74" x="183.447266"/>
      <use xlink:href="#ArialMT-69" x="211.230469"/>
      <use xlink:href="#ArialMT-6e" x="233.447266"/>
      <use xlink:href="#ArialMT-67" x="289.0625"/>
      <use xlink:href="#ArialMT-4f" x="344.677734"/>
      <use xlink:href="#ArialMT-69" x="422.460938"/>
      <use xlink:href="#ArialMT-6c" x="444.677734"/>
     </g>
    </g>
    <g id="line2d_17">
     <path d="M 723.0875 229.963125 
L 745.0875 229.963125 
L 767.0875 229.963125 
" style="fill: none; stroke: #c07156; stroke-width: 3; stroke-linecap: round"/>
    </g>
    <g id="text_15">
     <!-- CrudeOil -->
     <g style="fill: #262626" transform="translate(784.6875 237.663125)scale(0.22 -0.22)">
      <defs>
       <path id="ArialMT-43" d="M 3763 1606 
L 4369 1453 
Q 4178 706 3683 314 
Q 3188 -78 2472 -78 
Q 1731 -78 1267 223 
Q 803 525 561 1097 
Q 319 1669 319 2325 
Q 319 3041 592 3573 
Q 866 4106 1370 4382 
Q 1875 4659 2481 4659 
Q 3169 4659 3637 4309 
Q 4106 3959 4291 3325 
L 3694 3184 
Q 3534 3684 3231 3912 
Q 2928 4141 2469 4141 
Q 1941 4141 1586 3887 
Q 1231 3634 1087 3207 
Q 944 2781 944 2328 
Q 944 1744 1114 1308 
Q 1284 872 1643 656 
Q 2003 441 2422 441 
Q 2931 441 3284 734 
Q 3638 1028 3763 1606 
z
" transform="scale(0.015625)"/>
       <path id="ArialMT-72" d="M 416 0 
L 416 3319 
L 922 3319 
L 922 2816 
Q 1116 3169 1280 3281 
Q 1444 3394 1641 3394 
Q 1925 3394 2219 3213 
L 2025 2691 
Q 1819 2813 1613 2813 
Q 1428 2813 1281 2702 
Q 1134 2591 1072 2394 
Q 978 2094 978 1738 
L 978 0 
L 416 0 
z
" transform="scale(0.015625)"/>
       <path id="ArialMT-75" d="M 2597 0 
L 2597 488 
Q 2209 -75 1544 -75 
Q 1250 -75 995 37 
Q 741 150 617 320 
Q 494 491 444 738 
Q 409 903 409 1263 
L 409 3319 
L 972 3319 
L 972 1478 
Q 972 1038 1006 884 
Q 1059 663 1231 536 
Q 1403 409 1656 409 
Q 1909 409 2131 539 
Q 2353 669 2445 892 
Q 2538 1116 2538 1541 
L 2538 3319 
L 3100 3319 
L 3100 0 
L 2597 0 
z
" transform="scale(0.015625)"/>
      </defs>
      <use xlink:href="#ArialMT-43"/>
      <use xlink:href="#ArialMT-72" x="72.216797"/>
      <use xlink:href="#ArialMT-75" x="105.517578"/>
      <use xlink:href="#ArialMT-64" x="161.132812"/>
      <use xlink:href="#ArialMT-65" x="216.748047"/>
      <use xlink:href="#ArialMT-4f" x="272.363281"/>
      <use xlink:href="#ArialMT-69" x="350.146484"/>
      <use xlink:href="#ArialMT-6c" x="372.363281"/>
     </g>
    </g>
    <g id="line2d_18">
     <path d="M 723.0875 261.350937 
L 745.0875 261.350937 
L 767.0875 261.350937 
" style="fill: none; stroke: #e8c767; stroke-width: 3; stroke-linecap: round"/>
    </g>
    <g id="text_16">
     <!-- Spread -->
     <g style="fill: #262626" transform="translate(784.6875 269.050937)scale(0.22 -0.22)">
      <defs>
       <path id="ArialMT-53" d="M 288 1472 
L 859 1522 
Q 900 1178 1048 958 
Q 1197 738 1509 602 
Q 1822 466 2213 466 
Q 2559 466 2825 569 
Q 3091 672 3220 851 
Q 3350 1031 3350 1244 
Q 3350 1459 3225 1620 
Q 3100 1781 2813 1891 
Q 2628 1963 1997 2114 
Q 1366 2266 1113 2400 
Q 784 2572 623 2826 
Q 463 3081 463 3397 
Q 463 3744 659 4045 
Q 856 4347 1234 4503 
Q 1613 4659 2075 4659 
Q 2584 4659 2973 4495 
Q 3363 4331 3572 4012 
Q 3781 3694 3797 3291 
L 3216 3247 
Q 3169 3681 2898 3903 
Q 2628 4125 2100 4125 
Q 1550 4125 1298 3923 
Q 1047 3722 1047 3438 
Q 1047 3191 1225 3031 
Q 1400 2872 2139 2705 
Q 2878 2538 3153 2413 
Q 3553 2228 3743 1945 
Q 3934 1663 3934 1294 
Q 3934 928 3725 604 
Q 3516 281 3123 101 
Q 2731 -78 2241 -78 
Q 1619 -78 1198 103 
Q 778 284 539 648 
Q 300 1013 288 1472 
z
" transform="scale(0.015625)"/>
       <path id="ArialMT-70" d="M 422 -1272 
L 422 3319 
L 934 3319 
L 934 2888 
Q 1116 3141 1344 3267 
Q 1572 3394 1897 3394 
Q 2322 3394 2647 3175 
Q 2972 2956 3137 2557 
Q 3303 2159 3303 1684 
Q 3303 1175 3120 767 
Q 2938 359 2589 142 
Q 2241 -75 1856 -75 
Q 1575 -75 1351 44 
Q 1128 163 984 344 
L 984 -1272 
L 422 -1272 
z
M 931 1641 
Q 931 1000 1190 694 
Q 1450 388 1819 388 
Q 2194 388 2461 705 
Q 2728 1022 2728 1688 
Q 2728 2322 2467 2637 
Q 2206 2953 1844 2953 
Q 1484 2953 1207 2617 
Q 931 2281 931 1641 
z
" transform="scale(0.015625)"/>
      </defs>
      <use xlink:href="#ArialMT-53"/>
      <use xlink:href="#ArialMT-70" x="66.699219"/>
      <use xlink:href="#ArialMT-72" x="122.314453"/>
      <use xlink:href="#ArialMT-65" x="155.615234"/>
      <use xlink:href="#ArialMT-61" x="211.230469"/>
      <use xlink:href="#ArialMT-64" x="266.845703"/>
     </g>
    </g>
   </g>
  </g>
 </g>
 <defs>
  <clipPath id="p1b0b722f2a">
   <rect x="126" y="60.48" width="781.2" height="342.72"/>
  </clipPath>
 </defs>
</svg>
