<?xml version="1.0" encoding="utf-8" standalone="no"?>
<!DOCTYPE svg PUBLIC "-//W3C//DTD SVG 1.1//EN"
  "http://www.w3.org/Graphics/SVG/1.1/DTD/svg11.dtd">
<svg xmlns:xlink="http://www.w3.org/1999/xlink" width="720pt" height="720pt" viewBox="0 0 720 720" xmlns="http://www.w3.org/2000/svg" version="1.1">
 <metadata>
  <rdf:RDF xmlns:dc="http://purl.org/dc/elements/1.1/" xmlns:cc="http://creativecommons.org/ns#" xmlns:rdf="http://www.w3.org/1999/02/22-rdf-syntax-ns#">
   <cc:Work>
    <dc:type rdf:resource="http://purl.org/dc/dcmitype/StillImage"/>
    <dc:date>2022-04-15T23:26:19.604630</dc:date>
    <dc:format>image/svg+xml</dc:format>
    <dc:creator>
     <cc:Agent>
      <dc:title>Matplotlib v3.5.1, https://matplotlib.org/</dc:title>
     </cc:Agent>
    </dc:creator>
   </cc:Work>
  </rdf:RDF>
 </metadata>
 <defs>
  <style type="text/css">*{stroke-linejoin: round; stroke-linecap: butt}</style>
 </defs>
 <g id="figure_1">
  <g id="patch_1">
   <path d="M 0 720 
L 720 720 
L 720 0 
L 0 0 
z
" style="fill: #ffffff"/>
  </g>
  <g id="axes_1">
   <g id="patch_2">
    <path d="M 93.545 631.58 
L 591.131143 631.58 
L 591.131143 129.747429 
L 93.545 129.747429 
z
" style="fill: #e5e5e5"/>
   </g>
   <g id="matplotlib.axis_1">
    <g id="xtick_1">
     <g id="line2d_1">
      <path d="M 93.545 631.58 
L 93.545 129.747429 
" clip-path="url(#p25f8186190)" style="fill: none; stroke: #ffffff; stroke-width: 2; stroke-linecap: round"/>
     </g>
     <g id="text_1">
      <!-- −4 -->
      <g style="fill: #555555" transform="translate(81.003281 662.827188)scale(0.22 -0.22)">
       <defs>
        <path id="ArialMT-2212" d="M 3381 1997 
L 356 1997 
L 356 2522 
L 3381 2522 
L 3381 1997 
z
" transform="scale(0.015625)"/>
        <path id="ArialMT-34" d="M 2069 0 
L 2069 1097 
L 81 1097 
L 81 1613 
L 2172 4581 
L 2631 4581 
L 2631 1613 
L 3250 1613 
L 3250 1097 
L 2631 1097 
L 2631 0 
L 2069 0 
z
M 2069 1613 
L 2069 3678 
L 634 1613 
L 2069 1613 
z
" transform="scale(0.015625)"/>
       </defs>
       <use xlink:href="#ArialMT-2212"/>
       <use xlink:href="#ArialMT-34" x="58.398438"/>
      </g>
     </g>
    </g>
    <g id="xtick_2">
     <g id="line2d_2">
      <path d="M 217.941536 631.58 
L 217.941536 129.747429 
" clip-path="url(#p25f8186190)" style="fill: none; stroke: #ffffff; stroke-width: 2; stroke-linecap: round"/>
     </g>
     <g id="text_2">
      <!-- −2 -->
      <g style="fill: #555555" transform="translate(205.399817 662.827188)scale(0.22 -0.22)">
       <defs>
        <path id="ArialMT-32" d="M 3222 541 
L 3222 0 
L 194 0 
Q 188 203 259 391 
Q 375 700 629 1000 
Q 884 1300 1366 1694 
Q 2113 2306 2375 2664 
Q 2638 3022 2638 3341 
Q 2638 3675 2398 3904 
Q 2159 4134 1775 4134 
Q 1369 4134 1125 3890 
Q 881 3647 878 3216 
L 300 3275 
Q 359 3922 746 4261 
Q 1134 4600 1788 4600 
Q 2447 4600 2831 4234 
Q 3216 3869 3216 3328 
Q 3216 3053 3103 2787 
Q 2991 2522 2730 2228 
Q 2469 1934 1863 1422 
Q 1356 997 1212 845 
Q 1069 694 975 541 
L 3222 541 
z
" transform="scale(0.015625)"/>
       </defs>
       <use xlink:href="#ArialMT-2212"/>
       <use xlink:href="#ArialMT-32" x="58.398438"/>
      </g>
     </g>
    </g>
    <g id="xtick_3">
     <g id="line2d_3">
      <path d="M 342.338071 631.58 
L 342.338071 129.747429 
" clip-path="url(#p25f8186190)" style="fill: none; stroke: #ffffff; stroke-width: 2; stroke-linecap: round"/>
     </g>
     <g id="text_3">
      <!-- 0 -->
      <g style="fill: #555555" transform="translate(336.22104 662.827188)scale(0.22 -0.22)">
       <defs>
        <path id="ArialMT-30" d="M 266 2259 
Q 266 3072 433 3567 
Q 600 4063 929 4331 
Q 1259 4600 1759 4600 
Q 2128 4600 2406 4451 
Q 2684 4303 2865 4023 
Q 3047 3744 3150 3342 
Q 3253 2941 3253 2259 
Q 3253 1453 3087 958 
Q 2922 463 2592 192 
Q 2263 -78 1759 -78 
Q 1097 -78 719 397 
Q 266 969 266 2259 
z
M 844 2259 
Q 844 1131 1108 757 
Q 1372 384 1759 384 
Q 2147 384 2411 759 
Q 2675 1134 2675 2259 
Q 2675 3391 2411 3762 
Q 2147 4134 1753 4134 
Q 1366 4134 1134 3806 
Q 844 3388 844 2259 
z
" transform="scale(0.015625)"/>
       </defs>
       <use xlink:href="#ArialMT-30"/>
      </g>
     </g>
    </g>
    <g id="xtick_4">
     <g id="line2d_4">
      <path d="M 466.734607 631.58 
L 466.734607 129.747429 
" clip-path="url(#p25f8186190)" style="fill: none; stroke: #ffffff; stroke-width: 2; stroke-linecap: round"/>
     </g>
     <g id="text_4">
      <!-- 2 -->
      <g style="fill: #555555" transform="translate(460.617576 662.827188)scale(0.22 -0.22)">
       <use xlink:href="#ArialMT-32"/>
      </g>
     </g>
    </g>
    <g id="xtick_5">
     <g id="line2d_5">
      <path d="M 591.131143 631.58 
L 591.131143 129.747429 
" clip-path="url(#p25f8186190)" style="fill: none; stroke: #ffffff; stroke-width: 2; stroke-linecap: round"/>
     </g>
     <g id="text_5">
      <!-- 4 -->
      <g style="fill: #555555" transform="translate(585.014112 662.827188)scale(0.22 -0.22)">
       <use xlink:href="#ArialMT-34"/>
      </g>
     </g>
    </g>
    <g id="text_6">
     <!-- HeatingOil -->
     <g style="fill: #555555" transform="translate(286.313071 688.685938)scale(0.24 -0.24)">
      <defs>
       <path id="ArialMT-48" d="M 513 0 
L 513 4581 
L 1119 4581 
L 1119 2700 
L 3500 2700 
L 3500 4581 
L 4106 4581 
L 4106 0 
L 3500 0 
L 3500 2159 
L 1119 2159 
L 1119 0 
L 513 0 
z
" transform="scale(0.015625)"/>
       <path id="ArialMT-65" d="M 2694 1069 
L 3275 997 
Q 3138 488 2766 206 
Q 2394 -75 1816 -75 
Q 1088 -75 661 373 
Q 234 822 234 1631 
Q 234 2469 665 2931 
Q 1097 3394 1784 3394 
Q 2450 3394 2872 2941 
Q 3294 2488 3294 1666 
Q 3294 1616 3291 1516 
L 816 1516 
Q 847 969 1125 678 
Q 1403 388 1819 388 
Q 2128 388 2347 550 
Q 2566 713 2694 1069 
z
M 847 1978 
L 2700 1978 
Q 2663 2397 2488 2606 
Q 2219 2931 1791 2931 
Q 1403 2931 1139 2672 
Q 875 2413 847 1978 
z
" transform="scale(0.015625)"/>
       <path id="ArialMT-61" d="M 2588 409 
Q 2275 144 1986 34 
Q 1697 -75 1366 -75 
Q 819 -75 525 192 
Q 231 459 231 875 
Q 231 1119 342 1320 
Q 453 1522 633 1644 
Q 813 1766 1038 1828 
Q 1203 1872 1538 1913 
Q 2219 1994 2541 2106 
Q 2544 2222 2544 2253 
Q 2544 2597 2384 2738 
Q 2169 2928 1744 2928 
Q 1347 2928 1158 2789 
Q 969 2650 878 2297 
L 328 2372 
Q 403 2725 575 2942 
Q 747 3159 1072 3276 
Q 1397 3394 1825 3394 
Q 2250 3394 2515 3294 
Q 2781 3194 2906 3042 
Q 3031 2891 3081 2659 
Q 3109 2516 3109 2141 
L 3109 1391 
Q 3109 606 3145 398 
Q 3181 191 3288 0 
L 2700 0 
Q 2613 175 2588 409 
z
M 2541 1666 
Q 2234 1541 1622 1453 
Q 1275 1403 1131 1340 
Q 988 1278 909 1158 
Q 831 1038 831 891 
Q 831 666 1001 516 
Q 1172 366 1500 366 
Q 1825 366 2078 508 
Q 2331 650 2450 897 
Q 2541 1088 2541 1459 
L 2541 1666 
z
" transform="scale(0.015625)"/>
       <path id="ArialMT-74" d="M 1650 503 
L 1731 6 
Q 1494 -44 1306 -44 
Q 1000 -44 831 53 
Q 663 150 594 308 
Q 525 466 525 972 
L 525 2881 
L 113 2881 
L 113 3319 
L 525 3319 
L 525 4141 
L 1084 4478 
L 1084 3319 
L 1650 3319 
L 1650 2881 
L 1084 2881 
L 1084 941 
Q 1084 700 1114 631 
Q 1144 563 1211 522 
Q 1278 481 1403 481 
Q 1497 481 1650 503 
z
" transform="scale(0.015625)"/>
       <path id="ArialMT-69" d="M 425 3934 
L 425 4581 
L 988 4581 
L 988 3934 
L 425 3934 
z
M 425 0 
L 425 3319 
L 988 3319 
L 988 0 
L 425 0 
z
" transform="scale(0.015625)"/>
       <path id="ArialMT-6e" d="M 422 0 
L 422 3319 
L 928 3319 
L 928 2847 
Q 1294 3394 1984 3394 
Q 2284 3394 2536 3286 
Q 2788 3178 2913 3003 
Q 3038 2828 3088 2588 
Q 3119 2431 3119 2041 
L 3119 0 
L 2556 0 
L 2556 2019 
Q 2556 2363 2490 2533 
Q 2425 2703 2258 2804 
Q 2091 2906 1866 2906 
Q 1506 2906 1245 2678 
Q 984 2450 984 1813 
L 984 0 
L 422 0 
z
" transform="scale(0.015625)"/>
       <path id="ArialMT-67" d="M 319 -275 
L 866 -356 
Q 900 -609 1056 -725 
Q 1266 -881 1628 -881 
Q 2019 -881 2231 -725 
Q 2444 -569 2519 -288 
Q 2563 -116 2559 434 
Q 2191 0 1641 0 
Q 956 0 581 494 
Q 206 988 206 1678 
Q 206 2153 378 2554 
Q 550 2956 876 3175 
Q 1203 3394 1644 3394 
Q 2231 3394 2613 2919 
L 2613 3319 
L 3131 3319 
L 3131 450 
Q 3131 -325 2973 -648 
Q 2816 -972 2473 -1159 
Q 2131 -1347 1631 -1347 
Q 1038 -1347 672 -1080 
Q 306 -813 319 -275 
z
M 784 1719 
Q 784 1066 1043 766 
Q 1303 466 1694 466 
Q 2081 466 2343 764 
Q 2606 1063 2606 1700 
Q 2606 2309 2336 2618 
Q 2066 2928 1684 2928 
Q 1309 2928 1046 2623 
Q 784 2319 784 1719 
z
" transform="scale(0.015625)"/>
       <path id="ArialMT-4f" d="M 309 2231 
Q 309 3372 921 4017 
Q 1534 4663 2503 4663 
Q 3138 4663 3647 4359 
Q 4156 4056 4423 3514 
Q 4691 2972 4691 2284 
Q 4691 1588 4409 1038 
Q 4128 488 3612 205 
Q 3097 -78 2500 -78 
Q 1853 -78 1343 234 
Q 834 547 571 1087 
Q 309 1628 309 2231 
z
M 934 2222 
Q 934 1394 1379 917 
Q 1825 441 2497 441 
Q 3181 441 3623 922 
Q 4066 1403 4066 2288 
Q 4066 2847 3877 3264 
Q 3688 3681 3323 3911 
Q 2959 4141 2506 4141 
Q 1863 4141 1398 3698 
Q 934 3256 934 2222 
z
" transform="scale(0.015625)"/>
       <path id="ArialMT-6c" d="M 409 0 
L 409 4581 
L 972 4581 
L 972 0 
L 409 0 
z
" transform="scale(0.015625)"/>
      </defs>
      <use xlink:href="#ArialMT-48"/>
      <use xlink:href="#ArialMT-65" x="72.216797"/>
      <use xlink:href="#ArialMT-61" x="127.832031"/>
      <use xlink:href="#ArialMT-74" x="183.447266"/>
      <use xlink:href="#ArialMT-69" x="211.230469"/>
      <use xlink:href="#ArialMT-6e" x="233.447266"/>
      <use xlink:href="#ArialMT-67" x="289.0625"/>
      <use xlink:href="#ArialMT-4f" x="344.677734"/>
      <use xlink:href="#ArialMT-69" x="422.460938"/>
      <use xlink:href="#ArialMT-6c" x="444.677734"/>
     </g>
    </g>
   </g>
   <g id="matplotlib.axis_2">
    <g id="ytick_1">
     <g id="line2d_6">
      <path d="M 93.545 631.58 
L 591.131143 631.58 
" clip-path="url(#p25f8186190)" style="fill: none; stroke: #ffffff; stroke-width: 2; stroke-linecap: round"/>
     </g>
     <g id="text_7">
      <!-- −4 -->
      <g style="fill: #555555" transform="translate(52.961562 639.453594)scale(0.22 -0.22)">
       <use xlink:href="#ArialMT-2212"/>
       <use xlink:href="#ArialMT-34" x="58.398438"/>
      </g>
     </g>
    </g>
    <g id="ytick_2">
     <g id="line2d_7">
      <path d="M 93.545 568.850929 
L 591.131143 568.850929 
" clip-path="url(#p25f8186190)" style="fill: none; stroke: #ffffff; stroke-width: 2; stroke-linecap: round"/>
     </g>
     <g id="text_8">
      <!-- −3 -->
      <g style="fill: #555555" transform="translate(52.961562 576.724522)scale(0.22 -0.22)">
       <defs>
        <path id="ArialMT-33" d="M 269 1209 
L 831 1284 
Q 928 806 1161 595 
Q 1394 384 1728 384 
Q 2125 384 2398 659 
Q 2672 934 2672 1341 
Q 2672 1728 2419 1979 
Q 2166 2231 1775 2231 
Q 1616 2231 1378 2169 
L 1441 2663 
Q 1497 2656 1531 2656 
Q 1891 2656 2178 2843 
Q 2466 3031 2466 3422 
Q 2466 3731 2256 3934 
Q 2047 4138 1716 4138 
Q 1388 4138 1169 3931 
Q 950 3725 888 3313 
L 325 3413 
Q 428 3978 793 4289 
Q 1159 4600 1703 4600 
Q 2078 4600 2393 4439 
Q 2709 4278 2876 4000 
Q 3044 3722 3044 3409 
Q 3044 3113 2884 2869 
Q 2725 2625 2413 2481 
Q 2819 2388 3044 2092 
Q 3269 1797 3269 1353 
Q 3269 753 2831 336 
Q 2394 -81 1725 -81 
Q 1122 -81 723 278 
Q 325 638 269 1209 
z
" transform="scale(0.015625)"/>
       </defs>
       <use xlink:href="#ArialMT-2212"/>
       <use xlink:href="#ArialMT-33" x="58.398438"/>
      </g>
     </g>
    </g>
    <g id="ytick_3">
     <g id="line2d_8">
      <path d="M 93.545 506.121857 
L 591.131143 506.121857 
" clip-path="url(#p25f8186190)" style="fill: none; stroke: #ffffff; stroke-width: 2; stroke-linecap: round"/>
     </g>
     <g id="text_9">
      <!-- −2 -->
      <g style="fill: #555555" transform="translate(52.961562 513.995451)scale(0.22 -0.22)">
       <use xlink:href="#ArialMT-2212"/>
       <use xlink:href="#ArialMT-32" x="58.398438"/>
      </g>
     </g>
    </g>
    <g id="ytick_4">
     <g id="line2d_9">
      <path d="M 93.545 443.392786 
L 591.131143 443.392786 
" clip-path="url(#p25f8186190)" style="fill: none; stroke: #ffffff; stroke-width: 2; stroke-linecap: round"/>
     </g>
     <g id="text_10">
      <!-- −1 -->
      <g style="fill: #555555" transform="translate(52.961562 451.266379)scale(0.22 -0.22)">
       <defs>
        <path id="ArialMT-31" d="M 2384 0 
L 1822 0 
L 1822 3584 
Q 1619 3391 1289 3197 
Q 959 3003 697 2906 
L 697 3450 
Q 1169 3672 1522 3987 
Q 1875 4303 2022 4600 
L 2384 4600 
L 2384 0 
z
" transform="scale(0.015625)"/>
       </defs>
       <use xlink:href="#ArialMT-2212"/>
       <use xlink:href="#ArialMT-31" x="58.398438"/>
      </g>
     </g>
    </g>
    <g id="ytick_5">
     <g id="line2d_10">
      <path d="M 93.545 380.663714 
L 591.131143 380.663714 
" clip-path="url(#p25f8186190)" style="fill: none; stroke: #ffffff; stroke-width: 2; stroke-linecap: round"/>
     </g>
     <g id="text_11">
      <!-- 0 -->
      <g style="fill: #555555" transform="translate(65.810937 388.537308)scale(0.22 -0.22)">
       <use xlink:href="#ArialMT-30"/>
      </g>
     </g>
    </g>
    <g id="ytick_6">
     <g id="line2d_11">
      <path d="M 93.545 317.934643 
L 591.131143 317.934643 
" clip-path="url(#p25f8186190)" style="fill: none; stroke: #ffffff; stroke-width: 2; stroke-linecap: round"/>
     </g>
     <g id="text_12">
      <!-- 1 -->
      <g style="fill: #555555" transform="translate(65.810937 325.808237)scale(0.22 -0.22)">
       <use xlink:href="#ArialMT-31"/>
      </g>
     </g>
    </g>
    <g id="ytick_7">
     <g id="line2d_12">
      <path d="M 93.545 255.205571 
L 591.131143 255.205571 
" clip-path="url(#p25f8186190)" style="fill: none; stroke: #ffffff; stroke-width: 2; stroke-linecap: round"/>
     </g>
     <g id="text_13">
      <!-- 2 -->
      <g style="fill: #555555" transform="translate(65.810937 263.079165)scale(0.22 -0.22)">
       <use xlink:href="#ArialMT-32"/>
      </g>
     </g>
    </g>
    <g id="ytick_8">
     <g id="line2d_13">
      <path d="M 93.545 192.4765 
L 591.131143 192.4765 
" clip-path="url(#p25f8186190)" style="fill: none; stroke: #ffffff; stroke-width: 2; stroke-linecap: round"/>
     </g>
     <g id="text_14">
      <!-- 3 -->
      <g style="fill: #555555" transform="translate(65.810937 200.350094)scale(0.22 -0.22)">
       <use xlink:href="#ArialMT-33"/>
      </g>
     </g>
    </g>
    <g id="ytick_9">
     <g id="line2d_14">
      <path d="M 93.545 129.747429 
L 591.131143 129.747429 
" clip-path="url(#p25f8186190)" style="fill: none; stroke: #ffffff; stroke-width: 2; stroke-linecap: round"/>
     </g>
     <g id="text_15">
      <!-- 4 -->
      <g style="fill: #555555" transform="translate(65.810937 137.621022)scale(0.22 -0.22)">
       <use xlink:href="#ArialMT-34"/>
      </g>
     </g>
    </g>
    <g id="text_16">
     <!-- CrudeOil -->
     <g style="fill: #555555" transform="translate(44.191562 428.011214)rotate(-90)scale(0.24 -0.24)">
      <defs>
       <path id="ArialMT-43" d="M 3763 1606 
L 4369 1453 
Q 4178 706 3683 314 
Q 3188 -78 2472 -78 
Q 1731 -78 1267 223 
Q 803 525 561 1097 
Q 319 1669 319 2325 
Q 319 3041 592 3573 
Q 866 4106 1370 4382 
Q 1875 4659 2481 4659 
Q 3169 4659 3637 4309 
Q 4106 3959 4291 3325 
L 3694 3184 
Q 3534 3684 3231 3912 
Q 2928 4141 2469 4141 
Q 1941 4141 1586 3887 
Q 1231 3634 1087 3207 
Q 944 2781 944 2328 
Q 944 1744 1114 1308 
Q 1284 872 1643 656 
Q 2003 441 2422 441 
Q 2931 441 3284 734 
Q 3638 1028 3763 1606 
z
" transform="scale(0.015625)"/>
       <path id="ArialMT-72" d="M 416 0 
L 416 3319 
L 922 3319 
L 922 2816 
Q 1116 3169 1280 3281 
Q 1444 3394 1641 3394 
Q 1925 3394 2219 3213 
L 2025 2691 
Q 1819 2813 1613 2813 
Q 1428 2813 1281 2702 
Q 1134 2591 1072 2394 
Q 978 2094 978 1738 
L 978 0 
L 416 0 
z
" transform="scale(0.015625)"/>
       <path id="ArialMT-75" d="M 2597 0 
L 2597 488 
Q 2209 -75 1544 -75 
Q 1250 -75 995 37 
Q 741 150 617 320 
Q 494 491 444 738 
Q 409 903 409 1263 
L 409 3319 
L 972 3319 
L 972 1478 
Q 972 1038 1006 884 
Q 1059 663 1231 536 
Q 1403 409 1656 409 
Q 1909 409 2131 539 
Q 2353 669 2445 892 
Q 2538 1116 2538 1541 
L 2538 3319 
L 3100 3319 
L 3100 0 
L 2597 0 
z
" transform="scale(0.015625)"/>
       <path id="ArialMT-64" d="M 2575 0 
L 2575 419 
Q 2259 -75 1647 -75 
Q 1250 -75 917 144 
Q 584 363 401 755 
Q 219 1147 219 1656 
Q 219 2153 384 2558 
Q 550 2963 881 3178 
Q 1213 3394 1622 3394 
Q 1922 3394 2156 3267 
Q 2391 3141 2538 2938 
L 2538 4581 
L 3097 4581 
L 3097 0 
L 2575 0 
z
M 797 1656 
Q 797 1019 1065 703 
Q 1334 388 1700 388 
Q 2069 388 2326 689 
Q 2584 991 2584 1609 
Q 2584 2291 2321 2609 
Q 2059 2928 1675 2928 
Q 1300 2928 1048 2622 
Q 797 2316 797 1656 
z
" transform="scale(0.015625)"/>
      </defs>
      <use xlink:href="#ArialMT-43"/>
      <use xlink:href="#ArialMT-72" x="72.216797"/>
      <use xlink:href="#ArialMT-75" x="105.517578"/>
      <use xlink:href="#ArialMT-64" x="161.132812"/>
      <use xlink:href="#ArialMT-65" x="216.748047"/>
      <use xlink:href="#ArialMT-4f" x="272.363281"/>
      <use xlink:href="#ArialMT-69" x="350.146484"/>
      <use xlink:href="#ArialMT-6c" x="372.363281"/>
     </g>
    </g>
   </g>
   <g id="PathCollection_1">
    <path d="M 204.054711 563.022833 
L 206.069802 562.938862 
L 208.277398 562.857064 
L 212.500086 562.072446 
L 216.722773 560.488866 
L 220.94546 558.236739 
L 221.418366 557.941419 
L 225.168148 555.654134 
L 229.165316 552.943977 
L 229.390835 552.795503 
L 233.613523 550.137742 
L 237.348093 547.946534 
L 237.83621 547.666472 
L 242.058897 546.277394 
L 246.281585 546.309228 
L 250.504272 547.562422 
L 254.726959 547.509546 
L 258.949647 545.979044 
L 263.172334 543.625673 
L 264.065183 542.949092 
L 267.395021 540.298888 
L 269.949358 537.951649 
L 271.617709 536.469374 
L 275.169575 532.954206 
L 275.840396 532.379555 
L 280.063083 528.451965 
L 280.582673 527.956764 
L 284.285771 525.044517 
L 286.768323 522.959321 
L 288.508458 521.796671 
L 292.731146 518.813537 
L 293.877074 517.961878 
L 296.953833 516.150365 
L 301.17652 513.208047 
L 301.522917 512.964436 
L 305.399208 510.787829 
L 309.355443 507.966993 
L 309.621895 507.806331 
L 313.844582 505.576258 
L 317.906371 502.969551 
L 318.06727 502.88072 
L 322.289957 501.546676 
L 326.512644 500.93518 
L 330.735332 500.578445 
L 334.958019 499.122505 
L 336.813356 497.972108 
L 339.180706 496.714445 
L 343.403394 493.738489 
L 344.296947 492.974665 
L 347.626081 490.299865 
L 350.204333 487.977223 
L 351.848769 486.555496 
L 355.515849 482.97978 
L 356.071456 482.453216 
L 360.260029 477.982337 
L 360.294143 477.946681 
L 364.516831 473.030599 
L 364.554411 472.984895 
L 368.534154 467.987452 
L 368.739518 467.730763 
L 372.311393 462.990009 
L 372.962205 462.119465 
L 375.959816 457.992567 
L 377.184893 456.283138 
L 379.539175 452.995124 
L 381.40758 450.378901 
L 383.136075 447.997682 
L 385.630267 444.668626 
L 386.900598 443.000239 
L 389.852955 439.427679 
L 391.026543 438.002796 
L 394.075642 434.738783 
L 395.637772 433.005354 
L 398.298329 430.447224 
L 400.667506 428.007911 
L 402.521017 426.332107 
L 405.884256 423.010468 
L 406.743704 422.238201 
L 410.966392 418.111073 
L 411.066287 418.013026 
L 415.189079 414.118093 
L 416.279297 413.015583 
L 419.411766 409.836633 
L 421.116764 408.018141 
L 423.634454 405.242408 
L 425.596734 403.020698 
L 427.857141 400.343645 
L 429.812124 398.023255 
L 432.079828 395.218077 
L 433.890546 393.025813 
L 436.302516 390.006432 
L 437.953319 388.02837 
L 440.525203 384.834158 
L 442.07473 383.030927 
L 444.74789 379.732057 
L 446.248633 378.033485 
L 448.970578 374.611308 
L 450.367668 373.036042 
L 453.193265 369.236547 
L 454.21016 368.0386 
L 457.415952 363.051643 
L 457.423826 363.041157 
L 459.135151 358.043714 
L 459.35348 353.046272 
L 460.190654 348.048829 
L 461.63864 344.175364 
L 462.056778 343.051386 
L 464.971233 338.053944 
L 465.861327 336.696411 
L 468.257839 333.056501 
L 470.084014 330.351311 
L 471.669789 328.059058 
L 474.306702 324.176208 
L 475.11026 323.061616 
L 478.488575 318.064173 
L 478.529389 317.995974 
L 481.976872 313.066731 
L 482.752077 311.672356 
L 485.244823 308.069288 
L 486.974764 304.699872 
L 488.099342 303.071845 
L 490.428736 298.074403 
L 491.197451 295.361829 
L 492.113685 293.07696 
L 493.206108 288.079517 
L 494.152343 283.082075 
L 495.420139 278.162892 
L 495.441965 278.084632 
L 497.360447 273.08719 
L 499.237083 268.089747 
L 499.642826 266.908029 
L 501.045126 263.092304 
L 502.308247 258.094862 
L 502.713726 253.097419 
L 501.914866 248.099976 
L 500.721868 243.102534 
L 500.560711 238.105091 
L 501.341067 233.107648 
L 502.216769 228.110206 
L 499.642826 225.568584 
L 495.420139 227.208941 
L 494.088907 228.110206 
L 491.197451 229.902584 
L 486.974764 232.461015 
L 485.943978 233.107648 
L 482.752077 234.730396 
L 478.529389 236.457233 
L 474.306702 237.649648 
L 470.084014 237.555172 
L 465.861327 234.677918 
L 464.430949 233.107648 
L 461.63864 230.250734 
L 457.415952 229.132288 
L 453.193265 229.550004 
L 448.970578 230.485458 
L 444.74789 231.71459 
L 440.87178 233.107648 
L 440.525203 233.206771 
L 436.302516 234.344907 
L 432.079828 235.443297 
L 427.857141 236.461579 
L 423.634454 237.324159 
L 419.411766 238.105091 
L 415.189079 238.661881 
L 410.966392 239.75182 
L 406.743704 241.713774 
L 404.630267 243.102534 
L 402.521017 243.964794 
L 398.298329 246.138336 
L 395.074066 248.099976 
L 394.075642 248.51205 
L 389.852955 250.374912 
L 385.630267 252.4819 
L 384.478485 253.097419 
L 381.40758 254.333814 
L 377.184893 256.375433 
L 374.174204 258.094862 
L 372.962205 258.661444 
L 368.739518 261.004695 
L 365.563357 263.092304 
L 364.516831 263.700144 
L 360.294143 266.434845 
L 358.014153 268.089747 
L 356.071456 269.421477 
L 351.848769 272.605001 
L 351.213558 273.08719 
L 347.626081 275.80153 
L 344.847584 278.084632 
L 343.403394 279.308184 
L 339.217038 283.082075 
L 339.180706 283.116456 
L 334.958019 287.077782 
L 333.947711 288.079517 
L 330.735332 291.467924 
L 329.274448 293.07696 
L 326.512644 296.245494 
L 324.97444 298.074403 
L 322.289957 301.225427 
L 320.775239 303.071845 
L 318.06727 306.085559 
L 316.373426 308.069288 
L 313.844582 310.577568 
L 311.513761 313.066731 
L 309.621895 314.704465 
L 306.111648 318.064173 
L 305.399208 318.614038 
L 301.17652 322.040167 
L 299.96664 323.061616 
L 296.953833 325.166768 
L 293.261623 328.059058 
L 292.731146 328.415122 
L 288.508458 331.032756 
L 285.460842 333.056501 
L 284.285771 333.749828 
L 280.063083 335.908717 
L 276.264836 338.053944 
L 275.840396 338.269917 
L 271.617709 339.797384 
L 267.395021 341.900217 
L 265.813248 343.051386 
L 263.172334 344.646966 
L 260.18755 348.048829 
L 258.949647 349.242472 
L 256.216824 353.046272 
L 254.726959 354.814575 
L 252.584421 358.043714 
L 250.504272 360.755392 
L 249.008529 363.041157 
L 246.281585 366.739875 
L 245.415525 368.0386 
L 242.058897 372.662385 
L 241.801098 373.036042 
L 238.092721 378.033485 
L 237.83621 378.386174 
L 234.331671 383.030927 
L 233.613523 384.063087 
L 230.608535 388.02837 
L 229.390835 389.839859 
L 226.948533 393.025813 
L 225.168148 395.725019 
L 223.379474 398.023255 
L 220.94546 401.707389 
L 219.915949 403.020698 
L 216.722773 407.750207 
L 216.516926 408.018141 
L 212.976663 413.015583 
L 212.500086 413.640949 
L 209.316915 418.013026 
L 208.277398 419.313969 
L 205.628945 423.010468 
L 204.054711 425.055472 
L 202.03751 428.007911 
L 199.832024 431.177855 
L 198.668946 433.005354 
L 195.647584 438.002796 
L 195.609336 438.070652 
L 192.870003 443.000239 
L 191.386649 446.313247 
L 190.596043 447.997682 
L 188.733052 452.995124 
L 187.335315 457.992567 
L 187.163962 458.736224 
L 186.078302 462.990009 
L 184.895343 467.987452 
L 183.56585 472.984895 
L 182.941274 474.899516 
L 181.870338 477.982337 
L 179.917784 482.97978 
L 178.718587 485.841986 
L 177.776489 487.977223 
L 175.639425 492.974665 
L 174.4959 495.786591 
L 173.560805 497.972108 
L 171.627795 502.969551 
L 170.273212 506.75774 
L 169.816695 507.966993 
L 168.200923 512.964436 
L 166.989904 517.961878 
L 166.527405 522.959321 
L 167.549164 527.956764 
L 170.273212 532.112327 
L 171.278776 532.954206 
L 174.4959 534.843043 
L 178.718587 535.423247 
L 182.941274 534.899174 
L 187.163962 533.902535 
L 191.386649 532.983923 
L 195.609336 533.812636 
L 197.415439 537.951649 
L 196.141518 542.949092 
L 195.609336 544.200253 
L 193.771983 547.946534 
L 191.622392 552.943977 
L 191.386649 554.648047 
L 190.763109 557.941419 
L 191.386649 559.000852 
L 195.609336 562.018386 
L 199.832024 562.794402 
L 202.585906 562.938862 
z
M 241.392715 502.969551 
L 237.83621 501.265049 
L 233.613523 499.465404 
L 230.175471 497.972108 
L 229.390835 497.492028 
L 225.690553 492.974665 
L 225.302491 487.977223 
L 225.982463 482.97978 
L 226.851827 477.982337 
L 227.637046 472.984895 
L 228.399396 467.987452 
L 229.384518 462.990009 
L 229.390835 462.964423 
L 230.509829 457.992567 
L 231.732245 452.995124 
L 232.962562 447.997682 
L 233.613523 445.562324 
L 234.210202 443.000239 
L 235.883905 438.002796 
L 237.83621 434.113419 
L 238.291183 433.005354 
L 241.215443 428.007911 
L 242.058897 426.877201 
L 244.514535 423.010468 
L 246.281585 420.68153 
L 248.055005 418.013026 
L 250.504272 414.768625 
L 251.697525 413.015583 
L 254.726959 408.919424 
L 255.343996 408.018141 
L 258.915327 403.020698 
L 258.949647 402.968819 
L 262.120325 398.023255 
L 263.172334 396.311707 
L 265.143277 393.025813 
L 267.395021 389.130573 
L 268.019587 388.02837 
L 270.549535 383.030927 
L 271.617709 380.934136 
L 273.024926 378.033485 
L 275.840396 373.036042 
L 278.862898 368.0386 
L 280.063083 366.45352 
L 282.524389 363.041157 
L 284.285771 360.992344 
L 286.771674 358.043714 
L 288.508458 356.228074 
L 291.580229 353.046272 
L 292.731146 351.946288 
L 296.951306 348.048829 
L 296.953833 348.046584 
L 301.17652 344.315116 
L 302.664215 343.051386 
L 305.399208 340.749814 
L 308.716712 338.053944 
L 309.621895 337.304638 
L 313.844582 333.795193 
L 314.706478 333.056501 
L 318.06727 330.1066 
L 320.366551 328.059058 
L 322.289957 326.286661 
L 325.742647 323.061616 
L 326.512644 322.314052 
L 330.735332 318.184484 
L 330.854787 318.064173 
L 334.958019 313.859037 
L 335.743613 313.066731 
L 339.180706 309.535488 
L 340.668601 308.069288 
L 343.403394 305.305495 
L 345.774969 303.071845 
L 347.626081 301.259285 
L 351.228657 298.074403 
L 351.848769 297.493096 
L 356.071456 293.898298 
L 357.151702 293.07696 
L 360.294143 290.517417 
L 363.858007 288.079517 
L 364.516831 287.583115 
L 368.739518 284.829376 
L 371.975635 283.082075 
L 372.962205 282.485688 
L 377.184893 280.420696 
L 381.40758 278.784681 
L 383.830057 278.084632 
L 385.630267 277.499635 
L 389.852955 276.593093 
L 394.075642 275.889551 
L 398.298329 275.141551 
L 402.521017 274.213017 
L 406.743704 273.09627 
L 406.773969 273.08719 
L 410.966392 271.646206 
L 415.189079 270.201375 
L 419.411766 268.826389 
L 422.086376 268.089747 
L 423.634454 267.605748 
L 427.857141 266.734694 
L 432.079828 266.516929 
L 436.302516 267.237294 
L 438.483233 268.089747 
L 440.525203 268.837825 
L 444.74789 270.643342 
L 448.970578 272.391688 
L 450.492839 273.08719 
L 453.193265 274.639867 
L 456.365301 278.084632 
L 457.415952 281.360307 
L 457.806668 283.082075 
L 457.762306 288.079517 
L 457.415952 290.096888 
L 457.00193 293.07696 
L 455.946912 298.074403 
L 454.736175 303.071845 
L 453.438794 308.069288 
L 453.193265 309.175884 
L 452.449795 313.066731 
L 451.469028 318.064173 
L 450.071901 323.061616 
L 448.970578 325.71588 
L 448.12949 328.059058 
L 445.58308 333.056501 
L 444.74789 334.376506 
L 442.622027 338.053944 
L 440.525203 341.168736 
L 439.337058 343.051386 
L 436.302516 347.397505 
L 435.867424 348.048829 
L 432.355331 353.046272 
L 432.079828 353.44488 
L 428.929889 358.043714 
L 427.857141 359.648866 
L 425.601903 363.041157 
L 423.634454 366.093022 
L 422.384412 368.0386 
L 419.411766 372.751984 
L 419.232528 373.036042 
L 416.197345 378.033485 
L 415.189079 379.644998 
L 413.033059 383.030927 
L 410.966392 386.066478 
L 409.584418 388.02837 
L 406.743704 391.757627 
L 405.72662 393.025813 
L 402.521017 396.737639 
L 401.333947 398.023255 
L 398.298329 401.124573 
L 396.290863 403.020698 
L 394.075642 405.041686 
L 390.517204 408.018141 
L 389.852955 408.571299 
L 385.630267 411.983011 
L 384.271616 413.015583 
L 381.40758 415.267466 
L 377.519015 418.013026 
L 377.184893 418.267799 
L 372.962205 421.500641 
L 370.75855 423.010468 
L 368.739518 424.559381 
L 364.516831 427.511603 
L 363.811781 428.007911 
L 360.294143 430.817209 
L 357.250048 433.005354 
L 356.071456 433.989036 
L 351.848769 437.438439 
L 351.178484 438.002796 
L 347.626081 441.359905 
L 345.837436 443.000239 
L 343.403394 445.457159 
L 340.835681 447.997682 
L 339.180706 449.737814 
L 336.022247 452.995124 
L 334.958019 454.121494 
L 331.191029 457.992567 
L 330.735332 458.464514 
L 326.512644 462.712422 
L 326.221598 462.990009 
L 322.289957 466.851979 
L 321.00785 467.987452 
L 318.06727 470.720413 
L 315.291255 472.984895 
L 313.844582 474.258359 
L 309.621895 477.509613 
L 308.941931 477.982337 
L 305.399208 480.699288 
L 301.874955 482.97978 
L 301.17652 483.489255 
L 296.953833 486.230741 
L 293.884618 487.977223 
L 292.731146 488.714611 
L 288.508458 491.117131 
L 284.863932 492.974665 
L 284.285771 493.302244 
L 280.063083 495.4616 
L 275.840396 497.389226 
L 274.45809 497.972108 
L 271.617709 499.274813 
L 267.395021 501.014139 
L 263.172334 502.540027 
L 261.746263 502.969551 
L 258.949647 503.915755 
L 254.726959 504.91884 
L 250.504272 505.335579 
L 246.281585 504.877435 
L 242.058897 503.302783 
z
" clip-path="url(#p25f8186190)" style="fill: #d9bdaa"/>
   </g>
   <g id="PathCollection_2">
    <path d="M 242.058897 503.302783 
L 246.281585 504.877435 
L 250.504272 505.335579 
L 254.726959 504.91884 
L 258.949647 503.915755 
L 261.746263 502.969551 
L 263.172334 502.540027 
L 267.395021 501.014139 
L 271.617709 499.274813 
L 274.45809 497.972108 
L 275.840396 497.389226 
L 280.063083 495.4616 
L 284.285771 493.302244 
L 284.863932 492.974665 
L 288.508458 491.117131 
L 292.731146 488.714611 
L 293.884618 487.977223 
L 296.953833 486.230741 
L 301.17652 483.489255 
L 301.874955 482.97978 
L 305.399208 480.699288 
L 308.941931 477.982337 
L 309.621895 477.509613 
L 313.844582 474.258359 
L 315.291255 472.984895 
L 318.06727 470.720413 
L 321.00785 467.987452 
L 322.289957 466.851979 
L 326.221598 462.990009 
L 326.512644 462.712422 
L 330.735332 458.464514 
L 331.191029 457.992567 
L 334.958019 454.121494 
L 336.022247 452.995124 
L 339.180706 449.737814 
L 340.835681 447.997682 
L 343.403394 445.457159 
L 345.837436 443.000239 
L 347.626081 441.359905 
L 351.178484 438.002796 
L 351.848769 437.438439 
L 356.071456 433.989036 
L 357.250048 433.005354 
L 360.294143 430.817209 
L 363.811781 428.007911 
L 364.516831 427.511603 
L 368.739518 424.559381 
L 370.75855 423.010468 
L 372.962205 421.500641 
L 377.184893 418.267799 
L 377.519015 418.013026 
L 381.40758 415.267466 
L 384.271616 413.015583 
L 385.630267 411.983011 
L 389.852955 408.571299 
L 390.517204 408.018141 
L 394.075642 405.041686 
L 396.290863 403.020698 
L 398.298329 401.124573 
L 401.333947 398.023255 
L 402.521017 396.737639 
L 405.72662 393.025813 
L 406.743704 391.757627 
L 409.584418 388.02837 
L 410.966392 386.066478 
L 413.033059 383.030927 
L 415.189079 379.644998 
L 416.197345 378.033485 
L 419.232528 373.036042 
L 419.411766 372.751984 
L 422.384412 368.0386 
L 423.634454 366.093022 
L 425.601903 363.041157 
L 427.857141 359.648866 
L 428.929889 358.043714 
L 432.079828 353.44488 
L 432.355331 353.046272 
L 435.867424 348.048829 
L 436.302516 347.397505 
L 439.337058 343.051386 
L 440.525203 341.168736 
L 442.622027 338.053944 
L 444.74789 334.376506 
L 445.58308 333.056501 
L 448.12949 328.059058 
L 448.970578 325.71588 
L 450.071901 323.061616 
L 451.469028 318.064173 
L 452.449795 313.066731 
L 453.193265 309.175884 
L 453.438794 308.069288 
L 454.736175 303.071845 
L 455.946912 298.074403 
L 457.00193 293.07696 
L 457.415952 290.096888 
L 457.762306 288.079517 
L 457.806668 283.082075 
L 457.415952 281.360307 
L 456.365301 278.084632 
L 453.193265 274.639867 
L 450.492839 273.08719 
L 448.970578 272.391688 
L 444.74789 270.643342 
L 440.525203 268.837825 
L 438.483233 268.089747 
L 436.302516 267.237294 
L 432.079828 266.516929 
L 427.857141 266.734694 
L 423.634454 267.605748 
L 422.086376 268.089747 
L 419.411766 268.826389 
L 415.189079 270.201375 
L 410.966392 271.646206 
L 406.773969 273.08719 
L 406.743704 273.09627 
L 402.521017 274.213017 
L 398.298329 275.141551 
L 394.075642 275.889551 
L 389.852955 276.593093 
L 385.630267 277.499635 
L 383.830057 278.084632 
L 381.40758 278.784681 
L 377.184893 280.420696 
L 372.962205 282.485688 
L 371.975635 283.082075 
L 368.739518 284.829376 
L 364.516831 287.583115 
L 363.858007 288.079517 
L 360.294143 290.517417 
L 357.151702 293.07696 
L 356.071456 293.898298 
L 351.848769 297.493096 
L 351.228657 298.074403 
L 347.626081 301.259285 
L 345.774969 303.071845 
L 343.403394 305.305495 
L 340.668601 308.069288 
L 339.180706 309.535488 
L 335.743613 313.066731 
L 334.958019 313.859037 
L 330.854787 318.064173 
L 330.735332 318.184484 
L 326.512644 322.314052 
L 325.742647 323.061616 
L 322.289957 326.286661 
L 320.366551 328.059058 
L 318.06727 330.1066 
L 314.706478 333.056501 
L 313.844582 333.795193 
L 309.621895 337.304638 
L 308.716712 338.053944 
L 305.399208 340.749814 
L 302.664215 343.051386 
L 301.17652 344.315116 
L 296.953833 348.046584 
L 296.951306 348.048829 
L 292.731146 351.946288 
L 291.580229 353.046272 
L 288.508458 356.228074 
L 286.771674 358.043714 
L 284.285771 360.992344 
L 282.524389 363.041157 
L 280.063083 366.45352 
L 278.862898 368.0386 
L 275.840396 373.036042 
L 273.024926 378.033485 
L 271.617709 380.934136 
L 270.549535 383.030927 
L 268.019587 388.02837 
L 267.395021 389.130573 
L 265.143277 393.025813 
L 263.172334 396.311707 
L 262.120325 398.023255 
L 258.949647 402.968819 
L 258.915327 403.020698 
L 255.343996 408.018141 
L 254.726959 408.919424 
L 251.697525 413.015583 
L 250.504272 414.768625 
L 248.055005 418.013026 
L 246.281585 420.68153 
L 244.514535 423.010468 
L 242.058897 426.877201 
L 241.215443 428.007911 
L 238.291183 433.005354 
L 237.83621 434.113419 
L 235.883905 438.002796 
L 234.210202 443.000239 
L 233.613523 445.562324 
L 232.962562 447.997682 
L 231.732245 452.995124 
L 230.509829 457.992567 
L 229.390835 462.964423 
L 229.384518 462.990009 
L 228.399396 467.987452 
L 227.637046 472.984895 
L 226.851827 477.982337 
L 225.982463 482.97978 
L 225.302491 487.977223 
L 225.690553 492.974665 
L 229.390835 497.492028 
L 230.175471 497.972108 
L 233.613523 499.465404 
L 237.83621 501.265049 
L 241.392715 502.969551 
z
M 257.528358 482.97978 
L 254.726959 480.501697 
L 252.918637 477.982337 
L 251.626705 472.984895 
L 251.674658 467.987452 
L 252.079701 462.990009 
L 252.394349 457.992567 
L 252.636785 452.995124 
L 253.085913 447.997682 
L 253.831429 443.000239 
L 254.726959 438.085318 
L 254.74009 438.002796 
L 255.585306 433.005354 
L 256.61806 428.007911 
L 258.14628 423.010468 
L 258.949647 421.270065 
L 260.240728 418.013026 
L 262.88802 413.015583 
L 263.172334 412.577547 
L 265.841155 408.018141 
L 267.395021 405.698347 
L 269.05249 403.020698 
L 271.617709 399.252418 
L 272.408508 398.023255 
L 275.840396 393.025813 
L 279.169261 388.02837 
L 280.063083 386.693922 
L 282.546121 383.030927 
L 284.285771 380.478412 
L 286.00679 378.033485 
L 288.508458 374.513006 
L 289.613271 373.036042 
L 292.731146 368.927635 
L 293.452152 368.0386 
L 296.953833 363.796448 
L 297.625452 363.041157 
L 301.17652 359.117639 
L 302.221764 358.043714 
L 305.399208 354.825168 
L 307.263942 353.046272 
L 309.621895 350.814849 
L 312.658185 348.048829 
L 313.844582 346.968548 
L 318.06727 343.160262 
L 318.188255 343.051386 
L 322.289957 339.234079 
L 323.561091 338.053944 
L 326.512644 335.226972 
L 328.754839 333.056501 
L 330.735332 331.091625 
L 333.756387 328.059058 
L 334.958019 326.834603 
L 338.651438 323.061616 
L 339.180706 322.518306 
L 343.403394 318.247228 
L 343.592515 318.064173 
L 347.626081 314.151947 
L 348.815031 313.066731 
L 351.848769 310.308028 
L 354.523293 308.069288 
L 356.071456 306.775546 
L 360.294143 303.64212 
L 361.219628 303.071845 
L 364.516831 301.015321 
L 368.739518 298.858319 
L 370.855324 298.074403 
L 372.962205 297.264432 
L 377.184893 296.000112 
L 381.40758 294.914212 
L 385.630267 293.885802 
L 388.865452 293.07696 
L 389.852955 292.801579 
L 394.075642 291.609876 
L 398.298329 290.559498 
L 402.521017 289.654189 
L 406.743704 288.889225 
L 410.966392 288.250439 
L 412.403363 288.079517 
L 415.189079 287.681426 
L 419.411766 287.312873 
L 423.634454 287.302105 
L 427.857141 287.754664 
L 429.282019 288.079517 
L 432.079828 288.731445 
L 436.302516 290.715449 
L 438.856293 293.07696 
L 440.525203 296.47121 
L 441.030703 298.074403 
L 441.303132 303.071845 
L 440.643831 308.069288 
L 440.525203 308.509131 
L 439.437613 313.066731 
L 437.849658 318.064173 
L 436.302516 321.91792 
L 435.881034 323.061616 
L 433.781406 328.059058 
L 432.079828 331.433139 
L 431.316184 333.056501 
L 428.628908 338.053944 
L 427.857141 339.324156 
L 425.758127 343.051386 
L 423.634454 346.344506 
L 422.623111 348.048829 
L 419.411766 352.890103 
L 419.317117 353.046272 
L 416.102115 358.043714 
L 415.189079 359.362902 
L 412.825091 363.041157 
L 410.966392 365.714343 
L 409.444498 368.0386 
L 406.743704 371.841669 
L 405.927313 373.036042 
L 402.521017 377.642752 
L 402.235649 378.033485 
L 398.338765 383.030927 
L 398.298329 383.080988 
L 394.192133 388.02837 
L 394.075642 388.16197 
L 389.852955 392.863312 
L 389.700499 393.025813 
L 385.630267 397.294829 
L 384.892595 398.023255 
L 381.40758 401.450986 
L 379.703042 403.020698 
L 377.184893 405.351462 
L 374.096457 408.018141 
L 372.962205 409.01185 
L 368.739518 412.551148 
L 368.178366 413.015583 
L 364.516831 416.126265 
L 362.172531 418.013026 
L 360.294143 419.583122 
L 356.071456 422.959931 
L 356.010844 423.010468 
L 351.848769 426.639311 
L 350.238011 428.007911 
L 347.626081 430.368124 
L 344.623955 433.005354 
L 343.403394 434.164206 
L 339.214063 438.002796 
L 339.180706 438.036146 
L 334.958019 442.192384 
L 334.075485 443.000239 
L 330.735332 446.3588 
L 328.944102 447.997682 
L 326.512644 450.433059 
L 323.648702 452.995124 
L 322.289957 454.310852 
L 318.06727 457.914536 
L 317.960655 457.992567 
L 313.844582 461.288251 
L 311.336533 462.990009 
L 309.621895 464.244773 
L 305.399208 466.868135 
L 303.263926 467.987452 
L 301.17652 469.168109 
L 296.953833 471.271389 
L 293.176672 472.984895 
L 292.731146 473.200329 
L 288.508458 475.215638 
L 284.285771 477.198138 
L 282.606859 477.982337 
L 280.063083 479.233926 
L 275.840396 481.174493 
L 271.617709 482.872793 
L 271.236394 482.97978 
L 267.395021 484.126594 
L 263.172334 484.571885 
L 258.949647 483.74718 
z
" clip-path="url(#p25f8186190)" style="fill: #d6b195"/>
   </g>
   <g id="PathCollection_3">
    <path d="M 258.949647 483.74718 
L 263.172334 484.571885 
L 267.395021 484.126594 
L 271.236394 482.97978 
L 271.617709 482.872793 
L 275.840396 481.174493 
L 280.063083 479.233926 
L 282.606859 477.982337 
L 284.285771 477.198138 
L 288.508458 475.215638 
L 292.731146 473.200329 
L 293.176672 472.984895 
L 296.953833 471.271389 
L 301.17652 469.168109 
L 303.263926 467.987452 
L 305.399208 466.868135 
L 309.621895 464.244773 
L 311.336533 462.990009 
L 313.844582 461.288251 
L 317.960655 457.992567 
L 318.06727 457.914536 
L 322.289957 454.310852 
L 323.648702 452.995124 
L 326.512644 450.433059 
L 328.944102 447.997682 
L 330.735332 446.3588 
L 334.075485 443.000239 
L 334.958019 442.192384 
L 339.180706 438.036146 
L 339.214063 438.002796 
L 343.403394 434.164206 
L 344.623955 433.005354 
L 347.626081 430.368124 
L 350.238011 428.007911 
L 351.848769 426.639311 
L 356.010844 423.010468 
L 356.071456 422.959931 
L 360.294143 419.583122 
L 362.172531 418.013026 
L 364.516831 416.126265 
L 368.178366 413.015583 
L 368.739518 412.551148 
L 372.962205 409.01185 
L 374.096457 408.018141 
L 377.184893 405.351462 
L 379.703042 403.020698 
L 381.40758 401.450986 
L 384.892595 398.023255 
L 385.630267 397.294829 
L 389.700499 393.025813 
L 389.852955 392.863312 
L 394.075642 388.16197 
L 394.192133 388.02837 
L 398.298329 383.080988 
L 398.338765 383.030927 
L 402.235649 378.033485 
L 402.521017 377.642752 
L 405.927313 373.036042 
L 406.743704 371.841669 
L 409.444498 368.0386 
L 410.966392 365.714343 
L 412.825091 363.041157 
L 415.189079 359.362902 
L 416.102115 358.043714 
L 419.317117 353.046272 
L 419.411766 352.890103 
L 422.623111 348.048829 
L 423.634454 346.344506 
L 425.758127 343.051386 
L 427.857141 339.324156 
L 428.628908 338.053944 
L 431.316184 333.056501 
L 432.079828 331.433139 
L 433.781406 328.059058 
L 435.881034 323.061616 
L 436.302516 321.91792 
L 437.849658 318.064173 
L 439.437613 313.066731 
L 440.525203 308.509131 
L 440.643831 308.069288 
L 441.303132 303.071845 
L 441.030703 298.074403 
L 440.525203 296.47121 
L 438.856293 293.07696 
L 436.302516 290.715449 
L 432.079828 288.731445 
L 429.282019 288.079517 
L 427.857141 287.754664 
L 423.634454 287.302105 
L 419.411766 287.312873 
L 415.189079 287.681426 
L 412.403363 288.079517 
L 410.966392 288.250439 
L 406.743704 288.889225 
L 402.521017 289.654189 
L 398.298329 290.559498 
L 394.075642 291.609876 
L 389.852955 292.801579 
L 388.865452 293.07696 
L 385.630267 293.885802 
L 381.40758 294.914212 
L 377.184893 296.000112 
L 372.962205 297.264432 
L 370.855324 298.074403 
L 368.739518 298.858319 
L 364.516831 301.015321 
L 361.219628 303.071845 
L 360.294143 303.64212 
L 356.071456 306.775546 
L 354.523293 308.069288 
L 351.848769 310.308028 
L 348.815031 313.066731 
L 347.626081 314.151947 
L 343.592515 318.064173 
L 343.403394 318.247228 
L 339.180706 322.518306 
L 338.651438 323.061616 
L 334.958019 326.834603 
L 333.756387 328.059058 
L 330.735332 331.091625 
L 328.754839 333.056501 
L 326.512644 335.226972 
L 323.561091 338.053944 
L 322.289957 339.234079 
L 318.188255 343.051386 
L 318.06727 343.160262 
L 313.844582 346.968548 
L 312.658185 348.048829 
L 309.621895 350.814849 
L 307.263942 353.046272 
L 305.399208 354.825168 
L 302.221764 358.043714 
L 301.17652 359.117639 
L 297.625452 363.041157 
L 296.953833 363.796448 
L 293.452152 368.0386 
L 292.731146 368.927635 
L 289.613271 373.036042 
L 288.508458 374.513006 
L 286.00679 378.033485 
L 284.285771 380.478412 
L 282.546121 383.030927 
L 280.063083 386.693922 
L 279.169261 388.02837 
L 275.840396 393.025813 
L 272.408508 398.023255 
L 271.617709 399.252418 
L 269.05249 403.020698 
L 267.395021 405.698347 
L 265.841155 408.018141 
L 263.172334 412.577547 
L 262.88802 413.015583 
L 260.240728 418.013026 
L 258.949647 421.270065 
L 258.14628 423.010468 
L 256.61806 428.007911 
L 255.585306 433.005354 
L 254.74009 438.002796 
L 254.726959 438.085318 
L 253.831429 443.000239 
L 253.085913 447.997682 
L 252.636785 452.995124 
L 252.394349 457.992567 
L 252.079701 462.990009 
L 251.674658 467.987452 
L 251.626705 472.984895 
L 252.918637 477.982337 
L 254.726959 480.501697 
L 257.528358 482.97978 
z
M 271.069187 462.990009 
L 268.504546 457.992567 
L 267.603268 452.995124 
L 267.395021 449.954842 
L 267.273878 447.997682 
L 267.248126 443.000239 
L 267.395021 440.409537 
L 267.514883 438.002796 
L 268.007919 433.005354 
L 268.670432 428.007911 
L 269.521177 423.010468 
L 270.723446 418.013026 
L 271.617709 415.504056 
L 272.415799 413.015583 
L 274.63675 408.018141 
L 275.840396 405.875141 
L 277.308848 403.020698 
L 280.063083 398.497781 
L 280.332832 398.023255 
L 283.577339 393.025813 
L 284.285771 392.015269 
L 287.031074 388.02837 
L 288.508458 386.008936 
L 290.70453 383.030927 
L 292.731146 380.401854 
L 294.620526 378.033485 
L 296.953833 375.186747 
L 298.823581 373.036042 
L 301.17652 370.352147 
L 303.371262 368.0386 
L 305.399208 365.877745 
L 308.315889 363.041157 
L 309.621895 361.733709 
L 313.67014 358.043714 
L 313.844582 357.877422 
L 318.06727 354.026464 
L 319.231742 353.046272 
L 322.289957 350.278359 
L 324.952285 348.048829 
L 326.512644 346.623793 
L 330.696142 343.051386 
L 330.735332 343.014639 
L 334.958019 339.127383 
L 336.227173 338.053944 
L 339.180706 335.262765 
L 341.747029 333.056501 
L 343.403394 331.474033 
L 347.381212 328.059058 
L 347.626081 327.829037 
L 351.848769 324.146323 
L 353.297743 323.061616 
L 356.071456 320.787218 
L 360.068485 318.064173 
L 360.294143 317.89908 
L 364.516831 315.029508 
L 368.091977 313.066731 
L 368.739518 312.685279 
L 372.962205 310.348992 
L 377.184893 308.42098 
L 378.029318 308.069288 
L 381.40758 306.540461 
L 385.630267 304.955656 
L 389.852955 303.666371 
L 392.310361 303.071845 
L 394.075642 302.597968 
L 398.298329 301.71418 
L 402.521017 301.02377 
L 406.743704 300.503577 
L 410.966392 300.189272 
L 415.189079 300.186143 
L 419.411766 300.689372 
L 423.634454 302.084212 
L 425.172202 303.071845 
L 427.857141 306.430582 
L 428.589464 308.069288 
L 429.049829 313.066731 
L 428.286891 318.064173 
L 427.857141 319.367845 
L 426.742333 323.061616 
L 424.714108 328.059058 
L 423.634454 330.218627 
L 422.319453 333.056501 
L 419.639651 338.053944 
L 419.411766 338.44069 
L 416.907651 343.051386 
L 415.189079 345.900936 
L 414.003966 348.048829 
L 410.966392 353.046272 
L 408.029414 358.043714 
L 406.743704 360.011692 
L 404.906474 363.041157 
L 402.521017 366.563241 
L 401.571695 368.0386 
L 398.298329 372.608489 
L 397.999066 373.036042 
L 394.180816 378.033485 
L 394.075642 378.164295 
L 390.072314 383.030927 
L 389.852955 383.286273 
L 385.630267 387.991409 
L 385.595615 388.02837 
L 381.40758 392.451342 
L 380.825312 393.025813 
L 377.184893 396.662272 
L 375.718601 398.023255 
L 372.962205 400.647021 
L 370.286038 403.020698 
L 368.739518 404.432518 
L 364.562685 408.018141 
L 364.516831 408.058594 
L 360.294143 411.787476 
L 358.845637 413.015583 
L 356.071456 415.443386 
L 353.044479 418.013026 
L 351.848769 419.062008 
L 347.626081 422.706434 
L 347.27135 423.010468 
L 343.403394 426.476193 
L 341.62444 428.007911 
L 339.180706 430.234618 
L 335.964788 433.005354 
L 334.958019 433.938889 
L 330.735332 437.579181 
L 330.195188 438.002796 
L 326.512644 441.170795 
L 324.066869 443.000239 
L 322.289957 444.483269 
L 318.06727 447.473131 
L 317.180338 447.997682 
L 313.844582 450.233639 
L 309.621895 452.529032 
L 308.6071 452.995124 
L 305.399208 454.678791 
L 301.17652 456.575615 
L 297.680217 457.992567 
L 296.953833 458.328233 
L 292.731146 460.162576 
L 288.508458 461.843178 
L 285.290715 462.990009 
L 284.285771 463.39601 
L 280.063083 464.585678 
L 275.840396 464.964106 
L 271.617709 463.530154 
z
" clip-path="url(#p25f8186190)" style="fill: #cba588"/>
   </g>
   <g id="PathCollection_4">
    <path d="M 271.617709 463.530154 
L 275.840396 464.964106 
L 280.063083 464.585678 
L 284.285771 463.39601 
L 285.290715 462.990009 
L 288.508458 461.843178 
L 292.731146 460.162576 
L 296.953833 458.328233 
L 297.680217 457.992567 
L 301.17652 456.575615 
L 305.399208 454.678791 
L 308.6071 452.995124 
L 309.621895 452.529032 
L 313.844582 450.233639 
L 317.180338 447.997682 
L 318.06727 447.473131 
L 322.289957 444.483269 
L 324.066869 443.000239 
L 326.512644 441.170795 
L 330.195188 438.002796 
L 330.735332 437.579181 
L 334.958019 433.938889 
L 335.964788 433.005354 
L 339.180706 430.234618 
L 341.62444 428.007911 
L 343.403394 426.476193 
L 347.27135 423.010468 
L 347.626081 422.706434 
L 351.848769 419.062008 
L 353.044479 418.013026 
L 356.071456 415.443386 
L 358.845637 413.015583 
L 360.294143 411.787476 
L 364.516831 408.058594 
L 364.562685 408.018141 
L 368.739518 404.432518 
L 370.286038 403.020698 
L 372.962205 400.647021 
L 375.718601 398.023255 
L 377.184893 396.662272 
L 380.825312 393.025813 
L 381.40758 392.451342 
L 385.595615 388.02837 
L 385.630267 387.991409 
L 389.852955 383.286273 
L 390.072314 383.030927 
L 394.075642 378.164295 
L 394.180816 378.033485 
L 397.999066 373.036042 
L 398.298329 372.608489 
L 401.571695 368.0386 
L 402.521017 366.563241 
L 404.906474 363.041157 
L 406.743704 360.011692 
L 408.029414 358.043714 
L 410.966392 353.046272 
L 414.003966 348.048829 
L 415.189079 345.900936 
L 416.907651 343.051386 
L 419.411766 338.44069 
L 419.639651 338.053944 
L 422.319453 333.056501 
L 423.634454 330.218627 
L 424.714108 328.059058 
L 426.742333 323.061616 
L 427.857141 319.367845 
L 428.286891 318.064173 
L 429.049829 313.066731 
L 428.589464 308.069288 
L 427.857141 306.430582 
L 425.172202 303.071845 
L 423.634454 302.084212 
L 419.411766 300.689372 
L 415.189079 300.186143 
L 410.966392 300.189272 
L 406.743704 300.503577 
L 402.521017 301.02377 
L 398.298329 301.71418 
L 394.075642 302.597968 
L 392.310361 303.071845 
L 389.852955 303.666371 
L 385.630267 304.955656 
L 381.40758 306.540461 
L 378.029318 308.069288 
L 377.184893 308.42098 
L 372.962205 310.348992 
L 368.739518 312.685279 
L 368.091977 313.066731 
L 364.516831 315.029508 
L 360.294143 317.89908 
L 360.068485 318.064173 
L 356.071456 320.787218 
L 353.297743 323.061616 
L 351.848769 324.146323 
L 347.626081 327.829037 
L 347.381212 328.059058 
L 343.403394 331.474033 
L 341.747029 333.056501 
L 339.180706 335.262765 
L 336.227173 338.053944 
L 334.958019 339.127383 
L 330.735332 343.014639 
L 330.696142 343.051386 
L 326.512644 346.623793 
L 324.952285 348.048829 
L 322.289957 350.278359 
L 319.231742 353.046272 
L 318.06727 354.026464 
L 313.844582 357.877422 
L 313.67014 358.043714 
L 309.621895 361.733709 
L 308.315889 363.041157 
L 305.399208 365.877745 
L 303.371262 368.0386 
L 301.17652 370.352147 
L 298.823581 373.036042 
L 296.953833 375.186747 
L 294.620526 378.033485 
L 292.731146 380.401854 
L 290.70453 383.030927 
L 288.508458 386.008936 
L 287.031074 388.02837 
L 284.285771 392.015269 
L 283.577339 393.025813 
L 280.332832 398.023255 
L 280.063083 398.497781 
L 277.308848 403.020698 
L 275.840396 405.875141 
L 274.63675 408.018141 
L 272.415799 413.015583 
L 271.617709 415.504056 
L 270.723446 418.013026 
L 269.521177 423.010468 
L 268.670432 428.007911 
L 268.007919 433.005354 
L 267.514883 438.002796 
L 267.395021 440.409537 
L 267.248126 443.000239 
L 267.273878 447.997682 
L 267.395021 449.954842 
L 267.603268 452.995124 
L 268.504546 457.992567 
L 271.069187 462.990009 
z
M 283.161631 447.997682 
L 280.063083 444.296861 
L 279.513857 443.000239 
L 278.625551 438.002796 
L 278.615495 433.005354 
L 279.104329 428.007911 
L 279.885127 423.010468 
L 280.063083 422.100871 
L 280.813935 418.013026 
L 282.003125 413.015583 
L 283.60142 408.018141 
L 284.285771 406.435008 
L 285.654072 403.020698 
L 288.185341 398.023255 
L 288.508458 397.499582 
L 291.136118 393.025813 
L 292.731146 390.682655 
L 294.489523 388.02837 
L 296.953833 384.746348 
L 298.236978 383.030927 
L 301.17652 379.476832 
L 302.392885 378.033485 
L 305.399208 374.715232 
L 306.980184 373.036042 
L 309.621895 370.345638 
L 312.012593 368.0386 
L 313.844582 366.290416 
L 317.476618 363.041157 
L 318.06727 362.502888 
L 322.289957 358.808079 
L 323.188897 358.043714 
L 326.512644 355.133622 
L 329.035998 353.046272 
L 330.735332 351.558391 
L 334.958019 348.099299 
L 335.019674 348.048829 
L 339.180706 344.410752 
L 340.872204 343.051386 
L 343.403394 340.828996 
L 346.921492 338.053944 
L 347.626081 337.436661 
L 351.848769 334.013951 
L 353.161406 333.056501 
L 356.071456 330.697417 
L 359.865748 328.059058 
L 360.294143 327.727444 
L 364.516831 324.758562 
L 367.34746 323.061616 
L 368.739518 322.140026 
L 372.962205 319.723412 
L 376.410928 318.064173 
L 377.184893 317.656257 
L 381.40758 315.81259 
L 385.630267 314.345821 
L 389.852955 313.192317 
L 390.459465 313.066731 
L 394.075642 312.262992 
L 398.298329 311.621547 
L 402.521017 311.314013 
L 406.743704 311.473152 
L 410.966392 312.394326 
L 412.388502 313.066731 
L 415.189079 315.604712 
L 416.541494 318.064173 
L 416.95023 323.061616 
L 416.003771 328.059058 
L 415.189079 330.289349 
L 414.279847 333.056501 
L 412.137681 338.053944 
L 410.966392 340.356908 
L 409.722705 343.051386 
L 407.135975 348.048829 
L 406.743704 348.734049 
L 404.475103 353.046272 
L 402.521017 356.392272 
L 401.621832 358.043714 
L 398.585404 363.041157 
L 398.298329 363.471374 
L 395.363459 368.0386 
L 394.075642 369.829857 
L 391.794535 373.036042 
L 389.852955 375.515459 
L 387.848729 378.033485 
L 385.630267 380.634163 
L 383.502737 383.030927 
L 381.40758 385.304113 
L 378.747168 388.02837 
L 377.184893 389.617235 
L 373.594709 393.025813 
L 372.962205 393.637097 
L 368.739518 397.506393 
L 368.148284 398.023255 
L 364.516831 401.31453 
L 362.51477 403.020698 
L 360.294143 404.998238 
L 356.719588 408.018141 
L 356.071456 408.590225 
L 351.848769 412.231469 
L 350.906168 413.015583 
L 347.626081 415.885092 
L 345.079403 418.013026 
L 343.403394 419.48322 
L 339.180706 423.010468 
L 334.958019 426.561852 
L 333.089008 428.007911 
L 330.735332 429.946767 
L 326.61021 433.005354 
L 326.512644 433.083239 
L 322.289957 436.093744 
L 319.16962 438.002796 
L 318.06727 438.737317 
L 313.844582 441.147518 
L 309.990326 443.000239 
L 309.621895 443.19537 
L 305.399208 445.100667 
L 301.17652 446.691075 
L 297.044337 447.997682 
L 296.953833 448.029708 
L 292.731146 449.047131 
L 288.508458 449.449032 
L 284.285771 448.695808 
z
" clip-path="url(#p25f8186190)" style="fill: #be987c"/>
   </g>
   <g id="PathCollection_5">
    <path d="M 284.285771 448.695808 
L 288.508458 449.449032 
L 292.731146 449.047131 
L 296.953833 448.029708 
L 297.044337 447.997682 
L 301.17652 446.691075 
L 305.399208 445.100667 
L 309.621895 443.19537 
L 309.990326 443.000239 
L 313.844582 441.147518 
L 318.06727 438.737317 
L 319.16962 438.002796 
L 322.289957 436.093744 
L 326.512644 433.083239 
L 326.61021 433.005354 
L 330.735332 429.946767 
L 333.089008 428.007911 
L 334.958019 426.561852 
L 339.180706 423.010468 
L 343.403394 419.48322 
L 345.079403 418.013026 
L 347.626081 415.885092 
L 350.906168 413.015583 
L 351.848769 412.231469 
L 356.071456 408.590225 
L 356.719588 408.018141 
L 360.294143 404.998238 
L 362.51477 403.020698 
L 364.516831 401.31453 
L 368.148284 398.023255 
L 368.739518 397.506393 
L 372.962205 393.637097 
L 373.594709 393.025813 
L 377.184893 389.617235 
L 378.747168 388.02837 
L 381.40758 385.304113 
L 383.502737 383.030927 
L 385.630267 380.634163 
L 387.848729 378.033485 
L 389.852955 375.515459 
L 391.794535 373.036042 
L 394.075642 369.829857 
L 395.363459 368.0386 
L 398.298329 363.471374 
L 398.585404 363.041157 
L 401.621832 358.043714 
L 402.521017 356.392272 
L 404.475103 353.046272 
L 406.743704 348.734049 
L 407.135975 348.048829 
L 409.722705 343.051386 
L 410.966392 340.356908 
L 412.137681 338.053944 
L 414.279847 333.056501 
L 415.189079 330.289349 
L 416.003771 328.059058 
L 416.95023 323.061616 
L 416.541494 318.064173 
L 415.189079 315.604712 
L 412.388502 313.066731 
L 410.966392 312.394326 
L 406.743704 311.473152 
L 402.521017 311.314013 
L 398.298329 311.621547 
L 394.075642 312.262992 
L 390.459465 313.066731 
L 389.852955 313.192317 
L 385.630267 314.345821 
L 381.40758 315.81259 
L 377.184893 317.656257 
L 376.410928 318.064173 
L 372.962205 319.723412 
L 368.739518 322.140026 
L 367.34746 323.061616 
L 364.516831 324.758562 
L 360.294143 327.727444 
L 359.865748 328.059058 
L 356.071456 330.697417 
L 353.161406 333.056501 
L 351.848769 334.013951 
L 347.626081 337.436661 
L 346.921492 338.053944 
L 343.403394 340.828996 
L 340.872204 343.051386 
L 339.180706 344.410752 
L 335.019674 348.048829 
L 334.958019 348.099299 
L 330.735332 351.558391 
L 329.035998 353.046272 
L 326.512644 355.133622 
L 323.188897 358.043714 
L 322.289957 358.808079 
L 318.06727 362.502888 
L 317.476618 363.041157 
L 313.844582 366.290416 
L 312.012593 368.0386 
L 309.621895 370.345638 
L 306.980184 373.036042 
L 305.399208 374.715232 
L 302.392885 378.033485 
L 301.17652 379.476832 
L 298.236978 383.030927 
L 296.953833 384.746348 
L 294.489523 388.02837 
L 292.731146 390.682655 
L 291.136118 393.025813 
L 288.508458 397.499582 
L 288.185341 398.023255 
L 285.654072 403.020698 
L 284.285771 406.435008 
L 283.60142 408.018141 
L 282.003125 413.015583 
L 280.813935 418.013026 
L 280.063083 422.100871 
L 279.885127 423.010468 
L 279.104329 428.007911 
L 278.615495 433.005354 
L 278.625551 438.002796 
L 279.513857 443.000239 
L 280.063083 444.296861 
L 283.161631 447.997682 
z
M 295.657377 438.002796 
L 292.731146 437.151504 
L 289.241765 433.005354 
L 288.508458 428.70842 
L 288.428274 428.007911 
L 288.508458 426.972317 
L 288.794362 423.010468 
L 289.629106 418.013026 
L 290.730511 413.015583 
L 292.103761 408.018141 
L 292.731146 406.214284 
L 293.779725 403.020698 
L 295.906859 398.023255 
L 296.953833 396.088137 
L 298.531843 393.025813 
L 301.17652 388.87406 
L 301.695984 388.02837 
L 305.399208 383.030927 
L 309.621895 378.041835 
L 309.628869 378.033485 
L 313.844582 373.568315 
L 314.345062 373.036042 
L 318.06727 369.40766 
L 319.47819 368.0386 
L 322.289957 365.450203 
L 324.945073 363.041157 
L 326.512644 361.647127 
L 330.67599 358.043714 
L 330.735332 357.991807 
L 334.958019 354.297787 
L 336.444085 353.046272 
L 339.180706 350.682656 
L 342.427768 348.048829 
L 343.403394 347.214683 
L 347.626081 343.826488 
L 348.663986 343.051386 
L 351.848769 340.504204 
L 355.290277 338.053944 
L 356.071456 337.446711 
L 360.294143 334.503787 
L 362.662866 333.056501 
L 364.516831 331.810209 
L 368.739518 329.376778 
L 371.422632 328.059058 
L 372.962205 327.227802 
L 377.184893 325.366535 
L 381.40758 323.862291 
L 384.304073 323.061616 
L 385.630267 322.667452 
L 389.852955 321.833745 
L 394.075642 321.462043 
L 398.298329 321.756477 
L 402.142063 323.061616 
L 402.521017 323.293948 
L 405.689742 328.059058 
L 405.893886 333.056501 
L 404.847908 338.053944 
L 403.190288 343.051386 
L 402.521017 344.560427 
L 401.111278 348.048829 
L 398.762285 353.046272 
L 398.298329 353.89324 
L 396.158323 358.043714 
L 394.075642 361.585101 
L 393.250954 363.041157 
L 390.009333 368.0386 
L 389.852955 368.254646 
L 386.390799 373.036042 
L 385.630267 373.985297 
L 382.31055 378.033485 
L 381.40758 379.056703 
L 377.749029 383.030927 
L 377.184893 383.61931 
L 372.962205 387.802639 
L 372.725532 388.02837 
L 368.739518 391.773941 
L 367.332008 393.025813 
L 364.516831 395.564626 
L 361.629622 398.023255 
L 360.294143 399.201226 
L 356.071456 402.740515 
L 355.727009 403.020698 
L 351.848769 406.325631 
L 349.751053 408.018141 
L 347.626081 409.831252 
L 343.67237 413.015583 
L 343.403394 413.245293 
L 339.180706 416.692887 
L 337.439022 418.013026 
L 334.958019 420.016959 
L 330.905039 423.010468 
L 330.735332 423.143941 
L 326.512644 426.177372 
L 323.631342 428.007911 
L 322.289957 428.916261 
L 318.06727 431.402722 
L 314.892631 433.005354 
L 313.844582 433.570091 
L 309.621895 435.423119 
L 305.399208 436.881232 
L 301.17652 437.909758 
L 299.898251 438.002796 
L 296.953833 438.232834 
z
" clip-path="url(#p25f8186190)" style="fill: #af8c71"/>
   </g>
   <g id="PathCollection_6">
    <path d="M 296.953833 438.232834 
L 299.898251 438.002796 
L 301.17652 437.909758 
L 305.399208 436.881232 
L 309.621895 435.423119 
L 313.844582 433.570091 
L 314.892631 433.005354 
L 318.06727 431.402722 
L 322.289957 428.916261 
L 323.631342 428.007911 
L 326.512644 426.177372 
L 330.735332 423.143941 
L 330.905039 423.010468 
L 334.958019 420.016959 
L 337.439022 418.013026 
L 339.180706 416.692887 
L 343.403394 413.245293 
L 343.67237 413.015583 
L 347.626081 409.831252 
L 349.751053 408.018141 
L 351.848769 406.325631 
L 355.727009 403.020698 
L 356.071456 402.740515 
L 360.294143 399.201226 
L 361.629622 398.023255 
L 364.516831 395.564626 
L 367.332008 393.025813 
L 368.739518 391.773941 
L 372.725532 388.02837 
L 372.962205 387.802639 
L 377.184893 383.61931 
L 377.749029 383.030927 
L 381.40758 379.056703 
L 382.31055 378.033485 
L 385.630267 373.985297 
L 386.390799 373.036042 
L 389.852955 368.254646 
L 390.009333 368.0386 
L 393.250954 363.041157 
L 394.075642 361.585101 
L 396.158323 358.043714 
L 398.298329 353.89324 
L 398.762285 353.046272 
L 401.111278 348.048829 
L 402.521017 344.560427 
L 403.190288 343.051386 
L 404.847908 338.053944 
L 405.893886 333.056501 
L 405.689742 328.059058 
L 402.521017 323.293948 
L 402.142063 323.061616 
L 398.298329 321.756477 
L 394.075642 321.462043 
L 389.852955 321.833745 
L 385.630267 322.667452 
L 384.304073 323.061616 
L 381.40758 323.862291 
L 377.184893 325.366535 
L 372.962205 327.227802 
L 371.422632 328.059058 
L 368.739518 329.376778 
L 364.516831 331.810209 
L 362.662866 333.056501 
L 360.294143 334.503787 
L 356.071456 337.446711 
L 355.290277 338.053944 
L 351.848769 340.504204 
L 348.663986 343.051386 
L 347.626081 343.826488 
L 343.403394 347.214683 
L 342.427768 348.048829 
L 339.180706 350.682656 
L 336.444085 353.046272 
L 334.958019 354.297787 
L 330.735332 357.991807 
L 330.67599 358.043714 
L 326.512644 361.647127 
L 324.945073 363.041157 
L 322.289957 365.450203 
L 319.47819 368.0386 
L 318.06727 369.40766 
L 314.345062 373.036042 
L 313.844582 373.568315 
L 309.628869 378.033485 
L 309.621895 378.041835 
L 305.399208 383.030927 
L 301.695984 388.02837 
L 301.17652 388.87406 
L 298.531843 393.025813 
L 296.953833 396.088137 
L 295.906859 398.023255 
L 293.779725 403.020698 
L 292.731146 406.214284 
L 292.103761 408.018141 
L 290.730511 413.015583 
L 289.629106 418.013026 
L 288.794362 423.010468 
L 288.508458 426.972317 
L 288.428274 428.007911 
L 288.508458 428.70842 
L 289.241765 433.005354 
L 292.731146 437.151504 
L 295.657377 438.002796 
z
M 299.378299 423.010468 
L 298.791794 418.013026 
L 299.400694 413.015583 
L 300.550347 408.018141 
L 301.17652 406.014424 
L 302.072359 403.020698 
L 303.963243 398.023255 
L 305.399208 395.067466 
L 306.346339 393.025813 
L 309.290894 388.02837 
L 309.621895 387.571962 
L 312.802169 383.030927 
L 313.844582 381.783364 
L 316.890333 378.033485 
L 318.06727 376.77421 
L 321.488316 373.036042 
L 322.289957 372.246361 
L 326.512644 368.0386 
L 330.735332 364.056621 
L 331.812849 363.041157 
L 334.958019 360.211299 
L 337.419626 358.043714 
L 339.180706 356.515521 
L 343.363995 353.046272 
L 343.403394 353.013083 
L 347.626081 349.637912 
L 349.78219 348.048829 
L 351.848769 346.467683 
L 356.071456 343.561763 
L 356.906282 343.051386 
L 360.294143 340.858881 
L 364.516831 338.482768 
L 365.424059 338.053944 
L 368.739518 336.375197 
L 372.962205 334.628554 
L 377.184893 333.219971 
L 377.914816 333.056501 
L 381.40758 332.230511 
L 385.630267 331.802234 
L 389.852955 332.237748 
L 391.749326 333.056501 
L 394.075642 335.213245 
L 395.36247 338.053944 
L 395.460801 343.051386 
L 394.41948 348.048829 
L 394.075642 348.957228 
L 392.627116 353.046272 
L 390.396197 358.043714 
L 389.852955 359.018209 
L 387.671924 363.041157 
L 385.630267 366.246053 
L 384.495909 368.0386 
L 381.40758 372.239327 
L 380.815805 373.036042 
L 377.184893 377.342988 
L 376.58963 378.033485 
L 372.962205 381.858338 
L 371.815748 383.030927 
L 368.739518 385.991759 
L 366.545294 388.02837 
L 364.516831 389.861819 
L 360.868309 393.025813 
L 360.294143 393.525841 
L 356.071456 397.061401 
L 354.888229 398.023255 
L 351.848769 400.536958 
L 348.709765 403.020698 
L 347.626081 403.912774 
L 343.403394 407.212449 
L 342.319152 408.018141 
L 339.180706 410.461719 
L 335.657083 413.015583 
L 334.958019 413.552935 
L 330.735332 416.513443 
L 328.381865 418.013026 
L 326.512644 419.2738 
L 322.289957 421.753471 
L 319.808771 423.010468 
L 318.06727 423.937731 
L 313.844582 425.666269 
L 309.621895 426.875886 
L 305.399208 427.256557 
L 301.17652 425.603708 
z
" clip-path="url(#p25f8186190)" style="fill: #9e7f67"/>
   </g>
   <g id="PathCollection_7">
    <path d="M 301.17652 425.603708 
L 305.399208 427.256557 
L 309.621895 426.875886 
L 313.844582 425.666269 
L 318.06727 423.937731 
L 319.808771 423.010468 
L 322.289957 421.753471 
L 326.512644 419.2738 
L 328.381865 418.013026 
L 330.735332 416.513443 
L 334.958019 413.552935 
L 335.657083 413.015583 
L 339.180706 410.461719 
L 342.319152 408.018141 
L 343.403394 407.212449 
L 347.626081 403.912774 
L 348.709765 403.020698 
L 351.848769 400.536958 
L 354.888229 398.023255 
L 356.071456 397.061401 
L 360.294143 393.525841 
L 360.868309 393.025813 
L 364.516831 389.861819 
L 366.545294 388.02837 
L 368.739518 385.991759 
L 371.815748 383.030927 
L 372.962205 381.858338 
L 376.58963 378.033485 
L 377.184893 377.342988 
L 380.815805 373.036042 
L 381.40758 372.239327 
L 384.495909 368.0386 
L 385.630267 366.246053 
L 387.671924 363.041157 
L 389.852955 359.018209 
L 390.396197 358.043714 
L 392.627116 353.046272 
L 394.075642 348.957228 
L 394.41948 348.048829 
L 395.460801 343.051386 
L 395.36247 338.053944 
L 394.075642 335.213245 
L 391.749326 333.056501 
L 389.852955 332.237748 
L 385.630267 331.802234 
L 381.40758 332.230511 
L 377.914816 333.056501 
L 377.184893 333.219971 
L 372.962205 334.628554 
L 368.739518 336.375197 
L 365.424059 338.053944 
L 364.516831 338.482768 
L 360.294143 340.858881 
L 356.906282 343.051386 
L 356.071456 343.561763 
L 351.848769 346.467683 
L 349.78219 348.048829 
L 347.626081 349.637912 
L 343.403394 353.013083 
L 343.363995 353.046272 
L 339.180706 356.515521 
L 337.419626 358.043714 
L 334.958019 360.211299 
L 331.812849 363.041157 
L 330.735332 364.056621 
L 326.512644 368.0386 
L 322.289957 372.246361 
L 321.488316 373.036042 
L 318.06727 376.77421 
L 316.890333 378.033485 
L 313.844582 381.783364 
L 312.802169 383.030927 
L 309.621895 387.571962 
L 309.290894 388.02837 
L 306.346339 393.025813 
L 305.399208 395.067466 
L 303.963243 398.023255 
L 302.072359 403.020698 
L 301.17652 406.014424 
L 300.550347 408.018141 
L 299.400694 413.015583 
L 298.791794 418.013026 
L 299.378299 423.010468 
z
M 310.488514 413.015583 
L 309.621895 408.018141 
L 310.513143 403.020698 
L 312.029308 398.023255 
L 313.844582 393.664982 
L 314.10346 393.025813 
L 316.777999 388.02837 
L 318.06727 386.108047 
L 320.057456 383.030927 
L 322.289957 380.182301 
L 323.918084 378.033485 
L 326.512644 375.111325 
L 328.308568 373.036042 
L 330.735332 370.558275 
L 333.174016 368.0386 
L 334.958019 366.353233 
L 338.490136 363.041157 
L 339.180706 362.429028 
L 343.403394 358.830373 
L 344.37239 358.043714 
L 347.626081 355.49696 
L 350.975411 353.046272 
L 351.848769 352.409 
L 356.071456 349.708754 
L 358.977421 348.048829 
L 360.294143 347.285601 
L 364.516831 345.312425 
L 368.739518 343.684693 
L 371.085843 343.051386 
L 372.962205 342.543475 
L 377.184893 342.098228 
L 381.40758 342.690353 
L 382.109546 343.051386 
L 385.528565 348.048829 
L 385.241297 353.046272 
L 383.689562 358.043714 
L 381.458009 363.041157 
L 381.40758 363.123089 
L 378.390818 368.0386 
L 377.184893 369.677373 
L 374.695369 373.036042 
L 372.962205 375.044437 
L 370.35138 378.033485 
L 368.739518 379.674871 
L 365.395616 383.030927 
L 364.516831 383.84481 
L 360.294143 387.665515 
L 359.889378 388.02837 
L 356.071456 391.225276 
L 353.910986 393.025813 
L 351.848769 394.69003 
L 347.639732 398.023255 
L 347.626081 398.034065 
L 343.403394 401.170905 
L 340.843763 403.020698 
L 339.180706 404.233328 
L 334.958019 407.078044 
L 333.436898 408.018141 
L 330.735332 409.710665 
L 326.512644 412.044799 
L 324.389528 413.015583 
L 322.289957 413.985833 
L 318.06727 415.21122 
L 313.844582 415.313221 
z
" clip-path="url(#p25f8186190)" style="fill: #8c715d"/>
   </g>
   <g id="PathCollection_8">
    <path d="M 313.844582 415.313221 
L 318.06727 415.21122 
L 322.289957 413.985833 
L 324.389528 413.015583 
L 326.512644 412.044799 
L 330.735332 409.710665 
L 333.436898 408.018141 
L 334.958019 407.078044 
L 339.180706 404.233328 
L 340.843763 403.020698 
L 343.403394 401.170905 
L 347.626081 398.034065 
L 347.639732 398.023255 
L 351.848769 394.69003 
L 353.910986 393.025813 
L 356.071456 391.225276 
L 359.889378 388.02837 
L 360.294143 387.665515 
L 364.516831 383.84481 
L 365.395616 383.030927 
L 368.739518 379.674871 
L 370.35138 378.033485 
L 372.962205 375.044437 
L 374.695369 373.036042 
L 377.184893 369.677373 
L 378.390818 368.0386 
L 381.40758 363.123089 
L 381.458009 363.041157 
L 383.689562 358.043714 
L 385.241297 353.046272 
L 385.528565 348.048829 
L 382.109546 343.051386 
L 381.40758 342.690353 
L 377.184893 342.098228 
L 372.962205 342.543475 
L 371.085843 343.051386 
L 368.739518 343.684693 
L 364.516831 345.312425 
L 360.294143 347.285601 
L 358.977421 348.048829 
L 356.071456 349.708754 
L 351.848769 352.409 
L 350.975411 353.046272 
L 347.626081 355.49696 
L 344.37239 358.043714 
L 343.403394 358.830373 
L 339.180706 362.429028 
L 338.490136 363.041157 
L 334.958019 366.353233 
L 333.174016 368.0386 
L 330.735332 370.558275 
L 328.308568 373.036042 
L 326.512644 375.111325 
L 323.918084 378.033485 
L 322.289957 380.182301 
L 320.057456 383.030927 
L 318.06727 386.108047 
L 316.777999 388.02837 
L 314.10346 393.025813 
L 313.844582 393.664982 
L 312.029308 398.023255 
L 310.513143 403.020698 
L 309.621895 408.018141 
L 310.488514 413.015583 
z
M 321.615163 398.023255 
L 322.289957 393.913991 
L 322.43558 393.025813 
L 324.574766 388.02837 
L 326.512644 384.618071 
L 327.40064 383.030927 
L 330.735332 378.318481 
L 330.934305 378.033485 
L 334.958019 373.318731 
L 335.197806 373.036042 
L 339.180706 369.059121 
L 340.210561 368.0386 
L 343.403394 365.263315 
L 346.029456 363.041157 
L 347.626081 361.812674 
L 351.848769 358.856529 
L 353.181304 358.043714 
L 356.071456 356.437292 
L 360.294143 354.523005 
L 364.516831 353.046272 
L 368.739518 352.685897 
L 370.45519 353.046272 
L 372.962205 354.600467 
L 374.37842 358.043714 
L 373.518218 363.041157 
L 372.962205 364.139747 
L 371.007594 368.0386 
L 368.739518 371.301409 
L 367.55272 373.036042 
L 364.516831 376.4872 
L 363.188969 378.033485 
L 360.294143 380.81697 
L 358.055161 383.030927 
L 356.071456 384.734396 
L 352.326598 388.02837 
L 351.848769 388.409923 
L 347.626081 391.601945 
L 345.742883 393.025813 
L 343.403394 394.651157 
L 339.180706 397.485892 
L 338.251111 398.023255 
L 334.958019 399.790998 
L 330.735332 401.68266 
L 326.512644 402.890889 
L 322.289957 400.434728 
z
" clip-path="url(#p25f8186190)" style="fill: #796455"/>
   </g>
   <g id="PathCollection_9">
    <path d="M 322.289957 400.434728 
L 326.512644 402.890889 
L 330.735332 401.68266 
L 334.958019 399.790998 
L 338.251111 398.023255 
L 339.180706 397.485892 
L 343.403394 394.651157 
L 345.742883 393.025813 
L 347.626081 391.601945 
L 351.848769 388.409923 
L 352.326598 388.02837 
L 356.071456 384.734396 
L 358.055161 383.030927 
L 360.294143 380.81697 
L 363.188969 378.033485 
L 364.516831 376.4872 
L 367.55272 373.036042 
L 368.739518 371.301409 
L 371.007594 368.0386 
L 372.962205 364.139747 
L 373.518218 363.041157 
L 374.37842 358.043714 
L 372.962205 354.600467 
L 370.45519 353.046272 
L 368.739518 352.685897 
L 364.516831 353.046272 
L 360.294143 354.523005 
L 356.071456 356.437292 
L 353.181304 358.043714 
L 351.848769 358.856529 
L 347.626081 361.812674 
L 346.029456 363.041157 
L 343.403394 365.263315 
L 340.210561 368.0386 
L 339.180706 369.059121 
L 335.197806 373.036042 
L 334.958019 373.318731 
L 330.934305 378.033485 
L 330.735332 378.318481 
L 327.40064 383.030927 
L 326.512644 384.618071 
L 324.574766 388.02837 
L 322.43558 393.025813 
L 322.289957 393.913991 
L 321.615163 398.023255 
z
" clip-path="url(#p25f8186190)" style="fill: #66574c"/>
   </g>
   <g id="patch_3">
    <path d="M 93.545 631.58 
L 93.545 129.747429 
" style="fill: none; stroke: #ffffff; stroke-width: 2.5; stroke-linejoin: miter; stroke-linecap: square"/>
   </g>
   <g id="patch_4">
    <path d="M 93.545 631.58 
L 591.131143 631.58 
" style="fill: none; stroke: #ffffff; stroke-width: 2.5; stroke-linejoin: miter; stroke-linecap: square"/>
   </g>
  </g>
  <g id="axes_2">
   <g id="patch_5">
    <path d="M 93.545 112.442857 
L 591.131143 112.442857 
L 591.131143 25.92 
L 93.545 25.92 
z
" style="fill: #e5e5e5"/>
   </g>
   <g id="matplotlib.axis_3">
    <g id="xtick_6">
     <g id="line2d_15">
      <path d="M 93.545 112.442857 
L 93.545 25.92 
" clip-path="url(#p40036228e0)" style="fill: none; stroke: #ffffff; stroke-width: 2; stroke-linecap: round"/>
     </g>
    </g>
    <g id="xtick_7">
     <g id="line2d_16">
      <path d="M 217.941536 112.442857 
L 217.941536 25.92 
" clip-path="url(#p40036228e0)" style="fill: none; stroke: #ffffff; stroke-width: 2; stroke-linecap: round"/>
     </g>
    </g>
    <g id="xtick_8">
     <g id="line2d_17">
      <path d="M 342.338071 112.442857 
L 342.338071 25.92 
" clip-path="url(#p40036228e0)" style="fill: none; stroke: #ffffff; stroke-width: 2; stroke-linecap: round"/>
     </g>
    </g>
    <g id="xtick_9">
     <g id="line2d_18">
      <path d="M 466.734607 112.442857 
L 466.734607 25.92 
" clip-path="url(#p40036228e0)" style="fill: none; stroke: #ffffff; stroke-width: 2; stroke-linecap: round"/>
     </g>
    </g>
    <g id="xtick_10">
     <g id="line2d_19">
      <path d="M 591.131143 112.442857 
L 591.131143 25.92 
" clip-path="url(#p40036228e0)" style="fill: none; stroke: #ffffff; stroke-width: 2; stroke-linecap: round"/>
     </g>
    </g>
   </g>
   <g id="matplotlib.axis_4">
    <g id="ytick_10"/>
    <g id="ytick_11"/>
   </g>
   <g id="PolyCollection_1">
    <path d="M -75.514266 112.440891 
L -75.514266 112.442857 
L -71.410136 112.442857 
L -67.306006 112.442857 
L -63.201876 112.442857 
L -59.097746 112.442857 
L -54.993616 112.442857 
L -50.889486 112.442857 
L -46.785356 112.442857 
L -42.681226 112.442857 
L -38.577096 112.442857 
L -34.472965 112.442857 
L -30.368835 112.442857 
L -26.264705 112.442857 
L -22.160575 112.442857 
L -18.056445 112.442857 
L -13.952315 112.442857 
L -9.848185 112.442857 
L -5.744055 112.442857 
L -1.639925 112.442857 
L 2.464205 112.442857 
L 6.568335 112.442857 
L 10.672465 112.442857 
L 14.776595 112.442857 
L 18.880725 112.442857 
L 22.984855 112.442857 
L 27.088986 112.442857 
L 31.193116 112.442857 
L 35.297246 112.442857 
L 39.401376 112.442857 
L 43.505506 112.442857 
L 47.609636 112.442857 
L 51.713766 112.442857 
L 55.817896 112.442857 
L 59.922026 112.442857 
L 64.026156 112.442857 
L 68.130286 112.442857 
L 72.234416 112.442857 
L 76.338546 112.442857 
L 80.442676 112.442857 
L 84.546806 112.442857 
L 88.650937 112.442857 
L 92.755067 112.442857 
L 96.859197 112.442857 
L 100.963327 112.442857 
L 105.067457 112.442857 
L 109.171587 112.442857 
L 113.275717 112.442857 
L 117.379847 112.442857 
L 121.483977 112.442857 
L 125.588107 112.442857 
L 129.692237 112.442857 
L 133.796367 112.442857 
L 137.900497 112.442857 
L 142.004627 112.442857 
L 146.108757 112.442857 
L 150.212888 112.442857 
L 154.317018 112.442857 
L 158.421148 112.442857 
L 162.525278 112.442857 
L 166.629408 112.442857 
L 170.733538 112.442857 
L 174.837668 112.442857 
L 178.941798 112.442857 
L 183.045928 112.442857 
L 187.150058 112.442857 
L 191.254188 112.442857 
L 195.358318 112.442857 
L 199.462448 112.442857 
L 203.566578 112.442857 
L 207.670708 112.442857 
L 211.774838 112.442857 
L 215.878969 112.442857 
L 219.983099 112.442857 
L 224.087229 112.442857 
L 228.191359 112.442857 
L 232.295489 112.442857 
L 236.399619 112.442857 
L 240.503749 112.442857 
L 244.607879 112.442857 
L 248.712009 112.442857 
L 252.816139 112.442857 
L 256.920269 112.442857 
L 261.024399 112.442857 
L 265.128529 112.442857 
L 269.232659 112.442857 
L 273.336789 112.442857 
L 277.44092 112.442857 
L 281.54505 112.442857 
L 285.64918 112.442857 
L 289.75331 112.442857 
L 293.85744 112.442857 
L 297.96157 112.442857 
L 302.0657 112.442857 
L 306.16983 112.442857 
L 310.27396 112.442857 
L 314.37809 112.442857 
L 318.48222 112.442857 
L 322.58635 112.442857 
L 326.69048 112.442857 
L 330.79461 112.442857 
L 334.89874 112.442857 
L 339.002871 112.442857 
L 343.107001 112.442857 
L 347.211131 112.442857 
L 351.315261 112.442857 
L 355.419391 112.442857 
L 359.523521 112.442857 
L 363.627651 112.442857 
L 367.731781 112.442857 
L 371.835911 112.442857 
L 375.940041 112.442857 
L 380.044171 112.442857 
L 384.148301 112.442857 
L 388.252431 112.442857 
L 392.356561 112.442857 
L 396.460691 112.442857 
L 400.564822 112.442857 
L 404.668952 112.442857 
L 408.773082 112.442857 
L 412.877212 112.442857 
L 416.981342 112.442857 
L 421.085472 112.442857 
L 425.189602 112.442857 
L 429.293732 112.442857 
L 433.397862 112.442857 
L 437.501992 112.442857 
L 441.606122 112.442857 
L 445.710252 112.442857 
L 449.814382 112.442857 
L 453.918512 112.442857 
L 458.022642 112.442857 
L 462.126772 112.442857 
L 466.230903 112.442857 
L 470.335033 112.442857 
L 474.439163 112.442857 
L 478.543293 112.442857 
L 482.647423 112.442857 
L 486.751553 112.442857 
L 490.855683 112.442857 
L 494.959813 112.442857 
L 499.063943 112.442857 
L 503.168073 112.442857 
L 507.272203 112.442857 
L 511.376333 112.442857 
L 515.480463 112.442857 
L 519.584593 112.442857 
L 523.688723 112.442857 
L 527.792854 112.442857 
L 531.896984 112.442857 
L 536.001114 112.442857 
L 540.105244 112.442857 
L 544.209374 112.442857 
L 548.313504 112.442857 
L 552.417634 112.442857 
L 556.521764 112.442857 
L 560.625894 112.442857 
L 564.730024 112.442857 
L 568.834154 112.442857 
L 572.938284 112.442857 
L 577.042414 112.442857 
L 581.146544 112.442857 
L 585.250674 112.442857 
L 589.354805 112.442857 
L 593.458935 112.442857 
L 597.563065 112.442857 
L 601.667195 112.442857 
L 605.771325 112.442857 
L 609.875455 112.442857 
L 613.979585 112.442857 
L 618.083715 112.442857 
L 622.187845 112.442857 
L 626.291975 112.442857 
L 630.396105 112.442857 
L 634.500235 112.442857 
L 638.604365 112.442857 
L 642.708495 112.442857 
L 646.812625 112.442857 
L 650.916756 112.442857 
L 655.020886 112.442857 
L 659.125016 112.442857 
L 663.229146 112.442857 
L 667.333276 112.442857 
L 671.437406 112.442857 
L 675.541536 112.442857 
L 679.645666 112.442857 
L 683.749796 112.442857 
L 687.853926 112.442857 
L 691.958056 112.442857 
L 696.062186 112.442857 
L 700.166316 112.442857 
L 704.270446 112.442857 
L 708.374576 112.442857 
L 712.478706 112.442857 
L 716.582837 112.442857 
L 720.686967 112.442857 
L 724.791097 112.442857 
L 728.895227 112.442857 
L 732.999357 112.442857 
L 737.103487 112.442857 
L 741.207617 112.442857 
L 741.207617 112.440892 
L 741.207617 112.440892 
L 737.103487 112.438259 
L 732.999357 112.433014 
L 728.895227 112.42358 
L 724.791097 112.408313 
L 720.686967 112.386217 
L 716.582837 112.357879 
L 712.478706 112.326184 
L 708.374576 112.296218 
L 704.270446 112.274025 
L 700.166316 112.264469 
L 696.062186 112.269113 
L 691.958056 112.285198 
L 687.853926 112.306304 
L 683.749796 112.324446 
L 679.645666 112.332697 
L 675.541536 112.327309 
L 671.437406 112.308642 
L 667.333276 112.280685 
L 663.229146 112.249431 
L 659.125016 112.220775 
L 655.020886 112.198861 
L 650.916756 112.185591 
L 646.812625 112.181349 
L 642.708495 112.186162 
L 638.604365 112.200279 
L 634.500235 112.223696 
L 630.396105 112.25511 
L 626.291975 112.291237 
L 622.187845 112.327149 
L 618.083715 112.357428 
L 613.979585 112.37745 
L 609.875455 112.384213 
L 605.771325 112.376637 
L 601.667195 112.355601 
L 597.563065 112.323897 
L 593.458935 112.285953 
L 589.354805 112.247058 
L 585.250674 112.212102 
L 581.146544 112.184279 
L 577.042414 112.164292 
L 572.938284 112.150214 
L 568.834154 112.137698 
L 564.730024 112.120206 
L 560.625894 112.089439 
L 556.521764 112.036626 
L 552.417634 111.954943 
L 548.313504 111.842296 
L 544.209374 111.702877 
L 540.105244 111.546198 
L 536.001114 111.383766 
L 531.896984 111.225043 
L 527.792854 111.074693 
L 523.688723 110.932231 
L 519.584593 110.793757 
L 515.480463 110.654524 
L 511.376333 110.511027 
L 507.272203 110.361687 
L 503.168073 110.205794 
L 499.063943 110.040943 
L 494.959813 109.859952 
L 490.855683 109.64887 
L 486.751553 109.387592 
L 482.647423 109.053488 
L 478.543293 108.626634 
L 474.439163 108.093869 
L 470.335033 107.448738 
L 466.230903 106.685728 
L 462.126772 105.789935 
L 458.022642 104.726802 
L 453.918512 103.439502 
L 449.814382 101.860906 
L 445.710252 99.940539 
L 441.606122 97.675941 
L 437.501992 95.12951 
L 433.397862 92.4147 
L 429.293732 89.65156 
L 425.189602 86.911765 
L 421.085472 84.182705 
L 416.981342 81.370427 
L 412.877212 78.338765 
L 408.773082 74.963001 
L 404.668952 71.173405 
L 400.564822 66.975838 
L 396.460691 62.451425 
L 392.356561 57.743889 
L 388.252431 53.039657 
L 384.148301 48.539996 
L 380.044171 44.425091 
L 375.940041 40.818453 
L 371.835911 37.768005 
L 367.731781 35.257003 
L 363.627651 33.241791 
L 359.523521 31.694826 
L 355.419391 30.625866 
L 351.315261 30.068096 
L 347.211131 30.040136 
L 343.107001 30.511467 
L 339.002871 31.395813 
L 334.89874 32.578129 
L 330.79461 33.960579 
L 326.69048 35.503845 
L 322.58635 37.244091 
L 318.48222 39.277204 
L 314.37809 41.714853 
L 310.27396 44.628972 
L 306.16983 48.008669 
L 302.0657 51.750688 
L 297.96157 55.689171 
L 293.85744 59.650012 
L 289.75331 63.502828 
L 285.64918 67.187766 
L 281.54505 70.710632 
L 277.44092 74.115636 
L 273.336789 77.451052 
L 269.232659 80.740088 
L 265.128529 83.963999 
L 261.024399 87.061395 
L 256.920269 89.94477 
L 252.816139 92.529529 
L 248.712009 94.763811 
L 244.607879 96.645236 
L 240.503749 98.217093 
L 236.399619 99.54784 
L 232.295489 100.706203 
L 228.191359 101.744003 
L 224.087229 102.691691 
L 219.983099 103.56345 
L 215.878969 104.365015 
L 211.774838 105.099161 
L 207.670708 105.768027 
L 203.566578 106.374303 
L 199.462448 106.922991 
L 195.358318 107.42325 
L 191.254188 107.888506 
L 187.150058 108.333909 
L 183.045928 108.772203 
L 178.941798 109.209951 
L 174.837668 109.645359 
L 170.733538 110.067854 
L 166.629408 110.459498 
L 162.525278 110.798742 
L 158.421148 111.066626 
L 154.317018 111.253753 
L 150.212888 111.36476 
L 146.108757 111.417532 
L 142.004627 111.437197 
L 137.900497 111.448104 
L 133.796367 111.467992 
L 129.692237 111.506529 
L 125.588107 111.567178 
L 121.483977 111.64948 
L 117.379847 111.749732 
L 113.275717 111.86042 
L 109.171587 111.970356 
L 105.067457 112.066906 
L 100.963327 112.139812 
L 96.859197 112.184586 
L 92.755067 112.203564 
L 88.650937 112.204146 
L 84.546806 112.195399 
L 80.442676 112.184918 
L 76.338546 112.177354 
L 72.234416 112.174695 
L 68.130286 112.177293 
L 64.026156 112.184531 
L 59.922026 112.194774 
L 55.817896 112.205255 
L 51.713766 112.212656 
L 47.609636 112.214457 
L 43.505506 112.210181 
L 39.401376 112.201546 
L 35.297246 112.191333 
L 31.193116 112.181795 
L 27.088986 112.173762 
L 22.984855 112.166923 
L 18.880725 112.160798 
L 14.776595 112.155509 
L 10.672465 112.151886 
L 6.568335 112.151097 
L 2.464205 112.154205 
L -1.639925 112.161794 
L -5.744055 112.173548 
L -9.848185 112.187885 
L -13.952315 112.202102 
L -18.056445 112.213405 
L -22.160575 112.220534 
L -26.264705 112.224957 
L -30.368835 112.230599 
L -34.472965 112.242034 
L -38.577096 112.262108 
L -42.681226 112.290441 
L -46.785356 112.323627 
L -50.889486 112.356846 
L -54.993616 112.385835 
L -59.097746 112.408184 
L -63.201876 112.42354 
L -67.306006 112.433003 
L -71.410136 112.438256 
L -75.514266 112.440891 
z
" clip-path="url(#p40036228e0)" style="fill: #4d3c2f; fill-opacity: 0.25; stroke: #4d3c2f; stroke-width: 2"/>
   </g>
   <g id="patch_6">
    <path d="M 93.545 112.442857 
L 591.131143 112.442857 
" style="fill: none; stroke: #ffffff; stroke-width: 2.5; stroke-linejoin: miter; stroke-linecap: square"/>
   </g>
  </g>
  <g id="axes_3">
   <g id="patch_7">
    <path d="M 608.289286 631.58 
L 694.08 631.58 
L 694.08 129.747429 
L 608.289286 129.747429 
z
" style="fill: #e5e5e5"/>
   </g>
   <g id="matplotlib.axis_5">
    <g id="xtick_11"/>
    <g id="xtick_12"/>
   </g>
   <g id="matplotlib.axis_6">
    <g id="ytick_12">
     <g id="line2d_20">
      <path d="M 608.289286 631.58 
L 694.08 631.58 
" clip-path="url(#p48255cdbdd)" style="fill: none; stroke: #ffffff; stroke-width: 2; stroke-linecap: round"/>
     </g>
    </g>
    <g id="ytick_13">
     <g id="line2d_21">
      <path d="M 608.289286 568.850929 
L 694.08 568.850929 
" clip-path="url(#p48255cdbdd)" style="fill: none; stroke: #ffffff; stroke-width: 2; stroke-linecap: round"/>
     </g>
    </g>
    <g id="ytick_14">
     <g id="line2d_22">
      <path d="M 608.289286 506.121857 
L 694.08 506.121857 
" clip-path="url(#p48255cdbdd)" style="fill: none; stroke: #ffffff; stroke-width: 2; stroke-linecap: round"/>
     </g>
    </g>
    <g id="ytick_15">
     <g id="line2d_23">
      <path d="M 608.289286 443.392786 
L 694.08 443.392786 
" clip-path="url(#p48255cdbdd)" style="fill: none; stroke: #ffffff; stroke-width: 2; stroke-linecap: round"/>
     </g>
    </g>
    <g id="ytick_16">
     <g id="line2d_24">
      <path d="M 608.289286 380.663714 
L 694.08 380.663714 
" clip-path="url(#p48255cdbdd)" style="fill: none; stroke: #ffffff; stroke-width: 2; stroke-linecap: round"/>
     </g>
    </g>
    <g id="ytick_17">
     <g id="line2d_25">
      <path d="M 608.289286 317.934643 
L 694.08 317.934643 
" clip-path="url(#p48255cdbdd)" style="fill: none; stroke: #ffffff; stroke-width: 2; stroke-linecap: round"/>
     </g>
    </g>
    <g id="ytick_18">
     <g id="line2d_26">
      <path d="M 608.289286 255.205571 
L 694.08 255.205571 
" clip-path="url(#p48255cdbdd)" style="fill: none; stroke: #ffffff; stroke-width: 2; stroke-linecap: round"/>
     </g>
    </g>
    <g id="ytick_19">
     <g id="line2d_27">
      <path d="M 608.289286 192.4765 
L 694.08 192.4765 
" clip-path="url(#p48255cdbdd)" style="fill: none; stroke: #ffffff; stroke-width: 2; stroke-linecap: round"/>
     </g>
    </g>
    <g id="ytick_20">
     <g id="line2d_28">
      <path d="M 608.289286 129.747429 
L 694.08 129.747429 
" clip-path="url(#p48255cdbdd)" style="fill: none; stroke: #ffffff; stroke-width: 2; stroke-linecap: round"/>
     </g>
    </g>
   </g>
   <g id="PolyCollection_2">
    <path d="M 608.291103 910.870617 
L 608.289286 910.870617 
L 608.289286 905.992612 
L 608.289286 901.114608 
L 608.289286 896.236604 
L 608.289286 891.3586 
L 608.289286 886.480595 
L 608.289286 881.602591 
L 608.289286 876.724587 
L 608.289286 871.846582 
L 608.289286 866.968578 
L 608.289286 862.090574 
L 608.289286 857.21257 
L 608.289286 852.334565 
L 608.289286 847.456561 
L 608.289286 842.578557 
L 608.289286 837.700552 
L 608.289286 832.822548 
L 608.289286 827.944544 
L 608.289286 823.06654 
L 608.289286 818.188535 
L 608.289286 813.310531 
L 608.289286 808.432527 
L 608.289286 803.554522 
L 608.289286 798.676518 
L 608.289286 793.798514 
L 608.289286 788.920509 
L 608.289286 784.042505 
L 608.289286 779.164501 
L 608.289286 774.286497 
L 608.289286 769.408492 
L 608.289286 764.530488 
L 608.289286 759.652484 
L 608.289286 754.774479 
L 608.289286 749.896475 
L 608.289286 745.018471 
L 608.289286 740.140467 
L 608.289286 735.262462 
L 608.289286 730.384458 
L 608.289286 725.506454 
L 608.289286 720.628449 
L 608.289286 715.750445 
L 608.289286 710.872441 
L 608.289286 705.994437 
L 608.289286 701.116432 
L 608.289286 696.238428 
L 608.289286 691.360424 
L 608.289286 686.482419 
L 608.289286 681.604415 
L 608.289286 676.726411 
L 608.289286 671.848406 
L 608.289286 666.970402 
L 608.289286 662.092398 
L 608.289286 657.214394 
L 608.289286 652.336389 
L 608.289286 647.458385 
L 608.289286 642.580381 
L 608.289286 637.702376 
L 608.289286 632.824372 
L 608.289286 627.946368 
L 608.289286 623.068364 
L 608.289286 618.190359 
L 608.289286 613.312355 
L 608.289286 608.434351 
L 608.289286 603.556346 
L 608.289286 598.678342 
L 608.289286 593.800338 
L 608.289286 588.922334 
L 608.289286 584.044329 
L 608.289286 579.166325 
L 608.289286 574.288321 
L 608.289286 569.410316 
L 608.289286 564.532312 
L 608.289286 559.654308 
L 608.289286 554.776303 
L 608.289286 549.898299 
L 608.289286 545.020295 
L 608.289286 540.142291 
L 608.289286 535.264286 
L 608.289286 530.386282 
L 608.289286 525.508278 
L 608.289286 520.630273 
L 608.289286 515.752269 
L 608.289286 510.874265 
L 608.289286 505.996261 
L 608.289286 501.118256 
L 608.289286 496.240252 
L 608.289286 491.362248 
L 608.289286 486.484243 
L 608.289286 481.606239 
L 608.289286 476.728235 
L 608.289286 471.850231 
L 608.289286 466.972226 
L 608.289286 462.094222 
L 608.289286 457.216218 
L 608.289286 452.338213 
L 608.289286 447.460209 
L 608.289286 442.582205 
L 608.289286 437.7042 
L 608.289286 432.826196 
L 608.289286 427.948192 
L 608.289286 423.070188 
L 608.289286 418.192183 
L 608.289286 413.314179 
L 608.289286 408.436175 
L 608.289286 403.55817 
L 608.289286 398.680166 
L 608.289286 393.802162 
L 608.289286 388.924158 
L 608.289286 384.046153 
L 608.289286 379.168149 
L 608.289286 374.290145 
L 608.289286 369.41214 
L 608.289286 364.534136 
L 608.289286 359.656132 
L 608.289286 354.778128 
L 608.289286 349.900123 
L 608.289286 345.022119 
L 608.289286 340.144115 
L 608.289286 335.26611 
L 608.289286 330.388106 
L 608.289286 325.510102 
L 608.289286 320.632097 
L 608.289286 315.754093 
L 608.289286 310.876089 
L 608.289286 305.998085 
L 608.289286 301.12008 
L 608.289286 296.242076 
L 608.289286 291.364072 
L 608.289286 286.486067 
L 608.289286 281.608063 
L 608.289286 276.730059 
L 608.289286 271.852055 
L 608.289286 266.97405 
L 608.289286 262.096046 
L 608.289286 257.218042 
L 608.289286 252.340037 
L 608.289286 247.462033 
L 608.289286 242.584029 
L 608.289286 237.706025 
L 608.289286 232.82802 
L 608.289286 227.950016 
L 608.289286 223.072012 
L 608.289286 218.194007 
L 608.289286 213.316003 
L 608.289286 208.437999 
L 608.289286 203.559994 
L 608.289286 198.68199 
L 608.289286 193.803986 
L 608.289286 188.925982 
L 608.289286 184.047977 
L 608.289286 179.169973 
L 608.289286 174.291969 
L 608.289286 169.413964 
L 608.289286 164.53596 
L 608.289286 159.657956 
L 608.289286 154.779952 
L 608.289286 149.901947 
L 608.289286 145.023943 
L 608.289286 140.145939 
L 608.289286 135.267934 
L 608.289286 130.38993 
L 608.289286 125.511926 
L 608.289286 120.633922 
L 608.289286 115.755917 
L 608.289286 110.877913 
L 608.289286 105.999909 
L 608.289286 101.121904 
L 608.289286 96.2439 
L 608.289286 91.365896 
L 608.289286 86.487891 
L 608.289286 81.609887 
L 608.289286 76.731883 
L 608.289286 71.853879 
L 608.289286 66.975874 
L 608.289286 62.09787 
L 608.289286 57.219866 
L 608.289286 52.341861 
L 608.289286 47.463857 
L 608.289286 42.585853 
L 608.289286 37.707849 
L 608.289286 32.829844 
L 608.289286 27.95184 
L 608.289286 23.073836 
L 608.289286 18.195831 
L 608.289286 13.317827 
L 608.289286 8.439823 
L 608.289286 3.561819 
L 608.289286 -1.316186 
L 608.289286 -6.19419 
L 608.289286 -11.072194 
L 608.289286 -15.950199 
L 608.289286 -20.828203 
L 608.289286 -25.706207 
L 608.289286 -30.584212 
L 608.289286 -35.462216 
L 608.289286 -40.34022 
L 608.289286 -45.218224 
L 608.289286 -50.096229 
L 608.289286 -54.974233 
L 608.289286 -59.852237 
L 608.291103 -59.852237 
L 608.291103 -59.852237 
L 608.294191 -54.974233 
L 608.30099 -50.096229 
L 608.313963 -45.218224 
L 608.335259 -40.34022 
L 608.364968 -35.462216 
L 608.399378 -30.584212 
L 608.430797 -25.706207 
L 608.450017 -20.828203 
L 608.450605 -15.950199 
L 608.432354 -11.072194 
L 608.401404 -6.19419 
L 608.366926 -1.316186 
L 608.336794 3.561819 
L 608.314973 8.439823 
L 608.301559 13.317827 
L 608.294467 18.195831 
L 608.291219 23.073836 
L 608.289923 27.95184 
L 608.289471 32.829844 
L 608.289333 37.707849 
L 608.289297 42.585853 
L 608.289288 47.463857 
L 608.289286 52.341861 
L 608.289286 57.219866 
L 608.289286 62.09787 
L 608.289286 66.975874 
L 608.289286 71.853879 
L 608.289286 76.731883 
L 608.289286 81.609887 
L 608.289286 86.487891 
L 608.289288 91.365896 
L 608.289298 96.2439 
L 608.289338 101.121904 
L 608.289492 105.999909 
L 608.290004 110.877913 
L 608.291507 115.755917 
L 608.29539 120.633922 
L 608.304202 125.511926 
L 608.321747 130.38993 
L 608.352308 135.267934 
L 608.398702 140.145939 
L 608.459708 145.023943 
L 608.528507 149.901947 
L 608.593945 154.779952 
L 608.6449 159.657956 
L 608.675741 164.53596 
L 608.68977 169.413964 
L 608.698904 174.291969 
L 608.720205 179.169973 
L 608.77094 184.047977 
L 608.863355 188.925982 
L 609.00007 193.803986 
L 609.171715 198.68199 
L 609.358574 203.559994 
L 609.536398 208.437999 
L 609.684625 213.316003 
L 609.794753 218.194007 
L 609.877083 223.072012 
L 609.964212 227.950016 
L 610.109756 232.82802 
L 610.381642 237.706025 
L 610.850298 242.584029 
L 611.573008 247.462033 
L 612.577554 252.340037 
L 613.851642 257.218042 
L 615.346269 262.096046 
L 616.997193 266.97405 
L 618.75903 271.852055 
L 620.637061 276.730059 
L 622.698943 281.608063 
L 625.055271 286.486067 
L 627.812081 291.364072 
L 631.014089 296.242076 
L 634.606565 301.12008 
L 638.439742 305.998085 
L 642.321559 310.876089 
L 646.098704 315.754093 
L 649.725533 320.632097 
L 653.281293 325.510102 
L 656.924712 330.388106 
L 660.813812 335.26611 
L 665.034915 340.144115 
L 669.564573 345.022119 
L 674.258945 349.900123 
L 678.862018 354.778128 
L 683.04087 359.656132 
L 686.453764 364.534136 
L 688.826305 369.41214 
L 689.994728 374.290145 
L 689.906337 379.168149 
L 688.610383 384.046153 
L 686.266776 388.924158 
L 683.147562 393.802162 
L 679.581288 398.680166 
L 675.840559 403.55817 
L 672.046535 408.436175 
L 668.16927 413.314179 
L 664.124382 418.192183 
L 659.886361 423.070188 
L 655.536953 427.948192 
L 651.233844 432.826196 
L 647.145374 437.7042 
L 643.400567 442.582205 
L 640.068814 447.460209 
L 637.158265 452.338213 
L 634.624237 457.216218 
L 632.387554 462.094222 
L 630.358647 466.972226 
L 628.456061 471.850231 
L 626.614149 476.728235 
L 624.787698 481.606239 
L 622.961425 486.484243 
L 621.158362 491.362248 
L 619.432832 496.240252 
L 617.844568 501.118256 
L 616.429733 505.996261 
L 615.190609 510.874265 
L 614.110347 515.752269 
L 613.177308 520.630273 
L 612.396612 525.508278 
L 611.780117 530.386282 
L 611.325464 535.264286 
L 611.002575 540.142291 
L 610.758444 545.020295 
L 610.537118 549.898299 
L 610.301645 554.776303 
L 610.044127 559.654308 
L 609.778889 564.532312 
L 609.526101 569.410316 
L 609.299306 574.288321 
L 609.105042 579.166325 
L 608.951117 584.044329 
L 608.852759 588.922334 
L 608.828638 593.800338 
L 608.888038 598.678342 
L 609.018324 603.556346 
L 609.182657 608.434351 
L 609.331425 613.312355 
L 609.421527 618.190359 
L 609.432158 623.068364 
L 609.368482 627.946368 
L 609.253408 632.824372 
L 609.114862 637.702376 
L 608.976116 642.580381 
L 608.851678 647.458385 
L 608.747118 652.336389 
L 608.660904 657.214394 
L 608.587607 662.092398 
L 608.521965 666.970402 
L 608.462142 671.848406 
L 608.410458 676.726411 
L 608.371578 681.604415 
L 608.34982 686.482419 
L 608.3472 691.360424 
L 608.362465 696.238428 
L 608.39066 701.116432 
L 608.423502 705.994437 
L 608.451495 710.872441 
L 608.46781 715.750445 
L 608.471827 720.628449 
L 608.469359 725.506454 
L 608.468667 730.384458 
L 608.474914 735.262462 
L 608.487316 740.140467 
L 608.500968 745.018471 
L 608.511161 749.896475 
L 608.516012 754.774479 
L 608.51544 759.652484 
L 608.508509 764.530488 
L 608.492704 769.408492 
L 608.466187 774.286497 
L 608.430609 779.164501 
L 608.391447 784.042505 
L 608.355453 788.920509 
L 608.327451 793.798514 
L 608.308824 798.676518 
L 608.298147 803.554522 
L 608.292851 808.432527 
L 608.290594 813.310531 
L 608.289867 818.188535 
L 608.290033 823.06654 
L 608.291246 827.944544 
L 608.294473 832.822548 
L 608.30156 837.700552 
L 608.314974 842.578557 
L 608.336794 847.456561 
L 608.366926 852.334565 
L 608.401404 857.21257 
L 608.432354 862.090574 
L 608.450605 866.968578 
L 608.450017 871.846582 
L 608.430797 876.724587 
L 608.399378 881.602591 
L 608.364968 886.480595 
L 608.335259 891.3586 
L 608.313963 896.236604 
L 608.30099 901.114608 
L 608.294191 905.992612 
L 608.291103 910.870617 
z
" clip-path="url(#p48255cdbdd)" style="fill: #4d3c2f; fill-opacity: 0.25; stroke: #4d3c2f; stroke-width: 2"/>
   </g>
   <g id="patch_8">
    <path d="M 608.289286 631.58 
L 608.289286 129.747429 
" style="fill: none; stroke: #ffffff; stroke-width: 2.5; stroke-linejoin: miter; stroke-linecap: square"/>
   </g>
  </g>
 </g>
 <defs>
  <clipPath id="p25f8186190">
   <rect x="93.545" y="129.747429" width="497.586143" height="501.832571"/>
  </clipPath>
  <clipPath id="p40036228e0">
   <rect x="93.545" y="25.92" width="497.586143" height="86.522857"/>
  </clipPath>
  <clipPath id="p48255cdbdd">
   <rect x="608.289286" y="129.747429" width="85.790714" height="501.832571"/>
  </clipPath>
 </defs>
</svg>
