<?xml version="1.0" encoding="utf-8" standalone="no"?>
<!DOCTYPE svg PUBLIC "-//W3C//DTD SVG 1.1//EN"
  "http://www.w3.org/Graphics/SVG/1.1/DTD/svg11.dtd">
<svg xmlns:xlink="http://www.w3.org/1999/xlink" width="720pt" height="720pt" viewBox="0 0 720 720" xmlns="http://www.w3.org/2000/svg" version="1.1">
 <metadata>
  <rdf:RDF xmlns:dc="http://purl.org/dc/elements/1.1/" xmlns:cc="http://creativecommons.org/ns#" xmlns:rdf="http://www.w3.org/1999/02/22-rdf-syntax-ns#">
   <cc:Work>
    <dc:type rdf:resource="http://purl.org/dc/dcmitype/StillImage"/>
    <dc:date>2022-04-17T02:11:48.712111</dc:date>
    <dc:format>image/svg+xml</dc:format>
    <dc:creator>
     <cc:Agent>
      <dc:title>Matplotlib v3.5.1, https://matplotlib.org/</dc:title>
     </cc:Agent>
    </dc:creator>
   </cc:Work>
  </rdf:RDF>
 </metadata>
 <defs>
  <style type="text/css">*{stroke-linejoin: round; stroke-linecap: butt}</style>
 </defs>
 <g id="figure_1">
  <g id="patch_1">
   <path d="M 0 720 
L 720 720 
L 720 0 
L 0 0 
z
" style="fill: #ffffff"/>
  </g>
  <g id="axes_1">
   <g id="patch_2">
    <path d="M 72.815 651.06 
L 592.946571 651.06 
L 592.946571 127.717714 
L 72.815 127.717714 
z
" style="fill: #e5e5e5"/>
   </g>
   <g id="matplotlib.axis_1">
    <g id="xtick_1">
     <g id="line2d_1">
      <path d="M 72.815 651.06 
L 72.815 127.717714 
" clip-path="url(#p8e95773e3c)" style="fill: none; stroke: #ffffff; stroke-width: 1.5; stroke-linecap: round"/>
     </g>
     <g id="text_1">
      <!-- −4 -->
      <g style="fill: #555555" transform="translate(63.408711 675.370391)scale(0.165 -0.165)">
       <defs>
        <path id="ArialMT-2212" d="M 3381 1997 
L 356 1997 
L 356 2522 
L 3381 2522 
L 3381 1997 
z
" transform="scale(0.015625)"/>
        <path id="ArialMT-34" d="M 2069 0 
L 2069 1097 
L 81 1097 
L 81 1613 
L 2172 4581 
L 2631 4581 
L 2631 1613 
L 3250 1613 
L 3250 1097 
L 2631 1097 
L 2631 0 
L 2069 0 
z
M 2069 1613 
L 2069 3678 
L 634 1613 
L 2069 1613 
z
" transform="scale(0.015625)"/>
       </defs>
       <use xlink:href="#ArialMT-2212"/>
       <use xlink:href="#ArialMT-34" x="58.398438"/>
      </g>
     </g>
    </g>
    <g id="xtick_2">
     <g id="line2d_2">
      <path d="M 137.831446 651.06 
L 137.831446 127.717714 
" clip-path="url(#p8e95773e3c)" style="fill: none; stroke: #ffffff; stroke-width: 1.5; stroke-linecap: round"/>
     </g>
     <g id="text_2">
      <!-- −3 -->
      <g style="fill: #555555" transform="translate(128.425157 675.370391)scale(0.165 -0.165)">
       <defs>
        <path id="ArialMT-33" d="M 269 1209 
L 831 1284 
Q 928 806 1161 595 
Q 1394 384 1728 384 
Q 2125 384 2398 659 
Q 2672 934 2672 1341 
Q 2672 1728 2419 1979 
Q 2166 2231 1775 2231 
Q 1616 2231 1378 2169 
L 1441 2663 
Q 1497 2656 1531 2656 
Q 1891 2656 2178 2843 
Q 2466 3031 2466 3422 
Q 2466 3731 2256 3934 
Q 2047 4138 1716 4138 
Q 1388 4138 1169 3931 
Q 950 3725 888 3313 
L 325 3413 
Q 428 3978 793 4289 
Q 1159 4600 1703 4600 
Q 2078 4600 2393 4439 
Q 2709 4278 2876 4000 
Q 3044 3722 3044 3409 
Q 3044 3113 2884 2869 
Q 2725 2625 2413 2481 
Q 2819 2388 3044 2092 
Q 3269 1797 3269 1353 
Q 3269 753 2831 336 
Q 2394 -81 1725 -81 
Q 1122 -81 723 278 
Q 325 638 269 1209 
z
" transform="scale(0.015625)"/>
       </defs>
       <use xlink:href="#ArialMT-2212"/>
       <use xlink:href="#ArialMT-33" x="58.398438"/>
      </g>
     </g>
    </g>
    <g id="xtick_3">
     <g id="line2d_3">
      <path d="M 202.847893 651.06 
L 202.847893 127.717714 
" clip-path="url(#p8e95773e3c)" style="fill: none; stroke: #ffffff; stroke-width: 1.5; stroke-linecap: round"/>
     </g>
     <g id="text_3">
      <!-- −2 -->
      <g style="fill: #555555" transform="translate(193.441604 675.370391)scale(0.165 -0.165)">
       <defs>
        <path id="ArialMT-32" d="M 3222 541 
L 3222 0 
L 194 0 
Q 188 203 259 391 
Q 375 700 629 1000 
Q 884 1300 1366 1694 
Q 2113 2306 2375 2664 
Q 2638 3022 2638 3341 
Q 2638 3675 2398 3904 
Q 2159 4134 1775 4134 
Q 1369 4134 1125 3890 
Q 881 3647 878 3216 
L 300 3275 
Q 359 3922 746 4261 
Q 1134 4600 1788 4600 
Q 2447 4600 2831 4234 
Q 3216 3869 3216 3328 
Q 3216 3053 3103 2787 
Q 2991 2522 2730 2228 
Q 2469 1934 1863 1422 
Q 1356 997 1212 845 
Q 1069 694 975 541 
L 3222 541 
z
" transform="scale(0.015625)"/>
       </defs>
       <use xlink:href="#ArialMT-2212"/>
       <use xlink:href="#ArialMT-32" x="58.398438"/>
      </g>
     </g>
    </g>
    <g id="xtick_4">
     <g id="line2d_4">
      <path d="M 267.864339 651.06 
L 267.864339 127.717714 
" clip-path="url(#p8e95773e3c)" style="fill: none; stroke: #ffffff; stroke-width: 1.5; stroke-linecap: round"/>
     </g>
     <g id="text_4">
      <!-- −1 -->
      <g style="fill: #555555" transform="translate(258.45805 675.370391)scale(0.165 -0.165)">
       <defs>
        <path id="ArialMT-31" d="M 2384 0 
L 1822 0 
L 1822 3584 
Q 1619 3391 1289 3197 
Q 959 3003 697 2906 
L 697 3450 
Q 1169 3672 1522 3987 
Q 1875 4303 2022 4600 
L 2384 4600 
L 2384 0 
z
" transform="scale(0.015625)"/>
       </defs>
       <use xlink:href="#ArialMT-2212"/>
       <use xlink:href="#ArialMT-31" x="58.398438"/>
      </g>
     </g>
    </g>
    <g id="xtick_5">
     <g id="line2d_5">
      <path d="M 332.880786 651.06 
L 332.880786 127.717714 
" clip-path="url(#p8e95773e3c)" style="fill: none; stroke: #ffffff; stroke-width: 1.5; stroke-linecap: round"/>
     </g>
     <g id="text_5">
      <!-- 0 -->
      <g style="fill: #555555" transform="translate(328.293012 675.370391)scale(0.165 -0.165)">
       <defs>
        <path id="ArialMT-30" d="M 266 2259 
Q 266 3072 433 3567 
Q 600 4063 929 4331 
Q 1259 4600 1759 4600 
Q 2128 4600 2406 4451 
Q 2684 4303 2865 4023 
Q 3047 3744 3150 3342 
Q 3253 2941 3253 2259 
Q 3253 1453 3087 958 
Q 2922 463 2592 192 
Q 2263 -78 1759 -78 
Q 1097 -78 719 397 
Q 266 969 266 2259 
z
M 844 2259 
Q 844 1131 1108 757 
Q 1372 384 1759 384 
Q 2147 384 2411 759 
Q 2675 1134 2675 2259 
Q 2675 3391 2411 3762 
Q 2147 4134 1753 4134 
Q 1366 4134 1134 3806 
Q 844 3388 844 2259 
z
" transform="scale(0.015625)"/>
       </defs>
       <use xlink:href="#ArialMT-30"/>
      </g>
     </g>
    </g>
    <g id="xtick_6">
     <g id="line2d_6">
      <path d="M 397.897232 651.06 
L 397.897232 127.717714 
" clip-path="url(#p8e95773e3c)" style="fill: none; stroke: #ffffff; stroke-width: 1.5; stroke-linecap: round"/>
     </g>
     <g id="text_6">
      <!-- 1 -->
      <g style="fill: #555555" transform="translate(393.309459 675.370391)scale(0.165 -0.165)">
       <use xlink:href="#ArialMT-31"/>
      </g>
     </g>
    </g>
    <g id="xtick_7">
     <g id="line2d_7">
      <path d="M 462.913679 651.06 
L 462.913679 127.717714 
" clip-path="url(#p8e95773e3c)" style="fill: none; stroke: #ffffff; stroke-width: 1.5; stroke-linecap: round"/>
     </g>
     <g id="text_7">
      <!-- 2 -->
      <g style="fill: #555555" transform="translate(458.325905 675.370391)scale(0.165 -0.165)">
       <use xlink:href="#ArialMT-32"/>
      </g>
     </g>
    </g>
    <g id="xtick_8">
     <g id="line2d_8">
      <path d="M 527.930125 651.06 
L 527.930125 127.717714 
" clip-path="url(#p8e95773e3c)" style="fill: none; stroke: #ffffff; stroke-width: 1.5; stroke-linecap: round"/>
     </g>
     <g id="text_8">
      <!-- 3 -->
      <g style="fill: #555555" transform="translate(523.342352 675.370391)scale(0.165 -0.165)">
       <use xlink:href="#ArialMT-33"/>
      </g>
     </g>
    </g>
    <g id="xtick_9">
     <g id="line2d_9">
      <path d="M 592.946571 651.06 
L 592.946571 127.717714 
" clip-path="url(#p8e95773e3c)" style="fill: none; stroke: #ffffff; stroke-width: 1.5; stroke-linecap: round"/>
     </g>
     <g id="text_9">
      <!-- 4 -->
      <g style="fill: #555555" transform="translate(588.358798 675.370391)scale(0.165 -0.165)">
       <use xlink:href="#ArialMT-34"/>
      </g>
     </g>
    </g>
    <g id="text_10">
     <!-- HeatingOil -->
     <g style="fill: #555555" transform="translate(290.862036 695.764453)scale(0.18 -0.18)">
      <defs>
       <path id="ArialMT-48" d="M 513 0 
L 513 4581 
L 1119 4581 
L 1119 2700 
L 3500 2700 
L 3500 4581 
L 4106 4581 
L 4106 0 
L 3500 0 
L 3500 2159 
L 1119 2159 
L 1119 0 
L 513 0 
z
" transform="scale(0.015625)"/>
       <path id="ArialMT-65" d="M 2694 1069 
L 3275 997 
Q 3138 488 2766 206 
Q 2394 -75 1816 -75 
Q 1088 -75 661 373 
Q 234 822 234 1631 
Q 234 2469 665 2931 
Q 1097 3394 1784 3394 
Q 2450 3394 2872 2941 
Q 3294 2488 3294 1666 
Q 3294 1616 3291 1516 
L 816 1516 
Q 847 969 1125 678 
Q 1403 388 1819 388 
Q 2128 388 2347 550 
Q 2566 713 2694 1069 
z
M 847 1978 
L 2700 1978 
Q 2663 2397 2488 2606 
Q 2219 2931 1791 2931 
Q 1403 2931 1139 2672 
Q 875 2413 847 1978 
z
" transform="scale(0.015625)"/>
       <path id="ArialMT-61" d="M 2588 409 
Q 2275 144 1986 34 
Q 1697 -75 1366 -75 
Q 819 -75 525 192 
Q 231 459 231 875 
Q 231 1119 342 1320 
Q 453 1522 633 1644 
Q 813 1766 1038 1828 
Q 1203 1872 1538 1913 
Q 2219 1994 2541 2106 
Q 2544 2222 2544 2253 
Q 2544 2597 2384 2738 
Q 2169 2928 1744 2928 
Q 1347 2928 1158 2789 
Q 969 2650 878 2297 
L 328 2372 
Q 403 2725 575 2942 
Q 747 3159 1072 3276 
Q 1397 3394 1825 3394 
Q 2250 3394 2515 3294 
Q 2781 3194 2906 3042 
Q 3031 2891 3081 2659 
Q 3109 2516 3109 2141 
L 3109 1391 
Q 3109 606 3145 398 
Q 3181 191 3288 0 
L 2700 0 
Q 2613 175 2588 409 
z
M 2541 1666 
Q 2234 1541 1622 1453 
Q 1275 1403 1131 1340 
Q 988 1278 909 1158 
Q 831 1038 831 891 
Q 831 666 1001 516 
Q 1172 366 1500 366 
Q 1825 366 2078 508 
Q 2331 650 2450 897 
Q 2541 1088 2541 1459 
L 2541 1666 
z
" transform="scale(0.015625)"/>
       <path id="ArialMT-74" d="M 1650 503 
L 1731 6 
Q 1494 -44 1306 -44 
Q 1000 -44 831 53 
Q 663 150 594 308 
Q 525 466 525 972 
L 525 2881 
L 113 2881 
L 113 3319 
L 525 3319 
L 525 4141 
L 1084 4478 
L 1084 3319 
L 1650 3319 
L 1650 2881 
L 1084 2881 
L 1084 941 
Q 1084 700 1114 631 
Q 1144 563 1211 522 
Q 1278 481 1403 481 
Q 1497 481 1650 503 
z
" transform="scale(0.015625)"/>
       <path id="ArialMT-69" d="M 425 3934 
L 425 4581 
L 988 4581 
L 988 3934 
L 425 3934 
z
M 425 0 
L 425 3319 
L 988 3319 
L 988 0 
L 425 0 
z
" transform="scale(0.015625)"/>
       <path id="ArialMT-6e" d="M 422 0 
L 422 3319 
L 928 3319 
L 928 2847 
Q 1294 3394 1984 3394 
Q 2284 3394 2536 3286 
Q 2788 3178 2913 3003 
Q 3038 2828 3088 2588 
Q 3119 2431 3119 2041 
L 3119 0 
L 2556 0 
L 2556 2019 
Q 2556 2363 2490 2533 
Q 2425 2703 2258 2804 
Q 2091 2906 1866 2906 
Q 1506 2906 1245 2678 
Q 984 2450 984 1813 
L 984 0 
L 422 0 
z
" transform="scale(0.015625)"/>
       <path id="ArialMT-67" d="M 319 -275 
L 866 -356 
Q 900 -609 1056 -725 
Q 1266 -881 1628 -881 
Q 2019 -881 2231 -725 
Q 2444 -569 2519 -288 
Q 2563 -116 2559 434 
Q 2191 0 1641 0 
Q 956 0 581 494 
Q 206 988 206 1678 
Q 206 2153 378 2554 
Q 550 2956 876 3175 
Q 1203 3394 1644 3394 
Q 2231 3394 2613 2919 
L 2613 3319 
L 3131 3319 
L 3131 450 
Q 3131 -325 2973 -648 
Q 2816 -972 2473 -1159 
Q 2131 -1347 1631 -1347 
Q 1038 -1347 672 -1080 
Q 306 -813 319 -275 
z
M 784 1719 
Q 784 1066 1043 766 
Q 1303 466 1694 466 
Q 2081 466 2343 764 
Q 2606 1063 2606 1700 
Q 2606 2309 2336 2618 
Q 2066 2928 1684 2928 
Q 1309 2928 1046 2623 
Q 784 2319 784 1719 
z
" transform="scale(0.015625)"/>
       <path id="ArialMT-4f" d="M 309 2231 
Q 309 3372 921 4017 
Q 1534 4663 2503 4663 
Q 3138 4663 3647 4359 
Q 4156 4056 4423 3514 
Q 4691 2972 4691 2284 
Q 4691 1588 4409 1038 
Q 4128 488 3612 205 
Q 3097 -78 2500 -78 
Q 1853 -78 1343 234 
Q 834 547 571 1087 
Q 309 1628 309 2231 
z
M 934 2222 
Q 934 1394 1379 917 
Q 1825 441 2497 441 
Q 3181 441 3623 922 
Q 4066 1403 4066 2288 
Q 4066 2847 3877 3264 
Q 3688 3681 3323 3911 
Q 2959 4141 2506 4141 
Q 1863 4141 1398 3698 
Q 934 3256 934 2222 
z
" transform="scale(0.015625)"/>
       <path id="ArialMT-6c" d="M 409 0 
L 409 4581 
L 972 4581 
L 972 0 
L 409 0 
z
" transform="scale(0.015625)"/>
      </defs>
      <use xlink:href="#ArialMT-48"/>
      <use xlink:href="#ArialMT-65" x="72.216797"/>
      <use xlink:href="#ArialMT-61" x="127.832031"/>
      <use xlink:href="#ArialMT-74" x="183.447266"/>
      <use xlink:href="#ArialMT-69" x="211.230469"/>
      <use xlink:href="#ArialMT-6e" x="233.447266"/>
      <use xlink:href="#ArialMT-67" x="289.0625"/>
      <use xlink:href="#ArialMT-4f" x="344.677734"/>
      <use xlink:href="#ArialMT-69" x="422.460938"/>
      <use xlink:href="#ArialMT-6c" x="444.677734"/>
     </g>
    </g>
   </g>
   <g id="matplotlib.axis_2">
    <g id="ytick_1">
     <g id="line2d_10">
      <path d="M 72.815 651.06 
L 592.946571 651.06 
" clip-path="url(#p8e95773e3c)" style="fill: none; stroke: #ffffff; stroke-width: 1.5; stroke-linecap: round"/>
     </g>
     <g id="text_11">
      <!-- −4 -->
      <g style="fill: #555555" transform="translate(41.502422 656.965195)scale(0.165 -0.165)">
       <use xlink:href="#ArialMT-2212"/>
       <use xlink:href="#ArialMT-34" x="58.398438"/>
      </g>
     </g>
    </g>
    <g id="ytick_2">
     <g id="line2d_11">
      <path d="M 72.815 585.642214 
L 592.946571 585.642214 
" clip-path="url(#p8e95773e3c)" style="fill: none; stroke: #ffffff; stroke-width: 1.5; stroke-linecap: round"/>
     </g>
     <g id="text_12">
      <!-- −3 -->
      <g style="fill: #555555" transform="translate(41.502422 591.54741)scale(0.165 -0.165)">
       <use xlink:href="#ArialMT-2212"/>
       <use xlink:href="#ArialMT-33" x="58.398438"/>
      </g>
     </g>
    </g>
    <g id="ytick_3">
     <g id="line2d_12">
      <path d="M 72.815 520.224429 
L 592.946571 520.224429 
" clip-path="url(#p8e95773e3c)" style="fill: none; stroke: #ffffff; stroke-width: 1.5; stroke-linecap: round"/>
     </g>
     <g id="text_13">
      <!-- −2 -->
      <g style="fill: #555555" transform="translate(41.502422 526.129624)scale(0.165 -0.165)">
       <use xlink:href="#ArialMT-2212"/>
       <use xlink:href="#ArialMT-32" x="58.398438"/>
      </g>
     </g>
    </g>
    <g id="ytick_4">
     <g id="line2d_13">
      <path d="M 72.815 454.806643 
L 592.946571 454.806643 
" clip-path="url(#p8e95773e3c)" style="fill: none; stroke: #ffffff; stroke-width: 1.5; stroke-linecap: round"/>
     </g>
     <g id="text_14">
      <!-- −1 -->
      <g style="fill: #555555" transform="translate(41.502422 460.711838)scale(0.165 -0.165)">
       <use xlink:href="#ArialMT-2212"/>
       <use xlink:href="#ArialMT-31" x="58.398438"/>
      </g>
     </g>
    </g>
    <g id="ytick_5">
     <g id="line2d_14">
      <path d="M 72.815 389.388857 
L 592.946571 389.388857 
" clip-path="url(#p8e95773e3c)" style="fill: none; stroke: #ffffff; stroke-width: 1.5; stroke-linecap: round"/>
     </g>
     <g id="text_15">
      <!-- 0 -->
      <g style="fill: #555555" transform="translate(51.139453 395.294052)scale(0.165 -0.165)">
       <use xlink:href="#ArialMT-30"/>
      </g>
     </g>
    </g>
    <g id="ytick_6">
     <g id="line2d_15">
      <path d="M 72.815 323.971071 
L 592.946571 323.971071 
" clip-path="url(#p8e95773e3c)" style="fill: none; stroke: #ffffff; stroke-width: 1.5; stroke-linecap: round"/>
     </g>
     <g id="text_16">
      <!-- 1 -->
      <g style="fill: #555555" transform="translate(51.139453 329.876267)scale(0.165 -0.165)">
       <use xlink:href="#ArialMT-31"/>
      </g>
     </g>
    </g>
    <g id="ytick_7">
     <g id="line2d_16">
      <path d="M 72.815 258.553286 
L 592.946571 258.553286 
" clip-path="url(#p8e95773e3c)" style="fill: none; stroke: #ffffff; stroke-width: 1.5; stroke-linecap: round"/>
     </g>
     <g id="text_17">
      <!-- 2 -->
      <g style="fill: #555555" transform="translate(51.139453 264.458481)scale(0.165 -0.165)">
       <use xlink:href="#ArialMT-32"/>
      </g>
     </g>
    </g>
    <g id="ytick_8">
     <g id="line2d_17">
      <path d="M 72.815 193.1355 
L 592.946571 193.1355 
" clip-path="url(#p8e95773e3c)" style="fill: none; stroke: #ffffff; stroke-width: 1.5; stroke-linecap: round"/>
     </g>
     <g id="text_18">
      <!-- 3 -->
      <g style="fill: #555555" transform="translate(51.139453 199.040695)scale(0.165 -0.165)">
       <use xlink:href="#ArialMT-33"/>
      </g>
     </g>
    </g>
    <g id="ytick_9">
     <g id="line2d_18">
      <path d="M 72.815 127.717714 
L 592.946571 127.717714 
" clip-path="url(#p8e95773e3c)" style="fill: none; stroke: #ffffff; stroke-width: 1.5; stroke-linecap: round"/>
     </g>
     <g id="text_19">
      <!-- 4 -->
      <g style="fill: #555555" transform="translate(51.139453 133.62291)scale(0.165 -0.165)">
       <use xlink:href="#ArialMT-34"/>
      </g>
     </g>
    </g>
    <g id="text_20">
     <!-- CrudeOil -->
     <g style="fill: #555555" transform="translate(33.924922 424.899482)rotate(-90)scale(0.18 -0.18)">
      <defs>
       <path id="ArialMT-43" d="M 3763 1606 
L 4369 1453 
Q 4178 706 3683 314 
Q 3188 -78 2472 -78 
Q 1731 -78 1267 223 
Q 803 525 561 1097 
Q 319 1669 319 2325 
Q 319 3041 592 3573 
Q 866 4106 1370 4382 
Q 1875 4659 2481 4659 
Q 3169 4659 3637 4309 
Q 4106 3959 4291 3325 
L 3694 3184 
Q 3534 3684 3231 3912 
Q 2928 4141 2469 4141 
Q 1941 4141 1586 3887 
Q 1231 3634 1087 3207 
Q 944 2781 944 2328 
Q 944 1744 1114 1308 
Q 1284 872 1643 656 
Q 2003 441 2422 441 
Q 2931 441 3284 734 
Q 3638 1028 3763 1606 
z
" transform="scale(0.015625)"/>
       <path id="ArialMT-72" d="M 416 0 
L 416 3319 
L 922 3319 
L 922 2816 
Q 1116 3169 1280 3281 
Q 1444 3394 1641 3394 
Q 1925 3394 2219 3213 
L 2025 2691 
Q 1819 2813 1613 2813 
Q 1428 2813 1281 2702 
Q 1134 2591 1072 2394 
Q 978 2094 978 1738 
L 978 0 
L 416 0 
z
" transform="scale(0.015625)"/>
       <path id="ArialMT-75" d="M 2597 0 
L 2597 488 
Q 2209 -75 1544 -75 
Q 1250 -75 995 37 
Q 741 150 617 320 
Q 494 491 444 738 
Q 409 903 409 1263 
L 409 3319 
L 972 3319 
L 972 1478 
Q 972 1038 1006 884 
Q 1059 663 1231 536 
Q 1403 409 1656 409 
Q 1909 409 2131 539 
Q 2353 669 2445 892 
Q 2538 1116 2538 1541 
L 2538 3319 
L 3100 3319 
L 3100 0 
L 2597 0 
z
" transform="scale(0.015625)"/>
       <path id="ArialMT-64" d="M 2575 0 
L 2575 419 
Q 2259 -75 1647 -75 
Q 1250 -75 917 144 
Q 584 363 401 755 
Q 219 1147 219 1656 
Q 219 2153 384 2558 
Q 550 2963 881 3178 
Q 1213 3394 1622 3394 
Q 1922 3394 2156 3267 
Q 2391 3141 2538 2938 
L 2538 4581 
L 3097 4581 
L 3097 0 
L 2575 0 
z
M 797 1656 
Q 797 1019 1065 703 
Q 1334 388 1700 388 
Q 2069 388 2326 689 
Q 2584 991 2584 1609 
Q 2584 2291 2321 2609 
Q 2059 2928 1675 2928 
Q 1300 2928 1048 2622 
Q 797 2316 797 1656 
z
" transform="scale(0.015625)"/>
      </defs>
      <use xlink:href="#ArialMT-43"/>
      <use xlink:href="#ArialMT-72" x="72.216797"/>
      <use xlink:href="#ArialMT-75" x="105.517578"/>
      <use xlink:href="#ArialMT-64" x="161.132812"/>
      <use xlink:href="#ArialMT-65" x="216.748047"/>
      <use xlink:href="#ArialMT-4f" x="272.363281"/>
      <use xlink:href="#ArialMT-69" x="350.146484"/>
      <use xlink:href="#ArialMT-6c" x="372.363281"/>
     </g>
    </g>
   </g>
   <g id="PathCollection_1">
    <path d="M 188.331862 579.564313 
L 190.438256 579.476743 
L 192.745877 579.391438 
L 197.159893 578.57319 
L 201.573909 576.921734 
L 205.987924 574.573076 
L 206.482256 574.265098 
L 210.40194 571.879774 
L 214.580218 569.053454 
L 214.815956 568.898616 
L 219.229971 566.126936 
L 223.133754 563.841809 
L 223.643987 563.549743 
L 228.058002 562.101125 
L 232.472018 562.134324 
L 236.886034 563.441233 
L 241.300049 563.38609 
L 245.714065 561.789988 
L 250.128081 559.335745 
L 251.061384 558.630164 
L 254.542096 555.866366 
L 257.212169 553.418519 
L 258.956112 551.872711 
L 262.668911 548.206875 
L 263.370127 547.607592 
L 267.784143 543.511657 
L 268.327275 542.99523 
L 272.198159 539.958158 
L 274.793194 537.783585 
L 276.612174 536.571102 
L 281.02619 533.460103 
L 282.22404 532.571941 
L 285.440206 530.682782 
L 289.854221 527.614349 
L 290.216313 527.360296 
L 294.268237 525.090395 
L 298.403727 522.148651 
L 298.682252 521.981102 
L 303.096268 519.655444 
L 307.342095 516.937007 
L 307.510284 516.844369 
L 311.924299 515.453145 
L 316.338315 514.815439 
L 320.752331 514.443413 
L 325.166346 512.925068 
L 327.105748 511.725362 
L 329.580362 510.413793 
L 333.994377 507.31028 
L 334.928417 506.513717 
L 338.408393 503.724269 
L 341.103465 501.302073 
L 342.822409 499.819407 
L 346.655643 496.090428 
L 347.236424 495.541295 
L 351.61478 490.878783 
L 351.65044 490.841599 
L 356.064456 485.714802 
L 356.103738 485.667139 
L 360.263803 480.455494 
L 360.478471 480.187803 
L 364.212187 475.243849 
L 364.892487 474.335991 
L 368.025918 470.032205 
L 369.306502 468.249505 
L 371.767456 464.82056 
L 373.720518 462.092199 
L 375.527331 459.608915 
L 378.134534 456.137168 
L 379.462423 454.397271 
L 382.548549 450.671583 
L 383.775312 449.185626 
L 386.962565 445.78171 
L 388.595475 443.973981 
L 391.376581 441.306204 
L 393.853104 438.762337 
L 395.790596 437.014703 
L 399.306222 433.550692 
L 400.204612 432.745323 
L 404.618627 428.441297 
L 404.723049 428.339047 
L 409.032643 424.277169 
L 410.172259 423.127403 
L 413.446659 419.812196 
L 415.228909 417.915758 
L 417.860674 415.021051 
L 419.911865 412.704113 
L 422.27469 409.912315 
L 424.318253 407.492469 
L 426.688706 404.567054 
L 428.581467 402.280824 
L 431.102721 399.132026 
L 432.828322 397.069179 
L 435.516737 393.738056 
L 437.136473 391.857535 
L 439.930752 388.417267 
L 441.499494 386.64589 
L 444.344768 383.077031 
L 445.80516 381.434245 
L 448.758784 377.471895 
L 449.821754 376.222601 
L 453.172799 371.021891 
L 453.18103 371.010956 
L 454.969894 365.799311 
L 455.198115 360.587666 
L 456.073221 355.376022 
L 457.586815 351.336531 
L 458.023899 350.164377 
L 461.070406 344.952732 
L 462.000831 343.537013 
L 464.505928 339.741088 
L 466.414846 336.919946 
L 468.072472 334.529443 
L 470.828862 330.480164 
L 471.668829 329.317798 
L 475.200214 324.106154 
L 475.242877 324.035031 
L 478.846564 318.894509 
L 479.656893 317.440368 
L 482.262585 313.682864 
L 484.070909 310.169028 
L 485.246441 308.47122 
L 487.681379 303.259575 
L 488.484924 300.430734 
L 489.442672 298.04793 
L 490.584592 292.836286 
L 491.573701 287.624641 
L 492.89894 282.49461 
L 492.921755 282.412996 
L 494.927163 277.201352 
L 496.888828 271.989707 
L 497.312956 270.757338 
L 498.778793 266.778062 
L 500.099146 261.566418 
L 500.522997 256.354773 
L 499.68794 251.143128 
L 498.440889 245.931484 
L 498.272429 240.719839 
L 499.088144 235.508194 
L 500.003523 230.29655 
L 497.312956 227.645988 
L 492.89894 229.356654 
L 491.50739 230.29655 
L 488.484924 232.165753 
L 484.070909 234.833844 
L 482.993419 235.508194 
L 479.656893 237.200497 
L 475.242877 239.00135 
L 470.828862 240.244874 
L 466.414846 240.146349 
L 462.000831 237.14577 
L 460.505642 235.508194 
L 457.586815 232.528826 
L 453.172799 231.362441 
L 448.758784 231.798061 
L 444.344768 232.77361 
L 439.930752 234.055426 
L 435.879017 235.508194 
L 435.516737 235.611566 
L 431.102721 236.798485 
L 426.688706 237.943954 
L 422.27469 239.005882 
L 417.860674 239.905434 
L 413.446659 240.719839 
L 409.032643 241.300494 
L 404.618627 242.437151 
L 400.204612 244.483199 
L 397.995416 245.931484 
L 395.790596 246.830703 
L 391.376581 249.097408 
L 388.006227 251.143128 
L 386.962565 251.572864 
L 382.548549 253.515573 
L 378.134534 255.712871 
L 376.930565 256.354773 
L 373.720518 257.644163 
L 369.306502 259.773291 
L 366.159401 261.566418 
L 364.892487 262.157285 
L 360.478471 264.600973 
L 357.1584 266.778062 
L 356.064456 267.411956 
L 351.65044 270.263872 
L 349.267144 271.989707 
L 347.236424 273.378518 
L 342.822409 276.698495 
L 342.158417 277.201352 
L 338.408393 280.032035 
L 335.504003 282.412996 
L 333.994377 283.688993 
L 329.61834 287.624641 
L 329.580362 287.660496 
L 325.166346 291.791614 
L 324.110261 292.836286 
L 320.752331 296.369927 
L 319.225255 298.04793 
L 316.338315 301.352275 
L 314.730415 303.259575 
L 311.924299 306.545659 
L 310.34095 308.47122 
L 307.510284 311.614108 
L 305.739692 313.682864 
L 303.096268 316.298655 
L 300.659838 318.894509 
L 298.682252 320.602441 
L 295.012957 324.106154 
L 294.268237 324.679587 
L 289.854221 328.252568 
L 288.589522 329.317798 
L 285.440206 331.513182 
L 281.580703 334.529443 
L 281.02619 334.900769 
L 276.612174 337.6306 
L 273.426472 339.741088 
L 272.198159 340.464132 
L 267.784143 342.715557 
L 263.813798 344.952732 
L 263.370127 345.177962 
L 258.956112 346.770901 
L 254.542096 348.963866 
L 252.888653 350.164377 
L 250.128081 351.828347 
L 247.008057 355.376022 
L 245.714065 356.620827 
L 242.857419 360.587666 
L 241.300049 362.431763 
L 239.060434 365.799311 
L 236.886034 368.627217 
L 235.32252 371.010956 
L 232.472018 374.868209 
L 231.566718 376.222601 
L 228.058002 381.044572 
L 227.788523 381.434245 
L 223.91212 386.64589 
L 223.643987 387.013697 
L 219.980658 391.857535 
L 219.229971 392.933935 
L 216.088829 397.069179 
L 214.815956 398.958313 
L 212.262994 402.280824 
L 210.40194 405.095725 
L 208.532222 407.492469 
L 205.987924 411.334513 
L 204.911766 412.704113 
L 201.573909 417.636341 
L 201.358734 417.915758 
L 197.658063 423.127403 
L 197.159893 423.779573 
L 193.832494 428.339047 
L 192.745877 429.695752 
L 189.977423 433.550692 
L 188.331862 435.683349 
L 186.223262 438.762337 
L 183.917846 442.068151 
L 182.70207 443.973981 
L 179.543811 449.185626 
L 179.503831 449.25639 
L 176.640379 454.397271 
L 175.089815 457.852282 
L 174.263387 459.608915 
L 172.315984 464.82056 
L 170.854916 470.032205 
L 170.675799 470.807736 
L 169.540949 475.243849 
L 168.304391 480.455494 
L 166.914659 485.667139 
L 166.261784 487.663825 
L 165.142323 490.878783 
L 163.1013 496.090428 
L 161.847768 499.075315 
L 160.862984 501.302073 
L 158.629091 506.513717 
L 157.433752 509.446169 
L 156.456289 511.725362 
L 154.435695 516.937007 
L 153.019737 520.887566 
L 152.542535 522.148651 
L 150.853553 527.360296 
L 149.587664 532.571941 
L 149.104208 537.783585 
L 150.172263 542.99523 
L 153.019737 547.32891 
L 154.070862 548.206875 
L 157.433752 550.176671 
L 161.847768 550.781744 
L 166.261784 550.235208 
L 170.675799 549.195851 
L 175.089815 548.237865 
L 179.503831 549.102099 
L 181.391767 553.418519 
L 180.060125 558.630164 
L 179.503831 559.934954 
L 177.583227 563.841809 
L 175.336239 569.053454 
L 175.089815 570.830564 
L 174.438023 574.265098 
L 175.089815 575.369941 
L 179.503831 578.516813 
L 183.917846 579.326091 
L 186.796506 579.476743 
z
M 227.361636 516.937007 
L 223.643987 515.159446 
L 219.229971 513.282664 
L 215.636143 511.725362 
L 214.815956 511.224705 
L 210.948015 506.513717 
L 210.54237 501.302073 
L 211.253152 496.090428 
L 212.161906 490.878783 
L 212.982703 485.667139 
L 213.779595 480.455494 
L 214.809352 475.243849 
L 214.815956 475.217166 
L 215.98565 470.032205 
L 217.263453 464.82056 
L 218.549516 459.608915 
L 219.229971 457.069173 
L 219.853686 454.397271 
L 221.603224 449.185626 
L 223.643987 445.12954 
L 224.119574 443.973981 
L 227.176332 438.762337 
L 228.058002 437.583161 
L 230.624904 433.550692 
L 232.472018 431.12193 
L 234.325792 428.339047 
L 236.886034 424.955584 
L 238.133353 423.127403 
L 241.300049 418.855672 
L 241.945043 417.915758 
L 245.67819 412.704113 
L 245.714065 412.65001 
L 249.028405 407.492469 
L 250.128081 405.70756 
L 252.188326 402.280824 
L 254.542096 398.218625 
L 255.19496 397.069179 
L 257.83954 391.857535 
L 258.956112 389.67087 
L 260.427089 386.64589 
L 263.370127 381.434245 
L 266.529577 376.222601 
L 267.784143 374.56958 
L 270.356969 371.010956 
L 272.198159 368.874326 
L 274.796697 365.799311 
L 276.612174 363.905848 
L 279.823126 360.587666 
L 281.02619 359.440535 
L 285.437564 355.376022 
L 285.440206 355.373681 
L 289.854221 351.482274 
L 291.409323 350.164377 
L 294.268237 347.764154 
L 297.736056 344.952732 
L 298.682252 344.17131 
L 303.096268 340.511442 
L 303.997215 339.741088 
L 307.510284 336.664747 
L 309.913744 334.529443 
L 311.924299 332.681077 
L 315.53343 329.317798 
L 316.338315 328.538192 
L 320.752331 324.231622 
L 320.877198 324.106154 
L 325.166346 319.720775 
L 325.987535 318.894509 
L 329.580362 315.21191 
L 331.135673 313.682864 
L 333.994377 310.800608 
L 336.473408 308.47122 
L 338.408393 306.580969 
L 342.1742 303.259575 
L 342.822409 302.653353 
L 347.236424 298.904472 
L 348.365616 298.04793 
L 351.65044 295.378679 
L 355.37578 292.836286 
L 356.064456 292.318607 
L 360.478471 289.446836 
L 363.861215 287.624641 
L 364.892487 287.002692 
L 369.306502 284.84919 
L 373.720518 283.143051 
L 376.252757 282.412996 
L 378.134534 281.802924 
L 382.548549 280.857527 
L 386.962565 280.123829 
L 391.376581 279.343768 
L 395.790596 278.375434 
L 400.204612 277.210822 
L 400.236248 277.201352 
L 404.618627 275.698604 
L 409.032643 274.191845 
L 413.446659 272.757923 
L 416.242454 271.989707 
L 417.860674 271.484963 
L 422.27469 270.576574 
L 426.688706 270.349474 
L 431.102721 271.100716 
L 433.382246 271.989707 
L 435.516737 272.76985 
L 439.930752 274.652755 
L 444.344768 276.476039 
L 445.936002 277.201352 
L 448.758784 278.82058 
L 452.074544 282.412996 
L 453.172799 285.829075 
L 453.581218 287.624641 
L 453.534846 292.836286 
L 453.172799 294.940126 
L 452.740017 298.04793 
L 451.637197 303.259575 
L 450.371602 308.47122 
L 449.015438 313.682864 
L 448.758784 314.836892 
L 447.981627 318.894509 
L 446.956422 324.106154 
L 445.495991 329.317798 
L 444.344768 332.08583 
L 443.465571 334.529443 
L 440.803784 339.741088 
L 439.930752 341.117671 
L 437.708567 344.952732 
L 435.516737 348.201032 
L 434.274757 350.164377 
L 431.102721 354.69678 
L 430.647916 355.376022 
L 426.976691 360.587666 
L 426.688706 361.00336 
L 423.396044 365.799311 
L 422.27469 367.473264 
L 419.917268 371.010956 
L 417.860674 374.193631 
L 416.553994 376.222601 
L 413.446659 381.138011 
L 413.259299 381.434245 
L 410.086593 386.64589 
L 409.032643 388.326476 
L 406.778935 391.857535 
L 404.618627 395.023196 
L 403.174037 397.069179 
L 400.204612 400.958281 
L 399.141444 402.280824 
L 395.790596 406.151748 
L 394.54974 407.492469 
L 391.376581 410.726716 
L 389.278156 412.704113 
L 386.962565 414.811726 
L 383.242896 417.915758 
L 382.548549 418.492626 
L 378.134534 422.050572 
L 376.714323 423.127403 
L 373.720518 425.475807 
L 369.655764 428.339047 
L 369.306502 428.604741 
L 364.892487 431.976149 
L 362.588985 433.550692 
L 360.478471 435.165995 
L 356.064456 438.244756 
L 355.32746 438.762337 
L 351.65044 441.692048 
L 348.468418 443.973981 
L 347.236424 444.999827 
L 342.822409 448.597079 
L 342.121754 449.185626 
L 338.408393 452.686628 
L 336.538705 454.397271 
L 333.994377 456.9595 
L 331.310323 459.608915 
L 329.580362 461.423634 
L 326.278794 464.82056 
L 325.166346 465.995208 
L 321.228675 470.032205 
L 320.752331 470.524381 
L 316.338315 474.954364 
L 316.034081 475.243849 
L 311.924299 479.271351 
L 310.5841 480.455494 
L 307.510284 483.305596 
L 304.608489 485.667139 
L 303.096268 486.995186 
L 298.682252 490.385797 
L 297.97148 490.878783 
L 294.268237 493.712189 
L 290.584302 496.090428 
L 289.854221 496.621741 
L 285.440206 499.480733 
L 282.231926 501.302073 
L 281.02619 502.071068 
L 276.612174 504.576565 
L 272.802516 506.513717 
L 272.198159 506.855337 
L 267.784143 509.107248 
L 263.370127 511.117497 
L 261.92519 511.725362 
L 258.956112 513.083904 
L 254.542096 514.897782 
L 250.128081 516.489073 
L 248.637395 516.937007 
L 245.714065 517.923768 
L 241.300049 518.969847 
L 236.886034 519.404449 
L 232.472018 518.926668 
L 228.058002 517.284522 
z
" clip-path="url(#p8e95773e3c)" style="fill: #d9bdaa"/>
   </g>
   <g id="PathCollection_2">
    <path d="M 228.058002 517.284522 
L 232.472018 518.926668 
L 236.886034 519.404449 
L 241.300049 518.969847 
L 245.714065 517.923768 
L 248.637395 516.937007 
L 250.128081 516.489073 
L 254.542096 514.897782 
L 258.956112 513.083904 
L 261.92519 511.725362 
L 263.370127 511.117497 
L 267.784143 509.107248 
L 272.198159 506.855337 
L 272.802516 506.513717 
L 276.612174 504.576565 
L 281.02619 502.071068 
L 282.231926 501.302073 
L 285.440206 499.480733 
L 289.854221 496.621741 
L 290.584302 496.090428 
L 294.268237 493.712189 
L 297.97148 490.878783 
L 298.682252 490.385797 
L 303.096268 486.995186 
L 304.608489 485.667139 
L 307.510284 483.305596 
L 310.5841 480.455494 
L 311.924299 479.271351 
L 316.034081 475.243849 
L 316.338315 474.954364 
L 320.752331 470.524381 
L 321.228675 470.032205 
L 325.166346 465.995208 
L 326.278794 464.82056 
L 329.580362 461.423634 
L 331.310323 459.608915 
L 333.994377 456.9595 
L 336.538705 454.397271 
L 338.408393 452.686628 
L 342.121754 449.185626 
L 342.822409 448.597079 
L 347.236424 444.999827 
L 348.468418 443.973981 
L 351.65044 441.692048 
L 355.32746 438.762337 
L 356.064456 438.244756 
L 360.478471 435.165995 
L 362.588985 433.550692 
L 364.892487 431.976149 
L 369.306502 428.604741 
L 369.655764 428.339047 
L 373.720518 425.475807 
L 376.714323 423.127403 
L 378.134534 422.050572 
L 382.548549 418.492626 
L 383.242896 417.915758 
L 386.962565 414.811726 
L 389.278156 412.704113 
L 391.376581 410.726716 
L 394.54974 407.492469 
L 395.790596 406.151748 
L 399.141444 402.280824 
L 400.204612 400.958281 
L 403.174037 397.069179 
L 404.618627 395.023196 
L 406.778935 391.857535 
L 409.032643 388.326476 
L 410.086593 386.64589 
L 413.259299 381.434245 
L 413.446659 381.138011 
L 416.553994 376.222601 
L 417.860674 374.193631 
L 419.917268 371.010956 
L 422.27469 367.473264 
L 423.396044 365.799311 
L 426.688706 361.00336 
L 426.976691 360.587666 
L 430.647916 355.376022 
L 431.102721 354.69678 
L 434.274757 350.164377 
L 435.516737 348.201032 
L 437.708567 344.952732 
L 439.930752 341.117671 
L 440.803784 339.741088 
L 443.465571 334.529443 
L 444.344768 332.08583 
L 445.495991 329.317798 
L 446.956422 324.106154 
L 447.981627 318.894509 
L 448.758784 314.836892 
L 449.015438 313.682864 
L 450.371602 308.47122 
L 451.637197 303.259575 
L 452.740017 298.04793 
L 453.172799 294.940126 
L 453.534846 292.836286 
L 453.581218 287.624641 
L 453.172799 285.829075 
L 452.074544 282.412996 
L 448.758784 278.82058 
L 445.936002 277.201352 
L 444.344768 276.476039 
L 439.930752 274.652755 
L 435.516737 272.76985 
L 433.382246 271.989707 
L 431.102721 271.100716 
L 426.688706 270.349474 
L 422.27469 270.576574 
L 417.860674 271.484963 
L 416.242454 271.989707 
L 413.446659 272.757923 
L 409.032643 274.191845 
L 404.618627 275.698604 
L 400.236248 277.201352 
L 400.204612 277.210822 
L 395.790596 278.375434 
L 391.376581 279.343768 
L 386.962565 280.123829 
L 382.548549 280.857527 
L 378.134534 281.802924 
L 376.252757 282.412996 
L 373.720518 283.143051 
L 369.306502 284.84919 
L 364.892487 287.002692 
L 363.861215 287.624641 
L 360.478471 289.446836 
L 356.064456 292.318607 
L 355.37578 292.836286 
L 351.65044 295.378679 
L 348.365616 298.04793 
L 347.236424 298.904472 
L 342.822409 302.653353 
L 342.1742 303.259575 
L 338.408393 306.580969 
L 336.473408 308.47122 
L 333.994377 310.800608 
L 331.135673 313.682864 
L 329.580362 315.21191 
L 325.987535 318.894509 
L 325.166346 319.720775 
L 320.877198 324.106154 
L 320.752331 324.231622 
L 316.338315 328.538192 
L 315.53343 329.317798 
L 311.924299 332.681077 
L 309.913744 334.529443 
L 307.510284 336.664747 
L 303.997215 339.741088 
L 303.096268 340.511442 
L 298.682252 344.17131 
L 297.736056 344.952732 
L 294.268237 347.764154 
L 291.409323 350.164377 
L 289.854221 351.482274 
L 285.440206 355.373681 
L 285.437564 355.376022 
L 281.02619 359.440535 
L 279.823126 360.587666 
L 276.612174 363.905848 
L 274.796697 365.799311 
L 272.198159 368.874326 
L 270.356969 371.010956 
L 267.784143 374.56958 
L 266.529577 376.222601 
L 263.370127 381.434245 
L 260.427089 386.64589 
L 258.956112 389.67087 
L 257.83954 391.857535 
L 255.19496 397.069179 
L 254.542096 398.218625 
L 252.188326 402.280824 
L 250.128081 405.70756 
L 249.028405 407.492469 
L 245.714065 412.65001 
L 245.67819 412.704113 
L 241.945043 417.915758 
L 241.300049 418.855672 
L 238.133353 423.127403 
L 236.886034 424.955584 
L 234.325792 428.339047 
L 232.472018 431.12193 
L 230.624904 433.550692 
L 228.058002 437.583161 
L 227.176332 438.762337 
L 224.119574 443.973981 
L 223.643987 445.12954 
L 221.603224 449.185626 
L 219.853686 454.397271 
L 219.229971 457.069173 
L 218.549516 459.608915 
L 217.263453 464.82056 
L 215.98565 470.032205 
L 214.815956 475.217166 
L 214.809352 475.243849 
L 213.779595 480.455494 
L 212.982703 485.667139 
L 212.161906 490.878783 
L 211.253152 496.090428 
L 210.54237 501.302073 
L 210.948015 506.513717 
L 214.815956 511.224705 
L 215.636143 511.725362 
L 219.229971 513.282664 
L 223.643987 515.159446 
L 227.361636 516.937007 
z
M 244.228379 496.090428 
L 241.300049 493.506129 
L 239.409792 490.878783 
L 238.059324 485.667139 
L 238.109449 480.455494 
L 238.532845 475.243849 
L 238.861749 470.032205 
L 239.11517 464.82056 
L 239.584648 459.608915 
L 240.363942 454.397271 
L 241.300049 449.271685 
L 241.313775 449.185626 
L 242.197287 443.973981 
L 243.276835 438.762337 
L 244.874298 433.550692 
L 245.714065 431.735691 
L 247.063645 428.339047 
L 249.830884 423.127403 
L 250.128081 422.670592 
L 252.917825 417.915758 
L 254.542096 415.496533 
L 256.274664 412.704113 
L 258.956112 408.774316 
L 259.782742 407.492469 
L 263.370127 402.280824 
L 266.849821 397.069179 
L 267.784143 395.677534 
L 270.379686 391.857535 
L 272.198159 389.195613 
L 273.997157 386.64589 
L 276.612174 382.974515 
L 277.767045 381.434245 
L 281.02619 377.149742 
L 281.779865 376.222601 
L 285.440206 371.79862 
L 286.142255 371.010956 
L 289.854221 366.919267 
L 290.946824 365.799311 
L 294.268237 362.44281 
L 296.217462 360.587666 
L 298.682252 358.2606 
L 301.856116 355.376022 
L 303.096268 354.249437 
L 307.510284 350.277919 
L 307.636751 350.164377 
L 311.924299 346.183451 
L 313.253028 344.952732 
L 316.338315 342.00459 
L 318.682103 339.741088 
L 320.752331 337.691993 
L 323.910269 334.529443 
L 325.166346 333.252505 
L 329.027112 329.317798 
L 329.580362 328.751201 
L 333.994377 324.297055 
L 334.192068 324.106154 
L 338.408393 320.026241 
L 339.651214 318.894509 
L 342.822409 316.017562 
L 345.618115 313.682864 
L 347.236424 312.33367 
L 351.65044 309.065938 
L 352.617858 308.47122 
L 356.064456 306.326548 
L 360.478471 304.077092 
L 362.690144 303.259575 
L 364.892487 302.414887 
L 369.306502 301.096376 
L 373.720518 299.963932 
L 378.134534 298.891441 
L 381.516304 298.04793 
L 382.548549 297.760746 
L 386.962565 296.517964 
L 391.376581 295.422564 
L 395.790596 294.478451 
L 400.204612 293.680699 
L 404.618627 293.014534 
L 406.120707 292.836286 
L 409.032643 292.421132 
L 413.446659 292.036781 
L 417.860674 292.025551 
L 422.27469 292.497508 
L 423.764129 292.836286 
L 426.688706 293.516157 
L 431.102721 295.585199 
L 433.772209 298.04793 
L 435.516737 301.587666 
L 436.045141 303.259575 
L 436.329913 308.47122 
L 435.640739 313.682864 
L 435.516737 314.14156 
L 434.379868 318.894509 
L 432.719964 324.106154 
L 431.102721 328.125081 
L 430.662143 329.317798 
L 428.467381 334.529443 
L 426.688706 338.048145 
L 425.890461 339.741088 
L 423.081425 344.952732 
L 422.27469 346.277389 
L 420.080571 350.164377 
L 417.860674 353.598648 
L 416.803508 355.376022 
L 413.446659 360.424805 
L 413.347721 360.587666 
L 409.987049 365.799311 
L 409.032643 367.175042 
L 406.561544 371.010956 
L 404.618627 373.798721 
L 403.027778 376.222601 
L 400.204612 380.188678 
L 399.35123 381.434245 
L 395.790596 386.238409 
L 395.492298 386.64589 
L 391.418848 391.857535 
L 391.376581 391.909741 
L 387.084334 397.069179 
L 386.962565 397.208506 
L 382.548549 402.111358 
L 382.389186 402.280824 
L 378.134534 406.732821 
L 377.363437 407.492469 
L 373.720518 411.06712 
L 371.938749 412.704113 
L 369.306502 415.134779 
L 366.078131 417.915758 
L 364.892487 418.95206 
L 360.478471 422.643061 
L 359.891893 423.127403 
L 356.064456 426.371416 
L 353.613937 428.339047 
L 351.65044 429.976441 
L 347.236424 433.497988 
L 347.173067 433.550692 
L 342.822409 437.335075 
L 341.138668 438.762337 
L 338.408393 441.223714 
L 335.270242 443.973981 
L 333.994377 445.182505 
L 329.61523 449.185626 
L 329.580362 449.220405 
L 325.166346 453.554789 
L 324.243825 454.397271 
L 320.752331 457.899788 
L 318.879941 459.608915 
L 316.338315 462.148679 
L 313.344608 464.82056 
L 311.924299 466.192683 
L 307.510284 469.950829 
L 307.398839 470.032205 
L 303.096268 473.46915 
L 300.47458 475.243849 
L 298.682252 476.552395 
L 294.268237 479.288201 
L 292.036207 480.455494 
L 289.854221 481.686757 
L 285.440206 483.880188 
L 281.491903 485.667139 
L 281.02619 485.891807 
L 276.612174 487.993497 
L 272.198159 490.060971 
L 270.443176 490.878783 
L 267.784143 492.184018 
L 263.370127 494.207762 
L 258.956112 495.978856 
L 258.55752 496.090428 
L 254.542096 497.286397 
L 250.128081 497.750774 
L 245.714065 496.89072 
z
" clip-path="url(#p8e95773e3c)" style="fill: #d6b195"/>
   </g>
   <g id="PathCollection_3">
    <path d="M 245.714065 496.89072 
L 250.128081 497.750774 
L 254.542096 497.286397 
L 258.55752 496.090428 
L 258.956112 495.978856 
L 263.370127 494.207762 
L 267.784143 492.184018 
L 270.443176 490.878783 
L 272.198159 490.060971 
L 276.612174 487.993497 
L 281.02619 485.891807 
L 281.491903 485.667139 
L 285.440206 483.880188 
L 289.854221 481.686757 
L 292.036207 480.455494 
L 294.268237 479.288201 
L 298.682252 476.552395 
L 300.47458 475.243849 
L 303.096268 473.46915 
L 307.398839 470.032205 
L 307.510284 469.950829 
L 311.924299 466.192683 
L 313.344608 464.82056 
L 316.338315 462.148679 
L 318.879941 459.608915 
L 320.752331 457.899788 
L 324.243825 454.397271 
L 325.166346 453.554789 
L 329.580362 449.220405 
L 329.61523 449.185626 
L 333.994377 445.182505 
L 335.270242 443.973981 
L 338.408393 441.223714 
L 341.138668 438.762337 
L 342.822409 437.335075 
L 347.173067 433.550692 
L 347.236424 433.497988 
L 351.65044 429.976441 
L 353.613937 428.339047 
L 356.064456 426.371416 
L 359.891893 423.127403 
L 360.478471 422.643061 
L 364.892487 418.95206 
L 366.078131 417.915758 
L 369.306502 415.134779 
L 371.938749 412.704113 
L 373.720518 411.06712 
L 377.363437 407.492469 
L 378.134534 406.732821 
L 382.389186 402.280824 
L 382.548549 402.111358 
L 386.962565 397.208506 
L 387.084334 397.069179 
L 391.376581 391.909741 
L 391.418848 391.857535 
L 395.492298 386.64589 
L 395.790596 386.238409 
L 399.35123 381.434245 
L 400.204612 380.188678 
L 403.027778 376.222601 
L 404.618627 373.798721 
L 406.561544 371.010956 
L 409.032643 367.175042 
L 409.987049 365.799311 
L 413.347721 360.587666 
L 413.446659 360.424805 
L 416.803508 355.376022 
L 417.860674 353.598648 
L 420.080571 350.164377 
L 422.27469 346.277389 
L 423.081425 344.952732 
L 425.890461 339.741088 
L 426.688706 338.048145 
L 428.467381 334.529443 
L 430.662143 329.317798 
L 431.102721 328.125081 
L 432.719964 324.106154 
L 434.379868 318.894509 
L 435.516737 314.14156 
L 435.640739 313.682864 
L 436.329913 308.47122 
L 436.045141 303.259575 
L 435.516737 301.587666 
L 433.772209 298.04793 
L 431.102721 295.585199 
L 426.688706 293.516157 
L 423.764129 292.836286 
L 422.27469 292.497508 
L 417.860674 292.025551 
L 413.446659 292.036781 
L 409.032643 292.421132 
L 406.120707 292.836286 
L 404.618627 293.014534 
L 400.204612 293.680699 
L 395.790596 294.478451 
L 391.376581 295.422564 
L 386.962565 296.517964 
L 382.548549 297.760746 
L 381.516304 298.04793 
L 378.134534 298.891441 
L 373.720518 299.963932 
L 369.306502 301.096376 
L 364.892487 302.414887 
L 362.690144 303.259575 
L 360.478471 304.077092 
L 356.064456 306.326548 
L 352.617858 308.47122 
L 351.65044 309.065938 
L 347.236424 312.33367 
L 345.618115 313.682864 
L 342.822409 316.017562 
L 339.651214 318.894509 
L 338.408393 320.026241 
L 334.192068 324.106154 
L 333.994377 324.297055 
L 329.580362 328.751201 
L 329.027112 329.317798 
L 325.166346 333.252505 
L 323.910269 334.529443 
L 320.752331 337.691993 
L 318.682103 339.741088 
L 316.338315 342.00459 
L 313.253028 344.952732 
L 311.924299 346.183451 
L 307.636751 350.164377 
L 307.510284 350.277919 
L 303.096268 354.249437 
L 301.856116 355.376022 
L 298.682252 358.2606 
L 296.217462 360.587666 
L 294.268237 362.44281 
L 290.946824 365.799311 
L 289.854221 366.919267 
L 286.142255 371.010956 
L 285.440206 371.79862 
L 281.779865 376.222601 
L 281.02619 377.149742 
L 277.767045 381.434245 
L 276.612174 382.974515 
L 273.997157 386.64589 
L 272.198159 389.195613 
L 270.379686 391.857535 
L 267.784143 395.677534 
L 266.849821 397.069179 
L 263.370127 402.280824 
L 259.782742 407.492469 
L 258.956112 408.774316 
L 256.274664 412.704113 
L 254.542096 415.496533 
L 252.917825 417.915758 
L 250.128081 422.670592 
L 249.830884 423.127403 
L 247.063645 428.339047 
L 245.714065 431.735691 
L 244.874298 433.550692 
L 243.276835 438.762337 
L 242.197287 443.973981 
L 241.313775 449.185626 
L 241.300049 449.271685 
L 240.363942 454.397271 
L 239.584648 459.608915 
L 239.11517 464.82056 
L 238.861749 470.032205 
L 238.532845 475.243849 
L 238.109449 480.455494 
L 238.059324 485.667139 
L 239.409792 490.878783 
L 241.300049 493.506129 
L 244.228379 496.090428 
z
M 258.382737 475.243849 
L 255.701893 470.032205 
L 254.759778 464.82056 
L 254.542096 461.649964 
L 254.415464 459.608915 
L 254.388545 454.397271 
L 254.542096 451.695525 
L 254.667389 449.185626 
L 255.182764 443.973981 
L 255.875295 438.762337 
L 256.764586 433.550692 
L 258.021331 428.339047 
L 258.956112 425.722538 
L 259.790364 423.127403 
L 262.111944 417.915758 
L 263.370127 415.680904 
L 264.905114 412.704113 
L 267.784143 407.987334 
L 268.066114 407.492469 
L 271.457628 402.280824 
L 272.198159 401.226966 
L 275.06785 397.069179 
L 276.612174 394.963187 
L 278.907749 391.857535 
L 281.02619 389.115773 
L 283.001177 386.64589 
L 285.440206 383.677134 
L 287.394672 381.434245 
L 289.854221 378.635312 
L 292.148406 376.222601 
L 294.268237 373.969127 
L 297.317071 371.010956 
L 298.682252 369.647468 
L 302.913921 365.799311 
L 303.096268 365.625891 
L 307.510284 361.609872 
L 308.727518 360.587666 
L 311.924299 357.701115 
L 314.707256 355.376022 
L 316.338315 353.889905 
L 320.711365 350.164377 
L 320.752331 350.126055 
L 325.166346 346.072182 
L 326.493005 344.952732 
L 329.580362 342.041918 
L 332.262963 339.741088 
L 333.994377 338.090791 
L 338.152429 334.529443 
L 338.408393 334.289563 
L 342.822409 330.448999 
L 344.337036 329.317798 
L 347.236424 326.945914 
L 351.414557 324.106154 
L 351.65044 323.933985 
L 356.064456 320.941416 
L 359.80159 318.894509 
L 360.478471 318.496708 
L 364.892487 316.060282 
L 369.306502 314.049631 
L 370.189188 313.682864 
L 373.720518 312.088508 
L 378.134534 310.435775 
L 382.548549 309.091228 
L 385.1173 308.47122 
L 386.962565 307.977031 
L 391.376581 307.055362 
L 395.790596 306.335359 
L 400.204612 305.792869 
L 404.618627 305.465093 
L 409.032643 305.46183 
L 413.446659 305.986628 
L 417.860674 307.441254 
L 419.468098 308.47122 
L 422.27469 311.973919 
L 423.040194 313.682864 
L 423.521418 318.894509 
L 422.723912 324.106154 
L 422.27469 325.465704 
L 421.109371 329.317798 
L 418.989247 334.529443 
L 417.860674 336.781576 
L 416.486092 339.741088 
L 413.684869 344.952732 
L 413.446659 345.356056 
L 410.829083 350.164377 
L 409.032643 353.136065 
L 407.793833 355.376022 
L 404.618627 360.587666 
L 401.548576 365.799311 
L 400.204612 367.851642 
L 398.284138 371.010956 
L 395.790596 374.684004 
L 394.798261 376.222601 
L 391.376581 380.988366 
L 391.063757 381.434245 
L 387.072505 386.64589 
L 386.962565 386.782307 
L 382.777848 391.857535 
L 382.548549 392.123825 
L 378.134534 397.030634 
L 378.098311 397.069179 
L 373.720518 401.68173 
L 373.111868 402.280824 
L 369.306502 406.07315 
L 367.773774 407.492469 
L 364.892487 410.228695 
L 362.095064 412.704113 
L 360.478471 414.176447 
L 356.112388 417.915758 
L 356.064456 417.957945 
L 351.65044 421.846656 
L 350.136302 423.127403 
L 347.236424 425.659266 
L 344.072297 428.339047 
L 342.822409 429.432992 
L 338.408393 433.233626 
L 338.03759 433.550692 
L 333.994377 437.164966 
L 332.13482 438.762337 
L 329.580362 441.084485 
L 326.218731 443.973981 
L 325.166346 444.94753 
L 320.752331 448.743853 
L 320.187713 449.185626 
L 316.338315 452.489412 
L 313.781723 454.397271 
L 311.924299 455.943866 
L 307.510284 459.061881 
L 306.583165 459.608915 
L 303.096268 461.940711 
L 298.682252 464.33449 
L 297.621477 464.82056 
L 294.268237 466.576393 
L 289.854221 468.554519 
L 286.199502 470.032205 
L 285.440206 470.382258 
L 281.02619 472.295226 
L 276.612174 474.047862 
L 273.248636 475.243849 
L 272.198159 475.667252 
L 267.784143 476.907912 
L 263.370127 477.30256 
L 258.956112 475.807146 
z
" clip-path="url(#p8e95773e3c)" style="fill: #cba588"/>
   </g>
   <g id="PathCollection_4">
    <path d="M 258.956112 475.807146 
L 263.370127 477.30256 
L 267.784143 476.907912 
L 272.198159 475.667252 
L 273.248636 475.243849 
L 276.612174 474.047862 
L 281.02619 472.295226 
L 285.440206 470.382258 
L 286.199502 470.032205 
L 289.854221 468.554519 
L 294.268237 466.576393 
L 297.621477 464.82056 
L 298.682252 464.33449 
L 303.096268 461.940711 
L 306.583165 459.608915 
L 307.510284 459.061881 
L 311.924299 455.943866 
L 313.781723 454.397271 
L 316.338315 452.489412 
L 320.187713 449.185626 
L 320.752331 448.743853 
L 325.166346 444.94753 
L 326.218731 443.973981 
L 329.580362 441.084485 
L 332.13482 438.762337 
L 333.994377 437.164966 
L 338.03759 433.550692 
L 338.408393 433.233626 
L 342.822409 429.432992 
L 344.072297 428.339047 
L 347.236424 425.659266 
L 350.136302 423.127403 
L 351.65044 421.846656 
L 356.064456 417.957945 
L 356.112388 417.915758 
L 360.478471 414.176447 
L 362.095064 412.704113 
L 364.892487 410.228695 
L 367.773774 407.492469 
L 369.306502 406.07315 
L 373.111868 402.280824 
L 373.720518 401.68173 
L 378.098311 397.069179 
L 378.134534 397.030634 
L 382.548549 392.123825 
L 382.777848 391.857535 
L 386.962565 386.782307 
L 387.072505 386.64589 
L 391.063757 381.434245 
L 391.376581 380.988366 
L 394.798261 376.222601 
L 395.790596 374.684004 
L 398.284138 371.010956 
L 400.204612 367.851642 
L 401.548576 365.799311 
L 404.618627 360.587666 
L 407.793833 355.376022 
L 409.032643 353.136065 
L 410.829083 350.164377 
L 413.446659 345.356056 
L 413.684869 344.952732 
L 416.486092 339.741088 
L 417.860674 336.781576 
L 418.989247 334.529443 
L 421.109371 329.317798 
L 422.27469 325.465704 
L 422.723912 324.106154 
L 423.521418 318.894509 
L 423.040194 313.682864 
L 422.27469 311.973919 
L 419.468098 308.47122 
L 417.860674 307.441254 
L 413.446659 305.986628 
L 409.032643 305.46183 
L 404.618627 305.465093 
L 400.204612 305.792869 
L 395.790596 306.335359 
L 391.376581 307.055362 
L 386.962565 307.977031 
L 385.1173 308.47122 
L 382.548549 309.091228 
L 378.134534 310.435775 
L 373.720518 312.088508 
L 370.189188 313.682864 
L 369.306502 314.049631 
L 364.892487 316.060282 
L 360.478471 318.496708 
L 359.80159 318.894509 
L 356.064456 320.941416 
L 351.65044 323.933985 
L 351.414557 324.106154 
L 347.236424 326.945914 
L 344.337036 329.317798 
L 342.822409 330.448999 
L 338.408393 334.289563 
L 338.152429 334.529443 
L 333.994377 338.090791 
L 332.262963 339.741088 
L 329.580362 342.041918 
L 326.493005 344.952732 
L 325.166346 346.072182 
L 320.752331 350.126055 
L 320.711365 350.164377 
L 316.338315 353.889905 
L 314.707256 355.376022 
L 311.924299 357.701115 
L 308.727518 360.587666 
L 307.510284 361.609872 
L 303.096268 365.625891 
L 302.913921 365.799311 
L 298.682252 369.647468 
L 297.317071 371.010956 
L 294.268237 373.969127 
L 292.148406 376.222601 
L 289.854221 378.635312 
L 287.394672 381.434245 
L 285.440206 383.677134 
L 283.001177 386.64589 
L 281.02619 389.115773 
L 278.907749 391.857535 
L 276.612174 394.963187 
L 275.06785 397.069179 
L 272.198159 401.226966 
L 271.457628 402.280824 
L 268.066114 407.492469 
L 267.784143 407.987334 
L 264.905114 412.704113 
L 263.370127 415.680904 
L 262.111944 417.915758 
L 259.790364 423.127403 
L 258.956112 425.722538 
L 258.021331 428.339047 
L 256.764586 433.550692 
L 255.875295 438.762337 
L 255.182764 443.973981 
L 254.667389 449.185626 
L 254.542096 451.695525 
L 254.388545 454.397271 
L 254.415464 459.608915 
L 254.542096 461.649964 
L 254.759778 464.82056 
L 255.701893 470.032205 
L 258.382737 475.243849 
z
M 271.023084 459.608915 
L 267.784143 455.749468 
L 267.210031 454.397271 
L 266.281476 449.185626 
L 266.270965 443.973981 
L 266.781948 438.762337 
L 267.598123 433.550692 
L 267.784143 432.602107 
L 268.569016 428.339047 
L 269.812087 423.127403 
L 271.482801 417.915758 
L 272.198159 416.264768 
L 273.628457 412.704113 
L 276.274417 407.492469 
L 276.612174 406.94635 
L 279.358892 402.280824 
L 281.02619 399.837233 
L 282.864238 397.069179 
L 285.440206 393.646482 
L 286.781489 391.857535 
L 289.854221 388.151102 
L 291.125699 386.64589 
L 294.268237 383.185409 
L 295.920846 381.434245 
L 298.682252 378.628524 
L 301.181272 376.222601 
L 303.096268 374.399485 
L 306.89287 371.010956 
L 307.510284 370.449615 
L 311.924299 366.596439 
L 312.86397 365.799311 
L 316.338315 362.764486 
L 318.976001 360.587666 
L 320.752331 359.036012 
L 325.166346 355.428655 
L 325.230795 355.376022 
L 329.580362 351.582008 
L 331.3485 350.164377 
L 333.994377 347.84673 
L 337.671879 344.952732 
L 338.408393 344.308992 
L 342.822409 340.739577 
L 344.194522 339.741088 
L 347.236424 337.280888 
L 351.202634 334.529443 
L 351.65044 334.183615 
L 356.064456 331.08748 
L 359.023339 329.317798 
L 360.478471 328.356708 
L 364.892487 325.836511 
L 368.497469 324.106154 
L 369.306502 323.680753 
L 373.720518 321.758062 
L 378.134534 320.228425 
L 382.548549 319.025479 
L 383.18254 318.894509 
L 386.962565 318.05632 
L 391.376581 317.387382 
L 395.790596 317.066666 
L 400.204612 317.232626 
L 404.618627 318.193284 
L 406.105173 318.894509 
L 409.032643 321.541274 
L 410.446335 324.106154 
L 410.873592 329.317798 
L 409.884249 334.529443 
L 409.032643 336.855329 
L 408.082214 339.741088 
L 405.842988 344.952732 
L 404.618627 347.354407 
L 403.31859 350.164377 
L 400.614657 355.376022 
L 400.204612 356.090612 
L 397.833222 360.587666 
L 395.790596 364.077084 
L 394.850669 365.799311 
L 391.676662 371.010956 
L 391.376581 371.459613 
L 388.308732 376.222601 
L 386.962565 378.090636 
L 384.578102 381.434245 
L 382.548549 384.019935 
L 380.453513 386.64589 
L 378.134534 389.358039 
L 375.910606 391.857535 
L 373.720518 394.228154 
L 370.939564 397.069179 
L 369.306502 398.726146 
L 365.553649 402.280824 
L 364.892487 402.91831 
L 360.478471 406.953452 
L 359.860449 407.492469 
L 356.064456 410.924815 
L 353.971682 412.704113 
L 351.65044 414.766416 
L 347.913923 417.915758 
L 347.236424 418.512363 
L 342.822409 422.309679 
L 341.837099 423.127403 
L 338.408393 426.119906 
L 335.746326 428.339047 
L 333.994377 429.872257 
L 329.580362 433.550692 
L 325.166346 437.254297 
L 323.21265 438.762337 
L 320.752331 440.784296 
L 316.440301 443.973981 
L 316.338315 444.055205 
L 311.924299 447.194747 
L 308.662581 449.185626 
L 307.510284 449.95163 
L 303.096268 452.465138 
L 299.067377 454.397271 
L 298.682252 454.600766 
L 294.268237 456.587728 
L 289.854221 458.246304 
L 285.534811 459.608915 
L 285.440206 459.642315 
L 281.02619 460.703347 
L 276.612174 461.122474 
L 272.198159 460.336965 
z
" clip-path="url(#p8e95773e3c)" style="fill: #be987c"/>
   </g>
   <g id="PathCollection_5">
    <path d="M 272.198159 460.336965 
L 276.612174 461.122474 
L 281.02619 460.703347 
L 285.440206 459.642315 
L 285.534811 459.608915 
L 289.854221 458.246304 
L 294.268237 456.587728 
L 298.682252 454.600766 
L 299.067377 454.397271 
L 303.096268 452.465138 
L 307.510284 449.95163 
L 308.662581 449.185626 
L 311.924299 447.194747 
L 316.338315 444.055205 
L 316.440301 443.973981 
L 320.752331 440.784296 
L 323.21265 438.762337 
L 325.166346 437.254297 
L 329.580362 433.550692 
L 333.994377 429.872257 
L 335.746326 428.339047 
L 338.408393 426.119906 
L 341.837099 423.127403 
L 342.822409 422.309679 
L 347.236424 418.512363 
L 347.913923 417.915758 
L 351.65044 414.766416 
L 353.971682 412.704113 
L 356.064456 410.924815 
L 359.860449 407.492469 
L 360.478471 406.953452 
L 364.892487 402.91831 
L 365.553649 402.280824 
L 369.306502 398.726146 
L 370.939564 397.069179 
L 373.720518 394.228154 
L 375.910606 391.857535 
L 378.134534 389.358039 
L 380.453513 386.64589 
L 382.548549 384.019935 
L 384.578102 381.434245 
L 386.962565 378.090636 
L 388.308732 376.222601 
L 391.376581 371.459613 
L 391.676662 371.010956 
L 394.850669 365.799311 
L 395.790596 364.077084 
L 397.833222 360.587666 
L 400.204612 356.090612 
L 400.614657 355.376022 
L 403.31859 350.164377 
L 404.618627 347.354407 
L 405.842988 344.952732 
L 408.082214 339.741088 
L 409.032643 336.855329 
L 409.884249 334.529443 
L 410.873592 329.317798 
L 410.446335 324.106154 
L 409.032643 321.541274 
L 406.105173 318.894509 
L 404.618627 318.193284 
L 400.204612 317.232626 
L 395.790596 317.066666 
L 391.376581 317.387382 
L 386.962565 318.05632 
L 383.18254 318.894509 
L 382.548549 319.025479 
L 378.134534 320.228425 
L 373.720518 321.758062 
L 369.306502 323.680753 
L 368.497469 324.106154 
L 364.892487 325.836511 
L 360.478471 328.356708 
L 359.023339 329.317798 
L 356.064456 331.08748 
L 351.65044 334.183615 
L 351.202634 334.529443 
L 347.236424 337.280888 
L 344.194522 339.741088 
L 342.822409 340.739577 
L 338.408393 344.308992 
L 337.671879 344.952732 
L 333.994377 347.84673 
L 331.3485 350.164377 
L 329.580362 351.582008 
L 325.230795 355.376022 
L 325.166346 355.428655 
L 320.752331 359.036012 
L 318.976001 360.587666 
L 316.338315 362.764486 
L 312.86397 365.799311 
L 311.924299 366.596439 
L 307.510284 370.449615 
L 306.89287 371.010956 
L 303.096268 374.399485 
L 301.181272 376.222601 
L 298.682252 378.628524 
L 295.920846 381.434245 
L 294.268237 383.185409 
L 291.125699 386.64589 
L 289.854221 388.151102 
L 286.781489 391.857535 
L 285.440206 393.646482 
L 282.864238 397.069179 
L 281.02619 399.837233 
L 279.358892 402.280824 
L 276.612174 406.94635 
L 276.274417 407.492469 
L 273.628457 412.704113 
L 272.198159 416.264768 
L 271.482801 417.915758 
L 269.812087 423.127403 
L 268.569016 428.339047 
L 267.784143 432.602107 
L 267.598123 433.550692 
L 266.781948 438.762337 
L 266.270965 443.973981 
L 266.281476 449.185626 
L 267.210031 454.397271 
L 267.784143 455.749468 
L 271.023084 459.608915 
z
M 284.085008 449.185626 
L 281.02619 448.297845 
L 277.378707 443.973981 
L 276.612174 439.492871 
L 276.528357 438.762337 
L 276.612174 437.682355 
L 276.911032 433.550692 
L 277.783599 428.339047 
L 278.934908 423.127403 
L 280.370379 417.915758 
L 281.02619 416.034584 
L 282.12228 412.704113 
L 284.345793 407.492469 
L 285.440206 405.474407 
L 287.089715 402.280824 
L 289.854221 397.951118 
L 290.397222 397.069179 
L 294.268237 391.857535 
L 298.682252 386.654598 
L 298.689542 386.64589 
L 303.096268 381.989332 
L 303.619425 381.434245 
L 307.510284 377.650342 
L 308.985133 376.222601 
L 311.924299 373.523259 
L 314.699717 371.010956 
L 316.338315 369.557175 
L 320.690301 365.799311 
L 320.752331 365.745179 
L 325.166346 361.892825 
L 326.719745 360.587666 
L 329.580362 358.12274 
L 332.974546 355.376022 
L 333.994377 354.506123 
L 338.408393 350.972701 
L 339.493325 350.164377 
L 342.822409 347.508016 
L 346.419851 344.952732 
L 347.236424 344.319472 
L 351.65044 341.250408 
L 354.126489 339.741088 
L 356.064456 338.441377 
L 360.478471 335.903643 
L 363.283156 334.529443 
L 364.892487 333.662557 
L 369.306502 331.721512 
L 373.720518 330.152793 
L 376.74825 329.317798 
L 378.134534 328.90674 
L 382.548549 328.037298 
L 386.962565 327.649664 
L 391.376581 327.956718 
L 395.394472 329.317798 
L 395.790596 329.560088 
L 399.102895 334.529443 
L 399.316288 339.741088 
L 398.222918 344.952732 
L 396.490192 350.164377 
L 395.790596 351.738098 
L 394.316982 355.376022 
L 391.861557 360.587666 
L 391.376581 361.470938 
L 389.139612 365.799311 
L 386.962565 369.49249 
L 386.10051 371.010956 
L 382.712013 376.222601 
L 382.548549 376.447907 
L 378.929525 381.434245 
L 378.134534 382.424187 
L 374.664402 386.64589 
L 373.720518 387.712966 
L 369.896199 391.857535 
L 369.306502 392.471137 
L 364.892487 396.833773 
L 364.64509 397.069179 
L 360.478471 400.975294 
L 359.007188 402.280824 
L 356.064456 404.928456 
L 353.046429 407.492469 
L 351.65044 408.72093 
L 347.236424 412.411921 
L 346.87637 412.704113 
L 342.822409 416.150703 
L 340.629647 417.915758 
L 338.408393 419.806583 
L 334.27554 423.127403 
L 333.994377 423.366958 
L 329.580362 426.962324 
L 327.759762 428.339047 
L 325.166346 430.428873 
L 320.929727 433.550692 
L 320.752331 433.689886 
L 316.338315 436.853337 
L 313.326462 438.762337 
L 311.924299 439.709621 
L 307.510284 442.302657 
L 304.191804 443.973981 
L 303.096268 444.562925 
L 298.682252 446.495377 
L 294.268237 448.015989 
L 289.854221 449.0886 
L 288.518034 449.185626 
L 285.440206 449.425524 
z
" clip-path="url(#p8e95773e3c)" style="fill: #af8c71"/>
   </g>
   <g id="PathCollection_6">
    <path d="M 285.440206 449.425524 
L 288.518034 449.185626 
L 289.854221 449.0886 
L 294.268237 448.015989 
L 298.682252 446.495377 
L 303.096268 444.562925 
L 304.191804 443.973981 
L 307.510284 442.302657 
L 311.924299 439.709621 
L 313.326462 438.762337 
L 316.338315 436.853337 
L 320.752331 433.689886 
L 320.929727 433.550692 
L 325.166346 430.428873 
L 327.759762 428.339047 
L 329.580362 426.962324 
L 333.994377 423.366958 
L 334.27554 423.127403 
L 338.408393 419.806583 
L 340.629647 417.915758 
L 342.822409 416.150703 
L 346.87637 412.704113 
L 347.236424 412.411921 
L 351.65044 408.72093 
L 353.046429 407.492469 
L 356.064456 404.928456 
L 359.007188 402.280824 
L 360.478471 400.975294 
L 364.64509 397.069179 
L 364.892487 396.833773 
L 369.306502 392.471137 
L 369.896199 391.857535 
L 373.720518 387.712966 
L 374.664402 386.64589 
L 378.134534 382.424187 
L 378.929525 381.434245 
L 382.548549 376.447907 
L 382.712013 376.222601 
L 386.10051 371.010956 
L 386.962565 369.49249 
L 389.139612 365.799311 
L 391.376581 361.470938 
L 391.861557 360.587666 
L 394.316982 355.376022 
L 395.790596 351.738098 
L 396.490192 350.164377 
L 398.222918 344.952732 
L 399.316288 339.741088 
L 399.102895 334.529443 
L 395.790596 329.560088 
L 395.394472 329.317798 
L 391.376581 327.956718 
L 386.962565 327.649664 
L 382.548549 328.037298 
L 378.134534 328.90674 
L 376.74825 329.317798 
L 373.720518 330.152793 
L 369.306502 331.721512 
L 364.892487 333.662557 
L 363.283156 334.529443 
L 360.478471 335.903643 
L 356.064456 338.441377 
L 354.126489 339.741088 
L 351.65044 341.250408 
L 347.236424 344.319472 
L 346.419851 344.952732 
L 342.822409 347.508016 
L 339.493325 350.164377 
L 338.408393 350.972701 
L 333.994377 354.506123 
L 332.974546 355.376022 
L 329.580362 358.12274 
L 326.719745 360.587666 
L 325.166346 361.892825 
L 320.752331 365.745179 
L 320.690301 365.799311 
L 316.338315 369.557175 
L 314.699717 371.010956 
L 311.924299 373.523259 
L 308.985133 376.222601 
L 307.510284 377.650342 
L 303.619425 381.434245 
L 303.096268 381.989332 
L 298.689542 386.64589 
L 298.682252 386.654598 
L 294.268237 391.857535 
L 290.397222 397.069179 
L 289.854221 397.951118 
L 287.089715 402.280824 
L 285.440206 405.474407 
L 284.345793 407.492469 
L 282.12228 412.704113 
L 281.02619 416.034584 
L 280.370379 417.915758 
L 278.934908 423.127403 
L 277.783599 428.339047 
L 276.911032 433.550692 
L 276.612174 437.682355 
L 276.528357 438.762337 
L 276.612174 439.492871 
L 277.378707 443.973981 
L 281.02619 448.297845 
L 284.085008 449.185626 
z
M 287.974523 433.550692 
L 287.361444 428.339047 
L 287.997932 423.127403 
L 289.199676 417.915758 
L 289.854221 415.826157 
L 290.79065 412.704113 
L 292.76721 407.492469 
L 294.268237 404.409988 
L 295.258283 402.280824 
L 298.336254 397.069179 
L 298.682252 396.593209 
L 302.006623 391.857535 
L 303.096268 390.556497 
L 306.280021 386.64589 
L 307.510284 385.332639 
L 311.086337 381.434245 
L 311.924299 380.610717 
L 316.338315 376.222601 
L 320.752331 372.069945 
L 321.87867 371.010956 
L 325.166346 368.059803 
L 327.739487 365.799311 
L 329.580362 364.205615 
L 333.953193 360.587666 
L 333.994377 360.553056 
L 338.408393 357.033216 
L 340.662194 355.376022 
L 342.822409 353.727104 
L 347.236424 350.69663 
L 348.109076 350.164377 
L 351.65044 347.877895 
L 356.064456 345.399937 
L 357.01279 344.952732 
L 360.478471 343.202031 
L 364.892487 341.380523 
L 369.306502 339.911564 
L 370.069498 339.741088 
L 373.720518 338.879694 
L 378.134534 338.43306 
L 382.548549 338.887242 
L 384.530845 339.741088 
L 386.962565 341.990275 
L 388.307699 344.952732 
L 388.410485 350.164377 
L 387.321982 355.376022 
L 386.962565 356.323357 
L 385.448407 360.587666 
L 383.116405 365.799311 
L 382.548549 366.815575 
L 380.268697 371.010956 
L 378.134534 374.353221 
L 376.948778 376.222601 
L 373.720518 380.603381 
L 373.10193 381.434245 
L 369.306502 385.925796 
L 368.684269 386.64589 
L 364.892487 390.634685 
L 363.694084 391.857535 
L 360.478471 394.945274 
L 358.184828 397.069179 
L 356.064456 398.981214 
L 352.250621 402.280824 
L 351.65044 402.802285 
L 347.236424 406.489387 
L 345.999586 407.492469 
L 342.822409 410.113915 
L 339.541178 412.704113 
L 338.408393 413.634426 
L 333.994377 417.075532 
L 332.861009 417.915758 
L 329.580362 420.464074 
L 325.897085 423.127403 
L 325.166346 423.687787 
L 320.752331 426.775188 
L 318.292229 428.339047 
L 316.338315 429.653862 
L 311.924299 432.239817 
L 309.330692 433.550692 
L 307.510284 434.517699 
L 303.096268 436.320326 
L 298.682252 437.581791 
L 294.268237 437.978778 
L 289.854221 436.255084 
z
" clip-path="url(#p8e95773e3c)" style="fill: #9e7f67"/>
   </g>
   <g id="PathCollection_7">
    <path d="M 289.854221 436.255084 
L 294.268237 437.978778 
L 298.682252 437.581791 
L 303.096268 436.320326 
L 307.510284 434.517699 
L 309.330692 433.550692 
L 311.924299 432.239817 
L 316.338315 429.653862 
L 318.292229 428.339047 
L 320.752331 426.775188 
L 325.166346 423.687787 
L 325.897085 423.127403 
L 329.580362 420.464074 
L 332.861009 417.915758 
L 333.994377 417.075532 
L 338.408393 413.634426 
L 339.541178 412.704113 
L 342.822409 410.113915 
L 345.999586 407.492469 
L 347.236424 406.489387 
L 351.65044 402.802285 
L 352.250621 402.280824 
L 356.064456 398.981214 
L 358.184828 397.069179 
L 360.478471 394.945274 
L 363.694084 391.857535 
L 364.892487 390.634685 
L 368.684269 386.64589 
L 369.306502 385.925796 
L 373.10193 381.434245 
L 373.720518 380.603381 
L 376.948778 376.222601 
L 378.134534 374.353221 
L 380.268697 371.010956 
L 382.548549 366.815575 
L 383.116405 365.799311 
L 385.448407 360.587666 
L 386.962565 356.323357 
L 387.321982 355.376022 
L 388.410485 350.164377 
L 388.307699 344.952732 
L 386.962565 341.990275 
L 384.530845 339.741088 
L 382.548549 338.887242 
L 378.134534 338.43306 
L 373.720518 338.879694 
L 370.069498 339.741088 
L 369.306502 339.911564 
L 364.892487 341.380523 
L 360.478471 343.202031 
L 357.01279 344.952732 
L 356.064456 345.399937 
L 351.65044 347.877895 
L 348.109076 350.164377 
L 347.236424 350.69663 
L 342.822409 353.727104 
L 340.662194 355.376022 
L 338.408393 357.033216 
L 333.994377 360.553056 
L 333.953193 360.587666 
L 329.580362 364.205615 
L 327.739487 365.799311 
L 325.166346 368.059803 
L 321.87867 371.010956 
L 320.752331 372.069945 
L 316.338315 376.222601 
L 311.924299 380.610717 
L 311.086337 381.434245 
L 307.510284 385.332639 
L 306.280021 386.64589 
L 303.096268 390.556497 
L 302.006623 391.857535 
L 298.682252 396.593209 
L 298.336254 397.069179 
L 295.258283 402.280824 
L 294.268237 404.409988 
L 292.76721 407.492469 
L 290.79065 412.704113 
L 289.854221 415.826157 
L 289.199676 417.915758 
L 287.997932 423.127403 
L 287.361444 428.339047 
L 287.974523 433.550692 
z
M 299.588138 423.127403 
L 298.682252 417.915758 
L 299.613882 412.704113 
L 301.198745 407.492469 
L 303.096268 402.947389 
L 303.366875 402.280824 
L 306.162597 397.069179 
L 307.510284 395.066547 
L 309.590644 391.857535 
L 311.924299 388.886809 
L 313.626196 386.64589 
L 316.338315 383.598479 
L 318.215611 381.434245 
L 320.752331 378.850275 
L 323.301511 376.222601 
L 325.166346 374.464996 
L 328.858502 371.010956 
L 329.580362 370.37259 
L 333.994377 366.619688 
L 335.007278 365.799311 
L 338.408393 363.143397 
L 341.90948 360.587666 
L 342.822409 359.92308 
L 347.236424 357.107095 
L 350.274058 355.376022 
L 351.65044 354.58008 
L 356.064456 352.522329 
L 360.478471 350.824828 
L 362.931107 350.164377 
L 364.892487 349.634695 
L 369.306502 349.170364 
L 373.720518 349.787869 
L 374.45429 350.164377 
L 378.028224 355.376022 
L 377.727939 360.587666 
L 376.105896 365.799311 
L 373.773232 371.010956 
L 373.720518 371.0964 
L 370.567067 376.222601 
L 369.306502 377.931616 
L 366.704179 381.434245 
L 364.892487 383.528724 
L 362.163366 386.64589 
L 360.478471 388.35763 
L 356.983059 391.857535 
L 356.064456 392.706302 
L 351.65044 396.690771 
L 351.227335 397.069179 
L 347.236424 400.403112 
L 344.978064 402.280824 
L 342.822409 404.016373 
L 338.422663 407.492469 
L 338.408393 407.503741 
L 333.994377 410.775034 
L 331.318771 412.704113 
L 329.580362 413.968719 
L 325.166346 416.935367 
L 323.576304 417.915758 
L 320.752331 419.680828 
L 316.338315 422.115009 
L 314.119001 423.127403 
L 311.924299 424.13924 
L 307.510284 425.41715 
L 303.096268 425.523523 
z
" clip-path="url(#p8e95773e3c)" style="fill: #8c715d"/>
   </g>
   <g id="PathCollection_8">
    <path d="M 303.096268 425.523523 
L 307.510284 425.41715 
L 311.924299 424.13924 
L 314.119001 423.127403 
L 316.338315 422.115009 
L 320.752331 419.680828 
L 323.576304 417.915758 
L 325.166346 416.935367 
L 329.580362 413.968719 
L 331.318771 412.704113 
L 333.994377 410.775034 
L 338.408393 407.503741 
L 338.422663 407.492469 
L 342.822409 404.016373 
L 344.978064 402.280824 
L 347.236424 400.403112 
L 351.227335 397.069179 
L 351.65044 396.690771 
L 356.064456 392.706302 
L 356.983059 391.857535 
L 360.478471 388.35763 
L 362.163366 386.64589 
L 364.892487 383.528724 
L 366.704179 381.434245 
L 369.306502 377.931616 
L 370.567067 376.222601 
L 373.720518 371.0964 
L 373.773232 371.010956 
L 376.105896 365.799311 
L 377.727939 360.587666 
L 378.028224 355.376022 
L 374.45429 350.164377 
L 373.720518 349.787869 
L 369.306502 349.170364 
L 364.892487 349.634695 
L 362.931107 350.164377 
L 360.478471 350.824828 
L 356.064456 352.522329 
L 351.65044 354.58008 
L 350.274058 355.376022 
L 347.236424 357.107095 
L 342.822409 359.92308 
L 341.90948 360.587666 
L 338.408393 363.143397 
L 335.007278 365.799311 
L 333.994377 366.619688 
L 329.580362 370.37259 
L 328.858502 371.010956 
L 325.166346 374.464996 
L 323.301511 376.222601 
L 320.752331 378.850275 
L 318.215611 381.434245 
L 316.338315 383.598479 
L 313.626196 386.64589 
L 311.924299 388.886809 
L 309.590644 391.857535 
L 307.510284 395.066547 
L 306.162597 397.069179 
L 303.366875 402.280824 
L 303.096268 402.947389 
L 301.198745 407.492469 
L 299.613882 412.704113 
L 298.682252 417.915758 
L 299.588138 423.127403 
z
M 311.21893 407.492469 
L 311.924299 403.207072 
L 312.076521 402.280824 
L 314.312632 397.069179 
L 316.338315 393.512707 
L 317.266545 391.857535 
L 320.752331 386.943102 
L 320.960319 386.64589 
L 325.166346 381.729051 
L 325.416998 381.434245 
L 329.580362 377.286864 
L 330.656878 376.222601 
L 333.994377 373.328361 
L 336.739426 371.010956 
L 338.408393 369.729817 
L 342.822409 366.646965 
L 344.21532 365.799311 
L 347.236424 364.124034 
L 351.65044 362.127696 
L 356.064456 360.587666 
L 360.478471 360.211846 
L 362.27188 360.587666 
L 364.892487 362.208478 
L 366.37287 365.799311 
L 365.473692 371.010956 
L 364.892487 372.156635 
L 362.849313 376.222601 
L 360.478471 379.625262 
L 359.2379 381.434245 
L 356.064456 385.033328 
L 354.676429 386.64589 
L 351.65044 389.548682 
L 349.31001 391.857535 
L 347.236424 393.634018 
L 343.321888 397.069179 
L 342.822409 397.467086 
L 338.408393 400.795926 
L 336.439868 402.280824 
L 333.994377 403.975834 
L 329.580362 406.932073 
L 328.608646 407.492469 
L 325.166346 409.335981 
L 320.752331 411.308724 
L 316.338315 412.56874 
L 311.924299 410.007303 
z
" clip-path="url(#p8e95773e3c)" style="fill: #796455"/>
   </g>
   <g id="PathCollection_9">
    <path d="M 311.924299 410.007303 
L 316.338315 412.56874 
L 320.752331 411.308724 
L 325.166346 409.335981 
L 328.608646 407.492469 
L 329.580362 406.932073 
L 333.994377 403.975834 
L 336.439868 402.280824 
L 338.408393 400.795926 
L 342.822409 397.467086 
L 343.321888 397.069179 
L 347.236424 393.634018 
L 349.31001 391.857535 
L 351.65044 389.548682 
L 354.676429 386.64589 
L 356.064456 385.033328 
L 359.2379 381.434245 
L 360.478471 379.625262 
L 362.849313 376.222601 
L 364.892487 372.156635 
L 365.473692 371.010956 
L 366.37287 365.799311 
L 364.892487 362.208478 
L 362.27188 360.587666 
L 360.478471 360.211846 
L 356.064456 360.587666 
L 351.65044 362.127696 
L 347.236424 364.124034 
L 344.21532 365.799311 
L 342.822409 366.646965 
L 338.408393 369.729817 
L 336.739426 371.010956 
L 333.994377 373.328361 
L 330.656878 376.222601 
L 329.580362 377.286864 
L 325.416998 381.434245 
L 325.166346 381.729051 
L 320.960319 386.64589 
L 320.752331 386.943102 
L 317.266545 391.857535 
L 316.338315 393.512707 
L 314.312632 397.069179 
L 312.076521 402.280824 
L 311.924299 403.207072 
L 311.21893 407.492469 
z
" clip-path="url(#p8e95773e3c)" style="fill: #66574c"/>
   </g>
   <g id="patch_3">
    <path d="M 72.815 651.06 
L 72.815 127.717714 
" style="fill: none; stroke: #ffffff; stroke-width: 1.875; stroke-linejoin: miter; stroke-linecap: square"/>
   </g>
   <g id="patch_4">
    <path d="M 72.815 651.06 
L 592.946571 651.06 
" style="fill: none; stroke: #ffffff; stroke-width: 1.875; stroke-linejoin: miter; stroke-linecap: square"/>
   </g>
  </g>
  <g id="axes_2">
   <g id="patch_5">
    <path d="M 72.815 109.671429 
L 592.946571 109.671429 
L 592.946571 19.44 
L 72.815 19.44 
z
" style="fill: #e5e5e5"/>
   </g>
   <g id="matplotlib.axis_3">
    <g id="xtick_10">
     <g id="line2d_19">
      <path d="M 72.815 109.671429 
L 72.815 19.44 
" clip-path="url(#p4601b3f290)" style="fill: none; stroke: #ffffff; stroke-width: 1.5; stroke-linecap: round"/>
     </g>
    </g>
    <g id="xtick_11">
     <g id="line2d_20">
      <path d="M 137.831446 109.671429 
L 137.831446 19.44 
" clip-path="url(#p4601b3f290)" style="fill: none; stroke: #ffffff; stroke-width: 1.5; stroke-linecap: round"/>
     </g>
    </g>
    <g id="xtick_12">
     <g id="line2d_21">
      <path d="M 202.847893 109.671429 
L 202.847893 19.44 
" clip-path="url(#p4601b3f290)" style="fill: none; stroke: #ffffff; stroke-width: 1.5; stroke-linecap: round"/>
     </g>
    </g>
    <g id="xtick_13">
     <g id="line2d_22">
      <path d="M 267.864339 109.671429 
L 267.864339 19.44 
" clip-path="url(#p4601b3f290)" style="fill: none; stroke: #ffffff; stroke-width: 1.5; stroke-linecap: round"/>
     </g>
    </g>
    <g id="xtick_14">
     <g id="line2d_23">
      <path d="M 332.880786 109.671429 
L 332.880786 19.44 
" clip-path="url(#p4601b3f290)" style="fill: none; stroke: #ffffff; stroke-width: 1.5; stroke-linecap: round"/>
     </g>
    </g>
    <g id="xtick_15">
     <g id="line2d_24">
      <path d="M 397.897232 109.671429 
L 397.897232 19.44 
" clip-path="url(#p4601b3f290)" style="fill: none; stroke: #ffffff; stroke-width: 1.5; stroke-linecap: round"/>
     </g>
    </g>
    <g id="xtick_16">
     <g id="line2d_25">
      <path d="M 462.913679 109.671429 
L 462.913679 19.44 
" clip-path="url(#p4601b3f290)" style="fill: none; stroke: #ffffff; stroke-width: 1.5; stroke-linecap: round"/>
     </g>
    </g>
    <g id="xtick_17">
     <g id="line2d_26">
      <path d="M 527.930125 109.671429 
L 527.930125 19.44 
" clip-path="url(#p4601b3f290)" style="fill: none; stroke: #ffffff; stroke-width: 1.5; stroke-linecap: round"/>
     </g>
    </g>
    <g id="xtick_18">
     <g id="line2d_27">
      <path d="M 592.946571 109.671429 
L 592.946571 19.44 
" clip-path="url(#p4601b3f290)" style="fill: none; stroke: #ffffff; stroke-width: 1.5; stroke-linecap: round"/>
     </g>
    </g>
   </g>
   <g id="matplotlib.axis_4">
    <g id="ytick_10"/>
    <g id="ytick_11"/>
   </g>
   <g id="PolyCollection_1">
    <path d="M -103.904274 109.669378 
L -103.904274 109.671429 
L -99.614187 109.671429 
L -95.324101 109.671429 
L -91.034014 109.671429 
L -86.743927 109.671429 
L -82.453841 109.671429 
L -78.163754 109.671429 
L -73.873668 109.671429 
L -69.583581 109.671429 
L -65.293495 109.671429 
L -61.003408 109.671429 
L -56.713322 109.671429 
L -52.423235 109.671429 
L -48.133148 109.671429 
L -43.843062 109.671429 
L -39.552975 109.671429 
L -35.262889 109.671429 
L -30.972802 109.671429 
L -26.682716 109.671429 
L -22.392629 109.671429 
L -18.102543 109.671429 
L -13.812456 109.671429 
L -9.522369 109.671429 
L -5.232283 109.671429 
L -0.942196 109.671429 
L 3.34789 109.671429 
L 7.637977 109.671429 
L 11.928063 109.671429 
L 16.21815 109.671429 
L 20.508236 109.671429 
L 24.798323 109.671429 
L 29.088409 109.671429 
L 33.378496 109.671429 
L 37.668583 109.671429 
L 41.958669 109.671429 
L 46.248756 109.671429 
L 50.538842 109.671429 
L 54.828929 109.671429 
L 59.119015 109.671429 
L 63.409102 109.671429 
L 67.699188 109.671429 
L 71.989275 109.671429 
L 76.279362 109.671429 
L 80.569448 109.671429 
L 84.859535 109.671429 
L 89.149621 109.671429 
L 93.439708 109.671429 
L 97.729794 109.671429 
L 102.019881 109.671429 
L 106.309967 109.671429 
L 110.600054 109.671429 
L 114.890141 109.671429 
L 119.180227 109.671429 
L 123.470314 109.671429 
L 127.7604 109.671429 
L 132.050487 109.671429 
L 136.340573 109.671429 
L 140.63066 109.671429 
L 144.920746 109.671429 
L 149.210833 109.671429 
L 153.50092 109.671429 
L 157.791006 109.671429 
L 162.081093 109.671429 
L 166.371179 109.671429 
L 170.661266 109.671429 
L 174.951352 109.671429 
L 179.241439 109.671429 
L 183.531525 109.671429 
L 187.821612 109.671429 
L 192.111699 109.671429 
L 196.401785 109.671429 
L 200.691872 109.671429 
L 204.981958 109.671429 
L 209.272045 109.671429 
L 213.562131 109.671429 
L 217.852218 109.671429 
L 222.142304 109.671429 
L 226.432391 109.671429 
L 230.722477 109.671429 
L 235.012564 109.671429 
L 239.302651 109.671429 
L 243.592737 109.671429 
L 247.882824 109.671429 
L 252.17291 109.671429 
L 256.462997 109.671429 
L 260.753083 109.671429 
L 265.04317 109.671429 
L 269.333256 109.671429 
L 273.623343 109.671429 
L 277.91343 109.671429 
L 282.203516 109.671429 
L 286.493603 109.671429 
L 290.783689 109.671429 
L 295.073776 109.671429 
L 299.363862 109.671429 
L 303.653949 109.671429 
L 307.944035 109.671429 
L 312.234122 109.671429 
L 316.524209 109.671429 
L 320.814295 109.671429 
L 325.104382 109.671429 
L 329.394468 109.671429 
L 333.684555 109.671429 
L 337.974641 109.671429 
L 342.264728 109.671429 
L 346.554814 109.671429 
L 350.844901 109.671429 
L 355.134988 109.671429 
L 359.425074 109.671429 
L 363.715161 109.671429 
L 368.005247 109.671429 
L 372.295334 109.671429 
L 376.58542 109.671429 
L 380.875507 109.671429 
L 385.165593 109.671429 
L 389.45568 109.671429 
L 393.745766 109.671429 
L 398.035853 109.671429 
L 402.32594 109.671429 
L 406.616026 109.671429 
L 410.906113 109.671429 
L 415.196199 109.671429 
L 419.486286 109.671429 
L 423.776372 109.671429 
L 428.066459 109.671429 
L 432.356545 109.671429 
L 436.646632 109.671429 
L 440.936719 109.671429 
L 445.226805 109.671429 
L 449.516892 109.671429 
L 453.806978 109.671429 
L 458.097065 109.671429 
L 462.387151 109.671429 
L 466.677238 109.671429 
L 470.967324 109.671429 
L 475.257411 109.671429 
L 479.547498 109.671429 
L 483.837584 109.671429 
L 488.127671 109.671429 
L 492.417757 109.671429 
L 496.707844 109.671429 
L 500.99793 109.671429 
L 505.288017 109.671429 
L 509.578103 109.671429 
L 513.86819 109.671429 
L 518.158277 109.671429 
L 522.448363 109.671429 
L 526.73845 109.671429 
L 531.028536 109.671429 
L 535.318623 109.671429 
L 539.608709 109.671429 
L 543.898796 109.671429 
L 548.188882 109.671429 
L 552.478969 109.671429 
L 556.769055 109.671429 
L 561.059142 109.671429 
L 565.349229 109.671429 
L 569.639315 109.671429 
L 573.929402 109.671429 
L 578.219488 109.671429 
L 582.509575 109.671429 
L 586.799661 109.671429 
L 591.089748 109.671429 
L 595.379834 109.671429 
L 599.669921 109.671429 
L 603.960008 109.671429 
L 608.250094 109.671429 
L 612.540181 109.671429 
L 616.830267 109.671429 
L 621.120354 109.671429 
L 625.41044 109.671429 
L 629.700527 109.671429 
L 633.990613 109.671429 
L 638.2807 109.671429 
L 642.570787 109.671429 
L 646.860873 109.671429 
L 651.15096 109.671429 
L 655.441046 109.671429 
L 659.731133 109.671429 
L 664.021219 109.671429 
L 668.311306 109.671429 
L 672.601392 109.671429 
L 676.891479 109.671429 
L 681.181566 109.671429 
L 685.471652 109.671429 
L 689.761739 109.671429 
L 694.051825 109.671429 
L 698.341912 109.671429 
L 702.631998 109.671429 
L 706.922085 109.671429 
L 711.212171 109.671429 
L 715.502258 109.671429 
L 719.792344 109.671429 
L 724.082431 109.671429 
L 728.372518 109.671429 
L 732.662604 109.671429 
L 736.952691 109.671429 
L 741.242777 109.671429 
L 745.532864 109.671429 
L 749.82295 109.671429 
L 749.82295 109.669379 
L 749.82295 109.669379 
L 745.532864 109.666633 
L 741.242777 109.661164 
L 736.952691 109.651325 
L 732.662604 109.635404 
L 728.372518 109.612361 
L 724.082431 109.582808 
L 719.792344 109.549754 
L 715.502258 109.518504 
L 711.212171 109.49536 
L 706.922085 109.485394 
L 702.631998 109.490238 
L 698.341912 109.507012 
L 694.051825 109.529023 
L 689.761739 109.547942 
L 685.471652 109.556546 
L 681.181566 109.550927 
L 676.891479 109.531461 
L 672.601392 109.502306 
L 668.311306 109.469712 
L 664.021219 109.439828 
L 659.731133 109.416974 
L 655.441046 109.403135 
L 651.15096 109.398711 
L 646.860873 109.403731 
L 642.570787 109.418453 
L 638.2807 109.442874 
L 633.990613 109.475634 
L 629.700527 109.513309 
L 625.41044 109.550761 
L 621.120354 109.582338 
L 616.830267 109.603218 
L 612.540181 109.610271 
L 608.250094 109.60237 
L 603.960008 109.580433 
L 599.669921 109.54737 
L 595.379834 109.507799 
L 591.089748 109.467237 
L 586.799661 109.430782 
L 582.509575 109.401768 
L 578.219488 109.380924 
L 573.929402 109.366242 
L 569.639315 109.35319 
L 565.349229 109.334947 
L 561.059142 109.302862 
L 556.769055 109.247786 
L 552.478969 109.162601 
L 548.188882 109.045126 
L 543.898796 108.899732 
L 539.608709 108.736336 
L 535.318623 108.566942 
L 531.028536 108.401416 
L 526.73845 108.244621 
L 522.448363 108.096054 
L 518.158277 107.951645 
L 513.86819 107.806444 
L 509.578103 107.656795 
L 505.288017 107.501055 
L 500.99793 107.33848 
L 496.707844 107.166563 
L 492.417757 106.977815 
L 488.127671 106.757685 
L 483.837584 106.485208 
L 479.547498 106.136784 
L 475.257411 105.691633 
L 470.967324 105.136033 
L 466.677238 104.463249 
L 462.387151 103.667536 
L 458.097065 102.733347 
L 453.806978 101.624645 
L 449.516892 100.282168 
L 445.226805 98.63591 
L 440.936719 96.633232 
L 436.646632 94.271568 
L 432.356545 91.615991 
L 428.066459 88.784818 
L 423.776372 85.903244 
L 419.486286 83.046015 
L 415.196199 80.19998 
L 410.906113 77.267162 
L 406.616026 74.105556 
L 402.32594 70.585098 
L 398.035853 66.633071 
L 393.745766 62.255587 
L 389.45568 57.537247 
L 385.165593 52.627935 
L 380.875507 47.722068 
L 376.58542 43.029542 
L 372.295334 38.738262 
L 368.005247 34.977035 
L 363.715161 31.795838 
L 359.425074 29.177209 
L 355.134988 27.07562 
L 350.844901 25.462348 
L 346.554814 24.347571 
L 342.264728 23.765893 
L 337.974641 23.736735 
L 333.684555 24.228268 
L 329.394468 25.150519 
L 325.104382 26.383511 
L 320.814295 27.825217 
L 316.524209 29.434631 
L 312.234122 31.249468 
L 307.944035 33.369725 
L 303.653949 35.911858 
L 299.363862 38.950882 
L 295.073776 42.475441 
L 290.783689 46.377852 
L 286.493603 50.485147 
L 282.203516 54.615759 
L 277.91343 58.633716 
L 273.623343 62.476599 
L 269.333256 66.150463 
L 265.04317 69.701413 
L 260.753083 73.179793 
L 256.462997 76.609805 
L 252.17291 79.9719 
L 247.882824 83.202058 
L 243.592737 86.209021 
L 239.302651 88.904569 
L 235.012564 91.234617 
L 230.722477 93.196685 
L 226.432391 94.835915 
L 222.142304 96.223701 
L 217.852218 97.431714 
L 213.562131 98.513996 
L 209.272045 99.502305 
L 204.981958 100.411429 
L 200.691872 101.247351 
L 196.401785 102.012964 
L 192.111699 102.7105 
L 187.821612 103.342762 
L 183.531525 103.914968 
L 179.241439 104.43667 
L 174.951352 104.921867 
L 170.661266 105.386361 
L 166.371179 105.843442 
L 162.081093 106.299953 
L 157.791006 106.754023 
L 153.50092 107.194628 
L 149.210833 107.603058 
L 144.920746 107.956842 
L 140.63066 108.236209 
L 136.340573 108.431357 
L 132.050487 108.547121 
L 127.7604 108.602155 
L 123.470314 108.622663 
L 119.180227 108.634038 
L 114.890141 108.654778 
L 110.600054 108.694967 
L 106.309967 108.758216 
L 102.019881 108.844046 
L 97.729794 108.948594 
L 93.439708 109.064027 
L 89.149621 109.178675 
L 84.859535 109.279363 
L 80.569448 109.355394 
L 76.279362 109.402087 
L 71.989275 109.421878 
L 67.699188 109.422486 
L 63.409102 109.413364 
L 59.119015 109.402433 
L 54.828929 109.394546 
L 50.538842 109.391772 
L 46.248756 109.394482 
L 41.958669 109.40203 
L 37.668583 109.412712 
L 33.378496 109.423642 
L 29.088409 109.43136 
L 24.798323 109.433239 
L 20.508236 109.428779 
L 16.21815 109.419775 
L 11.928063 109.409124 
L 7.637977 109.399177 
L 3.34789 109.390799 
L -0.942196 109.383668 
L -5.232283 109.37728 
L -9.522369 109.371764 
L -13.812456 109.367985 
L -18.102543 109.367163 
L -22.392629 109.370404 
L -26.682716 109.378319 
L -30.972802 109.390576 
L -35.262889 109.405528 
L -39.552975 109.420354 
L -43.843062 109.432141 
L -48.133148 109.439577 
L -52.423235 109.444188 
L -56.713322 109.450073 
L -61.003408 109.461998 
L -65.293495 109.482932 
L -69.583581 109.51248 
L -73.873668 109.547088 
L -78.163754 109.58173 
L -82.453841 109.611962 
L -86.743927 109.635269 
L -91.034014 109.651283 
L -95.324101 109.661152 
L -99.614187 109.66663 
L -103.904274 109.669378 
z
" clip-path="url(#p4601b3f290)" style="fill: #4d3c2f; fill-opacity: 0.25; stroke: #4d3c2f; stroke-width: 1.5"/>
   </g>
   <g id="patch_6">
    <path d="M 72.815 109.671429 
L 592.946571 109.671429 
" style="fill: none; stroke: #ffffff; stroke-width: 1.875; stroke-linejoin: miter; stroke-linecap: square"/>
   </g>
  </g>
  <g id="axes_3">
   <g id="patch_7">
    <path d="M 610.882143 651.06 
L 700.56 651.06 
L 700.56 127.717714 
L 610.882143 127.717714 
z
" style="fill: #e5e5e5"/>
   </g>
   <g id="matplotlib.axis_5">
    <g id="xtick_19"/>
    <g id="xtick_20"/>
   </g>
   <g id="matplotlib.axis_6">
    <g id="ytick_12">
     <g id="line2d_28">
      <path d="M 610.882143 651.06 
L 700.56 651.06 
" clip-path="url(#p9194e5d8c3)" style="fill: none; stroke: #ffffff; stroke-width: 1.5; stroke-linecap: round"/>
     </g>
    </g>
    <g id="ytick_13">
     <g id="line2d_29">
      <path d="M 610.882143 585.642214 
L 700.56 585.642214 
" clip-path="url(#p9194e5d8c3)" style="fill: none; stroke: #ffffff; stroke-width: 1.5; stroke-linecap: round"/>
     </g>
    </g>
    <g id="ytick_14">
     <g id="line2d_30">
      <path d="M 610.882143 520.224429 
L 700.56 520.224429 
" clip-path="url(#p9194e5d8c3)" style="fill: none; stroke: #ffffff; stroke-width: 1.5; stroke-linecap: round"/>
     </g>
    </g>
    <g id="ytick_15">
     <g id="line2d_31">
      <path d="M 610.882143 454.806643 
L 700.56 454.806643 
" clip-path="url(#p9194e5d8c3)" style="fill: none; stroke: #ffffff; stroke-width: 1.5; stroke-linecap: round"/>
     </g>
    </g>
    <g id="ytick_16">
     <g id="line2d_32">
      <path d="M 610.882143 389.388857 
L 700.56 389.388857 
" clip-path="url(#p9194e5d8c3)" style="fill: none; stroke: #ffffff; stroke-width: 1.5; stroke-linecap: round"/>
     </g>
    </g>
    <g id="ytick_17">
     <g id="line2d_33">
      <path d="M 610.882143 323.971071 
L 700.56 323.971071 
" clip-path="url(#p9194e5d8c3)" style="fill: none; stroke: #ffffff; stroke-width: 1.5; stroke-linecap: round"/>
     </g>
    </g>
    <g id="ytick_18">
     <g id="line2d_34">
      <path d="M 610.882143 258.553286 
L 700.56 258.553286 
" clip-path="url(#p9194e5d8c3)" style="fill: none; stroke: #ffffff; stroke-width: 1.5; stroke-linecap: round"/>
     </g>
    </g>
    <g id="ytick_19">
     <g id="line2d_35">
      <path d="M 610.882143 193.1355 
L 700.56 193.1355 
" clip-path="url(#p9194e5d8c3)" style="fill: none; stroke: #ffffff; stroke-width: 1.5; stroke-linecap: round"/>
     </g>
    </g>
    <g id="ytick_20">
     <g id="line2d_36">
      <path d="M 610.882143 127.717714 
L 700.56 127.717714 
" clip-path="url(#p9194e5d8c3)" style="fill: none; stroke: #ffffff; stroke-width: 1.5; stroke-linecap: round"/>
     </g>
    </g>
   </g>
   <g id="PolyCollection_2">
    <path d="M 610.884042 942.321664 
L 610.882143 942.321664 
L 610.882143 937.234577 
L 610.882143 932.14749 
L 610.882143 927.060403 
L 610.882143 921.973316 
L 610.882143 916.886229 
L 610.882143 911.799142 
L 610.882143 906.712055 
L 610.882143 901.624968 
L 610.882143 896.537882 
L 610.882143 891.450795 
L 610.882143 886.363708 
L 610.882143 881.276621 
L 610.882143 876.189534 
L 610.882143 871.102447 
L 610.882143 866.01536 
L 610.882143 860.928273 
L 610.882143 855.841186 
L 610.882143 850.754099 
L 610.882143 845.667012 
L 610.882143 840.579925 
L 610.882143 835.492838 
L 610.882143 830.405751 
L 610.882143 825.318665 
L 610.882143 820.231578 
L 610.882143 815.144491 
L 610.882143 810.057404 
L 610.882143 804.970317 
L 610.882143 799.88323 
L 610.882143 794.796143 
L 610.882143 789.709056 
L 610.882143 784.621969 
L 610.882143 779.534882 
L 610.882143 774.447795 
L 610.882143 769.360708 
L 610.882143 764.273621 
L 610.882143 759.186534 
L 610.882143 754.099447 
L 610.882143 749.012361 
L 610.882143 743.925274 
L 610.882143 738.838187 
L 610.882143 733.7511 
L 610.882143 728.664013 
L 610.882143 723.576926 
L 610.882143 718.489839 
L 610.882143 713.402752 
L 610.882143 708.315665 
L 610.882143 703.228578 
L 610.882143 698.141491 
L 610.882143 693.054404 
L 610.882143 687.967317 
L 610.882143 682.88023 
L 610.882143 677.793144 
L 610.882143 672.706057 
L 610.882143 667.61897 
L 610.882143 662.531883 
L 610.882143 657.444796 
L 610.882143 652.357709 
L 610.882143 647.270622 
L 610.882143 642.183535 
L 610.882143 637.096448 
L 610.882143 632.009361 
L 610.882143 626.922274 
L 610.882143 621.835187 
L 610.882143 616.7481 
L 610.882143 611.661013 
L 610.882143 606.573926 
L 610.882143 601.48684 
L 610.882143 596.399753 
L 610.882143 591.312666 
L 610.882143 586.225579 
L 610.882143 581.138492 
L 610.882143 576.051405 
L 610.882143 570.964318 
L 610.882143 565.877231 
L 610.882143 560.790144 
L 610.882143 555.703057 
L 610.882143 550.61597 
L 610.882143 545.528883 
L 610.882143 540.441796 
L 610.882143 535.354709 
L 610.882143 530.267623 
L 610.882143 525.180536 
L 610.882143 520.093449 
L 610.882143 515.006362 
L 610.882143 509.919275 
L 610.882143 504.832188 
L 610.882143 499.745101 
L 610.882143 494.658014 
L 610.882143 489.570927 
L 610.882143 484.48384 
L 610.882143 479.396753 
L 610.882143 474.309666 
L 610.882143 469.222579 
L 610.882143 464.135492 
L 610.882143 459.048405 
L 610.882143 453.961319 
L 610.882143 448.874232 
L 610.882143 443.787145 
L 610.882143 438.700058 
L 610.882143 433.612971 
L 610.882143 428.525884 
L 610.882143 423.438797 
L 610.882143 418.35171 
L 610.882143 413.264623 
L 610.882143 408.177536 
L 610.882143 403.090449 
L 610.882143 398.003362 
L 610.882143 392.916275 
L 610.882143 387.829188 
L 610.882143 382.742102 
L 610.882143 377.655015 
L 610.882143 372.567928 
L 610.882143 367.480841 
L 610.882143 362.393754 
L 610.882143 357.306667 
L 610.882143 352.21958 
L 610.882143 347.132493 
L 610.882143 342.045406 
L 610.882143 336.958319 
L 610.882143 331.871232 
L 610.882143 326.784145 
L 610.882143 321.697058 
L 610.882143 316.609971 
L 610.882143 311.522884 
L 610.882143 306.435798 
L 610.882143 301.348711 
L 610.882143 296.261624 
L 610.882143 291.174537 
L 610.882143 286.08745 
L 610.882143 281.000363 
L 610.882143 275.913276 
L 610.882143 270.826189 
L 610.882143 265.739102 
L 610.882143 260.652015 
L 610.882143 255.564928 
L 610.882143 250.477841 
L 610.882143 245.390754 
L 610.882143 240.303667 
L 610.882143 235.216581 
L 610.882143 230.129494 
L 610.882143 225.042407 
L 610.882143 219.95532 
L 610.882143 214.868233 
L 610.882143 209.781146 
L 610.882143 204.694059 
L 610.882143 199.606972 
L 610.882143 194.519885 
L 610.882143 189.432798 
L 610.882143 184.345711 
L 610.882143 179.258624 
L 610.882143 174.171537 
L 610.882143 169.08445 
L 610.882143 163.997363 
L 610.882143 158.910277 
L 610.882143 153.82319 
L 610.882143 148.736103 
L 610.882143 143.649016 
L 610.882143 138.561929 
L 610.882143 133.474842 
L 610.882143 128.387755 
L 610.882143 123.300668 
L 610.882143 118.213581 
L 610.882143 113.126494 
L 610.882143 108.039407 
L 610.882143 102.95232 
L 610.882143 97.865233 
L 610.882143 92.778146 
L 610.882143 87.69106 
L 610.882143 82.603973 
L 610.882143 77.516886 
L 610.882143 72.429799 
L 610.882143 67.342712 
L 610.882143 62.255625 
L 610.882143 57.168538 
L 610.882143 52.081451 
L 610.882143 46.994364 
L 610.882143 41.907277 
L 610.882143 36.82019 
L 610.882143 31.733103 
L 610.882143 26.646016 
L 610.882143 21.558929 
L 610.882143 16.471842 
L 610.882143 11.384756 
L 610.882143 6.297669 
L 610.882143 1.210582 
L 610.882143 -3.876505 
L 610.882143 -8.963592 
L 610.882143 -14.050679 
L 610.882143 -19.137766 
L 610.882143 -24.224853 
L 610.882143 -29.31194 
L 610.882143 -34.399027 
L 610.882143 -39.486114 
L 610.882143 -44.573201 
L 610.882143 -49.660288 
L 610.882143 -54.747375 
L 610.882143 -59.834461 
L 610.882143 -64.921548 
L 610.882143 -70.008635 
L 610.884042 -70.008635 
L 610.884042 -70.008635 
L 610.887271 -64.921548 
L 610.894378 -59.834461 
L 610.907938 -54.747375 
L 610.930199 -49.660288 
L 610.961254 -44.573201 
L 610.997223 -39.486114 
L 611.030066 -34.399027 
L 611.050157 -29.31194 
L 611.050771 -24.224853 
L 611.031694 -19.137766 
L 610.999341 -14.050679 
L 610.963301 -8.963592 
L 610.931804 -3.876505 
L 610.908994 1.210582 
L 610.894972 6.297669 
L 610.887559 11.384756 
L 610.884163 16.471842 
L 610.882809 21.558929 
L 610.882337 26.646016 
L 610.882193 31.733103 
L 610.882154 36.82019 
L 610.882145 41.907277 
L 610.882143 46.994364 
L 610.882143 52.081451 
L 610.882143 57.168538 
L 610.882143 62.255625 
L 610.882143 67.342712 
L 610.882143 72.429799 
L 610.882143 77.516886 
L 610.882143 82.603973 
L 610.882145 87.69106 
L 610.882155 92.778146 
L 610.882198 97.865233 
L 610.882358 102.95232 
L 610.882893 108.039407 
L 610.884465 113.126494 
L 610.888524 118.213581 
L 610.897735 123.300668 
L 610.916075 128.387755 
L 610.94802 133.474842 
L 610.996517 138.561929 
L 611.060287 143.649016 
L 611.132204 148.736103 
L 611.200606 153.82319 
L 611.25387 158.910277 
L 611.286109 163.997363 
L 611.300773 169.08445 
L 611.310321 174.171537 
L 611.332586 179.258624 
L 611.38562 184.345711 
L 611.482223 189.432798 
L 611.625133 194.519885 
L 611.804554 199.606972 
L 611.99988 204.694059 
L 612.185761 209.781146 
L 612.340705 214.868233 
L 612.455823 219.95532 
L 612.541883 225.042407 
L 612.632959 230.129494 
L 612.785098 235.216581 
L 613.069303 240.303667 
L 613.559194 245.390754 
L 614.314649 250.477841 
L 615.364711 255.564928 
L 616.696527 260.652015 
L 618.258876 265.739102 
L 619.984602 270.826189 
L 621.826267 275.913276 
L 623.789391 281.000363 
L 625.944696 286.08745 
L 628.407788 291.174537 
L 631.289508 296.261624 
L 634.636598 301.348711 
L 638.391847 306.435798 
L 642.398704 311.522884 
L 646.456404 316.609971 
L 650.404691 321.697058 
L 654.195849 326.784145 
L 657.91272 331.871232 
L 661.72122 336.958319 
L 665.786534 342.045406 
L 670.198894 347.132493 
L 674.933789 352.21958 
L 679.840861 357.306667 
L 684.652498 362.393754 
L 689.020692 367.480841 
L 692.588223 372.567928 
L 695.068262 377.655015 
L 696.289626 382.742102 
L 696.19723 387.829188 
L 694.842557 392.916275 
L 692.392762 398.003362 
L 689.132217 403.090449 
L 685.404358 408.177536 
L 681.494138 413.264623 
L 677.528208 418.35171 
L 673.475266 423.438797 
L 669.247105 428.525884 
L 664.817061 433.612971 
L 660.270583 438.700058 
L 655.772502 443.787145 
L 651.498785 448.874232 
L 647.584302 453.961319 
L 644.101589 459.048405 
L 641.059164 464.135492 
L 638.41032 469.222579 
L 636.072294 474.309666 
L 633.951458 479.396753 
L 631.962666 484.48384 
L 630.037298 489.570927 
L 628.128091 494.658014 
L 626.219071 499.745101 
L 624.334311 504.832188 
L 622.530599 509.919275 
L 620.870371 515.006362 
L 619.391431 520.093449 
L 618.096163 525.180536 
L 616.966954 530.267623 
L 615.991639 535.354709 
L 615.17557 540.441796 
L 614.531142 545.528883 
L 614.055889 550.61597 
L 613.71837 555.703057 
L 613.463178 560.790144 
L 613.231824 565.877231 
L 612.985682 570.964318 
L 612.716495 576.051405 
L 612.439239 581.138492 
L 612.174997 586.225579 
L 611.937926 591.312666 
L 611.734861 596.399753 
L 611.573961 601.48684 
L 611.471147 606.573926 
L 611.445933 611.661013 
L 611.508024 616.7481 
L 611.644213 621.835187 
L 611.815993 626.922274 
L 611.971501 632.009361 
L 612.065685 637.096448 
L 612.076798 642.183535 
L 612.010238 647.270622 
L 611.889949 652.357709 
L 611.745125 657.444796 
L 611.600094 662.531883 
L 611.470017 667.61897 
L 611.36072 672.706057 
L 611.270599 677.793144 
L 611.193981 682.88023 
L 611.125365 687.967317 
L 611.062831 693.054404 
L 611.008805 698.141491 
L 610.968164 703.228578 
L 610.94542 708.315665 
L 610.942681 713.402752 
L 610.958638 718.489839 
L 610.98811 723.576926 
L 611.022441 728.664013 
L 611.051701 733.7511 
L 611.068756 738.838187 
L 611.072955 743.925274 
L 611.070375 749.012361 
L 611.069652 754.099447 
L 611.076182 759.186534 
L 611.089146 764.273621 
L 611.103417 769.360708 
L 611.114071 774.447795 
L 611.119142 779.534882 
L 611.118544 784.621969 
L 611.111299 789.709056 
L 611.094778 794.796143 
L 611.067059 799.88323 
L 611.02987 804.970317 
L 610.988933 810.057404 
L 610.951308 815.144491 
L 610.922038 820.231578 
L 610.902566 825.318665 
L 610.891406 830.405751 
L 610.88587 835.492838 
L 610.883511 840.579925 
L 610.88275 845.667012 
L 610.882924 850.754099 
L 610.884192 855.841186 
L 610.887565 860.928273 
L 610.894973 866.01536 
L 610.908995 871.102447 
L 610.931804 876.189534 
L 610.963301 881.276621 
L 610.999341 886.363708 
L 611.031694 891.450795 
L 611.050771 896.537882 
L 611.050157 901.624968 
L 611.030066 906.712055 
L 610.997223 911.799142 
L 610.961254 916.886229 
L 610.930199 921.973316 
L 610.907938 927.060403 
L 610.894378 932.14749 
L 610.887271 937.234577 
L 610.884042 942.321664 
z
" clip-path="url(#p9194e5d8c3)" style="fill: #4d3c2f; fill-opacity: 0.25; stroke: #4d3c2f; stroke-width: 1.5"/>
   </g>
   <g id="patch_8">
    <path d="M 610.882143 651.06 
L 610.882143 127.717714 
" style="fill: none; stroke: #ffffff; stroke-width: 1.875; stroke-linejoin: miter; stroke-linecap: square"/>
   </g>
  </g>
 </g>
 <defs>
  <clipPath id="p8e95773e3c">
   <rect x="72.815" y="127.717714" width="520.131571" height="523.342286"/>
  </clipPath>
  <clipPath id="p4601b3f290">
   <rect x="72.815" y="19.44" width="520.131571" height="90.231429"/>
  </clipPath>
  <clipPath id="p9194e5d8c3">
   <rect x="610.882143" y="127.717714" width="89.677857" height="523.342286"/>
  </clipPath>
 </defs>
</svg>
