<?xml version="1.0" encoding="utf-8" standalone="no"?>
<!DOCTYPE svg PUBLIC "-//W3C//DTD SVG 1.1//EN"
  "http://www.w3.org/Graphics/SVG/1.1/DTD/svg11.dtd">
<svg xmlns:xlink="http://www.w3.org/1999/xlink" width="1008pt" height="504pt" viewBox="0 0 1008 504" xmlns="http://www.w3.org/2000/svg" version="1.1">
 <metadata>
  <rdf:RDF xmlns:dc="http://purl.org/dc/elements/1.1/" xmlns:cc="http://creativecommons.org/ns#" xmlns:rdf="http://www.w3.org/1999/02/22-rdf-syntax-ns#">
   <cc:Work>
    <dc:type rdf:resource="http://purl.org/dc/dcmitype/StillImage"/>
    <dc:date>2022-04-17T03:02:37.126736</dc:date>
    <dc:format>image/svg+xml</dc:format>
    <dc:creator>
     <cc:Agent>
      <dc:title>Matplotlib v3.5.1, https://matplotlib.org/</dc:title>
     </cc:Agent>
    </dc:creator>
   </cc:Work>
  </rdf:RDF>
 </metadata>
 <defs>
  <style type="text/css">*{stroke-linejoin: round; stroke-linecap: butt}</style>
 </defs>
 <g id="figure_1">
  <g id="patch_1">
   <path d="M 0 504 
L 1008 504 
L 1008 0 
L 0 0 
z
" style="fill: #ffffff"/>
  </g>
  <g id="axes_1">
   <g id="patch_2">
    <path d="M 126 403.2 
L 907.2 403.2 
L 907.2 60.48 
L 126 60.48 
z
" style="fill: #e5e5e5"/>
   </g>
   <g id="matplotlib.axis_1">
    <g id="xtick_1">
     <g id="line2d_1">
      <path d="M 161.509091 403.2 
L 161.509091 60.48 
" clip-path="url(#p25361d83da)" style="fill: none; stroke: #ffffff; stroke-width: 1.5; stroke-linecap: round"/>
     </g>
     <g id="text_1">
      <!-- 2014-05 -->
      <g style="fill: #555555" transform="translate(107.433933 456.201731)rotate(-30)scale(0.165 -0.165)">
       <defs>
        <path id="ArialMT-32" d="M 3222 541 
L 3222 0 
L 194 0 
Q 188 203 259 391 
Q 375 700 629 1000 
Q 884 1300 1366 1694 
Q 2113 2306 2375 2664 
Q 2638 3022 2638 3341 
Q 2638 3675 2398 3904 
Q 2159 4134 1775 4134 
Q 1369 4134 1125 3890 
Q 881 3647 878 3216 
L 300 3275 
Q 359 3922 746 4261 
Q 1134 4600 1788 4600 
Q 2447 4600 2831 4234 
Q 3216 3869 3216 3328 
Q 3216 3053 3103 2787 
Q 2991 2522 2730 2228 
Q 2469 1934 1863 1422 
Q 1356 997 1212 845 
Q 1069 694 975 541 
L 3222 541 
z
" transform="scale(0.015625)"/>
        <path id="ArialMT-30" d="M 266 2259 
Q 266 3072 433 3567 
Q 600 4063 929 4331 
Q 1259 4600 1759 4600 
Q 2128 4600 2406 4451 
Q 2684 4303 2865 4023 
Q 3047 3744 3150 3342 
Q 3253 2941 3253 2259 
Q 3253 1453 3087 958 
Q 2922 463 2592 192 
Q 2263 -78 1759 -78 
Q 1097 -78 719 397 
Q 266 969 266 2259 
z
M 844 2259 
Q 844 1131 1108 757 
Q 1372 384 1759 384 
Q 2147 384 2411 759 
Q 2675 1134 2675 2259 
Q 2675 3391 2411 3762 
Q 2147 4134 1753 4134 
Q 1366 4134 1134 3806 
Q 844 3388 844 2259 
z
" transform="scale(0.015625)"/>
        <path id="ArialMT-31" d="M 2384 0 
L 1822 0 
L 1822 3584 
Q 1619 3391 1289 3197 
Q 959 3003 697 2906 
L 697 3450 
Q 1169 3672 1522 3987 
Q 1875 4303 2022 4600 
L 2384 4600 
L 2384 0 
z
" transform="scale(0.015625)"/>
        <path id="ArialMT-34" d="M 2069 0 
L 2069 1097 
L 81 1097 
L 81 1613 
L 2172 4581 
L 2631 4581 
L 2631 1613 
L 3250 1613 
L 3250 1097 
L 2631 1097 
L 2631 0 
L 2069 0 
z
M 2069 1613 
L 2069 3678 
L 634 1613 
L 2069 1613 
z
" transform="scale(0.015625)"/>
        <path id="ArialMT-2d" d="M 203 1375 
L 203 1941 
L 1931 1941 
L 1931 1375 
L 203 1375 
z
" transform="scale(0.015625)"/>
        <path id="ArialMT-35" d="M 266 1200 
L 856 1250 
Q 922 819 1161 601 
Q 1400 384 1738 384 
Q 2144 384 2425 690 
Q 2706 997 2706 1503 
Q 2706 1984 2436 2262 
Q 2166 2541 1728 2541 
Q 1456 2541 1237 2417 
Q 1019 2294 894 2097 
L 366 2166 
L 809 4519 
L 3088 4519 
L 3088 3981 
L 1259 3981 
L 1013 2750 
Q 1425 3038 1878 3038 
Q 2478 3038 2890 2622 
Q 3303 2206 3303 1553 
Q 3303 931 2941 478 
Q 2500 -78 1738 -78 
Q 1113 -78 717 272 
Q 322 622 266 1200 
z
" transform="scale(0.015625)"/>
       </defs>
       <use xlink:href="#ArialMT-32"/>
       <use xlink:href="#ArialMT-30" x="55.615234"/>
       <use xlink:href="#ArialMT-31" x="111.230469"/>
       <use xlink:href="#ArialMT-34" x="166.845703"/>
       <use xlink:href="#ArialMT-2d" x="222.460938"/>
       <use xlink:href="#ArialMT-30" x="255.761719"/>
       <use xlink:href="#ArialMT-35" x="311.376953"/>
      </g>
     </g>
    </g>
    <g id="xtick_2">
     <g id="line2d_2">
      <path d="M 277.963636 403.2 
L 277.963636 60.48 
" clip-path="url(#p25361d83da)" style="fill: none; stroke: #ffffff; stroke-width: 1.5; stroke-linecap: round"/>
     </g>
     <g id="text_2">
      <!-- 2014-07 -->
      <g style="fill: #555555" transform="translate(223.888479 456.201731)rotate(-30)scale(0.165 -0.165)">
       <defs>
        <path id="ArialMT-37" d="M 303 3981 
L 303 4522 
L 3269 4522 
L 3269 4084 
Q 2831 3619 2401 2847 
Q 1972 2075 1738 1259 
Q 1569 684 1522 0 
L 944 0 
Q 953 541 1156 1306 
Q 1359 2072 1739 2783 
Q 2119 3494 2547 3981 
L 303 3981 
z
" transform="scale(0.015625)"/>
       </defs>
       <use xlink:href="#ArialMT-32"/>
       <use xlink:href="#ArialMT-30" x="55.615234"/>
       <use xlink:href="#ArialMT-31" x="111.230469"/>
       <use xlink:href="#ArialMT-34" x="166.845703"/>
       <use xlink:href="#ArialMT-2d" x="222.460938"/>
       <use xlink:href="#ArialMT-30" x="255.761719"/>
       <use xlink:href="#ArialMT-37" x="311.376953"/>
      </g>
     </g>
    </g>
    <g id="xtick_3">
     <g id="line2d_3">
      <path d="M 396.327273 403.2 
L 396.327273 60.48 
" clip-path="url(#p25361d83da)" style="fill: none; stroke: #ffffff; stroke-width: 1.5; stroke-linecap: round"/>
     </g>
     <g id="text_3">
      <!-- 2014-09 -->
      <g style="fill: #555555" transform="translate(342.252115 456.201731)rotate(-30)scale(0.165 -0.165)">
       <defs>
        <path id="ArialMT-39" d="M 350 1059 
L 891 1109 
Q 959 728 1153 556 
Q 1347 384 1650 384 
Q 1909 384 2104 503 
Q 2300 622 2425 820 
Q 2550 1019 2634 1356 
Q 2719 1694 2719 2044 
Q 2719 2081 2716 2156 
Q 2547 1888 2255 1720 
Q 1963 1553 1622 1553 
Q 1053 1553 659 1965 
Q 266 2378 266 3053 
Q 266 3750 677 4175 
Q 1088 4600 1706 4600 
Q 2153 4600 2523 4359 
Q 2894 4119 3086 3673 
Q 3278 3228 3278 2384 
Q 3278 1506 3087 986 
Q 2897 466 2520 194 
Q 2144 -78 1638 -78 
Q 1100 -78 759 220 
Q 419 519 350 1059 
z
M 2653 3081 
Q 2653 3566 2395 3850 
Q 2138 4134 1775 4134 
Q 1400 4134 1122 3828 
Q 844 3522 844 3034 
Q 844 2597 1108 2323 
Q 1372 2050 1759 2050 
Q 2150 2050 2401 2323 
Q 2653 2597 2653 3081 
z
" transform="scale(0.015625)"/>
       </defs>
       <use xlink:href="#ArialMT-32"/>
       <use xlink:href="#ArialMT-30" x="55.615234"/>
       <use xlink:href="#ArialMT-31" x="111.230469"/>
       <use xlink:href="#ArialMT-34" x="166.845703"/>
       <use xlink:href="#ArialMT-2d" x="222.460938"/>
       <use xlink:href="#ArialMT-30" x="255.761719"/>
       <use xlink:href="#ArialMT-39" x="311.376953"/>
      </g>
     </g>
    </g>
    <g id="xtick_4">
     <g id="line2d_4">
      <path d="M 512.781818 403.2 
L 512.781818 60.48 
" clip-path="url(#p25361d83da)" style="fill: none; stroke: #ffffff; stroke-width: 1.5; stroke-linecap: round"/>
     </g>
     <g id="text_4">
      <!-- 2014-11 -->
      <g style="fill: #555555" transform="translate(459.760505 455.593294)rotate(-30)scale(0.165 -0.165)">
       <use xlink:href="#ArialMT-32"/>
       <use xlink:href="#ArialMT-30" x="55.615234"/>
       <use xlink:href="#ArialMT-31" x="111.230469"/>
       <use xlink:href="#ArialMT-34" x="166.845703"/>
       <use xlink:href="#ArialMT-2d" x="222.460938"/>
       <use xlink:href="#ArialMT-31" x="255.761719"/>
       <use xlink:href="#ArialMT-31" x="304.001953"/>
      </g>
     </g>
    </g>
    <g id="xtick_5">
     <g id="line2d_5">
      <path d="M 629.236364 403.2 
L 629.236364 60.48 
" clip-path="url(#p25361d83da)" style="fill: none; stroke: #ffffff; stroke-width: 1.5; stroke-linecap: round"/>
     </g>
     <g id="text_5">
      <!-- 2015-01 -->
      <g style="fill: #555555" transform="translate(575.161206 456.201731)rotate(-30)scale(0.165 -0.165)">
       <use xlink:href="#ArialMT-32"/>
       <use xlink:href="#ArialMT-30" x="55.615234"/>
       <use xlink:href="#ArialMT-31" x="111.230469"/>
       <use xlink:href="#ArialMT-35" x="166.845703"/>
       <use xlink:href="#ArialMT-2d" x="222.460938"/>
       <use xlink:href="#ArialMT-30" x="255.761719"/>
       <use xlink:href="#ArialMT-31" x="311.376953"/>
      </g>
     </g>
    </g>
    <g id="xtick_6">
     <g id="line2d_6">
      <path d="M 741.872727 403.2 
L 741.872727 60.48 
" clip-path="url(#p25361d83da)" style="fill: none; stroke: #ffffff; stroke-width: 1.5; stroke-linecap: round"/>
     </g>
     <g id="text_6">
      <!-- 2015-03 -->
      <g style="fill: #555555" transform="translate(687.79757 456.201731)rotate(-30)scale(0.165 -0.165)">
       <defs>
        <path id="ArialMT-33" d="M 269 1209 
L 831 1284 
Q 928 806 1161 595 
Q 1394 384 1728 384 
Q 2125 384 2398 659 
Q 2672 934 2672 1341 
Q 2672 1728 2419 1979 
Q 2166 2231 1775 2231 
Q 1616 2231 1378 2169 
L 1441 2663 
Q 1497 2656 1531 2656 
Q 1891 2656 2178 2843 
Q 2466 3031 2466 3422 
Q 2466 3731 2256 3934 
Q 2047 4138 1716 4138 
Q 1388 4138 1169 3931 
Q 950 3725 888 3313 
L 325 3413 
Q 428 3978 793 4289 
Q 1159 4600 1703 4600 
Q 2078 4600 2393 4439 
Q 2709 4278 2876 4000 
Q 3044 3722 3044 3409 
Q 3044 3113 2884 2869 
Q 2725 2625 2413 2481 
Q 2819 2388 3044 2092 
Q 3269 1797 3269 1353 
Q 3269 753 2831 336 
Q 2394 -81 1725 -81 
Q 1122 -81 723 278 
Q 325 638 269 1209 
z
" transform="scale(0.015625)"/>
       </defs>
       <use xlink:href="#ArialMT-32"/>
       <use xlink:href="#ArialMT-30" x="55.615234"/>
       <use xlink:href="#ArialMT-31" x="111.230469"/>
       <use xlink:href="#ArialMT-35" x="166.845703"/>
       <use xlink:href="#ArialMT-2d" x="222.460938"/>
       <use xlink:href="#ArialMT-30" x="255.761719"/>
       <use xlink:href="#ArialMT-33" x="311.376953"/>
      </g>
     </g>
    </g>
    <g id="xtick_7">
     <g id="line2d_7">
      <path d="M 858.327273 403.2 
L 858.327273 60.48 
" clip-path="url(#p25361d83da)" style="fill: none; stroke: #ffffff; stroke-width: 1.5; stroke-linecap: round"/>
     </g>
     <g id="text_7">
      <!-- 2015-05 -->
      <g style="fill: #555555" transform="translate(804.252115 456.201731)rotate(-30)scale(0.165 -0.165)">
       <use xlink:href="#ArialMT-32"/>
       <use xlink:href="#ArialMT-30" x="55.615234"/>
       <use xlink:href="#ArialMT-31" x="111.230469"/>
       <use xlink:href="#ArialMT-35" x="166.845703"/>
       <use xlink:href="#ArialMT-2d" x="222.460938"/>
       <use xlink:href="#ArialMT-30" x="255.761719"/>
       <use xlink:href="#ArialMT-35" x="311.376953"/>
      </g>
     </g>
    </g>
    <g id="text_8">
     <!-- date -->
     <g style="fill: #555555" transform="translate(499.085156 475.925816)scale(0.18 -0.18)">
      <defs>
       <path id="ArialMT-64" d="M 2575 0 
L 2575 419 
Q 2259 -75 1647 -75 
Q 1250 -75 917 144 
Q 584 363 401 755 
Q 219 1147 219 1656 
Q 219 2153 384 2558 
Q 550 2963 881 3178 
Q 1213 3394 1622 3394 
Q 1922 3394 2156 3267 
Q 2391 3141 2538 2938 
L 2538 4581 
L 3097 4581 
L 3097 0 
L 2575 0 
z
M 797 1656 
Q 797 1019 1065 703 
Q 1334 388 1700 388 
Q 2069 388 2326 689 
Q 2584 991 2584 1609 
Q 2584 2291 2321 2609 
Q 2059 2928 1675 2928 
Q 1300 2928 1048 2622 
Q 797 2316 797 1656 
z
" transform="scale(0.015625)"/>
       <path id="ArialMT-61" d="M 2588 409 
Q 2275 144 1986 34 
Q 1697 -75 1366 -75 
Q 819 -75 525 192 
Q 231 459 231 875 
Q 231 1119 342 1320 
Q 453 1522 633 1644 
Q 813 1766 1038 1828 
Q 1203 1872 1538 1913 
Q 2219 1994 2541 2106 
Q 2544 2222 2544 2253 
Q 2544 2597 2384 2738 
Q 2169 2928 1744 2928 
Q 1347 2928 1158 2789 
Q 969 2650 878 2297 
L 328 2372 
Q 403 2725 575 2942 
Q 747 3159 1072 3276 
Q 1397 3394 1825 3394 
Q 2250 3394 2515 3294 
Q 2781 3194 2906 3042 
Q 3031 2891 3081 2659 
Q 3109 2516 3109 2141 
L 3109 1391 
Q 3109 606 3145 398 
Q 3181 191 3288 0 
L 2700 0 
Q 2613 175 2588 409 
z
M 2541 1666 
Q 2234 1541 1622 1453 
Q 1275 1403 1131 1340 
Q 988 1278 909 1158 
Q 831 1038 831 891 
Q 831 666 1001 516 
Q 1172 366 1500 366 
Q 1825 366 2078 508 
Q 2331 650 2450 897 
Q 2541 1088 2541 1459 
L 2541 1666 
z
" transform="scale(0.015625)"/>
       <path id="ArialMT-74" d="M 1650 503 
L 1731 6 
Q 1494 -44 1306 -44 
Q 1000 -44 831 53 
Q 663 150 594 308 
Q 525 466 525 972 
L 525 2881 
L 113 2881 
L 113 3319 
L 525 3319 
L 525 4141 
L 1084 4478 
L 1084 3319 
L 1650 3319 
L 1650 2881 
L 1084 2881 
L 1084 941 
Q 1084 700 1114 631 
Q 1144 563 1211 522 
Q 1278 481 1403 481 
Q 1497 481 1650 503 
z
" transform="scale(0.015625)"/>
       <path id="ArialMT-65" d="M 2694 1069 
L 3275 997 
Q 3138 488 2766 206 
Q 2394 -75 1816 -75 
Q 1088 -75 661 373 
Q 234 822 234 1631 
Q 234 2469 665 2931 
Q 1097 3394 1784 3394 
Q 2450 3394 2872 2941 
Q 3294 2488 3294 1666 
Q 3294 1616 3291 1516 
L 816 1516 
Q 847 969 1125 678 
Q 1403 388 1819 388 
Q 2128 388 2347 550 
Q 2566 713 2694 1069 
z
M 847 1978 
L 2700 1978 
Q 2663 2397 2488 2606 
Q 2219 2931 1791 2931 
Q 1403 2931 1139 2672 
Q 875 2413 847 1978 
z
" transform="scale(0.015625)"/>
      </defs>
      <use xlink:href="#ArialMT-64"/>
      <use xlink:href="#ArialMT-61" x="55.615234"/>
      <use xlink:href="#ArialMT-74" x="111.230469"/>
      <use xlink:href="#ArialMT-65" x="139.013672"/>
     </g>
    </g>
   </g>
   <g id="matplotlib.axis_2">
    <g id="ytick_1">
     <g id="line2d_8">
      <path d="M 126 373.086271 
L 907.2 373.086271 
" clip-path="url(#p25361d83da)" style="fill: none; stroke: #ffffff; stroke-width: 1.5; stroke-linecap: round"/>
     </g>
     <g id="text_9">
      <!-- 60 -->
      <g style="fill: #555555" transform="translate(95.148906 378.991466)scale(0.165 -0.165)">
       <defs>
        <path id="ArialMT-36" d="M 3184 3459 
L 2625 3416 
Q 2550 3747 2413 3897 
Q 2184 4138 1850 4138 
Q 1581 4138 1378 3988 
Q 1113 3794 959 3422 
Q 806 3050 800 2363 
Q 1003 2672 1297 2822 
Q 1591 2972 1913 2972 
Q 2475 2972 2870 2558 
Q 3266 2144 3266 1488 
Q 3266 1056 3080 686 
Q 2894 316 2569 119 
Q 2244 -78 1831 -78 
Q 1128 -78 684 439 
Q 241 956 241 2144 
Q 241 3472 731 4075 
Q 1159 4600 1884 4600 
Q 2425 4600 2770 4297 
Q 3116 3994 3184 3459 
z
M 888 1484 
Q 888 1194 1011 928 
Q 1134 663 1356 523 
Q 1578 384 1822 384 
Q 2178 384 2434 671 
Q 2691 959 2691 1453 
Q 2691 1928 2437 2201 
Q 2184 2475 1800 2475 
Q 1419 2475 1153 2201 
Q 888 1928 888 1484 
z
" transform="scale(0.015625)"/>
       </defs>
       <use xlink:href="#ArialMT-36"/>
       <use xlink:href="#ArialMT-30" x="55.615234"/>
      </g>
     </g>
    </g>
    <g id="ytick_2">
     <g id="line2d_9">
      <path d="M 126 326.741673 
L 907.2 326.741673 
" clip-path="url(#p25361d83da)" style="fill: none; stroke: #ffffff; stroke-width: 1.5; stroke-linecap: round"/>
     </g>
     <g id="text_10">
      <!-- 70 -->
      <g style="fill: #555555" transform="translate(95.148906 332.646868)scale(0.165 -0.165)">
       <use xlink:href="#ArialMT-37"/>
       <use xlink:href="#ArialMT-30" x="55.615234"/>
      </g>
     </g>
    </g>
    <g id="ytick_3">
     <g id="line2d_10">
      <path d="M 126 280.397075 
L 907.2 280.397075 
" clip-path="url(#p25361d83da)" style="fill: none; stroke: #ffffff; stroke-width: 1.5; stroke-linecap: round"/>
     </g>
     <g id="text_11">
      <!-- 80 -->
      <g style="fill: #555555" transform="translate(95.148906 286.30227)scale(0.165 -0.165)">
       <defs>
        <path id="ArialMT-38" d="M 1131 2484 
Q 781 2613 612 2850 
Q 444 3088 444 3419 
Q 444 3919 803 4259 
Q 1163 4600 1759 4600 
Q 2359 4600 2725 4251 
Q 3091 3903 3091 3403 
Q 3091 3084 2923 2848 
Q 2756 2613 2416 2484 
Q 2838 2347 3058 2040 
Q 3278 1734 3278 1309 
Q 3278 722 2862 322 
Q 2447 -78 1769 -78 
Q 1091 -78 675 323 
Q 259 725 259 1325 
Q 259 1772 486 2073 
Q 713 2375 1131 2484 
z
M 1019 3438 
Q 1019 3113 1228 2906 
Q 1438 2700 1772 2700 
Q 2097 2700 2305 2904 
Q 2513 3109 2513 3406 
Q 2513 3716 2298 3927 
Q 2084 4138 1766 4138 
Q 1444 4138 1231 3931 
Q 1019 3725 1019 3438 
z
M 838 1322 
Q 838 1081 952 856 
Q 1066 631 1291 507 
Q 1516 384 1775 384 
Q 2178 384 2440 643 
Q 2703 903 2703 1303 
Q 2703 1709 2433 1975 
Q 2163 2241 1756 2241 
Q 1359 2241 1098 1978 
Q 838 1716 838 1322 
z
" transform="scale(0.015625)"/>
       </defs>
       <use xlink:href="#ArialMT-38"/>
       <use xlink:href="#ArialMT-30" x="55.615234"/>
      </g>
     </g>
    </g>
    <g id="ytick_4">
     <g id="line2d_11">
      <path d="M 126 234.052477 
L 907.2 234.052477 
" clip-path="url(#p25361d83da)" style="fill: none; stroke: #ffffff; stroke-width: 1.5; stroke-linecap: round"/>
     </g>
     <g id="text_12">
      <!-- 90 -->
      <g style="fill: #555555" transform="translate(95.148906 239.957673)scale(0.165 -0.165)">
       <use xlink:href="#ArialMT-39"/>
       <use xlink:href="#ArialMT-30" x="55.615234"/>
      </g>
     </g>
    </g>
    <g id="ytick_5">
     <g id="line2d_12">
      <path d="M 126 187.707879 
L 907.2 187.707879 
" clip-path="url(#p25361d83da)" style="fill: none; stroke: #ffffff; stroke-width: 1.5; stroke-linecap: round"/>
     </g>
     <g id="text_13">
      <!-- 100 -->
      <g style="fill: #555555" transform="translate(85.973359 193.613075)scale(0.165 -0.165)">
       <use xlink:href="#ArialMT-31"/>
       <use xlink:href="#ArialMT-30" x="55.615234"/>
       <use xlink:href="#ArialMT-30" x="111.230469"/>
      </g>
     </g>
    </g>
    <g id="ytick_6">
     <g id="line2d_13">
      <path d="M 126 141.363281 
L 907.2 141.363281 
" clip-path="url(#p25361d83da)" style="fill: none; stroke: #ffffff; stroke-width: 1.5; stroke-linecap: round"/>
     </g>
     <g id="text_14">
      <!-- 110 -->
      <g style="fill: #555555" transform="translate(87.190234 147.268477)scale(0.165 -0.165)">
       <use xlink:href="#ArialMT-31"/>
       <use xlink:href="#ArialMT-31" x="48.240234"/>
       <use xlink:href="#ArialMT-30" x="103.855469"/>
      </g>
     </g>
    </g>
    <g id="ytick_7">
     <g id="line2d_14">
      <path d="M 126 95.018683 
L 907.2 95.018683 
" clip-path="url(#p25361d83da)" style="fill: none; stroke: #ffffff; stroke-width: 1.5; stroke-linecap: round"/>
     </g>
     <g id="text_15">
      <!-- 120 -->
      <g style="fill: #555555" transform="translate(85.973359 100.923879)scale(0.165 -0.165)">
       <use xlink:href="#ArialMT-31"/>
       <use xlink:href="#ArialMT-32" x="55.615234"/>
       <use xlink:href="#ArialMT-30" x="111.230469"/>
      </g>
     </g>
    </g>
   </g>
   <g id="line2d_15">
    <path d="M 161.509091 94.06657 
L 169.145455 95.682601 
L 171.054545 92.490634 
L 172.963636 94.756488 
L 174.872727 100.200852 
L 176.781818 103.713511 
L 182.509091 106.426008 
L 184.418182 98.329236 
L 186.327273 98.555642 
L 188.236364 94.153707 
L 190.145455 91.157026 
L 195.872727 90.436426 
L 197.781818 80.006214 
L 199.690909 83.514182 
L 201.6 77.775656 
L 203.509091 83.9087 
L 211.145455 78.962785 
L 213.054545 76.058182 
L 214.963636 78.45511 
L 216.872727 84.964214 
L 222.6 88.853043 
L 224.509091 99.395193 
L 226.418182 96.86212 
L 228.327273 97.352053 
L 235.963636 99.658423 
L 239.781818 95.741064 
L 241.690909 92.537341 
L 243.6 88.781279 
L 249.327273 85.848861 
L 251.236364 90.580209 
L 253.145455 97.274143 
L 255.054545 95.769354 
L 256.963636 87.166815 
L 262.690909 88.620677 
L 264.6 91.427111 
L 266.509091 86.632493 
L 268.418182 96.860078 
L 270.327273 118.882453 
L 276.054545 130.84816 
L 277.963636 129.043059 
L 279.872727 119.145108 
L 281.781818 114.662431 
L 289.418182 120.578867 
L 291.327273 116.798903 
L 293.236364 121.222753 
L 295.145455 116.14212 
L 297.054545 117.590643 
L 302.781818 118.45196 
L 304.690909 127.291521 
L 306.6 125.657796 
L 308.509091 117.699297 
L 310.418182 123.491785 
L 316.145455 129.653774 
L 318.054545 127.941506 
L 319.963636 125.851328 
L 321.872727 127.091092 
L 323.781818 128.56374 
L 329.509091 135.450409 
L 331.418182 134.457949 
L 333.327273 141.104005 
L 335.236364 137.369975 
L 337.145455 126.374585 
L 342.872727 122.302677 
L 344.781818 161.79452 
L 346.690909 169.589755 
L 348.6 160.749773 
L 350.509091 152.952774 
L 356.236364 153.712243 
L 358.145455 146.816337 
L 360.054545 135.34598 
L 361.963636 112.594623 
L 363.872727 117.645319 
L 369.6 115.722722 
L 371.509091 106.223105 
L 373.418182 113.2395 
L 375.327273 113.050805 
L 377.236364 111.834664 
L 382.963636 97.444476 
L 384.872727 94.051911 
L 386.781818 91.090561 
L 388.690909 84.280063 
L 390.6 87.853554 
L 398.236364 87.447573 
L 400.145455 102.576386 
L 402.054545 99.793694 
L 403.963636 109.781844 
L 409.690909 105.512958 
L 411.6 103.085488 
L 413.509091 89.602827 
L 415.418182 105.260507 
L 417.327273 109.019732 
L 423.054545 114.151525 
L 424.963636 123.298344 
L 426.872727 120.697113 
L 428.781818 105.722814 
L 430.690909 96.653831 
L 436.418182 94.711385 
L 438.327273 98.548597 
L 440.236364 95.562182 
L 442.145455 99.101237 
L 444.054545 106.207565 
L 451.690909 105.823171 
L 453.6 111.446987 
L 455.509091 123.243417 
L 457.418182 122.913717 
L 463.145455 130.191924 
L 465.054545 139.811754 
L 466.963636 148.147122 
L 468.872727 149.597522 
L 470.781818 157.627381 
L 476.509091 165.749555 
L 478.418182 168.959863 
L 480.327273 165.474687 
L 482.236364 186.273159 
L 484.145455 185.440743 
L 489.872727 206.162157 
L 491.781818 205.333451 
L 493.690909 237.014701 
L 495.6 235.842612 
L 497.509091 205.920887 
L 503.236364 200.811008 
L 505.145455 198.574708 
L 507.054545 199.202904 
L 508.963636 190.810393 
L 510.872727 189.592081 
L 516.6 190.175095 
L 518.509091 192.431069 
L 520.418182 181.064992 
L 522.327273 178.023649 
L 524.236364 170.017013 
L 529.963636 164.103288 
L 531.872727 172.320976 
L 533.781818 159.250734 
L 535.690909 198.566681 
L 537.6 211.826521 
L 543.327273 202.778007 
L 545.236364 215.712692 
L 549.054545 211.9369 
L 550.963636 215.885725 
L 558.6 196.58069 
L 560.509091 221.886276 
L 564.327273 236.215487 
L 570.054545 242.986177 
L 571.963636 231.311986 
L 573.872727 233.848871 
L 575.781818 240.818924 
L 577.690909 250.104755 
L 583.418182 258.143224 
L 585.327273 260.216413 
L 587.236364 255.333107 
L 591.054545 272.242145 
L 596.781818 266.703154 
L 598.690909 269.096426 
L 600.6 272.622549 
L 602.509091 273.048451 
L 604.418182 272.392684 
L 610.145455 255.543017 
L 612.054545 251.615264 
L 613.963636 246.85923 
L 617.781818 253.442553 
L 623.509091 244.245052 
L 625.418182 251.322574 
L 627.327273 255.080649 
L 631.145455 250.720279 
L 636.872727 249.968805 
L 638.781818 259.306786 
L 640.690909 259.608263 
L 642.6 259.16774 
L 644.509091 251.929692 
L 650.236364 247.244036 
L 652.145455 248.315467 
L 654.054545 251.883286 
L 655.963636 254.88636 
L 657.872727 254.222152 
L 665.509091 258.593813 
L 667.418182 250.01622 
L 669.327273 249.422461 
L 671.236364 250.593732 
L 676.963636 250.874989 
L 678.872727 248.781369 
L 680.781818 254.195575 
L 682.690909 261.535285 
L 684.6 268.389995 
L 690.327273 276.164119 
L 692.236364 263.58009 
L 694.145455 262.467141 
L 696.054545 258.143321 
L 697.963636 266.062788 
L 703.690909 262.962792 
L 705.6 264.385974 
L 707.509091 258.830778 
L 709.418182 253.64882 
L 711.327273 257.098376 
L 718.963636 255.471445 
L 720.872727 253.93238 
L 722.781818 245.34245 
L 724.690909 256.093989 
L 730.418182 253.996849 
L 734.236364 257.003484 
L 736.145455 253.177431 
L 738.054545 250.925318 
L 743.781818 254.938685 
L 745.690909 259.130431 
L 747.6 255.464193 
L 749.509091 254.925462 
L 751.418182 254.570887 
L 757.145455 259.833429 
L 759.054545 258.900506 
L 760.963636 258.347563 
L 762.872727 250.951437 
L 764.781818 253.166916 
L 770.509091 255.746338 
L 772.418182 245.869263 
L 774.327273 252.416812 
L 776.236364 260.340603 
L 778.145455 255.609461 
L 783.872727 254.346795 
L 785.781818 254.598175 
L 787.690909 252.427295 
L 789.6 251.467044 
L 791.509091 246.476936 
L 797.236364 253.066694 
L 799.145455 257.380486 
L 801.054545 254.800877 
L 802.963636 257.773629 
L 810.6 268.072119 
L 812.509091 280.217464 
L 814.418182 287.295783 
L 816.327273 288.709507 
L 818.236364 285.551307 
L 823.963636 289.860975 
L 825.872727 288.434248 
L 827.781818 270.024627 
L 829.690909 279.644284 
L 831.6 272.448308 
L 837.327273 267.692848 
L 841.145455 283.98068 
L 843.054545 287.06856 
L 844.963636 284.665609 
L 850.690909 285.341265 
L 852.6 290.049675 
L 854.509091 292.890568 
L 856.418182 294.135803 
L 858.327273 294.039943 
L 864.054545 292.105537 
L 865.963636 294.255106 
L 867.872727 293.864031 
L 869.781818 296.581455 
L 871.690909 297.829807 
L 871.690909 297.829807 
" clip-path="url(#p25361d83da)" style="fill: none; stroke: #4d3c2f; stroke-width: 2.25; stroke-linecap: round"/>
   </g>
   <g id="line2d_16">
    <path d="M 161.509091 185.789412 
L 169.145455 187.716963 
L 171.054545 183.634378 
L 172.963636 184.407806 
L 174.872727 185.655766 
L 176.781818 187.202124 
L 182.509091 195.450193 
L 184.418182 188.076751 
L 186.327273 188.617585 
L 188.236364 190.006166 
L 190.145455 186.120263 
L 195.872727 181.843374 
L 197.781818 170.466728 
L 199.690909 177.83301 
L 201.6 173.791654 
L 203.509091 181.970031 
L 211.145455 188.44753 
L 213.054545 188.836764 
L 214.963636 191.887186 
L 216.872727 194.6116 
L 222.6 192.175167 
L 224.509091 209.364685 
L 226.418182 215.024027 
L 228.327273 212.697765 
L 235.963636 213.17982 
L 239.781818 210.322678 
L 241.690909 213.466976 
L 243.6 210.243629 
L 249.327273 208.110157 
L 251.236364 205.862612 
L 253.145455 211.066464 
L 255.054545 211.246073 
L 256.963636 202.397312 
L 262.690909 204.022385 
L 264.6 208.889266 
L 266.509091 206.271748 
L 268.418182 209.300398 
L 270.327273 221.453158 
L 276.054545 230.670187 
L 277.963636 231.545102 
L 279.872727 234.894075 
L 281.781818 228.855692 
L 289.418182 235.817766 
L 291.327273 232.742073 
L 293.236364 233.801954 
L 295.145455 228.884537 
L 297.054545 231.068215 
L 302.781818 232.389846 
L 304.690909 231.65805 
L 306.6 235.438127 
L 308.509091 230.428476 
L 310.418182 230.798101 
L 316.145455 236.243392 
L 318.054545 229.951557 
L 319.963636 230.614439 
L 321.872727 226.712418 
L 323.781818 227.225532 
L 329.509091 234.024714 
L 331.418182 224.231659 
L 333.327273 227.801567 
L 335.236364 219.021423 
L 337.145455 207.059804 
L 342.872727 214.711404 
L 344.781818 259.004862 
L 346.690909 248.184075 
L 348.6 236.229955 
L 350.509091 228.215286 
L 356.236364 225.008362 
L 358.145455 207.836771 
L 361.963636 202.991593 
L 363.872727 222.819039 
L 369.6 206.479222 
L 371.509091 204.327203 
L 373.418182 210.282149 
L 375.327273 212.110868 
L 377.236364 218.447083 
L 382.963636 204.496648 
L 384.872727 197.787801 
L 386.781818 196.250516 
L 388.690909 176.973283 
L 390.6 176.762395 
L 398.236364 179.664306 
L 400.145455 200.820742 
L 402.054545 202.77832 
L 403.963636 209.799345 
L 411.6 192.337796 
L 413.509091 173.023316 
L 415.418182 190.06304 
L 417.327273 208.610319 
L 423.054545 190.653146 
L 424.963636 212.950095 
L 426.872727 217.132456 
L 428.781818 190.723512 
L 430.690909 183.472347 
L 436.418182 186.545498 
L 438.327273 183.064745 
L 440.236364 177.535047 
L 442.145455 181.518053 
L 444.054545 183.548198 
L 451.690909 184.747179 
L 455.509091 202.402669 
L 457.418182 203.58448 
L 463.145455 211.231302 
L 465.054545 219.138916 
L 466.963636 221.919252 
L 468.872727 227.028071 
L 470.781818 229.916297 
L 476.509091 246.873681 
L 478.418182 244.25759 
L 480.327273 239.464661 
L 482.236364 266.792666 
L 484.145455 256.213089 
L 489.872727 278.090925 
L 491.781818 283.593163 
L 493.690909 319.992957 
L 495.6 305.075829 
L 497.509091 256.874722 
L 503.236364 242.511318 
L 505.145455 246.644585 
L 507.054545 244.102733 
L 508.963636 253.46731 
L 510.872727 245.991933 
L 516.6 267.60201 
L 520.418182 239.278453 
L 522.327273 230.891556 
L 524.236364 242.643762 
L 529.963636 237.368585 
L 531.872727 240.963697 
L 533.781818 236.669471 
L 535.690909 278.851607 
L 537.6 285.965604 
L 543.327273 283.547133 
L 545.236364 298.072514 
L 549.054545 292.220249 
L 550.963636 306.377363 
L 556.690909 307.215871 
L 558.6 299.646235 
L 560.509091 319.414311 
L 564.327273 315.604818 
L 570.054545 326.823864 
L 571.963636 316.013907 
L 573.872727 323.753841 
L 575.781818 342.470191 
L 577.690909 353.4854 
L 583.418182 365.626501 
L 585.327273 366.424416 
L 587.236364 371.876088 
L 591.054545 387.621818 
L 596.781818 375.889404 
L 598.690909 369.856733 
L 600.6 368.630287 
L 602.509091 362.605472 
L 604.418182 364.593914 
L 610.145455 343.534325 
L 612.054545 345.964614 
L 613.963636 341.749681 
L 617.781818 352.564626 
L 623.509091 349.42067 
L 625.418182 347.853269 
L 627.327273 351.868602 
L 631.145455 349.694589 
L 636.872727 351.224089 
L 638.781818 361.121676 
L 640.690909 351.354223 
L 642.6 357.632306 
L 644.509091 355.159085 
L 650.236364 355.446403 
L 652.145455 354.31815 
L 654.054545 354.477942 
L 655.963636 358.609846 
L 657.872727 358.198499 
L 665.509091 360.425824 
L 667.418182 348.548532 
L 669.327273 347.717708 
L 671.236364 346.142875 
L 676.963636 342.846686 
L 678.872727 342.017691 
L 680.781818 338.8815 
L 682.690909 341.298035 
L 684.6 346.86586 
L 690.327273 352.839344 
L 692.236364 341.05716 
L 694.145455 335.373646 
L 696.054545 337.676052 
L 697.963636 342.393643 
L 703.690909 343.509505 
L 705.6 343.68606 
L 707.509091 340.003523 
L 709.418182 329.731239 
L 711.327273 331.650142 
L 718.963636 336.860683 
L 720.872727 333.111913 
L 722.781818 330.509869 
L 724.690909 341.69731 
L 730.418182 338.164383 
L 732.327273 342.959943 
L 734.236364 334.72617 
L 736.145455 331.750215 
L 738.054545 333.129103 
L 743.781818 341.075914 
L 745.690909 348.111958 
L 747.6 347.065797 
L 749.509091 342.658243 
L 751.418182 345.527001 
L 757.145455 351.69656 
L 759.054545 354.287354 
L 760.963636 352.4095 
L 762.872727 344.583725 
L 764.781818 344.553175 
L 770.509091 345.041252 
L 772.418182 338.338008 
L 774.327273 333.103297 
L 776.236364 335.07414 
L 778.145455 333.166437 
L 783.872727 334.012465 
L 785.781818 331.062052 
L 787.690909 334.355178 
L 789.6 331.524361 
L 791.509091 325.770856 
L 797.236364 332.944123 
L 799.145455 338.821997 
L 801.054545 333.068253 
L 802.963636 334.752941 
L 810.6 338.673028 
L 812.509091 350.277913 
L 814.418182 354.228503 
L 816.327273 366.434452 
L 818.236364 371.160953 
L 823.963636 377.789569 
L 825.872727 373.826005 
L 827.781818 361.12034 
L 829.690909 360.988406 
L 831.6 358.951609 
L 837.327273 355.922909 
L 839.236364 366.488007 
L 841.145455 370.638892 
L 843.054545 377.486812 
L 844.963636 379.809933 
L 850.690909 380.474017 
L 852.6 383.894824 
L 854.509091 379.857323 
L 856.418182 374.177377 
L 858.327273 369.977723 
L 864.054545 370.075253 
L 865.963636 374.157368 
L 867.872727 375.572089 
L 869.781818 379.979009 
L 871.690909 382.504 
L 871.690909 382.504 
" clip-path="url(#p25361d83da)" style="fill: none; stroke: #c07156; stroke-width: 2.25; stroke-linecap: round"/>
   </g>
   <g id="patch_3">
    <path d="M 126 403.2 
L 126 60.48 
" style="fill: none; stroke: #ffffff; stroke-width: 1.875; stroke-linejoin: miter; stroke-linecap: square"/>
   </g>
   <g id="patch_4">
    <path d="M 907.2 403.2 
L 907.2 60.48 
" style="fill: none; stroke: #ffffff; stroke-width: 1.875; stroke-linejoin: miter; stroke-linecap: square"/>
   </g>
   <g id="patch_5">
    <path d="M 126 403.2 
L 907.2 403.2 
" style="fill: none; stroke: #ffffff; stroke-width: 1.875; stroke-linejoin: miter; stroke-linecap: square"/>
   </g>
   <g id="patch_6">
    <path d="M 126 60.48 
L 907.2 60.48 
" style="fill: none; stroke: #ffffff; stroke-width: 1.875; stroke-linejoin: miter; stroke-linecap: square"/>
   </g>
   <g id="legend_1">
    <g id="patch_7">
     <path d="M 765.815625 120.764297 
L 895.65 120.764297 
Q 898.95 120.764297 898.95 117.464297 
L 898.95 72.03 
Q 898.95 68.73 895.65 68.73 
L 765.815625 68.73 
Q 762.515625 68.73 762.515625 72.03 
L 762.515625 117.464297 
Q 762.515625 120.764297 765.815625 120.764297 
z
" style="fill: #e5e5e5; opacity: 0.8; stroke: #cccccc; stroke-width: 1.5; stroke-linejoin: miter"/>
    </g>
    <g id="line2d_17">
     <path d="M 769.115625 81.576797 
L 785.615625 81.576797 
L 802.115625 81.576797 
" style="fill: none; stroke: #4d3c2f; stroke-width: 2.25; stroke-linecap: round"/>
    </g>
    <g id="text_16">
     <!-- HeatingOil -->
     <g style="fill: #262626" transform="translate(815.315625 87.351797)scale(0.165 -0.165)">
      <defs>
       <path id="ArialMT-48" d="M 513 0 
L 513 4581 
L 1119 4581 
L 1119 2700 
L 3500 2700 
L 3500 4581 
L 4106 4581 
L 4106 0 
L 3500 0 
L 3500 2159 
L 1119 2159 
L 1119 0 
L 513 0 
z
" transform="scale(0.015625)"/>
       <path id="ArialMT-69" d="M 425 3934 
L 425 4581 
L 988 4581 
L 988 3934 
L 425 3934 
z
M 425 0 
L 425 3319 
L 988 3319 
L 988 0 
L 425 0 
z
" transform="scale(0.015625)"/>
       <path id="ArialMT-6e" d="M 422 0 
L 422 3319 
L 928 3319 
L 928 2847 
Q 1294 3394 1984 3394 
Q 2284 3394 2536 3286 
Q 2788 3178 2913 3003 
Q 3038 2828 3088 2588 
Q 3119 2431 3119 2041 
L 3119 0 
L 2556 0 
L 2556 2019 
Q 2556 2363 2490 2533 
Q 2425 2703 2258 2804 
Q 2091 2906 1866 2906 
Q 1506 2906 1245 2678 
Q 984 2450 984 1813 
L 984 0 
L 422 0 
z
" transform="scale(0.015625)"/>
       <path id="ArialMT-67" d="M 319 -275 
L 866 -356 
Q 900 -609 1056 -725 
Q 1266 -881 1628 -881 
Q 2019 -881 2231 -725 
Q 2444 -569 2519 -288 
Q 2563 -116 2559 434 
Q 2191 0 1641 0 
Q 956 0 581 494 
Q 206 988 206 1678 
Q 206 2153 378 2554 
Q 550 2956 876 3175 
Q 1203 3394 1644 3394 
Q 2231 3394 2613 2919 
L 2613 3319 
L 3131 3319 
L 3131 450 
Q 3131 -325 2973 -648 
Q 2816 -972 2473 -1159 
Q 2131 -1347 1631 -1347 
Q 1038 -1347 672 -1080 
Q 306 -813 319 -275 
z
M 784 1719 
Q 784 1066 1043 766 
Q 1303 466 1694 466 
Q 2081 466 2343 764 
Q 2606 1063 2606 1700 
Q 2606 2309 2336 2618 
Q 2066 2928 1684 2928 
Q 1309 2928 1046 2623 
Q 784 2319 784 1719 
z
" transform="scale(0.015625)"/>
       <path id="ArialMT-4f" d="M 309 2231 
Q 309 3372 921 4017 
Q 1534 4663 2503 4663 
Q 3138 4663 3647 4359 
Q 4156 4056 4423 3514 
Q 4691 2972 4691 2284 
Q 4691 1588 4409 1038 
Q 4128 488 3612 205 
Q 3097 -78 2500 -78 
Q 1853 -78 1343 234 
Q 834 547 571 1087 
Q 309 1628 309 2231 
z
M 934 2222 
Q 934 1394 1379 917 
Q 1825 441 2497 441 
Q 3181 441 3623 922 
Q 4066 1403 4066 2288 
Q 4066 2847 3877 3264 
Q 3688 3681 3323 3911 
Q 2959 4141 2506 4141 
Q 1863 4141 1398 3698 
Q 934 3256 934 2222 
z
" transform="scale(0.015625)"/>
       <path id="ArialMT-6c" d="M 409 0 
L 409 4581 
L 972 4581 
L 972 0 
L 409 0 
z
" transform="scale(0.015625)"/>
      </defs>
      <use xlink:href="#ArialMT-48"/>
      <use xlink:href="#ArialMT-65" x="72.216797"/>
      <use xlink:href="#ArialMT-61" x="127.832031"/>
      <use xlink:href="#ArialMT-74" x="183.447266"/>
      <use xlink:href="#ArialMT-69" x="211.230469"/>
      <use xlink:href="#ArialMT-6e" x="233.447266"/>
      <use xlink:href="#ArialMT-67" x="289.0625"/>
      <use xlink:href="#ArialMT-4f" x="344.677734"/>
      <use xlink:href="#ArialMT-69" x="422.460938"/>
      <use xlink:href="#ArialMT-6c" x="444.677734"/>
     </g>
    </g>
    <g id="line2d_18">
     <path d="M 769.115625 105.109922 
L 785.615625 105.109922 
L 802.115625 105.109922 
" style="fill: none; stroke: #c07156; stroke-width: 2.25; stroke-linecap: round"/>
    </g>
    <g id="text_17">
     <!-- CrudeOil -->
     <g style="fill: #262626" transform="translate(815.315625 110.884922)scale(0.165 -0.165)">
      <defs>
       <path id="ArialMT-43" d="M 3763 1606 
L 4369 1453 
Q 4178 706 3683 314 
Q 3188 -78 2472 -78 
Q 1731 -78 1267 223 
Q 803 525 561 1097 
Q 319 1669 319 2325 
Q 319 3041 592 3573 
Q 866 4106 1370 4382 
Q 1875 4659 2481 4659 
Q 3169 4659 3637 4309 
Q 4106 3959 4291 3325 
L 3694 3184 
Q 3534 3684 3231 3912 
Q 2928 4141 2469 4141 
Q 1941 4141 1586 3887 
Q 1231 3634 1087 3207 
Q 944 2781 944 2328 
Q 944 1744 1114 1308 
Q 1284 872 1643 656 
Q 2003 441 2422 441 
Q 2931 441 3284 734 
Q 3638 1028 3763 1606 
z
" transform="scale(0.015625)"/>
       <path id="ArialMT-72" d="M 416 0 
L 416 3319 
L 922 3319 
L 922 2816 
Q 1116 3169 1280 3281 
Q 1444 3394 1641 3394 
Q 1925 3394 2219 3213 
L 2025 2691 
Q 1819 2813 1613 2813 
Q 1428 2813 1281 2702 
Q 1134 2591 1072 2394 
Q 978 2094 978 1738 
L 978 0 
L 416 0 
z
" transform="scale(0.015625)"/>
       <path id="ArialMT-75" d="M 2597 0 
L 2597 488 
Q 2209 -75 1544 -75 
Q 1250 -75 995 37 
Q 741 150 617 320 
Q 494 491 444 738 
Q 409 903 409 1263 
L 409 3319 
L 972 3319 
L 972 1478 
Q 972 1038 1006 884 
Q 1059 663 1231 536 
Q 1403 409 1656 409 
Q 1909 409 2131 539 
Q 2353 669 2445 892 
Q 2538 1116 2538 1541 
L 2538 3319 
L 3100 3319 
L 3100 0 
L 2597 0 
z
" transform="scale(0.015625)"/>
      </defs>
      <use xlink:href="#ArialMT-43"/>
      <use xlink:href="#ArialMT-72" x="72.216797"/>
      <use xlink:href="#ArialMT-75" x="105.517578"/>
      <use xlink:href="#ArialMT-64" x="161.132812"/>
      <use xlink:href="#ArialMT-65" x="216.748047"/>
      <use xlink:href="#ArialMT-4f" x="272.363281"/>
      <use xlink:href="#ArialMT-69" x="350.146484"/>
      <use xlink:href="#ArialMT-6c" x="372.363281"/>
     </g>
    </g>
   </g>
  </g>
 </g>
 <defs>
  <clipPath id="p25361d83da">
   <rect x="126" y="60.48" width="781.2" height="342.72"/>
  </clipPath>
 </defs>
</svg>
