<svg class="main-svg" xmlns="http://www.w3.org/2000/svg" xmlns:xlink="http://www.w3.org/1999/xlink" width="1500" height="1500" style="" viewBox="0 0 500 500"><rect x="0" y="0" width="500" height="500" style="fill: rgb(255, 255, 255); fill-opacity: 1;"/><defs id="defs-028948"><g class="clips"><clipPath id="clip028948xyplot" class="plotclip"><rect width="377" height="437"/></clipPath><clipPath class="axesclip" id="clip028948x"><rect x="28" y="0" width="377" height="500"/></clipPath><clipPath class="axesclip" id="clip028948y"><rect x="0" y="40" width="500" height="437"/></clipPath><clipPath class="axesclip" id="clip028948xy"><rect x="28" y="40" width="377" height="437"/></clipPath><clipPath class="contourclip" id="clip0177df"><path d="M0,30L377,30L377,407L0,407Z"/></clipPath></g><g class="gradients"/><g class="patterns"/></defs><g class="bglayer"><rect class="bg" x="28" y="40" width="377" height="437" style="fill: rgb(237, 237, 237); fill-opacity: 1; stroke-width: 0;"/></g><g class="layer-below"><g class="imagelayer"/><g class="shapelayer"/></g><g class="cartesianlayer"><g class="subplot xy"><g class="layer-subplot"><g class="shapelayer"/><g class="imagelayer"/></g><g class="gridlayer"><g class="x"><path class="xgrid crisp" transform="translate(90.83,0)" d="M0,40v437" style="stroke: rgb(255, 255, 255); stroke-opacity: 1; stroke-width: 1px;"/><path class="xgrid crisp" transform="translate(174.61,0)" d="M0,40v437" style="stroke: rgb(255, 255, 255); stroke-opacity: 1; stroke-width: 1px;"/><path class="xgrid crisp" transform="translate(258.39,0)" d="M0,40v437" style="stroke: rgb(255, 255, 255); stroke-opacity: 1; stroke-width: 1px;"/><path class="xgrid crisp" transform="translate(342.17,0)" d="M0,40v437" style="stroke: rgb(255, 255, 255); stroke-opacity: 1; stroke-width: 1px;"/></g><g class="y"><path class="ygrid crisp" transform="translate(0,384.17)" d="M28,0h377" style="stroke: rgb(255, 255, 255); stroke-opacity: 1; stroke-width: 1px;"/><path class="ygrid crisp" transform="translate(0,300.39)" d="M28,0h377" style="stroke: rgb(255, 255, 255); stroke-opacity: 1; stroke-width: 1px;"/><path class="ygrid crisp" transform="translate(0,216.61)" d="M28,0h377" style="stroke: rgb(255, 255, 255); stroke-opacity: 1; stroke-width: 1px;"/><path class="ygrid crisp" transform="translate(0,132.82999999999998)" d="M28,0h377" style="stroke: rgb(255, 255, 255); stroke-opacity: 1; stroke-width: 1px;"/><path class="ygrid crisp" transform="translate(0,49.06)" d="M28,0h377" style="stroke: rgb(255, 255, 255); stroke-opacity: 1; stroke-width: 1px;"/></g></g><g class="zerolinelayer"><path class="yzl zl crisp" transform="translate(0,467.94)" d="M28,0h377" style="stroke: rgb(255, 255, 255); stroke-opacity: 1; stroke-width: 1px;"/></g><path class="xlines-below"/><path class="ylines-below"/><g class="overlines-below"/><g class="xaxislayer-below"/><g class="yaxislayer-below"/><g class="overaxes-below"/><g class="plot" transform="translate(28,40)" clip-path="url(#clip028948xyplot)"><g class="contourlayer mlayer"><g class="contour" clip-path="url(#clip0177df)" style="opacity: 1;"><g class="heatmapcoloring"/><g class="contourbg"/><g class="contourfill"/><g class="contourlines"><g class="contourlevel"/><g class="contourlevel"><path class="openline" d="M0,303.09Q0.57,301.35 0.9,300.37C1.29,299.21 1.75,297.84 2.19,296.57C2.63,295.3 3.24,293.58 3.52,292.76C3.65,292.38 3.68,292.28 3.81,291.91C4.05,291.22 4.49,290 4.87,288.95C5.3,287.76 5.78,286.4 6.25,285.14C6.71,283.89 7.18,282.67 7.65,281.40999999999997C8.13,280.13 8.62,278.82 9.12,277.53C9.61,276.25 10.19,274.8 10.61,273.72C10.92,272.92 11.16,272.29 11.42,271.63C11.66,271.03 11.84,270.6 12.12,269.91C12.54,268.89 13.15,267.37 13.67,266.1C14.19,264.84 14.71,263.59 15.245000000000001,262.32500000000005C15.78,261.05 16.32,259.76 16.87,258.48C17.42,257.21 18.14,255.59 18.53,254.68C18.75,254.17 18.83,253.96 19.04,253.49C19.35,252.79 19.78,251.82 20.21,250.87C20.73,249.72 21.44,248.13 21.93,247.06C22.28,246.28 22.55,245.7 22.85,245.05C23.14,244.43 23.36,243.96 23.69,243.25C24.17,242.22 24.94,240.57 25.48,239.44C25.91,238.53 26.32,237.68 26.66,236.98C26.91,236.47 27.04,236.2 27.32,235.64C27.78,234.69 28.62,232.98 29.18,231.83C29.64,230.89 30.11,229.95 30.46,229.25C30.71,228.76 30.82,228.54 31.09,228.02C31.56,227.1 32.46,225.33 33.04,224.21C33.5,223.32 33.91,222.52 34.27,221.83C34.55,221.29 34.72,220.99 35.03,220.4C35.54,219.44 36.5,217.65 37.06,216.6C37.46,215.86 37.73,215.33 38.08,214.7C38.43,214.06 38.73,213.54 39.14,212.79C39.73,211.74 40.76,209.87 41.26,208.98C41.53,208.5 41.63,208.31 41.89,207.86C42.29,207.16 42.87,206.14 43.43,205.17C44.11,204 44.93,202.6 45.68,201.33C46.43,200.07 47.23,198.7 47.92,197.56C48.49,196.61 49.08,195.65 49.51,194.95C49.8,194.47 49.93,194.26 50.25,193.75C50.82,192.84 52.08,190.83 52.63,189.94C52.93,189.47 53.03,189.29 53.31,188.85C53.76,188.15 54.45,187.07 55.06,186.13C55.72,185.12 56.68,183.66 57.12,183C57.32,182.69 57.36,182.64 57.57,182.32C58.07,181.57 59.52,179.42 60.13,178.52C60.47,178.02 60.61,177.82 60.93,177.35C61.41,176.65 62.14,175.6 62.76,174.71C63.4,173.79 64.24,172.61 64.74,171.91C65.04,171.49 65.14,171.35 65.47,170.9C66.12,170.01 67.44,168.19 68.4,166.89C69.31,165.65 70.37,164.25 71.1,163.28C71.59,162.63 71.9,162.22 72.35,161.64C72.87,160.97 73.44,160.23 74.04,159.47C74.71,158.62 75.6,157.49 76.16,156.79C76.52,156.34 76.68,156.15 77.07,155.67C77.78,154.8 79.05,153.23 80.08,151.99C81.15,150.7 82.84,148.71 83.4,148.05C83.59,147.83 83.59,147.83 83.78,147.61C84.3,147.01 86.02,145.03 86.71,144.24C87.09,143.81 87.22,143.67 87.59,143.26C88.22,142.56 89.43,141.2 90.13,140.43C90.62,139.89 90.91,139.58 91.39,139.06C92.03,138.36 92.98,137.36 93.66,136.63C94.22,136.03 94.64,135.59 95.2,135.01C95.85,134.33 96.65,133.5 97.32,132.82C97.91,132.21 98.42,131.7 99.01,131.1C99.67,130.44 100.44,129.67 101.1,129.01C101.7,128.42 102.21,127.91 102.82,127.32C103.5,126.65 104.33,125.85 105.01,125.2C105.59,124.64 106.03,124.22 106.63,123.66C107.36,122.98 108.36,122.03 109.06,121.39C109.58,120.91 109.89,120.62 110.43,120.13C111.2,119.43 112.56,118.22 113.26,117.59C113.67,117.22 113.81,117.09 114.24,116.71C115.03,116.02 117.01,114.3 117.61,113.78C117.83,113.59 117.83,113.59 118.05,113.4C118.71,112.84 120.7,111.15 121.99000000000001,110.08C123.23,109.05 124.8,107.78 125.67,107.07C126.15,106.68 126.34,106.52 126.79,106.16C127.49,105.6 128.62,104.71 129.47,104.04C130.23,103.44 130.97,102.87 131.64,102.35C132.22,101.9 132.63,101.59 133.28,101.1C134.25,100.37 135.65,99.31 136.89,98.4C138.19,97.44 140.01,96.12 140.9,95.47C141.35,95.14 141.49,95.04 141.91,94.74C142.61,94.24 143.79,93.4 144.71,92.76C145.6,92.14 146.65,91.41 147.35,90.93C147.82,90.61 148.02,90.47 148.52,90.13C149.42,89.52 151.57,88.07 152.32,87.57C152.64,87.36 152.69,87.32 153,87.12C153.66,86.68 155.12,85.72 156.13,85.06C157.07,84.45 158.15,83.76 158.85,83.31C159.29,83.03 159.47,82.93 159.94,82.63C160.83,82.08 162.84,80.82 163.75,80.25C164.26,79.93 164.47,79.8 164.95,79.51C165.65,79.08 166.61,78.49 167.56,77.92C168.7,77.23 170.07,76.43 171.33,75.68C172.6,74.93 174,74.11 175.17,73.43C176.14,72.87 177.16,72.29 177.86,71.89C178.31,71.63 178.5,71.53 178.98,71.26C179.87,70.76 181.74,69.73 182.79,69.14C183.54,68.73 184.06,68.43 184.7,68.08C185.33,67.73 185.86,67.46 186.6,67.06C187.65,66.5 189.44,65.54 190.4,65.03C190.99,64.72 191.29,64.55 191.83,64.27C192.52,63.91 193.32,63.5 194.21,63.04C195.33,62.46 197.1,61.56 198.02,61.09C198.54,60.82 198.76,60.71 199.25,60.46C199.95,60.11 200.89,59.64 201.83,59.18C202.98,58.62 204.69,57.78 205.64,57.32C206.2,57.04 206.47,56.91 206.98,56.66C207.68,56.32 208.53,55.91 209.44,55.48C210.57,54.94 212.22,54.17 213.25,53.69C213.96,53.36 214.43,53.14 215.05,52.85C215.7,52.55 216.28,52.28 217.06,51.93C218.13,51.44 219.72,50.73 220.87,50.21C221.82,49.78 222.79,49.35 223.49,49.04C223.96,48.83 224.17,48.75 224.68,48.53C225.59,48.14 227.21,47.42 228.48,46.87C229.76,46.32 231.05,45.78 232.325,45.245C233.59,44.71 234.84,44.19 236.1,43.67C237.37,43.15 238.89,42.54 239.91,42.12C240.6,41.84 241.03,41.66 241.63,41.42C242.29,41.16 242.92,40.92 243.72,40.61C244.8,40.19 246.25,39.61 247.53,39.12C248.82,38.62 250.13,38.13 251.41000000000003,37.65C252.67,37.18 253.89,36.71 255.14,36.25C256.4,35.78 257.76,35.3 258.95,34.87C260,34.49 261.22,34.05 261.91,33.81C262.28,33.68 262.38,33.65 262.76,33.52C263.58,33.24 265.3,32.63 266.57,32.19C267.84,31.75 269.21,31.29 270.37,30.9Q271.35,30.57 273.09,30" style="stroke-miterlimit: 1; vector-effect: non-scaling-stroke; fill: none; stroke: rgb(47, 38, 33); stroke-opacity: 1; stroke-width: 2px;"/><path class="openline" d="M377,133.91Q376.43,135.65 376.1,136.63C375.71,137.79 375.25,139.16 374.81,140.43C374.37,141.7 373.76,143.42 373.48,144.24C373.35,144.62 373.32,144.72 373.19,145.09C372.95,145.78 372.51,147 372.13,148.05C371.7,149.24 371.22,150.6 370.75,151.86C370.29,153.11 369.82,154.33 369.35,155.58999999999997C368.87,156.87 368.38,158.18 367.88,159.47C367.39,160.75 366.81,162.2 366.39,163.28C366.08,164.08 365.84,164.71 365.58,165.37C365.34,165.97 365.16,166.4 364.88,167.09C364.46,168.11 363.85,169.63 363.33,170.9C362.81,172.16 362.29,173.41 361.755,174.675C361.22,175.95 360.68,177.24 360.13,178.52C359.58,179.79 358.86,181.41 358.47,182.32C358.25,182.83 358.17,183.04 357.96,183.51C357.65,184.21 357.22,185.18 356.79,186.13C356.27,187.28 355.56,188.87 355.07,189.94C354.72,190.72 354.45,191.3 354.15,191.95C353.86,192.57 353.64,193.04 353.31,193.75C352.83,194.78 352.06,196.43 351.52,197.56C351.09,198.47 350.68,199.32 350.34,200.02C350.09,200.53 349.96,200.8 349.68,201.36C349.22,202.31 348.38,204.02 347.82,205.17C347.36,206.11 346.89,207.05 346.54,207.75C346.29,208.24 346.18,208.46 345.91,208.98C345.44,209.9 344.54,211.67 343.96,212.79C343.5,213.68 343.09,214.48 342.73,215.17C342.45,215.71 342.28,216.01 341.97,216.6C341.46,217.56 340.5,219.35 339.94,220.4C339.54,221.14 339.27,221.67 338.92,222.3C338.57,222.94 338.27,223.46 337.86,224.21C337.27,225.26 336.24,227.13 335.74,228.02C335.47,228.5 335.37,228.69 335.11,229.14C334.71,229.84 334.13,230.86 333.57,231.83C332.89,233 332.07,234.4 331.32,235.67C330.57,236.93 329.77,238.3 329.08,239.44C328.51,240.39 327.92,241.35 327.49,242.05C327.2,242.53 327.07,242.74 326.75,243.25C326.18,244.16 324.92,246.17 324.37,247.06C324.07,247.53 323.97,247.71 323.69,248.15C323.24,248.85 322.55,249.93 321.94,250.87C321.28,251.88 320.32,253.34 319.88,254C319.68,254.31 319.64,254.36 319.43,254.68C318.93,255.43 317.48,257.58 316.87,258.48C316.53,258.98 316.39,259.18 316.07,259.65C315.59,260.35 314.86,261.4 314.24,262.29C313.6,263.21 312.76,264.39 312.26,265.09C311.96,265.51 311.86,265.65 311.53,266.1C310.88,266.99 309.56,268.81 308.6,270.11C307.69,271.35 306.63,272.75 305.9,273.72C305.41,274.37 305.1,274.78 304.65,275.36C304.13,276.03 303.56,276.77 302.96,277.53C302.29,278.38 301.4,279.51 300.84,280.21C300.48,280.66 300.32,280.85 299.93,281.33C299.22,282.2 297.95,283.77 296.91999999999996,285.01C295.85,286.3 294.16,288.29 293.6,288.95C293.41,289.17 293.41,289.17 293.22,289.39C292.7,289.99 290.98,291.97 290.29,292.76C289.91,293.19 289.78,293.33 289.41,293.74C288.78,294.44 287.57,295.8 286.87,296.57C286.38,297.11 286.09,297.42 285.61,297.94C284.97,298.64 284.02,299.64 283.34,300.37C282.78,300.97 282.36,301.41 281.8,301.99C281.15,302.67 280.35,303.5 279.68,304.18C279.09,304.79 278.58,305.3 277.99,305.9C277.33,306.56 276.56,307.33 275.9,307.99C275.3,308.58 274.79,309.09 274.18,309.68C273.5,310.35 272.67,311.15 271.99,311.8C271.41,312.36 270.97,312.78 270.37,313.34C269.64,314.02 268.64,314.97 267.94,315.61C267.42,316.09 267.11,316.38 266.57,316.87C265.8,317.57 264.44,318.78 263.74,319.41C263.33,319.78 263.19,319.91 262.76,320.29C261.97,320.98 259.99,322.7 259.39,323.22C259.17,323.41 259.17,323.41 258.95,323.6C258.29,324.16 256.3,325.85 255.01,326.91999999999996C253.77,327.95 252.2,329.22 251.33,329.93C250.85,330.32 250.66,330.48 250.21,330.84C249.51,331.4 248.38,332.29 247.53,332.96C246.77,333.56 246.03,334.13 245.36,334.65C244.78,335.1 244.37,335.41 243.72,335.9C242.75,336.63 241.35,337.69 240.11,338.6C238.81,339.56 236.99,340.88 236.1,341.53C235.65,341.86 235.51,341.96 235.09,342.26C234.39,342.76 233.21,343.6 232.29,344.24C231.4,344.86 230.35,345.59 229.65,346.07C229.18,346.39 228.98,346.53 228.48,346.87C227.58,347.48 225.43,348.93 224.68,349.43C224.36,349.64 224.31,349.68 224,349.88C223.34,350.32 221.88,351.28 220.87,351.94C219.93,352.55 218.85,353.24 218.15,353.69C217.71,353.97 217.53,354.07 217.06,354.37C216.17,354.92 214.16,356.18 213.25,356.75C212.74,357.07 212.53,357.2 212.05,357.49C211.35,357.92 210.39,358.51 209.44,359.08C208.3,359.77 206.93,360.57 205.67,361.32C204.4,362.07 203,362.89 201.83,363.57C200.86,364.13 199.84,364.71 199.14,365.11C198.69,365.37 198.5,365.47 198.02,365.74C197.13,366.24 195.26,367.27 194.21,367.86C193.46,368.27 192.94,368.57 192.3,368.92C191.67,369.27 191.14,369.54 190.4,369.94C189.35,370.5 187.56,371.46 186.6,371.97C186.01,372.28 185.71,372.45 185.17,372.73C184.48,373.09 183.68,373.5 182.79,373.96C181.67,374.54 179.9,375.44 178.98,375.91C178.46,376.18 178.24,376.29 177.75,376.54C177.05,376.89 176.11,377.36 175.17,377.82C174.02,378.38 172.31,379.22 171.36,379.68C170.8,379.96 170.53,380.09 170.02,380.34C169.32,380.68 168.47,381.09 167.56,381.52C166.43,382.06 164.78,382.83 163.75,383.31C163.04,383.64 162.57,383.86 161.95,384.15C161.3,384.45 160.72,384.72 159.94,385.07C158.87,385.56 157.28,386.27 156.13,386.79C155.18,387.22 154.21,387.65 153.51,387.96C153.04,388.17 152.83,388.25 152.32,388.47C151.41,388.86 149.79,389.58 148.52,390.13C147.24,390.68 145.95,391.22 144.675,391.755C143.41,392.29 142.16,392.81 140.9,393.33C139.63,393.85 138.11,394.46 137.09,394.88C136.4,395.16 135.97,395.34 135.37,395.58C134.71,395.84 134.08,396.08 133.28,396.39C132.2,396.81 130.75,397.39 129.47,397.88C128.18,398.38 126.87,398.87 125.59,399.35C124.33,399.82 123.11,400.29 121.86,400.75C120.6,401.22 119.24,401.7 118.05,402.13C117,402.51 115.78,402.95 115.09,403.19C114.72,403.32 114.62,403.35 114.24,403.48C113.42,403.76 111.7,404.37 110.43,404.81C109.16,405.25 107.79,405.71 106.63,406.1Q105.65,406.43 103.91,407" style="stroke-miterlimit: 1; vector-effect: non-scaling-stroke; fill: none; stroke: rgb(47, 38, 33); stroke-opacity: 1; stroke-width: 2px;"/></g><g class="contourlevel"><path class="openline" d="M0,334Q0.91,331.94 1.41,330.84C1.96,329.63 2.7,328.01 3.14,327.03C3.42,326.42 3.55,326.09 3.81,325.54C4.13,324.85 4.5,324.09 4.92,323.22C5.46,322.11 6.26,320.44 6.76,319.41C7.1,318.71 7.32,318.25 7.62,317.64C7.95,316.98 8.26,316.39 8.66,315.61C9.21,314.54 10.09,312.8 10.6,311.8C10.93,311.15 11.12,310.76 11.42,310.18C11.77,309.5 12.15,308.82 12.6,307.99C13.19,306.89 14.18,305.07 14.65,304.18C14.9,303.7 14.99,303.53 15.23,303.08C15.61,302.38 16.19,301.36 16.74,300.37C17.41,299.18 18.23,297.72 18.965,296.43C19.68,295.18 20.4,293.92 21.08,292.76C21.69,291.7 22.45,290.41 22.85,289.73C23.06,289.38 23.1,289.31 23.32,288.95C23.8,288.16 24.99,286.17 25.61,285.14C26.03,284.44 26.29,284 26.66,283.39C27.06,282.73 27.44,282.13 27.94,281.33C28.62,280.23 29.58,278.7 30.39,277.40999999999997C31.18,276.16 32.04,274.82 32.74,273.72C33.3,272.83 33.82,272.01 34.27,271.32C34.62,270.79 34.82,270.5 35.21,269.91C35.85,268.95 37.26,266.8 37.72,266.1C37.9,265.83 37.91,265.8 38.08,265.54C38.5,264.9 39.6,263.29 40.27,262.29C40.85,261.43 41.42,260.57 41.89,259.88C42.25,259.35 42.45,259.06 42.86,258.48C43.54,257.5 44.7,255.82 45.6,254.53C46.47,253.29 47.45,251.89 48.17,250.87C48.69,250.13 49.06,249.6 49.51,248.97C49.96,248.33 50.37,247.79 50.89,247.06C51.58,246.1 52.87,244.31 53.31,243.71C53.47,243.49 53.48,243.48 53.65,243.25C54.13,242.6 55.84,240.27 56.45,239.44C56.75,239.03 56.83,238.92 57.12,238.53C57.64,237.84 58.62,236.54 59.29,235.64C59.87,234.86 60.42,234.13 60.93,233.46C61.37,232.88 61.69,232.47 62.18,231.83C62.88,230.91 64.27,229.1 64.74,228.49C64.92,228.26 64.93,228.25 65.11,228.02C65.63,227.36 67.5,224.94 68.07,224.21C68.3,223.92 68.33,223.88 68.55,223.6C69.06,222.95 70.38,221.29 71.08,220.4C71.58,219.77 71.89,219.37 72.35,218.79C72.89,218.11 73.52,217.36 74.13,216.6C74.79,215.79 75.59,214.78 76.16,214.08C76.57,213.58 76.78,213.32 77.22,212.79C77.92,211.94 79.47,210.06 79.97,209.45C80.16,209.22 80.17,209.21 80.36,208.98C80.92,208.3 82.58,206.32 83.66,205.02999999999997C84.71,203.78 86.05,202.19 86.76,201.36C87.12,200.93 87.24,200.8 87.59,200.39C88.19,199.69 89.34,198.37 90.03,197.56C90.55,196.95 90.89,196.54 91.39,195.97C91.98,195.29 92.7,194.48 93.34,193.75C93.97,193.03 94.61,192.29 95.2,191.62C95.72,191.03 96.14,190.56 96.69,189.94C97.38,189.17 98.38,188.04 99.01,187.34C99.44,186.86 99.65,186.62 100.1,186.13C100.8,185.35 102.2,183.8 102.82,183.12C103.14,182.77 103.22,182.68 103.55,182.32C104.22,181.59 106.08,179.57 106.63,178.97C106.83,178.75 106.84,178.74 107.05,178.52C107.65,177.88 109.34,176.05 110.515,174.79500000000002C111.73,173.5 112.98,172.18 114.22,170.875C115.46,169.57 116.7,168.27 117.945,166.98000000000002C119.19,165.69 120.44,164.4 121.7,163.12C122.96,161.84 124.22,160.56 125.48,159.285C126.74,158.01 128.01,156.74 129.285,155.48C130.56,154.22 131.84,152.96 133.12,151.7C134.4,150.44 135.69,149.19 136.98000000000002,147.945C138.27,146.7 139.57,145.46 140.875,144.22C142.18,142.98 143.5,141.73 144.79500000000002,140.515C146.05,139.34 147.88,137.65 148.52,137.05C148.74,136.84 148.75,136.83 148.97,136.63C149.57,136.08 151.59,134.22 152.32,133.55C152.68,133.22 152.77,133.14 153.12,132.82C153.8,132.2 155.35,130.8 156.13,130.1C156.62,129.65 156.86,129.44 157.34,129.01C158.04,128.38 159.17,127.38 159.94,126.69C160.56,126.14 161.03,125.72 161.62,125.2C162.29,124.61 163.03,123.97 163.75,123.34C164.48,122.7 165.29,121.98 165.97,121.39C166.54,120.89 166.95,120.55 167.56,120.03C168.37,119.34 169.69,118.19 170.39,117.59C170.8,117.24 170.93,117.12 171.36,116.76C172.19,116.05 173.78,114.71 175.02999999999997,113.66C176.32,112.58 178.3,110.92 178.98,110.36C179.21,110.17 179.22,110.16 179.45,109.97C180.06,109.47 181.94,107.92 182.79,107.22C183.32,106.78 183.58,106.57 184.08,106.16C184.78,105.59 185.79,104.79 186.6,104.13C187.36,103.52 188.11,102.89 188.79,102.35C189.37,101.89 189.77,101.58 190.4,101.08C191.29,100.38 192.95,99.06 193.6,98.55C193.88,98.33 193.92,98.3 194.21,98.07C194.94,97.5 197.36,95.63 198.02,95.11C198.25,94.93 198.26,94.92 198.49,94.74C199.1,94.27 200.91,92.88 201.83,92.18C202.47,91.69 202.88,91.37 203.46,90.93C204.13,90.42 204.86,89.87 205.64,89.29C206.54,88.62 207.84,87.64 208.53,87.12C208.92,86.83 209.03,86.75 209.44,86.45C210.27,85.84 212.6,84.13 213.25,83.65C213.48,83.48 213.49,83.47 213.71,83.31C214.31,82.87 216.1,81.58 217.06,80.89C217.79,80.37 218.33,79.96 218.97,79.51C219.6,79.06 220.13,78.69 220.87,78.17C221.89,77.45 223.29,76.47 224.53,75.6C225.82,74.7 227.5,73.54 228.48,72.86C229.06,72.45 229.35,72.25 229.88,71.89C230.57,71.42 231.43,70.85 232.29,70.27C233.29,69.6 234.9,68.5 235.54,68.08C235.8,67.91 235.83,67.9 236.1,67.72C236.8,67.26 238.95,65.85 239.91,65.21C240.5,64.82 240.79,64.62 241.32,64.27C242.01,63.82 242.83,63.3 243.72,62.74C244.82,62.04 246.16,61.18 247.41,60.39C248.7,59.58 250.23,58.62 251.33,57.94C252.13,57.44 252.73,57.06 253.39,56.66C254,56.29 254.44,56.03 255.14,55.61C256.17,54.99 258.16,53.8 258.95,53.32C259.31,53.1 259.38,53.06 259.73,52.85C260.41,52.45 261.7,51.69 262.76,51.08C263.92,50.4 265.18,49.68 266.43,48.965C267.72,48.23 269.18,47.41 270.37,46.74C271.36,46.19 272.38,45.61 273.08,45.23C273.53,44.99 273.7,44.9 274.18,44.65C275.07,44.18 276.89,43.19 277.99,42.6C278.82,42.15 279.5,41.77 280.18,41.42C280.76,41.12 281.15,40.93 281.8,40.6C282.8,40.09 284.54,39.21 285.61,38.66C286.39,38.26 286.98,37.95 287.64,37.62C288.25,37.32 288.71,37.1 289.41,36.76C290.44,36.26 292.11,35.46 293.22,34.92C294.09,34.5 294.85,34.13 295.54,33.81C296.09,33.55 296.42,33.42 297.03,33.14C298.01,32.7 299.63,31.96 300.84,31.41Q301.94,30.91 304,30" style="stroke-miterlimit: 1; vector-effect: non-scaling-stroke; fill: none; stroke: rgb(59, 46, 38); stroke-opacity: 1; stroke-width: 2px;"/><path class="openline" d="M377,103Q376.09,105.06 375.59,106.16C375.04,107.37 374.3,108.99 373.86,109.97C373.58,110.58 373.45,110.91 373.19,111.46C372.87,112.15 372.5,112.91 372.08,113.78C371.54,114.89 370.74,116.56 370.24,117.59C369.9,118.29 369.68,118.75 369.38,119.36C369.05,120.02 368.74,120.61 368.34,121.39C367.79,122.46 366.91,124.2 366.4,125.2C366.07,125.85 365.88,126.24 365.58,126.82C365.23,127.5 364.85,128.18 364.4,129.01C363.81,130.11 362.82,131.93 362.35,132.82C362.1,133.3 362.01,133.47 361.77,133.92C361.39,134.62 360.81,135.64 360.26,136.63C359.59,137.82 358.77,139.28 358.03499999999997,140.57C357.32,141.82 356.6,143.08 355.92,144.24C355.31,145.3 354.55,146.59 354.15,147.27C353.94,147.62 353.9,147.69 353.68,148.05C353.2,148.84 352.01,150.83 351.39,151.86C350.97,152.56 350.71,153 350.34,153.61C349.94,154.27 349.56,154.87 349.06,155.67C348.38,156.77 347.42,158.3 346.61,159.59C345.82,160.84 344.96,162.18 344.26,163.28C343.7,164.17 343.18,164.99 342.73,165.68C342.38,166.21 342.18,166.5 341.79,167.09C341.15,168.05 339.74,170.2 339.28,170.9C339.1,171.17 339.09,171.2 338.92,171.46C338.5,172.1 337.4,173.71 336.73,174.71C336.15,175.57 335.58,176.43 335.11,177.12C334.75,177.65 334.55,177.94 334.14,178.52C333.46,179.5 332.3,181.18 331.4,182.47C330.53,183.71 329.55,185.11 328.83,186.13C328.31,186.87 327.94,187.4 327.49,188.03C327.04,188.67 326.63,189.21 326.11,189.94C325.42,190.9 324.13,192.69 323.69,193.29C323.53,193.51 323.52,193.52 323.35,193.75C322.87,194.4 321.16,196.73 320.55,197.56C320.25,197.97 320.17,198.08 319.88,198.47C319.36,199.16 318.38,200.46 317.71,201.36C317.13,202.14 316.58,202.87 316.07,203.54C315.63,204.12 315.31,204.53 314.82,205.17C314.12,206.09 312.73,207.9 312.26,208.51C312.08,208.74 312.07,208.75 311.89,208.98C311.37,209.64 309.5,212.06 308.93,212.79C308.7,213.08 308.67,213.12 308.45,213.4C307.94,214.05 306.62,215.71 305.92,216.6C305.42,217.23 305.11,217.63 304.65,218.21C304.11,218.89 303.48,219.64 302.87,220.4C302.21,221.21 301.41,222.22 300.84,222.92C300.43,223.42 300.22,223.68 299.78,224.21C299.08,225.06 297.53,226.94 297.03,227.55C296.84,227.78 296.83,227.79 296.64,228.02C296.08,228.7 294.42,230.68 293.34000000000003,231.97000000000003C292.29,233.22 290.95,234.81 290.24,235.64C289.88,236.07 289.76,236.2 289.41,236.61C288.81,237.31 287.66,238.63 286.97,239.44C286.45,240.05 286.11,240.46 285.61,241.03C285.02,241.71 284.3,242.52 283.66,243.25C283.03,243.97 282.39,244.71 281.8,245.38C281.28,245.97 280.86,246.44 280.31,247.06C279.62,247.83 278.62,248.96 277.99,249.66C277.56,250.14 277.35,250.38 276.9,250.87C276.2,251.65 274.8,253.2 274.18,253.88C273.86,254.23 273.78,254.32 273.45,254.68C272.78,255.41 270.92,257.43 270.37,258.03C270.17,258.25 270.16,258.26 269.95,258.48C269.35,259.12 267.66,260.95 266.485,262.20500000000004C265.27,263.5 264.02,264.82 262.78,266.125C261.54,267.43 260.3,268.73 259.055,270.02C257.81,271.31 256.56,272.6 255.3,273.88C254.04,275.16 252.78,276.44 251.52,277.715C250.26,278.99 248.99,280.26 247.715,281.52C246.44,282.78 245.16,284.04 243.88,285.29999999999995C242.6,286.56 241.31,287.81 240.01999999999998,289.055C238.73,290.3 237.43,291.54 236.125,292.78C234.82,294.02 233.5,295.27 232.20499999999998,296.485C230.95,297.66 229.12,299.35 228.48,299.95C228.26,300.16 228.25,300.17 228.03,300.37C227.43,300.92 225.41,302.78 224.68,303.45C224.32,303.78 224.23,303.86 223.88,304.18C223.2,304.8 221.65,306.2 220.87,306.9C220.38,307.35 220.14,307.56 219.66,307.99C218.96,308.62 217.83,309.62 217.06,310.31C216.44,310.86 215.97,311.28 215.38,311.8C214.71,312.39 213.97,313.03 213.25,313.66C212.52,314.3 211.71,315.02 211.03,315.61C210.46,316.11 210.05,316.45 209.44,316.97C208.63,317.66 207.31,318.81 206.61,319.41C206.2,319.76 206.07,319.88 205.64,320.24C204.81,320.95 203.22,322.29 201.97000000000003,323.34000000000003C200.68,324.42 198.7,326.08 198.02,326.64C197.79,326.83 197.78,326.84 197.55,327.03C196.94,327.53 195.06,329.08 194.21,329.78C193.68,330.22 193.42,330.43 192.92,330.84C192.22,331.41 191.21,332.21 190.4,332.87C189.64,333.48 188.89,334.11 188.21,334.65C187.63,335.11 187.23,335.42 186.6,335.92C185.71,336.62 184.05,337.94 183.4,338.45C183.12,338.67 183.08,338.7 182.79,338.93C182.06,339.5 179.64,341.37 178.98,341.89C178.75,342.07 178.74,342.08 178.51,342.26C177.9,342.73 176.09,344.12 175.17,344.82C174.53,345.31 174.12,345.63 173.54,346.07C172.87,346.58 172.14,347.13 171.36,347.71C170.46,348.38 169.16,349.36 168.47,349.88C168.08,350.17 167.97,350.25 167.56,350.55C166.73,351.16 164.4,352.87 163.75,353.35C163.52,353.52 163.51,353.53 163.29,353.69C162.69,354.13 160.9,355.42 159.94,356.11C159.21,356.63 158.67,357.04 158.03,357.49C157.4,357.94 156.87,358.31 156.13,358.83C155.11,359.55 153.71,360.53 152.47,361.4C151.18,362.3 149.5,363.46 148.52,364.14C147.94,364.55 147.65,364.75 147.12,365.11C146.43,365.58 145.57,366.15 144.71,366.73C143.71,367.4 142.1,368.5 141.46,368.92C141.2,369.09 141.17,369.1 140.9,369.28C140.2,369.74 138.05,371.15 137.09,371.79C136.5,372.18 136.21,372.38 135.68,372.73C134.99,373.18 134.17,373.7 133.28,374.26C132.18,374.96 130.84,375.82 129.59,376.61C128.3,377.42 126.77,378.38 125.67,379.06C124.87,379.56 124.27,379.94 123.61,380.34C123,380.71 122.56,380.97 121.86,381.39C120.83,382.01 118.84,383.2 118.05,383.68C117.69,383.9 117.62,383.94 117.27,384.15C116.59,384.55 115.3,385.31 114.24,385.92C113.08,386.6 111.82,387.32 110.57,388.03499999999997C109.28,388.77 107.82,389.59 106.63,390.26C105.64,390.81 104.62,391.39 103.92,391.77C103.47,392.01 103.3,392.1 102.82,392.35C101.93,392.82 100.11,393.81 99.01,394.4C98.18,394.85 97.5,395.23 96.82,395.58C96.24,395.88 95.85,396.07 95.2,396.4C94.2,396.91 92.46,397.79 91.39,398.34C90.61,398.74 90.02,399.05 89.36,399.38C88.75,399.68 88.29,399.9 87.59,400.24C86.56,400.74 84.89,401.54 83.78,402.08C82.91,402.5 82.15,402.87 81.46,403.19C80.91,403.45 80.58,403.58 79.97,403.86C78.99,404.3 77.37,405.04 76.16,405.59Q75.06,406.09 73,407" style="stroke-miterlimit: 1; vector-effect: non-scaling-stroke; fill: none; stroke: rgb(59, 46, 38); stroke-opacity: 1; stroke-width: 2px;"/></g><g class="contourlevel"><path class="openline" d="M0,349.8Q1.37,347.27 2.02,346.07C2.63,344.95 3.45,343.44 3.81,342.81C3.96,342.55 3.98,342.53 4.14,342.26C4.55,341.56 5.71,339.54 6.35,338.45C6.83,337.62 7.21,336.94 7.62,336.27C7.97,335.69 8.23,335.3 8.64,334.65C9.27,333.65 10.55,331.6 11.01,330.84C11.21,330.52 11.23,330.45 11.42,330.14C11.84,329.47 12.81,328.03 13.46,327.03C14.07,326.09 14.76,324.99 15.23,324.29C15.53,323.85 15.66,323.69 15.98,323.22C16.59,322.34 18.06,320.18 18.57,319.41C18.79,319.08 18.82,319.02 19.04,318.7C19.5,318.03 20.56,316.57 21.23,315.61C21.81,314.78 22.36,313.97 22.85,313.29C23.25,312.74 23.51,312.41 23.96,311.8C24.67,310.83 25.77,309.31 26.705,308.05C27.66,306.77 28.94,305.09 29.62,304.18C29.99,303.69 30.11,303.49 30.46,303.03C30.99,302.32 31.88,301.22 32.54,300.37C33.15,299.59 33.73,298.78 34.27,298.1C34.72,297.54 35.03,297.18 35.52,296.57C36.23,295.69 37.57,293.94 38.08,293.31C38.29,293.05 38.32,293.03 38.54,292.76C39.13,292.04 40.7,290.08 41.760000000000005,288.78499999999997C42.78,287.54 44.05,286.01 44.77,285.14C45.17,284.65 45.32,284.46 45.7,284C46.29,283.29 47.28,282.14 47.96,281.33C48.53,280.66 48.98,280.09 49.51,279.47C50.06,278.83 50.61,278.22 51.2,277.53C51.87,276.75 52.71,275.73 53.31,275.03C53.75,274.52 54.01,274.25 54.47,273.72C55.18,272.91 56.53,271.32 57.12,270.65C57.41,270.32 57.48,270.25 57.79,269.91C58.47,269.15 59.92,267.47 61.035,266.21500000000003C62.2,264.9 63.46,263.49 64.63499999999999,262.175C65.76,260.91 67.3,259.21 67.96,258.48C68.24,258.17 68.28,258.13 68.55,257.83C69.15,257.17 70.74,255.45 71.43,254.68C71.82,254.24 71.96,254.07 72.35,253.64C72.99,252.94 74.22,251.63 74.92,250.87C75.41,250.34 75.68,250.02 76.16,249.5C76.8,248.8 77.76,247.8 78.44,247.06C79,246.45 79.42,245.98 79.97,245.39C80.59,244.72 81.33,243.95 81.98,243.25C82.6,242.59 83.18,241.96 83.78,241.32C84.37,240.69 84.95,240.09 85.56,239.44C86.22,238.74 86.96,237.94 87.59,237.27C88.14,236.69 88.58,236.24 89.15,235.64C89.83,234.92 90.73,233.94 91.39,233.25C91.9,232.71 92.24,232.37 92.76,231.83C93.46,231.1 94.53,229.96 95.2,229.26C95.67,228.77 95.92,228.52 96.4,228.02C97.1,227.29 98.34,225.98 99.01,225.28C99.43,224.84 99.62,224.65 100.05,224.21C100.75,223.48 102.15,222.03 102.82,221.33C103.2,220.93 103.33,220.8 103.72,220.4C104.41,219.68 105.97,218.07 106.63,217.39C106.97,217.04 107.07,216.95 107.41,216.6C108.09,215.9 109.78,214.13 110.43,213.47C110.74,213.16 110.8,213.1 111.11,212.79C111.77,212.12 113.61,210.21 114.24,209.57C114.51,209.29 114.55,209.26 114.82,208.98C115.46,208.33 117.44,206.3 118.05,205.68C118.29,205.44 118.31,205.41 118.55,205.17C119.17,204.54 121.28,202.4 121.86,201.8C122.07,201.58 122.08,201.58 122.29,201.36C122.9,200.74 124.65,198.97 125.855,197.745C127.1,196.49 128.37,195.19 129.635,193.91C130.9,192.63 132.16,191.36 133.425,190.08499999999998C134.69,188.81 135.95,187.53 137.22,186.26C138.49,184.99 139.75,183.71 141.01999999999998,182.44C142.29,181.17 143.56,179.9 144.825,178.635C146.09,177.37 147.37,176.09 148.635,174.825C149.9,173.56 151.17,172.29 152.44,171.01999999999998C153.71,169.75 154.99,168.49 156.26,167.22C157.53,165.95 158.81,164.69 160.08499999999998,163.425C161.36,162.16 162.63,160.9 163.91,159.635C165.19,158.37 166.49,157.1 167.745,155.855C168.97,154.65 170.74,152.9 171.36,152.29C171.58,152.08 171.58,152.07 171.8,151.86C172.4,151.28 174.54,149.17 175.17,148.55C175.41,148.31 175.44,148.29 175.68,148.05C176.3,147.44 178.33,145.46 178.98,144.82C179.26,144.55 179.29,144.51 179.57,144.24C180.21,143.61 182.12,141.77 182.79,141.11C183.1,140.8 183.16,140.74 183.47,140.43C184.13,139.78 185.9,138.09 186.6,137.41C186.95,137.07 187.04,136.97 187.39,136.63C188.07,135.97 189.68,134.41 190.4,133.72C190.8,133.33 190.93,133.2 191.33,132.82C192.03,132.15 193.48,130.75 194.21,130.05C194.65,129.62 194.84,129.43 195.28,129.01C195.98,128.34 197.29,127.1 198.02,126.4C198.52,125.92 198.77,125.67 199.26,125.2C199.96,124.53 201.1,123.46 201.83,122.76C202.37,122.24 202.71,121.9 203.25,121.39C203.94,120.73 204.92,119.83 205.64,119.15C206.24,118.58 206.69,118.14 207.27,117.59C207.94,116.96 208.74,116.22 209.44,115.56C210.09,114.95 210.69,114.37 211.32,113.78C211.96,113.18 212.59,112.6 213.25,111.98C213.95,111.33 214.72,110.59 215.39,109.97C215.98,109.42 216.45,109 217.06,108.44C217.8,107.76 218.8,106.8 219.5,106.16C220.02,105.68 220.34,105.41 220.87,104.92C221.63,104.22 222.94,102.99 223.64,102.35C224.07,101.96 224.24,101.82 224.68,101.43C225.45,100.74 227.17,99.15 227.83,98.55C228.13,98.28 228.17,98.24 228.48,97.96C229.21,97.3 230.91,95.76 232.175,94.63499999999999C233.49,93.46 234.9,92.2 236.215,91.035C237.47,89.92 239.15,88.47 239.91,87.79C240.25,87.48 240.32,87.41 240.65,87.12C241.32,86.53 242.91,85.18 243.72,84.47C244.25,84.01 244.52,83.75 245.03,83.31C245.73,82.71 246.75,81.87 247.53,81.2C248.22,80.61 248.83,80.06 249.47,79.51C250.09,78.98 250.66,78.53 251.33,77.96C252.14,77.28 253.29,76.29 254,75.7C254.46,75.32 254.65,75.17 255.14,74.77C256.01,74.05 257.54,72.78 258.78499999999997,71.75999999999999C260.08,70.7 262.04,69.13 262.76,68.54C263.03,68.32 263.05,68.29 263.31,68.08C263.94,67.57 265.69,66.23 266.57,65.52C267.18,65.03 267.54,64.72 268.1,64.27C268.78,63.73 269.59,63.15 270.37,62.54C271.22,61.88 272.32,60.99 273.03,60.46C273.49,60.11 273.69,59.99 274.18,59.62C275.09,58.94 276.77,57.66 278.05,56.705C279.31,55.77 280.83,54.67 281.8,53.96C282.41,53.51 282.74,53.25 283.29,52.85C283.97,52.36 284.78,51.81 285.61,51.23C286.57,50.56 288.03,49.5 288.7,49.04C289.02,48.82 289.08,48.79 289.41,48.57C290.18,48.06 292.34,46.59 293.22,45.98C293.69,45.66 293.85,45.53 294.29,45.23C294.99,44.76 296.09,44.07 297.03,43.46C298.03,42.81 299.47,41.84 300.14,41.42C300.45,41.23 300.52,41.21 300.84,41.01C301.6,40.55 303.65,39.27 304.65,38.64C305.3,38.23 305.69,37.97 306.27,37.62C306.94,37.21 307.62,36.83 308.45,36.35C309.54,35.71 311.56,34.55 312.26,34.14C312.53,33.98 312.55,33.96 312.81,33.81C313.44,33.45 314.95,32.63 316.07,32.02Q317.27,31.37 319.8,30" style="stroke-miterlimit: 1; vector-effect: non-scaling-stroke; fill: none; stroke: rgb(72, 54, 43); stroke-opacity: 1; stroke-width: 2px;"/><path class="openline" d="M377,87.2Q375.63,89.73 374.98,90.93C374.37,92.05 373.55,93.56 373.19,94.19C373.04,94.45 373.02,94.47 372.86,94.74C372.45,95.44 371.29,97.46 370.65,98.55C370.17,99.38 369.79,100.06 369.38,100.73C369.03,101.31 368.77,101.7 368.36,102.35C367.73,103.35 366.45,105.4 365.99,106.16C365.79,106.48 365.77,106.55 365.58,106.86C365.16,107.53 364.19,108.97 363.54,109.97C362.93,110.91 362.24,112.01 361.77,112.71C361.47,113.15 361.34,113.31 361.02,113.78C360.41,114.66 358.94,116.82 358.43,117.59C358.21,117.92 358.18,117.98 357.96,118.3C357.5,118.97 356.44,120.43 355.77,121.39C355.19,122.22 354.64,123.03 354.15,123.71C353.75,124.26 353.49,124.59 353.04,125.2C352.33,126.17 351.23,127.69 350.29499999999996,128.95C349.34,130.23 348.06,131.91 347.38,132.82C347.01,133.31 346.89,133.51 346.54,133.97C346.01,134.68 345.12,135.78 344.46,136.63C343.85,137.41 343.27,138.22 342.73,138.9C342.28,139.46 341.97,139.82 341.48,140.43C340.77,141.31 339.43,143.06 338.92,143.69C338.71,143.95 338.68,143.97 338.46,144.24C337.87,144.96 336.3,146.92 335.24,148.215C334.22,149.46 332.95,150.99 332.23,151.86C331.83,152.35 331.68,152.54 331.3,153C330.71,153.71 329.72,154.86 329.04,155.67C328.47,156.34 328.02,156.91 327.49,157.53C326.94,158.17 326.39,158.78 325.8,159.47C325.13,160.25 324.29,161.27 323.69,161.97C323.25,162.48 322.99,162.75 322.53,163.28C321.82,164.09 320.47,165.68 319.88,166.35C319.59,166.68 319.52,166.75 319.21,167.09C318.53,167.85 317.08,169.53 315.96500000000003,170.785C314.8,172.1 313.54,173.51 312.365,174.825C311.24,176.09 309.7,177.79 309.04,178.52C308.76,178.83 308.72,178.87 308.45,179.17C307.85,179.83 306.26,181.55 305.57,182.32C305.18,182.76 305.04,182.93 304.65,183.36C304.01,184.06 302.78,185.37 302.08,186.13C301.59,186.66 301.32,186.98 300.84,187.5C300.2,188.2 299.24,189.2 298.56,189.94C298,190.55 297.58,191.02 297.03,191.61C296.41,192.28 295.67,193.05 295.02,193.75C294.4,194.41 293.82,195.04 293.22,195.68C292.63,196.31 292.05,196.91 291.44,197.56C290.78,198.26 290.04,199.06 289.41,199.73C288.86,200.31 288.42,200.76 287.85,201.36C287.17,202.08 286.27,203.06 285.61,203.75C285.1,204.29 284.76,204.63 284.24,205.17C283.54,205.9 282.47,207.04 281.8,207.74C281.33,208.23 281.08,208.48 280.6,208.98C279.9,209.71 278.66,211.02 277.99,211.72C277.57,212.16 277.38,212.35 276.95,212.79C276.25,213.52 274.85,214.97 274.18,215.67C273.8,216.07 273.67,216.2 273.28,216.6C272.59,217.32 271.03,218.93 270.37,219.61C270.03,219.96 269.93,220.05 269.59,220.4C268.91,221.1 267.22,222.87 266.57,223.53C266.26,223.84 266.2,223.9 265.89,224.21C265.23,224.88 263.39,226.79 262.76,227.43C262.49,227.71 262.45,227.74 262.18,228.02C261.54,228.67 259.56,230.7 258.95,231.32C258.71,231.56 258.69,231.59 258.45,231.83C257.83,232.46 255.72,234.6 255.14,235.2C254.93,235.42 254.92,235.42 254.71,235.64C254.1,236.26 252.35,238.03 251.145,239.255C249.9,240.51 248.63,241.81 247.365,243.09C246.1,244.37 244.84,245.64 243.575,246.91500000000002C242.31,248.19 241.05,249.47 239.78,250.74C238.51,252.01 237.25,253.29 235.98000000000002,254.56C234.71,255.83 233.44,257.1 232.175,258.365C230.91,259.63 229.63,260.91 228.365,262.175C227.1,263.44 225.83,264.71 224.56,265.98C223.29,267.25 222.01,268.51 220.74,269.78C219.47,271.05 218.19,272.31 216.91500000000002,273.57500000000005C215.64,274.84 214.37,276.1 213.09,277.365C211.81,278.63 210.51,279.9 209.255,281.145C208.03,282.35 206.26,284.1 205.64,284.71C205.42,284.92 205.42,284.93 205.2,285.14C204.6,285.72 202.46,287.83 201.83,288.45C201.59,288.69 201.56,288.71 201.32,288.95C200.7,289.56 198.67,291.54 198.02,292.18C197.74,292.45 197.71,292.49 197.43,292.76C196.79,293.39 194.88,295.23 194.21,295.89C193.9,296.2 193.84,296.26 193.53,296.57C192.87,297.22 191.1,298.91 190.4,299.59C190.05,299.93 189.96,300.03 189.61,300.37C188.93,301.03 187.32,302.59 186.6,303.28C186.2,303.67 186.07,303.8 185.67,304.18C184.97,304.85 183.52,306.25 182.79,306.95C182.35,307.38 182.16,307.57 181.72,307.99C181.02,308.66 179.71,309.9 178.98,310.6C178.48,311.08 178.23,311.33 177.74,311.8C177.04,312.47 175.9,313.54 175.17,314.24C174.63,314.76 174.29,315.1 173.75,315.61C173.06,316.27 172.08,317.17 171.36,317.85C170.76,318.42 170.31,318.86 169.73,319.41C169.06,320.04 168.26,320.78 167.56,321.44C166.91,322.05 166.31,322.63 165.68,323.22C165.04,323.82 164.41,324.4 163.75,325.02C163.05,325.67 162.28,326.41 161.61,327.03C161.02,327.58 160.55,328 159.94,328.56C159.2,329.24 158.2,330.2 157.5,330.84C156.98,331.32 156.66,331.59 156.13,332.08C155.37,332.78 154.06,334.01 153.36,334.65C152.93,335.04 152.76,335.18 152.32,335.57C151.55,336.26 149.83,337.85 149.17,338.45C148.87,338.72 148.83,338.76 148.52,339.04C147.79,339.7 146.09,341.24 144.825,342.365C143.51,343.54 142.1,344.8 140.785,345.96500000000003C139.53,347.08 137.85,348.53 137.09,349.21C136.75,349.52 136.68,349.59 136.35,349.88C135.68,350.47 134.09,351.82 133.28,352.53C132.75,352.99 132.48,353.25 131.97,353.69C131.27,354.29 130.25,355.13 129.47,355.8C128.78,356.39 128.17,356.94 127.53,357.49C126.91,358.02 126.34,358.47 125.67,359.04C124.86,359.72 123.71,360.71 123,361.3C122.54,361.68 122.35,361.83 121.86,362.23C120.99,362.95 119.46,364.22 118.215,365.24C116.92,366.3 114.96,367.87 114.24,368.46C113.97,368.68 113.95,368.71 113.69,368.92C113.06,369.43 111.31,370.77 110.43,371.48C109.82,371.97 109.46,372.28 108.9,372.73C108.22,373.27 107.41,373.85 106.63,374.46C105.78,375.12 104.68,376.01 103.97,376.54C103.51,376.89 103.31,377.01 102.82,377.38C101.91,378.06 100.23,379.34 98.95,380.29499999999996C97.69,381.23 96.17,382.33 95.2,383.04C94.59,383.49 94.26,383.75 93.71,384.15C93.03,384.64 92.22,385.19 91.39,385.77C90.43,386.44 88.97,387.5 88.3,387.96C87.98,388.18 87.92,388.21 87.59,388.43C86.82,388.94 84.66,390.41 83.78,391.02C83.31,391.34 83.15,391.47 82.71,391.77C82.01,392.24 80.91,392.93 79.97,393.54C78.97,394.19 77.53,395.16 76.86,395.58C76.55,395.77 76.48,395.79 76.16,395.99C75.4,396.45 73.35,397.73 72.35,398.36C71.7,398.77 71.31,399.03 70.73,399.38C70.06,399.79 69.38,400.17 68.55,400.65C67.46,401.29 65.44,402.45 64.74,402.86C64.47,403.02 64.45,403.04 64.19,403.19C63.56,403.55 62.05,404.37 60.93,404.98Q59.73,405.63 57.2,407" style="stroke-miterlimit: 1; vector-effect: non-scaling-stroke; fill: none; stroke: rgb(72, 54, 43); stroke-opacity: 1; stroke-width: 2px;"/></g><g class="contourlevel"><path class="openline" d="M0,359.84Q0.96,358.36 1.52,357.49C2.22,356.4 3.07,355.05 3.895,353.805C4.75,352.51 5.9,350.89 6.58,349.88C7.01,349.24 7.22,348.88 7.62,348.32C8.11,347.63 8.71,346.87 9.3,346.07C9.97,345.16 10.9,343.8 11.42,343.12C11.71,342.74 11.81,342.65 12.12,342.26C12.78,341.43 14.13,339.61 15.14,338.33C16.13,337.08 17.41,335.54 18.12,334.65C18.52,334.15 18.66,333.94 19.04,333.47C19.62,332.76 20.62,331.65 21.3,330.84C21.87,330.16 22.31,329.58 22.85,328.95C23.4,328.31 23.97,327.71 24.57,327.03C25.24,326.27 26.04,325.29 26.66,324.6C27.14,324.07 27.45,323.76 27.95,323.22C28.65,322.45 29.81,321.09 30.46,320.4C30.85,319.98 31.03,319.84 31.43,319.41C32.13,318.67 33.63,316.99 34.27,316.33C34.59,316 34.68,315.94 35,315.61C35.68,314.92 37.45,313 38.08,312.37C38.35,312.1 38.4,312.07 38.67,311.8C39.32,311.16 41.27,309.12 41.89,308.5C42.14,308.25 42.17,308.24 42.42,307.99C43.05,307.37 45.05,305.33 45.7,304.71C45.96,304.45 46,304.43 46.27,304.18C46.91,303.57 48.83,301.66 49.51,301.01C49.82,300.71 49.88,300.66 50.19,300.37C50.85,299.74 52.58,298.04 53.31,297.36C53.69,297.01 53.81,296.92 54.19,296.57C54.88,295.93 56.37,294.48 57.12,293.78C57.58,293.35 57.8,293.18 58.26,292.76C58.97,292.11 60.17,290.95 60.93,290.25C61.49,289.74 61.85,289.44 62.39,288.95C63.08,288.32 64,287.44 64.74,286.77C65.39,286.18 65.96,285.7 66.58,285.14C67.23,284.56 67.87,283.94 68.55,283.33C69.28,282.68 70.14,281.94 70.82,281.33C71.38,280.82 71.76,280.46 72.35,279.93C73.13,279.23 74.39,278.16 75.09,277.53C75.53,277.13 75.7,276.96 76.16,276.55C76.95,275.85 78.76,274.29 79.4,273.72C79.67,273.48 79.69,273.45 79.97,273.2C80.67,272.57 82.49,270.99 83.75999999999999,269.89C85.03,268.78 86.89,267.16 87.59,266.56C87.85,266.34 87.88,266.32 88.13,266.1C88.76,265.56 90.58,263.95 91.39,263.25C91.87,262.84 92.07,262.68 92.53,262.29C93.24,261.69 94.4,260.65 95.2,259.96C95.84,259.41 96.34,259 96.94,258.48C97.6,257.91 98.3,257.29 99.01,256.67C99.76,256.02 100.65,255.28 101.34,254.68C101.89,254.2 102.24,253.88 102.82,253.38C103.63,252.68 105.05,251.47 105.74,250.87C106.12,250.54 106.23,250.44 106.63,250.09C107.43,249.39 109.02,248.01 110.275,246.92000000000002C111.6,245.77 113.04,244.52 114.37,243.36C115.63,242.26 117.26,240.83 118.05,240.15C118.42,239.83 118.51,239.75 118.87,239.44C119.56,238.84 121.06,237.51 121.86,236.81C122.4,236.34 122.69,236.09 123.21,235.64C123.91,235.03 124.91,234.12 125.67,233.45C126.33,232.87 126.89,232.38 127.51,231.83C128.15,231.26 128.79,230.67 129.47,230.06C130.2,229.4 131.08,228.64 131.76,228.02C132.32,227.52 132.7,227.16 133.28,226.64C134.05,225.94 135.28,224.85 135.98,224.21C136.43,223.8 136.63,223.61 137.09,223.19C137.85,222.49 139.46,221.02 140.14,220.4C140.48,220.09 140.56,220.02 140.9,219.7C141.62,219.03 143.66,217.16 144.26,216.6C144.48,216.4 144.49,216.39 144.71,216.18C145.35,215.58 147.17,213.88 148.425,212.7C149.71,211.49 151.03,210.23 152.32999999999998,208.99C153.63,207.75 154.93,206.51 156.225,205.26C157.52,204.01 158.8,202.76 160.08499999999998,201.505C161.37,200.25 162.65,198.99 163.92000000000002,197.73000000000002C165.19,196.47 166.47,195.19 167.73000000000002,193.92000000000002C168.99,192.65 170.25,191.37 171.505,190.08499999999998C172.76,188.8 174.01,187.52 175.26,186.225C176.51,184.93 177.75,183.63 178.99,182.32999999999998C180.23,181.03 181.49,179.71 182.7,178.425C183.88,177.17 185.58,175.35 186.18,174.71C186.39,174.49 186.4,174.48 186.6,174.26C187.16,173.66 189.03,171.62 189.7,170.9C190.02,170.56 190.09,170.48 190.4,170.14C191.02,169.46 192.49,167.85 193.19,167.09C193.61,166.63 193.8,166.43 194.21,165.98C194.85,165.28 195.94,164.05 196.64,163.28C197.16,162.7 197.52,162.32 198.02,161.76C198.64,161.08 199.4,160.2 200.06,159.47C200.67,158.79 201.26,158.15 201.83,157.51C202.38,156.89 202.87,156.33 203.45,155.67C204.12,154.91 205.03,153.91 205.64,153.21C206.09,152.69 206.34,152.4 206.81,151.86C207.51,151.06 208.84,149.56 209.44,148.87C209.75,148.51 209.83,148.42 210.15,148.05C210.83,147.26 212.26,145.63 213.36,144.37C214.52,143.04 215.77,141.6 216.92000000000002,140.275C218.01,139.02 219.39,137.43 220.09,136.63C220.44,136.23 220.54,136.12 220.87,135.74C221.47,135.05 222.68,133.63 223.38,132.82C223.88,132.24 224.2,131.89 224.68,131.34C225.28,130.65 226.02,129.76 226.67,129.01C227.29,128.3 227.91,127.6 228.48,126.94C229,126.34 229.41,125.84 229.96,125.2C230.65,124.4 231.69,123.24 232.29,122.53C232.68,122.07 232.84,121.87 233.25,121.39C233.95,120.58 235.56,118.76 236.1,118.13C236.32,117.88 236.34,117.85 236.56,117.59C237.16,116.89 238.78,115.03 239.89,113.75999999999999C240.99,112.49 242.57,110.67 243.2,109.97C243.45,109.69 243.48,109.67 243.72,109.4C244.29,108.76 245.85,106.95 246.55,106.16C246.96,105.7 247.13,105.53 247.53,105.09C248.16,104.39 249.23,103.13 249.93,102.35C250.46,101.76 250.82,101.38 251.33,100.82C251.94,100.14 252.68,99.28 253.33,98.55C253.94,97.87 254.56,97.23 255.14,96.58C255.7,95.96 256.18,95.39 256.77,94.74C257.44,94 258.32,93.08 258.95,92.39C259.44,91.85 259.74,91.49 260.25,90.93C260.95,90.17 262.11,88.97 262.76,88.26C263.18,87.8 263.35,87.58 263.78,87.12C264.48,86.37 265.93,84.88 266.57,84.19C266.92,83.81 267.01,83.69 267.36,83.31C268.04,82.58 269.74,80.85 270.37,80.19C270.66,79.88 270.71,79.82 271.01,79.51C271.66,78.83 273.57,76.91 274.18,76.27C274.43,76 274.45,75.96 274.71,75.7C275.33,75.05 277.37,73.05 277.99,72.42C278.24,72.17 278.25,72.14 278.5,71.89C279.12,71.27 281.16,69.32 281.8,68.67C282.07,68.4 282.1,68.35 282.37,68.08C283,67.45 284.92,65.68 285.61,65C285.94,64.68 286,64.59 286.33,64.27C286.99,63.63 288.67,62.13 289.41,61.43C289.84,61.03 289.98,60.85 290.4,60.46C291.09,59.81 292.45,58.65 293.22,57.95C293.76,57.45 294.07,57.14 294.6,56.66C295.29,56.04 296.27,55.24 297.03,54.57C297.71,53.97 298.31,53.4 298.95,52.85C299.58,52.31 300.16,51.87 300.84,51.3C301.65,50.62 302.76,49.62 303.47,49.04C303.94,48.66 304.15,48.52 304.65,48.12C305.54,47.41 307.08,46.13 308.33,45.14C309.61,44.13 311.43,42.78 312.26,42.12C312.65,41.81 312.74,41.71 313.12,41.42C313.8,40.9 315.16,39.97 316.07,39.3C316.87,38.71 317.63,38.11 318.32,37.62C318.88,37.22 319.24,37.01 319.88,36.58C320.89,35.9 322.51,34.75 323.805,33.894999999999996C325.05,33.07 326.4,32.22 327.49,31.52Q328.36,30.96 329.84,30" style="stroke-miterlimit: 1; vector-effect: non-scaling-stroke; fill: none; stroke: rgb(85, 62, 47); stroke-opacity: 1; stroke-width: 2px;"/><path class="openline" d="M377,77.16Q376.04,78.64 375.48,79.51C374.78,80.6 373.93,81.95 373.105,83.195C372.25,84.49 371.1,86.11 370.42,87.12C369.99,87.76 369.78,88.12 369.38,88.68C368.89,89.37 368.29,90.13 367.7,90.93C367.03,91.84 366.1,93.2 365.58,93.88C365.29,94.26 365.19,94.35 364.88,94.74C364.22,95.57 362.87,97.39 361.86,98.67C360.87,99.92 359.59,101.46 358.88,102.35C358.48,102.85 358.34,103.06 357.96,103.53C357.38,104.24 356.38,105.35 355.7,106.16C355.13,106.84 354.69,107.42 354.15,108.05C353.6,108.69 353.03,109.29 352.43,109.97C351.76,110.73 350.96,111.71 350.34,112.4C349.86,112.93 349.55,113.24 349.05,113.78C348.35,114.55 347.19,115.91 346.54,116.6C346.15,117.02 345.97,117.16 345.57,117.59C344.87,118.33 343.37,120.01 342.73,120.67C342.41,121 342.32,121.06 342,121.39C341.32,122.08 339.55,124 338.92,124.63C338.65,124.9 338.6,124.93 338.33,125.2C337.68,125.84 335.73,127.88 335.11,128.5C334.86,128.75 334.83,128.76 334.58,129.01C333.95,129.63 331.95,131.67 331.3,132.29C331.04,132.55 331,132.57 330.73,132.82C330.09,133.43 328.17,135.34 327.49,135.99C327.18,136.29 327.12,136.34 326.81,136.63C326.15,137.26 324.42,138.96 323.69,139.64C323.31,139.99 323.19,140.08 322.81,140.43C322.12,141.07 320.63,142.52 319.88,143.22C319.42,143.65 319.2,143.82 318.74,144.24C318.03,144.89 316.83,146.05 316.07,146.75C315.51,147.26 315.15,147.56 314.61,148.05C313.92,148.68 313,149.56 312.26,150.23C311.61,150.82 311.04,151.3 310.42,151.86C309.77,152.44 309.13,153.06 308.45,153.67C307.72,154.32 306.86,155.06 306.18,155.67C305.62,156.18 305.24,156.54 304.65,157.07C303.87,157.77 302.61,158.84 301.91,159.47C301.47,159.87 301.3,160.04 300.84,160.45C300.05,161.15 298.24,162.71 297.6,163.28C297.33,163.52 297.31,163.55 297.03,163.8C296.33,164.43 294.51,166.01 293.24,167.11C291.97,168.22 290.11,169.84 289.41,170.44C289.15,170.66 289.12,170.68 288.87,170.9C288.24,171.44 286.42,173.05 285.61,173.75C285.13,174.16 284.93,174.32 284.47,174.71C283.76,175.31 282.6,176.35 281.8,177.04C281.16,177.59 280.66,178 280.06,178.52C279.4,179.09 278.7,179.71 277.99,180.33C277.24,180.98 276.35,181.72 275.66,182.32C275.11,182.8 274.76,183.12 274.18,183.62C273.37,184.32 271.95,185.53 271.26,186.13C270.88,186.46 270.77,186.56 270.37,186.91C269.57,187.61 267.98,188.99 266.725,190.07999999999998C265.4,191.23 263.96,192.48 262.63,193.64C261.37,194.74 259.74,196.17 258.95,196.85C258.58,197.17 258.49,197.25 258.13,197.56C257.44,198.16 255.94,199.49 255.14,200.19C254.6,200.66 254.31,200.91 253.79,201.36C253.09,201.97 252.09,202.88 251.33,203.55C250.67,204.13 250.11,204.62 249.49,205.17C248.85,205.74 248.21,206.33 247.53,206.94C246.8,207.6 245.92,208.36 245.24,208.98C244.68,209.48 244.3,209.84 243.72,210.36C242.95,211.06 241.72,212.15 241.02,212.79C240.57,213.2 240.37,213.39 239.91,213.81C239.15,214.51 237.54,215.98 236.86,216.6C236.52,216.91 236.44,216.98 236.1,217.3C235.38,217.97 233.34,219.84 232.74,220.4C232.52,220.6 232.51,220.61 232.29,220.82C231.65,221.42 229.83,223.12 228.575,224.3C227.29,225.51 225.97,226.77 224.67000000000002,228.01C223.37,229.25 222.07,230.49 220.775,231.74C219.48,232.99 218.2,234.24 216.91500000000002,235.495C215.63,236.75 214.35,238.01 213.07999999999998,239.26999999999998C211.81,240.53 210.53,241.81 209.26999999999998,243.07999999999998C208.01,244.35 206.75,245.63 205.495,246.91500000000002C204.24,248.2 202.99,249.48 201.74,250.775C200.49,252.07 199.25,253.37 198.01,254.67000000000002C196.77,255.97 195.51,257.29 194.3,258.57500000000005C193.12,259.83 191.42,261.65 190.82,262.29C190.61,262.51 190.6,262.52 190.4,262.74C189.84,263.34 187.97,265.38 187.3,266.1C186.98,266.44 186.91,266.52 186.6,266.86C185.98,267.54 184.51,269.15 183.81,269.91C183.39,270.37 183.2,270.57 182.79,271.02C182.15,271.72 181.06,272.95 180.36,273.72C179.84,274.3 179.48,274.68 178.98,275.24C178.36,275.92 177.6,276.8 176.94,277.53C176.33,278.21 175.74,278.85 175.17,279.49C174.62,280.11 174.13,280.67 173.55,281.33C172.88,282.09 171.97,283.09 171.36,283.79C170.91,284.31 170.66,284.6 170.19,285.14C169.49,285.94 168.16,287.44 167.56,288.13C167.25,288.49 167.17,288.58 166.85,288.95C166.17,289.74 164.74,291.37 163.64,292.63C162.48,293.96 161.23,295.4 160.07999999999998,296.725C158.99,297.98 157.61,299.57 156.91,300.37C156.56,300.77 156.46,300.88 156.13,301.26C155.53,301.95 154.32,303.37 153.62,304.18C153.12,304.76 152.8,305.11 152.32,305.66C151.72,306.35 150.98,307.24 150.33,307.99C149.71,308.7 149.09,309.4 148.52,310.06C148,310.66 147.59,311.16 147.04,311.8C146.35,312.6 145.31,313.76 144.71,314.47C144.32,314.93 144.16,315.13 143.75,315.61C143.05,316.42 141.44,318.24 140.9,318.87C140.68,319.12 140.66,319.15 140.44,319.41C139.84,320.11 138.22,321.97 137.11,323.24C136.01,324.51 134.43,326.33 133.8,327.03C133.55,327.31 133.52,327.33 133.28,327.6C132.71,328.24 131.15,330.05 130.45,330.84C130.04,331.3 129.87,331.47 129.47,331.91C128.84,332.61 127.77,333.87 127.07,334.65C126.54,335.24 126.18,335.62 125.67,336.18C125.06,336.86 124.32,337.72 123.67,338.45C123.06,339.13 122.44,339.77 121.86,340.42C121.3,341.04 120.82,341.61 120.23,342.26C119.56,343 118.68,343.92 118.05,344.61C117.56,345.15 117.26,345.51 116.75,346.07C116.05,346.83 114.89,348.03 114.24,348.74C113.82,349.2 113.65,349.42 113.22,349.88C112.52,350.63 111.07,352.12 110.43,352.81C110.08,353.19 109.99,353.31 109.64,353.69C108.96,354.42 107.26,356.15 106.63,356.81C106.34,357.12 106.29,357.18 105.99,357.49C105.34,358.17 103.43,360.09 102.82,360.73C102.57,361 102.55,361.04 102.29,361.3C101.67,361.95 99.63,363.95 99.01,364.58C98.76,364.83 98.75,364.86 98.5,365.11C97.88,365.73 95.84,367.68 95.2,368.33C94.93,368.6 94.9,368.65 94.63,368.92C94,369.55 92.08,371.32 91.39,372C91.06,372.32 91,372.41 90.67,372.73C90.01,373.37 88.33,374.87 87.59,375.57C87.16,375.97 87.02,376.15 86.6,376.54C85.91,377.19 84.55,378.35 83.78,379.05C83.24,379.55 82.93,379.86 82.4,380.34C81.71,380.96 80.73,381.76 79.97,382.43C79.29,383.03 78.69,383.6 78.05,384.15C77.42,384.69 76.84,385.13 76.16,385.7C75.35,386.38 74.24,387.38 73.53,387.96C73.06,388.34 72.85,388.48 72.35,388.88C71.46,389.59 69.92,390.87 68.67,391.86C67.39,392.87 65.57,394.22 64.74,394.88C64.35,395.19 64.26,395.29 63.88,395.58C63.2,396.1 61.84,397.03 60.93,397.7C60.13,398.29 59.37,398.89 58.68,399.38C58.12,399.78 57.76,399.99 57.12,400.42C56.11,401.1 54.49,402.25 53.195,403.105C51.95,403.93 50.6,404.78 49.51,405.48Q48.64,406.04 47.16,407" style="stroke-miterlimit: 1; vector-effect: non-scaling-stroke; fill: none; stroke: rgb(85, 62, 47); stroke-opacity: 1; stroke-width: 2px;"/></g><g class="contourlevel"><path class="openline" d="M0,367.07Q0.94,365.85 1.49,365.11C2.18,364.17 3.31,362.54 3.81,361.9C4.03,361.62 4.07,361.59 4.31,361.3C4.91,360.56 6.42,358.59 7.475,357.3C8.5,356.06 9.84,354.54 10.55,353.69C10.93,353.23 11.04,353.04 11.42,352.61C12.03,351.9 13.25,350.66 13.95,349.88C14.45,349.32 14.73,348.94 15.23,348.4C15.87,347.7 16.84,346.78 17.52,346.07C18.08,345.48 18.47,345 19.04,344.42C19.71,343.74 20.6,342.93 21.28,342.26C21.85,341.69 22.26,341.22 22.85,340.65C23.55,339.97 24.54,339.11 25.23,338.45C25.77,337.94 26.1,337.57 26.66,337.05C27.41,336.35 28.67,335.29 29.37,334.65C29.82,334.24 29.99,334.03 30.46,333.61C31.25,332.9 33.08,331.4 33.71,330.84C33.98,330.6 33.99,330.56 34.27,330.32C34.98,329.7 36.87,328.14 38.16,327.09C39.41,326.06 40.99,324.77 41.89,324.08C42.38,323.7 42.6,323.57 43.06,323.22C43.77,322.68 44.84,321.78 45.7,321.13C46.5,320.52 47.37,319.93 48.06,319.41C48.61,319 48.91,318.74 49.51,318.29C50.47,317.58 52.01,316.48 53.28,315.58500000000004C54.55,314.68 56.09,313.59 57.12,312.9C57.8,312.45 58.23,312.2 58.82,311.8C59.49,311.35 60.12,310.88 60.93,310.34C61.99,309.63 63.39,308.73 64.65,307.93C65.93,307.11 67.43,306.17 68.55,305.49C69.39,304.98 70.1,304.59 70.77,304.18C71.34,303.83 71.71,303.58 72.35,303.19C73.34,302.59 75.25,301.49 76.16,300.99C76.66,300.71 76.86,300.62 77.33,300.37C78.04,299.99 79.01,299.41 79.97,298.89C81.12,298.26 83.03,297.25 83.78,296.88C84.09,296.73 84.15,296.72 84.45,296.57C85.11,296.25 86.49,295.54 87.59,295.01C88.79,294.43 90.48,293.62 91.39,293.23C91.89,293.01 92.1,292.95 92.57,292.76C93.27,292.47 94.24,292.02 95.2,291.63C96.35,291.17 97.73,290.65 99.01,290.2C100.28,289.76 101.56,289.31 102.84,288.955C104.1,288.61 105.36,288.31 106.63,288.1C107.89,287.89 109.16,287.7 110.43,287.7C111.7,287.7 113.21,287.81 114.24,288.09C115,288.3 115.52,288.54 116.12,288.95C116.8,289.43 117.57,290.2 118.05,290.88C118.46,291.48 118.7,292 118.91,292.76C119.19,293.79 119.3,295.3 119.3,296.57C119.3,297.84 119.11,299.11 118.9,300.37C118.69,301.64 118.39,302.9 118.045,304.15999999999997C117.69,305.44 117.24,306.72 116.8,307.99C116.35,309.27 115.83,310.65 115.37,311.8C114.98,312.76 114.53,313.73 114.24,314.43C114.05,314.9 113.99,315.11 113.77,315.61C113.38,316.52 112.57,318.21 111.99,319.41C111.46,320.51 110.75,321.89 110.43,322.55C110.28,322.85 110.27,322.91 110.12,323.22C109.75,323.97 108.74,325.88 108.11,327.03C107.59,327.99 107.01,328.96 106.63,329.67C106.38,330.14 106.29,330.34 106.01,330.84C105.51,331.75 104.41,333.66 103.81,334.65C103.42,335.29 103.17,335.66 102.82,336.23C102.41,336.9 102.02,337.61 101.51,338.45C100.83,339.57 99.89,341.07 99.07,342.35C98.27,343.61 97.37,345.01 96.66,346.07C96.12,346.88 95.65,347.51 95.2,348.18C94.8,348.77 94.55,349.2 94.1,349.88C93.41,350.91 92.32,352.45 91.41499999999999,353.72C90.52,354.99 89.42,356.53 88.71,357.49C88.26,358.09 88,358.39 87.59,358.94C87.07,359.63 86.48,360.5 85.87,361.3C85.22,362.16 84.32,363.23 83.78,363.94C83.43,364.4 83.3,364.62 82.92,365.11C82.23,366.01 80.94,367.59 79.91,368.84000000000003C78.86,370.13 77.3,372.02 76.68,372.73C76.44,373.01 76.4,373.02 76.16,373.29C75.6,373.92 74.1,375.75 73.39,376.54C72.97,377.01 72.76,377.18 72.35,377.63C71.71,378.33 70.65,379.59 69.95,380.34C69.43,380.9 69.06,381.23 68.55,381.77C67.89,382.46 67.03,383.45 66.35,384.15C65.78,384.74 65.31,385.15 64.74,385.72C64.07,386.4 63.26,387.29 62.58,387.96C62,388.53 61.52,388.92 60.93,389.48C60.22,390.16 59.3,391.13 58.6,391.77C58.06,392.27 57.68,392.55 57.12,393.05C56.34,393.75 55.1,394.97 54.39,395.58C53.96,395.96 53.77,396.07 53.31,396.45C52.46,397.16 50.94,398.5 49.7,399.525C48.41,400.58 46.44,402.09 45.7,402.69C45.41,402.93 45.38,402.97 45.1,403.19C44.46,403.69 42.83,404.82 41.89,405.51Q41.15,406.06 39.93,407" style="stroke-miterlimit: 1; vector-effect: non-scaling-stroke; fill: none; stroke: rgb(98, 69, 51); stroke-opacity: 1; stroke-width: 2px;"/><path class="openline" d="M377,69.93Q376.06,71.15 375.51,71.89C374.82,72.83 373.69,74.46 373.19,75.1C372.97,75.38 372.93,75.41 372.69,75.7C372.09,76.44 370.58,78.41 369.525,79.7C368.5,80.94 367.16,82.46 366.45,83.31C366.07,83.77 365.96,83.96 365.58,84.39C364.97,85.1 363.75,86.34 363.05,87.12C362.55,87.68 362.27,88.06 361.77,88.6C361.13,89.3 360.16,90.22 359.48,90.93C358.92,91.52 358.53,92 357.96,92.58C357.29,93.26 356.4,94.07 355.72,94.74C355.15,95.31 354.74,95.78 354.15,96.35C353.45,97.03 352.46,97.89 351.77,98.55C351.23,99.06 350.9,99.43 350.34,99.95C349.59,100.65 348.33,101.71 347.63,102.35C347.18,102.76 347.01,102.97 346.54,103.39C345.75,104.1 343.92,105.6 343.29,106.16C343.02,106.4 343.01,106.44 342.73,106.68C342.02,107.3 340.13,108.86 338.84000000000003,109.91C337.59,110.94 336.01,112.23 335.11,112.92C334.62,113.3 334.4,113.43 333.94,113.78C333.23,114.32 332.16,115.22 331.3,115.87C330.5,116.48 329.63,117.07 328.94,117.59C328.39,118 328.09,118.26 327.49,118.71C326.53,119.42 324.99,120.52 323.72,121.41499999999999C322.45,122.32 320.91,123.41 319.88,124.1C319.2,124.55 318.77,124.8 318.18,125.2C317.51,125.65 316.88,126.12 316.07,126.66C315.01,127.37 313.61,128.27 312.35,129.07C311.07,129.89 309.57,130.83 308.45,131.51C307.61,132.02 306.9,132.41 306.23,132.82C305.66,133.17 305.29,133.42 304.65,133.81C303.66,134.41 301.75,135.51 300.84,136.01C300.34,136.29 300.14,136.38 299.67,136.63C298.96,137.01 297.99,137.59 297.03,138.11C295.88,138.74 293.97,139.75 293.22,140.12C292.91,140.27 292.85,140.28 292.55,140.43C291.89,140.75 290.51,141.46 289.41,141.99C288.21,142.57 286.52,143.38 285.61,143.77C285.11,143.99 284.9,144.05 284.43,144.24C283.73,144.53 282.76,144.98 281.8,145.37C280.65,145.83 279.27,146.35 277.99,146.8C276.72,147.24 275.44,147.69 274.15999999999997,148.04500000000002C272.9,148.39 271.64,148.69 270.37,148.9C269.11,149.11 267.84,149.3 266.57,149.3C265.3,149.3 263.79,149.19 262.76,148.91C262,148.7 261.48,148.46 260.88,148.05C260.2,147.57 259.43,146.8 258.95,146.12C258.54,145.52 258.3,145 258.09,144.24C257.81,143.21 257.7,141.7 257.7,140.43C257.7,139.16 257.89,137.89 258.1,136.63C258.31,135.36 258.61,134.1 258.955,132.84C259.31,131.56 259.76,130.28 260.2,129.01C260.65,127.73 261.17,126.35 261.63,125.2C262.02,124.24 262.47,123.27 262.76,122.57C262.95,122.1 263.01,121.89 263.23,121.39C263.62,120.48 264.43,118.79 265.01,117.59C265.54,116.49 266.25,115.11 266.57,114.45C266.72,114.15 266.73,114.09 266.88,113.78C267.25,113.03 268.26,111.12 268.89,109.97C269.41,109.01 269.99,108.04 270.37,107.33C270.62,106.86 270.71,106.66 270.99,106.16C271.49,105.25 272.59,103.34 273.19,102.35C273.58,101.71 273.83,101.34 274.18,100.77C274.59,100.1 274.98,99.39 275.49,98.55C276.17,97.43 277.11,95.93 277.93,94.65C278.73,93.39 279.63,91.99 280.34,90.93C280.88,90.12 281.35,89.49 281.8,88.82C282.2,88.23 282.45,87.8 282.9,87.12C283.59,86.09 284.68,84.55 285.58500000000004,83.28C286.48,82.01 287.58,80.47 288.29,79.51C288.74,78.91 289,78.61 289.41,78.06C289.93,77.37 290.52,76.5 291.13,75.7C291.78,74.84 292.68,73.77 293.22,73.06C293.57,72.6 293.7,72.38 294.08,71.89C294.77,70.99 296.06,69.41 297.09,68.16C298.14,66.87 299.7,64.98 300.32,64.27C300.56,63.99 300.6,63.98 300.84,63.71C301.4,63.08 302.9,61.25 303.61,60.46C304.03,59.99 304.24,59.82 304.65,59.37C305.29,58.67 306.35,57.41 307.05,56.66C307.57,56.1 307.94,55.77 308.45,55.23C309.11,54.54 309.97,53.55 310.65,52.85C311.22,52.26 311.69,51.85 312.26,51.28C312.93,50.6 313.74,49.71 314.42,49.04C315,48.47 315.48,48.08 316.07,47.52C316.78,46.84 317.7,45.87 318.4,45.23C318.94,44.73 319.32,44.45 319.88,43.95C320.66,43.25 321.9,42.03 322.61,41.42C323.04,41.04 323.23,40.93 323.69,40.55C324.54,39.84 326.06,38.5 327.3,37.474999999999994C328.59,36.42 330.56,34.91 331.3,34.31C331.59,34.07 331.62,34.03 331.9,33.81C332.54,33.31 334.17,32.18 335.11,31.49Q335.85,30.94 337.07,30" style="stroke-miterlimit: 1; vector-effect: non-scaling-stroke; fill: none; stroke: rgb(98, 69, 51); stroke-opacity: 1; stroke-width: 2px;"/></g><g class="contourlevel"><path class="openline" d="M0,372.71Q2.51,369.73 3.16,368.92C3.46,368.54 3.51,368.44 3.81,368.08C4.4,367.38 5.87,365.89 6.57,365.11C7.01,364.62 7.18,364.37 7.62,363.9C8.29,363.19 9.56,362.02 10.26,361.3C10.73,360.81 10.94,360.53 11.42,360.05C12.14,359.34 13.54,358.15 14.23,357.49C14.65,357.09 14.79,356.9 15.23,356.49C16,355.78 17.89,354.25 18.51,353.69C18.77,353.46 18.77,353.42 19.04,353.19C19.74,352.58 21.71,351.01 23.01,349.99C24.25,349.02 25.67,347.91 26.66,347.2C27.32,346.73 27.75,346.48 28.34,346.07C29.01,345.6 29.65,345.06 30.46,344.5C31.5,343.78 32.85,342.92 34.09,342.135C35.38,341.32 36.93,340.35 38.08,339.68C38.93,339.19 39.66,338.83 40.34,338.45C40.91,338.13 41.25,337.89 41.89,337.54C42.87,337 44.6,336.11 45.7,335.59C46.51,335.21 47.18,334.96 47.85,334.65C48.44,334.38 48.84,334.15 49.51,333.85C50.51,333.41 52.04,332.81 53.31,332.34C54.57,331.88 56.25,331.31 57.12,331.07C57.57,330.95 57.72,330.94 58.15,330.84C58.85,330.67 59.92,330.33 60.93,330.14C62.09,329.92 63.47,329.7 64.74,329.63C66.01,329.56 67.28,329.53 68.55,329.71C69.86,329.9 71.25,330.08 72.455,330.78C73.84,331.58 75.42,333.16 76.22,334.54499999999996C76.92,335.75 77.1,337.14 77.29,338.45C77.47,339.72 77.44,340.99 77.37,342.26C77.3,343.53 77.08,344.91 76.86,346.07C76.67,347.08 76.33,348.15 76.16,348.85C76.06,349.28 76.05,349.43 75.93,349.88C75.69,350.75 75.12,352.43 74.66,353.69C74.19,354.96 73.59,356.49 73.15,357.49C72.85,358.16 72.62,358.56 72.35,359.15C72.04,359.82 71.79,360.49 71.41,361.3C70.89,362.4 70,364.13 69.46,365.11C69.11,365.75 68.87,366.09 68.55,366.66C68.17,367.34 67.81,368.07 67.32,368.92C66.65,370.07 65.68,371.62 64.865,372.90999999999997C64.08,374.15 63.22,375.5 62.5,376.54C61.94,377.35 61.4,377.99 60.93,378.66C60.52,379.25 60.27,379.68 59.8,380.34C59.09,381.33 57.98,382.75 57.01,383.99C55.99,385.29 54.42,387.26 53.81,387.96C53.58,388.23 53.54,388.23 53.31,388.49C52.75,389.11 51.22,391 50.51,391.77C50.1,392.21 49.91,392.35 49.51,392.77C48.85,393.46 47.66,394.86 46.95,395.58C46.47,396.06 46.19,396.27 45.7,396.74C44.98,397.44 43.81,398.71 43.1,399.38C42.63,399.82 42.38,399.99 41.89,400.43C41.11,401.13 39.62,402.6 38.92,403.19C38.56,403.49 38.46,403.54 38.08,403.84Q37.27,404.49 34.29,407" style="stroke-miterlimit: 1; vector-effect: non-scaling-stroke; fill: none; stroke: rgb(112, 77, 54); stroke-opacity: 1; stroke-width: 2px;"/><path class="openline" d="M377,64.29Q374.49,67.27 373.84,68.08C373.54,68.46 373.49,68.56 373.19,68.92C372.6,69.62 371.13,71.11 370.43,71.89C369.99,72.38 369.82,72.63 369.38,73.1C368.71,73.81 367.44,74.98 366.74,75.7C366.27,76.19 366.06,76.47 365.58,76.95C364.86,77.66 363.46,78.85 362.77,79.51C362.35,79.91 362.21,80.1 361.77,80.51C361,81.22 359.11,82.75 358.49,83.31C358.23,83.54 358.23,83.58 357.96,83.81C357.26,84.42 355.29,85.99 353.99,87.01C352.75,87.98 351.33,89.09 350.34,89.8C349.68,90.27 349.25,90.52 348.66,90.93C347.99,91.4 347.35,91.94 346.54,92.5C345.5,93.22 344.15,94.08 342.90999999999997,94.865C341.62,95.68 340.07,96.65 338.92,97.32C338.07,97.81 337.34,98.17 336.66,98.55C336.09,98.87 335.75,99.11 335.11,99.46C334.13,100 332.4,100.89 331.3,101.41C330.49,101.79 329.82,102.04 329.15,102.35C328.56,102.62 328.16,102.85 327.49,103.15C326.49,103.59 324.96,104.19 323.69,104.66C322.43,105.12 320.75,105.69 319.88,105.93C319.43,106.05 319.28,106.06 318.85,106.16C318.15,106.33 317.08,106.67 316.07,106.86C314.91,107.08 313.53,107.3 312.26,107.37C310.99,107.44 309.72,107.47 308.45,107.29C307.14,107.1 305.75,106.92 304.54499999999996,106.22C303.16,105.42 301.58,103.84 300.78,102.455C300.08,101.25 299.9,99.86 299.71,98.55C299.53,97.28 299.56,96.01 299.63,94.74C299.7,93.47 299.92,92.09 300.14,90.93C300.33,89.92 300.67,88.85 300.84,88.15C300.94,87.72 300.95,87.57 301.07,87.12C301.31,86.25 301.88,84.57 302.34,83.31C302.81,82.04 303.41,80.51 303.85,79.51C304.15,78.84 304.38,78.44 304.65,77.85C304.96,77.18 305.21,76.51 305.59,75.7C306.11,74.6 307,72.87 307.54,71.89C307.89,71.25 308.13,70.91 308.45,70.34C308.83,69.66 309.19,68.93 309.68,68.08C310.35,66.93 311.32,65.38 312.135,64.09C312.92,62.85 313.78,61.5 314.5,60.46C315.06,59.65 315.6,59.01 316.07,58.34C316.48,57.75 316.73,57.32 317.2,56.66C317.91,55.67 319.02,54.25 319.99,53.010000000000005C321.01,51.71 322.58,49.74 323.19,49.04C323.42,48.77 323.46,48.77 323.69,48.51C324.25,47.89 325.78,46 326.49,45.23C326.9,44.79 327.09,44.65 327.49,44.23C328.15,43.54 329.34,42.14 330.05,41.42C330.53,40.94 330.81,40.73 331.3,40.26C332.02,39.56 333.19,38.29 333.9,37.62C334.37,37.18 334.62,37.01 335.11,36.57C335.89,35.87 337.38,34.4 338.08,33.81C338.44,33.51 338.54,33.46 338.92,33.16Q339.73,32.51 342.71,30" style="stroke-miterlimit: 1; vector-effect: non-scaling-stroke; fill: none; stroke: rgb(112, 77, 54); stroke-opacity: 1; stroke-width: 2px;"/></g><g class="contourlevel"><path class="openline" d="M0,377.16Q0.36,376.84 0.65,376.54C1.31,375.87 3.21,373.7 3.81,373.13C4.03,372.92 4.06,372.93 4.28,372.73C4.89,372.17 6.9,370.12 7.62,369.49C7.94,369.21 8.03,369.19 8.35,368.92C9.03,368.36 10.56,366.89 11.42,366.2C12,365.74 12.37,365.53 12.92,365.11C13.61,364.57 14.41,363.83 15.23,363.22C16.11,362.56 17.37,361.8 18.06,361.3C18.48,361 18.6,360.86 19.04,360.55C19.89,359.96 21.92,358.69 22.85,358.15C23.37,357.85 23.61,357.76 24.1,357.49C24.81,357.1 25.71,356.51 26.66,356C27.79,355.39 29.55,354.54 30.46,354.14C30.96,353.92 31.17,353.88 31.64,353.69C32.35,353.4 33.3,352.92 34.27,352.56C35.41,352.13 36.8,351.67 38.08,351.32C39.34,350.98 40.61,350.68 41.89,350.48C43.15,350.28 44.43,350.12 45.7,350.13C46.97,350.14 48.27,350.21 49.51,350.57C50.81,350.95 52.42,351.78 53.31,352.42C53.89,352.83 54.17,353.11 54.58,353.69C55.22,354.58 56.05,356.19 56.43,357.49C56.79,358.73 56.86,360.03 56.87,361.3C56.88,362.57 56.72,363.85 56.52,365.11C56.32,366.39 56.02,367.66 55.68,368.92C55.33,370.2 54.87,371.59 54.44,372.73C54.08,373.7 53.6,374.65 53.31,375.36C53.12,375.83 53.08,376.04 52.86,376.54C52.46,377.45 51.61,379.21 51,380.34C50.49,381.29 49.9,382.19 49.51,382.9C49.24,383.39 49.15,383.63 48.85,384.15C48.31,385.08 47.04,387.11 46.45,387.96C46.14,388.4 46,388.52 45.7,388.94C45.2,389.63 44.44,390.89 43.78,391.77C43.17,392.59 42.43,393.39 41.89,394.08C41.47,394.63 41.26,395 40.8,395.58C40.11,396.44 38.64,397.97 38.08,398.65C37.81,398.97 37.79,399.06 37.51,399.38C36.88,400.1 34.83,402.11 34.27,402.72C34.07,402.94 34.08,402.97 33.87,403.19C33.3,403.79 31.13,405.69 30.46,406.35Q30.16,406.64 29.84,407" style="stroke-miterlimit: 1; vector-effect: non-scaling-stroke; fill: none; stroke: rgb(125, 85, 56); stroke-opacity: 1; stroke-width: 2px;"/><path class="openline" d="M377,59.84Q376.64,60.16 376.35,60.46C375.69,61.13 373.79,63.3 373.19,63.87C372.97,64.08 372.94,64.07 372.72,64.27C372.11,64.83 370.1,66.88 369.38,67.51C369.06,67.79 368.97,67.81 368.65,68.08C367.97,68.64 366.44,70.11 365.58,70.8C365,71.26 364.63,71.47 364.08,71.89C363.39,72.43 362.59,73.17 361.77,73.78C360.89,74.44 359.63,75.2 358.94,75.7C358.52,76 358.4,76.14 357.96,76.45C357.11,77.04 355.08,78.31 354.15,78.85C353.63,79.15 353.39,79.24 352.9,79.51C352.19,79.9 351.29,80.49 350.34,81C349.21,81.61 347.45,82.46 346.54,82.86C346.04,83.08 345.83,83.12 345.36,83.31C344.65,83.6 343.7,84.08 342.73,84.44C341.59,84.87 340.2,85.33 338.92,85.68C337.66,86.02 336.39,86.32 335.11,86.52C333.85,86.72 332.57,86.88 331.3,86.87C330.03,86.86 328.73,86.79 327.49,86.43C326.19,86.05 324.58,85.22 323.69,84.58C323.11,84.17 322.83,83.89 322.42,83.31C321.78,82.42 320.95,80.81 320.57,79.51C320.21,78.27 320.14,76.97 320.13,75.7C320.12,74.43 320.28,73.15 320.48,71.89C320.68,70.61 320.98,69.34 321.32,68.08C321.67,66.8 322.13,65.41 322.56,64.27C322.92,63.3 323.4,62.35 323.69,61.64C323.88,61.17 323.92,60.96 324.14,60.46C324.54,59.55 325.39,57.79 326,56.66C326.51,55.71 327.1,54.81 327.49,54.1C327.76,53.61 327.85,53.37 328.15,52.85C328.69,51.92 329.96,49.89 330.55,49.04C330.86,48.6 331,48.48 331.3,48.06C331.8,47.37 332.56,46.11 333.22,45.23C333.83,44.41 334.57,43.61 335.11,42.92C335.53,42.37 335.74,42 336.2,41.42C336.89,40.56 338.36,39.03 338.92,38.35C339.19,38.03 339.21,37.94 339.49,37.62C340.12,36.9 342.17,34.89 342.73,34.28C342.93,34.06 342.92,34.03 343.13,33.81C343.7,33.21 345.87,31.31 346.54,30.65Q346.84,30.36 347.16,30" style="stroke-miterlimit: 1; vector-effect: non-scaling-stroke; fill: none; stroke: rgb(125, 85, 56); stroke-opacity: 1; stroke-width: 2px;"/></g><g class="contourlevel"><path class="openline" d="M0,380.91Q0.38,380.61 0.68,380.34C1.35,379.74 3.02,378.02 3.81,377.35C4.25,376.98 4.46,376.89 4.9,376.54C5.61,375.97 6.74,374.88 7.62,374.21C8.37,373.64 9.14,373.21 9.81,372.73C10.4,372.3 10.75,371.94 11.42,371.47C12.44,370.76 14.13,369.78 15.440000000000001,369.02C16.66,368.31 17.81,367.66 19.04,367.06C20.28,366.46 21.99,365.73 22.85,365.41C23.28,365.25 23.42,365.24 23.83,365.11C24.53,364.88 25.64,364.41 26.66,364.13C27.82,363.81 29.19,363.5 30.46,363.34C31.72,363.18 33.01,363.07 34.27,363.17C35.55,363.27 37.03,363.56 38.08,363.95C38.9,364.26 39.52,364.63 40.15,365.11C40.79,365.6 41.4,366.21 41.89,366.85C42.37,367.48 42.74,368.1 43.05,368.92C43.44,369.97 43.73,371.45 43.83,372.73C43.93,373.99 43.82,375.28 43.66,376.54C43.5,377.81 43.19,379.18 42.87,380.34C42.59,381.36 42.12,382.47 41.89,383.17C41.76,383.58 41.75,383.72 41.59,384.15C41.27,385.01 40.54,386.72 39.94,387.96C39.34,389.19 38.69,390.34 37.980000000000004,391.56C37.22,392.87 36.24,394.56 35.53,395.58C35.06,396.25 34.7,396.6 34.27,397.19C33.79,397.86 33.36,398.63 32.79,399.38C32.12,400.26 31.03,401.39 30.46,402.1C30.11,402.54 30.02,402.75 29.65,403.19C28.98,403.98 27.26,405.65 26.66,406.32Q26.39,406.62 26.09,407" style="stroke-miterlimit: 1; vector-effect: non-scaling-stroke; fill: none; stroke: rgb(138, 93, 57); stroke-opacity: 1; stroke-width: 2px;"/><path class="openline" d="M377,56.09Q376.62,56.39 376.32,56.66C375.65,57.26 373.98,58.98 373.19,59.65C372.75,60.02 372.54,60.11 372.1,60.46C371.39,61.03 370.26,62.12 369.38,62.79C368.63,63.36 367.86,63.79 367.19,64.27C366.6,64.7 366.25,65.06 365.58,65.53C364.56,66.24 362.87,67.22 361.56,67.97999999999999C360.34,68.69 359.19,69.34 357.96,69.94C356.72,70.54 355.01,71.27 354.15,71.59C353.72,71.75 353.58,71.76 353.17,71.89C352.47,72.12 351.36,72.59 350.34,72.87C349.18,73.19 347.81,73.5 346.54,73.66C345.28,73.82 343.99,73.93 342.73,73.83C341.45,73.73 339.97,73.44 338.92,73.05C338.1,72.74 337.48,72.37 336.85,71.89C336.21,71.4 335.6,70.79 335.11,70.15C334.63,69.52 334.26,68.9 333.95,68.08C333.56,67.03 333.27,65.55 333.17,64.27C333.07,63.01 333.18,61.72 333.34,60.46C333.5,59.19 333.81,57.82 334.13,56.66C334.41,55.64 334.88,54.53 335.11,53.83C335.24,53.42 335.25,53.28 335.41,52.85C335.73,51.99 336.46,50.28 337.06,49.04C337.66,47.81 338.31,46.66 339.02,45.44C339.78,44.13 340.76,42.44 341.47,41.42C341.94,40.75 342.3,40.4 342.73,39.81C343.21,39.14 343.64,38.37 344.21,37.62C344.88,36.74 345.97,35.61 346.54,34.9C346.89,34.46 346.98,34.25 347.35,33.81C348.02,33.02 349.74,31.35 350.34,30.68Q350.61,30.38 350.91,30" style="stroke-miterlimit: 1; vector-effect: non-scaling-stroke; fill: none; stroke: rgb(138, 93, 57); stroke-opacity: 1; stroke-width: 2px;"/></g><g class="contourlevel"><path class="openline" d="M0,384.17Q2.91,381.67 3.81,381.02C4.27,380.69 4.46,380.64 4.9,380.34C5.61,379.86 6.65,378.97 7.62,378.35C8.64,377.7 10.26,376.92 10.88,376.54C11.14,376.38 11.15,376.33 11.42,376.18C12.11,375.79 13.95,374.91 15.23,374.39C16.49,373.88 17.95,373.38 19.04,373.1C19.82,372.9 20.44,372.86 21.1,372.73C21.71,372.61 22.15,372.43 22.85,372.35C23.87,372.24 25.67,372.21 26.66,372.33C27.32,372.41 27.7,372.55 28.27,372.73C28.95,372.94 29.72,373.07 30.46,373.54C31.45,374.17 32.83,375.55 33.46,376.54C33.93,377.28 34.06,378.05 34.27,378.73C34.45,379.3 34.59,379.68 34.67,380.34C34.79,381.33 34.76,383.13 34.65,384.15C34.57,384.85 34.39,385.29 34.27,385.9C34.14,386.56 34.1,387.18 33.9,387.96C33.62,389.05 33.12,390.51 32.61,391.77C32.09,393.05 31.21,394.89 30.82,395.58C30.67,395.85 30.62,395.86 30.46,396.12C30.08,396.74 29.3,398.36 28.65,399.38C28.03,400.35 27.14,401.39 26.66,402.1C26.36,402.54 26.31,402.73 25.98,403.19Q25.33,404.09 22.83,407" style="stroke-miterlimit: 1; vector-effect: non-scaling-stroke; fill: none; stroke: rgb(150, 102, 58); stroke-opacity: 1; stroke-width: 2px;"/><path class="openline" d="M377,52.83Q374.09,55.33 373.19,55.98C372.73,56.31 372.54,56.36 372.1,56.66C371.39,57.14 370.35,58.03 369.38,58.65C368.36,59.3 366.74,60.08 366.12,60.46C365.86,60.62 365.85,60.67 365.58,60.82C364.89,61.21 363.05,62.09 361.77,62.61C360.51,63.12 359.05,63.62 357.96,63.9C357.18,64.1 356.56,64.14 355.9,64.27C355.29,64.39 354.85,64.57 354.15,64.65C353.13,64.76 351.33,64.79 350.34,64.67C349.68,64.59 349.3,64.45 348.73,64.27C348.05,64.06 347.28,63.93 346.54,63.46C345.55,62.83 344.17,61.45 343.54,60.46C343.07,59.72 342.94,58.95 342.73,58.27C342.55,57.7 342.41,57.32 342.33,56.66C342.21,55.67 342.24,53.87 342.35,52.85C342.43,52.15 342.61,51.71 342.73,51.1C342.86,50.44 342.9,49.82 343.1,49.04C343.38,47.95 343.88,46.49 344.39,45.23C344.91,43.95 345.79,42.11 346.18,41.42C346.33,41.15 346.38,41.14 346.54,40.88C346.92,40.26 347.7,38.64 348.35,37.62C348.97,36.65 349.86,35.61 350.34,34.9C350.64,34.46 350.69,34.27 351.02,33.81Q351.67,32.91 354.17,30" style="stroke-miterlimit: 1; vector-effect: non-scaling-stroke; fill: none; stroke: rgb(150, 102, 58); stroke-opacity: 1; stroke-width: 2px;"/></g><g class="contourlevel"><path class="openline" d="M0,386.93Q2.65,385.05 3.955,384.22C5.19,383.44 6.34,382.72 7.62,382.09C8.92,381.45 10.37,380.87 11.690000000000001,380.405C12.9,379.98 14.02,379.62 15.23,379.39C16.47,379.16 17.77,378.98 19.04,379.03C20.31,379.08 21.96,379.4 22.85,379.71C23.38,379.89 23.59,380.01 24.04,380.34C24.78,380.89 26.11,382.22 26.66,382.96C26.99,383.41 27.11,383.62 27.29,384.15C27.6,385.04 27.92,386.69 27.97,387.96C28.02,389.23 27.84,390.53 27.61,391.77C27.38,392.98 27.02,394.1 26.595,395.31C26.13,396.63 25.55,398.08 24.91,399.38C24.28,400.66 23.56,401.81 22.78,403.04499999999996Q21.95,404.35 20.07,407" style="stroke-miterlimit: 1; vector-effect: non-scaling-stroke; fill: none; stroke: rgb(161, 112, 59); stroke-opacity: 1; stroke-width: 2px;"/><path class="openline" d="M377,50.07Q374.35,51.95 373.04499999999996,52.78C371.81,53.56 370.66,54.28 369.38,54.91C368.08,55.55 366.63,56.13 365.31,56.595C364.1,57.02 362.98,57.38 361.77,57.61C360.53,57.84 359.23,58.02 357.96,57.97C356.69,57.92 355.04,57.6 354.15,57.29C353.62,57.11 353.41,56.99 352.96,56.66C352.22,56.11 350.89,54.78 350.34,54.04C350.01,53.59 349.89,53.38 349.71,52.85C349.4,51.96 349.08,50.31 349.03,49.04C348.98,47.77 349.16,46.47 349.39,45.23C349.62,44.02 349.98,42.9 350.405,41.69C350.87,40.37 351.45,38.92 352.09,37.62C352.72,36.34 353.44,35.19 354.22,33.955Q355.05,32.65 356.93,30" style="stroke-miterlimit: 1; vector-effect: non-scaling-stroke; fill: none; stroke: rgb(161, 112, 59); stroke-opacity: 1; stroke-width: 2px;"/></g><g class="contourlevel"><path class="openline" d="M0,389.44Q1.99,388.39 2.69,387.96C3.15,387.68 3.31,387.48 3.81,387.2C4.69,386.71 6.33,385.98 7.62,385.53C8.87,385.09 10.14,384.73 11.42,384.53C12.68,384.33 13.97,384.17 15.23,384.33C16.52,384.49 17.98,384.89 19.04,385.54C20.02,386.14 20.86,386.98 21.46,387.96C22.11,389.02 22.51,390.48 22.67,391.77C22.83,393.03 22.67,394.32 22.47,395.58C22.27,396.86 21.91,398.13 21.47,399.38C21.02,400.67 20.29,402.31 19.8,403.19C19.52,403.69 19.32,403.85 19.04,404.31Q18.61,405.01 17.56,407" style="stroke-miterlimit: 1; vector-effect: non-scaling-stroke; fill: none; stroke: rgb(171, 122, 60); stroke-opacity: 1; stroke-width: 2px;"/><path class="openline" d="M377,47.56Q375.01,48.61 374.31,49.04C373.85,49.32 373.69,49.52 373.19,49.8C372.31,50.29 370.67,51.02 369.38,51.47C368.13,51.91 366.86,52.27 365.58,52.47C364.32,52.67 363.03,52.83 361.77,52.67C360.48,52.51 359.02,52.11 357.96,51.46C356.98,50.86 356.14,50.02 355.54,49.04C354.89,47.98 354.49,46.52 354.33,45.23C354.17,43.97 354.33,42.68 354.53,41.42C354.73,40.14 355.09,38.87 355.53,37.62C355.98,36.33 356.71,34.69 357.2,33.81C357.48,33.31 357.68,33.15 357.96,32.69Q358.39,31.99 359.44,30" style="stroke-miterlimit: 1; vector-effect: non-scaling-stroke; fill: none; stroke: rgb(171, 122, 60); stroke-opacity: 1; stroke-width: 2px;"/></g><g class="contourlevel"><path class="openline" d="M0,391.79Q2.52,390.4 3.81,389.9C5.06,389.41 6.34,389.02 7.62,388.8C8.88,388.58 10.17,388.4 11.42,388.56C12.71,388.73 14.23,389.2 15.23,389.82C16.06,390.33 16.67,390.94 17.18,391.77C17.8,392.77 18.27,394.29 18.44,395.58C18.6,396.83 18.42,398.12 18.2,399.38C17.98,400.66 17.59,401.94 17.1,403.19Q16.6,404.48 15.21,407" style="stroke-miterlimit: 1; vector-effect: non-scaling-stroke; fill: none; stroke: rgb(180, 134, 64); stroke-opacity: 1; stroke-width: 2px;"/><path class="openline" d="M377,45.21Q374.48,46.6 373.19,47.1C371.94,47.59 370.66,47.98 369.38,48.2C368.12,48.42 366.83,48.6 365.58,48.44C364.29,48.27 362.77,47.8 361.77,47.18C360.94,46.67 360.33,46.06 359.82,45.23C359.2,44.23 358.73,42.71 358.56,41.42C358.4,40.17 358.58,38.88 358.8,37.62C359.02,36.34 359.41,35.06 359.9,33.81Q360.4,32.52 361.79,30" style="stroke-miterlimit: 1; vector-effect: non-scaling-stroke; fill: none; stroke: rgb(180, 134, 64); stroke-opacity: 1; stroke-width: 2px;"/></g><g class="contourlevel"><path class="openline" d="M0,393.84Q2.52,392.79 3.81,392.48C5.06,392.18 6.36,391.91 7.62,391.98C8.89,392.05 10.33,392.28 11.42,392.89C12.49,393.49 13.51,394.51 14.11,395.58C14.72,396.67 14.95,398.11 15.02,399.38C15.09,400.64 14.82,401.94 14.52,403.19Q14.21,404.48 13.16,407" style="stroke-miterlimit: 1; vector-effect: non-scaling-stroke; fill: none; stroke: rgb(188, 147, 69); stroke-opacity: 1; stroke-width: 2px;"/><path class="openline" d="M377,43.16Q374.48,44.21 373.19,44.52C371.94,44.82 370.64,45.09 369.38,45.02C368.11,44.95 366.67,44.72 365.58,44.11C364.51,43.51 363.49,42.49 362.89,41.42C362.28,40.33 362.05,38.89 361.98,37.62C361.91,36.36 362.18,35.06 362.48,33.81Q362.79,32.52 363.84,30" style="stroke-miterlimit: 1; vector-effect: non-scaling-stroke; fill: none; stroke: rgb(188, 147, 69); stroke-opacity: 1; stroke-width: 2px;"/></g><g class="contourlevel"><path class="openline" d="M0,395.86Q0.88,395.7 1.41,395.58C2.11,395.42 2.91,395.02 3.81,394.94C4.93,394.84 6.86,395.02 7.62,395.23C7.97,395.32 8.04,395.37 8.34,395.58C9.04,396.08 10.92,397.96 11.42,398.66C11.63,398.96 11.68,399.03 11.77,399.38C11.98,400.14 12.16,402.07 12.06,403.19C11.98,404.09 11.58,404.89 11.42,405.59Q11.3,406.12 11.14,407" style="stroke-miterlimit: 1; vector-effect: non-scaling-stroke; fill: none; stroke: rgb(195, 161, 78); stroke-opacity: 1; stroke-width: 2px;"/><path class="openline" d="M377,41.14Q376.12,41.3 375.59,41.42C374.89,41.58 374.09,41.98 373.19,42.06C372.07,42.16 370.14,41.98 369.38,41.77C369.03,41.68 368.96,41.63 368.66,41.42C367.96,40.92 366.08,39.04 365.58,38.34C365.37,38.04 365.32,37.97 365.23,37.62C365.02,36.86 364.84,34.93 364.94,33.81C365.02,32.91 365.42,32.11 365.58,31.41Q365.7,30.88 365.86,30" style="stroke-miterlimit: 1; vector-effect: non-scaling-stroke; fill: none; stroke: rgb(195, 161, 78); stroke-opacity: 1; stroke-width: 2px;"/></g><g class="contourlevel"><path class="openline" d="M0,397.7Q2.56,397.2 3.81,397.39C5.1,397.58 6.98,398.49 7.62,398.91C7.88,399.08 7.92,399.12 8.09,399.38C8.51,400.02 9.42,401.9 9.61,403.19Q9.8,404.44 9.3,407" style="stroke-miterlimit: 1; vector-effect: non-scaling-stroke; fill: none; stroke: rgb(202, 174, 89); stroke-opacity: 1; stroke-width: 2px;"/><path class="openline" d="M377,39.3Q374.44,39.8 373.19,39.61C371.9,39.42 370.02,38.51 369.38,38.09C369.12,37.92 369.08,37.88 368.91,37.62C368.49,36.98 367.58,35.1 367.39,33.81Q367.2,32.56 367.7,30" style="stroke-miterlimit: 1; vector-effect: non-scaling-stroke; fill: none; stroke: rgb(202, 174, 89); stroke-opacity: 1; stroke-width: 2px;"/></g><g class="contourlevel"><path class="openline" d="M0,399.53Q2.67,399.36 3.81,399.9C5.07,400.49 6.51,401.93 7.1,403.19Q7.64,404.33 7.47,407" style="stroke-miterlimit: 1; vector-effect: non-scaling-stroke; fill: none; stroke: rgb(207, 188, 102); stroke-opacity: 1; stroke-width: 2px;"/><path class="openline" d="M377,37.47Q374.33,37.64 373.19,37.1C371.93,36.51 370.49,35.07 369.9,33.81Q369.36,32.67 369.53,30" style="stroke-miterlimit: 1; vector-effect: non-scaling-stroke; fill: none; stroke: rgb(207, 188, 102); stroke-opacity: 1; stroke-width: 2px;"/></g><g class="contourlevel"><path class="openline" d="M0,401.3Q3.15,402.26 3.81,402.68C4.09,402.86 4.14,402.91 4.32,403.19Q4.74,403.85 5.7,407" style="stroke-miterlimit: 1; vector-effect: non-scaling-stroke; fill: none; stroke: rgb(213, 202, 118); stroke-opacity: 1; stroke-width: 2px;"/><path class="openline" d="M377,35.7Q373.85,34.74 373.19,34.32C372.91,34.14 372.86,34.09 372.68,33.81Q372.26,33.15 371.3,30" style="stroke-miterlimit: 1; vector-effect: non-scaling-stroke; fill: none; stroke: rgb(213, 202, 118); stroke-opacity: 1; stroke-width: 2px;"/></g><g class="contourlevel"><path class="openline" d="M0,403.08L3.92,407" style="stroke-miterlimit: 1; vector-effect: non-scaling-stroke; fill: none; stroke: rgb(219, 216, 134); stroke-opacity: 1; stroke-width: 2px;"/><path class="openline" d="M377,33.92L373.08,30" style="stroke-miterlimit: 1; vector-effect: non-scaling-stroke; fill: none; stroke: rgb(219, 216, 134); stroke-opacity: 1; stroke-width: 2px;"/></g><g class="contourlevel"><path class="openline" d="M0,405.03L1.97,407" style="stroke-miterlimit: 1; vector-effect: non-scaling-stroke; fill: none; stroke: rgb(225, 231, 152); stroke-opacity: 1; stroke-width: 2px;"/><path class="openline" d="M377,31.97L375.03,30" style="stroke-miterlimit: 1; vector-effect: non-scaling-stroke; fill: none; stroke: rgb(225, 231, 152); stroke-opacity: 1; stroke-width: 2px;"/></g><g class="contourlevel"/></g></g></g></g><g class="overplot"/><path class="xlines-above crisp" d="" style="fill: none; stroke-width: 1px; stroke: rgb(0, 0, 0); stroke-opacity: 0;"/><path class="ylines-above crisp" d="" style="fill: none; stroke-width: 1px; stroke: rgb(0, 0, 0); stroke-opacity: 0;"/><g class="overlines-above"/><g class="xaxislayer-above"><path class="xtick ticks crisp" d="M0,478v5" transform="translate(90.83,0)" style="stroke: rgb(51, 51, 51); stroke-opacity: 1; stroke-width: 1px;"/><path class="xtick ticks crisp" d="M0,478v5" transform="translate(174.61,0)" style="stroke: rgb(51, 51, 51); stroke-opacity: 1; stroke-width: 1px;"/><path class="xtick ticks crisp" d="M0,478v5" transform="translate(258.39,0)" style="stroke: rgb(51, 51, 51); stroke-opacity: 1; stroke-width: 1px;"/><path class="xtick ticks crisp" d="M0,478v5" transform="translate(342.17,0)" style="stroke: rgb(51, 51, 51); stroke-opacity: 1; stroke-width: 1px;"/><g class="xtick"><text text-anchor="middle" x="0" y="497.4" transform="translate(90.83,0)" style="font-family: 'Open Sans', verdana, arial, sans-serif; font-size: 12px; fill: rgb(51, 51, 51); fill-opacity: 1; white-space: pre; opacity: 1;">0.2</text></g><g class="xtick"><text text-anchor="middle" x="0" y="497.4" style="font-family: 'Open Sans', verdana, arial, sans-serif; font-size: 12px; fill: rgb(51, 51, 51); fill-opacity: 1; white-space: pre; opacity: 1;" transform="translate(174.61,0)">0.4</text></g><g class="xtick"><text text-anchor="middle" x="0" y="497.4" style="font-family: 'Open Sans', verdana, arial, sans-serif; font-size: 12px; fill: rgb(51, 51, 51); fill-opacity: 1; white-space: pre; opacity: 1;" transform="translate(258.39,0)">0.6</text></g><g class="xtick"><text text-anchor="middle" x="0" y="497.4" style="font-family: 'Open Sans', verdana, arial, sans-serif; font-size: 12px; fill: rgb(51, 51, 51); fill-opacity: 1; white-space: pre; opacity: 1;" transform="translate(342.17,0)">0.8</text></g></g><g class="yaxislayer-above"><path class="ytick ticks crisp" d="M27,0h-5" transform="translate(0,467.94)" style="stroke: rgb(51, 51, 51); stroke-opacity: 1; stroke-width: 1px;"/><path class="ytick ticks crisp" d="M27,0h-5" transform="translate(0,384.17)" style="stroke: rgb(51, 51, 51); stroke-opacity: 1; stroke-width: 1px;"/><path class="ytick ticks crisp" d="M27,0h-5" transform="translate(0,300.39)" style="stroke: rgb(51, 51, 51); stroke-opacity: 1; stroke-width: 1px;"/><path class="ytick ticks crisp" d="M27,0h-5" transform="translate(0,216.61)" style="stroke: rgb(51, 51, 51); stroke-opacity: 1; stroke-width: 1px;"/><path class="ytick ticks crisp" d="M27,0h-5" transform="translate(0,132.82999999999998)" style="stroke: rgb(51, 51, 51); stroke-opacity: 1; stroke-width: 1px;"/><path class="ytick ticks crisp" d="M27,0h-5" transform="translate(0,49.06)" style="stroke: rgb(51, 51, 51); stroke-opacity: 1; stroke-width: 1px;"/><g class="ytick"><text text-anchor="end" x="19.6" y="4.199999999999999" transform="translate(0,467.94)" style="font-family: 'Open Sans', verdana, arial, sans-serif; font-size: 12px; fill: rgb(51, 51, 51); fill-opacity: 1; white-space: pre; opacity: 1;">0</text></g><g class="ytick"><text text-anchor="end" x="19.6" y="4.199999999999999" style="font-family: 'Open Sans', verdana, arial, sans-serif; font-size: 12px; fill: rgb(51, 51, 51); fill-opacity: 1; white-space: pre; opacity: 1;" transform="translate(0,384.17)">0.2</text></g><g class="ytick"><text text-anchor="end" x="19.6" y="4.199999999999999" style="font-family: 'Open Sans', verdana, arial, sans-serif; font-size: 12px; fill: rgb(51, 51, 51); fill-opacity: 1; white-space: pre; opacity: 1;" transform="translate(0,300.39)">0.4</text></g><g class="ytick"><text text-anchor="end" x="19.6" y="4.199999999999999" style="font-family: 'Open Sans', verdana, arial, sans-serif; font-size: 12px; fill: rgb(51, 51, 51); fill-opacity: 1; white-space: pre; opacity: 1;" transform="translate(0,216.61)">0.6</text></g><g class="ytick"><text text-anchor="end" x="19.6" y="4.199999999999999" style="font-family: 'Open Sans', verdana, arial, sans-serif; font-size: 12px; fill: rgb(51, 51, 51); fill-opacity: 1; white-space: pre; opacity: 1;" transform="translate(0,132.82999999999998)">0.8</text></g><g class="ytick"><text text-anchor="end" x="19.6" y="4.199999999999999" style="font-family: 'Open Sans', verdana, arial, sans-serif; font-size: 12px; fill: rgb(51, 51, 51); fill-opacity: 1; white-space: pre; opacity: 1;" transform="translate(0,49.06)">1</text></g></g><g class="overaxes-above"/></g></g><g class="polarlayer"/><g class="ternarylayer"/><g class="geolayer"/><g class="funnelarealayer"/><g class="pielayer"/><g class="iciclelayer"/><g class="treemaplayer"/><g class="sunburstlayer"/><g class="glimages"/><defs id="topdefs-028948"><g class="clips"/></defs><g class="layer-above"><g class="imagelayer"/><g class="shapelayer"/></g><g class="infolayer"><g class="cb0177df colorbar" transform="translate(28,40)"><rect class="cbbg" x="385" y="0" width="87.03125" height="437" style="fill: rgb(0, 0, 0); fill-opacity: 0; stroke: rgb(68, 68, 68); stroke-opacity: 1; stroke-width: 0;"/><g class="cbfills" transform="translate(0,10)"/><g class="cblines" transform="translate(0,10)"><path class="cbline" d="M395,417h30" style="fill: none; stroke: rgb(34, 30, 27); stroke-opacity: 1; stroke-width: 2px;"/><path class="cbline" d="M395,396h30" style="fill: none; stroke: rgb(47, 38, 33); stroke-opacity: 1; stroke-width: 2px;"/><path class="cbline" d="M395,375h30" style="fill: none; stroke: rgb(59, 46, 38); stroke-opacity: 1; stroke-width: 2px;"/><path class="cbline" d="M395,354h30" style="fill: none; stroke: rgb(72, 54, 43); stroke-opacity: 1; stroke-width: 2px;"/><path class="cbline" d="M395,334h30" style="fill: none; stroke: rgb(85, 62, 47); stroke-opacity: 1; stroke-width: 2px;"/><path class="cbline" d="M395,313h30" style="fill: none; stroke: rgb(98, 69, 51); stroke-opacity: 1; stroke-width: 2px;"/><path class="cbline" d="M395,292h30" style="fill: none; stroke: rgb(112, 77, 54); stroke-opacity: 1; stroke-width: 2px;"/><path class="cbline" d="M395,271h30" style="fill: none; stroke: rgb(125, 85, 56); stroke-opacity: 1; stroke-width: 2px;"/><path class="cbline" d="M395,250h30" style="fill: none; stroke: rgb(138, 93, 57); stroke-opacity: 1; stroke-width: 2px;"/><path class="cbline" d="M395,229h30" style="fill: none; stroke: rgb(150, 102, 58); stroke-opacity: 1; stroke-width: 2px;"/><path class="cbline" d="M395,209h30" style="fill: none; stroke: rgb(161, 112, 59); stroke-opacity: 1; stroke-width: 2px;"/><path class="cbline" d="M395,188h30" style="fill: none; stroke: rgb(171, 122, 60); stroke-opacity: 1; stroke-width: 2px;"/><path class="cbline" d="M395,167h30" style="fill: none; stroke: rgb(180, 134, 64); stroke-opacity: 1; stroke-width: 2px;"/><path class="cbline" d="M395,146h30" style="fill: none; stroke: rgb(188, 147, 69); stroke-opacity: 1; stroke-width: 2px;"/><path class="cbline" d="M395,125h30" style="fill: none; stroke: rgb(195, 161, 78); stroke-opacity: 1; stroke-width: 2px;"/><path class="cbline" d="M395,104h30" style="fill: none; stroke: rgb(202, 174, 89); stroke-opacity: 1; stroke-width: 2px;"/><path class="cbline" d="M395,83h30" style="fill: none; stroke: rgb(207, 188, 102); stroke-opacity: 1; stroke-width: 2px;"/><path class="cbline" d="M395,63h30" style="fill: none; stroke: rgb(213, 202, 118); stroke-opacity: 1; stroke-width: 2px;"/><path class="cbline" d="M395,42h30" style="fill: none; stroke: rgb(219, 216, 134); stroke-opacity: 1; stroke-width: 2px;"/><path class="cbline" d="M395,21h30" style="fill: none; stroke: rgb(225, 231, 152); stroke-opacity: 1; stroke-width: 2px;"/><path class="cbline" d="M395,0h30" style="fill: none; stroke: rgb(232, 245, 171); stroke-opacity: 1; stroke-width: 2px;"/></g><g class="cbaxis crisp" transform="translate(0,-40)"><path class="ycb0177dftick ticks crisp" d="M424.5,0h-6" transform="translate(0,362.75)" style="stroke: rgb(237, 237, 237); stroke-opacity: 1; stroke-width: 1px;"/><path class="ycb0177dftick ticks crisp" d="M424.5,0h-6" transform="translate(0,258.5)" style="stroke: rgb(237, 237, 237); stroke-opacity: 1; stroke-width: 1px;"/><path class="ycb0177dftick ticks crisp" d="M424.5,0h-6" transform="translate(0,154.25)" style="stroke: rgb(237, 237, 237); stroke-opacity: 1; stroke-width: 1px;"/><g class="ycb0177dftick"><text text-anchor="start" x="427.9" y="4.199999999999999" transform="translate(0,467)" style="font-family: 'Open Sans', verdana, arial, sans-serif; font-size: 12px; fill: rgb(51, 51, 51); fill-opacity: 1; white-space: pre; opacity: 1;">0.19</text></g><g class="ycb0177dftick"><text text-anchor="start" x="427.9" y="4.199999999999999" style="font-family: 'Open Sans', verdana, arial, sans-serif; font-size: 12px; fill: rgb(51, 51, 51); fill-opacity: 1; white-space: pre; opacity: 1;" transform="translate(0,362.75)">1.94</text></g><g class="ycb0177dftick"><text text-anchor="start" x="427.9" y="4.199999999999999" style="font-family: 'Open Sans', verdana, arial, sans-serif; font-size: 12px; fill: rgb(51, 51, 51); fill-opacity: 1; white-space: pre; opacity: 1;" transform="translate(0,258.5)">3.69</text></g><g class="ycb0177dftick"><text text-anchor="start" x="427.9" y="4.199999999999999" style="font-family: 'Open Sans', verdana, arial, sans-serif; font-size: 12px; fill: rgb(51, 51, 51); fill-opacity: 1; white-space: pre; opacity: 1;" transform="translate(0,154.25)">5.43</text></g><g class="ycb0177dftick"><text text-anchor="start" x="427.9" y="4.199999999999999" style="font-family: 'Open Sans', verdana, arial, sans-serif; font-size: 12px; fill: rgb(51, 51, 51); fill-opacity: 1; white-space: pre; opacity: 1;" transform="translate(0,50.000000000000014)">7.18</text></g></g><g class="cbtitleunshift" transform="translate(-28,-40)"><g class="cbtitle"/></g><rect class="cboutline" x="395" y="10" width="30" height="417" style="stroke: rgb(68, 68, 68); stroke-opacity: 1; fill: none; stroke-width: 0;"/></g><g class="g-gtitle"><text class="gtitle" x="250" y="20" text-anchor="middle" dy="0em" style="font-family: 'Open Sans', verdana, arial, sans-serif; font-size: 17px; fill: rgb(51, 51, 51); opacity: 1; font-weight: normal; white-space: pre;">Student copula</text></g><g class="g-xtitle"/><g class="g-ytitle"/></g></svg>