<?xml version="1.0" encoding="utf-8" standalone="no"?>
<!DOCTYPE svg PUBLIC "-//W3C//DTD SVG 1.1//EN"
  "http://www.w3.org/Graphics/SVG/1.1/DTD/svg11.dtd">
<svg xmlns:xlink="http://www.w3.org/1999/xlink" width="1008pt" height="504pt" viewBox="0 0 1008 504" xmlns="http://www.w3.org/2000/svg" version="1.1">
 <metadata>
  <rdf:RDF xmlns:dc="http://purl.org/dc/elements/1.1/" xmlns:cc="http://creativecommons.org/ns#" xmlns:rdf="http://www.w3.org/1999/02/22-rdf-syntax-ns#">
   <cc:Work>
    <dc:type rdf:resource="http://purl.org/dc/dcmitype/StillImage"/>
    <dc:date>2022-04-17T02:11:40.879478</dc:date>
    <dc:format>image/svg+xml</dc:format>
    <dc:creator>
     <cc:Agent>
      <dc:title>Matplotlib v3.5.1, https://matplotlib.org/</dc:title>
     </cc:Agent>
    </dc:creator>
   </cc:Work>
  </rdf:RDF>
 </metadata>
 <defs>
  <style type="text/css">*{stroke-linejoin: round; stroke-linecap: butt}</style>
 </defs>
 <g id="figure_1">
  <g id="patch_1">
   <path d="M 0 504 
L 1008 504 
L 1008 0 
L 0 0 
z
" style="fill: #ffffff"/>
  </g>
  <g id="axes_1">
   <g id="patch_2">
    <path d="M 87.247409 435.06 
L 491.091658 435.06 
L 491.091658 29.889734 
L 87.247409 29.889734 
z
" style="fill: #e5e5e5"/>
   </g>
   <g id="matplotlib.axis_1">
    <g id="xtick_1">
     <g id="line2d_1">
      <path d="M 87.247409 435.06 
L 87.247409 29.889734 
" clip-path="url(#pb96c2dc9fb)" style="fill: none; stroke: #ffffff; stroke-width: 1.5; stroke-linecap: round"/>
     </g>
     <g id="text_1">
      <!-- 0.00 -->
      <g style="fill: #555555" transform="translate(71.192135 459.370391)scale(0.165 -0.165)">
       <defs>
        <path id="ArialMT-30" d="M 266 2259 
Q 266 3072 433 3567 
Q 600 4063 929 4331 
Q 1259 4600 1759 4600 
Q 2128 4600 2406 4451 
Q 2684 4303 2865 4023 
Q 3047 3744 3150 3342 
Q 3253 2941 3253 2259 
Q 3253 1453 3087 958 
Q 2922 463 2592 192 
Q 2263 -78 1759 -78 
Q 1097 -78 719 397 
Q 266 969 266 2259 
z
M 844 2259 
Q 844 1131 1108 757 
Q 1372 384 1759 384 
Q 2147 384 2411 759 
Q 2675 1134 2675 2259 
Q 2675 3391 2411 3762 
Q 2147 4134 1753 4134 
Q 1366 4134 1134 3806 
Q 844 3388 844 2259 
z
" transform="scale(0.015625)"/>
        <path id="ArialMT-2e" d="M 581 0 
L 581 641 
L 1222 641 
L 1222 0 
L 581 0 
z
" transform="scale(0.015625)"/>
       </defs>
       <use xlink:href="#ArialMT-30"/>
       <use xlink:href="#ArialMT-2e" x="55.615234"/>
       <use xlink:href="#ArialMT-30" x="83.398438"/>
       <use xlink:href="#ArialMT-30" x="139.013672"/>
      </g>
     </g>
    </g>
    <g id="xtick_2">
     <g id="line2d_2">
      <path d="M 141.591598 435.06 
L 141.591598 29.889734 
" clip-path="url(#pb96c2dc9fb)" style="fill: none; stroke: #ffffff; stroke-width: 1.5; stroke-linecap: round"/>
     </g>
     <g id="text_2">
      <!-- 0.02 -->
      <g style="fill: #555555" transform="translate(125.536324 459.370391)scale(0.165 -0.165)">
       <defs>
        <path id="ArialMT-32" d="M 3222 541 
L 3222 0 
L 194 0 
Q 188 203 259 391 
Q 375 700 629 1000 
Q 884 1300 1366 1694 
Q 2113 2306 2375 2664 
Q 2638 3022 2638 3341 
Q 2638 3675 2398 3904 
Q 2159 4134 1775 4134 
Q 1369 4134 1125 3890 
Q 881 3647 878 3216 
L 300 3275 
Q 359 3922 746 4261 
Q 1134 4600 1788 4600 
Q 2447 4600 2831 4234 
Q 3216 3869 3216 3328 
Q 3216 3053 3103 2787 
Q 2991 2522 2730 2228 
Q 2469 1934 1863 1422 
Q 1356 997 1212 845 
Q 1069 694 975 541 
L 3222 541 
z
" transform="scale(0.015625)"/>
       </defs>
       <use xlink:href="#ArialMT-30"/>
       <use xlink:href="#ArialMT-2e" x="55.615234"/>
       <use xlink:href="#ArialMT-30" x="83.398438"/>
       <use xlink:href="#ArialMT-32" x="139.013672"/>
      </g>
     </g>
    </g>
    <g id="xtick_3">
     <g id="line2d_3">
      <path d="M 195.935787 435.06 
L 195.935787 29.889734 
" clip-path="url(#pb96c2dc9fb)" style="fill: none; stroke: #ffffff; stroke-width: 1.5; stroke-linecap: round"/>
     </g>
     <g id="text_3">
      <!-- 0.04 -->
      <g style="fill: #555555" transform="translate(179.880513 459.370391)scale(0.165 -0.165)">
       <defs>
        <path id="ArialMT-34" d="M 2069 0 
L 2069 1097 
L 81 1097 
L 81 1613 
L 2172 4581 
L 2631 4581 
L 2631 1613 
L 3250 1613 
L 3250 1097 
L 2631 1097 
L 2631 0 
L 2069 0 
z
M 2069 1613 
L 2069 3678 
L 634 1613 
L 2069 1613 
z
" transform="scale(0.015625)"/>
       </defs>
       <use xlink:href="#ArialMT-30"/>
       <use xlink:href="#ArialMT-2e" x="55.615234"/>
       <use xlink:href="#ArialMT-30" x="83.398438"/>
       <use xlink:href="#ArialMT-34" x="139.013672"/>
      </g>
     </g>
    </g>
    <g id="xtick_4">
     <g id="line2d_4">
      <path d="M 250.279976 435.06 
L 250.279976 29.889734 
" clip-path="url(#pb96c2dc9fb)" style="fill: none; stroke: #ffffff; stroke-width: 1.5; stroke-linecap: round"/>
     </g>
     <g id="text_4">
      <!-- 0.06 -->
      <g style="fill: #555555" transform="translate(234.224703 459.370391)scale(0.165 -0.165)">
       <defs>
        <path id="ArialMT-36" d="M 3184 3459 
L 2625 3416 
Q 2550 3747 2413 3897 
Q 2184 4138 1850 4138 
Q 1581 4138 1378 3988 
Q 1113 3794 959 3422 
Q 806 3050 800 2363 
Q 1003 2672 1297 2822 
Q 1591 2972 1913 2972 
Q 2475 2972 2870 2558 
Q 3266 2144 3266 1488 
Q 3266 1056 3080 686 
Q 2894 316 2569 119 
Q 2244 -78 1831 -78 
Q 1128 -78 684 439 
Q 241 956 241 2144 
Q 241 3472 731 4075 
Q 1159 4600 1884 4600 
Q 2425 4600 2770 4297 
Q 3116 3994 3184 3459 
z
M 888 1484 
Q 888 1194 1011 928 
Q 1134 663 1356 523 
Q 1578 384 1822 384 
Q 2178 384 2434 671 
Q 2691 959 2691 1453 
Q 2691 1928 2437 2201 
Q 2184 2475 1800 2475 
Q 1419 2475 1153 2201 
Q 888 1928 888 1484 
z
" transform="scale(0.015625)"/>
       </defs>
       <use xlink:href="#ArialMT-30"/>
       <use xlink:href="#ArialMT-2e" x="55.615234"/>
       <use xlink:href="#ArialMT-30" x="83.398438"/>
       <use xlink:href="#ArialMT-36" x="139.013672"/>
      </g>
     </g>
    </g>
    <g id="xtick_5">
     <g id="line2d_5">
      <path d="M 304.624165 435.06 
L 304.624165 29.889734 
" clip-path="url(#pb96c2dc9fb)" style="fill: none; stroke: #ffffff; stroke-width: 1.5; stroke-linecap: round"/>
     </g>
     <g id="text_5">
      <!-- 0.08 -->
      <g style="fill: #555555" transform="translate(288.568892 459.370391)scale(0.165 -0.165)">
       <defs>
        <path id="ArialMT-38" d="M 1131 2484 
Q 781 2613 612 2850 
Q 444 3088 444 3419 
Q 444 3919 803 4259 
Q 1163 4600 1759 4600 
Q 2359 4600 2725 4251 
Q 3091 3903 3091 3403 
Q 3091 3084 2923 2848 
Q 2756 2613 2416 2484 
Q 2838 2347 3058 2040 
Q 3278 1734 3278 1309 
Q 3278 722 2862 322 
Q 2447 -78 1769 -78 
Q 1091 -78 675 323 
Q 259 725 259 1325 
Q 259 1772 486 2073 
Q 713 2375 1131 2484 
z
M 1019 3438 
Q 1019 3113 1228 2906 
Q 1438 2700 1772 2700 
Q 2097 2700 2305 2904 
Q 2513 3109 2513 3406 
Q 2513 3716 2298 3927 
Q 2084 4138 1766 4138 
Q 1444 4138 1231 3931 
Q 1019 3725 1019 3438 
z
M 838 1322 
Q 838 1081 952 856 
Q 1066 631 1291 507 
Q 1516 384 1775 384 
Q 2178 384 2440 643 
Q 2703 903 2703 1303 
Q 2703 1709 2433 1975 
Q 2163 2241 1756 2241 
Q 1359 2241 1098 1978 
Q 838 1716 838 1322 
z
" transform="scale(0.015625)"/>
       </defs>
       <use xlink:href="#ArialMT-30"/>
       <use xlink:href="#ArialMT-2e" x="55.615234"/>
       <use xlink:href="#ArialMT-30" x="83.398438"/>
       <use xlink:href="#ArialMT-38" x="139.013672"/>
      </g>
     </g>
    </g>
    <g id="xtick_6">
     <g id="line2d_6">
      <path d="M 358.968354 435.06 
L 358.968354 29.889734 
" clip-path="url(#pb96c2dc9fb)" style="fill: none; stroke: #ffffff; stroke-width: 1.5; stroke-linecap: round"/>
     </g>
     <g id="text_6">
      <!-- 0.10 -->
      <g style="fill: #555555" transform="translate(342.913081 459.370391)scale(0.165 -0.165)">
       <defs>
        <path id="ArialMT-31" d="M 2384 0 
L 1822 0 
L 1822 3584 
Q 1619 3391 1289 3197 
Q 959 3003 697 2906 
L 697 3450 
Q 1169 3672 1522 3987 
Q 1875 4303 2022 4600 
L 2384 4600 
L 2384 0 
z
" transform="scale(0.015625)"/>
       </defs>
       <use xlink:href="#ArialMT-30"/>
       <use xlink:href="#ArialMT-2e" x="55.615234"/>
       <use xlink:href="#ArialMT-31" x="83.398438"/>
       <use xlink:href="#ArialMT-30" x="139.013672"/>
      </g>
     </g>
    </g>
    <g id="xtick_7">
     <g id="line2d_7">
      <path d="M 413.312543 435.06 
L 413.312543 29.889734 
" clip-path="url(#pb96c2dc9fb)" style="fill: none; stroke: #ffffff; stroke-width: 1.5; stroke-linecap: round"/>
     </g>
     <g id="text_7">
      <!-- 0.12 -->
      <g style="fill: #555555" transform="translate(397.25727 459.370391)scale(0.165 -0.165)">
       <use xlink:href="#ArialMT-30"/>
       <use xlink:href="#ArialMT-2e" x="55.615234"/>
       <use xlink:href="#ArialMT-31" x="83.398438"/>
       <use xlink:href="#ArialMT-32" x="139.013672"/>
      </g>
     </g>
    </g>
    <g id="xtick_8">
     <g id="line2d_8">
      <path d="M 467.656733 435.06 
L 467.656733 29.889734 
" clip-path="url(#pb96c2dc9fb)" style="fill: none; stroke: #ffffff; stroke-width: 1.5; stroke-linecap: round"/>
     </g>
     <g id="text_8">
      <!-- 0.14 -->
      <g style="fill: #555555" transform="translate(451.601459 459.370391)scale(0.165 -0.165)">
       <use xlink:href="#ArialMT-30"/>
       <use xlink:href="#ArialMT-2e" x="55.615234"/>
       <use xlink:href="#ArialMT-31" x="83.398438"/>
       <use xlink:href="#ArialMT-34" x="139.013672"/>
      </g>
     </g>
    </g>
    <g id="text_9">
     <!-- HeatingOil -->
     <g style="fill: #555555" transform="translate(247.150783 479.764453)scale(0.18 -0.18)">
      <defs>
       <path id="ArialMT-48" d="M 513 0 
L 513 4581 
L 1119 4581 
L 1119 2700 
L 3500 2700 
L 3500 4581 
L 4106 4581 
L 4106 0 
L 3500 0 
L 3500 2159 
L 1119 2159 
L 1119 0 
L 513 0 
z
" transform="scale(0.015625)"/>
       <path id="ArialMT-65" d="M 2694 1069 
L 3275 997 
Q 3138 488 2766 206 
Q 2394 -75 1816 -75 
Q 1088 -75 661 373 
Q 234 822 234 1631 
Q 234 2469 665 2931 
Q 1097 3394 1784 3394 
Q 2450 3394 2872 2941 
Q 3294 2488 3294 1666 
Q 3294 1616 3291 1516 
L 816 1516 
Q 847 969 1125 678 
Q 1403 388 1819 388 
Q 2128 388 2347 550 
Q 2566 713 2694 1069 
z
M 847 1978 
L 2700 1978 
Q 2663 2397 2488 2606 
Q 2219 2931 1791 2931 
Q 1403 2931 1139 2672 
Q 875 2413 847 1978 
z
" transform="scale(0.015625)"/>
       <path id="ArialMT-61" d="M 2588 409 
Q 2275 144 1986 34 
Q 1697 -75 1366 -75 
Q 819 -75 525 192 
Q 231 459 231 875 
Q 231 1119 342 1320 
Q 453 1522 633 1644 
Q 813 1766 1038 1828 
Q 1203 1872 1538 1913 
Q 2219 1994 2541 2106 
Q 2544 2222 2544 2253 
Q 2544 2597 2384 2738 
Q 2169 2928 1744 2928 
Q 1347 2928 1158 2789 
Q 969 2650 878 2297 
L 328 2372 
Q 403 2725 575 2942 
Q 747 3159 1072 3276 
Q 1397 3394 1825 3394 
Q 2250 3394 2515 3294 
Q 2781 3194 2906 3042 
Q 3031 2891 3081 2659 
Q 3109 2516 3109 2141 
L 3109 1391 
Q 3109 606 3145 398 
Q 3181 191 3288 0 
L 2700 0 
Q 2613 175 2588 409 
z
M 2541 1666 
Q 2234 1541 1622 1453 
Q 1275 1403 1131 1340 
Q 988 1278 909 1158 
Q 831 1038 831 891 
Q 831 666 1001 516 
Q 1172 366 1500 366 
Q 1825 366 2078 508 
Q 2331 650 2450 897 
Q 2541 1088 2541 1459 
L 2541 1666 
z
" transform="scale(0.015625)"/>
       <path id="ArialMT-74" d="M 1650 503 
L 1731 6 
Q 1494 -44 1306 -44 
Q 1000 -44 831 53 
Q 663 150 594 308 
Q 525 466 525 972 
L 525 2881 
L 113 2881 
L 113 3319 
L 525 3319 
L 525 4141 
L 1084 4478 
L 1084 3319 
L 1650 3319 
L 1650 2881 
L 1084 2881 
L 1084 941 
Q 1084 700 1114 631 
Q 1144 563 1211 522 
Q 1278 481 1403 481 
Q 1497 481 1650 503 
z
" transform="scale(0.015625)"/>
       <path id="ArialMT-69" d="M 425 3934 
L 425 4581 
L 988 4581 
L 988 3934 
L 425 3934 
z
M 425 0 
L 425 3319 
L 988 3319 
L 988 0 
L 425 0 
z
" transform="scale(0.015625)"/>
       <path id="ArialMT-6e" d="M 422 0 
L 422 3319 
L 928 3319 
L 928 2847 
Q 1294 3394 1984 3394 
Q 2284 3394 2536 3286 
Q 2788 3178 2913 3003 
Q 3038 2828 3088 2588 
Q 3119 2431 3119 2041 
L 3119 0 
L 2556 0 
L 2556 2019 
Q 2556 2363 2490 2533 
Q 2425 2703 2258 2804 
Q 2091 2906 1866 2906 
Q 1506 2906 1245 2678 
Q 984 2450 984 1813 
L 984 0 
L 422 0 
z
" transform="scale(0.015625)"/>
       <path id="ArialMT-67" d="M 319 -275 
L 866 -356 
Q 900 -609 1056 -725 
Q 1266 -881 1628 -881 
Q 2019 -881 2231 -725 
Q 2444 -569 2519 -288 
Q 2563 -116 2559 434 
Q 2191 0 1641 0 
Q 956 0 581 494 
Q 206 988 206 1678 
Q 206 2153 378 2554 
Q 550 2956 876 3175 
Q 1203 3394 1644 3394 
Q 2231 3394 2613 2919 
L 2613 3319 
L 3131 3319 
L 3131 450 
Q 3131 -325 2973 -648 
Q 2816 -972 2473 -1159 
Q 2131 -1347 1631 -1347 
Q 1038 -1347 672 -1080 
Q 306 -813 319 -275 
z
M 784 1719 
Q 784 1066 1043 766 
Q 1303 466 1694 466 
Q 2081 466 2343 764 
Q 2606 1063 2606 1700 
Q 2606 2309 2336 2618 
Q 2066 2928 1684 2928 
Q 1309 2928 1046 2623 
Q 784 2319 784 1719 
z
" transform="scale(0.015625)"/>
       <path id="ArialMT-4f" d="M 309 2231 
Q 309 3372 921 4017 
Q 1534 4663 2503 4663 
Q 3138 4663 3647 4359 
Q 4156 4056 4423 3514 
Q 4691 2972 4691 2284 
Q 4691 1588 4409 1038 
Q 4128 488 3612 205 
Q 3097 -78 2500 -78 
Q 1853 -78 1343 234 
Q 834 547 571 1087 
Q 309 1628 309 2231 
z
M 934 2222 
Q 934 1394 1379 917 
Q 1825 441 2497 441 
Q 3181 441 3623 922 
Q 4066 1403 4066 2288 
Q 4066 2847 3877 3264 
Q 3688 3681 3323 3911 
Q 2959 4141 2506 4141 
Q 1863 4141 1398 3698 
Q 934 3256 934 2222 
z
" transform="scale(0.015625)"/>
       <path id="ArialMT-6c" d="M 409 0 
L 409 4581 
L 972 4581 
L 972 0 
L 409 0 
z
" transform="scale(0.015625)"/>
      </defs>
      <use xlink:href="#ArialMT-48"/>
      <use xlink:href="#ArialMT-65" x="72.216797"/>
      <use xlink:href="#ArialMT-61" x="127.832031"/>
      <use xlink:href="#ArialMT-74" x="183.447266"/>
      <use xlink:href="#ArialMT-69" x="211.230469"/>
      <use xlink:href="#ArialMT-6e" x="233.447266"/>
      <use xlink:href="#ArialMT-67" x="289.0625"/>
      <use xlink:href="#ArialMT-4f" x="344.677734"/>
      <use xlink:href="#ArialMT-69" x="422.460938"/>
      <use xlink:href="#ArialMT-6c" x="444.677734"/>
     </g>
    </g>
   </g>
   <g id="matplotlib.axis_2">
    <g id="ytick_1">
     <g id="line2d_9">
      <path d="M 87.247409 382.439109 
L 491.091658 382.439109 
" clip-path="url(#pb96c2dc9fb)" style="fill: none; stroke: #ffffff; stroke-width: 1.5; stroke-linecap: round"/>
     </g>
     <g id="text_10">
      <!-- $\mathdefault{10^{-8}}$ -->
      <g style="fill: #555555" transform="translate(42.077409 390.946922)scale(0.165 -0.165)">
       <defs>
        <path id="ArialMT-2212" d="M 3381 1997 
L 356 1997 
L 356 2522 
L 3381 2522 
L 3381 1997 
z
" transform="scale(0.015625)"/>
       </defs>
       <use xlink:href="#ArialMT-31" transform="translate(0 0.99375)"/>
       <use xlink:href="#ArialMT-30" transform="translate(55.615234 0.99375)"/>
       <use xlink:href="#ArialMT-2212" transform="translate(112.972813 70.6875)scale(0.7)"/>
       <use xlink:href="#ArialMT-38" transform="translate(153.851719 70.6875)scale(0.7)"/>
      </g>
     </g>
    </g>
    <g id="ytick_2">
     <g id="line2d_10">
      <path d="M 87.247409 294.301765 
L 491.091658 294.301765 
" clip-path="url(#pb96c2dc9fb)" style="fill: none; stroke: #ffffff; stroke-width: 1.5; stroke-linecap: round"/>
     </g>
     <g id="text_11">
      <!-- $\mathdefault{10^{-6}}$ -->
      <g style="fill: #555555" transform="translate(42.077409 302.809578)scale(0.165 -0.165)">
       <use xlink:href="#ArialMT-31" transform="translate(0 0.99375)"/>
       <use xlink:href="#ArialMT-30" transform="translate(55.615234 0.99375)"/>
       <use xlink:href="#ArialMT-2212" transform="translate(112.972813 70.6875)scale(0.7)"/>
       <use xlink:href="#ArialMT-36" transform="translate(153.851719 70.6875)scale(0.7)"/>
      </g>
     </g>
    </g>
    <g id="ytick_3">
     <g id="line2d_11">
      <path d="M 87.247409 206.164422 
L 491.091658 206.164422 
" clip-path="url(#pb96c2dc9fb)" style="fill: none; stroke: #ffffff; stroke-width: 1.5; stroke-linecap: round"/>
     </g>
     <g id="text_12">
      <!-- $\mathdefault{10^{-4}}$ -->
      <g style="fill: #555555" transform="translate(42.077409 214.589734)scale(0.165 -0.165)">
       <use xlink:href="#ArialMT-31" transform="translate(0 0.201563)"/>
       <use xlink:href="#ArialMT-30" transform="translate(55.615234 0.201563)"/>
       <use xlink:href="#ArialMT-2212" transform="translate(112.972813 69.895313)scale(0.7)"/>
       <use xlink:href="#ArialMT-34" transform="translate(153.851719 69.895313)scale(0.7)"/>
      </g>
     </g>
    </g>
    <g id="ytick_4">
     <g id="line2d_12">
      <path d="M 87.247409 118.027078 
L 491.091658 118.027078 
" clip-path="url(#pb96c2dc9fb)" style="fill: none; stroke: #ffffff; stroke-width: 1.5; stroke-linecap: round"/>
     </g>
     <g id="text_13">
      <!-- $\mathdefault{10^{-2}}$ -->
      <g style="fill: #555555" transform="translate(42.077409 126.534891)scale(0.165 -0.165)">
       <use xlink:href="#ArialMT-31" transform="translate(0 0.99375)"/>
       <use xlink:href="#ArialMT-30" transform="translate(55.615234 0.99375)"/>
       <use xlink:href="#ArialMT-2212" transform="translate(112.972813 70.6875)scale(0.7)"/>
       <use xlink:href="#ArialMT-32" transform="translate(153.851719 70.6875)scale(0.7)"/>
      </g>
     </g>
    </g>
    <g id="ytick_5">
     <g id="line2d_13">
      <path d="M 87.247409 29.889734 
L 491.091658 29.889734 
" clip-path="url(#pb96c2dc9fb)" style="fill: none; stroke: #ffffff; stroke-width: 1.5; stroke-linecap: round"/>
     </g>
     <g id="text_14">
      <!-- $\mathdefault{10^{0}}$ -->
      <g style="fill: #555555" transform="translate(48.842409 38.397547)scale(0.165 -0.165)">
       <use xlink:href="#ArialMT-31" transform="translate(0 0.99375)"/>
       <use xlink:href="#ArialMT-30" transform="translate(55.615234 0.99375)"/>
       <use xlink:href="#ArialMT-30" transform="translate(112.972813 70.6875)scale(0.7)"/>
      </g>
     </g>
    </g>
    <g id="text_15">
     <!-- Proportion -->
     <g style="fill: #555555" transform="translate(34.499909 273.995805)rotate(-90)scale(0.18 -0.18)">
      <defs>
       <path id="ArialMT-50" d="M 494 0 
L 494 4581 
L 2222 4581 
Q 2678 4581 2919 4538 
Q 3256 4481 3484 4323 
Q 3713 4166 3852 3881 
Q 3991 3597 3991 3256 
Q 3991 2672 3619 2267 
Q 3247 1863 2275 1863 
L 1100 1863 
L 1100 0 
L 494 0 
z
M 1100 2403 
L 2284 2403 
Q 2872 2403 3119 2622 
Q 3366 2841 3366 3238 
Q 3366 3525 3220 3729 
Q 3075 3934 2838 4000 
Q 2684 4041 2272 4041 
L 1100 4041 
L 1100 2403 
z
" transform="scale(0.015625)"/>
       <path id="ArialMT-72" d="M 416 0 
L 416 3319 
L 922 3319 
L 922 2816 
Q 1116 3169 1280 3281 
Q 1444 3394 1641 3394 
Q 1925 3394 2219 3213 
L 2025 2691 
Q 1819 2813 1613 2813 
Q 1428 2813 1281 2702 
Q 1134 2591 1072 2394 
Q 978 2094 978 1738 
L 978 0 
L 416 0 
z
" transform="scale(0.015625)"/>
       <path id="ArialMT-6f" d="M 213 1659 
Q 213 2581 725 3025 
Q 1153 3394 1769 3394 
Q 2453 3394 2887 2945 
Q 3322 2497 3322 1706 
Q 3322 1066 3130 698 
Q 2938 331 2570 128 
Q 2203 -75 1769 -75 
Q 1072 -75 642 372 
Q 213 819 213 1659 
z
M 791 1659 
Q 791 1022 1069 705 
Q 1347 388 1769 388 
Q 2188 388 2466 706 
Q 2744 1025 2744 1678 
Q 2744 2294 2464 2611 
Q 2184 2928 1769 2928 
Q 1347 2928 1069 2612 
Q 791 2297 791 1659 
z
" transform="scale(0.015625)"/>
       <path id="ArialMT-70" d="M 422 -1272 
L 422 3319 
L 934 3319 
L 934 2888 
Q 1116 3141 1344 3267 
Q 1572 3394 1897 3394 
Q 2322 3394 2647 3175 
Q 2972 2956 3137 2557 
Q 3303 2159 3303 1684 
Q 3303 1175 3120 767 
Q 2938 359 2589 142 
Q 2241 -75 1856 -75 
Q 1575 -75 1351 44 
Q 1128 163 984 344 
L 984 -1272 
L 422 -1272 
z
M 931 1641 
Q 931 1000 1190 694 
Q 1450 388 1819 388 
Q 2194 388 2461 705 
Q 2728 1022 2728 1688 
Q 2728 2322 2467 2637 
Q 2206 2953 1844 2953 
Q 1484 2953 1207 2617 
Q 931 2281 931 1641 
z
" transform="scale(0.015625)"/>
      </defs>
      <use xlink:href="#ArialMT-50"/>
      <use xlink:href="#ArialMT-72" x="66.699219"/>
      <use xlink:href="#ArialMT-6f" x="100"/>
      <use xlink:href="#ArialMT-70" x="155.615234"/>
      <use xlink:href="#ArialMT-6f" x="211.230469"/>
      <use xlink:href="#ArialMT-72" x="266.845703"/>
      <use xlink:href="#ArialMT-74" x="300.146484"/>
      <use xlink:href="#ArialMT-69" x="327.929688"/>
      <use xlink:href="#ArialMT-6f" x="350.146484"/>
      <use xlink:href="#ArialMT-6e" x="405.761719"/>
     </g>
    </g>
   </g>
   <g id="line2d_14">
    <path d="M 86.020954 42.642646 
L 88.569973 42.742171 
L 88.641207 42.822167 
L 88.766676 42.922633 
L 88.801432 42.983167 
L 89.13436 43.084484 
L 89.225719 43.145533 
L 89.778577 43.247715 
L 89.866406 43.288742 
L 90.13192 43.391694 
L 90.226805 43.515972 
L 90.916834 43.620158 
L 90.95691 43.661991 
L 91.469957 43.766976 
L 91.494155 43.809132 
L 91.753561 43.91493 
L 91.854151 43.999991 
L 92.162471 44.106853 
L 92.201301 44.149765 
L 92.518428 44.257468 
L 92.570054 44.322382 
L 92.745052 44.431063 
L 92.809764 44.49657 
L 93.087732 44.606248 
L 93.193165 44.650296 
L 93.490282 44.760861 
L 93.581233 44.827508 
L 93.815479 44.916733 
L 93.919504 45.051356 
L 94.070286 45.141633 
L 94.159672 45.277853 
L 94.809922 45.369208 
L 94.856513 45.438011 
L 95.213434 45.530135 
L 95.213434 45.576364 
L 95.603774 45.669159 
L 95.699078 45.715725 
L 95.942486 45.809199 
L 96.015436 45.879605 
L 96.332036 45.973885 
L 96.442712 46.044901 
L 96.611724 46.140001 
L 96.702235 46.235576 
L 96.998171 46.33163 
L 97.08644 46.403988 
L 97.436956 46.500894 
L 97.492757 46.573896 
L 97.845996 46.671668 
L 97.938083 46.745326 
L 98.345625 46.84398 
L 98.39114 46.893498 
L 99.08712 46.99292 
L 99.106498 47.067828 
L 99.542495 47.168162 
L 99.648246 47.319657 
L 99.817405 47.421324 
L 99.924167 47.472361 
L 100.217407 47.574845 
L 100.297496 47.652069 
L 100.59253 47.755523 
L 100.672384 47.833481 
L 101.146208 47.937922 
L 101.250393 47.990357 
L 101.436524 48.09566 
L 101.511008 48.175019 
L 101.641521 48.281346 
L 101.698122 48.361481 
L 102.128111 48.468852 
L 102.14715 48.522764 
L 102.856122 48.631046 
L 102.856122 48.658212 
L 103.098943 48.767265 
L 103.146866 48.849465 
L 103.469603 48.959616 
L 103.518173 49.014931 
L 103.866478 49.126042 
L 103.950062 49.18184 
L 104.203529 49.265844 
L 104.310004 49.350217 
L 104.704213 49.434965 
L 104.713462 49.491672 
L 105.19766 49.57705 
L 105.19766 49.605594 
L 105.457593 49.691483 
L 105.545185 49.835492 
L 105.933163 49.922421 
L 105.933163 49.951485 
L 106.373145 50.038944 
L 106.382766 50.15618 
L 106.815874 50.244581 
L 106.906891 50.363088 
L 107.25851 50.452452 
L 107.25851 50.482333 
L 107.726645 50.572257 
L 107.726645 50.602326 
L 108.179313 50.692816 
L 108.247844 50.753382 
L 108.558965 50.844592 
L 108.558965 50.875092 
L 109.056576 50.966885 
L 109.153712 51.028326 
L 109.489356 51.120858 
L 109.489356 51.151802 
L 109.927931 51.244935 
L 110.029692 51.307276 
L 110.671773 51.401171 
L 110.735049 51.464024 
L 111.263305 51.558692 
L 111.339354 51.653832 
L 111.726939 51.749446 
L 111.726939 51.781424 
L 111.961965 51.87768 
L 112.062279 52.039189 
L 112.372039 52.136753 
L 112.372039 52.169385 
L 112.652867 52.267617 
L 112.742885 52.333386 
L 113.047606 52.432466 
L 113.125789 52.565374 
L 113.483944 52.665665 
L 113.500844 52.732819 
L 113.878227 52.833993 
L 113.903974 52.901741 
L 114.110218 53.003815 
L 114.131679 53.072168 
L 114.617405 53.175157 
L 114.721955 53.382813 
L 114.833528 53.487492 
L 114.922929 53.557598 
L 115.222739 53.66324 
L 115.222739 53.698584 
L 115.405272 53.805009 
L 115.511781 53.947837 
L 115.650554 54.055661 
L 115.650554 54.091738 
L 116.041844 54.200378 
L 116.041844 54.236729 
L 116.504321 54.346198 
L 116.592231 54.493138 
L 116.775607 54.604088 
L 116.775607 54.641214 
L 117.025344 54.715684 
L 117.025344 54.753028 
L 117.307092 54.827936 
L 117.348886 54.903137 
L 117.704839 54.978635 
L 117.812517 55.168694 
L 117.950667 55.24525 
L 117.983744 55.322112 
L 118.192748 55.399285 
L 118.230748 55.51563 
L 118.480045 55.593589 
L 118.557164 55.711125 
L 119.134558 55.789886 
L 119.188106 55.948386 
L 119.371051 56.028131 
L 119.431315 56.10821 
L 119.678256 56.188625 
L 119.72159 56.309885 
L 120.294188 56.391154 
L 120.373889 56.513708 
L 120.58782 56.595848 
L 120.690409 56.761195 
L 120.901659 56.844407 
L 120.901659 56.88615 
L 121.170564 56.969908 
L 121.270965 57.096237 
L 121.522404 57.180922 
L 121.592759 57.265984 
L 121.794302 57.351425 
L 121.839976 57.480306 
L 122.214662 57.566711 
L 122.294074 57.697055 
L 122.87878 57.784447 
L 122.87878 57.828293 
L 123.155461 57.916288 
L 123.155461 57.960437 
L 123.537891 58.049043 
L 123.598579 58.182725 
L 123.812596 58.272368 
L 123.82285 58.362433 
L 124.36109 58.452924 
L 124.36109 58.498331 
L 124.618233 58.589468 
L 124.618233 58.6352 
L 124.998434 58.726993 
L 125.060563 58.865513 
L 125.811072 58.95842 
L 125.904271 59.098631 
L 126.065347 59.192679 
L 126.172287 59.382174 
L 126.344622 59.477629 
L 126.428144 59.573563 
L 126.690081 59.66998 
L 126.756289 59.815523 
L 127.081559 59.91317 
L 127.168802 60.060581 
L 127.261579 60.15949 
L 127.339245 60.258913 
L 127.74857 60.358854 
L 127.846811 60.560317 
L 128.214691 60.661849 
L 128.278688 60.763923 
L 128.757679 60.866544 
L 128.757679 60.918062 
L 129.180486 61.021515 
L 129.180486 61.073452 
L 129.619544 61.17775 
L 129.619544 61.230114 
L 129.897586 61.335272 
L 129.942936 61.441012 
L 130.19815 61.547338 
L 130.19815 61.600724 
L 130.437726 61.707945 
L 130.493034 61.86991 
L 130.702617 61.978653 
L 130.723687 62.088018 
L 130.989166 62.198011 
L 131.020829 62.30864 
L 131.318675 62.364196 
L 131.318675 62.419913 
L 131.58739 62.475792 
L 131.690818 62.588044 
L 131.792824 62.644417 
L 131.792824 62.700957 
L 131.96933 62.757665 
L 132.059975 62.871586 
L 132.267293 62.928802 
L 132.293949 63.04375 
L 132.453383 63.101484 
L 132.467641 63.217477 
L 132.731342 63.275738 
L 132.825745 63.451594 
L 133.084396 63.510573 
L 133.18611 63.62908 
L 133.35175 63.688609 
L 133.364621 63.808227 
L 133.498899 63.868318 
L 133.608505 64.049729 
L 133.820966 64.110584 
L 133.820966 64.232877 
L 134.193372 64.294318 
L 134.286254 64.479832 
L 134.534877 64.542072 
L 134.607378 64.667163 
L 134.960829 64.730016 
L 135.02764 64.856345 
L 135.203958 64.919824 
L 135.203958 64.983513 
L 135.554627 65.047416 
L 135.574154 65.175865 
L 135.949356 65.240414 
L 136.015236 65.370169 
L 136.368391 65.435378 
L 136.456848 65.566466 
L 136.772646 65.632348 
L 136.860757 65.831366 
L 137.001522 65.898169 
L 137.024671 66.099985 
L 137.4127 66.167733 
L 137.4127 66.235722 
L 137.827742 66.303953 
L 137.827742 66.372428 
L 138.093758 66.441149 
L 138.110986 66.718528 
L 138.249709 66.788505 
L 138.348293 66.929232 
L 138.657849 66.999985 
L 138.732918 67.213829 
L 138.977972 67.285644 
L 138.977972 67.35773 
L 139.213743 67.430088 
L 139.213743 67.502721 
L 139.845675 67.575631 
L 139.871067 67.722289 
L 140.369217 67.796042 
L 140.407453 67.944405 
L 140.783451 68.01902 
L 140.783451 68.093928 
L 141.438567 68.169129 
L 141.438567 68.244628 
L 142.344788 68.320425 
L 142.452208 68.472926 
L 142.5723 68.549634 
L 142.63978 68.70398 
L 142.918077 68.781623 
L 142.918077 68.859581 
L 143.231575 68.937858 
L 143.231575 69.016457 
L 143.462301 69.09538 
L 143.556761 69.254209 
L 143.923589 69.334121 
L 143.923589 69.414367 
L 144.878614 69.494952 
L 144.974819 69.657146 
L 145.212564 69.738761 
L 145.255417 69.903043 
L 145.390043 69.985716 
L 145.465157 70.152142 
L 145.760542 70.2359 
L 145.760542 70.320027 
L 146.140253 70.404525 
L 146.197446 70.574649 
L 146.448213 70.660281 
L 146.553938 70.832703 
L 146.837724 70.919501 
L 146.909095 71.094285 
L 147.632326 71.18228 
L 147.632326 71.270681 
L 147.874856 71.359492 
L 147.934624 71.538361 
L 148.24057 71.628426 
L 148.340713 71.901192 
L 148.606358 71.992985 
L 148.690602 72.271035 
L 148.771761 72.364623 
L 148.771761 72.458672 
L 149.492139 72.553184 
L 149.544241 72.743621 
L 149.920586 72.839555 
L 149.938949 73.032878 
L 150.058569 73.130277 
L 150.07586 73.326574 
L 151.276013 73.425482 
L 151.278871 73.624846 
L 151.563061 73.725313 
L 151.573937 73.927841 
L 151.97447 74.029915 
L 151.97447 74.132536 
L 152.781907 74.23571 
L 152.781907 74.339444 
L 153.476581 74.443743 
L 153.556445 74.760093 
L 153.976233 74.866716 
L 153.976233 74.973937 
L 154.783869 75.081761 
L 154.783869 75.190196 
L 155.043212 75.299249 
L 155.043212 75.408928 
L 155.195581 75.519238 
L 155.202966 75.741784 
L 155.465455 75.741784 
L 155.465455 75.854036 
L 155.785999 75.854036 
L 155.785999 75.966949 
L 155.921281 75.966949 
L 155.944565 76.194794 
L 156.041196 76.194794 
L 156.041196 76.309742 
L 156.282286 76.309742 
L 156.314433 76.54173 
L 156.626738 76.54173 
L 156.626738 76.658788 
L 156.769573 76.658788 
L 156.769573 76.776565 
L 156.940124 76.776565 
L 156.940124 76.895072 
L 157.339743 76.895072 
L 157.339743 77.014317 
L 157.632347 77.014317 
L 157.632347 77.13431 
L 157.828246 77.13431 
L 157.828246 77.25506 
L 158.16942 77.25506 
L 158.16942 77.376576 
L 158.336079 77.376576 
L 158.367092 77.621948 
L 158.501322 77.621948 
L 158.501322 77.745824 
L 158.678715 77.745824 
L 158.678715 77.870507 
L 159.057724 77.870507 
L 159.057724 77.996008 
L 159.371176 77.996008 
L 159.371176 78.122337 
L 159.50561 78.122337 
L 159.50561 78.249506 
L 161.499268 78.249506 
L 161.499268 78.377525 
L 162.062228 78.377525 
L 162.064114 78.636161 
L 162.419866 78.636161 
L 162.419866 78.766801 
L 162.861594 78.766801 
L 162.861594 78.89834 
L 163.427159 78.89834 
L 163.427159 79.030789 
L 163.71229 79.030789 
L 163.793582 79.298468 
L 163.833538 79.298468 
L 163.833538 79.433725 
L 163.977556 79.433725 
L 163.977556 79.569945 
L 164.210556 79.569945 
L 164.210556 79.707141 
L 165.212144 79.707141 
L 165.212144 79.845328 
L 165.558577 79.845328 
L 165.558577 79.98452 
L 165.840664 79.98452 
L 165.840664 80.124731 
L 167.278104 80.124731 
L 167.326655 80.551636 
L 167.672932 80.551636 
L 167.672932 80.69608 
L 167.939034 80.69608 
L 167.939034 80.841623 
L 168.641882 80.841623 
L 168.641882 80.988281 
L 168.779751 80.988281 
L 168.787536 81.285013 
L 169.030063 81.285013 
L 169.04568 81.586417 
L 169.314209 81.586417 
L 169.314209 81.738918 
L 169.57905 81.738918 
L 169.57905 81.892644 
L 169.858942 81.892644 
L 169.858942 82.047615 
L 170.11855 82.047615 
L 170.11855 82.20385 
L 170.952449 82.20385 
L 170.952449 82.361372 
L 171.34571 82.361372 
L 171.34571 82.520201 
L 171.572814 82.520201 
L 171.639579 83.004753 
L 171.803252 83.004753 
L 171.803252 83.169036 
L 171.916785 83.169036 
L 171.916785 83.33474 
L 172.191251 83.33474 
L 172.191251 83.501892 
L 173.248866 83.501892 
L 173.248866 83.670517 
L 173.572375 83.670517 
L 173.603721 84.01229 
L 174.527854 84.01229 
L 174.527854 84.185493 
L 174.667453 84.185493 
L 174.667453 84.360277 
L 174.882967 84.360277 
L 174.882967 84.536673 
L 175.035673 84.536673 
L 175.035673 84.714709 
L 175.524023 84.714709 
L 175.554454 85.075829 
L 175.706049 85.075829 
L 175.706049 85.258977 
L 177.110408 85.258977 
L 177.110408 85.443894 
L 177.971227 85.443894 
L 177.971227 85.630615 
L 178.574449 85.630615 
L 178.574449 85.819176 
L 179.684829 85.819176 
L 179.684829 86.009613 
L 180.631495 86.009613 
L 180.631495 86.201965 
L 181.964714 86.201965 
L 182.024394 86.592566 
L 182.085822 86.592566 
L 182.085822 86.790897 
L 182.474098 86.790897 
L 182.474098 86.991305 
L 182.741504 86.991305 
L 182.741504 87.193833 
L 183.544143 87.193833 
L 183.544143 87.398528 
L 184.103214 87.398528 
L 184.103214 87.605436 
L 184.482368 87.605436 
L 184.482368 87.814605 
L 184.76301 87.814605 
L 184.76301 88.026085 
L 185.482573 88.026085 
L 185.482573 88.239929 
L 186.929152 88.239929 
L 186.929152 88.456188 
L 187.087231 88.456188 
L 187.087231 88.67492 
L 187.593725 88.67492 
L 187.593725 88.89618 
L 188.163337 88.89618 
L 188.163337 89.120028 
L 188.676707 89.120028 
L 188.676707 89.346525 
L 189.306616 89.346525 
L 189.306616 89.575734 
L 191.253906 89.575734 
L 191.253906 89.807723 
L 191.93162 89.807723 
L 191.93162 90.042557 
L 193.708406 90.042557 
L 193.708406 90.280309 
L 194.057714 90.280309 
L 194.057714 90.521052 
L 194.678314 90.521052 
L 194.678314 90.764861 
L 194.890655 90.764861 
L 194.890655 91.011816 
L 195.305553 91.011816 
L 195.305553 91.262 
L 195.597421 91.262 
L 195.597421 91.515498 
L 195.835948 91.515498 
L 195.835948 91.772398 
L 196.446776 91.772398 
L 196.446776 92.032794 
L 196.757414 92.032794 
L 196.757414 92.296781 
L 197.351989 92.296781 
L 197.351989 92.564461 
L 197.913569 92.564461 
L 197.913569 92.835937 
L 198.635752 92.835937 
L 198.72436 93.390723 
L 199.067421 93.390723 
L 199.067421 93.674266 
L 201.272927 93.674266 
L 201.272927 93.962073 
L 201.888098 93.962073 
L 201.888098 94.254273 
L 202.779029 94.254273 
L 202.779029 94.551005 
L 203.02048 94.551005 
L 203.02048 94.852409 
L 205.494235 94.852409 
L 205.494235 95.158636 
L 212.845981 95.158636 
L 212.845981 95.469843 
L 213.652035 95.469843 
L 213.652035 95.786193 
L 215.024017 95.786193 
L 215.024017 96.107861 
L 216.223932 96.107861 
L 216.223932 96.435028 
L 217.142131 96.435028 
L 217.142131 96.767884 
L 217.618254 96.767884 
L 217.618254 97.106633 
L 218.491234 97.106633 
L 218.491234 97.451485 
L 220.698581 97.451485 
L 220.7392 98.16041 
L 221.259254 98.16041 
L 221.337862 99.275606 
L 222.242475 99.275606 
L 222.327284 100.459825 
L 222.77303 100.459825 
L 222.77303 100.871428 
L 225.832032 100.871428 
L 225.832032 101.292077 
L 226.882539 101.292077 
L 226.882539 101.72218 
L 227.113524 101.72218 
L 227.113524 102.162172 
L 228.995109 102.162172 
L 228.995109 102.612517 
L 229.906237 102.612517 
L 229.906237 103.073715 
L 231.674175 103.073715 
L 231.674175 103.546301 
L 231.813919 103.546301 
L 231.813919 104.030853 
L 232.675452 104.030853 
L 232.675452 104.527992 
L 233.196814 104.527992 
L 233.196814 105.03839 
L 233.92259 105.03839 
L 233.92259 105.562773 
L 234.159374 105.562773 
L 234.159374 106.101929 
L 234.303971 106.101929 
L 234.303971 106.656715 
L 236.016025 106.656715 
L 236.016025 107.228065 
L 241.489865 107.228065 
L 241.489865 107.816997 
L 242.247844 107.816997 
L 242.247844 108.424628 
L 243.530021 108.424628 
L 243.530021 109.052185 
L 245.643872 109.052185 
L 245.643872 109.70102 
L 246.0509 109.70102 
L 246.0509 110.372625 
L 248.516653 110.372625 
L 248.516653 111.068657 
L 249.748204 111.068657 
L 249.748204 111.790961 
L 252.328469 111.790961 
L 252.328469 112.541598 
L 253.366726 112.541598 
L 253.416785 114.13742 
L 265.04702 114.13742 
L 265.04702 114.988173 
L 265.488965 114.988173 
L 265.488965 115.878509 
L 267.459921 115.878509 
L 267.459921 116.812293 
L 278.486775 116.812293 
L 278.486775 117.793984 
L 281.171731 117.793984 
L 281.171731 118.828765 
L 284.899154 118.828765 
L 284.899154 119.922707 
L 288.363684 119.922707 
L 288.363684 121.082989 
L 288.614291 121.082989 
L 288.614291 122.318177 
L 288.87203 122.318177 
L 288.87203 123.638617 
L 293.094902 123.638617 
L 293.094902 125.056953 
L 305.712205 125.056953 
L 305.712205 126.588873 
L 318.063157 126.588873 
L 318.063157 128.254165 
L 322.926652 128.254165 
L 322.926652 130.078285 
L 324.548544 130.078285 
L 324.548544 132.094757 
L 356.812656 132.094757 
L 356.812656 134.348981 
L 359.327427 134.348981 
L 359.327427 136.904609 
L 366.978604 136.904609 
L 366.978604 139.854865 
L 372.221019 139.854865 
L 372.221019 143.344277 
L 380.876518 143.344277 
L 380.876518 147.614973 
L 391.187327 147.614973 
L 391.187327 153.120857 
L 419.079157 153.120857 
L 419.079157 160.880965 
L 444.855926 160.880965 
L 444.855926 174.146957 
L 491.091658 174.146957 
L 491.091658 505 
L 491.091658 505 
" clip-path="url(#pb96c2dc9fb)" style="fill: none; stroke: #4d3c2f; stroke-width: 2.25; stroke-linecap: round"/>
   </g>
   <g id="line2d_15">
    <path d="M -1 31.914366 
L 1.14104 32.022739 
L 12.276281 32.736673 
L 23.411522 33.624928 
L 34.546764 34.711798 
L 45.682005 36.021357 
L 56.817246 37.577028 
L 67.952488 39.401237 
L 79.087729 41.515157 
L 90.22297 43.938542 
L 101.358212 46.689639 
L 112.493453 49.785168 
L 123.628694 53.240342 
L 134.763935 57.068933 
L 145.899177 61.28336 
L 157.034418 65.894783 
L 168.169659 70.913212 
L 179.304901 76.347612 
L 190.440142 82.206009 
L 201.575383 88.495584 
L 212.710625 95.222766 
L 223.845866 102.39331 
L 234.981107 110.012381 
L 246.116349 118.084611 
L 257.25159 126.614165 
L 268.386831 135.604792 
L 279.522073 145.059873 
L 290.657314 154.982462 
L 301.792555 165.375322 
L 312.927797 176.240957 
L 324.063038 187.581643 
L 335.198279 199.39945 
L 346.333521 211.696265 
L 357.468762 224.47381 
L 368.604003 237.733663 
L 379.739245 251.477268 
L 390.874486 265.705953 
L 402.009727 280.420937 
L 413.144968 295.623344 
L 424.28021 311.314213 
L 435.415451 327.494503 
L 446.550692 344.1651 
L 457.685934 361.326828 
L 468.821175 378.980451 
L 479.956416 397.126681 
L 491.091658 415.766178 
" clip-path="url(#pb96c2dc9fb)" style="fill: none; stroke: #3a578a; stroke-width: 2; stroke-linecap: round"/>
   </g>
   <g id="patch_3">
    <path d="M 87.247409 435.06 
L 87.247409 29.889734 
" style="fill: none; stroke: #ffffff; stroke-width: 1.875; stroke-linejoin: miter; stroke-linecap: square"/>
   </g>
   <g id="patch_4">
    <path d="M 491.091658 435.06 
L 491.091658 29.889734 
" style="fill: none; stroke: #ffffff; stroke-width: 1.875; stroke-linejoin: miter; stroke-linecap: square"/>
   </g>
   <g id="patch_5">
    <path d="M 87.247409 435.06 
L 491.091658 435.06 
" style="fill: none; stroke: #ffffff; stroke-width: 1.875; stroke-linejoin: miter; stroke-linecap: square"/>
   </g>
   <g id="patch_6">
    <path d="M 87.247409 29.889734 
L 491.091658 29.889734 
" style="fill: none; stroke: #ffffff; stroke-width: 1.875; stroke-linejoin: miter; stroke-linecap: square"/>
   </g>
   <g id="legend_1">
    <g id="patch_7">
     <path d="M 330.464158 89.769266 
L 479.541658 89.769266 
Q 482.841658 89.769266 482.841658 86.469266 
L 482.841658 41.439734 
Q 482.841658 38.139734 479.541658 38.139734 
L 330.464158 38.139734 
Q 327.164158 38.139734 327.164158 41.439734 
L 327.164158 86.469266 
Q 327.164158 89.769266 330.464158 89.769266 
z
" style="fill: #e5e5e5; opacity: 0.8; stroke: #cccccc; stroke-width: 1.5; stroke-linejoin: miter"/>
    </g>
    <g id="line2d_16">
     <path d="M 333.764158 50.775125 
L 350.264158 50.775125 
L 350.264158 50.775125 
L 366.764158 50.775125 
L 366.764158 50.775125 
" style="fill: none; stroke: #4d3c2f; stroke-width: 2.25; stroke-linecap: round"/>
    </g>
    <g id="text_16">
     <!-- Empirical -->
     <g style="fill: #262626" transform="translate(379.964158 56.550125)scale(0.165 -0.165)">
      <defs>
       <path id="ArialMT-45" d="M 506 0 
L 506 4581 
L 3819 4581 
L 3819 4041 
L 1113 4041 
L 1113 2638 
L 3647 2638 
L 3647 2100 
L 1113 2100 
L 1113 541 
L 3925 541 
L 3925 0 
L 506 0 
z
" transform="scale(0.015625)"/>
       <path id="ArialMT-6d" d="M 422 0 
L 422 3319 
L 925 3319 
L 925 2853 
Q 1081 3097 1340 3245 
Q 1600 3394 1931 3394 
Q 2300 3394 2536 3241 
Q 2772 3088 2869 2813 
Q 3263 3394 3894 3394 
Q 4388 3394 4653 3120 
Q 4919 2847 4919 2278 
L 4919 0 
L 4359 0 
L 4359 2091 
Q 4359 2428 4304 2576 
Q 4250 2725 4106 2815 
Q 3963 2906 3769 2906 
Q 3419 2906 3187 2673 
Q 2956 2441 2956 1928 
L 2956 0 
L 2394 0 
L 2394 2156 
Q 2394 2531 2256 2718 
Q 2119 2906 1806 2906 
Q 1569 2906 1367 2781 
Q 1166 2656 1075 2415 
Q 984 2175 984 1722 
L 984 0 
L 422 0 
z
" transform="scale(0.015625)"/>
       <path id="ArialMT-63" d="M 2588 1216 
L 3141 1144 
Q 3050 572 2676 248 
Q 2303 -75 1759 -75 
Q 1078 -75 664 370 
Q 250 816 250 1647 
Q 250 2184 428 2587 
Q 606 2991 970 3192 
Q 1334 3394 1763 3394 
Q 2303 3394 2647 3120 
Q 2991 2847 3088 2344 
L 2541 2259 
Q 2463 2594 2264 2762 
Q 2066 2931 1784 2931 
Q 1359 2931 1093 2626 
Q 828 2322 828 1663 
Q 828 994 1084 691 
Q 1341 388 1753 388 
Q 2084 388 2306 591 
Q 2528 794 2588 1216 
z
" transform="scale(0.015625)"/>
      </defs>
      <use xlink:href="#ArialMT-45"/>
      <use xlink:href="#ArialMT-6d" x="66.699219"/>
      <use xlink:href="#ArialMT-70" x="150"/>
      <use xlink:href="#ArialMT-69" x="205.615234"/>
      <use xlink:href="#ArialMT-72" x="227.832031"/>
      <use xlink:href="#ArialMT-69" x="261.132812"/>
      <use xlink:href="#ArialMT-63" x="283.349609"/>
      <use xlink:href="#ArialMT-61" x="333.349609"/>
      <use xlink:href="#ArialMT-6c" x="388.964844"/>
     </g>
    </g>
    <g id="line2d_17">
     <path d="M 333.764158 74.114891 
L 350.264158 74.114891 
L 366.764158 74.114891 
" style="fill: none; stroke: #3a578a; stroke-width: 2; stroke-linecap: round"/>
    </g>
    <g id="text_17">
     <!-- Fitted normal -->
     <g style="fill: #262626" transform="translate(379.964158 79.889891)scale(0.165 -0.165)">
      <defs>
       <path id="ArialMT-46" d="M 525 0 
L 525 4581 
L 3616 4581 
L 3616 4041 
L 1131 4041 
L 1131 2622 
L 3281 2622 
L 3281 2081 
L 1131 2081 
L 1131 0 
L 525 0 
z
" transform="scale(0.015625)"/>
       <path id="ArialMT-64" d="M 2575 0 
L 2575 419 
Q 2259 -75 1647 -75 
Q 1250 -75 917 144 
Q 584 363 401 755 
Q 219 1147 219 1656 
Q 219 2153 384 2558 
Q 550 2963 881 3178 
Q 1213 3394 1622 3394 
Q 1922 3394 2156 3267 
Q 2391 3141 2538 2938 
L 2538 4581 
L 3097 4581 
L 3097 0 
L 2575 0 
z
M 797 1656 
Q 797 1019 1065 703 
Q 1334 388 1700 388 
Q 2069 388 2326 689 
Q 2584 991 2584 1609 
Q 2584 2291 2321 2609 
Q 2059 2928 1675 2928 
Q 1300 2928 1048 2622 
Q 797 2316 797 1656 
z
" transform="scale(0.015625)"/>
       <path id="ArialMT-20" transform="scale(0.015625)"/>
      </defs>
      <use xlink:href="#ArialMT-46"/>
      <use xlink:href="#ArialMT-69" x="61.083984"/>
      <use xlink:href="#ArialMT-74" x="83.300781"/>
      <use xlink:href="#ArialMT-74" x="111.083984"/>
      <use xlink:href="#ArialMT-65" x="138.867188"/>
      <use xlink:href="#ArialMT-64" x="194.482422"/>
      <use xlink:href="#ArialMT-20" x="250.097656"/>
      <use xlink:href="#ArialMT-6e" x="277.880859"/>
      <use xlink:href="#ArialMT-6f" x="333.496094"/>
      <use xlink:href="#ArialMT-72" x="389.111328"/>
      <use xlink:href="#ArialMT-6d" x="422.412109"/>
      <use xlink:href="#ArialMT-61" x="505.712891"/>
      <use xlink:href="#ArialMT-6c" x="561.328125"/>
     </g>
    </g>
   </g>
  </g>
  <g id="axes_2">
   <g id="patch_8">
    <path d="M 584.715751 435.06 
L 988.56 435.06 
L 988.56 29.889734 
L 584.715751 29.889734 
z
" style="fill: #e5e5e5"/>
   </g>
   <g id="matplotlib.axis_3">
    <g id="xtick_9">
     <g id="line2d_18">
      <path d="M 584.715751 435.06 
L 584.715751 29.889734 
" clip-path="url(#p8b90c87d0f)" style="fill: none; stroke: #ffffff; stroke-width: 1.5; stroke-linecap: round"/>
     </g>
     <g id="text_18">
      <!-- 0.00 -->
      <g style="fill: #555555" transform="translate(568.660477 459.370391)scale(0.165 -0.165)">
       <use xlink:href="#ArialMT-30"/>
       <use xlink:href="#ArialMT-2e" x="55.615234"/>
       <use xlink:href="#ArialMT-30" x="83.398438"/>
       <use xlink:href="#ArialMT-30" x="139.013672"/>
      </g>
     </g>
    </g>
    <g id="xtick_10">
     <g id="line2d_19">
      <path d="M 674.88369 435.06 
L 674.88369 29.889734 
" clip-path="url(#p8b90c87d0f)" style="fill: none; stroke: #ffffff; stroke-width: 1.5; stroke-linecap: round"/>
     </g>
     <g id="text_19">
      <!-- 0.05 -->
      <g style="fill: #555555" transform="translate(658.828416 459.370391)scale(0.165 -0.165)">
       <defs>
        <path id="ArialMT-35" d="M 266 1200 
L 856 1250 
Q 922 819 1161 601 
Q 1400 384 1738 384 
Q 2144 384 2425 690 
Q 2706 997 2706 1503 
Q 2706 1984 2436 2262 
Q 2166 2541 1728 2541 
Q 1456 2541 1237 2417 
Q 1019 2294 894 2097 
L 366 2166 
L 809 4519 
L 3088 4519 
L 3088 3981 
L 1259 3981 
L 1013 2750 
Q 1425 3038 1878 3038 
Q 2478 3038 2890 2622 
Q 3303 2206 3303 1553 
Q 3303 931 2941 478 
Q 2500 -78 1738 -78 
Q 1113 -78 717 272 
Q 322 622 266 1200 
z
" transform="scale(0.015625)"/>
       </defs>
       <use xlink:href="#ArialMT-30"/>
       <use xlink:href="#ArialMT-2e" x="55.615234"/>
       <use xlink:href="#ArialMT-30" x="83.398438"/>
       <use xlink:href="#ArialMT-35" x="139.013672"/>
      </g>
     </g>
    </g>
    <g id="xtick_11">
     <g id="line2d_20">
      <path d="M 765.051629 435.06 
L 765.051629 29.889734 
" clip-path="url(#p8b90c87d0f)" style="fill: none; stroke: #ffffff; stroke-width: 1.5; stroke-linecap: round"/>
     </g>
     <g id="text_20">
      <!-- 0.10 -->
      <g style="fill: #555555" transform="translate(748.996355 459.370391)scale(0.165 -0.165)">
       <use xlink:href="#ArialMT-30"/>
       <use xlink:href="#ArialMT-2e" x="55.615234"/>
       <use xlink:href="#ArialMT-31" x="83.398438"/>
       <use xlink:href="#ArialMT-30" x="139.013672"/>
      </g>
     </g>
    </g>
    <g id="xtick_12">
     <g id="line2d_21">
      <path d="M 855.219568 435.06 
L 855.219568 29.889734 
" clip-path="url(#p8b90c87d0f)" style="fill: none; stroke: #ffffff; stroke-width: 1.5; stroke-linecap: round"/>
     </g>
     <g id="text_21">
      <!-- 0.15 -->
      <g style="fill: #555555" transform="translate(839.164294 459.370391)scale(0.165 -0.165)">
       <use xlink:href="#ArialMT-30"/>
       <use xlink:href="#ArialMT-2e" x="55.615234"/>
       <use xlink:href="#ArialMT-31" x="83.398438"/>
       <use xlink:href="#ArialMT-35" x="139.013672"/>
      </g>
     </g>
    </g>
    <g id="xtick_13">
     <g id="line2d_22">
      <path d="M 945.387506 435.06 
L 945.387506 29.889734 
" clip-path="url(#p8b90c87d0f)" style="fill: none; stroke: #ffffff; stroke-width: 1.5; stroke-linecap: round"/>
     </g>
     <g id="text_22">
      <!-- 0.20 -->
      <g style="fill: #555555" transform="translate(929.332233 459.370391)scale(0.165 -0.165)">
       <use xlink:href="#ArialMT-30"/>
       <use xlink:href="#ArialMT-2e" x="55.615234"/>
       <use xlink:href="#ArialMT-32" x="83.398438"/>
       <use xlink:href="#ArialMT-30" x="139.013672"/>
      </g>
     </g>
    </g>
    <g id="text_23">
     <!-- CrudeOil -->
     <g style="fill: #555555" transform="translate(751.12725 479.533828)scale(0.18 -0.18)">
      <defs>
       <path id="ArialMT-43" d="M 3763 1606 
L 4369 1453 
Q 4178 706 3683 314 
Q 3188 -78 2472 -78 
Q 1731 -78 1267 223 
Q 803 525 561 1097 
Q 319 1669 319 2325 
Q 319 3041 592 3573 
Q 866 4106 1370 4382 
Q 1875 4659 2481 4659 
Q 3169 4659 3637 4309 
Q 4106 3959 4291 3325 
L 3694 3184 
Q 3534 3684 3231 3912 
Q 2928 4141 2469 4141 
Q 1941 4141 1586 3887 
Q 1231 3634 1087 3207 
Q 944 2781 944 2328 
Q 944 1744 1114 1308 
Q 1284 872 1643 656 
Q 2003 441 2422 441 
Q 2931 441 3284 734 
Q 3638 1028 3763 1606 
z
" transform="scale(0.015625)"/>
       <path id="ArialMT-75" d="M 2597 0 
L 2597 488 
Q 2209 -75 1544 -75 
Q 1250 -75 995 37 
Q 741 150 617 320 
Q 494 491 444 738 
Q 409 903 409 1263 
L 409 3319 
L 972 3319 
L 972 1478 
Q 972 1038 1006 884 
Q 1059 663 1231 536 
Q 1403 409 1656 409 
Q 1909 409 2131 539 
Q 2353 669 2445 892 
Q 2538 1116 2538 1541 
L 2538 3319 
L 3100 3319 
L 3100 0 
L 2597 0 
z
" transform="scale(0.015625)"/>
      </defs>
      <use xlink:href="#ArialMT-43"/>
      <use xlink:href="#ArialMT-72" x="72.216797"/>
      <use xlink:href="#ArialMT-75" x="105.517578"/>
      <use xlink:href="#ArialMT-64" x="161.132812"/>
      <use xlink:href="#ArialMT-65" x="216.748047"/>
      <use xlink:href="#ArialMT-4f" x="272.363281"/>
      <use xlink:href="#ArialMT-69" x="350.146484"/>
      <use xlink:href="#ArialMT-6c" x="372.363281"/>
     </g>
    </g>
   </g>
   <g id="matplotlib.axis_4">
    <g id="ytick_6">
     <g id="line2d_23">
      <path d="M 584.715751 380.89858 
L 988.56 380.89858 
" clip-path="url(#p8b90c87d0f)" style="fill: none; stroke: #ffffff; stroke-width: 1.5; stroke-linecap: round"/>
     </g>
     <g id="text_24">
      <!-- $\mathdefault{10^{-10}}$ -->
      <g style="fill: #555555" transform="translate(533.110751 389.406392)scale(0.165 -0.165)">
       <use xlink:href="#ArialMT-31" transform="translate(0 0.99375)"/>
       <use xlink:href="#ArialMT-30" transform="translate(55.615234 0.99375)"/>
       <use xlink:href="#ArialMT-2212" transform="translate(112.972813 70.6875)scale(0.7)"/>
       <use xlink:href="#ArialMT-31" transform="translate(153.851719 70.6875)scale(0.7)"/>
       <use xlink:href="#ArialMT-30" transform="translate(192.782383 70.6875)scale(0.7)"/>
      </g>
     </g>
    </g>
    <g id="ytick_7">
     <g id="line2d_24">
      <path d="M 584.715751 310.696811 
L 988.56 310.696811 
" clip-path="url(#p8b90c87d0f)" style="fill: none; stroke: #ffffff; stroke-width: 1.5; stroke-linecap: round"/>
     </g>
     <g id="text_25">
      <!-- $\mathdefault{10^{-8}}$ -->
      <g style="fill: #555555" transform="translate(539.545751 319.204623)scale(0.165 -0.165)">
       <use xlink:href="#ArialMT-31" transform="translate(0 0.99375)"/>
       <use xlink:href="#ArialMT-30" transform="translate(55.615234 0.99375)"/>
       <use xlink:href="#ArialMT-2212" transform="translate(112.972813 70.6875)scale(0.7)"/>
       <use xlink:href="#ArialMT-38" transform="translate(153.851719 70.6875)scale(0.7)"/>
      </g>
     </g>
    </g>
    <g id="ytick_8">
     <g id="line2d_25">
      <path d="M 584.715751 240.495042 
L 988.56 240.495042 
" clip-path="url(#p8b90c87d0f)" style="fill: none; stroke: #ffffff; stroke-width: 1.5; stroke-linecap: round"/>
     </g>
     <g id="text_26">
      <!-- $\mathdefault{10^{-6}}$ -->
      <g style="fill: #555555" transform="translate(539.545751 249.002854)scale(0.165 -0.165)">
       <use xlink:href="#ArialMT-31" transform="translate(0 0.99375)"/>
       <use xlink:href="#ArialMT-30" transform="translate(55.615234 0.99375)"/>
       <use xlink:href="#ArialMT-2212" transform="translate(112.972813 70.6875)scale(0.7)"/>
       <use xlink:href="#ArialMT-36" transform="translate(153.851719 70.6875)scale(0.7)"/>
      </g>
     </g>
    </g>
    <g id="ytick_9">
     <g id="line2d_26">
      <path d="M 584.715751 170.293273 
L 988.56 170.293273 
" clip-path="url(#p8b90c87d0f)" style="fill: none; stroke: #ffffff; stroke-width: 1.5; stroke-linecap: round"/>
     </g>
     <g id="text_27">
      <!-- $\mathdefault{10^{-4}}$ -->
      <g style="fill: #555555" transform="translate(539.545751 178.718585)scale(0.165 -0.165)">
       <use xlink:href="#ArialMT-31" transform="translate(0 0.201563)"/>
       <use xlink:href="#ArialMT-30" transform="translate(55.615234 0.201563)"/>
       <use xlink:href="#ArialMT-2212" transform="translate(112.972813 69.895313)scale(0.7)"/>
       <use xlink:href="#ArialMT-34" transform="translate(153.851719 69.895313)scale(0.7)"/>
      </g>
     </g>
    </g>
    <g id="ytick_10">
     <g id="line2d_27">
      <path d="M 584.715751 100.091503 
L 988.56 100.091503 
" clip-path="url(#p8b90c87d0f)" style="fill: none; stroke: #ffffff; stroke-width: 1.5; stroke-linecap: round"/>
     </g>
     <g id="text_28">
      <!-- $\mathdefault{10^{-2}}$ -->
      <g style="fill: #555555" transform="translate(539.545751 108.599316)scale(0.165 -0.165)">
       <use xlink:href="#ArialMT-31" transform="translate(0 0.99375)"/>
       <use xlink:href="#ArialMT-30" transform="translate(55.615234 0.99375)"/>
       <use xlink:href="#ArialMT-2212" transform="translate(112.972813 70.6875)scale(0.7)"/>
       <use xlink:href="#ArialMT-32" transform="translate(153.851719 70.6875)scale(0.7)"/>
      </g>
     </g>
    </g>
    <g id="ytick_11">
     <g id="line2d_28">
      <path d="M 584.715751 29.889734 
L 988.56 29.889734 
" clip-path="url(#p8b90c87d0f)" style="fill: none; stroke: #ffffff; stroke-width: 1.5; stroke-linecap: round"/>
     </g>
     <g id="text_29">
      <!-- $\mathdefault{10^{0}}$ -->
      <g style="fill: #555555" transform="translate(546.310751 38.397547)scale(0.165 -0.165)">
       <use xlink:href="#ArialMT-31" transform="translate(0 0.99375)"/>
       <use xlink:href="#ArialMT-30" transform="translate(55.615234 0.99375)"/>
       <use xlink:href="#ArialMT-30" transform="translate(112.972813 70.6875)scale(0.7)"/>
      </g>
     </g>
    </g>
    <g id="text_30">
     <!-- Proportion -->
     <g style="fill: #555555" transform="translate(525.533251 273.995805)rotate(-90)scale(0.18 -0.18)">
      <use xlink:href="#ArialMT-50"/>
      <use xlink:href="#ArialMT-72" x="66.699219"/>
      <use xlink:href="#ArialMT-6f" x="100"/>
      <use xlink:href="#ArialMT-70" x="155.615234"/>
      <use xlink:href="#ArialMT-6f" x="211.230469"/>
      <use xlink:href="#ArialMT-72" x="266.845703"/>
      <use xlink:href="#ArialMT-74" x="300.146484"/>
      <use xlink:href="#ArialMT-69" x="327.929688"/>
      <use xlink:href="#ArialMT-6f" x="350.146484"/>
      <use xlink:href="#ArialMT-6e" x="405.761719"/>
     </g>
    </g>
   </g>
   <g id="line2d_29">
    <path d="M 584.545727 39.905822 
L 585.21899 40.015888 
L 585.298419 40.079142 
L 585.550639 40.174518 
L 585.639997 40.254455 
L 585.993143 40.350937 
L 586.048906 40.383234 
L 586.21418 40.480538 
L 586.299729 40.529423 
L 586.48945 40.627667 
L 586.53347 40.677027 
L 586.933632 40.77623 
L 587.027346 40.859395 
L 587.101541 40.959796 
L 587.195569 41.027099 
L 587.584897 41.128614 
L 587.584897 41.145599 
L 587.985273 41.247909 
L 587.985273 41.265028 
L 588.410739 41.368145 
L 588.410739 41.385399 
L 588.785287 41.489337 
L 588.892007 41.541573 
L 589.360911 41.646584 
L 589.434529 41.699363 
L 589.777104 41.805471 
L 589.84622 41.858803 
L 590.23423 41.96603 
L 590.335446 42.037937 
L 590.660428 42.146436 
L 590.687802 42.182775 
L 591.059147 42.292314 
L 591.101481 42.329003 
L 591.47775 42.439601 
L 591.494793 42.476647 
L 591.740693 42.569656 
L 591.825395 42.644474 
L 592.073714 42.738515 
L 592.141158 42.776295 
L 592.356342 42.871156 
L 592.460153 43.024172 
L 592.781203 43.120594 
L 592.860787 43.17874 
L 593.09335 43.276147 
L 593.202161 43.334891 
L 593.536932 43.433304 
L 593.630945 43.512495 
L 593.880303 43.612065 
L 593.985553 43.652076 
L 594.215468 43.752565 
L 594.316619 43.792946 
L 594.564429 43.894371 
L 594.59212 43.976 
L 594.790901 44.078655 
L 594.873638 44.161279 
L 595.044048 44.265193 
L 595.089847 44.327883 
L 595.474547 44.432943 
L 595.558978 44.538732 
L 595.813378 44.64526 
L 595.92155 44.752538 
L 596.245547 44.860576 
L 596.346733 44.947561 
L 596.590336 45.056995 
L 596.630718 45.167221 
L 596.863933 45.278249 
L 596.863933 45.300552 
L 597.189906 45.390092 
L 597.242026 45.43506 
L 597.675771 45.525396 
L 597.769564 45.593501 
L 598.040377 45.684783 
L 598.149844 45.73063 
L 598.588817 45.82274 
L 598.654417 45.869004 
L 598.922671 45.961956 
L 599.016847 46.078949 
L 599.299557 46.173195 
L 599.407671 46.291827 
L 599.545446 46.387401 
L 599.564255 46.459478 
L 599.815323 46.556113 
L 599.919479 46.628993 
L 600.329344 46.726712 
L 600.395894 46.800415 
L 600.634004 46.899242 
L 600.693387 46.948898 
L 601.130618 47.048696 
L 601.226976 47.149152 
L 601.41847 47.250274 
L 601.523566 47.352071 
L 601.815443 47.454553 
L 601.907782 47.583632 
L 602.117847 47.687688 
L 602.218366 47.818765 
L 602.972292 47.924443 
L 603.07382 48.004186 
L 603.245288 48.111163 
L 603.31419 48.218896 
L 603.499568 48.327395 
L 603.548135 48.40928 
L 603.839565 48.519148 
L 603.870632 48.602071 
L 604.100762 48.685449 
L 604.147937 48.769285 
L 604.488174 48.853584 
L 604.575392 48.995128 
L 604.707839 49.080689 
L 604.818602 49.166733 
L 605.084683 49.253266 
L 605.195332 49.369412 
L 605.465286 49.457106 
L 605.503979 49.545308 
L 605.813452 49.634022 
L 605.820096 49.693454 
L 605.978652 49.783038 
L 605.978652 49.813016 
L 606.334 49.903307 
L 606.358198 49.9638 
L 606.681416 50.054991 
L 606.681416 50.08551 
L 607.160392 50.177435 
L 607.160392 50.2082 
L 607.418128 50.30087 
L 607.521019 50.425312 
L 607.641847 50.519315 
L 607.741434 50.645561 
L 608.07943 50.740937 
L 608.131419 50.836913 
L 608.326257 50.933497 
L 608.326257 50.965828 
L 608.63414 51.063234 
L 608.738012 51.161268 
L 609.029278 51.259936 
L 609.048709 51.359246 
L 609.429065 51.459208 
L 609.510258 51.593518 
L 609.683247 51.695033 
L 609.792205 51.763087 
L 610.113667 51.865742 
L 610.113667 51.900114 
L 610.605938 52.003699 
L 610.692879 52.107992 
L 610.974304 52.213003 
L 611.079031 52.389646 
L 611.234388 52.496623 
L 611.325149 52.56836 
L 611.679966 52.676603 
L 611.718419 52.749194 
L 612.031085 52.858733 
L 612.049753 52.932199 
L 612.488146 53.043066 
L 612.584675 53.192154 
L 612.834749 53.267248 
L 612.943313 53.342714 
L 613.407802 53.418556 
L 613.413445 53.494777 
L 613.90889 53.57138 
L 614.017334 53.687013 
L 614.189774 53.764591 
L 614.296992 53.881704 
L 614.471485 53.960282 
L 614.575968 54.078914 
L 614.805134 54.158518 
L 614.897228 54.278709 
L 615.025015 54.359366 
L 615.099749 54.645074 
L 615.342331 54.727698 
L 615.449744 54.85248 
L 615.834639 54.936239 
L 615.943523 55.062747 
L 616.389167 55.147673 
L 616.389167 55.190314 
L 616.715352 55.275955 
L 616.715352 55.318957 
L 617.273932 55.405326 
L 617.374575 55.492187 
L 617.413528 55.579546 
L 617.443242 55.667409 
L 617.560292 55.755781 
L 617.634228 55.889307 
L 617.934915 55.978978 
L 617.967906 56.114483 
L 618.419451 56.205493 
L 618.514629 56.297049 
L 618.902211 56.389159 
L 618.902211 56.435423 
L 619.149159 56.528376 
L 619.175884 56.621898 
L 619.452467 56.715998 
L 619.452467 56.763266 
L 619.682087 56.858246 
L 619.788011 57.001833 
L 619.999322 57.098316 
L 620.070441 57.244193 
L 620.412265 57.342227 
L 620.412265 57.391481 
L 620.816529 57.490469 
L 620.91003 57.640167 
L 621.153739 57.740789 
L 621.153739 57.791349 
L 621.51101 57.892977 
L 621.51101 57.944046 
L 621.918208 58.046701 
L 622.009581 58.150051 
L 622.0924 58.254107 
L 622.103796 58.358878 
L 622.405192 58.464374 
L 622.405192 58.517397 
L 623.138128 58.624 
L 623.177467 58.731353 
L 623.478821 58.839468 
L 623.478821 58.893814 
L 623.839441 59.003092 
L 623.839441 59.058025 
L 624.074124 59.168491 
L 624.111426 59.335704 
L 624.330106 59.391852 
L 624.336969 59.504772 
L 624.457947 59.561547 
L 624.519853 59.675736 
L 624.760474 59.733152 
L 624.760474 59.790786 
L 625.010366 59.848639 
L 625.113896 60.141241 
L 625.550174 60.200442 
L 625.640092 60.379435 
L 626.053799 60.43957 
L 626.119033 60.62141 
L 626.354185 60.682509 
L 626.419372 60.929383 
L 626.556811 60.991731 
L 626.556811 61.054335 
L 626.905551 61.117198 
L 626.987748 61.243706 
L 627.406533 61.307356 
L 627.506063 61.435458 
L 627.5667 61.499916 
L 627.673836 61.629654 
L 627.938298 61.694939 
L 627.990621 61.826355 
L 628.071171 61.89249 
L 628.172282 62.025627 
L 628.331834 62.092634 
L 628.398814 62.227539 
L 628.857164 62.295442 
L 628.857164 62.363648 
L 629.520133 62.432161 
L 629.520133 62.500983 
L 629.950884 62.570118 
L 629.950884 62.639567 
L 630.330589 62.709334 
L 630.438418 62.920573 
L 630.504397 62.991641 
L 630.579729 63.279275 
L 630.758574 63.352039 
L 630.839973 63.57244 
L 631.202123 63.646621 
L 631.202123 63.721164 
L 631.518346 63.796074 
L 631.528471 63.947007 
L 632.1753 64.023038 
L 632.272831 64.176246 
L 632.640687 64.253432 
L 632.686767 64.408985 
L 633.004788 64.487361 
L 633.004788 64.566143 
L 633.162289 64.645333 
L 633.162289 64.724937 
L 633.419425 64.804959 
L 633.527587 65.129314 
L 633.703635 65.211493 
L 633.703635 65.294117 
L 633.961125 65.377191 
L 634.058809 65.629166 
L 634.193046 65.714092 
L 634.209387 65.885376 
L 634.456932 65.971745 
L 634.456932 66.058606 
L 634.972491 66.145965 
L 635.056732 66.411087 
L 635.390101 66.500496 
L 635.478767 66.771912 
L 635.719622 66.863468 
L 635.719622 66.955578 
L 635.938451 67.048248 
L 635.938451 67.141484 
L 636.217196 67.235294 
L 636.230288 67.424665 
L 636.477073 67.52024 
L 636.572237 67.810613 
L 637.349094 67.908646 
L 637.349094 68.007314 
L 637.874896 68.106624 
L 637.874896 68.206586 
L 638.372192 68.307208 
L 638.3846 68.510466 
L 638.920172 68.61312 
L 638.984145 68.820526 
L 639.489633 68.925297 
L 639.489633 69.030793 
L 640.077038 69.137024 
L 640.145684 69.351734 
L 640.52615 69.460233 
L 640.534611 69.679577 
L 642.091495 69.790444 
L 642.091495 69.902123 
L 642.226512 69.902123 
L 642.31141 70.127966 
L 642.929779 70.127966 
L 642.929779 70.242155 
L 643.11105 70.242155 
L 643.11105 70.357205 
L 643.410123 70.357205 
L 643.410123 70.473131 
L 644.017725 70.473131 
L 644.017725 70.589944 
L 644.577066 70.589944 
L 644.659754 70.945854 
L 644.751668 70.945854 
L 644.751668 71.066362 
L 644.912918 71.066362 
L 644.912918 71.18783 
L 645.160419 71.18783 
L 645.160419 71.310273 
L 645.272423 71.310273 
L 645.341892 71.55815 
L 645.435293 71.55815 
L 645.435293 71.683617 
L 645.572207 71.683617 
L 645.572207 71.810125 
L 645.697344 71.810125 
L 645.776439 72.196073 
L 646.050463 72.196073 
L 646.050463 72.326924 
L 646.915014 72.326924 
L 646.915014 72.458909 
L 647.462087 72.458909 
L 647.462087 72.592046 
L 648.332286 72.592046 
L 648.332286 72.726356 
L 649.382763 72.726356 
L 649.491499 72.99858 
L 649.9567 72.99858 
L 649.971318 73.275754 
L 650.175657 73.275754 
L 650.184706 73.55806 
L 650.919528 73.55806 
L 650.919528 73.701199 
L 651.365355 73.701199 
L 651.365355 73.845694 
L 651.703936 73.845694 
L 651.703936 73.991572 
L 652.253675 73.991572 
L 652.253675 74.138859 
L 652.99265 74.138859 
L 652.99265 74.287583 
L 653.114303 74.287583 
L 653.204068 74.589457 
L 653.4473 74.589457 
L 653.4473 74.742665 
L 653.667851 74.742665 
L 653.667851 74.897429 
L 653.818411 74.897429 
L 653.818411 75.053781 
L 654.017231 75.053781 
L 654.017231 75.211752 
L 654.689496 75.211752 
L 654.689496 75.371378 
L 655.264291 75.371378 
L 655.264291 75.532693 
L 655.546063 75.532693 
L 655.546063 75.695733 
L 655.985857 75.695733 
L 655.985857 75.860536 
L 656.495654 75.860536 
L 656.495654 76.02714 
L 657.226743 76.02714 
L 657.226743 76.195585 
L 657.445337 76.195585 
L 657.445337 76.365912 
L 657.615927 76.365912 
L 657.615927 76.538164 
L 658.23828 76.538164 
L 658.23828 76.712385 
L 658.570504 76.712385 
L 658.570504 76.888619 
L 658.734395 76.888619 
L 658.734395 77.066915 
L 659.178861 77.066915 
L 659.178861 77.247321 
L 659.373267 77.247321 
L 659.373267 77.429887 
L 660.378511 77.429887 
L 660.378511 77.614667 
L 660.575833 77.614667 
L 660.575833 77.801714 
L 661.199637 77.801714 
L 661.199637 77.991084 
L 662.087723 77.991084 
L 662.087723 78.182836 
L 662.960312 78.182836 
L 663.015288 78.573733 
L 663.160726 78.573733 
L 663.210416 78.974917 
L 664.058705 78.974917 
L 664.110873 79.386945 
L 664.572163 79.386945 
L 664.572163 79.597212 
L 664.855533 79.597212 
L 664.864235 80.026653 
L 665.334712 80.026653 
L 665.334712 80.245996 
L 665.750118 80.245996 
L 665.750118 80.468542 
L 665.995601 80.468542 
L 665.995601 80.694385 
L 666.691972 80.694385 
L 666.691972 80.923624 
L 667.068013 80.923624 
L 667.068013 81.156363 
L 667.668046 81.156363 
L 667.668046 81.392711 
L 668.409716 81.392711 
L 668.409716 81.632781 
L 670.139384 81.632781 
L 670.236633 82.124569 
L 670.32527 82.124569 
L 670.32527 82.376544 
L 670.549246 82.376544 
L 670.549246 82.632754 
L 671.17582 82.632754 
L 671.17582 82.893343 
L 671.588552 82.893343 
L 671.588552 83.158465 
L 672.519589 83.158465 
L 672.519589 83.42828 
L 673.205724 83.42828 
L 673.205724 83.702956 
L 673.367491 83.702956 
L 673.383751 84.267618 
L 673.613307 84.267618 
L 673.613307 84.557991 
L 674.165687 84.557991 
L 674.165687 84.854002 
L 677.23415 84.854002 
L 677.23415 85.155876 
L 677.510169 85.155876 
L 677.510169 85.463848 
L 679.899819 85.463848 
L 679.899819 85.778171 
L 680.52371 85.778171 
L 680.52371 86.099112 
L 681.862165 86.099112 
L 681.862165 86.426955 
L 681.980455 86.426955 
L 681.980455 86.762004 
L 682.486998 86.762004 
L 682.486998 87.104583 
L 682.92097 87.104583 
L 682.92097 87.455038 
L 683.165603 87.455038 
L 683.165603 87.81374 
L 684.633756 87.81374 
L 684.643849 88.557503 
L 685.032354 88.557503 
L 685.032354 88.943451 
L 686.551152 88.943451 
L 686.551152 89.339424 
L 687.121611 89.339424 
L 687.121611 89.745958 
L 687.360172 89.745958 
L 687.360172 90.163631 
L 688.45188 90.163631 
L 688.45188 90.593072 
L 688.718366 90.593072 
L 688.718366 91.034961 
L 689.871678 91.034961 
L 689.871678 91.490043 
L 690.059956 91.490043 
L 690.059956 91.95913 
L 692.831202 91.95913 
L 692.831202 92.443111 
L 694.80458 92.443111 
L 694.80458 92.942963 
L 698.528796 92.942963 
L 698.528796 93.459763 
L 698.985418 93.459763 
L 698.985418 93.994699 
L 700.650645 93.994699 
L 700.650645 94.549092 
L 701.12634 94.549092 
L 701.12634 95.12441 
L 703.248327 95.12441 
L 703.248327 95.722295 
L 716.976585 95.722295 
L 716.976585 96.34459 
L 717.528232 96.34459 
L 717.528232 96.993374 
L 718.411321 96.993374 
L 718.411321 97.671002 
L 723.392426 97.671002 
L 723.392426 98.380159 
L 728.809921 98.380159 
L 728.809921 99.123922 
L 731.524923 99.123922 
L 731.524923 99.905843 
L 732.29771 99.905843 
L 732.29771 100.730051 
L 734.047141 100.730051 
L 734.047141 101.60138 
L 741.728024 101.60138 
L 741.728024 102.525549 
L 743.908869 102.525549 
L 743.908869 103.509382 
L 745.542305 103.509382 
L 745.542305 104.561118 
L 746.911564 104.561118 
L 746.911564 105.690829 
L 761.696846 105.690829 
L 761.696846 106.91101 
L 762.745336 106.91101 
L 762.745336 108.237421 
L 768.964057 108.237421 
L 768.964057 109.690341 
L 787.917563 109.690341 
L 787.917563 111.29647 
L 788.300924 111.29647 
L 788.300924 113.091969 
L 840.361278 113.091969 
L 840.361278 115.127537 
L 909.576616 115.127537 
L 909.576616 117.477429 
L 920.274868 117.477429 
L 920.274868 120.25676 
L 943.937974 120.25676 
L 943.937974 123.658388 
L 949.245393 123.658388 
L 949.245393 128.043848 
L 982.322497 128.043848 
L 982.322497 134.224807 
L 983.012831 134.224807 
L 983.012831 144.791226 
L 988.56 144.791226 
L 988.56 505 
L 988.56 505 
" clip-path="url(#p8b90c87d0f)" style="fill: none; stroke: #c07156; stroke-width: 2.25; stroke-linecap: round"/>
   </g>
   <g id="line2d_30">
    <path d="M -1 29.889734 
L 2.118073 29.889734 
L 17.531228 29.889734 
L 32.944384 29.889734 
L 48.357539 29.889734 
L 63.770694 29.889734 
L 79.183849 29.889734 
L 94.597004 29.889734 
L 110.010159 29.889734 
L 125.423314 29.889734 
L 140.836469 29.889734 
L 156.249624 29.889734 
L 171.662779 29.889734 
L 187.075935 29.889734 
L 202.48909 29.889734 
L 217.902245 29.889734 
L 233.3154 29.889734 
L 248.728555 29.889735 
L 264.14171 29.889735 
L 279.554865 29.889738 
L 294.96802 29.889747 
L 310.381175 29.889776 
L 325.794331 29.889872 
L 341.207486 29.890155 
L 356.620641 29.890945 
L 372.033796 29.893008 
L 387.446951 29.89806 
L 402.860106 29.909657 
L 418.273261 29.934616 
L 433.686416 29.985016 
L 449.099571 30.08061 
L 464.512726 30.251179 
L 479.925882 30.538173 
L 495.339037 30.994933 
L 510.752192 31.68519 
L 526.165347 32.680029 
L 541.578502 34.054005 
L 556.991657 35.881241 
L 572.404812 38.232194 
L 587.817967 41.171448 
L 603.231122 44.756531 
L 618.644277 49.037601 
L 634.057433 54.057711 
L 649.470588 59.85343 
L 664.883743 66.455613 
L 680.296898 73.890204 
L 695.710053 82.178998 
L 711.123208 91.340314 
L 726.536363 101.389584 
L 741.949518 112.339849 
L 757.362673 124.202167 
L 772.775829 136.985955 
L 788.188984 150.69927 
L 803.602139 165.349033 
L 819.015294 180.941218 
L 834.428449 197.481007 
L 849.841604 214.972912 
L 865.254759 233.42088 
L 880.667914 252.828378 
L 896.081069 273.198467 
L 911.494224 294.533854 
L 926.90738 316.836947 
L 942.320535 340.109894 
L 957.73369 364.354617 
L 973.146845 389.572833 
L 988.56 415.766178 
" clip-path="url(#p8b90c87d0f)" style="fill: none; stroke: #3a578a; stroke-width: 2; stroke-linecap: round"/>
   </g>
   <g id="patch_9">
    <path d="M 584.715751 435.06 
L 584.715751 29.889734 
" style="fill: none; stroke: #ffffff; stroke-width: 1.875; stroke-linejoin: miter; stroke-linecap: square"/>
   </g>
   <g id="patch_10">
    <path d="M 988.56 435.06 
L 988.56 29.889734 
" style="fill: none; stroke: #ffffff; stroke-width: 1.875; stroke-linejoin: miter; stroke-linecap: square"/>
   </g>
   <g id="patch_11">
    <path d="M 584.715751 435.06 
L 988.56 435.06 
" style="fill: none; stroke: #ffffff; stroke-width: 1.875; stroke-linejoin: miter; stroke-linecap: square"/>
   </g>
   <g id="patch_12">
    <path d="M 584.715751 29.889734 
L 988.56 29.889734 
" style="fill: none; stroke: #ffffff; stroke-width: 1.875; stroke-linejoin: miter; stroke-linecap: square"/>
   </g>
   <g id="legend_2">
    <g id="patch_13">
     <path d="M 827.9325 89.769266 
L 977.01 89.769266 
Q 980.31 89.769266 980.31 86.469266 
L 980.31 41.439734 
Q 980.31 38.139734 977.01 38.139734 
L 827.9325 38.139734 
Q 824.6325 38.139734 824.6325 41.439734 
L 824.6325 86.469266 
Q 824.6325 89.769266 827.9325 89.769266 
z
" style="fill: #e5e5e5; opacity: 0.8; stroke: #cccccc; stroke-width: 1.5; stroke-linejoin: miter"/>
    </g>
    <g id="line2d_31">
     <path d="M 831.2325 50.775125 
L 847.7325 50.775125 
L 847.7325 50.775125 
L 864.2325 50.775125 
L 864.2325 50.775125 
" style="fill: none; stroke: #c07156; stroke-width: 2.25; stroke-linecap: round"/>
    </g>
    <g id="text_31">
     <!-- Empirical -->
     <g style="fill: #262626" transform="translate(877.4325 56.550125)scale(0.165 -0.165)">
      <use xlink:href="#ArialMT-45"/>
      <use xlink:href="#ArialMT-6d" x="66.699219"/>
      <use xlink:href="#ArialMT-70" x="150"/>
      <use xlink:href="#ArialMT-69" x="205.615234"/>
      <use xlink:href="#ArialMT-72" x="227.832031"/>
      <use xlink:href="#ArialMT-69" x="261.132812"/>
      <use xlink:href="#ArialMT-63" x="283.349609"/>
      <use xlink:href="#ArialMT-61" x="333.349609"/>
      <use xlink:href="#ArialMT-6c" x="388.964844"/>
     </g>
    </g>
    <g id="line2d_32">
     <path d="M 831.2325 74.114891 
L 847.7325 74.114891 
L 864.2325 74.114891 
" style="fill: none; stroke: #3a578a; stroke-width: 2; stroke-linecap: round"/>
    </g>
    <g id="text_32">
     <!-- Fitted normal -->
     <g style="fill: #262626" transform="translate(877.4325 79.889891)scale(0.165 -0.165)">
      <use xlink:href="#ArialMT-46"/>
      <use xlink:href="#ArialMT-69" x="61.083984"/>
      <use xlink:href="#ArialMT-74" x="83.300781"/>
      <use xlink:href="#ArialMT-74" x="111.083984"/>
      <use xlink:href="#ArialMT-65" x="138.867188"/>
      <use xlink:href="#ArialMT-64" x="194.482422"/>
      <use xlink:href="#ArialMT-20" x="250.097656"/>
      <use xlink:href="#ArialMT-6e" x="277.880859"/>
      <use xlink:href="#ArialMT-6f" x="333.496094"/>
      <use xlink:href="#ArialMT-72" x="389.111328"/>
      <use xlink:href="#ArialMT-6d" x="422.412109"/>
      <use xlink:href="#ArialMT-61" x="505.712891"/>
      <use xlink:href="#ArialMT-6c" x="561.328125"/>
     </g>
    </g>
   </g>
  </g>
 </g>
 <defs>
  <clipPath id="pb96c2dc9fb">
   <rect x="87.247409" y="29.889734" width="403.844249" height="405.170266"/>
  </clipPath>
  <clipPath id="p8b90c87d0f">
   <rect x="584.715751" y="29.889734" width="403.844249" height="405.170266"/>
  </clipPath>
 </defs>
</svg>
