<?xml version="1.0" encoding="utf-8" standalone="no"?>
<!DOCTYPE svg PUBLIC "-//W3C//DTD SVG 1.1//EN"
  "http://www.w3.org/Graphics/SVG/1.1/DTD/svg11.dtd">
<svg xmlns:xlink="http://www.w3.org/1999/xlink" width="1008pt" height="504pt" viewBox="0 0 1008 504" xmlns="http://www.w3.org/2000/svg" version="1.1">
 <metadata>
  <rdf:RDF xmlns:dc="http://purl.org/dc/elements/1.1/" xmlns:cc="http://creativecommons.org/ns#" xmlns:rdf="http://www.w3.org/1999/02/22-rdf-syntax-ns#">
   <cc:Work>
    <dc:type rdf:resource="http://purl.org/dc/dcmitype/StillImage"/>
    <dc:date>2022-04-15T22:57:07.326422</dc:date>
    <dc:format>image/svg+xml</dc:format>
    <dc:creator>
     <cc:Agent>
      <dc:title>Matplotlib v3.5.1, https://matplotlib.org/</dc:title>
     </cc:Agent>
    </dc:creator>
   </cc:Work>
  </rdf:RDF>
 </metadata>
 <defs>
  <style type="text/css">*{stroke-linejoin: round; stroke-linecap: butt}</style>
 </defs>
 <g id="figure_1">
  <g id="patch_1">
   <path d="M 0 504 
L 1008 504 
L 1008 0 
L 0 0 
z
" style="fill: #ffffff"/>
  </g>
  <g id="axes_1">
   <g id="patch_2">
    <path d="M 112.158003 415.58 
L 486.820127 415.58 
L 486.820127 39.186312 
L 112.158003 39.186312 
z
" style="fill: #e5e5e5"/>
   </g>
   <g id="matplotlib.axis_1">
    <g id="xtick_1">
     <g id="line2d_1">
      <path d="M 112.158003 415.58 
L 112.158003 39.186312 
" clip-path="url(#p8c439981b7)" style="fill: none; stroke: #ffffff; stroke-width: 2; stroke-linecap: round"/>
     </g>
     <g id="text_1">
      <!-- 0.00 -->
      <g style="fill: #555555" transform="translate(90.750972 446.827188)scale(0.22 -0.22)">
       <defs>
        <path id="ArialMT-30" d="M 266 2259 
Q 266 3072 433 3567 
Q 600 4063 929 4331 
Q 1259 4600 1759 4600 
Q 2128 4600 2406 4451 
Q 2684 4303 2865 4023 
Q 3047 3744 3150 3342 
Q 3253 2941 3253 2259 
Q 3253 1453 3087 958 
Q 2922 463 2592 192 
Q 2263 -78 1759 -78 
Q 1097 -78 719 397 
Q 266 969 266 2259 
z
M 844 2259 
Q 844 1131 1108 757 
Q 1372 384 1759 384 
Q 2147 384 2411 759 
Q 2675 1134 2675 2259 
Q 2675 3391 2411 3762 
Q 2147 4134 1753 4134 
Q 1366 4134 1134 3806 
Q 844 3388 844 2259 
z
" transform="scale(0.015625)"/>
        <path id="ArialMT-2e" d="M 581 0 
L 581 641 
L 1222 641 
L 1222 0 
L 581 0 
z
" transform="scale(0.015625)"/>
       </defs>
       <use xlink:href="#ArialMT-30"/>
       <use xlink:href="#ArialMT-2e" x="55.615234"/>
       <use xlink:href="#ArialMT-30" x="83.398438"/>
       <use xlink:href="#ArialMT-30" x="139.013672"/>
      </g>
     </g>
    </g>
    <g id="xtick_2">
     <g id="line2d_2">
      <path d="M 238.201084 415.58 
L 238.201084 39.186312 
" clip-path="url(#p8c439981b7)" style="fill: none; stroke: #ffffff; stroke-width: 2; stroke-linecap: round"/>
     </g>
     <g id="text_2">
      <!-- 0.05 -->
      <g style="fill: #555555" transform="translate(216.794053 446.827188)scale(0.22 -0.22)">
       <defs>
        <path id="ArialMT-35" d="M 266 1200 
L 856 1250 
Q 922 819 1161 601 
Q 1400 384 1738 384 
Q 2144 384 2425 690 
Q 2706 997 2706 1503 
Q 2706 1984 2436 2262 
Q 2166 2541 1728 2541 
Q 1456 2541 1237 2417 
Q 1019 2294 894 2097 
L 366 2166 
L 809 4519 
L 3088 4519 
L 3088 3981 
L 1259 3981 
L 1013 2750 
Q 1425 3038 1878 3038 
Q 2478 3038 2890 2622 
Q 3303 2206 3303 1553 
Q 3303 931 2941 478 
Q 2500 -78 1738 -78 
Q 1113 -78 717 272 
Q 322 622 266 1200 
z
" transform="scale(0.015625)"/>
       </defs>
       <use xlink:href="#ArialMT-30"/>
       <use xlink:href="#ArialMT-2e" x="55.615234"/>
       <use xlink:href="#ArialMT-30" x="83.398438"/>
       <use xlink:href="#ArialMT-35" x="139.013672"/>
      </g>
     </g>
    </g>
    <g id="xtick_3">
     <g id="line2d_3">
      <path d="M 364.244165 415.58 
L 364.244165 39.186312 
" clip-path="url(#p8c439981b7)" style="fill: none; stroke: #ffffff; stroke-width: 2; stroke-linecap: round"/>
     </g>
     <g id="text_3">
      <!-- 0.10 -->
      <g style="fill: #555555" transform="translate(342.837133 446.827188)scale(0.22 -0.22)">
       <defs>
        <path id="ArialMT-31" d="M 2384 0 
L 1822 0 
L 1822 3584 
Q 1619 3391 1289 3197 
Q 959 3003 697 2906 
L 697 3450 
Q 1169 3672 1522 3987 
Q 1875 4303 2022 4600 
L 2384 4600 
L 2384 0 
z
" transform="scale(0.015625)"/>
       </defs>
       <use xlink:href="#ArialMT-30"/>
       <use xlink:href="#ArialMT-2e" x="55.615234"/>
       <use xlink:href="#ArialMT-31" x="83.398438"/>
       <use xlink:href="#ArialMT-30" x="139.013672"/>
      </g>
     </g>
    </g>
    <g id="text_4">
     <!-- HeatingOil -->
     <g style="fill: #555555" transform="translate(243.464065 472.685938)scale(0.24 -0.24)">
      <defs>
       <path id="ArialMT-48" d="M 513 0 
L 513 4581 
L 1119 4581 
L 1119 2700 
L 3500 2700 
L 3500 4581 
L 4106 4581 
L 4106 0 
L 3500 0 
L 3500 2159 
L 1119 2159 
L 1119 0 
L 513 0 
z
" transform="scale(0.015625)"/>
       <path id="ArialMT-65" d="M 2694 1069 
L 3275 997 
Q 3138 488 2766 206 
Q 2394 -75 1816 -75 
Q 1088 -75 661 373 
Q 234 822 234 1631 
Q 234 2469 665 2931 
Q 1097 3394 1784 3394 
Q 2450 3394 2872 2941 
Q 3294 2488 3294 1666 
Q 3294 1616 3291 1516 
L 816 1516 
Q 847 969 1125 678 
Q 1403 388 1819 388 
Q 2128 388 2347 550 
Q 2566 713 2694 1069 
z
M 847 1978 
L 2700 1978 
Q 2663 2397 2488 2606 
Q 2219 2931 1791 2931 
Q 1403 2931 1139 2672 
Q 875 2413 847 1978 
z
" transform="scale(0.015625)"/>
       <path id="ArialMT-61" d="M 2588 409 
Q 2275 144 1986 34 
Q 1697 -75 1366 -75 
Q 819 -75 525 192 
Q 231 459 231 875 
Q 231 1119 342 1320 
Q 453 1522 633 1644 
Q 813 1766 1038 1828 
Q 1203 1872 1538 1913 
Q 2219 1994 2541 2106 
Q 2544 2222 2544 2253 
Q 2544 2597 2384 2738 
Q 2169 2928 1744 2928 
Q 1347 2928 1158 2789 
Q 969 2650 878 2297 
L 328 2372 
Q 403 2725 575 2942 
Q 747 3159 1072 3276 
Q 1397 3394 1825 3394 
Q 2250 3394 2515 3294 
Q 2781 3194 2906 3042 
Q 3031 2891 3081 2659 
Q 3109 2516 3109 2141 
L 3109 1391 
Q 3109 606 3145 398 
Q 3181 191 3288 0 
L 2700 0 
Q 2613 175 2588 409 
z
M 2541 1666 
Q 2234 1541 1622 1453 
Q 1275 1403 1131 1340 
Q 988 1278 909 1158 
Q 831 1038 831 891 
Q 831 666 1001 516 
Q 1172 366 1500 366 
Q 1825 366 2078 508 
Q 2331 650 2450 897 
Q 2541 1088 2541 1459 
L 2541 1666 
z
" transform="scale(0.015625)"/>
       <path id="ArialMT-74" d="M 1650 503 
L 1731 6 
Q 1494 -44 1306 -44 
Q 1000 -44 831 53 
Q 663 150 594 308 
Q 525 466 525 972 
L 525 2881 
L 113 2881 
L 113 3319 
L 525 3319 
L 525 4141 
L 1084 4478 
L 1084 3319 
L 1650 3319 
L 1650 2881 
L 1084 2881 
L 1084 941 
Q 1084 700 1114 631 
Q 1144 563 1211 522 
Q 1278 481 1403 481 
Q 1497 481 1650 503 
z
" transform="scale(0.015625)"/>
       <path id="ArialMT-69" d="M 425 3934 
L 425 4581 
L 988 4581 
L 988 3934 
L 425 3934 
z
M 425 0 
L 425 3319 
L 988 3319 
L 988 0 
L 425 0 
z
" transform="scale(0.015625)"/>
       <path id="ArialMT-6e" d="M 422 0 
L 422 3319 
L 928 3319 
L 928 2847 
Q 1294 3394 1984 3394 
Q 2284 3394 2536 3286 
Q 2788 3178 2913 3003 
Q 3038 2828 3088 2588 
Q 3119 2431 3119 2041 
L 3119 0 
L 2556 0 
L 2556 2019 
Q 2556 2363 2490 2533 
Q 2425 2703 2258 2804 
Q 2091 2906 1866 2906 
Q 1506 2906 1245 2678 
Q 984 2450 984 1813 
L 984 0 
L 422 0 
z
" transform="scale(0.015625)"/>
       <path id="ArialMT-67" d="M 319 -275 
L 866 -356 
Q 900 -609 1056 -725 
Q 1266 -881 1628 -881 
Q 2019 -881 2231 -725 
Q 2444 -569 2519 -288 
Q 2563 -116 2559 434 
Q 2191 0 1641 0 
Q 956 0 581 494 
Q 206 988 206 1678 
Q 206 2153 378 2554 
Q 550 2956 876 3175 
Q 1203 3394 1644 3394 
Q 2231 3394 2613 2919 
L 2613 3319 
L 3131 3319 
L 3131 450 
Q 3131 -325 2973 -648 
Q 2816 -972 2473 -1159 
Q 2131 -1347 1631 -1347 
Q 1038 -1347 672 -1080 
Q 306 -813 319 -275 
z
M 784 1719 
Q 784 1066 1043 766 
Q 1303 466 1694 466 
Q 2081 466 2343 764 
Q 2606 1063 2606 1700 
Q 2606 2309 2336 2618 
Q 2066 2928 1684 2928 
Q 1309 2928 1046 2623 
Q 784 2319 784 1719 
z
" transform="scale(0.015625)"/>
       <path id="ArialMT-4f" d="M 309 2231 
Q 309 3372 921 4017 
Q 1534 4663 2503 4663 
Q 3138 4663 3647 4359 
Q 4156 4056 4423 3514 
Q 4691 2972 4691 2284 
Q 4691 1588 4409 1038 
Q 4128 488 3612 205 
Q 3097 -78 2500 -78 
Q 1853 -78 1343 234 
Q 834 547 571 1087 
Q 309 1628 309 2231 
z
M 934 2222 
Q 934 1394 1379 917 
Q 1825 441 2497 441 
Q 3181 441 3623 922 
Q 4066 1403 4066 2288 
Q 4066 2847 3877 3264 
Q 3688 3681 3323 3911 
Q 2959 4141 2506 4141 
Q 1863 4141 1398 3698 
Q 934 3256 934 2222 
z
" transform="scale(0.015625)"/>
       <path id="ArialMT-6c" d="M 409 0 
L 409 4581 
L 972 4581 
L 972 0 
L 409 0 
z
" transform="scale(0.015625)"/>
      </defs>
      <use xlink:href="#ArialMT-48"/>
      <use xlink:href="#ArialMT-65" x="72.216797"/>
      <use xlink:href="#ArialMT-61" x="127.832031"/>
      <use xlink:href="#ArialMT-74" x="183.447266"/>
      <use xlink:href="#ArialMT-69" x="211.230469"/>
      <use xlink:href="#ArialMT-6e" x="233.447266"/>
      <use xlink:href="#ArialMT-67" x="289.0625"/>
      <use xlink:href="#ArialMT-4f" x="344.677734"/>
      <use xlink:href="#ArialMT-69" x="422.460938"/>
      <use xlink:href="#ArialMT-6c" x="444.677734"/>
     </g>
    </g>
   </g>
   <g id="matplotlib.axis_2">
    <g id="ytick_1">
     <g id="line2d_4">
      <path d="M 112.158003 366.696425 
L 486.820127 366.696425 
" clip-path="url(#p8c439981b7)" style="fill: none; stroke: #ffffff; stroke-width: 2; stroke-linecap: round"/>
     </g>
     <g id="text_5">
      <!-- $\mathdefault{10^{-8}}$ -->
      <g style="fill: #555555" transform="translate(53.098003 378.040175)scale(0.22 -0.22)">
       <defs>
        <path id="ArialMT-2212" d="M 3381 1997 
L 356 1997 
L 356 2522 
L 3381 2522 
L 3381 1997 
z
" transform="scale(0.015625)"/>
        <path id="ArialMT-38" d="M 1131 2484 
Q 781 2613 612 2850 
Q 444 3088 444 3419 
Q 444 3919 803 4259 
Q 1163 4600 1759 4600 
Q 2359 4600 2725 4251 
Q 3091 3903 3091 3403 
Q 3091 3084 2923 2848 
Q 2756 2613 2416 2484 
Q 2838 2347 3058 2040 
Q 3278 1734 3278 1309 
Q 3278 722 2862 322 
Q 2447 -78 1769 -78 
Q 1091 -78 675 323 
Q 259 725 259 1325 
Q 259 1772 486 2073 
Q 713 2375 1131 2484 
z
M 1019 3438 
Q 1019 3113 1228 2906 
Q 1438 2700 1772 2700 
Q 2097 2700 2305 2904 
Q 2513 3109 2513 3406 
Q 2513 3716 2298 3927 
Q 2084 4138 1766 4138 
Q 1444 4138 1231 3931 
Q 1019 3725 1019 3438 
z
M 838 1322 
Q 838 1081 952 856 
Q 1066 631 1291 507 
Q 1516 384 1775 384 
Q 2178 384 2440 643 
Q 2703 903 2703 1303 
Q 2703 1709 2433 1975 
Q 2163 2241 1756 2241 
Q 1359 2241 1098 1978 
Q 838 1716 838 1322 
z
" transform="scale(0.015625)"/>
       </defs>
       <use xlink:href="#ArialMT-31" transform="translate(0 0.99375)"/>
       <use xlink:href="#ArialMT-30" transform="translate(55.615234 0.99375)"/>
       <use xlink:href="#ArialMT-2212" transform="translate(112.972813 70.6875)scale(0.7)"/>
       <use xlink:href="#ArialMT-38" transform="translate(153.851719 70.6875)scale(0.7)"/>
      </g>
     </g>
    </g>
    <g id="ytick_2">
     <g id="line2d_5">
      <path d="M 112.158003 284.818897 
L 486.820127 284.818897 
" clip-path="url(#p8c439981b7)" style="fill: none; stroke: #ffffff; stroke-width: 2; stroke-linecap: round"/>
     </g>
     <g id="text_6">
      <!-- $\mathdefault{10^{-6}}$ -->
      <g style="fill: #555555" transform="translate(53.098003 296.162647)scale(0.22 -0.22)">
       <defs>
        <path id="ArialMT-36" d="M 3184 3459 
L 2625 3416 
Q 2550 3747 2413 3897 
Q 2184 4138 1850 4138 
Q 1581 4138 1378 3988 
Q 1113 3794 959 3422 
Q 806 3050 800 2363 
Q 1003 2672 1297 2822 
Q 1591 2972 1913 2972 
Q 2475 2972 2870 2558 
Q 3266 2144 3266 1488 
Q 3266 1056 3080 686 
Q 2894 316 2569 119 
Q 2244 -78 1831 -78 
Q 1128 -78 684 439 
Q 241 956 241 2144 
Q 241 3472 731 4075 
Q 1159 4600 1884 4600 
Q 2425 4600 2770 4297 
Q 3116 3994 3184 3459 
z
M 888 1484 
Q 888 1194 1011 928 
Q 1134 663 1356 523 
Q 1578 384 1822 384 
Q 2178 384 2434 671 
Q 2691 959 2691 1453 
Q 2691 1928 2437 2201 
Q 2184 2475 1800 2475 
Q 1419 2475 1153 2201 
Q 888 1928 888 1484 
z
" transform="scale(0.015625)"/>
       </defs>
       <use xlink:href="#ArialMT-31" transform="translate(0 0.99375)"/>
       <use xlink:href="#ArialMT-30" transform="translate(55.615234 0.99375)"/>
       <use xlink:href="#ArialMT-2212" transform="translate(112.972813 70.6875)scale(0.7)"/>
       <use xlink:href="#ArialMT-36" transform="translate(153.851719 70.6875)scale(0.7)"/>
      </g>
     </g>
    </g>
    <g id="ytick_3">
     <g id="line2d_6">
      <path d="M 112.158003 202.941369 
L 486.820127 202.941369 
" clip-path="url(#p8c439981b7)" style="fill: none; stroke: #ffffff; stroke-width: 2; stroke-linecap: round"/>
     </g>
     <g id="text_7">
      <!-- $\mathdefault{10^{-4}}$ -->
      <g style="fill: #555555" transform="translate(53.098003 214.175119)scale(0.22 -0.22)">
       <defs>
        <path id="ArialMT-34" d="M 2069 0 
L 2069 1097 
L 81 1097 
L 81 1613 
L 2172 4581 
L 2631 4581 
L 2631 1613 
L 3250 1613 
L 3250 1097 
L 2631 1097 
L 2631 0 
L 2069 0 
z
M 2069 1613 
L 2069 3678 
L 634 1613 
L 2069 1613 
z
" transform="scale(0.015625)"/>
       </defs>
       <use xlink:href="#ArialMT-31" transform="translate(0 0.201563)"/>
       <use xlink:href="#ArialMT-30" transform="translate(55.615234 0.201563)"/>
       <use xlink:href="#ArialMT-2212" transform="translate(112.972813 69.895313)scale(0.7)"/>
       <use xlink:href="#ArialMT-34" transform="translate(153.851719 69.895313)scale(0.7)"/>
      </g>
     </g>
    </g>
    <g id="ytick_4">
     <g id="line2d_7">
      <path d="M 112.158003 121.063841 
L 486.820127 121.063841 
" clip-path="url(#p8c439981b7)" style="fill: none; stroke: #ffffff; stroke-width: 2; stroke-linecap: round"/>
     </g>
     <g id="text_8">
      <!-- $\mathdefault{10^{-2}}$ -->
      <g style="fill: #555555" transform="translate(53.098003 132.407591)scale(0.22 -0.22)">
       <defs>
        <path id="ArialMT-32" d="M 3222 541 
L 3222 0 
L 194 0 
Q 188 203 259 391 
Q 375 700 629 1000 
Q 884 1300 1366 1694 
Q 2113 2306 2375 2664 
Q 2638 3022 2638 3341 
Q 2638 3675 2398 3904 
Q 2159 4134 1775 4134 
Q 1369 4134 1125 3890 
Q 881 3647 878 3216 
L 300 3275 
Q 359 3922 746 4261 
Q 1134 4600 1788 4600 
Q 2447 4600 2831 4234 
Q 3216 3869 3216 3328 
Q 3216 3053 3103 2787 
Q 2991 2522 2730 2228 
Q 2469 1934 1863 1422 
Q 1356 997 1212 845 
Q 1069 694 975 541 
L 3222 541 
z
" transform="scale(0.015625)"/>
       </defs>
       <use xlink:href="#ArialMT-31" transform="translate(0 0.99375)"/>
       <use xlink:href="#ArialMT-30" transform="translate(55.615234 0.99375)"/>
       <use xlink:href="#ArialMT-2212" transform="translate(112.972813 70.6875)scale(0.7)"/>
       <use xlink:href="#ArialMT-32" transform="translate(153.851719 70.6875)scale(0.7)"/>
      </g>
     </g>
    </g>
    <g id="ytick_5">
     <g id="line2d_8">
      <path d="M 112.158003 39.186313 
L 486.820127 39.186313 
" clip-path="url(#p8c439981b7)" style="fill: none; stroke: #ffffff; stroke-width: 2; stroke-linecap: round"/>
     </g>
     <g id="text_9">
      <!-- $\mathdefault{10^{0}}$ -->
      <g style="fill: #555555" transform="translate(62.118003 50.530063)scale(0.22 -0.22)">
       <use xlink:href="#ArialMT-31" transform="translate(0 0.99375)"/>
       <use xlink:href="#ArialMT-30" transform="translate(55.615234 0.99375)"/>
       <use xlink:href="#ArialMT-30" transform="translate(112.972813 70.6875)scale(0.7)"/>
      </g>
     </g>
    </g>
    <g id="text_10">
     <!-- Proportion -->
     <g style="fill: #555555" transform="translate(44.328003 282.744406)rotate(-90)scale(0.24 -0.24)">
      <defs>
       <path id="ArialMT-50" d="M 494 0 
L 494 4581 
L 2222 4581 
Q 2678 4581 2919 4538 
Q 3256 4481 3484 4323 
Q 3713 4166 3852 3881 
Q 3991 3597 3991 3256 
Q 3991 2672 3619 2267 
Q 3247 1863 2275 1863 
L 1100 1863 
L 1100 0 
L 494 0 
z
M 1100 2403 
L 2284 2403 
Q 2872 2403 3119 2622 
Q 3366 2841 3366 3238 
Q 3366 3525 3220 3729 
Q 3075 3934 2838 4000 
Q 2684 4041 2272 4041 
L 1100 4041 
L 1100 2403 
z
" transform="scale(0.015625)"/>
       <path id="ArialMT-72" d="M 416 0 
L 416 3319 
L 922 3319 
L 922 2816 
Q 1116 3169 1280 3281 
Q 1444 3394 1641 3394 
Q 1925 3394 2219 3213 
L 2025 2691 
Q 1819 2813 1613 2813 
Q 1428 2813 1281 2702 
Q 1134 2591 1072 2394 
Q 978 2094 978 1738 
L 978 0 
L 416 0 
z
" transform="scale(0.015625)"/>
       <path id="ArialMT-6f" d="M 213 1659 
Q 213 2581 725 3025 
Q 1153 3394 1769 3394 
Q 2453 3394 2887 2945 
Q 3322 2497 3322 1706 
Q 3322 1066 3130 698 
Q 2938 331 2570 128 
Q 2203 -75 1769 -75 
Q 1072 -75 642 372 
Q 213 819 213 1659 
z
M 791 1659 
Q 791 1022 1069 705 
Q 1347 388 1769 388 
Q 2188 388 2466 706 
Q 2744 1025 2744 1678 
Q 2744 2294 2464 2611 
Q 2184 2928 1769 2928 
Q 1347 2928 1069 2612 
Q 791 2297 791 1659 
z
" transform="scale(0.015625)"/>
       <path id="ArialMT-70" d="M 422 -1272 
L 422 3319 
L 934 3319 
L 934 2888 
Q 1116 3141 1344 3267 
Q 1572 3394 1897 3394 
Q 2322 3394 2647 3175 
Q 2972 2956 3137 2557 
Q 3303 2159 3303 1684 
Q 3303 1175 3120 767 
Q 2938 359 2589 142 
Q 2241 -75 1856 -75 
Q 1575 -75 1351 44 
Q 1128 163 984 344 
L 984 -1272 
L 422 -1272 
z
M 931 1641 
Q 931 1000 1190 694 
Q 1450 388 1819 388 
Q 2194 388 2461 705 
Q 2728 1022 2728 1688 
Q 2728 2322 2467 2637 
Q 2206 2953 1844 2953 
Q 1484 2953 1207 2617 
Q 931 2281 931 1641 
z
" transform="scale(0.015625)"/>
      </defs>
      <use xlink:href="#ArialMT-50"/>
      <use xlink:href="#ArialMT-72" x="66.699219"/>
      <use xlink:href="#ArialMT-6f" x="100"/>
      <use xlink:href="#ArialMT-70" x="155.615234"/>
      <use xlink:href="#ArialMT-6f" x="211.230469"/>
      <use xlink:href="#ArialMT-72" x="266.845703"/>
      <use xlink:href="#ArialMT-74" x="300.146484"/>
      <use xlink:href="#ArialMT-69" x="327.929688"/>
      <use xlink:href="#ArialMT-6f" x="350.146484"/>
      <use xlink:href="#ArialMT-6e" x="405.761719"/>
     </g>
    </g>
   </g>
   <g id="line2d_9">
    <path d="M 111.020173 51.033468 
L 113.418749 51.144475 
L 113.517325 51.256179 
L 113.680722 51.349804 
L 113.749959 51.406217 
L 114.103112 51.500639 
L 114.139034 51.557533 
L 114.642835 51.652764 
L 114.677605 51.690999 
L 114.901052 51.786949 
L 115.009657 51.864083 
L 115.599453 51.960975 
L 115.599453 51.980416 
L 116.075427 52.077945 
L 116.186012 52.13672 
L 116.339693 52.235113 
L 116.431858 52.294411 
L 116.717899 52.393682 
L 116.753923 52.433547 
L 117.048134 52.5336 
L 117.096029 52.593904 
L 117.258382 52.694867 
L 117.366397 52.776051 
L 117.674114 52.878057 
L 117.774481 52.980651 
L 118.161487 53.08384 
L 118.254407 53.187632 
L 118.431407 53.292033 
L 118.541089 53.439232 
L 119.17014 53.545126 
L 119.217267 53.630297 
L 119.548397 53.715879 
L 119.548397 53.737339 
L 119.548397 53.758824 
L 119.998948 53.866644 
L 120.067836 53.909956 
L 120.292446 54.0187 
L 120.292446 54.040528 
L 120.645761 54.150076 
L 120.692972 54.216129 
L 120.918608 54.326768 
L 121.014239 54.393482 
L 121.258596 54.482827 
L 121.34148 54.595142 
L 121.782248 54.685508 
L 121.880644 54.776336 
L 122.23963 54.86763 
L 122.241463 54.913453 
L 122.930932 55.005456 
L 122.974589 55.051636 
L 123.346932 55.144359 
L 123.386804 55.214219 
L 123.613592 55.307796 
L 123.702695 55.44909 
L 123.949559 55.543915 
L 124.045767 55.591517 
L 124.306757 55.687106 
L 124.358204 55.735094 
L 124.612878 55.83146 
L 124.713014 55.928351 
L 125.226263 56.025773 
L 125.321801 56.123732 
L 125.495926 56.222233 
L 125.564496 56.346132 
L 125.963413 56.445877 
L 125.981077 56.49596 
L 126.638818 56.596552 
L 126.638818 56.621789 
L 126.864092 56.723097 
L 126.908552 56.799458 
L 127.207968 56.901786 
L 127.253028 56.953172 
L 127.576165 57.056391 
L 127.653709 57.108227 
L 127.969439 57.212353 
L 128.022509 57.29085 
L 128.458085 57.396054 
L 128.458085 57.422453 
L 128.96812 57.528441 
L 129.052304 57.608349 
L 129.274443 57.715454 
L 129.365316 57.76925 
L 129.74256 57.877332 
L 129.74256 57.904456 
L 130.138547 58.013366 
L 130.228773 58.095488 
L 130.438443 58.205578 
L 130.438443 58.233208 
L 131.023286 58.344156 
L 131.030852 58.399891 
L 131.512122 58.483823 
L 131.577351 58.539998 
L 131.878012 58.624596 
L 131.929568 58.681218 
L 132.391222 58.766492 
L 132.481339 58.823569 
L 132.792729 58.909529 
L 132.792729 58.938275 
L 133.199612 59.024794 
L 133.294019 59.082707 
L 133.889703 59.169933 
L 133.948407 59.228322 
L 134.438491 59.316267 
L 134.509044 59.404649 
L 134.868622 59.493473 
L 134.868622 59.523179 
L 135.086665 59.612599 
L 135.17973 59.762637 
L 135.467107 59.853272 
L 135.467107 59.883587 
L 135.727642 59.974842 
L 135.811155 60.035939 
L 136.093856 60.127982 
L 136.200063 60.313509 
L 136.613835 60.407003 
L 136.613835 60.438277 
L 136.888343 60.532432 
L 136.888343 60.563928 
L 137.079683 60.658752 
L 137.099594 60.72225 
L 137.550221 60.817925 
L 137.647215 61.010832 
L 137.750727 61.108077 
L 137.833667 61.173203 
L 138.111812 61.271342 
L 138.222437 61.337071 
L 138.299215 61.436121 
L 138.395638 61.569052 
L 138.700986 61.669407 
L 138.777697 61.736626 
L 139.089027 61.837934 
L 139.119347 61.905795 
L 139.382344 62.008074 
L 139.492915 62.076588 
L 139.682519 62.179858 
L 139.78416 62.28373 
L 140.084323 62.388213 
L 140.195353 62.458211 
L 140.488956 62.563728 
L 140.598795 62.740992 
L 140.858825 62.848206 
L 140.902461 62.99217 
L 141.18936 63.100913 
L 141.20529 63.17378 
L 141.752868 63.283643 
L 141.790639 63.39419 
L 141.960364 63.468271 
L 142.016273 63.542662 
L 142.24537 63.617366 
L 142.285572 63.730013 
L 142.816794 63.80551 
L 142.92507 63.957473 
L 143.110308 64.033944 
L 143.184384 64.14927 
L 143.380369 64.226572 
L 143.380369 64.26535 
L 143.629843 64.34316 
L 143.722989 64.460516 
L 143.956259 64.539187 
L 144.02153 64.618207 
L 144.208509 64.69758 
L 144.250882 64.817307 
L 144.598493 64.897576 
L 144.672167 65.018662 
L 145.214622 65.099847 
L 145.214622 65.140579 
L 145.471309 65.222324 
L 145.471309 65.263338 
L 145.826104 65.345651 
L 145.937074 65.511428 
L 146.090472 65.5949 
L 146.090472 65.636783 
L 146.589819 65.720847 
L 146.589819 65.763028 
L 146.82838 65.847693 
L 146.82838 65.890177 
L 147.181108 65.97545 
L 147.286089 66.147234 
L 148.020755 66.233752 
L 148.095423 66.408062 
L 148.243097 66.495862 
L 148.270137 66.584098 
L 148.430019 66.672774 
L 148.507505 66.761894 
L 148.750515 66.851464 
L 148.811939 66.986669 
L 149.113704 67.077381 
L 149.217189 67.260205 
L 149.352769 67.352327 
L 149.352769 67.398568 
L 149.732517 67.491411 
L 149.823659 67.678565 
L 150.164955 67.772886 
L 150.27485 67.915313 
L 150.8562 68.010902 
L 150.8562 68.05889 
L 151.398358 68.155256 
L 151.468292 68.300791 
L 151.726243 68.398481 
L 151.835884 68.595485 
L 152.222728 68.694812 
L 152.278663 68.895146 
L 152.473102 68.996166 
L 152.492649 69.097764 
L 152.738944 69.199945 
L 152.768319 69.302717 
L 153.178846 69.406086 
L 153.178846 69.457997 
L 153.412796 69.562276 
L 153.484529 69.66717 
L 153.732375 69.772686 
L 153.732375 69.82568 
L 153.949443 69.932145 
L 154.033744 70.03925 
L 154.353912 70.147005 
L 154.44281 70.364494 
L 154.777135 70.474244 
L 154.817705 70.584676 
L 154.942747 70.64015 
L 155.050728 70.751621 
L 155.124066 70.807619 
L 155.169008 70.920148 
L 155.366116 70.97668 
L 155.366116 71.090288 
L 155.711611 71.147365 
L 155.797782 71.319703 
L 156.028439 71.377523 
L 156.095701 71.493729 
L 156.423611 71.552118 
L 156.485595 71.669475 
L 156.649172 71.728445 
L 156.649172 71.787611 
L 156.974501 71.846975 
L 156.992617 71.966301 
L 157.340707 72.026266 
L 157.451298 72.207383 
L 157.811527 72.268167 
L 157.811527 72.32916 
L 158.104505 72.390363 
L 158.18625 72.575247 
L 158.316843 72.637305 
L 158.338319 72.824788 
L 158.698309 72.887724 
L 158.698309 72.950884 
L 159.083359 73.014269 
L 159.083359 73.077881 
L 159.330153 73.141721 
L 159.346135 73.399399 
L 159.474834 73.464406 
L 159.566295 73.595138 
L 159.853481 73.660867 
L 159.923126 73.859522 
L 160.150472 73.926237 
L 160.150472 73.993203 
L 160.369207 74.060422 
L 160.369207 74.127897 
L 160.955474 74.195628 
L 160.979032 74.33187 
L 161.441185 74.400384 
L 161.476658 74.53821 
L 161.825486 74.607526 
L 161.825486 74.677113 
L 162.433263 74.746974 
L 162.433263 74.81711 
L 163.273999 74.887524 
L 163.373658 75.029194 
L 163.485071 75.100454 
L 163.547675 75.243838 
L 163.805862 75.315966 
L 163.805862 75.388387 
L 164.096707 75.461105 
L 164.096707 75.534122 
L 164.31076 75.607439 
L 164.398394 75.754988 
L 164.738715 75.829223 
L 164.738715 75.903771 
L 165.624729 75.978632 
L 165.729107 76.205125 
L 165.974304 76.281268 
L 166.06114 76.434541 
L 166.168888 76.511675 
L 166.168888 76.589146 
L 166.442928 76.666956 
L 166.442928 76.745107 
L 166.795201 76.823604 
L 166.848262 76.981645 
L 167.080908 77.061195 
L 167.178992 77.221372 
L 167.442272 77.302005 
L 167.508486 77.464375 
L 168.179456 77.54612 
L 168.179456 77.628243 
L 168.40446 77.710746 
L 168.45991 77.876911 
L 168.743748 77.960579 
L 168.836654 78.213973 
L 169.083104 78.299246 
L 169.16126 78.557548 
L 169.236554 78.644489 
L 169.236554 78.731858 
L 169.904877 78.819658 
L 169.953214 78.99657 
L 170.302364 79.08569 
L 170.3194 79.265283 
L 170.430376 79.355764 
L 170.446418 79.538119 
L 171.559847 79.630003 
L 171.562498 79.815207 
L 171.826152 79.908538 
L 171.836243 80.096682 
L 172.207833 80.191506 
L 172.207833 80.286839 
L 172.956924 80.382686 
L 172.956924 80.479051 
L 173.6014 80.575943 
L 173.675493 80.869825 
L 174.064946 80.968875 
L 174.064946 81.06848 
L 174.814222 81.168647 
L 174.814222 81.269381 
L 175.054825 81.370689 
L 175.165322 81.575053 
L 175.203035 81.678122 
L 175.203035 81.781793 
L 175.743937 81.886072 
L 175.743937 81.990966 
L 175.891045 82.096482 
L 175.980693 82.309413 
L 176.234186 82.416842 
L 176.234186 82.524924 
L 176.656437 82.633668 
L 176.656437 82.74308 
L 177.185406 82.85317 
L 177.185406 82.963946 
L 177.456867 82.963946 
L 177.456867 83.075417 
L 177.63861 83.075417 
L 177.63861 83.18759 
L 177.95513 83.18759 
L 177.95513 83.300476 
L 178.109747 83.300476 
L 178.138519 83.528421 
L 178.263049 83.528421 
L 178.263049 83.643499 
L 178.427623 83.643499 
L 178.427623 83.759327 
L 178.779244 83.759327 
L 178.779244 83.875914 
L 179.070046 83.875914 
L 179.070046 83.993271 
L 179.194766 83.993271 
L 179.194766 84.111407 
L 181.044361 84.111407 
L 181.044361 84.230334 
L 181.566641 84.230334 
L 181.568391 84.470601 
L 181.898436 84.470601 
L 181.898436 84.591963 
L 182.308244 84.591963 
L 182.308244 84.714159 
L 182.832941 84.714159 
L 182.832941 84.837201 
L 183.097468 84.837201 
L 183.172886 85.085869 
L 183.209955 85.085869 
L 183.209955 85.21152 
L 183.343566 85.21152 
L 183.343566 85.338065 
L 183.559728 85.338065 
L 183.559728 85.465517 
L 184.488941 85.465517 
L 184.488941 85.593889 
L 184.81034 85.593889 
L 184.81034 85.723195 
L 185.072044 85.723195 
L 185.072044 85.853448 
L 186.405613 85.853448 
L 186.450656 86.250033 
L 186.77191 86.250033 
L 186.77191 86.384218 
L 187.018784 86.384218 
L 187.018784 86.519424 
L 187.670843 86.519424 
L 187.670843 86.655666 
L 187.79875 86.655666 
L 187.805972 86.931322 
L 188.030975 86.931322 
L 188.045462 87.21132 
L 188.294588 87.21132 
L 188.294588 87.35299 
L 188.540291 87.35299 
L 188.540291 87.495798 
L 188.799957 87.495798 
L 188.799957 87.639762 
L 189.040806 87.639762 
L 189.040806 87.784901 
L 189.814447 87.784901 
L 189.814447 87.931235 
L 190.17929 87.931235 
L 190.17929 88.078784 
L 190.389984 88.078784 
L 190.451924 88.528921 
L 190.60377 88.528921 
L 190.709099 88.835471 
L 190.963732 88.835471 
L 190.963732 88.990752 
L 191.944923 88.990752 
L 191.944923 89.1474 
L 192.245055 89.1474 
L 192.274136 89.464899 
L 193.13149 89.464899 
L 193.13149 89.6258 
L 193.261001 89.6258 
L 193.261001 89.788171 
L 193.460942 89.788171 
L 193.460942 89.952039 
L 193.602613 89.952039 
L 193.602613 90.11743 
L 194.055675 90.11743 
L 194.083907 90.452902 
L 194.224548 90.452902 
L 194.224548 90.623042 
L 195.527427 90.623042 
L 195.527427 90.794826 
L 196.326042 90.794826 
L 196.326042 90.968285 
L 196.885675 90.968285 
L 196.885675 91.143454 
L 197.915818 91.143454 
L 197.915818 91.320366 
L 198.794076 91.320366 
L 198.794076 91.499056 
L 200.030956 91.499056 
L 200.086324 91.861915 
L 200.143313 91.861915 
L 200.143313 92.04616 
L 200.503532 92.04616 
L 200.503532 92.232334 
L 200.751615 92.232334 
L 200.751615 92.420478 
L 201.496254 92.420478 
L 201.496254 92.610635 
L 202.014926 92.610635 
L 202.014926 92.802847 
L 202.366682 92.802847 
L 202.366682 92.997161 
L 202.627045 92.997161 
L 202.627045 93.193621 
L 203.294612 93.193621 
L 203.294612 93.392276 
L 204.63666 93.392276 
L 204.63666 93.593177 
L 204.783316 93.593177 
L 204.783316 93.796373 
L 205.25321 93.796373 
L 205.25321 94.001918 
L 205.781661 94.001918 
L 205.781661 94.209868 
L 206.257935 94.209868 
L 206.257935 94.420278 
L 206.842326 94.420278 
L 206.842326 94.633209 
L 208.648904 94.633209 
L 208.648904 94.84872 
L 209.277645 94.84872 
L 209.277645 95.066876 
L 210.926039 95.066876 
L 210.926039 95.287742 
L 211.250106 95.287742 
L 211.250106 95.511386 
L 211.825861 95.511386 
L 211.825861 95.737879 
L 212.022858 95.737879 
L 212.022858 95.967295 
L 212.407775 95.967295 
L 212.407775 96.19971 
L 212.678552 96.19971 
L 212.678552 96.435203 
L 212.899843 96.435203 
L 212.899843 96.673858 
L 213.466532 96.673858 
L 213.466532 96.915759 
L 213.754723 96.915759 
L 213.754723 97.160997 
L 214.306334 97.160997 
L 214.306334 97.409665 
L 214.827333 97.409665 
L 214.827333 97.661861 
L 215.497331 97.661861 
L 215.579537 98.177244 
L 215.897807 98.177244 
L 215.897807 98.440648 
L 217.943942 98.440648 
L 217.943942 98.708014 
L 218.51466 98.708014 
L 218.51466 98.979462 
L 219.341211 98.979462 
L 219.341211 99.255118 
L 219.565215 99.255118 
L 219.565215 99.535116 
L 221.860214 99.535116 
L 221.860214 99.819593 
L 228.680717 99.819593 
L 228.680717 100.108697 
L 229.428525 100.108697 
L 229.428525 100.402579 
L 230.701366 100.402579 
L 230.701366 100.701401 
L 231.814575 100.701401 
L 231.814575 101.005331 
L 232.666423 101.005331 
L 232.666423 101.314548 
L 233.108141 101.314548 
L 233.108141 101.629237 
L 233.918039 101.629237 
L 233.918039 101.949596 
L 235.965882 101.949596 
L 236.003565 102.608171 
L 236.48604 102.608171 
L 236.558968 103.644162 
L 237.398213 103.644162 
L 237.476893 104.744274 
L 237.890429 104.744274 
L 237.890429 105.126643 
L 240.728385 105.126643 
L 240.728385 105.517417 
L 241.702982 105.517417 
L 241.702982 105.916973 
L 241.917276 105.916973 
L 241.917276 106.325714 
L 243.662895 106.325714 
L 243.662895 106.744074 
L 244.508185 106.744074 
L 244.508185 107.172516 
L 246.14837 107.172516 
L 246.14837 107.611538 
L 246.278015 107.611538 
L 246.278015 108.061675 
L 247.077293 108.061675 
L 247.077293 108.523506 
L 247.560982 108.523506 
L 247.560982 108.997654 
L 248.234312 108.997654 
L 248.234312 109.484793 
L 248.453986 109.484793 
L 248.453986 109.985657 
L 248.588135 109.985657 
L 248.588135 110.50104 
L 250.176474 110.50104 
L 250.176474 111.03181 
L 255.25477 111.03181 
L 255.25477 111.578914 
L 255.957977 111.578914 
L 255.957977 112.143389 
L 257.147502 112.143389 
L 257.147502 112.726375 
L 259.108605 112.726375 
L 259.108605 113.329127 
L 259.486221 113.329127 
L 259.486221 113.953033 
L 261.773796 113.953033 
L 261.773796 114.599631 
L 262.916355 114.599631 
L 262.916355 115.270634 
L 265.310167 115.270634 
L 265.310167 115.967958 
L 266.273399 115.967958 
L 266.319841 117.450439 
L 277.109665 117.450439 
L 277.109665 118.240769 
L 277.519675 118.240769 
L 277.519675 119.06787 
L 279.348208 119.06787 
L 279.348208 119.935334 
L 289.578252 119.935334 
L 289.578252 120.847302 
L 292.069191 120.847302 
L 292.069191 121.808589 
L 295.527267 121.808589 
L 295.527267 122.824836 
L 298.741447 122.824836 
L 298.741447 123.90271 
L 298.973945 123.90271 
L 298.973945 125.050171 
L 299.21306 125.050171 
L 299.21306 126.276829 
L 303.130783 126.276829 
L 303.130783 127.59443 
L 314.836349 127.59443 
L 314.836349 129.017548 
L 326.294811 129.017548 
L 326.294811 130.564565 
L 330.806866 130.564565 
L 330.806866 132.25913 
L 332.311559 132.25913 
L 332.311559 134.132385 
L 362.244239 134.132385 
L 362.244239 136.226506 
L 364.57729 136.226506 
L 364.57729 138.600625 
L 371.675587 138.600625 
L 371.675587 141.341343 
L 376.539181 141.341343 
L 376.539181 144.582926 
L 384.569226 144.582926 
L 384.569226 148.550302 
L 394.134968 148.550302 
L 394.134968 153.665139 
L 420.01131 153.665139 
L 420.01131 160.874098 
L 443.925428 160.874098 
L 443.925428 173.197894 
L 486.820127 173.197894 
L 486.820127 505 
L 486.820127 505 
" clip-path="url(#p8c439981b7)" style="fill: none; stroke: #4d3c2f; stroke-width: 3; stroke-linecap: round"/>
   </g>
   <g id="line2d_10">
    <path d="M -1 39.880466 
L 1.281955 39.930961 
L 11.612554 40.238707 
L 21.943153 40.644226 
L 32.273753 41.167823 
L 42.604352 41.831052 
L 52.934952 42.65622 
L 63.265551 43.665897 
L 73.59615 44.882446 
L 83.92675 46.327628 
L 94.257349 48.022276 
L 104.587949 49.986058 
L 114.918548 52.237326 
L 125.249148 54.793031 
L 135.579747 57.668704 
L 145.910346 60.87848 
L 156.240946 64.435152 
L 166.571545 68.350256 
L 176.902145 72.634159 
L 187.232744 77.296162 
L 197.563343 82.344593 
L 207.893943 87.786907 
L 218.224542 93.629775 
L 228.555142 99.879168 
L 238.885741 106.540437 
L 249.21634 113.618375 
L 259.54694 121.117287 
L 269.877539 129.041043 
L 280.208139 137.393125 
L 290.538738 146.176674 
L 300.869338 155.394527 
L 311.199937 165.04925 
L 321.530536 175.143171 
L 331.861136 185.678403 
L 342.191735 196.656868 
L 352.522335 208.080321 
L 362.852934 219.950362 
L 373.183533 232.268454 
L 383.514133 245.035942 
L 393.844732 258.254056 
L 404.175332 271.923932 
L 414.505931 286.046613 
L 424.83653 300.623062 
L 435.16713 315.654172 
L 445.497729 331.140766 
L 455.828329 347.08361 
L 466.158928 363.483413 
L 476.489528 380.340835 
L 486.820127 397.656491 
" clip-path="url(#p8c439981b7)" style="fill: none; stroke: #3a578a; stroke-width: 2; stroke-linecap: round"/>
   </g>
   <g id="patch_3">
    <path d="M 112.158003 415.58 
L 112.158003 39.186313 
" style="fill: none; stroke: #ffffff; stroke-width: 2.5; stroke-linejoin: miter; stroke-linecap: square"/>
   </g>
   <g id="patch_4">
    <path d="M 486.820127 415.58 
L 486.820127 39.186313 
" style="fill: none; stroke: #ffffff; stroke-width: 2.5; stroke-linejoin: miter; stroke-linecap: square"/>
   </g>
   <g id="patch_5">
    <path d="M 112.158003 415.58 
L 486.820127 415.58 
" style="fill: none; stroke: #ffffff; stroke-width: 2.5; stroke-linejoin: miter; stroke-linecap: square"/>
   </g>
   <g id="patch_6">
    <path d="M 112.158003 39.186312 
L 486.820127 39.186312 
" style="fill: none; stroke: #ffffff; stroke-width: 2.5; stroke-linejoin: miter; stroke-linecap: square"/>
   </g>
   <g id="legend_1">
    <g id="patch_7">
     <path d="M 127.558003 404.58 
L 326.328003 404.58 
Q 330.728003 404.58 330.728003 400.18 
L 330.728003 340.140625 
Q 330.728003 335.740625 326.328003 335.740625 
L 127.558003 335.740625 
Q 123.158003 335.740625 123.158003 340.140625 
L 123.158003 400.18 
Q 123.158003 404.58 127.558003 404.58 
z
" style="fill: #e5e5e5; opacity: 0.8; stroke: #cccccc; stroke-width: 2; stroke-linejoin: miter"/>
    </g>
    <g id="line2d_11">
     <path d="M 131.958003 352.587813 
L 153.958003 352.587813 
L 153.958003 352.587813 
L 175.958003 352.587813 
L 175.958003 352.587813 
" style="fill: none; stroke: #4d3c2f; stroke-width: 3; stroke-linecap: round"/>
    </g>
    <g id="text_11">
     <!-- Empirical -->
     <g style="fill: #262626" transform="translate(193.558003 360.287813)scale(0.22 -0.22)">
      <defs>
       <path id="ArialMT-45" d="M 506 0 
L 506 4581 
L 3819 4581 
L 3819 4041 
L 1113 4041 
L 1113 2638 
L 3647 2638 
L 3647 2100 
L 1113 2100 
L 1113 541 
L 3925 541 
L 3925 0 
L 506 0 
z
" transform="scale(0.015625)"/>
       <path id="ArialMT-6d" d="M 422 0 
L 422 3319 
L 925 3319 
L 925 2853 
Q 1081 3097 1340 3245 
Q 1600 3394 1931 3394 
Q 2300 3394 2536 3241 
Q 2772 3088 2869 2813 
Q 3263 3394 3894 3394 
Q 4388 3394 4653 3120 
Q 4919 2847 4919 2278 
L 4919 0 
L 4359 0 
L 4359 2091 
Q 4359 2428 4304 2576 
Q 4250 2725 4106 2815 
Q 3963 2906 3769 2906 
Q 3419 2906 3187 2673 
Q 2956 2441 2956 1928 
L 2956 0 
L 2394 0 
L 2394 2156 
Q 2394 2531 2256 2718 
Q 2119 2906 1806 2906 
Q 1569 2906 1367 2781 
Q 1166 2656 1075 2415 
Q 984 2175 984 1722 
L 984 0 
L 422 0 
z
" transform="scale(0.015625)"/>
       <path id="ArialMT-63" d="M 2588 1216 
L 3141 1144 
Q 3050 572 2676 248 
Q 2303 -75 1759 -75 
Q 1078 -75 664 370 
Q 250 816 250 1647 
Q 250 2184 428 2587 
Q 606 2991 970 3192 
Q 1334 3394 1763 3394 
Q 2303 3394 2647 3120 
Q 2991 2847 3088 2344 
L 2541 2259 
Q 2463 2594 2264 2762 
Q 2066 2931 1784 2931 
Q 1359 2931 1093 2626 
Q 828 2322 828 1663 
Q 828 994 1084 691 
Q 1341 388 1753 388 
Q 2084 388 2306 591 
Q 2528 794 2588 1216 
z
" transform="scale(0.015625)"/>
      </defs>
      <use xlink:href="#ArialMT-45"/>
      <use xlink:href="#ArialMT-6d" x="66.699219"/>
      <use xlink:href="#ArialMT-70" x="150"/>
      <use xlink:href="#ArialMT-69" x="205.615234"/>
      <use xlink:href="#ArialMT-72" x="227.832031"/>
      <use xlink:href="#ArialMT-69" x="261.132812"/>
      <use xlink:href="#ArialMT-63" x="283.349609"/>
      <use xlink:href="#ArialMT-61" x="333.349609"/>
      <use xlink:href="#ArialMT-6c" x="388.964844"/>
     </g>
    </g>
    <g id="line2d_12">
     <path d="M 131.958003 383.7075 
L 153.958003 383.7075 
L 175.958003 383.7075 
" style="fill: none; stroke: #3a578a; stroke-width: 2; stroke-linecap: round"/>
    </g>
    <g id="text_12">
     <!-- Fitted normal -->
     <g style="fill: #262626" transform="translate(193.558003 391.4075)scale(0.22 -0.22)">
      <defs>
       <path id="ArialMT-46" d="M 525 0 
L 525 4581 
L 3616 4581 
L 3616 4041 
L 1131 4041 
L 1131 2622 
L 3281 2622 
L 3281 2081 
L 1131 2081 
L 1131 0 
L 525 0 
z
" transform="scale(0.015625)"/>
       <path id="ArialMT-64" d="M 2575 0 
L 2575 419 
Q 2259 -75 1647 -75 
Q 1250 -75 917 144 
Q 584 363 401 755 
Q 219 1147 219 1656 
Q 219 2153 384 2558 
Q 550 2963 881 3178 
Q 1213 3394 1622 3394 
Q 1922 3394 2156 3267 
Q 2391 3141 2538 2938 
L 2538 4581 
L 3097 4581 
L 3097 0 
L 2575 0 
z
M 797 1656 
Q 797 1019 1065 703 
Q 1334 388 1700 388 
Q 2069 388 2326 689 
Q 2584 991 2584 1609 
Q 2584 2291 2321 2609 
Q 2059 2928 1675 2928 
Q 1300 2928 1048 2622 
Q 797 2316 797 1656 
z
" transform="scale(0.015625)"/>
       <path id="ArialMT-20" transform="scale(0.015625)"/>
      </defs>
      <use xlink:href="#ArialMT-46"/>
      <use xlink:href="#ArialMT-69" x="61.083984"/>
      <use xlink:href="#ArialMT-74" x="83.300781"/>
      <use xlink:href="#ArialMT-74" x="111.083984"/>
      <use xlink:href="#ArialMT-65" x="138.867188"/>
      <use xlink:href="#ArialMT-64" x="194.482422"/>
      <use xlink:href="#ArialMT-20" x="250.097656"/>
      <use xlink:href="#ArialMT-6e" x="277.880859"/>
      <use xlink:href="#ArialMT-6f" x="333.496094"/>
      <use xlink:href="#ArialMT-72" x="389.111328"/>
      <use xlink:href="#ArialMT-6d" x="422.412109"/>
      <use xlink:href="#ArialMT-61" x="505.712891"/>
      <use xlink:href="#ArialMT-6c" x="561.328125"/>
     </g>
    </g>
   </g>
  </g>
  <g id="axes_2">
   <g id="patch_8">
    <path d="M 607.417876 415.58 
L 982.08 415.58 
L 982.08 39.186312 
L 607.417876 39.186312 
z
" style="fill: #e5e5e5"/>
   </g>
   <g id="matplotlib.axis_3">
    <g id="xtick_4">
     <g id="line2d_13">
      <path d="M 607.417876 415.58 
L 607.417876 39.186312 
" clip-path="url(#p0f65d92206)" style="fill: none; stroke: #ffffff; stroke-width: 2; stroke-linecap: round"/>
     </g>
     <g id="text_13">
      <!-- 0.00 -->
      <g style="fill: #555555" transform="translate(586.010845 446.827188)scale(0.22 -0.22)">
       <use xlink:href="#ArialMT-30"/>
       <use xlink:href="#ArialMT-2e" x="55.615234"/>
       <use xlink:href="#ArialMT-30" x="83.398438"/>
       <use xlink:href="#ArialMT-30" x="139.013672"/>
      </g>
     </g>
    </g>
    <g id="xtick_5">
     <g id="line2d_14">
      <path d="M 691.070204 415.58 
L 691.070204 39.186312 
" clip-path="url(#p0f65d92206)" style="fill: none; stroke: #ffffff; stroke-width: 2; stroke-linecap: round"/>
     </g>
     <g id="text_14">
      <!-- 0.05 -->
      <g style="fill: #555555" transform="translate(669.663173 446.827188)scale(0.22 -0.22)">
       <use xlink:href="#ArialMT-30"/>
       <use xlink:href="#ArialMT-2e" x="55.615234"/>
       <use xlink:href="#ArialMT-30" x="83.398438"/>
       <use xlink:href="#ArialMT-35" x="139.013672"/>
      </g>
     </g>
    </g>
    <g id="xtick_6">
     <g id="line2d_15">
      <path d="M 774.722532 415.58 
L 774.722532 39.186312 
" clip-path="url(#p0f65d92206)" style="fill: none; stroke: #ffffff; stroke-width: 2; stroke-linecap: round"/>
     </g>
     <g id="text_15">
      <!-- 0.10 -->
      <g style="fill: #555555" transform="translate(753.3155 446.827188)scale(0.22 -0.22)">
       <use xlink:href="#ArialMT-30"/>
       <use xlink:href="#ArialMT-2e" x="55.615234"/>
       <use xlink:href="#ArialMT-31" x="83.398438"/>
       <use xlink:href="#ArialMT-30" x="139.013672"/>
      </g>
     </g>
    </g>
    <g id="xtick_7">
     <g id="line2d_16">
      <path d="M 858.374859 415.58 
L 858.374859 39.186312 
" clip-path="url(#p0f65d92206)" style="fill: none; stroke: #ffffff; stroke-width: 2; stroke-linecap: round"/>
     </g>
     <g id="text_16">
      <!-- 0.15 -->
      <g style="fill: #555555" transform="translate(836.967828 446.827188)scale(0.22 -0.22)">
       <use xlink:href="#ArialMT-30"/>
       <use xlink:href="#ArialMT-2e" x="55.615234"/>
       <use xlink:href="#ArialMT-31" x="83.398438"/>
       <use xlink:href="#ArialMT-35" x="139.013672"/>
      </g>
     </g>
    </g>
    <g id="xtick_8">
     <g id="line2d_17">
      <path d="M 942.027187 415.58 
L 942.027187 39.186312 
" clip-path="url(#p0f65d92206)" style="fill: none; stroke: #ffffff; stroke-width: 2; stroke-linecap: round"/>
     </g>
     <g id="text_17">
      <!-- 0.20 -->
      <g style="fill: #555555" transform="translate(920.620156 446.827188)scale(0.22 -0.22)">
       <use xlink:href="#ArialMT-30"/>
       <use xlink:href="#ArialMT-2e" x="55.615234"/>
       <use xlink:href="#ArialMT-32" x="83.398438"/>
       <use xlink:href="#ArialMT-30" x="139.013672"/>
      </g>
     </g>
    </g>
    <g id="text_18">
     <!-- CrudeOil -->
     <g style="fill: #555555" transform="translate(747.401438 472.378438)scale(0.24 -0.24)">
      <defs>
       <path id="ArialMT-43" d="M 3763 1606 
L 4369 1453 
Q 4178 706 3683 314 
Q 3188 -78 2472 -78 
Q 1731 -78 1267 223 
Q 803 525 561 1097 
Q 319 1669 319 2325 
Q 319 3041 592 3573 
Q 866 4106 1370 4382 
Q 1875 4659 2481 4659 
Q 3169 4659 3637 4309 
Q 4106 3959 4291 3325 
L 3694 3184 
Q 3534 3684 3231 3912 
Q 2928 4141 2469 4141 
Q 1941 4141 1586 3887 
Q 1231 3634 1087 3207 
Q 944 2781 944 2328 
Q 944 1744 1114 1308 
Q 1284 872 1643 656 
Q 2003 441 2422 441 
Q 2931 441 3284 734 
Q 3638 1028 3763 1606 
z
" transform="scale(0.015625)"/>
       <path id="ArialMT-75" d="M 2597 0 
L 2597 488 
Q 2209 -75 1544 -75 
Q 1250 -75 995 37 
Q 741 150 617 320 
Q 494 491 444 738 
Q 409 903 409 1263 
L 409 3319 
L 972 3319 
L 972 1478 
Q 972 1038 1006 884 
Q 1059 663 1231 536 
Q 1403 409 1656 409 
Q 1909 409 2131 539 
Q 2353 669 2445 892 
Q 2538 1116 2538 1541 
L 2538 3319 
L 3100 3319 
L 3100 0 
L 2597 0 
z
" transform="scale(0.015625)"/>
      </defs>
      <use xlink:href="#ArialMT-43"/>
      <use xlink:href="#ArialMT-72" x="72.216797"/>
      <use xlink:href="#ArialMT-75" x="105.517578"/>
      <use xlink:href="#ArialMT-64" x="161.132812"/>
      <use xlink:href="#ArialMT-65" x="216.748047"/>
      <use xlink:href="#ArialMT-4f" x="272.363281"/>
      <use xlink:href="#ArialMT-69" x="350.146484"/>
      <use xlink:href="#ArialMT-6c" x="372.363281"/>
     </g>
    </g>
   </g>
   <g id="matplotlib.axis_4">
    <g id="ytick_6">
     <g id="line2d_18">
      <path d="M 607.417876 365.265309 
L 982.08 365.265309 
" clip-path="url(#p0f65d92206)" style="fill: none; stroke: #ffffff; stroke-width: 2; stroke-linecap: round"/>
     </g>
     <g id="text_19">
      <!-- $\mathdefault{10^{-10}}$ -->
      <g style="fill: #555555" transform="translate(539.777876 376.609059)scale(0.22 -0.22)">
       <use xlink:href="#ArialMT-31" transform="translate(0 0.99375)"/>
       <use xlink:href="#ArialMT-30" transform="translate(55.615234 0.99375)"/>
       <use xlink:href="#ArialMT-2212" transform="translate(112.972813 70.6875)scale(0.7)"/>
       <use xlink:href="#ArialMT-31" transform="translate(153.851719 70.6875)scale(0.7)"/>
       <use xlink:href="#ArialMT-30" transform="translate(192.782383 70.6875)scale(0.7)"/>
      </g>
     </g>
    </g>
    <g id="ytick_7">
     <g id="line2d_19">
      <path d="M 607.417876 300.04951 
L 982.08 300.04951 
" clip-path="url(#p0f65d92206)" style="fill: none; stroke: #ffffff; stroke-width: 2; stroke-linecap: round"/>
     </g>
     <g id="text_20">
      <!-- $\mathdefault{10^{-8}}$ -->
      <g style="fill: #555555" transform="translate(548.357876 311.39326)scale(0.22 -0.22)">
       <use xlink:href="#ArialMT-31" transform="translate(0 0.99375)"/>
       <use xlink:href="#ArialMT-30" transform="translate(55.615234 0.99375)"/>
       <use xlink:href="#ArialMT-2212" transform="translate(112.972813 70.6875)scale(0.7)"/>
       <use xlink:href="#ArialMT-38" transform="translate(153.851719 70.6875)scale(0.7)"/>
      </g>
     </g>
    </g>
    <g id="ytick_8">
     <g id="line2d_20">
      <path d="M 607.417876 234.833711 
L 982.08 234.833711 
" clip-path="url(#p0f65d92206)" style="fill: none; stroke: #ffffff; stroke-width: 2; stroke-linecap: round"/>
     </g>
     <g id="text_21">
      <!-- $\mathdefault{10^{-6}}$ -->
      <g style="fill: #555555" transform="translate(548.357876 246.177461)scale(0.22 -0.22)">
       <use xlink:href="#ArialMT-31" transform="translate(0 0.99375)"/>
       <use xlink:href="#ArialMT-30" transform="translate(55.615234 0.99375)"/>
       <use xlink:href="#ArialMT-2212" transform="translate(112.972813 70.6875)scale(0.7)"/>
       <use xlink:href="#ArialMT-36" transform="translate(153.851719 70.6875)scale(0.7)"/>
      </g>
     </g>
    </g>
    <g id="ytick_9">
     <g id="line2d_21">
      <path d="M 607.417876 169.617911 
L 982.08 169.617911 
" clip-path="url(#p0f65d92206)" style="fill: none; stroke: #ffffff; stroke-width: 2; stroke-linecap: round"/>
     </g>
     <g id="text_22">
      <!-- $\mathdefault{10^{-4}}$ -->
      <g style="fill: #555555" transform="translate(548.357876 180.851661)scale(0.22 -0.22)">
       <use xlink:href="#ArialMT-31" transform="translate(0 0.201563)"/>
       <use xlink:href="#ArialMT-30" transform="translate(55.615234 0.201563)"/>
       <use xlink:href="#ArialMT-2212" transform="translate(112.972813 69.895313)scale(0.7)"/>
       <use xlink:href="#ArialMT-34" transform="translate(153.851719 69.895313)scale(0.7)"/>
      </g>
     </g>
    </g>
    <g id="ytick_10">
     <g id="line2d_22">
      <path d="M 607.417876 104.402112 
L 982.08 104.402112 
" clip-path="url(#p0f65d92206)" style="fill: none; stroke: #ffffff; stroke-width: 2; stroke-linecap: round"/>
     </g>
     <g id="text_23">
      <!-- $\mathdefault{10^{-2}}$ -->
      <g style="fill: #555555" transform="translate(548.357876 115.745862)scale(0.22 -0.22)">
       <use xlink:href="#ArialMT-31" transform="translate(0 0.99375)"/>
       <use xlink:href="#ArialMT-30" transform="translate(55.615234 0.99375)"/>
       <use xlink:href="#ArialMT-2212" transform="translate(112.972813 70.6875)scale(0.7)"/>
       <use xlink:href="#ArialMT-32" transform="translate(153.851719 70.6875)scale(0.7)"/>
      </g>
     </g>
    </g>
    <g id="ytick_11">
     <g id="line2d_23">
      <path d="M 607.417876 39.186312 
L 982.08 39.186312 
" clip-path="url(#p0f65d92206)" style="fill: none; stroke: #ffffff; stroke-width: 2; stroke-linecap: round"/>
     </g>
     <g id="text_24">
      <!-- $\mathdefault{10^{0}}$ -->
      <g style="fill: #555555" transform="translate(557.377876 50.530062)scale(0.22 -0.22)">
       <use xlink:href="#ArialMT-31" transform="translate(0 0.99375)"/>
       <use xlink:href="#ArialMT-30" transform="translate(55.615234 0.99375)"/>
       <use xlink:href="#ArialMT-30" transform="translate(112.972813 70.6875)scale(0.7)"/>
      </g>
     </g>
    </g>
    <g id="text_25">
     <!-- Proportion -->
     <g style="fill: #555555" transform="translate(531.007876 282.744406)rotate(-90)scale(0.24 -0.24)">
      <use xlink:href="#ArialMT-50"/>
      <use xlink:href="#ArialMT-72" x="66.699219"/>
      <use xlink:href="#ArialMT-6f" x="100"/>
      <use xlink:href="#ArialMT-70" x="155.615234"/>
      <use xlink:href="#ArialMT-6f" x="211.230469"/>
      <use xlink:href="#ArialMT-72" x="266.845703"/>
      <use xlink:href="#ArialMT-74" x="300.146484"/>
      <use xlink:href="#ArialMT-69" x="327.929688"/>
      <use xlink:href="#ArialMT-6f" x="350.146484"/>
      <use xlink:href="#ArialMT-6e" x="405.761719"/>
     </g>
    </g>
   </g>
   <g id="line2d_24">
    <path d="M 607.260138 48.491023 
L 607.884751 48.593272 
L 607.95844 48.652034 
L 608.238601 48.755456 
L 608.275336 48.814896 
L 608.654696 48.919519 
L 608.762949 48.979652 
L 608.960921 49.085504 
L 609.063406 49.176869 
L 609.463916 49.284211 
L 609.562433 49.376871 
L 609.639507 49.485745 
L 609.734363 49.548337 
L 610.29006 49.658544 
L 610.397479 49.737791 
L 610.815846 49.833477 
L 610.845861 49.865516 
L 611.193344 49.962072 
L 611.297274 50.02681 
L 611.794823 50.124475 
L 611.883504 50.189962 
L 612.177614 50.288763 
L 612.177614 50.305297 
L 612.537585 50.404909 
L 612.646151 50.505226 
L 613.07963 50.606259 
L 613.17818 50.674018 
L 613.613587 50.776267 
L 613.707059 50.879259 
L 613.939272 50.983007 
L 614.013771 51.035167 
L 614.306717 51.140067 
L 614.387876 51.175207 
L 614.555995 51.281153 
L 614.647336 51.405767 
L 614.974345 51.513459 
L 615.038772 51.567614 
L 615.296983 51.676548 
L 615.381619 51.731332 
L 615.720854 51.841538 
L 615.804092 51.878465 
L 616.03352 51.971205 
L 616.053359 52.027143 
L 616.437017 52.120865 
L 616.529056 52.196292 
L 616.66977 52.291145 
L 616.767936 52.405813 
L 616.943392 52.502084 
L 617.042332 52.599014 
L 617.399233 52.696612 
L 617.477563 52.794888 
L 617.71358 52.89385 
L 617.813935 52.993509 
L 618.114519 53.093873 
L 618.208394 53.174681 
L 618.434394 53.276343 
L 618.53811 53.399308 
L 618.818165 53.502601 
L 618.910881 53.564941 
L 619.335425 53.669454 
L 619.441394 53.732533 
L 619.714426 53.838295 
L 619.779653 53.880822 
L 620.288463 53.987701 
L 620.349323 54.03068 
L 620.666884 54.1387 
L 620.715534 54.247551 
L 620.956066 54.357245 
L 621.048146 54.423472 
L 621.185473 54.534543 
L 621.193415 54.579216 
L 621.42634 54.668988 
L 621.52297 54.736692 
L 621.903218 54.827471 
L 621.964959 54.895938 
L 622.185863 54.987747 
L 622.240955 55.033876 
L 622.646591 55.126586 
L 622.751594 55.243334 
L 622.914164 55.33743 
L 623.011144 55.408415 
L 623.281931 55.503618 
L 623.367597 55.623529 
L 623.562482 55.720195 
L 623.655738 55.841962 
L 624.355184 55.940135 
L 624.46377 56.038993 
L 624.663064 56.138547 
L 624.770041 56.263981 
L 624.889416 56.365135 
L 624.889416 56.390536 
L 625.159787 56.492601 
L 625.18861 56.569635 
L 625.415583 56.673004 
L 625.445876 56.724973 
L 625.764167 56.829485 
L 625.842443 56.934775 
L 626.065028 57.040854 
L 626.111328 57.120938 
L 626.394033 57.228425 
L 626.417585 57.282477 
L 626.682462 57.391202 
L 626.703929 57.44588 
L 626.997204 57.555872 
L 626.997204 57.583504 
L 627.283468 57.694575 
L 627.332369 57.750438 
L 627.602765 57.834649 
L 627.704404 57.919364 
L 628.07952 58.004588 
L 628.07952 58.033111 
L 628.47067 58.119025 
L 628.575217 58.263383 
L 628.687313 58.35071 
L 628.779704 58.46799 
L 629.093276 58.556591 
L 629.141508 58.64575 
L 629.322267 58.735475 
L 629.322267 58.76551 
L 629.607902 58.855998 
L 629.704268 58.947069 
L 629.974487 59.038729 
L 629.992514 59.130986 
L 630.345386 59.223848 
L 630.420712 59.348619 
L 630.5812 59.442924 
L 630.687327 59.537862 
L 631.114313 59.63344 
L 631.193905 59.697519 
L 631.517875 59.794184 
L 631.57517 59.891514 
L 631.816157 59.989517 
L 631.906516 60.121253 
L 632.104457 60.220865 
L 632.209606 60.287664 
L 632.469309 60.388457 
L 632.556783 60.456054 
L 632.7767 60.558057 
L 632.7767 60.592223 
L 633.183414 60.695215 
L 633.293951 60.868552 
L 633.645356 60.973582 
L 633.665064 61.044037 
L 634.350653 61.150381 
L 634.350653 61.186007 
L 634.61037 61.293427 
L 634.6185 61.365495 
L 634.881028 61.47429 
L 634.881028 61.510742 
L 635.120369 61.620663 
L 635.120369 61.657494 
L 635.335868 61.768564 
L 635.418415 61.843098 
L 635.536968 61.918027 
L 635.606301 62.183443 
L 635.831354 62.260199 
L 635.931005 62.376118 
L 636.288088 62.453929 
L 636.389103 62.571452 
L 636.802545 62.650346 
L 636.802545 62.689958 
L 637.105159 62.769517 
L 637.105159 62.809464 
L 637.623376 62.889699 
L 637.716746 62.970392 
L 637.752885 63.051546 
L 637.780451 63.133168 
L 637.889044 63.215264 
L 637.957637 63.339306 
L 638.236595 63.422609 
L 638.267203 63.548489 
L 638.686119 63.633035 
L 638.774419 63.718089 
L 639.133994 63.803657 
L 639.133994 63.846636 
L 639.363097 63.932986 
L 639.387891 64.019866 
L 639.644488 64.107283 
L 639.644488 64.151194 
L 639.857515 64.239428 
L 639.955785 64.372818 
L 640.151826 64.462447 
L 640.217806 64.597964 
L 640.534931 64.689035 
L 640.534931 64.734791 
L 640.909982 64.826748 
L 640.996727 64.965814 
L 641.222824 65.059289 
L 641.222824 65.106259 
L 641.554279 65.200669 
L 641.554279 65.248111 
L 641.932053 65.343475 
L 642.016822 65.439485 
L 642.093657 65.53615 
L 642.10423 65.63348 
L 642.383846 65.731484 
L 642.383846 65.780741 
L 643.06382 65.879772 
L 643.100316 65.979501 
L 643.379894 66.079937 
L 643.379894 66.130424 
L 643.714456 66.23194 
L 643.714456 66.282972 
L 643.93218 66.385591 
L 643.966787 66.540929 
L 644.176032 66.645441 
L 644.284841 66.750731 
L 644.46768 66.85681 
L 644.568934 66.963689 
L 644.807796 67.071381 
L 644.896818 67.289254 
L 645.349156 67.39946 
L 645.38499 67.510531 
L 645.768802 67.566394 
L 645.829322 67.73532 
L 646.047482 67.792079 
L 646.107958 68.021419 
L 646.235466 68.079339 
L 646.235466 68.137497 
L 646.559005 68.195895 
L 646.635263 68.313418 
L 647.023787 68.372547 
L 647.116125 68.491551 
L 647.17238 68.551431 
L 647.271774 68.671954 
L 647.517125 68.732603 
L 647.565668 68.854685 
L 647.640398 68.916123 
L 647.734202 69.039804 
L 647.882224 69.102052 
L 647.944364 69.227376 
L 648.369593 69.290455 
L 648.369593 69.353818 
L 648.984656 69.417465 
L 648.984656 69.481399 
L 649.38428 69.545623 
L 649.38428 69.61014 
L 649.736547 69.674952 
L 649.836585 69.871188 
L 649.897797 69.937209 
L 649.967685 70.204413 
L 650.133606 70.27201 
L 650.209123 70.476757 
L 650.545104 70.545669 
L 650.545104 70.614918 
L 650.838476 70.684508 
L 650.84787 70.824721 
L 651.447958 70.895352 
L 651.538441 71.037679 
L 651.879716 71.109383 
L 651.922467 71.253888 
L 652.217507 71.326698 
L 652.217507 71.399884 
L 652.363627 71.47345 
L 652.363627 71.5474 
L 652.602181 71.621738 
L 652.702528 71.923057 
L 652.865854 71.999399 
L 652.865854 72.076155 
L 653.104738 72.153329 
L 653.195364 72.387408 
L 653.3199 72.466301 
L 653.335061 72.62542 
L 653.564718 72.705655 
L 653.564718 72.786347 
L 654.043022 72.867502 
L 654.121176 73.113794 
L 654.430455 73.196852 
L 654.512714 73.448991 
L 654.736165 73.534045 
L 654.736165 73.619613 
L 654.939181 73.705701 
L 654.939181 73.792316 
L 655.197784 73.879463 
L 655.209929 74.055384 
L 655.438882 74.144171 
L 655.527169 74.41392 
L 656.247889 74.504991 
L 656.247889 74.596651 
L 656.735697 74.688908 
L 656.735697 74.78177 
L 657.197057 74.875245 
L 657.208569 75.064067 
L 657.70544 75.159431 
L 657.764791 75.352106 
L 658.233751 75.449436 
L 658.233751 75.547439 
L 658.77871 75.646126 
L 658.842396 75.845586 
L 659.195369 75.946379 
L 659.203218 76.150145 
L 660.647601 76.253137 
L 660.647601 76.356884 
L 660.851624 76.461397 
L 660.851624 76.566687 
L 661.593482 76.672766 
L 661.593482 76.779645 
L 662.43464 76.887337 
L 662.43464 76.995854 
L 662.965703 77.10521 
L 663.030275 77.326486 
L 663.115547 77.326486 
L 663.115547 77.438435 
L 663.265145 77.438435 
L 663.265145 77.551276 
L 663.494762 77.551276 
L 663.598672 77.779691 
L 663.663121 77.779691 
L 663.749773 78.011851 
L 663.876794 78.011851 
L 663.876794 78.129374 
L 663.992888 78.129374 
L 664.066268 78.48791 
L 664.320491 78.48791 
L 664.320491 78.609468 
L 665.122568 78.609468 
L 665.122568 78.732079 
L 665.630109 78.732079 
L 665.630109 78.85576 
L 666.437427 78.85576 
L 666.437427 78.980531 
L 667.411996 78.980531 
L 667.512874 79.233421 
L 667.94446 79.233421 
L 667.958021 79.490908 
L 668.147594 79.490908 
L 668.15599 79.753164 
L 668.837712 79.753164 
L 668.837712 79.886137 
L 669.251324 79.886137 
L 669.251324 80.020369 
L 669.565439 80.020369 
L 669.565439 80.155886 
L 670.075453 80.155886 
L 670.075453 80.292713 
L 670.761029 80.292713 
L 670.761029 80.430874 
L 670.873891 80.430874 
L 670.95717 80.711308 
L 671.182826 80.711308 
L 671.182826 80.853635 
L 671.387439 80.853635 
L 671.387439 80.997407 
L 671.52712 80.997407 
L 671.52712 81.142654 
L 671.711573 81.142654 
L 671.711573 81.289406 
L 672.33526 81.289406 
L 672.33526 81.437694 
L 672.868519 81.437694 
L 672.868519 81.587552 
L 673.12993 81.587552 
L 673.12993 81.739013 
L 673.537944 81.739013 
L 673.537944 81.892111 
L 674.010903 81.892111 
L 674.010903 82.046882 
L 674.689163 82.046882 
L 674.689163 82.203363 
L 674.891961 82.203363 
L 674.891961 82.361593 
L 675.050224 82.361593 
L 675.050224 82.521611 
L 675.627606 82.521611 
L 675.627606 82.683458 
L 675.935823 82.683458 
L 675.935823 82.847176 
L 676.087871 82.847176 
L 676.087871 83.012808 
L 676.500219 83.012808 
L 676.500219 83.180401 
L 676.680577 83.180401 
L 676.680577 83.350001 
L 677.613181 83.350001 
L 677.613181 83.521657 
L 677.796244 83.521657 
L 677.796244 83.695419 
L 678.374972 83.695419 
L 678.374972 83.87134 
L 679.198884 83.87134 
L 679.198884 84.049473 
L 680.008419 84.049473 
L 680.059423 84.412607 
L 680.194351 84.412607 
L 680.240451 84.785298 
L 681.027441 84.785298 
L 681.07584 85.168062 
L 681.503797 85.168062 
L 681.503797 85.363395 
L 681.76669 85.363395 
L 681.774763 85.762335 
L 682.211243 85.762335 
L 682.211243 85.9661 
L 682.596632 85.9661 
L 682.596632 86.17284 
L 682.824376 86.17284 
L 682.824376 86.382643 
L 683.470427 86.382643 
L 683.470427 86.595601 
L 683.819295 86.595601 
L 683.819295 86.81181 
L 684.375968 86.81181 
L 684.375968 87.031372 
L 685.064045 87.031372 
L 685.064045 87.254391 
L 686.668725 87.254391 
L 686.758947 87.711251 
L 686.841179 87.711251 
L 686.841179 87.94533 
L 687.04897 87.94533 
L 687.04897 88.183342 
L 687.630268 88.183342 
L 687.630268 88.425424 
L 688.013176 88.425424 
L 688.013176 88.671716 
L 688.876935 88.671716 
L 688.876935 88.922367 
L 689.513489 88.922367 
L 689.513489 89.177535 
L 689.663567 89.177535 
L 689.678652 89.702093 
L 689.89162 89.702093 
L 689.89162 89.971842 
L 690.404085 89.971842 
L 690.404085 90.24683 
L 693.250818 90.24683 
L 693.250818 90.527264 
L 693.506892 90.527264 
L 693.506892 90.813363 
L 695.723863 90.813363 
L 695.723863 91.105361 
L 696.302671 91.105361 
L 696.302671 91.403508 
L 697.544409 91.403508 
L 697.65415 92.019319 
L 698.124091 92.019319 
L 698.124091 92.337567 
L 698.526703 92.337567 
L 698.526703 92.663132 
L 698.753659 92.663132 
L 698.753659 92.996357 
L 700.115722 92.996357 
L 700.125086 93.687296 
L 700.485517 93.687296 
L 700.485517 94.045832 
L 701.894566 94.045832 
L 701.894566 94.413682 
L 702.423803 94.413682 
L 702.423803 94.791343 
L 702.645125 94.791343 
L 702.645125 95.179351 
L 703.657945 95.179351 
L 703.657945 95.578291 
L 703.905175 95.578291 
L 703.905175 95.988796 
L 704.975148 95.988796 
L 704.975148 96.411557 
L 705.149821 96.411557 
L 705.149821 96.847328 
L 707.720814 96.847328 
L 707.720814 97.296935 
L 709.551594 97.296935 
L 709.551594 97.761285 
L 713.006695 97.761285 
L 713.006695 98.24138 
L 713.430321 98.24138 
L 713.430321 98.738323 
L 714.975217 98.738323 
L 714.975217 99.253341 
L 715.416538 99.253341 
L 715.416538 99.787798 
L 717.385188 99.787798 
L 717.385188 100.34322 
L 730.121431 100.34322 
L 730.121431 100.921317 
L 730.633216 100.921317 
L 730.633216 101.524022 
L 731.452492 101.524022 
L 731.452492 102.153523 
L 736.073658 102.153523 
L 736.073658 102.812313 
L 741.09968 102.812313 
L 741.09968 103.503252 
L 743.618494 103.503252 
L 743.618494 104.229638 
L 744.335439 104.229638 
L 744.335439 104.995307 
L 745.958454 104.995307 
L 745.958454 105.804752 
L 753.08431 105.804752 
L 753.08431 106.663283 
L 755.107566 106.663283 
L 755.107566 107.577241 
L 756.622968 107.577241 
L 756.622968 108.554279 
L 757.893284 108.554279 
L 757.893284 109.603754 
L 771.610168 109.603754 
L 771.610168 110.737273 
L 772.582894 110.737273 
L 772.582894 111.969479 
L 778.352244 111.969479 
L 778.352244 113.319207 
L 795.936155 113.319207 
L 795.936155 114.811263 
L 796.291813 114.811263 
L 796.291813 116.479239 
L 844.590243 116.479239 
L 844.590243 118.370235 
L 908.804022 118.370235 
L 908.804022 120.553229 
L 918.729209 120.553229 
L 918.729209 123.135163 
L 940.682399 123.135163 
L 940.682399 126.295195 
L 945.6063 126.295195 
L 945.6063 130.369185 
L 976.293225 130.369185 
L 976.293225 136.111151 
L 976.933674 136.111151 
L 976.933674 145.927107 
L 982.08 145.927107 
L 982.08 505 
L 982.08 505 
" clip-path="url(#p0f65d92206)" style="fill: none; stroke: #c07156; stroke-width: 3; stroke-linecap: round"/>
   </g>
   <g id="line2d_25">
    <path d="M -1 39.186312 
L 9.721647 39.186312 
L 24.021034 39.186312 
L 38.320422 39.186312 
L 52.61981 39.186312 
L 66.919197 39.186312 
L 81.218585 39.186312 
L 95.517972 39.186312 
L 109.81736 39.186312 
L 124.116747 39.186312 
L 138.416135 39.186312 
L 152.715522 39.186312 
L 167.01491 39.186313 
L 181.314297 39.186313 
L 195.613685 39.186313 
L 209.913073 39.186313 
L 224.21246 39.186313 
L 238.511848 39.186313 
L 252.811235 39.186313 
L 267.110623 39.186313 
L 281.41001 39.186313 
L 295.709398 39.186313 
L 310.008785 39.186313 
L 324.308173 39.186316 
L 338.60756 39.186324 
L 352.906948 39.186352 
L 367.206336 39.18644 
L 381.505723 39.186703 
L 395.805111 39.187437 
L 410.104498 39.189354 
L 424.403886 39.194047 
L 438.703273 39.20482 
L 453.002661 39.228006 
L 467.302048 39.274827 
L 481.601436 39.363631 
L 495.900823 39.522086 
L 510.200211 39.788697 
L 524.499599 40.213016 
L 538.798986 40.854248 
L 553.098374 41.778431 
L 567.397761 43.054823 
L 581.697149 44.752282 
L 595.996536 46.936262 
L 610.295924 49.66676 
L 624.595311 52.997218 
L 638.894699 56.974232 
L 653.194086 61.637797 
L 667.493474 67.021884 
L 681.792862 73.155157 
L 696.092249 80.061719 
L 710.391637 87.761814 
L 724.691024 96.272462 
L 738.990412 105.607999 
L 753.289799 115.780538 
L 767.589187 126.800353 
L 781.888574 138.676193 
L 796.187962 151.415542 
L 810.487349 165.024828 
L 824.786737 179.509604 
L 839.086125 194.87468 
L 853.385512 211.12425 
L 867.6849 228.26198 
L 881.984287 246.291091 
L 896.283675 265.214426 
L 910.583062 285.034501 
L 924.88245 305.753552 
L 939.181837 327.373575 
L 953.481225 349.896356 
L 967.780612 373.323487 
L 982.08 397.656491 
" clip-path="url(#p0f65d92206)" style="fill: none; stroke: #3a578a; stroke-width: 2; stroke-linecap: round"/>
   </g>
   <g id="patch_9">
    <path d="M 607.417876 415.58 
L 607.417876 39.186312 
" style="fill: none; stroke: #ffffff; stroke-width: 2.5; stroke-linejoin: miter; stroke-linecap: square"/>
   </g>
   <g id="patch_10">
    <path d="M 982.08 415.58 
L 982.08 39.186312 
" style="fill: none; stroke: #ffffff; stroke-width: 2.5; stroke-linejoin: miter; stroke-linecap: square"/>
   </g>
   <g id="patch_11">
    <path d="M 607.417876 415.58 
L 982.08 415.58 
" style="fill: none; stroke: #ffffff; stroke-width: 2.5; stroke-linejoin: miter; stroke-linecap: square"/>
   </g>
   <g id="patch_12">
    <path d="M 607.417876 39.186312 
L 982.08 39.186312 
" style="fill: none; stroke: #ffffff; stroke-width: 2.5; stroke-linejoin: miter; stroke-linecap: square"/>
   </g>
   <g id="legend_2">
    <g id="patch_13">
     <path d="M 622.817876 404.58 
L 821.587876 404.58 
Q 825.987876 404.58 825.987876 400.18 
L 825.987876 340.140625 
Q 825.987876 335.740625 821.587876 335.740625 
L 622.817876 335.740625 
Q 618.417876 335.740625 618.417876 340.140625 
L 618.417876 400.18 
Q 618.417876 404.58 622.817876 404.58 
z
" style="fill: #e5e5e5; opacity: 0.8; stroke: #cccccc; stroke-width: 2; stroke-linejoin: miter"/>
    </g>
    <g id="line2d_26">
     <path d="M 627.217876 352.587813 
L 649.217876 352.587813 
L 649.217876 352.587813 
L 671.217876 352.587813 
L 671.217876 352.587813 
" style="fill: none; stroke: #c07156; stroke-width: 3; stroke-linecap: round"/>
    </g>
    <g id="text_26">
     <!-- Empirical -->
     <g style="fill: #262626" transform="translate(688.817876 360.287813)scale(0.22 -0.22)">
      <use xlink:href="#ArialMT-45"/>
      <use xlink:href="#ArialMT-6d" x="66.699219"/>
      <use xlink:href="#ArialMT-70" x="150"/>
      <use xlink:href="#ArialMT-69" x="205.615234"/>
      <use xlink:href="#ArialMT-72" x="227.832031"/>
      <use xlink:href="#ArialMT-69" x="261.132812"/>
      <use xlink:href="#ArialMT-63" x="283.349609"/>
      <use xlink:href="#ArialMT-61" x="333.349609"/>
      <use xlink:href="#ArialMT-6c" x="388.964844"/>
     </g>
    </g>
    <g id="line2d_27">
     <path d="M 627.217876 383.7075 
L 649.217876 383.7075 
L 671.217876 383.7075 
" style="fill: none; stroke: #3a578a; stroke-width: 2; stroke-linecap: round"/>
    </g>
    <g id="text_27">
     <!-- Fitted normal -->
     <g style="fill: #262626" transform="translate(688.817876 391.4075)scale(0.22 -0.22)">
      <use xlink:href="#ArialMT-46"/>
      <use xlink:href="#ArialMT-69" x="61.083984"/>
      <use xlink:href="#ArialMT-74" x="83.300781"/>
      <use xlink:href="#ArialMT-74" x="111.083984"/>
      <use xlink:href="#ArialMT-65" x="138.867188"/>
      <use xlink:href="#ArialMT-64" x="194.482422"/>
      <use xlink:href="#ArialMT-20" x="250.097656"/>
      <use xlink:href="#ArialMT-6e" x="277.880859"/>
      <use xlink:href="#ArialMT-6f" x="333.496094"/>
      <use xlink:href="#ArialMT-72" x="389.111328"/>
      <use xlink:href="#ArialMT-6d" x="422.412109"/>
      <use xlink:href="#ArialMT-61" x="505.712891"/>
      <use xlink:href="#ArialMT-6c" x="561.328125"/>
     </g>
    </g>
   </g>
  </g>
 </g>
 <defs>
  <clipPath id="p8c439981b7">
   <rect x="112.158003" y="39.186312" width="374.662124" height="376.393688"/>
  </clipPath>
  <clipPath id="p0f65d92206">
   <rect x="607.417876" y="39.186312" width="374.662124" height="376.393688"/>
  </clipPath>
 </defs>
</svg>
